G75*
%MOIN*%
%OFA0B0*%
%FSLAX24Y24*%
%IPPOS*%
%LPD*%
%AMOC8*
5,1,8,0,0,1.08239X$1,22.5*
%
%ADD10C,0.0540*%
%ADD11C,0.0220*%
%ADD12C,0.0050*%
%ADD13C,0.0120*%
D10*
X016150Y017150D03*
X016150Y018150D03*
X016150Y019150D03*
X016150Y020150D03*
X016150Y021150D03*
X016150Y022150D03*
X016150Y023150D03*
X016150Y024150D03*
X016150Y025150D03*
X016150Y026150D03*
X016150Y027150D03*
X016150Y028150D03*
X016150Y029150D03*
X016150Y030150D03*
X016150Y031150D03*
X016150Y032150D03*
X016150Y033150D03*
X022150Y033150D03*
X022150Y032150D03*
X022150Y031150D03*
X022150Y030150D03*
X022150Y029150D03*
X022150Y028150D03*
X022150Y027150D03*
X022150Y026150D03*
X022150Y025150D03*
X022150Y024150D03*
X022150Y023150D03*
X022150Y022150D03*
X022150Y021150D03*
X022150Y020150D03*
X022150Y019150D03*
X022150Y018150D03*
X022150Y017150D03*
D11*
X019650Y018250D03*
X019450Y019050D03*
X019050Y019050D03*
X018650Y018250D03*
X018250Y017650D03*
X017450Y019650D03*
X018650Y020650D03*
X017600Y022100D03*
X016850Y022550D03*
X017050Y023150D03*
X017850Y023100D03*
X018050Y022900D03*
X018350Y022800D03*
X018750Y022900D03*
X019050Y022900D03*
X019250Y022650D03*
X019450Y022850D03*
X019350Y022300D03*
X020050Y022900D03*
X020500Y023200D03*
X020900Y024200D03*
X020900Y024500D03*
X020900Y024800D03*
X020900Y025100D03*
X021350Y025300D03*
X021450Y025600D03*
X021450Y025900D03*
X021450Y026200D03*
X021400Y026650D03*
X020850Y026450D03*
X020600Y026850D03*
X020350Y026400D03*
X019950Y026450D03*
X019700Y027100D03*
X019850Y027350D03*
X019050Y027650D03*
X018650Y027400D03*
X018200Y027650D03*
X017650Y028050D03*
X017650Y027250D03*
X017850Y027050D03*
X018050Y026850D03*
X018900Y026800D03*
X018800Y026400D03*
X019250Y026400D03*
X019050Y028550D03*
X020250Y028450D03*
X020300Y029900D03*
X019250Y030050D03*
X018850Y030250D03*
X019400Y030650D03*
X018450Y031250D03*
X017650Y030650D03*
X017250Y029850D03*
X017450Y029450D03*
X017050Y032050D03*
X017450Y033050D03*
X017050Y034300D03*
X018250Y035050D03*
X018850Y034450D03*
X019450Y034650D03*
X019650Y034850D03*
X019850Y035050D03*
X020200Y035000D03*
X020200Y035200D03*
X020200Y035400D03*
X020200Y035600D03*
X020200Y035800D03*
X020200Y036000D03*
X020900Y036000D03*
X020900Y035800D03*
X020900Y035600D03*
X020900Y035400D03*
X020900Y035200D03*
X021050Y034650D03*
X021350Y034650D03*
X021500Y034200D03*
X021250Y032650D03*
X021000Y032500D03*
X020150Y032200D03*
X019650Y032150D03*
X019450Y031950D03*
X018900Y032550D03*
X018800Y033150D03*
X018750Y033450D03*
X018800Y033750D03*
X019850Y033650D03*
X020050Y033450D03*
X020250Y033250D03*
X020250Y033650D03*
X019850Y033250D03*
X017050Y026050D03*
X016850Y025850D03*
X016650Y025050D03*
X017050Y024950D03*
X017350Y024800D03*
X017300Y024400D03*
X017400Y024100D03*
X016900Y024450D03*
X017350Y025350D03*
X016200Y023650D03*
X021250Y021600D03*
X022050Y023650D03*
D12*
X015875Y016937D02*
X015875Y016457D01*
X015917Y016499D01*
X016068Y016561D01*
X016232Y016561D01*
X016383Y016499D01*
X016499Y016383D01*
X016561Y016232D01*
X021739Y016232D01*
X021739Y016068D01*
X021801Y015917D01*
X021843Y015875D01*
X016457Y015875D01*
X016499Y015917D01*
X016561Y016068D01*
X016561Y016232D01*
X016561Y016184D02*
X021739Y016184D01*
X021739Y016232D02*
X021801Y016383D01*
X021917Y016499D01*
X022068Y016561D01*
X022232Y016561D01*
X022383Y016499D01*
X022425Y016457D01*
X022425Y016937D01*
X022345Y016858D01*
X022219Y016805D01*
X022081Y016805D01*
X021955Y016858D01*
X021858Y016955D01*
X021805Y017081D01*
X021805Y017219D01*
X021858Y017345D01*
X021955Y017442D01*
X022081Y017495D01*
X022219Y017495D01*
X022345Y017442D01*
X022425Y017363D01*
X022425Y017866D01*
X022402Y017843D01*
X022337Y017800D01*
X022265Y017770D01*
X022189Y017755D01*
X022175Y017755D01*
X022175Y018125D01*
X022125Y018125D01*
X022125Y017755D01*
X022111Y017755D01*
X022035Y017770D01*
X021963Y017800D01*
X021898Y017843D01*
X021843Y017898D01*
X021800Y017963D01*
X021770Y018035D01*
X021755Y018111D01*
X021755Y018125D01*
X022125Y018125D01*
X022125Y018175D01*
X022125Y018545D01*
X022111Y018545D01*
X022035Y018530D01*
X021963Y018500D01*
X021898Y018457D01*
X021843Y018402D01*
X021800Y018337D01*
X021770Y018265D01*
X021755Y018189D01*
X021755Y018175D01*
X022125Y018175D01*
X022175Y018175D01*
X022175Y018545D01*
X022189Y018545D01*
X022265Y018530D01*
X022337Y018500D01*
X022402Y018457D01*
X022425Y018434D01*
X022425Y018937D01*
X022345Y018858D01*
X022219Y018805D01*
X022081Y018805D01*
X021955Y018858D01*
X021858Y018955D01*
X021805Y019081D01*
X021805Y019219D01*
X021858Y019345D01*
X021955Y019442D01*
X022081Y019495D01*
X022219Y019495D01*
X022345Y019442D01*
X022425Y019363D01*
X022425Y019937D01*
X022345Y019858D01*
X022219Y019805D01*
X022081Y019805D01*
X021955Y019858D01*
X021858Y019955D01*
X021805Y020081D01*
X021805Y020219D01*
X021845Y020314D01*
X021609Y020550D01*
X021550Y020609D01*
X021550Y021259D01*
X021509Y021300D01*
X021450Y021359D01*
X021450Y022359D01*
X021409Y022400D01*
X021350Y022459D01*
X021350Y025115D01*
X021273Y025115D01*
X021165Y025223D01*
X021165Y025377D01*
X021273Y025485D01*
X021303Y025485D01*
X021265Y025523D01*
X021265Y025677D01*
X021338Y025750D01*
X021265Y025823D01*
X021265Y025977D01*
X021338Y026050D01*
X021265Y026123D01*
X021265Y026277D01*
X021373Y026385D01*
X021527Y026385D01*
X021635Y026277D01*
X021635Y026256D01*
X021650Y026241D01*
X021805Y026086D01*
X021805Y026219D01*
X021845Y026314D01*
X021700Y026459D01*
X021700Y026659D01*
X021609Y026750D01*
X021562Y026750D01*
X021585Y026727D01*
X021585Y026573D01*
X021477Y026465D01*
X021323Y026465D01*
X021215Y026573D01*
X021215Y026727D01*
X021238Y026750D01*
X020991Y026750D01*
X020876Y026635D01*
X020927Y026635D01*
X021035Y026527D01*
X021035Y026373D01*
X020950Y026288D01*
X020950Y025459D01*
X020891Y025400D01*
X020726Y025235D01*
X020773Y025235D01*
X020823Y025285D01*
X020977Y025285D01*
X021085Y025177D01*
X021085Y025023D01*
X020977Y024915D01*
X020823Y024915D01*
X020773Y024965D01*
X020756Y024965D01*
X018885Y023094D01*
X018885Y023027D01*
X018900Y023012D01*
X018973Y023085D01*
X019127Y023085D01*
X019235Y022977D01*
X019235Y022835D01*
X019265Y022835D01*
X019265Y022927D01*
X019373Y023035D01*
X019527Y023035D01*
X019635Y022927D01*
X019635Y022773D01*
X019552Y022690D01*
X019691Y022550D01*
X019750Y022491D01*
X019750Y022009D01*
X019550Y021809D01*
X019550Y019212D01*
X019635Y019127D01*
X019635Y018973D01*
X019527Y018865D01*
X019373Y018865D01*
X019265Y018973D01*
X019265Y019124D01*
X019235Y019094D01*
X019235Y018973D01*
X019127Y018865D01*
X018973Y018865D01*
X018865Y018973D01*
X018865Y019127D01*
X018973Y019235D01*
X019094Y019235D01*
X019150Y019291D01*
X019150Y021809D01*
X018950Y022009D01*
X018950Y022491D01*
X019065Y022606D01*
X019065Y022715D01*
X019056Y022715D01*
X018950Y022609D01*
X018891Y022550D01*
X018609Y022550D01*
X018509Y022650D01*
X018485Y022673D01*
X018427Y022615D01*
X018273Y022615D01*
X018165Y022723D01*
X018165Y022753D01*
X018127Y022715D01*
X017973Y022715D01*
X017865Y022823D01*
X017865Y022915D01*
X017773Y022915D01*
X017665Y023023D01*
X017665Y023177D01*
X017773Y023285D01*
X017894Y023285D01*
X017959Y023350D01*
X018409Y023350D01*
X020550Y025491D01*
X020550Y026591D01*
X020609Y026650D01*
X020624Y026665D01*
X020523Y026665D01*
X020415Y026773D01*
X020415Y026927D01*
X020523Y027035D01*
X020677Y027035D01*
X020785Y026927D01*
X020785Y026826D01*
X020909Y026950D01*
X021691Y026950D01*
X021700Y026941D01*
X021700Y033809D01*
X021600Y033909D01*
X021600Y034659D01*
X021535Y034724D01*
X021535Y034573D01*
X021427Y034465D01*
X021273Y034465D01*
X021165Y034573D01*
X021165Y034727D01*
X021238Y034800D01*
X021141Y034800D01*
X021091Y034750D01*
X020391Y034750D01*
X020050Y034409D01*
X019991Y034350D01*
X019012Y034350D01*
X018927Y034265D01*
X018773Y034265D01*
X018665Y034373D01*
X018665Y034527D01*
X018773Y034635D01*
X018927Y034635D01*
X019012Y034550D01*
X019288Y034550D01*
X019265Y034573D01*
X019265Y034727D01*
X019373Y034835D01*
X019465Y034835D01*
X019465Y034927D01*
X019573Y035035D01*
X019727Y035035D01*
X019835Y034927D01*
X019835Y034773D01*
X019727Y034665D01*
X019635Y034665D01*
X019635Y034573D01*
X019612Y034550D01*
X019909Y034550D01*
X020174Y034815D01*
X020123Y034815D01*
X020015Y034923D01*
X020015Y035077D01*
X020038Y035100D01*
X020015Y035123D01*
X020015Y035277D01*
X020038Y035300D01*
X020015Y035323D01*
X020015Y035477D01*
X020038Y035500D01*
X020015Y035523D01*
X020015Y035677D01*
X020038Y035700D01*
X020015Y035723D01*
X020015Y035877D01*
X020038Y035900D01*
X020015Y035923D01*
X015875Y035923D01*
X015875Y035875D02*
X020015Y035875D01*
X020015Y035923D02*
X020015Y036077D01*
X020088Y036150D01*
X015875Y036150D01*
X015875Y034457D01*
X015917Y034499D01*
X016068Y034561D01*
X016232Y034561D01*
X016383Y034499D01*
X016499Y034383D01*
X016561Y034232D01*
X016561Y034068D01*
X016499Y033917D01*
X016383Y033801D01*
X016232Y033739D01*
X016068Y033739D01*
X015917Y033801D01*
X015875Y033843D01*
X015875Y033363D01*
X015955Y033442D01*
X016081Y033495D01*
X016219Y033495D01*
X016345Y033442D01*
X016442Y033345D01*
X016495Y033219D01*
X016495Y033081D01*
X016455Y032986D01*
X016900Y032541D01*
X016900Y032162D01*
X016973Y032235D01*
X017127Y032235D01*
X017235Y032127D01*
X017235Y031973D01*
X017127Y031865D01*
X017050Y031865D01*
X017050Y028791D01*
X017606Y028235D01*
X017727Y028235D01*
X017835Y028127D01*
X017835Y027973D01*
X017727Y027865D01*
X017573Y027865D01*
X017465Y027973D01*
X017465Y028094D01*
X016909Y028650D01*
X016900Y028659D01*
X016900Y027491D01*
X017041Y027350D01*
X017488Y027350D01*
X017573Y027435D01*
X017727Y027435D01*
X017835Y027327D01*
X017835Y027235D01*
X017927Y027235D01*
X018035Y027127D01*
X018035Y027035D01*
X018127Y027035D01*
X018235Y026927D01*
X018235Y026773D01*
X018127Y026665D01*
X017973Y026665D01*
X017888Y026750D01*
X016809Y026750D01*
X016490Y027069D01*
X016455Y026986D01*
X016750Y026691D01*
X016750Y026012D01*
X016773Y026035D01*
X016865Y026035D01*
X016865Y026127D01*
X016973Y026235D01*
X017127Y026235D01*
X017235Y026127D01*
X017235Y025973D01*
X017150Y025888D01*
X017150Y025112D01*
X017235Y025027D01*
X017235Y024947D01*
X017273Y024985D01*
X017427Y024985D01*
X017535Y024877D01*
X017535Y024726D01*
X017550Y024741D01*
X017550Y025009D01*
X017394Y025165D01*
X017273Y025165D01*
X017165Y025273D01*
X017165Y025427D01*
X017273Y025535D01*
X017427Y025535D01*
X017535Y025427D01*
X017535Y025306D01*
X017691Y025150D01*
X017691Y025150D01*
X017750Y025091D01*
X017750Y024659D01*
X017691Y024600D01*
X017591Y024500D01*
X017462Y024500D01*
X017485Y024477D01*
X017485Y024323D01*
X017377Y024215D01*
X017223Y024215D01*
X017165Y024273D01*
X016700Y023809D01*
X016700Y022662D01*
X016773Y022735D01*
X016824Y022735D01*
X016809Y022750D01*
X016750Y022809D01*
X016750Y023291D01*
X018750Y025291D01*
X018750Y026215D01*
X018723Y026215D01*
X018615Y026323D01*
X018615Y026477D01*
X018723Y026585D01*
X018877Y026585D01*
X018985Y026477D01*
X018985Y026323D01*
X018950Y026288D01*
X018950Y025209D01*
X018891Y025150D01*
X017076Y023335D01*
X017127Y023335D01*
X017235Y023227D01*
X017235Y023073D01*
X017127Y022965D01*
X016973Y022965D01*
X016950Y022988D01*
X016950Y022891D01*
X017091Y022750D01*
X017091Y022750D01*
X017150Y022691D01*
X017150Y022309D01*
X017091Y022250D01*
X016900Y022059D01*
X016900Y018259D01*
X016841Y018200D01*
X016250Y017609D01*
X016250Y017482D01*
X016345Y017442D01*
X016442Y017345D01*
X016495Y017219D01*
X016495Y017081D01*
X016442Y016955D01*
X016345Y016858D01*
X016219Y016805D01*
X016081Y016805D01*
X015955Y016858D01*
X015875Y016937D01*
X015875Y016911D02*
X015901Y016911D01*
X015875Y016863D02*
X015950Y016863D01*
X015875Y016814D02*
X016060Y016814D01*
X016240Y016814D02*
X022060Y016814D01*
X021950Y016863D02*
X016350Y016863D01*
X016399Y016911D02*
X021901Y016911D01*
X021855Y016960D02*
X016445Y016960D01*
X016465Y017008D02*
X021835Y017008D01*
X021815Y017057D02*
X016485Y017057D01*
X016495Y017105D02*
X021805Y017105D01*
X021805Y017154D02*
X016495Y017154D01*
X016495Y017202D02*
X021805Y017202D01*
X021818Y017251D02*
X016482Y017251D01*
X016462Y017299D02*
X021838Y017299D01*
X021860Y017348D02*
X016440Y017348D01*
X016392Y017396D02*
X021908Y017396D01*
X021959Y017445D02*
X016341Y017445D01*
X016250Y017493D02*
X018145Y017493D01*
X018173Y017465D02*
X018327Y017465D01*
X018435Y017573D01*
X018435Y017727D01*
X018327Y017835D01*
X018173Y017835D01*
X018065Y017727D01*
X018065Y017573D01*
X018173Y017465D01*
X018097Y017542D02*
X016250Y017542D01*
X016250Y017590D02*
X018065Y017590D01*
X018065Y017639D02*
X016280Y017639D01*
X016328Y017687D02*
X018065Y017687D01*
X018074Y017736D02*
X016377Y017736D01*
X016425Y017784D02*
X018122Y017784D01*
X018171Y017833D02*
X016474Y017833D01*
X016522Y017881D02*
X021860Y017881D01*
X021822Y017930D02*
X016571Y017930D01*
X016619Y017978D02*
X021794Y017978D01*
X021774Y018027D02*
X016668Y018027D01*
X016716Y018075D02*
X018563Y018075D01*
X018573Y018065D02*
X018727Y018065D01*
X018835Y018173D01*
X018835Y018327D01*
X018727Y018435D01*
X018573Y018435D01*
X018465Y018327D01*
X018465Y018173D01*
X018573Y018065D01*
X018515Y018124D02*
X016765Y018124D01*
X016813Y018172D02*
X018466Y018172D01*
X018465Y018221D02*
X016862Y018221D01*
X016900Y018269D02*
X018465Y018269D01*
X018465Y018318D02*
X016900Y018318D01*
X016900Y018366D02*
X018504Y018366D01*
X018553Y018415D02*
X016900Y018415D01*
X016900Y018463D02*
X021907Y018463D01*
X021856Y018415D02*
X019747Y018415D01*
X019727Y018435D02*
X019573Y018435D01*
X019465Y018327D01*
X019465Y018173D01*
X019573Y018065D01*
X019727Y018065D01*
X019835Y018173D01*
X019835Y018327D01*
X019727Y018435D01*
X019796Y018366D02*
X021819Y018366D01*
X021792Y018318D02*
X019835Y018318D01*
X019835Y018269D02*
X021772Y018269D01*
X021761Y018221D02*
X019835Y018221D01*
X019834Y018172D02*
X022125Y018172D01*
X022125Y018124D02*
X022175Y018124D01*
X022175Y018075D02*
X022125Y018075D01*
X022125Y018027D02*
X022175Y018027D01*
X022175Y017978D02*
X022125Y017978D01*
X022125Y017930D02*
X022175Y017930D01*
X022175Y017881D02*
X022125Y017881D01*
X022125Y017833D02*
X022175Y017833D01*
X022175Y017784D02*
X022125Y017784D01*
X022001Y017784D02*
X018378Y017784D01*
X018426Y017736D02*
X022425Y017736D01*
X022425Y017784D02*
X022299Y017784D01*
X022386Y017833D02*
X022425Y017833D01*
X022425Y017687D02*
X018435Y017687D01*
X018435Y017639D02*
X022425Y017639D01*
X022425Y017590D02*
X018435Y017590D01*
X018403Y017542D02*
X022425Y017542D01*
X022425Y017493D02*
X022223Y017493D01*
X022341Y017445D02*
X022425Y017445D01*
X022425Y017396D02*
X022392Y017396D01*
X022077Y017493D02*
X018355Y017493D01*
X018329Y017833D02*
X021914Y017833D01*
X021762Y018075D02*
X019737Y018075D01*
X019785Y018124D02*
X021755Y018124D01*
X022125Y018221D02*
X022175Y018221D01*
X022175Y018269D02*
X022125Y018269D01*
X022125Y018318D02*
X022175Y018318D01*
X022175Y018366D02*
X022125Y018366D01*
X022125Y018415D02*
X022175Y018415D01*
X022175Y018463D02*
X022125Y018463D01*
X022125Y018512D02*
X022175Y018512D01*
X022309Y018512D02*
X022425Y018512D01*
X022425Y018560D02*
X016900Y018560D01*
X016900Y018512D02*
X021991Y018512D01*
X021970Y018851D02*
X016900Y018851D01*
X016900Y018803D02*
X022425Y018803D01*
X022425Y018851D02*
X022330Y018851D01*
X022387Y018900D02*
X022425Y018900D01*
X022425Y018754D02*
X016900Y018754D01*
X016900Y018706D02*
X022425Y018706D01*
X022425Y018657D02*
X016900Y018657D01*
X016900Y018609D02*
X022425Y018609D01*
X022425Y018463D02*
X022393Y018463D01*
X021913Y018900D02*
X019561Y018900D01*
X019610Y018948D02*
X021864Y018948D01*
X021840Y018997D02*
X019635Y018997D01*
X019635Y019045D02*
X021820Y019045D01*
X021805Y019094D02*
X019635Y019094D01*
X019620Y019142D02*
X021805Y019142D01*
X021805Y019191D02*
X019571Y019191D01*
X019550Y019239D02*
X021813Y019239D01*
X021834Y019288D02*
X019550Y019288D01*
X019550Y019336D02*
X021854Y019336D01*
X021897Y019385D02*
X019550Y019385D01*
X019550Y019433D02*
X021945Y019433D01*
X022049Y019482D02*
X019550Y019482D01*
X019550Y019530D02*
X022425Y019530D01*
X022425Y019482D02*
X022251Y019482D01*
X022355Y019433D02*
X022425Y019433D01*
X022425Y019385D02*
X022403Y019385D01*
X022425Y019579D02*
X019550Y019579D01*
X019550Y019627D02*
X022425Y019627D01*
X022425Y019676D02*
X019550Y019676D01*
X019550Y019724D02*
X022425Y019724D01*
X022425Y019773D02*
X019550Y019773D01*
X019550Y019821D02*
X022043Y019821D01*
X021943Y019870D02*
X019550Y019870D01*
X019550Y019918D02*
X021894Y019918D01*
X021853Y019967D02*
X019550Y019967D01*
X019550Y020015D02*
X021832Y020015D01*
X021812Y020064D02*
X019550Y020064D01*
X019550Y020112D02*
X021805Y020112D01*
X021805Y020161D02*
X019550Y020161D01*
X019550Y020209D02*
X021805Y020209D01*
X021821Y020258D02*
X019550Y020258D01*
X019550Y020306D02*
X021841Y020306D01*
X021804Y020355D02*
X019550Y020355D01*
X019550Y020403D02*
X021756Y020403D01*
X021707Y020452D02*
X019550Y020452D01*
X019550Y020500D02*
X021659Y020500D01*
X021610Y020549D02*
X019550Y020549D01*
X019550Y020597D02*
X021562Y020597D01*
X021550Y020646D02*
X019550Y020646D01*
X019550Y020694D02*
X021550Y020694D01*
X021550Y020743D02*
X019550Y020743D01*
X019550Y020791D02*
X021550Y020791D01*
X021550Y020840D02*
X019550Y020840D01*
X019550Y020888D02*
X021550Y020888D01*
X021550Y020937D02*
X019550Y020937D01*
X019550Y020985D02*
X021550Y020985D01*
X021550Y021034D02*
X019550Y021034D01*
X019550Y021082D02*
X021550Y021082D01*
X021550Y021131D02*
X019550Y021131D01*
X019550Y021179D02*
X021550Y021179D01*
X021550Y021228D02*
X019550Y021228D01*
X019550Y021276D02*
X021533Y021276D01*
X021484Y021325D02*
X019550Y021325D01*
X019550Y021373D02*
X021450Y021373D01*
X021450Y021422D02*
X021333Y021422D01*
X021327Y021415D02*
X021435Y021523D01*
X021435Y021677D01*
X021327Y021785D01*
X021173Y021785D01*
X021065Y021677D01*
X021065Y021523D01*
X021173Y021415D01*
X021327Y021415D01*
X021382Y021470D02*
X021450Y021470D01*
X021450Y021519D02*
X021430Y021519D01*
X021435Y021567D02*
X021450Y021567D01*
X021450Y021616D02*
X021435Y021616D01*
X021435Y021664D02*
X021450Y021664D01*
X021450Y021713D02*
X021399Y021713D01*
X021351Y021761D02*
X021450Y021761D01*
X021450Y021810D02*
X019551Y021810D01*
X019550Y021761D02*
X021149Y021761D01*
X021101Y021713D02*
X019550Y021713D01*
X019550Y021664D02*
X021065Y021664D01*
X021065Y021616D02*
X019550Y021616D01*
X019550Y021567D02*
X021065Y021567D01*
X021070Y021519D02*
X019550Y021519D01*
X019550Y021470D02*
X021118Y021470D01*
X021167Y021422D02*
X019550Y021422D01*
X019150Y021422D02*
X016900Y021422D01*
X016900Y021470D02*
X019150Y021470D01*
X019150Y021519D02*
X016900Y021519D01*
X016900Y021567D02*
X019150Y021567D01*
X019150Y021616D02*
X016900Y021616D01*
X016900Y021664D02*
X019150Y021664D01*
X019150Y021713D02*
X016900Y021713D01*
X016900Y021761D02*
X019150Y021761D01*
X019149Y021810D02*
X016900Y021810D01*
X016900Y021858D02*
X019101Y021858D01*
X019052Y021907D02*
X016900Y021907D01*
X016900Y021955D02*
X017483Y021955D01*
X017523Y021915D02*
X017677Y021915D01*
X017785Y022023D01*
X017785Y022177D01*
X017677Y022285D01*
X017523Y022285D01*
X017415Y022177D01*
X017415Y022023D01*
X017523Y021915D01*
X017435Y022004D02*
X016900Y022004D01*
X016900Y022052D02*
X017415Y022052D01*
X017415Y022101D02*
X016942Y022101D01*
X016990Y022149D02*
X017415Y022149D01*
X017436Y022198D02*
X017039Y022198D01*
X017087Y022246D02*
X017484Y022246D01*
X017716Y022246D02*
X018950Y022246D01*
X018950Y022198D02*
X017764Y022198D01*
X017785Y022149D02*
X018950Y022149D01*
X018950Y022101D02*
X017785Y022101D01*
X017785Y022052D02*
X018950Y022052D01*
X018955Y022004D02*
X017765Y022004D01*
X017717Y021955D02*
X019004Y021955D01*
X019050Y022050D02*
X019250Y021850D01*
X019250Y019250D01*
X019050Y019050D01*
X019235Y019045D02*
X019265Y019045D01*
X019265Y018997D02*
X019235Y018997D01*
X019210Y018948D02*
X019290Y018948D01*
X019339Y018900D02*
X019161Y018900D01*
X019235Y019094D02*
X019265Y019094D01*
X019450Y019050D02*
X019450Y021850D01*
X019650Y022050D01*
X019650Y022450D01*
X019450Y022650D01*
X019450Y022850D01*
X019588Y022974D02*
X021350Y022974D01*
X021350Y023022D02*
X020584Y023022D01*
X020577Y023015D02*
X020685Y023123D01*
X020685Y023277D01*
X020577Y023385D01*
X020423Y023385D01*
X020315Y023277D01*
X020315Y023123D01*
X020423Y023015D01*
X020577Y023015D01*
X020632Y023071D02*
X021350Y023071D01*
X021350Y023119D02*
X020681Y023119D01*
X020685Y023168D02*
X021350Y023168D01*
X021350Y023216D02*
X020685Y023216D01*
X020685Y023265D02*
X021350Y023265D01*
X021350Y023313D02*
X020649Y023313D01*
X020600Y023362D02*
X021350Y023362D01*
X021350Y023410D02*
X019201Y023410D01*
X019249Y023459D02*
X021350Y023459D01*
X021350Y023507D02*
X019298Y023507D01*
X019346Y023556D02*
X021350Y023556D01*
X021350Y023604D02*
X019395Y023604D01*
X019443Y023653D02*
X021350Y023653D01*
X021350Y023701D02*
X019492Y023701D01*
X019540Y023750D02*
X021350Y023750D01*
X021350Y023798D02*
X019589Y023798D01*
X019637Y023847D02*
X021350Y023847D01*
X021350Y023895D02*
X019686Y023895D01*
X019734Y023944D02*
X021350Y023944D01*
X021350Y023992D02*
X019783Y023992D01*
X019831Y024041D02*
X020798Y024041D01*
X020823Y024015D02*
X020977Y024015D01*
X021085Y024123D01*
X021085Y024277D01*
X021012Y024350D01*
X021085Y024423D01*
X021085Y024577D01*
X020977Y024685D01*
X020823Y024685D01*
X020715Y024577D01*
X020715Y024423D01*
X020788Y024350D01*
X020715Y024277D01*
X020715Y024123D01*
X020823Y024015D01*
X020749Y024089D02*
X019880Y024089D01*
X019928Y024138D02*
X020715Y024138D01*
X020715Y024186D02*
X019977Y024186D01*
X020025Y024235D02*
X020715Y024235D01*
X020721Y024283D02*
X020074Y024283D01*
X020122Y024332D02*
X020770Y024332D01*
X020758Y024380D02*
X020171Y024380D01*
X020219Y024429D02*
X020715Y024429D01*
X020715Y024477D02*
X020268Y024477D01*
X020316Y024526D02*
X020715Y024526D01*
X020715Y024574D02*
X020365Y024574D01*
X020413Y024623D02*
X020761Y024623D01*
X020809Y024671D02*
X020462Y024671D01*
X020510Y024720D02*
X021350Y024720D01*
X021350Y024768D02*
X020559Y024768D01*
X020607Y024817D02*
X021350Y024817D01*
X021350Y024865D02*
X020656Y024865D01*
X020704Y024914D02*
X021350Y024914D01*
X021350Y024962D02*
X021024Y024962D01*
X021072Y025011D02*
X021350Y025011D01*
X021350Y025059D02*
X021085Y025059D01*
X021085Y025108D02*
X021350Y025108D01*
X021232Y025156D02*
X021085Y025156D01*
X021057Y025205D02*
X021184Y025205D01*
X021165Y025253D02*
X021009Y025253D01*
X021165Y025302D02*
X020793Y025302D01*
X020791Y025253D02*
X020744Y025253D01*
X020841Y025350D02*
X021165Y025350D01*
X021187Y025399D02*
X020890Y025399D01*
X020938Y025447D02*
X021235Y025447D01*
X021293Y025496D02*
X020950Y025496D01*
X020950Y025544D02*
X021265Y025544D01*
X021265Y025593D02*
X020950Y025593D01*
X020950Y025641D02*
X021265Y025641D01*
X021278Y025690D02*
X020950Y025690D01*
X020950Y025738D02*
X021326Y025738D01*
X021302Y025787D02*
X020950Y025787D01*
X020950Y025835D02*
X021265Y025835D01*
X021265Y025884D02*
X020950Y025884D01*
X020950Y025932D02*
X021265Y025932D01*
X021269Y025981D02*
X020950Y025981D01*
X020950Y026029D02*
X021317Y026029D01*
X021311Y026078D02*
X020950Y026078D01*
X020950Y026126D02*
X021265Y026126D01*
X021265Y026175D02*
X020950Y026175D01*
X020950Y026223D02*
X021265Y026223D01*
X021265Y026272D02*
X020950Y026272D01*
X020982Y026320D02*
X021308Y026320D01*
X021357Y026369D02*
X021030Y026369D01*
X021035Y026417D02*
X021742Y026417D01*
X021700Y026466D02*
X021477Y026466D01*
X021526Y026514D02*
X021700Y026514D01*
X021700Y026563D02*
X021574Y026563D01*
X021585Y026611D02*
X021700Y026611D01*
X021699Y026660D02*
X021585Y026660D01*
X021585Y026708D02*
X021651Y026708D01*
X021650Y026850D02*
X020950Y026850D01*
X020650Y026550D01*
X020650Y025450D01*
X018450Y023250D01*
X018000Y023250D01*
X017850Y023100D01*
X017715Y022974D02*
X017135Y022974D01*
X017184Y023022D02*
X017666Y023022D01*
X017665Y023071D02*
X017232Y023071D01*
X017235Y023119D02*
X017665Y023119D01*
X017665Y023168D02*
X017235Y023168D01*
X017235Y023216D02*
X017704Y023216D01*
X017753Y023265D02*
X017197Y023265D01*
X017149Y023313D02*
X017922Y023313D01*
X017763Y022925D02*
X016950Y022925D01*
X016950Y022974D02*
X016965Y022974D01*
X016965Y022877D02*
X017865Y022877D01*
X017865Y022828D02*
X017013Y022828D01*
X017062Y022780D02*
X017909Y022780D01*
X017957Y022731D02*
X017110Y022731D01*
X017150Y022683D02*
X018206Y022683D01*
X018165Y022731D02*
X018143Y022731D01*
X018254Y022634D02*
X017150Y022634D01*
X017150Y022586D02*
X018573Y022586D01*
X018525Y022634D02*
X018446Y022634D01*
X018550Y022750D02*
X018550Y023200D01*
X020850Y025500D01*
X020850Y026450D01*
X021035Y026466D02*
X021323Y026466D01*
X021274Y026514D02*
X021035Y026514D01*
X020999Y026563D02*
X021226Y026563D01*
X021215Y026611D02*
X020951Y026611D01*
X020901Y026660D02*
X021215Y026660D01*
X021215Y026708D02*
X020949Y026708D01*
X020812Y026854D02*
X020785Y026854D01*
X020785Y026902D02*
X020861Y026902D01*
X020761Y026951D02*
X021700Y026951D01*
X021700Y026999D02*
X020713Y026999D01*
X020487Y026999D02*
X019861Y026999D01*
X019885Y027023D02*
X019777Y026915D01*
X019623Y026915D01*
X019515Y027023D01*
X019515Y027177D01*
X019623Y027285D01*
X019665Y027285D01*
X019665Y027427D01*
X019773Y027535D01*
X019927Y027535D01*
X020035Y027427D01*
X020035Y027273D01*
X019927Y027165D01*
X019885Y027165D01*
X019885Y027023D01*
X019885Y027048D02*
X021700Y027048D01*
X021700Y027096D02*
X019885Y027096D01*
X019885Y027145D02*
X021700Y027145D01*
X021700Y027193D02*
X019955Y027193D01*
X020003Y027242D02*
X021700Y027242D01*
X021700Y027290D02*
X020035Y027290D01*
X020035Y027339D02*
X021700Y027339D01*
X021700Y027387D02*
X020035Y027387D01*
X020026Y027436D02*
X021700Y027436D01*
X021700Y027484D02*
X019978Y027484D01*
X019929Y027533D02*
X021700Y027533D01*
X021700Y027581D02*
X019235Y027581D01*
X019235Y027573D02*
X019235Y027727D01*
X019127Y027835D01*
X018973Y027835D01*
X018865Y027727D01*
X018865Y027573D01*
X018938Y027500D01*
X018812Y027500D01*
X018727Y027585D01*
X018573Y027585D01*
X018465Y027477D01*
X018465Y027323D01*
X018573Y027215D01*
X018727Y027215D01*
X018812Y027300D01*
X018910Y027300D01*
X019765Y026488D01*
X019765Y026373D01*
X019873Y026265D01*
X020027Y026265D01*
X020135Y026373D01*
X020135Y026527D01*
X020027Y026635D01*
X019900Y026635D01*
X019027Y027465D01*
X019127Y027465D01*
X019235Y027573D01*
X019235Y027630D02*
X021700Y027630D01*
X021700Y027678D02*
X019235Y027678D01*
X019235Y027727D02*
X021700Y027727D01*
X021700Y027775D02*
X019187Y027775D01*
X019138Y027824D02*
X021700Y027824D01*
X021700Y027872D02*
X017734Y027872D01*
X017782Y027921D02*
X021700Y027921D01*
X021700Y027969D02*
X017831Y027969D01*
X017835Y028018D02*
X021700Y028018D01*
X021700Y028066D02*
X017835Y028066D01*
X017835Y028115D02*
X021700Y028115D01*
X021700Y028163D02*
X017799Y028163D01*
X017750Y028212D02*
X021700Y028212D01*
X021700Y028260D02*
X017581Y028260D01*
X017533Y028309D02*
X021700Y028309D01*
X021700Y028357D02*
X017484Y028357D01*
X017436Y028406D02*
X018933Y028406D01*
X018973Y028365D02*
X019127Y028365D01*
X019235Y028473D01*
X019235Y028627D01*
X019127Y028735D01*
X018973Y028735D01*
X018865Y028627D01*
X018865Y028473D01*
X018973Y028365D01*
X018884Y028454D02*
X017387Y028454D01*
X017339Y028503D02*
X018865Y028503D01*
X018865Y028551D02*
X017290Y028551D01*
X017242Y028600D02*
X018865Y028600D01*
X018886Y028648D02*
X017193Y028648D01*
X017145Y028697D02*
X018935Y028697D01*
X019165Y028697D02*
X021700Y028697D01*
X021700Y028745D02*
X017096Y028745D01*
X017050Y028794D02*
X021700Y028794D01*
X021700Y028842D02*
X017050Y028842D01*
X017050Y028891D02*
X021700Y028891D01*
X021700Y028939D02*
X017050Y028939D01*
X017050Y028988D02*
X021700Y028988D01*
X021700Y029036D02*
X017050Y029036D01*
X017050Y029085D02*
X021700Y029085D01*
X021700Y029133D02*
X017050Y029133D01*
X017050Y029182D02*
X021700Y029182D01*
X021700Y029230D02*
X017050Y029230D01*
X017050Y029279D02*
X021700Y029279D01*
X021700Y029327D02*
X017050Y029327D01*
X017050Y029376D02*
X021700Y029376D01*
X021700Y029424D02*
X017050Y029424D01*
X017050Y029473D02*
X021700Y029473D01*
X021700Y029521D02*
X017050Y029521D01*
X017050Y029570D02*
X021700Y029570D01*
X021700Y029618D02*
X017050Y029618D01*
X017050Y029667D02*
X017172Y029667D01*
X017173Y029665D02*
X017327Y029665D01*
X017435Y029773D01*
X017435Y029927D01*
X017327Y030035D01*
X017173Y030035D01*
X017065Y029927D01*
X017065Y029773D01*
X017173Y029665D01*
X017123Y029715D02*
X017050Y029715D01*
X017050Y029764D02*
X017075Y029764D01*
X017065Y029812D02*
X017050Y029812D01*
X017050Y029861D02*
X017065Y029861D01*
X017065Y029909D02*
X017050Y029909D01*
X017050Y029958D02*
X017096Y029958D01*
X017050Y030006D02*
X017144Y030006D01*
X017050Y030055D02*
X019065Y030055D01*
X019065Y030103D02*
X017050Y030103D01*
X017050Y030152D02*
X019090Y030152D01*
X019065Y030127D02*
X019065Y029973D01*
X019173Y029865D01*
X019327Y029865D01*
X019435Y029973D01*
X019435Y030127D01*
X019327Y030235D01*
X019173Y030235D01*
X019065Y030127D01*
X019138Y030200D02*
X017050Y030200D01*
X017050Y030249D02*
X021700Y030249D01*
X021700Y030297D02*
X017050Y030297D01*
X017050Y030346D02*
X021700Y030346D01*
X021700Y030394D02*
X017050Y030394D01*
X017050Y030443D02*
X021700Y030443D01*
X021700Y030491D02*
X019503Y030491D01*
X019477Y030465D02*
X019585Y030573D01*
X019585Y030727D01*
X019477Y030835D01*
X019323Y030835D01*
X019215Y030727D01*
X019215Y030573D01*
X019323Y030465D01*
X019477Y030465D01*
X019551Y030540D02*
X021700Y030540D01*
X021700Y030588D02*
X019585Y030588D01*
X019585Y030637D02*
X021700Y030637D01*
X021700Y030685D02*
X019585Y030685D01*
X019578Y030734D02*
X021700Y030734D01*
X021700Y030782D02*
X019530Y030782D01*
X019481Y030831D02*
X021700Y030831D01*
X021700Y030879D02*
X017050Y030879D01*
X017050Y030831D02*
X017569Y030831D01*
X017573Y030835D02*
X017465Y030727D01*
X017465Y030573D01*
X017573Y030465D01*
X017727Y030465D01*
X017835Y030573D01*
X017835Y030727D01*
X017727Y030835D01*
X017573Y030835D01*
X017520Y030782D02*
X017050Y030782D01*
X017050Y030734D02*
X017472Y030734D01*
X017465Y030685D02*
X017050Y030685D01*
X017050Y030637D02*
X017465Y030637D01*
X017465Y030588D02*
X017050Y030588D01*
X017050Y030540D02*
X017499Y030540D01*
X017547Y030491D02*
X017050Y030491D01*
X016650Y030650D02*
X016150Y031150D01*
X016650Y030650D02*
X016650Y027350D01*
X016950Y027050D01*
X017850Y027050D01*
X018035Y027048D02*
X019176Y027048D01*
X019125Y027096D02*
X018035Y027096D01*
X018017Y027145D02*
X019074Y027145D01*
X019023Y027193D02*
X017969Y027193D01*
X017835Y027242D02*
X018547Y027242D01*
X018498Y027290D02*
X017835Y027290D01*
X017823Y027339D02*
X018465Y027339D01*
X018465Y027387D02*
X017775Y027387D01*
X017650Y027250D02*
X017000Y027250D01*
X016800Y027450D01*
X016800Y032500D01*
X016150Y033150D01*
X016467Y033013D02*
X017265Y033013D01*
X017265Y032973D02*
X017373Y032865D01*
X017527Y032865D01*
X017635Y032973D01*
X017635Y033127D01*
X017527Y033235D01*
X017373Y033235D01*
X017265Y033127D01*
X017265Y032973D01*
X017274Y032965D02*
X016477Y032965D01*
X016525Y032916D02*
X017322Y032916D01*
X017371Y032868D02*
X016574Y032868D01*
X016622Y032819D02*
X021157Y032819D01*
X021173Y032835D02*
X021065Y032727D01*
X021065Y032685D01*
X020923Y032685D01*
X020815Y032577D01*
X020815Y032423D01*
X020923Y032315D01*
X021077Y032315D01*
X021185Y032423D01*
X021185Y032465D01*
X021327Y032465D01*
X021435Y032573D01*
X021435Y032727D01*
X021327Y032835D01*
X021173Y032835D01*
X021109Y032771D02*
X016671Y032771D01*
X016719Y032722D02*
X021065Y032722D01*
X020912Y032674D02*
X016768Y032674D01*
X016816Y032625D02*
X020863Y032625D01*
X020815Y032577D02*
X016865Y032577D01*
X016900Y032528D02*
X020815Y032528D01*
X020815Y032480D02*
X016900Y032480D01*
X016900Y032431D02*
X020815Y032431D01*
X020856Y032383D02*
X020229Y032383D01*
X020227Y032385D02*
X020073Y032385D01*
X019965Y032277D01*
X019965Y032123D01*
X020073Y032015D01*
X020227Y032015D01*
X020335Y032123D01*
X020335Y032277D01*
X020227Y032385D01*
X020278Y032334D02*
X020904Y032334D01*
X021096Y032334D02*
X021700Y032334D01*
X021700Y032286D02*
X020326Y032286D01*
X020335Y032237D02*
X021700Y032237D01*
X021700Y032189D02*
X020335Y032189D01*
X020335Y032140D02*
X021700Y032140D01*
X021700Y032092D02*
X020303Y032092D01*
X020255Y032043D02*
X021700Y032043D01*
X021700Y031995D02*
X019756Y031995D01*
X019727Y031965D02*
X019835Y032073D01*
X019835Y032227D01*
X019727Y032335D01*
X019573Y032335D01*
X019465Y032227D01*
X019465Y032135D01*
X019373Y032135D01*
X019265Y032027D01*
X019265Y031873D01*
X019373Y031765D01*
X019527Y031765D01*
X019635Y031873D01*
X019635Y031965D01*
X019727Y031965D01*
X019635Y031946D02*
X021700Y031946D01*
X021700Y031898D02*
X019635Y031898D01*
X019611Y031849D02*
X021700Y031849D01*
X021700Y031801D02*
X019562Y031801D01*
X019338Y031801D02*
X017050Y031801D01*
X017050Y031849D02*
X019289Y031849D01*
X019265Y031898D02*
X017159Y031898D01*
X017208Y031946D02*
X019265Y031946D01*
X019265Y031995D02*
X017235Y031995D01*
X017235Y032043D02*
X019281Y032043D01*
X019330Y032092D02*
X017235Y032092D01*
X017222Y032140D02*
X019465Y032140D01*
X019465Y032189D02*
X017173Y032189D01*
X017050Y032050D02*
X016950Y031950D01*
X016950Y028750D01*
X017650Y028050D01*
X017518Y027921D02*
X016900Y027921D01*
X016900Y027969D02*
X017469Y027969D01*
X017465Y028018D02*
X016900Y028018D01*
X016900Y028066D02*
X017465Y028066D01*
X017444Y028115D02*
X016900Y028115D01*
X016900Y028163D02*
X017396Y028163D01*
X017347Y028212D02*
X016900Y028212D01*
X016900Y028260D02*
X017299Y028260D01*
X017250Y028309D02*
X016900Y028309D01*
X016900Y028357D02*
X017202Y028357D01*
X017153Y028406D02*
X016900Y028406D01*
X016900Y028454D02*
X017105Y028454D01*
X017056Y028503D02*
X016900Y028503D01*
X016900Y028551D02*
X017008Y028551D01*
X016959Y028600D02*
X016900Y028600D01*
X016900Y028648D02*
X016911Y028648D01*
X016900Y027872D02*
X017566Y027872D01*
X018015Y027727D02*
X016900Y027727D01*
X016900Y027775D02*
X018063Y027775D01*
X018015Y027727D02*
X018015Y027573D01*
X018123Y027465D01*
X018277Y027465D01*
X018385Y027573D01*
X018385Y027727D01*
X018277Y027835D01*
X018123Y027835D01*
X018015Y027727D01*
X018015Y027678D02*
X016900Y027678D01*
X016900Y027630D02*
X018015Y027630D01*
X018015Y027581D02*
X016900Y027581D01*
X016900Y027533D02*
X018056Y027533D01*
X018104Y027484D02*
X016907Y027484D01*
X016956Y027436D02*
X018465Y027436D01*
X018472Y027484D02*
X018296Y027484D01*
X018344Y027533D02*
X018521Y027533D01*
X018569Y027581D02*
X018385Y027581D01*
X018385Y027630D02*
X018865Y027630D01*
X018865Y027678D02*
X018385Y027678D01*
X018385Y027727D02*
X018865Y027727D01*
X018913Y027775D02*
X018337Y027775D01*
X018288Y027824D02*
X018962Y027824D01*
X018865Y027581D02*
X018731Y027581D01*
X018779Y027533D02*
X018906Y027533D01*
X018950Y027400D02*
X018650Y027400D01*
X018802Y027290D02*
X018921Y027290D01*
X018972Y027242D02*
X018753Y027242D01*
X018950Y027400D02*
X019950Y026450D01*
X020082Y026320D02*
X020550Y026320D01*
X020550Y026272D02*
X020033Y026272D01*
X020130Y026369D02*
X020550Y026369D01*
X020550Y026417D02*
X020135Y026417D01*
X020135Y026466D02*
X020550Y026466D01*
X020550Y026514D02*
X020135Y026514D01*
X020099Y026563D02*
X020550Y026563D01*
X020570Y026611D02*
X020051Y026611D01*
X019875Y026660D02*
X020618Y026660D01*
X020480Y026708D02*
X019824Y026708D01*
X019772Y026757D02*
X020432Y026757D01*
X020415Y026805D02*
X019721Y026805D01*
X019670Y026854D02*
X020415Y026854D01*
X020415Y026902D02*
X019619Y026902D01*
X019588Y026951D02*
X019568Y026951D01*
X019539Y026999D02*
X019517Y026999D01*
X019515Y027048D02*
X019466Y027048D01*
X019515Y027096D02*
X019415Y027096D01*
X019364Y027145D02*
X019515Y027145D01*
X019531Y027193D02*
X019313Y027193D01*
X019262Y027242D02*
X019580Y027242D01*
X019665Y027290D02*
X019211Y027290D01*
X019160Y027339D02*
X019665Y027339D01*
X019665Y027387D02*
X019109Y027387D01*
X019058Y027436D02*
X019674Y027436D01*
X019722Y027484D02*
X019146Y027484D01*
X019194Y027533D02*
X019771Y027533D01*
X019812Y026951D02*
X020439Y026951D01*
X020550Y026223D02*
X019335Y026223D01*
X019327Y026215D02*
X019435Y026323D01*
X019435Y026477D01*
X019327Y026585D01*
X019173Y026585D01*
X019065Y026477D01*
X019065Y026323D01*
X019173Y026215D01*
X019327Y026215D01*
X019383Y026272D02*
X019867Y026272D01*
X019818Y026320D02*
X019432Y026320D01*
X019435Y026369D02*
X019770Y026369D01*
X019765Y026417D02*
X019435Y026417D01*
X019435Y026466D02*
X019765Y026466D01*
X019737Y026514D02*
X019398Y026514D01*
X019349Y026563D02*
X019686Y026563D01*
X019635Y026611D02*
X016750Y026611D01*
X016750Y026563D02*
X018701Y026563D01*
X018652Y026514D02*
X016750Y026514D01*
X016750Y026466D02*
X018615Y026466D01*
X018615Y026417D02*
X016750Y026417D01*
X016750Y026369D02*
X018615Y026369D01*
X018618Y026320D02*
X016750Y026320D01*
X016750Y026272D02*
X018667Y026272D01*
X018715Y026223D02*
X017139Y026223D01*
X017187Y026175D02*
X018750Y026175D01*
X018750Y026126D02*
X017235Y026126D01*
X017235Y026078D02*
X018750Y026078D01*
X018750Y026029D02*
X017235Y026029D01*
X017235Y025981D02*
X018750Y025981D01*
X018750Y025932D02*
X017194Y025932D01*
X017150Y025884D02*
X018750Y025884D01*
X018750Y025835D02*
X017150Y025835D01*
X017150Y025787D02*
X018750Y025787D01*
X018750Y025738D02*
X017150Y025738D01*
X017150Y025690D02*
X018750Y025690D01*
X018750Y025641D02*
X017150Y025641D01*
X017150Y025593D02*
X018750Y025593D01*
X018750Y025544D02*
X017150Y025544D01*
X017150Y025496D02*
X017234Y025496D01*
X017185Y025447D02*
X017150Y025447D01*
X017150Y025399D02*
X017165Y025399D01*
X017165Y025350D02*
X017150Y025350D01*
X017150Y025302D02*
X017165Y025302D01*
X017150Y025253D02*
X017185Y025253D01*
X017150Y025205D02*
X017234Y025205D01*
X017150Y025156D02*
X017403Y025156D01*
X017451Y025108D02*
X017154Y025108D01*
X017203Y025059D02*
X017500Y025059D01*
X017548Y025011D02*
X017235Y025011D01*
X017235Y024962D02*
X017250Y024962D01*
X017450Y024962D02*
X017550Y024962D01*
X017550Y024914D02*
X017498Y024914D01*
X017535Y024865D02*
X017550Y024865D01*
X017550Y024817D02*
X017535Y024817D01*
X017535Y024768D02*
X017550Y024768D01*
X017650Y024700D02*
X017550Y024600D01*
X017100Y024600D01*
X017050Y024650D01*
X016800Y024650D01*
X016500Y024350D01*
X016500Y020950D01*
X016150Y020600D01*
X016150Y020150D01*
X016600Y020100D02*
X016150Y019650D01*
X016150Y019150D01*
X016150Y018650D02*
X016700Y019200D01*
X016700Y022400D01*
X016850Y022550D01*
X016721Y022683D02*
X016700Y022683D01*
X016700Y022731D02*
X016769Y022731D01*
X016779Y022780D02*
X016700Y022780D01*
X016700Y022828D02*
X016750Y022828D01*
X016750Y022877D02*
X016700Y022877D01*
X016700Y022925D02*
X016750Y022925D01*
X016750Y022974D02*
X016700Y022974D01*
X016700Y023022D02*
X016750Y023022D01*
X016750Y023071D02*
X016700Y023071D01*
X016700Y023119D02*
X016750Y023119D01*
X016750Y023168D02*
X016700Y023168D01*
X016700Y023216D02*
X016750Y023216D01*
X016750Y023265D02*
X016700Y023265D01*
X016700Y023313D02*
X016772Y023313D01*
X016820Y023362D02*
X016700Y023362D01*
X016700Y023410D02*
X016869Y023410D01*
X016917Y023459D02*
X016700Y023459D01*
X016700Y023507D02*
X016966Y023507D01*
X017014Y023556D02*
X016700Y023556D01*
X016700Y023604D02*
X017063Y023604D01*
X017111Y023653D02*
X016700Y023653D01*
X016700Y023701D02*
X017160Y023701D01*
X017208Y023750D02*
X016700Y023750D01*
X016700Y023798D02*
X017257Y023798D01*
X017305Y023847D02*
X016738Y023847D01*
X016786Y023895D02*
X017354Y023895D01*
X017402Y023944D02*
X016835Y023944D01*
X016883Y023992D02*
X017451Y023992D01*
X017499Y024041D02*
X016932Y024041D01*
X016980Y024089D02*
X017548Y024089D01*
X017596Y024138D02*
X017029Y024138D01*
X017077Y024186D02*
X017645Y024186D01*
X017693Y024235D02*
X017396Y024235D01*
X017445Y024283D02*
X017742Y024283D01*
X017790Y024332D02*
X017485Y024332D01*
X017485Y024380D02*
X017839Y024380D01*
X017887Y024429D02*
X017485Y024429D01*
X017485Y024477D02*
X017936Y024477D01*
X017984Y024526D02*
X017617Y024526D01*
X017665Y024574D02*
X018033Y024574D01*
X018081Y024623D02*
X017714Y024623D01*
X017750Y024671D02*
X018130Y024671D01*
X018178Y024720D02*
X017750Y024720D01*
X017750Y024768D02*
X018227Y024768D01*
X018275Y024817D02*
X017750Y024817D01*
X017750Y024865D02*
X018324Y024865D01*
X018372Y024914D02*
X017750Y024914D01*
X017750Y024962D02*
X018421Y024962D01*
X018469Y025011D02*
X017750Y025011D01*
X017750Y025059D02*
X018518Y025059D01*
X018566Y025108D02*
X017734Y025108D01*
X017685Y025156D02*
X018615Y025156D01*
X018663Y025205D02*
X017637Y025205D01*
X017588Y025253D02*
X018712Y025253D01*
X018750Y025302D02*
X017540Y025302D01*
X017535Y025350D02*
X018750Y025350D01*
X018750Y025399D02*
X017535Y025399D01*
X017515Y025447D02*
X018750Y025447D01*
X018750Y025496D02*
X017466Y025496D01*
X017350Y025350D02*
X017650Y025050D01*
X017650Y024700D01*
X017300Y024400D02*
X017150Y024400D01*
X016600Y023850D01*
X016600Y020100D01*
X016900Y020112D02*
X019150Y020112D01*
X019150Y020064D02*
X016900Y020064D01*
X016900Y020015D02*
X019150Y020015D01*
X019150Y019967D02*
X016900Y019967D01*
X016900Y019918D02*
X019150Y019918D01*
X019150Y019870D02*
X016900Y019870D01*
X016900Y019821D02*
X019150Y019821D01*
X019150Y019773D02*
X016900Y019773D01*
X016900Y019724D02*
X019150Y019724D01*
X019150Y019676D02*
X016900Y019676D01*
X016900Y019627D02*
X019150Y019627D01*
X019150Y019579D02*
X016900Y019579D01*
X016900Y019530D02*
X019150Y019530D01*
X019150Y019482D02*
X016900Y019482D01*
X016900Y019433D02*
X019150Y019433D01*
X019150Y019385D02*
X016900Y019385D01*
X016900Y019336D02*
X019150Y019336D01*
X019146Y019288D02*
X016900Y019288D01*
X016900Y019239D02*
X019098Y019239D01*
X018929Y019191D02*
X016900Y019191D01*
X016900Y019142D02*
X018880Y019142D01*
X018865Y019094D02*
X016900Y019094D01*
X016900Y019045D02*
X018865Y019045D01*
X018865Y018997D02*
X016900Y018997D01*
X016900Y018948D02*
X018890Y018948D01*
X018939Y018900D02*
X016900Y018900D01*
X016800Y018300D02*
X016800Y022100D01*
X017050Y022350D01*
X017050Y022650D01*
X016850Y022850D01*
X016850Y023250D01*
X018850Y025250D01*
X018850Y026350D01*
X018800Y026400D01*
X018985Y026417D02*
X019065Y026417D01*
X019065Y026369D02*
X018985Y026369D01*
X018982Y026320D02*
X019068Y026320D01*
X019117Y026272D02*
X018950Y026272D01*
X018950Y026223D02*
X019165Y026223D01*
X018950Y026175D02*
X020550Y026175D01*
X020550Y026126D02*
X018950Y026126D01*
X018950Y026078D02*
X020550Y026078D01*
X020550Y026029D02*
X018950Y026029D01*
X018950Y025981D02*
X020550Y025981D01*
X020550Y025932D02*
X018950Y025932D01*
X018950Y025884D02*
X020550Y025884D01*
X020550Y025835D02*
X018950Y025835D01*
X018950Y025787D02*
X020550Y025787D01*
X020550Y025738D02*
X018950Y025738D01*
X018950Y025690D02*
X020550Y025690D01*
X020550Y025641D02*
X018950Y025641D01*
X018950Y025593D02*
X020550Y025593D01*
X020550Y025544D02*
X018950Y025544D01*
X018950Y025496D02*
X020550Y025496D01*
X020506Y025447D02*
X018950Y025447D01*
X018950Y025399D02*
X020457Y025399D01*
X020409Y025350D02*
X018950Y025350D01*
X018950Y025302D02*
X020360Y025302D01*
X020312Y025253D02*
X018950Y025253D01*
X018946Y025205D02*
X020263Y025205D01*
X020215Y025156D02*
X018897Y025156D01*
X018849Y025108D02*
X020166Y025108D01*
X020118Y025059D02*
X018800Y025059D01*
X018752Y025011D02*
X020069Y025011D01*
X020021Y024962D02*
X018703Y024962D01*
X018655Y024914D02*
X019972Y024914D01*
X019924Y024865D02*
X018606Y024865D01*
X018558Y024817D02*
X019875Y024817D01*
X019827Y024768D02*
X018509Y024768D01*
X018461Y024720D02*
X019778Y024720D01*
X019730Y024671D02*
X018412Y024671D01*
X018364Y024623D02*
X019681Y024623D01*
X019633Y024574D02*
X018315Y024574D01*
X018267Y024526D02*
X019584Y024526D01*
X019536Y024477D02*
X018218Y024477D01*
X018170Y024429D02*
X019487Y024429D01*
X019439Y024380D02*
X018121Y024380D01*
X018073Y024332D02*
X019390Y024332D01*
X019342Y024283D02*
X018024Y024283D01*
X017976Y024235D02*
X019293Y024235D01*
X019245Y024186D02*
X017927Y024186D01*
X017879Y024138D02*
X019196Y024138D01*
X019148Y024089D02*
X017830Y024089D01*
X017782Y024041D02*
X019099Y024041D01*
X019051Y023992D02*
X017733Y023992D01*
X017685Y023944D02*
X019002Y023944D01*
X018954Y023895D02*
X017636Y023895D01*
X017588Y023847D02*
X018905Y023847D01*
X018857Y023798D02*
X017539Y023798D01*
X017491Y023750D02*
X018808Y023750D01*
X018760Y023701D02*
X017442Y023701D01*
X017394Y023653D02*
X018711Y023653D01*
X018663Y023604D02*
X017345Y023604D01*
X017297Y023556D02*
X018614Y023556D01*
X018566Y023507D02*
X017248Y023507D01*
X017200Y023459D02*
X018517Y023459D01*
X018469Y023410D02*
X017151Y023410D01*
X017103Y023362D02*
X018420Y023362D01*
X018910Y023119D02*
X020319Y023119D01*
X020315Y023168D02*
X018958Y023168D01*
X019007Y023216D02*
X020315Y023216D01*
X020315Y023265D02*
X019055Y023265D01*
X019104Y023313D02*
X020351Y023313D01*
X020400Y023362D02*
X019152Y023362D01*
X019141Y023071D02*
X020368Y023071D01*
X020416Y023022D02*
X019540Y023022D01*
X019635Y022925D02*
X021350Y022925D01*
X021350Y022877D02*
X019635Y022877D01*
X019635Y022828D02*
X021350Y022828D01*
X021350Y022780D02*
X019635Y022780D01*
X019593Y022731D02*
X021350Y022731D01*
X021350Y022683D02*
X019559Y022683D01*
X019607Y022634D02*
X021350Y022634D01*
X021350Y022586D02*
X019656Y022586D01*
X019704Y022537D02*
X021350Y022537D01*
X021350Y022489D02*
X019750Y022489D01*
X019750Y022440D02*
X021369Y022440D01*
X021417Y022392D02*
X019750Y022392D01*
X019750Y022343D02*
X021450Y022343D01*
X021450Y022295D02*
X019750Y022295D01*
X019750Y022246D02*
X021450Y022246D01*
X021450Y022198D02*
X019750Y022198D01*
X019750Y022149D02*
X021450Y022149D01*
X021450Y022101D02*
X019750Y022101D01*
X019750Y022052D02*
X021450Y022052D01*
X021450Y022004D02*
X019745Y022004D01*
X019696Y021955D02*
X021450Y021955D01*
X021450Y021907D02*
X019648Y021907D01*
X019599Y021858D02*
X021450Y021858D01*
X021650Y021450D02*
X021650Y022450D01*
X021550Y022550D01*
X021550Y025550D01*
X021500Y025600D01*
X021450Y025600D01*
X021650Y025700D02*
X021450Y025900D01*
X021650Y025700D02*
X021650Y022650D01*
X022150Y022150D01*
X021550Y022400D02*
X021550Y021400D01*
X021650Y021300D01*
X021650Y020650D01*
X022150Y020150D01*
X022406Y019918D02*
X022425Y019918D01*
X022425Y019870D02*
X022357Y019870D01*
X022425Y019821D02*
X022257Y019821D01*
X022150Y021150D02*
X021950Y021150D01*
X021650Y021450D01*
X021550Y022400D02*
X021450Y022500D01*
X021450Y025200D01*
X021350Y025300D01*
X021350Y024671D02*
X020991Y024671D01*
X021039Y024623D02*
X021350Y024623D01*
X021350Y024574D02*
X021085Y024574D01*
X021085Y024526D02*
X021350Y024526D01*
X021350Y024477D02*
X021085Y024477D01*
X021085Y024429D02*
X021350Y024429D01*
X021350Y024380D02*
X021042Y024380D01*
X021030Y024332D02*
X021350Y024332D01*
X021350Y024283D02*
X021079Y024283D01*
X021085Y024235D02*
X021350Y024235D01*
X021350Y024186D02*
X021085Y024186D01*
X021085Y024138D02*
X021350Y024138D01*
X021350Y024089D02*
X021051Y024089D01*
X021002Y024041D02*
X021350Y024041D01*
X021750Y023500D02*
X021750Y026000D01*
X021550Y026200D01*
X021450Y026200D01*
X021592Y026320D02*
X021839Y026320D01*
X021827Y026272D02*
X021635Y026272D01*
X021668Y026223D02*
X021807Y026223D01*
X021805Y026175D02*
X021717Y026175D01*
X021765Y026126D02*
X021805Y026126D01*
X021790Y026369D02*
X021543Y026369D01*
X021800Y026500D02*
X021800Y026700D01*
X021650Y026850D01*
X021800Y026700D02*
X021800Y033850D01*
X021700Y033950D01*
X021700Y034700D01*
X021500Y034900D01*
X021100Y034900D01*
X021050Y034850D01*
X020350Y034850D01*
X019950Y034450D01*
X018850Y034450D01*
X018984Y034323D02*
X021600Y034323D01*
X021600Y034371D02*
X020013Y034371D01*
X020061Y034420D02*
X021600Y034420D01*
X021600Y034468D02*
X021430Y034468D01*
X021478Y034517D02*
X021600Y034517D01*
X021600Y034565D02*
X021527Y034565D01*
X021535Y034614D02*
X021600Y034614D01*
X021596Y034662D02*
X021535Y034662D01*
X021535Y034711D02*
X021548Y034711D01*
X021197Y034759D02*
X021101Y034759D01*
X021165Y034711D02*
X020352Y034711D01*
X020304Y034662D02*
X021165Y034662D01*
X021165Y034614D02*
X020255Y034614D01*
X020207Y034565D02*
X021173Y034565D01*
X021222Y034517D02*
X020158Y034517D01*
X020110Y034468D02*
X021270Y034468D01*
X021600Y034274D02*
X018936Y034274D01*
X018764Y034274D02*
X016544Y034274D01*
X016561Y034226D02*
X021600Y034226D01*
X021600Y034177D02*
X016561Y034177D01*
X016561Y034129D02*
X021600Y034129D01*
X021600Y034080D02*
X016561Y034080D01*
X016546Y034032D02*
X021600Y034032D01*
X021600Y033983D02*
X016526Y033983D01*
X016506Y033935D02*
X021600Y033935D01*
X021622Y033886D02*
X016468Y033886D01*
X016419Y033838D02*
X021671Y033838D01*
X021700Y033789D02*
X020373Y033789D01*
X020327Y033835D02*
X020173Y033835D01*
X020065Y033727D01*
X020065Y033635D01*
X020035Y033635D01*
X020035Y033727D01*
X019927Y033835D01*
X019773Y033835D01*
X019665Y033727D01*
X019665Y033573D01*
X019773Y033465D01*
X019865Y033465D01*
X019865Y033435D01*
X019773Y033435D01*
X019665Y033327D01*
X019665Y033173D01*
X019773Y033065D01*
X019927Y033065D01*
X020035Y033173D01*
X020035Y033265D01*
X020065Y033265D01*
X020065Y033173D01*
X020173Y033065D01*
X020327Y033065D01*
X020435Y033173D01*
X020435Y033327D01*
X020327Y033435D01*
X020235Y033435D01*
X020235Y033465D01*
X020327Y033465D01*
X020435Y033573D01*
X020435Y033727D01*
X020327Y033835D01*
X020421Y033741D02*
X021700Y033741D01*
X021700Y033692D02*
X020435Y033692D01*
X020435Y033644D02*
X021700Y033644D01*
X021700Y033595D02*
X020435Y033595D01*
X020408Y033547D02*
X021700Y033547D01*
X021700Y033498D02*
X020360Y033498D01*
X020361Y033401D02*
X021700Y033401D01*
X021700Y033353D02*
X020409Y033353D01*
X020435Y033304D02*
X021700Y033304D01*
X021700Y033256D02*
X020435Y033256D01*
X020435Y033207D02*
X021700Y033207D01*
X021700Y033159D02*
X020420Y033159D01*
X020372Y033110D02*
X021700Y033110D01*
X021700Y033062D02*
X017635Y033062D01*
X017635Y033110D02*
X019728Y033110D01*
X019680Y033159D02*
X017603Y033159D01*
X017555Y033207D02*
X019665Y033207D01*
X019665Y033256D02*
X016480Y033256D01*
X016495Y033207D02*
X017345Y033207D01*
X017297Y033159D02*
X016495Y033159D01*
X016495Y033110D02*
X017265Y033110D01*
X017265Y033062D02*
X016487Y033062D01*
X016460Y033304D02*
X018634Y033304D01*
X018673Y033265D02*
X018827Y033265D01*
X018935Y033373D01*
X018935Y033527D01*
X018827Y033635D01*
X018673Y033635D01*
X018565Y033527D01*
X018565Y033373D01*
X018673Y033265D01*
X018586Y033353D02*
X016435Y033353D01*
X016387Y033401D02*
X018565Y033401D01*
X018565Y033450D02*
X016328Y033450D01*
X016236Y033741D02*
X019679Y033741D01*
X019665Y033692D02*
X015875Y033692D01*
X015875Y033644D02*
X019665Y033644D01*
X019665Y033595D02*
X018867Y033595D01*
X018915Y033547D02*
X019692Y033547D01*
X019740Y033498D02*
X018935Y033498D01*
X018935Y033450D02*
X019865Y033450D01*
X019739Y033401D02*
X018935Y033401D01*
X018914Y033353D02*
X019691Y033353D01*
X019665Y033304D02*
X018866Y033304D01*
X018565Y033498D02*
X015875Y033498D01*
X015875Y033450D02*
X015972Y033450D01*
X015913Y033401D02*
X015875Y033401D01*
X015875Y033547D02*
X018585Y033547D01*
X018633Y033595D02*
X015875Y033595D01*
X015875Y033741D02*
X016064Y033741D01*
X015947Y033789D02*
X015875Y033789D01*
X015875Y033838D02*
X015881Y033838D01*
X016353Y033789D02*
X019727Y033789D01*
X019973Y033789D02*
X020127Y033789D01*
X020079Y033741D02*
X020021Y033741D01*
X020035Y033692D02*
X020065Y033692D01*
X020065Y033644D02*
X020035Y033644D01*
X020235Y033450D02*
X021700Y033450D01*
X021700Y033013D02*
X017635Y033013D01*
X017626Y032965D02*
X021700Y032965D01*
X021700Y032916D02*
X017578Y032916D01*
X017529Y032868D02*
X021700Y032868D01*
X021700Y032819D02*
X021343Y032819D01*
X021391Y032771D02*
X021700Y032771D01*
X021700Y032722D02*
X021435Y032722D01*
X021435Y032674D02*
X021700Y032674D01*
X021700Y032625D02*
X021435Y032625D01*
X021435Y032577D02*
X021700Y032577D01*
X021700Y032528D02*
X021390Y032528D01*
X021341Y032480D02*
X021700Y032480D01*
X021700Y032431D02*
X021185Y032431D01*
X021144Y032383D02*
X021700Y032383D01*
X021700Y031752D02*
X017050Y031752D01*
X017050Y031704D02*
X021700Y031704D01*
X021700Y031655D02*
X017050Y031655D01*
X017050Y031607D02*
X021700Y031607D01*
X021700Y031558D02*
X017050Y031558D01*
X017050Y031510D02*
X021700Y031510D01*
X021700Y031461D02*
X017050Y031461D01*
X017050Y031413D02*
X018351Y031413D01*
X018373Y031435D02*
X018265Y031327D01*
X018265Y031173D01*
X018373Y031065D01*
X018527Y031065D01*
X018635Y031173D01*
X018635Y031327D01*
X018527Y031435D01*
X018373Y031435D01*
X018302Y031364D02*
X017050Y031364D01*
X017050Y031316D02*
X018265Y031316D01*
X018265Y031267D02*
X017050Y031267D01*
X017050Y031219D02*
X018265Y031219D01*
X018268Y031170D02*
X017050Y031170D01*
X017050Y031122D02*
X018317Y031122D01*
X018365Y031073D02*
X017050Y031073D01*
X017050Y031025D02*
X021700Y031025D01*
X021700Y031073D02*
X018535Y031073D01*
X018583Y031122D02*
X021700Y031122D01*
X021700Y031170D02*
X018632Y031170D01*
X018635Y031219D02*
X021700Y031219D01*
X021700Y031267D02*
X018635Y031267D01*
X018635Y031316D02*
X021700Y031316D01*
X021700Y031364D02*
X018598Y031364D01*
X018549Y031413D02*
X021700Y031413D01*
X021700Y030976D02*
X017050Y030976D01*
X017050Y030928D02*
X021700Y030928D01*
X021700Y030200D02*
X019362Y030200D01*
X019410Y030152D02*
X021700Y030152D01*
X021700Y030103D02*
X019435Y030103D01*
X019435Y030055D02*
X020193Y030055D01*
X020223Y030085D02*
X020115Y029977D01*
X020115Y029823D01*
X020223Y029715D01*
X017377Y029715D01*
X017425Y029764D02*
X020175Y029764D01*
X020126Y029812D02*
X017435Y029812D01*
X017435Y029861D02*
X020115Y029861D01*
X020115Y029909D02*
X019371Y029909D01*
X019419Y029958D02*
X020115Y029958D01*
X020144Y030006D02*
X019435Y030006D01*
X019129Y029909D02*
X017435Y029909D01*
X017404Y029958D02*
X019081Y029958D01*
X019065Y030006D02*
X017356Y030006D01*
X017328Y029667D02*
X021700Y029667D01*
X021700Y029715D02*
X020377Y029715D01*
X020485Y029823D01*
X020485Y029977D01*
X020377Y030085D01*
X020223Y030085D01*
X020407Y030055D02*
X021700Y030055D01*
X021700Y030006D02*
X020456Y030006D01*
X020485Y029958D02*
X021700Y029958D01*
X021700Y029909D02*
X020485Y029909D01*
X020485Y029861D02*
X021700Y029861D01*
X021700Y029812D02*
X020474Y029812D01*
X020425Y029764D02*
X021700Y029764D01*
X021700Y028648D02*
X019214Y028648D01*
X019235Y028600D02*
X021700Y028600D01*
X021700Y028551D02*
X019235Y028551D01*
X019235Y028503D02*
X021700Y028503D01*
X021700Y028454D02*
X019216Y028454D01*
X019167Y028406D02*
X021700Y028406D01*
X020377Y029715D02*
X020223Y029715D01*
X019297Y030491D02*
X017753Y030491D01*
X017801Y030540D02*
X019249Y030540D01*
X019215Y030588D02*
X017835Y030588D01*
X017835Y030637D02*
X019215Y030637D01*
X019215Y030685D02*
X017835Y030685D01*
X017828Y030734D02*
X019222Y030734D01*
X019270Y030782D02*
X017780Y030782D01*
X017731Y030831D02*
X019319Y030831D01*
X019805Y032043D02*
X020045Y032043D01*
X019997Y032092D02*
X019835Y032092D01*
X019835Y032140D02*
X019965Y032140D01*
X019965Y032189D02*
X019835Y032189D01*
X019825Y032237D02*
X019965Y032237D01*
X019974Y032286D02*
X019776Y032286D01*
X019728Y032334D02*
X020022Y032334D01*
X020071Y032383D02*
X016900Y032383D01*
X016900Y032334D02*
X019572Y032334D01*
X019524Y032286D02*
X016900Y032286D01*
X016900Y032237D02*
X019475Y032237D01*
X019972Y033110D02*
X020128Y033110D01*
X020080Y033159D02*
X020020Y033159D01*
X020035Y033207D02*
X020065Y033207D01*
X020065Y033256D02*
X020035Y033256D01*
X019924Y034565D02*
X019627Y034565D01*
X019635Y034614D02*
X019972Y034614D01*
X020021Y034662D02*
X019635Y034662D01*
X019772Y034711D02*
X020069Y034711D01*
X020118Y034759D02*
X019821Y034759D01*
X019835Y034808D02*
X020166Y034808D01*
X020082Y034856D02*
X019835Y034856D01*
X019835Y034905D02*
X020034Y034905D01*
X020015Y034953D02*
X019809Y034953D01*
X019760Y035002D02*
X020015Y035002D01*
X020015Y035050D02*
X015875Y035050D01*
X015875Y035002D02*
X019540Y035002D01*
X019491Y034953D02*
X015875Y034953D01*
X015875Y034905D02*
X019465Y034905D01*
X019465Y034856D02*
X015875Y034856D01*
X015875Y034808D02*
X019346Y034808D01*
X019297Y034759D02*
X015875Y034759D01*
X015875Y034711D02*
X019265Y034711D01*
X019265Y034662D02*
X015875Y034662D01*
X015875Y034614D02*
X018752Y034614D01*
X018703Y034565D02*
X015875Y034565D01*
X015875Y034517D02*
X015960Y034517D01*
X015887Y034468D02*
X015875Y034468D01*
X016340Y034517D02*
X018665Y034517D01*
X018665Y034468D02*
X016413Y034468D01*
X016462Y034420D02*
X018665Y034420D01*
X018667Y034371D02*
X016504Y034371D01*
X016524Y034323D02*
X018716Y034323D01*
X018997Y034565D02*
X019273Y034565D01*
X019265Y034614D02*
X018948Y034614D01*
X020037Y035099D02*
X015875Y035099D01*
X015875Y035147D02*
X020015Y035147D01*
X020015Y035196D02*
X015875Y035196D01*
X015875Y035244D02*
X020015Y035244D01*
X020031Y035293D02*
X015875Y035293D01*
X015875Y035341D02*
X020015Y035341D01*
X020015Y035390D02*
X015875Y035390D01*
X015875Y035438D02*
X020015Y035438D01*
X020025Y035487D02*
X015875Y035487D01*
X015875Y035535D02*
X020015Y035535D01*
X020015Y035584D02*
X015875Y035584D01*
X015875Y035632D02*
X020015Y035632D01*
X020019Y035681D02*
X015875Y035681D01*
X015875Y035729D02*
X020015Y035729D01*
X020015Y035778D02*
X015875Y035778D01*
X015875Y035826D02*
X020015Y035826D01*
X020015Y035972D02*
X015875Y035972D01*
X015875Y036020D02*
X020015Y036020D01*
X020015Y036069D02*
X015875Y036069D01*
X015875Y036117D02*
X020055Y036117D01*
X016927Y032189D02*
X016900Y032189D01*
X016150Y030150D02*
X016150Y029700D01*
X016500Y029350D01*
X016500Y027200D01*
X016850Y026850D01*
X018050Y026850D01*
X018235Y026854D02*
X018715Y026854D01*
X018715Y026877D02*
X018715Y026723D01*
X018823Y026615D01*
X018977Y026615D01*
X019085Y026723D01*
X019085Y026877D01*
X018977Y026985D01*
X018823Y026985D01*
X018715Y026877D01*
X018740Y026902D02*
X018235Y026902D01*
X018211Y026951D02*
X018789Y026951D01*
X018715Y026805D02*
X018235Y026805D01*
X018218Y026757D02*
X018715Y026757D01*
X018730Y026708D02*
X018170Y026708D01*
X017930Y026708D02*
X016733Y026708D01*
X016750Y026660D02*
X018779Y026660D01*
X018899Y026563D02*
X019151Y026563D01*
X019102Y026514D02*
X018948Y026514D01*
X018985Y026466D02*
X019065Y026466D01*
X019021Y026660D02*
X019584Y026660D01*
X019533Y026708D02*
X019070Y026708D01*
X019085Y026757D02*
X019482Y026757D01*
X019431Y026805D02*
X019085Y026805D01*
X019085Y026854D02*
X019380Y026854D01*
X019329Y026902D02*
X019060Y026902D01*
X019011Y026951D02*
X019278Y026951D01*
X019227Y026999D02*
X018163Y026999D01*
X017525Y027387D02*
X017004Y027387D01*
X016900Y027824D02*
X018112Y027824D01*
X016961Y026223D02*
X016750Y026223D01*
X016750Y026175D02*
X016913Y026175D01*
X016865Y026126D02*
X016750Y026126D01*
X016750Y026078D02*
X016865Y026078D01*
X016767Y026029D02*
X016750Y026029D01*
X016850Y025850D02*
X016850Y024850D01*
X016150Y024150D01*
X017126Y024235D02*
X017204Y024235D01*
X017050Y024950D02*
X017050Y026050D01*
X016650Y026650D02*
X016650Y025050D01*
X016650Y026650D02*
X016150Y027150D01*
X016461Y026999D02*
X016560Y026999D01*
X016608Y026951D02*
X016491Y026951D01*
X016539Y026902D02*
X016657Y026902D01*
X016705Y026854D02*
X016588Y026854D01*
X016636Y026805D02*
X016754Y026805D01*
X016802Y026757D02*
X016685Y026757D01*
X016511Y027048D02*
X016481Y027048D01*
X018885Y023071D02*
X018959Y023071D01*
X018910Y023022D02*
X018890Y023022D01*
X019050Y022900D02*
X019050Y022850D01*
X018850Y022650D01*
X018650Y022650D01*
X018550Y022750D01*
X018927Y022586D02*
X019044Y022586D01*
X019065Y022634D02*
X018975Y022634D01*
X019024Y022683D02*
X019065Y022683D01*
X018996Y022537D02*
X017150Y022537D01*
X017150Y022489D02*
X018950Y022489D01*
X018950Y022440D02*
X017150Y022440D01*
X017150Y022392D02*
X018950Y022392D01*
X018950Y022343D02*
X017150Y022343D01*
X017136Y022295D02*
X018950Y022295D01*
X019050Y022450D02*
X019050Y022050D01*
X019050Y022450D02*
X019250Y022650D01*
X019235Y022877D02*
X019265Y022877D01*
X019265Y022925D02*
X019235Y022925D01*
X019235Y022974D02*
X019312Y022974D01*
X019360Y023022D02*
X019190Y023022D01*
X019150Y021373D02*
X016900Y021373D01*
X016900Y021325D02*
X019150Y021325D01*
X019150Y021276D02*
X016900Y021276D01*
X016900Y021228D02*
X019150Y021228D01*
X019150Y021179D02*
X016900Y021179D01*
X016900Y021131D02*
X019150Y021131D01*
X019150Y021082D02*
X016900Y021082D01*
X016900Y021034D02*
X019150Y021034D01*
X019150Y020985D02*
X016900Y020985D01*
X016900Y020937D02*
X019150Y020937D01*
X019150Y020888D02*
X016900Y020888D01*
X016900Y020840D02*
X019150Y020840D01*
X019150Y020791D02*
X016900Y020791D01*
X016900Y020743D02*
X019150Y020743D01*
X019150Y020694D02*
X016900Y020694D01*
X016900Y020646D02*
X019150Y020646D01*
X019150Y020597D02*
X016900Y020597D01*
X016900Y020549D02*
X019150Y020549D01*
X019150Y020500D02*
X016900Y020500D01*
X016900Y020452D02*
X019150Y020452D01*
X019150Y020403D02*
X016900Y020403D01*
X016900Y020355D02*
X019150Y020355D01*
X019150Y020306D02*
X016900Y020306D01*
X016900Y020258D02*
X019150Y020258D01*
X019150Y020209D02*
X016900Y020209D01*
X016900Y020161D02*
X019150Y020161D01*
X018747Y018415D02*
X019553Y018415D01*
X019504Y018366D02*
X018796Y018366D01*
X018835Y018318D02*
X019465Y018318D01*
X019465Y018269D02*
X018835Y018269D01*
X018835Y018221D02*
X019465Y018221D01*
X019466Y018172D02*
X018834Y018172D01*
X018785Y018124D02*
X019515Y018124D01*
X019563Y018075D02*
X018737Y018075D01*
X016800Y018300D02*
X016150Y017650D01*
X016150Y017150D01*
X015875Y016766D02*
X022425Y016766D01*
X022425Y016814D02*
X022240Y016814D01*
X022350Y016863D02*
X022425Y016863D01*
X022425Y016911D02*
X022399Y016911D01*
X022425Y016717D02*
X015875Y016717D01*
X015875Y016669D02*
X022425Y016669D01*
X022425Y016620D02*
X015875Y016620D01*
X015875Y016572D02*
X022425Y016572D01*
X022425Y016523D02*
X022324Y016523D01*
X022407Y016475D02*
X022425Y016475D01*
X021976Y016523D02*
X016324Y016523D01*
X016407Y016475D02*
X021893Y016475D01*
X021844Y016426D02*
X016456Y016426D01*
X016501Y016378D02*
X021799Y016378D01*
X021779Y016329D02*
X016521Y016329D01*
X016541Y016281D02*
X021759Y016281D01*
X021739Y016135D02*
X016561Y016135D01*
X016561Y016087D02*
X021739Y016087D01*
X021751Y016038D02*
X016549Y016038D01*
X016529Y015990D02*
X021771Y015990D01*
X021791Y015941D02*
X016509Y015941D01*
X016474Y015893D02*
X021826Y015893D01*
X022100Y023150D02*
X021750Y023500D01*
X022100Y023150D02*
X022150Y023150D01*
X020776Y024962D02*
X020753Y024962D01*
X022150Y026150D02*
X021800Y026500D01*
X016150Y018650D02*
X016150Y018150D01*
X015976Y016523D02*
X015875Y016523D01*
X015875Y016475D02*
X015893Y016475D01*
D13*
X018750Y022900D02*
X018750Y023150D01*
X020700Y025100D01*
X020900Y025100D01*
M02*
