G75*
%MOIN*%
%OFA0B0*%
%FSLAX24Y24*%
%IPPOS*%
%LPD*%
%AMOC8*
5,1,8,0,0,1.08239X$1,22.5*
%
%ADD10C,0.0552*%
%ADD11R,0.0474X0.0513*%
%ADD12C,0.0500*%
%ADD13C,0.0474*%
%ADD14R,0.0474X0.0474*%
%ADD15R,0.0828X0.1419*%
%ADD16R,0.0700X0.0700*%
%ADD17C,0.0700*%
%ADD18R,0.0434X0.0356*%
%ADD19R,0.0356X0.0946*%
%ADD20R,0.0356X0.0434*%
%ADD21R,0.0960X0.0560*%
%ADD22R,0.0946X0.1497*%
%ADD23R,0.0513X0.0474*%
%ADD24R,0.0671X0.0671*%
%ADD25R,0.0454X0.0434*%
%ADD26R,0.0474X0.0552*%
D10*
X016150Y016150D03*
X022150Y016150D03*
X022150Y034150D03*
X016150Y034150D03*
D11*
X019450Y033785D03*
X019450Y033115D03*
X020650Y033115D03*
X020650Y033785D03*
X020650Y022785D03*
X020650Y022115D03*
X020600Y020385D03*
X020600Y019715D03*
X021250Y019715D03*
X021250Y020385D03*
X021050Y016985D03*
X021050Y016315D03*
X017050Y016315D03*
X017050Y016985D03*
D12*
X016758Y033550D02*
X016760Y033573D01*
X016766Y033596D01*
X016775Y033618D01*
X016788Y033637D01*
X016804Y033654D01*
X016822Y033669D01*
X016843Y033680D01*
X016865Y033688D01*
X016888Y033692D01*
X016912Y033692D01*
X016935Y033688D01*
X016957Y033680D01*
X016978Y033669D01*
X016996Y033654D01*
X017012Y033637D01*
X017025Y033618D01*
X017034Y033596D01*
X017040Y033573D01*
X017042Y033550D01*
X017040Y033527D01*
X017034Y033504D01*
X017025Y033482D01*
X017012Y033463D01*
X016996Y033446D01*
X016978Y033431D01*
X016957Y033420D01*
X016935Y033412D01*
X016912Y033408D01*
X016888Y033408D01*
X016865Y033412D01*
X016843Y033420D01*
X016822Y033431D01*
X016804Y033446D01*
X016788Y033463D01*
X016775Y033482D01*
X016766Y033504D01*
X016760Y033527D01*
X016758Y033550D01*
D13*
X016900Y033550D03*
D14*
X018650Y018644D03*
X018650Y017856D03*
X019450Y017856D03*
X019450Y018644D03*
D15*
X020018Y016650D03*
X018482Y016650D03*
D16*
X016150Y033150D03*
D17*
X016150Y032150D03*
X016150Y031150D03*
X016150Y030150D03*
X016150Y029150D03*
X016150Y028150D03*
X016150Y027150D03*
X016150Y026150D03*
X016150Y025150D03*
X016150Y024150D03*
X016150Y023150D03*
X016150Y022150D03*
X016150Y021150D03*
X016150Y020150D03*
X016150Y019150D03*
X016150Y018150D03*
X016150Y017150D03*
X022150Y017150D03*
X022150Y018150D03*
X022150Y019150D03*
X022150Y020150D03*
X022150Y021150D03*
X022150Y022150D03*
X022150Y023150D03*
X022150Y024150D03*
X022150Y025150D03*
X022150Y026150D03*
X022150Y027150D03*
X022150Y028150D03*
X022150Y029150D03*
X022150Y030150D03*
X022150Y031150D03*
X022150Y032150D03*
X022150Y033150D03*
D18*
X021050Y030906D03*
X021050Y030394D03*
X018250Y030394D03*
X018250Y030906D03*
X017650Y016906D03*
X017650Y016394D03*
D19*
X018900Y029167D03*
X019400Y029167D03*
X019900Y029167D03*
X020400Y029167D03*
X020400Y031333D03*
X019900Y031333D03*
X019400Y031333D03*
X018900Y031333D03*
D20*
X019106Y035050D03*
X018594Y035050D03*
X018594Y035650D03*
X019106Y035650D03*
X017906Y035050D03*
X017394Y035050D03*
D21*
X019670Y021560D03*
X019670Y020650D03*
X019670Y019740D03*
D22*
X017230Y020650D03*
D23*
X018115Y022400D03*
X018785Y022400D03*
X019515Y023650D03*
X019515Y024250D03*
X019515Y024850D03*
X018785Y024850D03*
X018785Y024250D03*
X018115Y024250D03*
X018115Y024850D03*
X020185Y024850D03*
X020185Y024250D03*
X020185Y023650D03*
D24*
X017650Y035650D03*
D25*
X021050Y029670D03*
X021050Y028430D03*
X017650Y018870D03*
X017650Y017630D03*
D26*
X021250Y022017D03*
X021250Y022883D03*
M02*
