%
M48
M72
T01C0.0130
%
T01
X15300Y20550
X15650Y19650
X16150Y18650
X17650Y19800
X18650Y20400
X18400Y18900
X18400Y18150
X19900Y18150
X19650Y17050
X21650Y17650
X21650Y18650
X22150Y18650
X21900Y19650
X22400Y19650
X22400Y20750
X23000Y20700
X23000Y22650
X23000Y23750
X23050Y24750
X22700Y24750
X22200Y24650
X21900Y24650
X22150Y25750
X22700Y25750
X23050Y25650
X22900Y26650
X22650Y27650
X22650Y28650
X21750Y26650
X20800Y25800
X20650Y25150
X20600Y24800
X20600Y24400
X20750Y24050
X20850Y23550
X20450Y23550
X20350Y23000
X20650Y23000
X20050Y23000
X19400Y22900
X18950Y23000
X18650Y23150
X18650Y23800
X18900Y24000
X19000Y25300
X18700Y25300
X18400Y25400
X18150Y25900
X17400Y25550
X17650Y24900
X17400Y24600
X17550Y24150
X17900Y23900
X17900Y23400
X17550Y23500
X17400Y22550
X17150Y21650
X16400Y21650
X16400Y22650
X16150Y23550
X16150Y24650
X15400Y24650
X15250Y23650
X15250Y21550
X16150Y25650
X16150Y26650
X15750Y26650
X15400Y26650
X15300Y27650
X15650Y27650
X16150Y27650
X16650Y27650
X16150Y28600
X15650Y28650
X15300Y28650
X16150Y29650
X17150Y30650
X17550Y30500
X17650Y31400
X17650Y32400
X17650Y33150
X18650Y32650
X18650Y32150
X19400Y30900
X19650Y30650
X19950Y30550
X20650Y30550
X21400Y30550
X20650Y32150
X19150Y34550
X20150Y34900
X20900Y35400
X22700Y34900
X22900Y35650
X22900Y33650
X22650Y30600
X21150Y28600
X20050Y27400
X19400Y27400
X18650Y27400
X18300Y27400
X18050Y28000
X18050Y28600
X18650Y28850
X19150Y29150
X19400Y28850
X19150Y29650
X18400Y30650
X17400Y28600
X19400Y26400
X19650Y26200
X19900Y26400
X19150Y26150
X19400Y25550
X19985Y25565
X20400Y26400
X21700Y22750
X21150Y21650
X21650Y20650
X21400Y19650
X15400Y32650
X18150Y35650
M30
