G75*
%MOIN*%
%OFA0B0*%
%FSLAX24Y24*%
%IPPOS*%
%LPD*%
%AMOC8*
5,1,8,0,0,1.08239X$1,22.5*
%
%ADD10C,0.0120*%
%ADD11C,0.0160*%
%ADD12C,0.0050*%
%ADD13R,0.0059X0.0118*%
%ADD14R,0.0118X0.0118*%
%ADD15C,0.0100*%
%ADD16C,0.0040*%
%ADD17C,0.0028*%
%ADD18C,0.0020*%
%ADD19R,0.0276X0.0118*%
D10*
X016550Y029950D02*
X016840Y030150D01*
X016550Y030350D01*
X016550Y029950D01*
X016850Y030950D02*
X016850Y031350D01*
X016550Y031150D01*
X016850Y030950D01*
D11*
X016730Y031110D02*
X016730Y031190D01*
X016670Y030190D02*
X016670Y030120D01*
D12*
X015960Y017525D02*
X015825Y017525D01*
X015825Y017795D01*
X015960Y017795D01*
X016005Y017750D01*
X016005Y017570D01*
X015960Y017525D01*
X016120Y017525D02*
X016300Y017525D01*
X016210Y017525D02*
X016210Y017795D01*
X016120Y017705D01*
X016414Y017750D02*
X016459Y017795D01*
X016549Y017795D01*
X016594Y017750D01*
X016594Y017705D01*
X016414Y017525D01*
X016594Y017525D01*
X016720Y017675D02*
X016720Y017945D01*
X016810Y017945D02*
X016810Y017675D01*
X016855Y017765D02*
X016675Y017765D01*
X016675Y017855D02*
X016810Y017855D01*
X016855Y017855D01*
X016594Y018525D02*
X016414Y018525D01*
X016504Y018525D02*
X016504Y018795D01*
X016414Y018705D01*
X016300Y018525D02*
X016120Y018525D01*
X016210Y018525D02*
X016210Y018795D01*
X016120Y018705D01*
X016005Y018750D02*
X015960Y018795D01*
X015825Y018795D01*
X015825Y018525D01*
X015960Y018525D01*
X016005Y018570D01*
X016005Y018750D01*
X015960Y019525D02*
X016005Y019570D01*
X016005Y019750D01*
X015960Y019795D01*
X015825Y019795D01*
X015825Y019525D01*
X015960Y019525D01*
X016120Y019525D02*
X016300Y019525D01*
X016210Y019525D02*
X016210Y019795D01*
X016120Y019705D01*
X016414Y019750D02*
X016459Y019795D01*
X016549Y019795D01*
X016594Y019750D01*
X016414Y019570D01*
X016459Y019525D01*
X016549Y019525D01*
X016594Y019570D01*
X016594Y019750D01*
X016675Y019815D02*
X016855Y019815D01*
X016855Y019905D02*
X016810Y019905D01*
X016675Y019905D01*
X016720Y019995D02*
X016720Y019725D01*
X016810Y019725D02*
X016810Y019995D01*
X017055Y020075D02*
X017055Y020210D01*
X017100Y020255D01*
X017190Y020255D01*
X017235Y020210D01*
X017235Y020075D01*
X017325Y020075D02*
X017055Y020075D01*
X017235Y020165D02*
X017325Y020255D01*
X017280Y020370D02*
X017325Y020415D01*
X017325Y020505D01*
X017280Y020550D01*
X017190Y020550D01*
X017145Y020505D01*
X017145Y020460D01*
X017190Y020370D01*
X017055Y020370D01*
X017055Y020550D01*
X017025Y020526D02*
X017295Y020526D01*
X017295Y020730D02*
X017025Y020911D01*
X017025Y020730D02*
X017295Y020911D01*
X017025Y020616D02*
X017025Y020436D01*
X016951Y020573D02*
X015849Y020573D01*
X015849Y022227D01*
X016951Y022227D01*
X016951Y020573D01*
X016660Y020675D02*
X016660Y020945D01*
X016660Y020855D02*
X016705Y020855D01*
X016660Y020855D02*
X016525Y020855D01*
X016525Y020765D02*
X016705Y020765D01*
X016570Y020675D02*
X016570Y020945D01*
X016479Y020967D02*
X016321Y020967D01*
X016355Y020795D02*
X016265Y020795D01*
X016220Y020750D01*
X016220Y020705D01*
X016265Y020660D01*
X016400Y020660D01*
X016400Y020570D02*
X016400Y020750D01*
X016355Y020795D01*
X016400Y020570D02*
X016355Y020525D01*
X016265Y020525D01*
X016220Y020570D01*
X016105Y020570D02*
X016105Y020750D01*
X016060Y020795D01*
X015925Y020795D01*
X015925Y020525D01*
X016060Y020525D01*
X016105Y020570D01*
X016414Y019750D02*
X016414Y019570D01*
X016670Y018945D02*
X016670Y018675D01*
X016760Y018675D02*
X016760Y018945D01*
X016760Y018855D02*
X016805Y018855D01*
X016760Y018855D02*
X016625Y018855D01*
X016625Y018765D02*
X016805Y018765D01*
X017505Y020075D02*
X017505Y020210D01*
X017550Y020255D01*
X017640Y020255D01*
X017685Y020210D01*
X017685Y020075D01*
X017775Y020075D02*
X017505Y020075D01*
X017685Y020165D02*
X017775Y020255D01*
X017730Y020370D02*
X017685Y020370D01*
X017640Y020415D01*
X017640Y020505D01*
X017685Y020550D01*
X017730Y020550D01*
X017775Y020505D01*
X017775Y020415D01*
X017730Y020370D01*
X017640Y020415D02*
X017595Y020370D01*
X017550Y020370D01*
X017505Y020415D01*
X017505Y020505D01*
X017550Y020550D01*
X017595Y020550D01*
X017640Y020505D01*
X018105Y020375D02*
X018375Y020375D01*
X018375Y020555D01*
X018625Y018869D02*
X018625Y018689D01*
X018625Y018779D02*
X018355Y018779D01*
X018445Y018689D01*
X018355Y018575D02*
X018625Y018575D01*
X018355Y018395D01*
X018625Y018395D01*
X018625Y018280D02*
X018535Y018190D01*
X018535Y018235D02*
X018535Y018100D01*
X018625Y018100D02*
X018355Y018100D01*
X018355Y018235D01*
X018400Y018280D01*
X018490Y018280D01*
X018535Y018235D01*
X020153Y020483D02*
X020108Y020528D01*
X020108Y020708D01*
X020153Y020753D01*
X020243Y020753D01*
X020288Y020708D01*
X020288Y020528D01*
X020243Y020483D01*
X020153Y020483D01*
X020198Y020573D02*
X020288Y020483D01*
X020403Y020483D02*
X020583Y020483D01*
X020493Y020483D02*
X020493Y020753D01*
X020403Y020663D01*
X021030Y021144D02*
X021030Y021656D01*
X019770Y021656D01*
X019770Y021144D01*
X021030Y021144D01*
X021825Y019745D02*
X021960Y019745D01*
X022005Y019700D01*
X022005Y019610D01*
X021960Y019565D01*
X021825Y019565D01*
X021825Y019475D02*
X021825Y019745D01*
X021915Y019565D02*
X022005Y019475D01*
X022120Y019475D02*
X022300Y019475D01*
X022414Y019475D02*
X022414Y019745D01*
X022594Y019745D01*
X022504Y019610D02*
X022414Y019610D01*
X022300Y019745D02*
X022120Y019745D01*
X022120Y019475D01*
X022120Y019610D02*
X022210Y019610D01*
X022265Y020525D02*
X022220Y020570D01*
X022400Y020750D01*
X022400Y020570D01*
X022355Y020525D01*
X022265Y020525D01*
X022220Y020570D02*
X022220Y020750D01*
X022265Y020795D01*
X022355Y020795D01*
X022400Y020750D01*
X022105Y020705D02*
X022105Y020525D01*
X022105Y020660D02*
X021925Y020660D01*
X021925Y020705D02*
X022015Y020795D01*
X022105Y020705D01*
X021925Y020705D02*
X021925Y020525D01*
X021928Y021150D02*
X022912Y021150D01*
X022400Y021525D02*
X022220Y021525D01*
X022310Y021525D02*
X022310Y021795D01*
X022220Y021705D01*
X022105Y021705D02*
X022015Y021795D01*
X021925Y021705D01*
X021925Y021525D01*
X021925Y021660D02*
X022105Y021660D01*
X022105Y021705D02*
X022105Y021525D01*
X022105Y022525D02*
X022105Y022705D01*
X022015Y022795D01*
X021925Y022705D01*
X021925Y022525D01*
X021925Y022660D02*
X022105Y022660D01*
X022220Y022750D02*
X022265Y022795D01*
X022355Y022795D01*
X022400Y022750D01*
X022400Y022705D01*
X022220Y022525D01*
X022400Y022525D01*
X022355Y023525D02*
X022265Y023525D01*
X022220Y023570D01*
X022105Y023525D02*
X022105Y023705D01*
X022015Y023795D01*
X021925Y023705D01*
X021925Y023525D01*
X021925Y023660D02*
X022105Y023660D01*
X022220Y023750D02*
X022265Y023795D01*
X022355Y023795D01*
X022400Y023750D01*
X022400Y023705D01*
X022355Y023660D01*
X022400Y023615D01*
X022400Y023570D01*
X022355Y023525D01*
X022355Y023660D02*
X022310Y023660D01*
X022305Y024525D02*
X022305Y024795D01*
X022170Y024660D01*
X022350Y024660D01*
X022055Y024660D02*
X021875Y024660D01*
X021875Y024705D02*
X021965Y024795D01*
X022055Y024705D01*
X022055Y024525D01*
X021875Y024525D02*
X021875Y024705D01*
X021925Y025525D02*
X021925Y025705D01*
X022015Y025795D01*
X022105Y025705D01*
X022105Y025525D01*
X022220Y025570D02*
X022265Y025525D01*
X022355Y025525D01*
X022400Y025570D01*
X022400Y025660D01*
X022355Y025705D01*
X022310Y025705D01*
X022220Y025660D01*
X022220Y025795D01*
X022400Y025795D01*
X022105Y025660D02*
X021925Y025660D01*
X021925Y026525D02*
X021925Y026705D01*
X021925Y026615D02*
X022015Y026705D01*
X022060Y026705D01*
X022171Y026660D02*
X022216Y026705D01*
X022351Y026705D01*
X022306Y026615D02*
X022216Y026615D01*
X022171Y026660D01*
X022171Y026525D02*
X022306Y026525D01*
X022351Y026570D01*
X022306Y026615D01*
X022465Y026705D02*
X022555Y026705D01*
X022510Y026750D02*
X022510Y026570D01*
X022555Y026525D01*
X022451Y027073D02*
X021349Y027073D01*
X021349Y028727D01*
X022451Y028727D01*
X022451Y027073D01*
X021979Y027467D02*
X021821Y027467D01*
X021793Y027469D01*
X021765Y027474D01*
X021737Y027482D01*
X021711Y027494D01*
X021687Y027509D01*
X021665Y027526D01*
X021644Y027547D01*
X021627Y027569D01*
X021612Y027593D01*
X021600Y027619D01*
X021592Y027647D01*
X021587Y027675D01*
X021585Y027703D01*
X021585Y028097D01*
X021587Y028125D01*
X021592Y028153D01*
X021600Y028181D01*
X021612Y028207D01*
X021627Y028231D01*
X021644Y028253D01*
X021665Y028274D01*
X021687Y028291D01*
X021711Y028306D01*
X021737Y028318D01*
X021765Y028326D01*
X021793Y028331D01*
X021821Y028333D01*
X021979Y028333D01*
X022015Y028525D02*
X022105Y028615D01*
X022105Y028795D01*
X022220Y028660D02*
X022400Y028660D01*
X022310Y028750D02*
X022310Y028570D01*
X022015Y028525D02*
X021925Y028615D01*
X021925Y028795D01*
X022300Y029400D02*
X016000Y029400D01*
X016000Y038849D01*
X022300Y038849D01*
X022300Y029400D01*
X022255Y029525D02*
X022165Y029525D01*
X022120Y029570D01*
X022165Y029660D02*
X022255Y029660D01*
X022300Y029615D01*
X022300Y029570D01*
X022255Y029525D01*
X022165Y029660D02*
X022120Y029705D01*
X022120Y029750D01*
X022165Y029795D01*
X022255Y029795D01*
X022300Y029750D01*
X022414Y029795D02*
X022594Y029795D01*
X022504Y029795D02*
X022504Y029525D01*
X022005Y029525D02*
X021915Y029615D01*
X021960Y029615D02*
X021825Y029615D01*
X021825Y029525D02*
X021825Y029795D01*
X021960Y029795D01*
X022005Y029750D01*
X022005Y029660D01*
X021960Y029615D01*
X021910Y030525D02*
X021820Y030525D01*
X021775Y030570D01*
X021775Y030750D01*
X021820Y030795D01*
X021910Y030795D01*
X021955Y030750D01*
X021955Y030660D02*
X021865Y030660D01*
X021955Y030660D02*
X021955Y030570D01*
X021910Y030525D01*
X022070Y030525D02*
X022070Y030795D01*
X022250Y030525D01*
X022250Y030795D01*
X022364Y030795D02*
X022499Y030795D01*
X022544Y030750D01*
X022544Y030570D01*
X022499Y030525D01*
X022364Y030525D01*
X022364Y030795D01*
X022316Y031525D02*
X022316Y031795D01*
X022496Y031525D01*
X022496Y031795D01*
X022210Y031795D02*
X022120Y031795D01*
X022165Y031795D02*
X022165Y031525D01*
X022120Y031525D02*
X022210Y031525D01*
X022005Y031615D02*
X022005Y031795D01*
X022005Y031615D02*
X021915Y031525D01*
X021825Y031615D01*
X021825Y031795D01*
X021870Y032525D02*
X021960Y032525D01*
X021915Y032525D02*
X021915Y032795D01*
X021870Y032795D02*
X021960Y032795D01*
X022066Y032750D02*
X022066Y032705D01*
X022111Y032660D01*
X022201Y032660D01*
X022246Y032615D01*
X022246Y032570D01*
X022201Y032525D01*
X022111Y032525D01*
X022066Y032570D01*
X022066Y032750D02*
X022111Y032795D01*
X022201Y032795D01*
X022246Y032750D01*
X022361Y032750D02*
X022361Y032570D01*
X022406Y032525D01*
X022496Y032525D01*
X022541Y032570D01*
X022541Y032750D01*
X022496Y032795D01*
X022406Y032795D01*
X022361Y032750D01*
X022414Y033525D02*
X022414Y033795D01*
X022300Y033750D02*
X022255Y033795D01*
X022165Y033795D01*
X022120Y033750D01*
X022120Y033570D01*
X022165Y033525D01*
X022255Y033525D01*
X022300Y033570D01*
X022414Y033615D02*
X022594Y033795D01*
X022459Y033660D02*
X022594Y033525D01*
X022005Y033570D02*
X021960Y033525D01*
X021870Y033525D01*
X021825Y033570D01*
X021870Y033660D02*
X021825Y033705D01*
X021825Y033750D01*
X021870Y033795D01*
X021960Y033795D01*
X022005Y033750D01*
X021960Y033660D02*
X022005Y033615D01*
X022005Y033570D01*
X021960Y033660D02*
X021870Y033660D01*
X021755Y032795D02*
X021755Y032525D01*
X021575Y032525D02*
X021575Y032795D01*
X021665Y032705D01*
X021755Y032795D01*
X019154Y036925D02*
X019064Y036925D01*
X019019Y036970D01*
X019199Y037150D01*
X019199Y036970D01*
X019154Y036925D01*
X019019Y036970D02*
X019019Y037150D01*
X019064Y037195D01*
X019154Y037195D01*
X019199Y037150D01*
X018917Y036970D02*
X018917Y036925D01*
X018872Y036925D01*
X018872Y036970D01*
X018917Y036970D01*
X018757Y036970D02*
X018712Y036925D01*
X018622Y036925D01*
X018577Y036970D01*
X018667Y037060D02*
X018712Y037060D01*
X018757Y037015D01*
X018757Y036970D01*
X018712Y037060D02*
X018757Y037105D01*
X018757Y037150D01*
X018712Y037195D01*
X018622Y037195D01*
X018577Y037150D01*
X018462Y037060D02*
X018282Y037060D01*
X018168Y037060D02*
X017988Y037060D01*
X017988Y037105D02*
X018078Y037195D01*
X018168Y037105D01*
X018168Y036925D01*
X017988Y036925D02*
X017988Y037105D01*
X017873Y037150D02*
X017828Y037195D01*
X017738Y037195D01*
X017693Y037150D01*
X017693Y037105D01*
X017738Y037060D01*
X017828Y037060D01*
X017873Y037015D01*
X017873Y036970D01*
X017828Y036925D01*
X017738Y036925D01*
X017693Y036970D01*
X017578Y037060D02*
X017398Y037060D01*
X017284Y037150D02*
X017284Y037195D01*
X017284Y037150D02*
X017194Y037060D01*
X017194Y036925D01*
X017194Y037060D02*
X017104Y037150D01*
X017104Y037195D01*
X016989Y037150D02*
X016989Y037105D01*
X016944Y037060D01*
X016809Y037060D01*
X016694Y037060D02*
X016514Y037060D01*
X016400Y036970D02*
X016355Y036925D01*
X016265Y036925D01*
X016220Y036970D01*
X016220Y037150D01*
X016265Y037195D01*
X016355Y037195D01*
X016400Y037150D01*
X016416Y037405D02*
X016506Y037495D01*
X016506Y037585D01*
X016416Y037675D01*
X016302Y037585D02*
X016166Y037585D01*
X016121Y037540D01*
X016121Y037450D01*
X016166Y037405D01*
X016302Y037405D01*
X016015Y037405D02*
X015925Y037495D01*
X015925Y037585D01*
X016015Y037675D01*
X015925Y037885D02*
X015925Y038065D01*
X016015Y038155D01*
X016105Y038065D01*
X016105Y037885D01*
X016220Y037885D02*
X016220Y038065D01*
X016310Y038065D02*
X016355Y038065D01*
X016310Y038065D02*
X016220Y037975D01*
X016105Y038020D02*
X015925Y038020D01*
X016465Y037930D02*
X016510Y037975D01*
X016645Y037975D01*
X016645Y038020D02*
X016645Y037885D01*
X016510Y037885D01*
X016465Y037930D01*
X016510Y038065D02*
X016600Y038065D01*
X016645Y038020D01*
X016760Y038020D02*
X016760Y037930D01*
X016805Y037885D01*
X016940Y037885D01*
X017054Y037885D02*
X017054Y038155D01*
X017100Y038065D02*
X017190Y038065D01*
X017235Y038020D01*
X017235Y037885D01*
X017349Y037885D02*
X017349Y038065D01*
X017484Y038065D01*
X017529Y038020D01*
X017529Y037885D01*
X017644Y037885D02*
X017734Y037885D01*
X017689Y037885D02*
X017689Y038065D01*
X017644Y038065D01*
X017689Y038155D02*
X017689Y038200D01*
X017840Y038020D02*
X017840Y037930D01*
X017885Y037885D01*
X017975Y037885D01*
X018020Y037930D01*
X018020Y038020D01*
X017975Y038065D01*
X017885Y038065D01*
X017840Y038020D01*
X017791Y037675D02*
X017791Y037540D01*
X017881Y037585D01*
X017926Y037585D01*
X017971Y037540D01*
X017971Y037450D01*
X017926Y037405D01*
X017836Y037405D01*
X017791Y037450D01*
X017677Y037405D02*
X017496Y037405D01*
X017587Y037405D02*
X017587Y037675D01*
X017496Y037585D01*
X017382Y037630D02*
X017202Y037450D01*
X017247Y037405D01*
X017337Y037405D01*
X017382Y037450D01*
X017382Y037630D01*
X017337Y037675D01*
X017247Y037675D01*
X017202Y037630D01*
X017202Y037450D01*
X017087Y037405D02*
X016907Y037405D01*
X017087Y037585D01*
X017087Y037630D01*
X017042Y037675D01*
X016952Y037675D01*
X016907Y037630D01*
X016760Y038020D02*
X016805Y038065D01*
X016940Y038065D01*
X017054Y038020D02*
X017100Y038065D01*
X017791Y037675D02*
X017971Y037675D01*
X018430Y037885D02*
X018430Y038065D01*
X018520Y038065D02*
X018565Y038065D01*
X018520Y038065D02*
X018430Y037975D01*
X018675Y037885D02*
X018855Y037885D01*
X018765Y037885D02*
X018765Y038155D01*
X018675Y038065D01*
X016989Y037150D02*
X016944Y037195D01*
X016809Y037195D01*
X016809Y036925D01*
X016944Y036925D01*
X016989Y036970D01*
X016989Y037015D01*
X016944Y037060D01*
X016105Y036970D02*
X016060Y036925D01*
X015970Y036925D01*
X015925Y036970D01*
X015925Y037150D01*
X015970Y037195D01*
X016060Y037195D01*
X016105Y037150D01*
X016115Y033795D02*
X016070Y033750D01*
X016070Y033570D01*
X016115Y033525D01*
X016205Y033525D01*
X016250Y033570D01*
X016250Y033750D01*
X016205Y033795D01*
X016115Y033795D01*
X015955Y033795D02*
X015955Y033525D01*
X015775Y033525D02*
X015775Y033795D01*
X015865Y033705D01*
X015955Y033795D01*
X016364Y033750D02*
X016364Y033705D01*
X016409Y033660D01*
X016499Y033660D01*
X016544Y033615D01*
X016544Y033570D01*
X016499Y033525D01*
X016409Y033525D01*
X016364Y033570D01*
X016364Y033750D02*
X016409Y033795D01*
X016499Y033795D01*
X016544Y033750D01*
X016659Y033795D02*
X016749Y033795D01*
X016704Y033795D02*
X016704Y033525D01*
X016659Y033525D02*
X016749Y033525D01*
X016355Y032795D02*
X016265Y032795D01*
X016220Y032750D01*
X016220Y032705D01*
X016265Y032660D01*
X016355Y032660D01*
X016400Y032615D01*
X016400Y032570D01*
X016355Y032525D01*
X016265Y032525D01*
X016220Y032570D01*
X016105Y032570D02*
X016060Y032525D01*
X015970Y032525D01*
X015925Y032570D01*
X015970Y032660D02*
X016060Y032660D01*
X016105Y032615D01*
X016105Y032570D01*
X015970Y032660D02*
X015925Y032705D01*
X015925Y032750D01*
X015970Y032795D01*
X016060Y032795D01*
X016105Y032750D01*
X016355Y032795D02*
X016400Y032750D01*
X015675Y032270D02*
X015630Y032270D01*
X015450Y032450D01*
X015405Y032450D01*
X015405Y032270D01*
X015450Y032155D02*
X015540Y032155D01*
X015585Y032110D01*
X015585Y031975D01*
X015675Y031975D02*
X015405Y031975D01*
X015405Y032110D01*
X015450Y032155D01*
X015585Y032065D02*
X015675Y032155D01*
X015875Y031795D02*
X016055Y031795D01*
X015965Y031795D02*
X015965Y031525D01*
X016170Y031525D02*
X016350Y031795D01*
X016464Y031705D02*
X016554Y031795D01*
X016554Y031525D01*
X016464Y031525D02*
X016644Y031525D01*
X016350Y031525D02*
X016170Y031795D01*
X016170Y030795D02*
X016350Y030525D01*
X016464Y030525D02*
X016644Y030525D01*
X016554Y030525D02*
X016554Y030795D01*
X016464Y030705D01*
X016350Y030795D02*
X016170Y030525D01*
X016055Y030525D02*
X015965Y030615D01*
X016010Y030615D02*
X015875Y030615D01*
X015875Y030525D02*
X015875Y030795D01*
X016010Y030795D01*
X016055Y030750D01*
X016055Y030660D01*
X016010Y030615D01*
X016010Y029795D02*
X016055Y029750D01*
X016055Y029660D01*
X016010Y029615D01*
X015875Y029615D01*
X015875Y029525D02*
X015875Y029795D01*
X016010Y029795D01*
X016170Y029750D02*
X016170Y029705D01*
X016215Y029660D01*
X016305Y029660D01*
X016350Y029615D01*
X016350Y029570D01*
X016305Y029525D01*
X016215Y029525D01*
X016170Y029570D01*
X016055Y029525D02*
X015965Y029615D01*
X016170Y029750D02*
X016215Y029795D01*
X016305Y029795D01*
X016350Y029750D01*
X016464Y029795D02*
X016644Y029795D01*
X016554Y029795D02*
X016554Y029525D01*
X016599Y028795D02*
X016464Y028795D01*
X016464Y028525D01*
X016599Y028525D01*
X016644Y028570D01*
X016644Y028750D01*
X016599Y028795D01*
X016350Y028795D02*
X016350Y028525D01*
X016170Y028795D01*
X016170Y028525D01*
X016055Y028570D02*
X016055Y028660D01*
X015965Y028660D01*
X015875Y028570D02*
X015920Y028525D01*
X016010Y028525D01*
X016055Y028570D01*
X015875Y028570D02*
X015875Y028750D01*
X015920Y028795D01*
X016010Y028795D01*
X016055Y028750D01*
X016060Y027745D02*
X015925Y027745D01*
X015925Y027475D01*
X016060Y027475D01*
X016105Y027520D01*
X016105Y027700D01*
X016060Y027745D01*
X016220Y027700D02*
X016265Y027745D01*
X016355Y027745D01*
X016400Y027700D01*
X016400Y027655D01*
X016220Y027475D01*
X016400Y027475D01*
X016355Y026745D02*
X016400Y026700D01*
X016400Y026655D01*
X016355Y026610D01*
X016400Y026565D01*
X016400Y026520D01*
X016355Y026475D01*
X016265Y026475D01*
X016220Y026520D01*
X016105Y026520D02*
X016105Y026700D01*
X016060Y026745D01*
X015925Y026745D01*
X015925Y026475D01*
X016060Y026475D01*
X016105Y026520D01*
X016220Y026700D02*
X016265Y026745D01*
X016355Y026745D01*
X016355Y026610D02*
X016310Y026610D01*
X016570Y025945D02*
X016570Y025675D01*
X016660Y025675D02*
X016660Y025945D01*
X016660Y025855D02*
X016705Y025855D01*
X016660Y025855D02*
X016525Y025855D01*
X016525Y025765D02*
X016705Y025765D01*
X016400Y025660D02*
X016220Y025660D01*
X016355Y025795D01*
X016355Y025525D01*
X016105Y025570D02*
X016105Y025750D01*
X016060Y025795D01*
X015925Y025795D01*
X015925Y025525D01*
X016060Y025525D01*
X016105Y025570D01*
X016060Y024795D02*
X015925Y024795D01*
X015925Y024525D01*
X016060Y024525D01*
X016105Y024570D01*
X016105Y024750D01*
X016060Y024795D01*
X016220Y024795D02*
X016220Y024660D01*
X016310Y024705D01*
X016355Y024705D01*
X016400Y024660D01*
X016400Y024570D01*
X016355Y024525D01*
X016265Y024525D01*
X016220Y024570D01*
X016220Y024795D02*
X016400Y024795D01*
X016525Y024765D02*
X016705Y024765D01*
X016705Y024855D02*
X016660Y024855D01*
X016525Y024855D01*
X016570Y024945D02*
X016570Y024675D01*
X016660Y024675D02*
X016660Y024945D01*
X016660Y023995D02*
X016660Y023725D01*
X016570Y023725D02*
X016570Y023995D01*
X016525Y023905D02*
X016660Y023905D01*
X016705Y023905D01*
X016705Y023815D02*
X016525Y023815D01*
X016400Y023795D02*
X016310Y023750D01*
X016220Y023660D01*
X016355Y023660D01*
X016400Y023615D01*
X016400Y023570D01*
X016355Y023525D01*
X016265Y023525D01*
X016220Y023570D01*
X016220Y023660D01*
X016105Y023570D02*
X016105Y023750D01*
X016060Y023795D01*
X015925Y023795D01*
X015925Y023525D01*
X016060Y023525D01*
X016105Y023570D01*
X016110Y022795D02*
X015975Y022795D01*
X015975Y022525D01*
X016110Y022525D01*
X016155Y022570D01*
X016155Y022750D01*
X016110Y022795D01*
X016270Y022795D02*
X016450Y022795D01*
X016450Y022750D01*
X016270Y022570D01*
X016270Y022525D01*
X016321Y021833D02*
X016479Y021833D01*
X016400Y021750D02*
X016400Y021705D01*
X016355Y021660D01*
X016265Y021660D01*
X016220Y021705D01*
X016220Y021750D01*
X016265Y021795D01*
X016355Y021795D01*
X016400Y021750D01*
X016355Y021660D02*
X016400Y021615D01*
X016400Y021570D01*
X016355Y021525D01*
X016265Y021525D01*
X016220Y021570D01*
X016220Y021615D01*
X016265Y021660D01*
X016321Y021833D02*
X016293Y021831D01*
X016265Y021826D01*
X016237Y021818D01*
X016211Y021806D01*
X016187Y021791D01*
X016165Y021774D01*
X016144Y021753D01*
X016127Y021731D01*
X016112Y021707D01*
X016100Y021681D01*
X016092Y021653D01*
X016087Y021625D01*
X016085Y021597D01*
X016085Y021203D01*
X016087Y021175D01*
X016092Y021147D01*
X016100Y021119D01*
X016112Y021093D01*
X016127Y021069D01*
X016144Y021047D01*
X016165Y021026D01*
X016187Y021009D01*
X016211Y020994D01*
X016237Y020982D01*
X016265Y020974D01*
X016293Y020969D01*
X016321Y020967D01*
X016479Y020967D02*
X016507Y020969D01*
X016535Y020974D01*
X016563Y020982D01*
X016589Y020994D01*
X016613Y021009D01*
X016635Y021026D01*
X016656Y021047D01*
X016673Y021069D01*
X016688Y021093D01*
X016700Y021119D01*
X016708Y021147D01*
X016713Y021175D01*
X016715Y021203D01*
X016715Y021597D01*
X016713Y021625D01*
X016708Y021653D01*
X016700Y021681D01*
X016688Y021707D01*
X016673Y021731D01*
X016656Y021753D01*
X016635Y021774D01*
X016613Y021791D01*
X016589Y021806D01*
X016563Y021818D01*
X016535Y021826D01*
X016507Y021831D01*
X016479Y021833D01*
X016105Y021750D02*
X016105Y021570D01*
X016060Y021525D01*
X015925Y021525D01*
X015925Y021795D01*
X016060Y021795D01*
X016105Y021750D01*
X017181Y022681D02*
X017181Y026619D01*
X021119Y026619D01*
X021119Y022681D01*
X017181Y022681D01*
X017662Y027439D02*
X017898Y027439D01*
X017898Y027951D02*
X017662Y027951D01*
X019473Y027951D02*
X019473Y027439D01*
X019591Y027439D01*
X019591Y027951D02*
X019473Y027951D01*
X020255Y027960D02*
X020525Y027960D01*
X020525Y027870D02*
X020525Y028050D01*
X020345Y027870D02*
X020255Y027960D01*
X020300Y027755D02*
X020255Y027710D01*
X020255Y027575D01*
X020525Y027575D01*
X020435Y027575D02*
X020435Y027710D01*
X020390Y027755D01*
X020300Y027755D01*
X020435Y027665D02*
X020525Y027755D01*
X021979Y027467D02*
X022007Y027469D01*
X022035Y027474D01*
X022063Y027482D01*
X022089Y027494D01*
X022113Y027509D01*
X022135Y027526D01*
X022156Y027547D01*
X022173Y027569D01*
X022188Y027593D01*
X022200Y027619D01*
X022208Y027647D01*
X022213Y027675D01*
X022215Y027703D01*
X022215Y028097D01*
X022213Y028125D01*
X022208Y028153D01*
X022200Y028181D01*
X022188Y028207D01*
X022173Y028231D01*
X022156Y028253D01*
X022135Y028274D01*
X022113Y028291D01*
X022089Y028306D01*
X022063Y028318D01*
X022035Y028326D01*
X022007Y028331D01*
X021979Y028333D01*
X020626Y022977D02*
X020628Y023004D01*
X020634Y023031D01*
X020643Y023057D01*
X020656Y023081D01*
X020672Y023104D01*
X020691Y023123D01*
X020713Y023140D01*
X020737Y023154D01*
X020762Y023164D01*
X020789Y023171D01*
X020816Y023174D01*
X020844Y023173D01*
X020871Y023168D01*
X020897Y023160D01*
X020921Y023148D01*
X020944Y023132D01*
X020965Y023114D01*
X020982Y023093D01*
X020997Y023069D01*
X021008Y023044D01*
X021016Y023018D01*
X021020Y022991D01*
X021020Y022963D01*
X021016Y022936D01*
X021008Y022910D01*
X020997Y022885D01*
X020982Y022861D01*
X020965Y022840D01*
X020944Y022822D01*
X020922Y022806D01*
X020897Y022794D01*
X020871Y022786D01*
X020844Y022781D01*
X020816Y022780D01*
X020789Y022783D01*
X020762Y022790D01*
X020737Y022800D01*
X020713Y022814D01*
X020691Y022831D01*
X020672Y022850D01*
X020656Y022873D01*
X020643Y022897D01*
X020634Y022923D01*
X020628Y022950D01*
X020626Y022977D01*
X021820Y018745D02*
X021910Y018745D01*
X021955Y018700D01*
X021955Y018655D01*
X021910Y018610D01*
X021955Y018565D01*
X021955Y018520D01*
X021910Y018475D01*
X021820Y018475D01*
X021775Y018520D01*
X021865Y018610D02*
X021910Y018610D01*
X021775Y018700D02*
X021820Y018745D01*
X022070Y018745D02*
X022070Y018565D01*
X022160Y018475D01*
X022250Y018565D01*
X022250Y018745D01*
X022364Y018700D02*
X022409Y018745D01*
X022499Y018745D01*
X022544Y018700D01*
X022544Y018655D01*
X022499Y018610D01*
X022544Y018565D01*
X022544Y018520D01*
X022499Y018475D01*
X022409Y018475D01*
X022364Y018520D01*
X022454Y018610D02*
X022499Y018610D01*
X022499Y017795D02*
X022544Y017750D01*
X022544Y017705D01*
X022499Y017660D01*
X022544Y017615D01*
X022544Y017570D01*
X022499Y017525D01*
X022409Y017525D01*
X022364Y017570D01*
X022250Y017525D02*
X022070Y017525D01*
X022160Y017525D02*
X022160Y017795D01*
X022070Y017705D01*
X021955Y017750D02*
X021910Y017795D01*
X021775Y017795D01*
X021775Y017525D01*
X021910Y017525D01*
X021955Y017570D01*
X021955Y017750D01*
X021705Y017715D02*
X021525Y017715D01*
X021525Y017805D02*
X021660Y017805D01*
X021705Y017805D01*
X021660Y017895D02*
X021660Y017625D01*
X021570Y017625D02*
X021570Y017895D01*
X022364Y017750D02*
X022409Y017795D01*
X022499Y017795D01*
X022499Y017660D02*
X022454Y017660D01*
D13*
X018298Y021459D03*
X018002Y021459D03*
X017798Y021459D03*
X017502Y021459D03*
X015548Y030459D03*
X015252Y030459D03*
D14*
X015400Y030459D03*
X017650Y021459D03*
X018150Y021459D03*
D15*
X018441Y017631D02*
X017536Y017631D01*
X017536Y016922D01*
X017536Y015978D02*
X017536Y015702D01*
X019859Y017631D02*
X020764Y017631D01*
X020764Y016922D01*
X020764Y015978D02*
X020764Y015702D01*
D16*
X019345Y018155D02*
X019345Y018745D01*
X018755Y018745D02*
X018755Y018155D01*
X019796Y020289D02*
X020103Y020289D01*
X020180Y020366D01*
X020180Y020519D01*
X020103Y020596D01*
X020180Y020749D02*
X019873Y021056D01*
X019796Y021056D01*
X019720Y020979D01*
X019720Y020826D01*
X019796Y020749D01*
X019796Y020596D02*
X019720Y020519D01*
X019720Y020366D01*
X019796Y020289D01*
X020180Y020749D02*
X020180Y021056D01*
X020103Y021210D02*
X019796Y021517D01*
X020103Y021517D01*
X020180Y021440D01*
X020180Y021286D01*
X020103Y021210D01*
X019796Y021210D01*
X019720Y021286D01*
X019720Y021440D01*
X019796Y021517D01*
X018330Y021477D02*
X018177Y021323D01*
X018177Y021400D02*
X018177Y021170D01*
X018330Y021170D02*
X017870Y021170D01*
X017870Y021400D01*
X017946Y021477D01*
X018100Y021477D01*
X018177Y021400D01*
X018253Y021630D02*
X018330Y021707D01*
X018330Y021861D01*
X018253Y021937D01*
X017946Y021937D01*
X017870Y021861D01*
X017870Y021707D01*
X017946Y021630D01*
X018023Y021630D01*
X018100Y021707D01*
X018100Y021937D01*
X016017Y023220D02*
X015710Y023220D01*
X016017Y023527D01*
X016017Y023604D01*
X015940Y023680D01*
X015786Y023680D01*
X015710Y023604D01*
X015556Y023604D02*
X015479Y023680D01*
X015326Y023680D01*
X015249Y023604D01*
X015096Y023604D02*
X015019Y023680D01*
X014866Y023680D01*
X014789Y023604D01*
X014789Y023297D01*
X014866Y023220D01*
X015019Y023220D01*
X015096Y023297D01*
X015249Y023220D02*
X015556Y023527D01*
X015556Y023604D01*
X015556Y023220D02*
X015249Y023220D01*
X018510Y028526D02*
X018816Y028526D01*
X018970Y028603D02*
X019047Y028526D01*
X019200Y028526D01*
X019277Y028603D01*
X019277Y028680D01*
X019200Y028756D01*
X019047Y028756D01*
X018970Y028833D01*
X018970Y028910D01*
X019047Y028987D01*
X019200Y028987D01*
X019277Y028910D01*
X019430Y028987D02*
X019661Y028987D01*
X019737Y028910D01*
X019737Y028756D01*
X019661Y028680D01*
X019430Y028680D01*
X019430Y028526D02*
X019430Y028987D01*
X019620Y028744D02*
X020080Y028744D01*
X020080Y028591D02*
X020080Y028898D01*
X020044Y028987D02*
X020044Y028526D01*
X020080Y028437D02*
X020080Y028130D01*
X019773Y028437D01*
X019696Y028437D01*
X019620Y028361D01*
X019620Y028207D01*
X019696Y028130D01*
X019696Y027977D02*
X019620Y027900D01*
X019620Y027747D01*
X019696Y027670D01*
X020003Y027670D01*
X020080Y027747D01*
X020080Y027900D01*
X020003Y027977D01*
X019891Y028526D02*
X020198Y028526D01*
X019773Y028591D02*
X019620Y028744D01*
X019891Y028833D02*
X020044Y028987D01*
X018816Y028987D02*
X018510Y028987D01*
X018510Y028526D01*
X018510Y028756D02*
X018663Y028756D01*
X020021Y026402D02*
X020021Y026018D01*
X020098Y025942D01*
X020251Y025942D01*
X020328Y026018D01*
X020328Y026402D01*
X020481Y026249D02*
X020635Y026402D01*
X020635Y025942D01*
X020788Y025942D02*
X020481Y025942D01*
X022170Y026054D02*
X022170Y025747D01*
X022247Y025670D01*
X022400Y025670D01*
X022477Y025747D01*
X022630Y025670D02*
X022937Y025670D01*
X022784Y025670D02*
X022784Y026130D01*
X022630Y025977D01*
X022477Y026054D02*
X022400Y026130D01*
X022247Y026130D01*
X022170Y026054D01*
X022247Y025030D02*
X022170Y024954D01*
X022170Y024647D01*
X022247Y024570D01*
X022400Y024570D01*
X022477Y024647D01*
X022630Y024570D02*
X022937Y024570D01*
X022784Y024570D02*
X022784Y025030D01*
X022630Y024877D01*
X022477Y024954D02*
X022400Y025030D01*
X022247Y025030D01*
X023091Y024877D02*
X023244Y025030D01*
X023244Y024570D01*
X023091Y024570D02*
X023398Y024570D01*
X022937Y023680D02*
X022630Y023680D01*
X022630Y023450D01*
X022784Y023527D01*
X022861Y023527D01*
X022937Y023450D01*
X022937Y023297D01*
X022861Y023220D01*
X022707Y023220D01*
X022630Y023297D01*
X022707Y023180D02*
X022630Y023104D01*
X022707Y023180D02*
X022861Y023180D01*
X022937Y023104D01*
X022937Y023027D01*
X022630Y022720D01*
X022937Y022720D01*
X022837Y022680D02*
X022684Y022604D01*
X022530Y022450D01*
X022761Y022450D01*
X022837Y022373D01*
X022837Y022297D01*
X022761Y022220D01*
X022607Y022220D01*
X022530Y022297D01*
X022530Y022450D01*
X022517Y022620D02*
X022210Y022620D01*
X022517Y022927D01*
X022517Y023004D01*
X022440Y023080D01*
X022286Y023080D01*
X022210Y023004D01*
X022170Y023104D02*
X022170Y022797D01*
X022247Y022720D01*
X022400Y022720D01*
X022477Y022797D01*
X022300Y022680D02*
X022147Y022680D01*
X022070Y022604D01*
X022070Y022297D01*
X022147Y022220D01*
X022300Y022220D01*
X022377Y022297D01*
X022377Y022604D02*
X022300Y022680D01*
X022056Y022620D02*
X021749Y022620D01*
X021903Y022620D02*
X021903Y023080D01*
X021749Y022927D01*
X021596Y023004D02*
X021519Y023080D01*
X021366Y023080D01*
X021289Y023004D01*
X021289Y022697D01*
X021366Y022620D01*
X021519Y022620D01*
X021596Y022697D01*
X022170Y023104D02*
X022247Y023180D01*
X022400Y023180D01*
X022477Y023104D01*
X022400Y023220D02*
X022477Y023297D01*
X022400Y023220D02*
X022247Y023220D01*
X022170Y023297D01*
X022170Y023604D01*
X022247Y023680D01*
X022400Y023680D01*
X022477Y023604D01*
X023168Y025670D02*
X023091Y025747D01*
X023168Y025670D02*
X023321Y025670D01*
X023398Y025747D01*
X023398Y025823D01*
X023321Y025900D01*
X023244Y025900D01*
X023321Y025900D02*
X023398Y025977D01*
X023398Y026054D01*
X023321Y026130D01*
X023168Y026130D01*
X023091Y026054D01*
X022517Y020080D02*
X022210Y020080D01*
X022210Y019850D01*
X022363Y019927D01*
X022440Y019927D01*
X022517Y019850D01*
X022517Y019697D01*
X022440Y019620D01*
X022286Y019620D01*
X022210Y019697D01*
X022056Y019620D02*
X021749Y019620D01*
X021903Y019620D02*
X021903Y020080D01*
X021749Y019927D01*
X021596Y020004D02*
X021519Y020080D01*
X021366Y020080D01*
X021289Y020004D01*
X021289Y019697D01*
X021366Y019620D01*
X021519Y019620D01*
X021596Y019697D01*
D17*
X022006Y020904D02*
X022794Y020904D01*
X022794Y021396D02*
X022006Y021396D01*
D18*
X022718Y021545D02*
X022865Y021545D01*
X022939Y021545D02*
X023086Y021545D01*
X023012Y021545D02*
X023012Y021765D01*
X022939Y021692D01*
X022718Y021765D02*
X022718Y021545D01*
D19*
X022400Y021150D03*
M02*
