G75*
%MOIN*%
%OFA0B0*%
%FSLAX24Y24*%
%IPPOS*%
%LPD*%
%AMOC8*
5,1,8,0,0,1.08239X$1,22.5*
%
%ADD10R,0.0394X0.0433*%
%ADD11C,0.0394*%
%ADD12R,0.0394X0.0394*%
%ADD13R,0.0748X0.1339*%
%ADD14R,0.2362X0.0394*%
%ADD15R,0.0354X0.0276*%
%ADD16R,0.0880X0.0480*%
%ADD17R,0.0866X0.1417*%
%ADD18R,0.0433X0.0394*%
%ADD19R,0.0374X0.0354*%
%ADD20R,0.0250X0.0500*%
%ADD21C,0.0250*%
%ADD22C,0.0060*%
%ADD23C,0.0160*%
%ADD24C,0.0100*%
%ADD25C,0.0050*%
D10*
X017650Y016315D03*
X017650Y016985D03*
X019650Y019315D03*
X019650Y019985D03*
X020400Y019985D03*
X020400Y019315D03*
X020400Y018485D03*
X020400Y017815D03*
D11*
X016150Y034550D03*
D12*
X018900Y018544D03*
X019650Y018544D03*
X019650Y017756D03*
X018900Y017756D03*
D13*
X018882Y016650D03*
X020418Y016650D03*
D14*
X022150Y017150D03*
X022150Y018150D03*
X022150Y019150D03*
X022150Y020150D03*
X022150Y021150D03*
X022150Y022150D03*
X022150Y023150D03*
X022150Y024150D03*
X022150Y025150D03*
X022150Y026150D03*
X022150Y027150D03*
X022150Y028150D03*
X022150Y029150D03*
X022150Y030150D03*
X022150Y031150D03*
X022150Y032150D03*
X022150Y033150D03*
X016150Y033150D03*
X016150Y032150D03*
X016150Y031150D03*
X016150Y030150D03*
X016150Y029150D03*
X016150Y028150D03*
X016150Y027150D03*
X016150Y026150D03*
X016150Y025150D03*
X016150Y024150D03*
X016150Y023150D03*
X016150Y022150D03*
X016150Y021150D03*
X016150Y020150D03*
X016150Y019150D03*
X016150Y018150D03*
X016150Y017150D03*
D15*
X018150Y016906D03*
X018150Y016394D03*
D16*
X020370Y020740D03*
X020370Y021650D03*
X020370Y022560D03*
D17*
X017930Y021650D03*
D18*
X019315Y023400D03*
X019315Y023900D03*
X019315Y024400D03*
X019315Y024900D03*
X018735Y024900D03*
X018735Y024400D03*
X018065Y024400D03*
X018065Y024900D03*
X019985Y024900D03*
X019985Y024400D03*
X019985Y023900D03*
X019985Y023400D03*
D19*
X017900Y018770D03*
X017900Y017530D03*
X020400Y029780D03*
X020400Y031020D03*
D20*
X018327Y031400D03*
X017973Y031400D03*
X017973Y032400D03*
X018327Y032400D03*
D21*
X018650Y032150D03*
X017650Y031900D03*
X017650Y031400D03*
X017150Y030650D03*
X016150Y029650D03*
X016150Y028600D03*
X015650Y028650D03*
X015300Y028650D03*
X015300Y027650D03*
X015650Y027650D03*
X015400Y026650D03*
X015650Y025650D03*
X016150Y025650D03*
X016150Y024650D03*
X015400Y024650D03*
X015250Y023650D03*
X016150Y023550D03*
X016400Y022650D03*
X016400Y021650D03*
X017150Y021650D03*
X017400Y022550D03*
X017550Y023500D03*
X017900Y023400D03*
X017900Y023900D03*
X017550Y024150D03*
X017400Y024600D03*
X017650Y024900D03*
X017400Y025650D03*
X018150Y025900D03*
X018050Y026400D03*
X018400Y026400D03*
X019150Y026150D03*
X019400Y026400D03*
X019650Y026200D03*
X019900Y026400D03*
X020150Y026200D03*
X020400Y026400D03*
X020800Y025800D03*
X020650Y025150D03*
X020600Y024800D03*
X020600Y024400D03*
X020750Y024050D03*
X020850Y023550D03*
X020450Y023550D03*
X020350Y023000D03*
X020650Y023000D03*
X020050Y023000D03*
X019400Y022900D03*
X018950Y023000D03*
X018650Y023150D03*
X018650Y023800D03*
X018900Y024000D03*
X019000Y025300D03*
X018700Y025300D03*
X019400Y025550D03*
X019985Y025565D03*
X019400Y027400D03*
X018650Y027400D03*
X018300Y027400D03*
X018050Y028600D03*
X018650Y028850D03*
X019150Y029150D03*
X019400Y028850D03*
X019150Y029650D03*
X019650Y030650D03*
X019900Y031900D03*
X020650Y032150D03*
X021400Y030550D03*
X022650Y030600D03*
X022650Y028650D03*
X022650Y027650D03*
X022900Y026650D03*
X022700Y025750D03*
X023050Y025650D03*
X023050Y024750D03*
X022700Y024750D03*
X022200Y024650D03*
X021900Y024650D03*
X022150Y025750D03*
X021750Y026650D03*
X021150Y028600D03*
X018400Y030650D03*
X017650Y032400D03*
X017650Y033150D03*
X018400Y034550D03*
X019150Y033150D03*
X022900Y033650D03*
X022700Y034900D03*
X022900Y035650D03*
X017400Y028600D03*
X015400Y032650D03*
X021700Y022750D03*
X021150Y021650D03*
X021650Y020650D03*
X022400Y020750D03*
X023000Y020700D03*
X022400Y019650D03*
X021900Y019650D03*
X021400Y019650D03*
X021650Y018650D03*
X022150Y018650D03*
X021650Y017650D03*
X019900Y018150D03*
X019650Y017050D03*
X018400Y018150D03*
X018400Y018900D03*
X017650Y019800D03*
X018650Y020400D03*
X016150Y018650D03*
X015650Y019650D03*
X015300Y020550D03*
X015250Y021550D03*
X023000Y022650D03*
X023000Y023750D03*
D22*
X023000Y024050D01*
X022900Y024150D01*
X022150Y024150D01*
X022150Y023150D02*
X022050Y023150D01*
X021700Y022750D01*
X022150Y022150D02*
X022650Y022150D01*
X023000Y022500D01*
X023000Y022650D01*
X022400Y021150D02*
X022150Y021150D01*
X022400Y021150D02*
X022400Y020750D01*
X022150Y020150D02*
X021900Y019900D01*
X021900Y019650D01*
X021900Y019150D02*
X021400Y019650D01*
X021900Y019150D02*
X022150Y019150D01*
X021650Y018650D02*
X020900Y018650D01*
X020650Y018900D01*
X018400Y018900D01*
X018400Y018150D02*
X018794Y017756D01*
X018900Y017756D01*
X019650Y017756D02*
X019650Y017900D01*
X019900Y018150D01*
X018650Y020400D02*
X018650Y023150D01*
X018950Y023000D02*
X018950Y022650D01*
X019050Y022550D01*
X019600Y022550D01*
X019700Y022650D01*
X019700Y023050D01*
X019650Y023100D01*
X019650Y025700D01*
X019800Y025850D01*
X020500Y025850D01*
X020800Y026150D01*
X020800Y026800D01*
X021150Y027150D01*
X022150Y027150D01*
X022650Y027650D01*
X022150Y026150D02*
X021150Y026150D01*
X020800Y025800D01*
X020700Y025150D02*
X020650Y025150D01*
X020700Y025150D02*
X020850Y025000D01*
X020850Y024150D01*
X020750Y024050D01*
X022150Y025150D02*
X022650Y025150D01*
X023050Y024750D01*
X021150Y028600D02*
X021150Y028900D01*
X021400Y029150D01*
X022150Y029150D01*
X020000Y029800D02*
X020000Y026800D01*
X020150Y026650D01*
X020150Y026200D01*
X019900Y026400D02*
X019800Y026500D01*
X019800Y029750D01*
X019650Y029900D01*
X019650Y030650D01*
X019150Y030150D02*
X019150Y033150D01*
X018650Y032150D02*
X018650Y028850D01*
X018650Y027400D01*
X018300Y027400D02*
X018300Y030550D01*
X018400Y030650D01*
X018327Y030977D02*
X018050Y030700D01*
X018050Y028600D01*
X017650Y028350D02*
X017400Y028600D01*
X017650Y028350D02*
X017650Y024900D01*
X016900Y025150D02*
X017400Y025650D01*
X016900Y025150D02*
X016150Y025150D01*
X016150Y025650D02*
X016150Y026150D01*
X015400Y026650D02*
X015900Y027150D01*
X016150Y027150D01*
X016150Y028600D02*
X016150Y029150D01*
X016150Y030150D02*
X017400Y030150D01*
X017800Y029750D01*
X017800Y026650D01*
X018050Y026400D01*
X018400Y026400D02*
X018400Y022600D01*
X018500Y022500D01*
X018500Y020800D01*
X017950Y020250D01*
X017950Y019550D01*
X017500Y019100D01*
X017500Y017800D01*
X016850Y017150D01*
X016150Y017150D01*
X016150Y018150D02*
X016150Y018650D01*
X016150Y019150D02*
X015650Y019650D01*
X015400Y020150D02*
X015300Y020250D01*
X015300Y020550D01*
X015400Y020150D02*
X016150Y020150D01*
X016150Y021150D02*
X015650Y021150D01*
X015250Y021550D01*
X016150Y022150D02*
X016400Y022150D01*
X016400Y022650D01*
X016150Y023150D02*
X017650Y023150D01*
X017900Y023400D01*
X016150Y024150D02*
X015900Y024150D01*
X015400Y024650D01*
X018900Y026400D02*
X018900Y029400D01*
X019150Y029650D01*
X019150Y029150D02*
X019650Y029150D01*
X019650Y029650D01*
X019150Y030150D01*
X019900Y029900D02*
X020000Y029800D01*
X019900Y029900D02*
X019900Y031900D01*
X020650Y032150D02*
X022150Y032150D01*
X022150Y033150D02*
X022650Y033150D01*
X022900Y033400D01*
X022900Y033650D01*
X019650Y029150D02*
X019650Y026200D01*
X019150Y026150D02*
X018900Y026400D01*
X019400Y027400D02*
X019400Y028850D01*
X018327Y030977D02*
X018327Y031400D01*
X017973Y031400D02*
X017650Y031400D01*
X017650Y031900D02*
X017400Y032150D01*
X016150Y032150D01*
X015650Y032150D01*
X015400Y032400D01*
X015400Y032650D01*
X016150Y033150D02*
X017650Y033150D01*
X017650Y032400D02*
X017973Y032400D01*
X018327Y032400D02*
X018327Y034477D01*
X018400Y034550D01*
X016900Y031150D02*
X016150Y031150D01*
X016900Y031150D02*
X017150Y030900D01*
X017150Y030650D01*
X021650Y017650D02*
X022150Y017150D01*
D23*
X022150Y018150D02*
X022150Y018650D01*
X020400Y017815D02*
X020400Y016668D01*
X020418Y016650D01*
X020018Y017050D01*
X019650Y017050D01*
X018882Y016650D02*
X018002Y017530D01*
X017900Y017530D01*
X017900Y016985D01*
X018071Y016985D01*
X018150Y016906D01*
X017900Y016985D02*
X017650Y016985D01*
X017900Y018770D02*
X017900Y019150D01*
X018735Y019985D01*
X019650Y019985D01*
X020400Y019985D01*
X020400Y020710D01*
X020370Y020740D01*
X020810Y020740D01*
X020900Y020650D01*
X021650Y020650D01*
X021150Y021650D02*
X020370Y021650D01*
X017930Y021650D02*
X017150Y021650D01*
X020650Y028150D02*
X022150Y028150D01*
X022650Y028150D01*
X022650Y028650D01*
X022150Y031150D02*
X020530Y031150D01*
X020400Y031020D01*
X020400Y029780D02*
X020400Y028400D01*
X020650Y028150D01*
D24*
X019400Y026400D02*
X019400Y025550D01*
X019985Y025565D02*
X019985Y024900D01*
X020085Y024800D01*
X020600Y024800D01*
X020600Y024400D02*
X019985Y024400D01*
X019985Y023900D01*
X019985Y023400D01*
X018065Y024400D02*
X018065Y024900D01*
X018065Y024400D02*
X017900Y024235D01*
X017900Y023900D01*
D25*
X015125Y016878D02*
X015125Y015875D01*
X023175Y015875D01*
X023175Y016878D01*
X020938Y016878D01*
X020894Y016922D01*
X020894Y017378D01*
X020938Y017422D01*
X021730Y017422D01*
X021702Y017450D01*
X021567Y017450D01*
X021450Y017567D01*
X021450Y017733D01*
X021567Y017850D01*
X021733Y017850D01*
X021850Y017733D01*
X021850Y017598D01*
X022027Y017422D01*
X023175Y017422D01*
X023175Y017878D01*
X020938Y017878D01*
X020894Y017922D01*
X020894Y018378D01*
X020938Y018422D01*
X021995Y018422D01*
X021995Y018522D01*
X021950Y018567D01*
X021950Y018733D01*
X022067Y018850D01*
X022233Y018850D01*
X022350Y018733D01*
X022350Y018567D01*
X022305Y018522D01*
X022305Y018422D01*
X023175Y018422D01*
X023175Y018878D01*
X020938Y018878D01*
X020894Y018922D01*
X020894Y019378D01*
X020938Y019422D01*
X021480Y019422D01*
X021452Y019450D01*
X021317Y019450D01*
X021200Y019567D01*
X021200Y019733D01*
X021317Y019850D01*
X021483Y019850D01*
X021600Y019733D01*
X021600Y019598D01*
X021777Y019422D01*
X023175Y019422D01*
X023175Y019878D01*
X022027Y019878D01*
X022005Y019857D01*
X022005Y019828D01*
X022100Y019733D01*
X022100Y019567D01*
X021983Y019450D01*
X021817Y019450D01*
X021700Y019567D01*
X021700Y019733D01*
X021795Y019828D01*
X021795Y019878D01*
X020938Y019878D01*
X020894Y019922D01*
X020894Y020378D01*
X020938Y020422D01*
X023175Y020422D01*
X023175Y020592D01*
X023083Y020500D01*
X023175Y020500D01*
X023175Y020452D02*
X021734Y020452D01*
X021733Y020450D02*
X021850Y020567D01*
X021850Y020733D01*
X021733Y020850D01*
X021567Y020850D01*
X021522Y020805D01*
X020964Y020805D01*
X020885Y020884D01*
X020885Y021011D01*
X020841Y021055D01*
X019899Y021055D01*
X019855Y021011D01*
X019855Y020469D01*
X019899Y020425D01*
X020245Y020425D01*
X020245Y020276D01*
X020172Y020276D01*
X020128Y020232D01*
X020128Y020140D01*
X019922Y020140D01*
X019922Y020232D01*
X019878Y020276D01*
X019422Y020276D01*
X019378Y020232D01*
X019378Y020140D01*
X018670Y020140D01*
X018580Y020049D01*
X018055Y019524D01*
X018055Y020207D01*
X018545Y020697D01*
X018545Y020578D01*
X018450Y020483D01*
X018450Y020317D01*
X018567Y020200D01*
X018733Y020200D01*
X018850Y020317D01*
X018850Y020483D01*
X018755Y020578D01*
X018755Y022912D01*
X018845Y022822D01*
X018845Y022607D01*
X018945Y022507D01*
X019007Y022445D01*
X019643Y022445D01*
X019743Y022545D01*
X019805Y022607D01*
X019805Y023093D01*
X019770Y023128D01*
X020232Y023128D01*
X020276Y023172D01*
X020276Y023441D01*
X020367Y023350D01*
X020533Y023350D01*
X020650Y023467D01*
X020650Y023633D01*
X020533Y023750D01*
X020367Y023750D01*
X020261Y023643D01*
X020254Y023650D01*
X020276Y023672D01*
X020276Y024128D01*
X020254Y024150D01*
X020276Y024172D01*
X020276Y024275D01*
X020442Y024275D01*
X020517Y024200D01*
X020617Y024200D01*
X020550Y024133D01*
X020550Y023967D01*
X020667Y023850D01*
X020833Y023850D01*
X020899Y023917D01*
X020938Y023878D01*
X022845Y023878D01*
X022800Y023833D01*
X022800Y023667D01*
X022917Y023550D01*
X023083Y023550D01*
X023175Y023642D01*
X023175Y023422D01*
X020938Y023422D01*
X020894Y023378D01*
X020894Y022922D01*
X020938Y022878D01*
X021545Y022878D01*
X021500Y022833D01*
X021500Y022667D01*
X021617Y022550D01*
X021783Y022550D01*
X021900Y022667D01*
X021900Y022819D01*
X021952Y022878D01*
X023175Y022878D01*
X023175Y022758D01*
X023083Y022850D01*
X022917Y022850D01*
X022800Y022733D01*
X022800Y022567D01*
X022859Y022508D01*
X022773Y022422D01*
X020938Y022422D01*
X020935Y022419D01*
X020935Y022535D01*
X020395Y022535D01*
X020395Y022585D01*
X020345Y022585D01*
X020345Y022925D01*
X019914Y022925D01*
X019882Y022916D01*
X019853Y022900D01*
X019830Y022877D01*
X019814Y022848D01*
X019805Y022816D01*
X019805Y022585D01*
X020345Y022585D01*
X020345Y022535D01*
X019805Y022535D01*
X019805Y022303D01*
X019814Y022272D01*
X019830Y022243D01*
X019853Y022220D01*
X019882Y022203D01*
X019914Y022195D01*
X020345Y022195D01*
X020345Y022535D01*
X020395Y022535D01*
X020395Y022195D01*
X020826Y022195D01*
X020858Y022203D01*
X020887Y022220D01*
X020894Y022227D01*
X020894Y021922D01*
X020938Y021878D01*
X023175Y021878D01*
X023175Y021422D01*
X020938Y021422D01*
X020894Y021378D01*
X020894Y020922D01*
X020938Y020878D01*
X022245Y020878D01*
X022200Y020833D01*
X022200Y020667D01*
X022317Y020550D01*
X022483Y020550D01*
X022600Y020667D01*
X022600Y020833D01*
X022555Y020878D01*
X022895Y020878D01*
X022800Y020783D01*
X022800Y020617D01*
X022917Y020500D01*
X021783Y020500D01*
X021831Y020549D02*
X022869Y020549D01*
X022820Y020597D02*
X022530Y020597D01*
X022578Y020646D02*
X022800Y020646D01*
X022800Y020694D02*
X022600Y020694D01*
X022600Y020743D02*
X022800Y020743D01*
X022808Y020791D02*
X022600Y020791D01*
X022593Y020840D02*
X022857Y020840D01*
X022917Y020500D02*
X023083Y020500D01*
X023131Y020549D02*
X023175Y020549D01*
X023175Y019870D02*
X022018Y019870D01*
X022012Y019821D02*
X022288Y019821D01*
X022317Y019850D02*
X022200Y019733D01*
X022200Y019567D01*
X022317Y019450D01*
X022483Y019450D01*
X022600Y019567D01*
X022600Y019733D01*
X022483Y019850D01*
X022317Y019850D01*
X022240Y019773D02*
X022060Y019773D01*
X022100Y019724D02*
X022200Y019724D01*
X022200Y019676D02*
X022100Y019676D01*
X022100Y019627D02*
X022200Y019627D01*
X022200Y019579D02*
X022100Y019579D01*
X022063Y019530D02*
X022237Y019530D01*
X022286Y019482D02*
X022014Y019482D01*
X021786Y019482D02*
X021717Y019482D01*
X021737Y019530D02*
X021668Y019530D01*
X021700Y019579D02*
X021620Y019579D01*
X021600Y019627D02*
X021700Y019627D01*
X021700Y019676D02*
X021600Y019676D01*
X021600Y019724D02*
X021700Y019724D01*
X021740Y019773D02*
X021560Y019773D01*
X021512Y019821D02*
X021788Y019821D01*
X021795Y019870D02*
X020672Y019870D01*
X020672Y019918D02*
X020898Y019918D01*
X020894Y019967D02*
X020672Y019967D01*
X020672Y020015D02*
X020894Y020015D01*
X020894Y020064D02*
X020672Y020064D01*
X020672Y020112D02*
X020894Y020112D01*
X020894Y020161D02*
X020672Y020161D01*
X020672Y020209D02*
X020894Y020209D01*
X020894Y020258D02*
X020647Y020258D01*
X020628Y020276D02*
X020555Y020276D01*
X020555Y020425D01*
X020841Y020425D01*
X020885Y020469D01*
X020885Y020495D01*
X021522Y020495D01*
X021567Y020450D01*
X021733Y020450D01*
X021566Y020452D02*
X020867Y020452D01*
X020919Y020403D02*
X020555Y020403D01*
X020555Y020355D02*
X020894Y020355D01*
X020894Y020306D02*
X020555Y020306D01*
X020628Y020276D02*
X020672Y020232D01*
X020672Y019737D01*
X020628Y019693D01*
X020172Y019693D01*
X020128Y019737D01*
X020128Y019830D01*
X019922Y019830D01*
X019922Y019737D01*
X019878Y019693D01*
X019422Y019693D01*
X019378Y019737D01*
X019378Y019830D01*
X018799Y019830D01*
X018055Y019086D01*
X018055Y019022D01*
X018118Y019022D01*
X018162Y018978D01*
X018162Y018562D01*
X018118Y018518D01*
X017682Y018518D01*
X017638Y018562D01*
X017638Y018978D01*
X017682Y019022D01*
X017745Y019022D01*
X017745Y019197D01*
X017605Y019057D01*
X017605Y017757D01*
X017270Y017422D01*
X017362Y017422D01*
X017406Y017378D01*
X017406Y017260D01*
X017422Y017276D01*
X017745Y017276D01*
X017745Y017278D01*
X017682Y017278D01*
X017638Y017322D01*
X017638Y017738D01*
X017682Y017782D01*
X018118Y017782D01*
X018162Y017738D01*
X018162Y017589D01*
X018433Y017318D01*
X018433Y017350D01*
X018477Y017394D01*
X019287Y017394D01*
X019331Y017350D01*
X019331Y015950D01*
X019287Y015906D01*
X018477Y015906D01*
X018433Y015950D01*
X018433Y016190D01*
X018427Y016180D01*
X018404Y016156D01*
X018375Y016140D01*
X018344Y016131D01*
X018175Y016131D01*
X018175Y016369D01*
X018125Y016369D01*
X018125Y016131D01*
X017972Y016131D01*
X017972Y016082D01*
X017963Y016051D01*
X017947Y016022D01*
X017924Y015999D01*
X017895Y015982D01*
X017863Y015974D01*
X017675Y015974D01*
X017675Y016290D01*
X017625Y016290D01*
X017625Y015974D01*
X017437Y015974D01*
X017405Y015982D01*
X017376Y015999D01*
X017353Y016022D01*
X017337Y016051D01*
X017328Y016082D01*
X017328Y016290D01*
X017625Y016290D01*
X017625Y016340D01*
X017328Y016340D01*
X017328Y016548D01*
X017337Y016580D01*
X017353Y016609D01*
X017376Y016632D01*
X017405Y016648D01*
X017437Y016657D01*
X017625Y016657D01*
X017625Y016340D01*
X017675Y016340D01*
X017675Y016657D01*
X017863Y016657D01*
X017895Y016648D01*
X017910Y016640D01*
X017925Y016648D01*
X017956Y016657D01*
X018125Y016657D01*
X018125Y016419D01*
X018175Y016419D01*
X018175Y016657D01*
X018344Y016657D01*
X018375Y016648D01*
X018404Y016632D01*
X018427Y016609D01*
X018433Y016598D01*
X018433Y016880D01*
X018402Y016911D01*
X018402Y016737D01*
X018358Y016693D01*
X017942Y016693D01*
X017910Y016725D01*
X017878Y016693D01*
X017422Y016693D01*
X017378Y016737D01*
X017378Y016894D01*
X017362Y016878D01*
X015125Y016878D01*
X015125Y016863D02*
X017378Y016863D01*
X017378Y016814D02*
X015125Y016814D01*
X015125Y016766D02*
X017378Y016766D01*
X017398Y016717D02*
X015125Y016717D01*
X015125Y016669D02*
X018433Y016669D01*
X018433Y016717D02*
X018382Y016717D01*
X018402Y016766D02*
X018433Y016766D01*
X018433Y016814D02*
X018402Y016814D01*
X018402Y016863D02*
X018433Y016863D01*
X018416Y016620D02*
X018433Y016620D01*
X018175Y016620D02*
X018125Y016620D01*
X018125Y016572D02*
X018175Y016572D01*
X018175Y016523D02*
X018125Y016523D01*
X018125Y016475D02*
X018175Y016475D01*
X018175Y016426D02*
X018125Y016426D01*
X018125Y016329D02*
X018175Y016329D01*
X018175Y016281D02*
X018125Y016281D01*
X018125Y016232D02*
X018175Y016232D01*
X018175Y016184D02*
X018125Y016184D01*
X018125Y016135D02*
X018175Y016135D01*
X018357Y016135D02*
X018433Y016135D01*
X018433Y016087D02*
X017972Y016087D01*
X017956Y016038D02*
X018433Y016038D01*
X018433Y015990D02*
X017908Y015990D01*
X017675Y015990D02*
X017625Y015990D01*
X017625Y016038D02*
X017675Y016038D01*
X017675Y016087D02*
X017625Y016087D01*
X017625Y016135D02*
X017675Y016135D01*
X017675Y016184D02*
X017625Y016184D01*
X017625Y016232D02*
X017675Y016232D01*
X017675Y016281D02*
X017625Y016281D01*
X017625Y016329D02*
X015125Y016329D01*
X015125Y016281D02*
X017328Y016281D01*
X017328Y016232D02*
X015125Y016232D01*
X015125Y016184D02*
X017328Y016184D01*
X017328Y016135D02*
X015125Y016135D01*
X015125Y016087D02*
X017328Y016087D01*
X017344Y016038D02*
X015125Y016038D01*
X015125Y015990D02*
X017392Y015990D01*
X017328Y016378D02*
X015125Y016378D01*
X015125Y016426D02*
X017328Y016426D01*
X017328Y016475D02*
X015125Y016475D01*
X015125Y016523D02*
X017328Y016523D01*
X017334Y016572D02*
X015125Y016572D01*
X015125Y016620D02*
X017364Y016620D01*
X017625Y016620D02*
X017675Y016620D01*
X017675Y016572D02*
X017625Y016572D01*
X017625Y016523D02*
X017675Y016523D01*
X017675Y016475D02*
X017625Y016475D01*
X017625Y016426D02*
X017675Y016426D01*
X017675Y016378D02*
X017625Y016378D01*
X017902Y016717D02*
X017918Y016717D01*
X017661Y017299D02*
X017406Y017299D01*
X017406Y017348D02*
X017638Y017348D01*
X017638Y017396D02*
X017388Y017396D01*
X017293Y017445D02*
X017638Y017445D01*
X017638Y017493D02*
X017341Y017493D01*
X017390Y017542D02*
X017638Y017542D01*
X017638Y017590D02*
X017439Y017590D01*
X017487Y017639D02*
X017638Y017639D01*
X017638Y017687D02*
X017536Y017687D01*
X017584Y017736D02*
X017638Y017736D01*
X017605Y017784D02*
X018617Y017784D01*
X018628Y017773D02*
X018628Y017528D01*
X018672Y017484D01*
X019128Y017484D01*
X019172Y017528D01*
X019172Y017984D01*
X019128Y018028D01*
X018672Y018028D01*
X018671Y018027D01*
X018600Y018098D01*
X018600Y018233D01*
X018483Y018350D01*
X018317Y018350D01*
X018200Y018233D01*
X018200Y018067D01*
X018317Y017950D01*
X018452Y017950D01*
X018628Y017773D01*
X018628Y017736D02*
X018162Y017736D01*
X018162Y017687D02*
X018628Y017687D01*
X018628Y017639D02*
X018162Y017639D01*
X018162Y017590D02*
X018628Y017590D01*
X018628Y017542D02*
X018210Y017542D01*
X018258Y017493D02*
X018664Y017493D01*
X018433Y017348D02*
X018404Y017348D01*
X018355Y017396D02*
X020245Y017396D01*
X020245Y017394D02*
X020013Y017394D01*
X019969Y017350D01*
X019969Y017205D01*
X019778Y017205D01*
X019733Y017250D01*
X019567Y017250D01*
X019450Y017133D01*
X019450Y016967D01*
X019567Y016850D01*
X019733Y016850D01*
X019778Y016895D01*
X019954Y016895D01*
X019969Y016880D01*
X019969Y015950D01*
X020013Y015906D01*
X020823Y015906D01*
X020867Y015950D01*
X020867Y017350D01*
X020823Y017394D01*
X020555Y017394D01*
X020555Y017524D01*
X020628Y017524D01*
X020672Y017568D01*
X020672Y018063D01*
X020628Y018107D01*
X020172Y018107D01*
X020128Y018063D01*
X020128Y017568D01*
X020172Y017524D01*
X020245Y017524D01*
X020245Y017394D01*
X020245Y017445D02*
X018307Y017445D01*
X018569Y017833D02*
X017605Y017833D01*
X017605Y017881D02*
X018520Y017881D01*
X018472Y017930D02*
X017605Y017930D01*
X017605Y017978D02*
X018289Y017978D01*
X018241Y018027D02*
X017605Y018027D01*
X017605Y018075D02*
X018200Y018075D01*
X018200Y018124D02*
X017605Y018124D01*
X017605Y018172D02*
X018200Y018172D01*
X018200Y018221D02*
X017605Y018221D01*
X017605Y018269D02*
X018236Y018269D01*
X018285Y018318D02*
X017605Y018318D01*
X017605Y018366D02*
X018578Y018366D01*
X018578Y018330D02*
X018587Y018299D01*
X018603Y018270D01*
X018626Y018247D01*
X018655Y018230D01*
X018687Y018222D01*
X018875Y018222D01*
X018875Y018519D01*
X018578Y018519D01*
X018578Y018330D01*
X018582Y018318D02*
X018515Y018318D01*
X018564Y018269D02*
X018604Y018269D01*
X018600Y018221D02*
X019700Y018221D01*
X019700Y018222D02*
X019700Y018098D01*
X019630Y018028D01*
X019422Y018028D01*
X019378Y017984D01*
X019378Y017528D01*
X019422Y017484D01*
X019878Y017484D01*
X019922Y017528D01*
X019922Y017950D01*
X019983Y017950D01*
X020100Y018067D01*
X020100Y018197D01*
X020103Y018191D01*
X020126Y018168D01*
X020155Y018152D01*
X020187Y018143D01*
X020375Y018143D01*
X020375Y018460D01*
X020078Y018460D01*
X020078Y018255D01*
X019983Y018350D01*
X019972Y018350D01*
X019972Y018519D01*
X019675Y018519D01*
X019675Y018569D01*
X019972Y018569D01*
X019972Y018757D01*
X019963Y018789D01*
X019960Y018795D01*
X020120Y018795D01*
X020103Y018778D01*
X020087Y018749D01*
X020078Y018718D01*
X020078Y018510D01*
X020375Y018510D01*
X020375Y018460D01*
X020425Y018460D01*
X020425Y018510D01*
X020722Y018510D01*
X020722Y018680D01*
X020795Y018607D01*
X020857Y018545D01*
X021472Y018545D01*
X021567Y018450D01*
X021733Y018450D01*
X021850Y018567D01*
X021850Y018733D01*
X021733Y018850D01*
X021567Y018850D01*
X021472Y018755D01*
X020943Y018755D01*
X020693Y019005D01*
X020680Y019005D01*
X020697Y019022D01*
X020713Y019051D01*
X020722Y019082D01*
X020722Y019290D01*
X020425Y019290D01*
X020425Y019340D01*
X020722Y019340D01*
X020722Y019548D01*
X020713Y019580D01*
X020697Y019609D01*
X020674Y019632D01*
X020645Y019648D01*
X020613Y019657D01*
X020425Y019657D01*
X020425Y019340D01*
X020375Y019340D01*
X020375Y019290D01*
X020078Y019290D01*
X020078Y019082D01*
X020087Y019051D01*
X020103Y019022D01*
X020120Y019005D01*
X019930Y019005D01*
X019947Y019022D01*
X019963Y019051D01*
X019972Y019082D01*
X019972Y019290D01*
X019675Y019290D01*
X019675Y019340D01*
X019972Y019340D01*
X019972Y019548D01*
X019963Y019580D01*
X019947Y019609D01*
X019924Y019632D01*
X019895Y019648D01*
X019863Y019657D01*
X019675Y019657D01*
X019675Y019340D01*
X019625Y019340D01*
X019625Y019290D01*
X019328Y019290D01*
X019328Y019082D01*
X019337Y019051D01*
X019353Y019022D01*
X019370Y019005D01*
X018578Y019005D01*
X018483Y019100D01*
X018317Y019100D01*
X018200Y018983D01*
X018200Y018817D01*
X018317Y018700D01*
X018483Y018700D01*
X018578Y018795D01*
X018590Y018795D01*
X018587Y018789D01*
X018578Y018757D01*
X018578Y018569D01*
X018875Y018569D01*
X018875Y018519D01*
X018925Y018519D01*
X018925Y018569D01*
X019222Y018569D01*
X019222Y018757D01*
X019213Y018789D01*
X019210Y018795D01*
X019340Y018795D01*
X019337Y018789D01*
X019328Y018757D01*
X019328Y018569D01*
X019625Y018569D01*
X019625Y018519D01*
X019328Y018519D01*
X019328Y018330D01*
X019337Y018299D01*
X019353Y018270D01*
X019376Y018247D01*
X019405Y018230D01*
X019437Y018222D01*
X019625Y018222D01*
X019625Y018519D01*
X019675Y018519D01*
X019675Y018222D01*
X019700Y018222D01*
X019700Y018172D02*
X018600Y018172D01*
X018600Y018124D02*
X019700Y018124D01*
X019677Y018075D02*
X018623Y018075D01*
X018875Y018269D02*
X018925Y018269D01*
X018925Y018222D02*
X019113Y018222D01*
X019145Y018230D01*
X019174Y018247D01*
X019197Y018270D01*
X019213Y018299D01*
X019222Y018330D01*
X019222Y018519D01*
X018925Y018519D01*
X018925Y018222D01*
X018925Y018318D02*
X018875Y018318D01*
X018875Y018366D02*
X018925Y018366D01*
X018925Y018415D02*
X018875Y018415D01*
X018875Y018463D02*
X018925Y018463D01*
X018925Y018512D02*
X018875Y018512D01*
X018875Y018560D02*
X018160Y018560D01*
X018162Y018609D02*
X018578Y018609D01*
X018578Y018657D02*
X018162Y018657D01*
X018162Y018706D02*
X018312Y018706D01*
X018263Y018754D02*
X018162Y018754D01*
X018162Y018803D02*
X018215Y018803D01*
X018200Y018851D02*
X018162Y018851D01*
X018162Y018900D02*
X018200Y018900D01*
X018200Y018948D02*
X018162Y018948D01*
X018144Y018997D02*
X018214Y018997D01*
X018262Y019045D02*
X018055Y019045D01*
X018063Y019094D02*
X018311Y019094D01*
X018208Y019239D02*
X019328Y019239D01*
X019328Y019191D02*
X018160Y019191D01*
X018111Y019142D02*
X019328Y019142D01*
X019328Y019094D02*
X018489Y019094D01*
X018538Y019045D02*
X019340Y019045D01*
X019328Y019288D02*
X018257Y019288D01*
X018305Y019336D02*
X019625Y019336D01*
X019625Y019340D02*
X019328Y019340D01*
X019328Y019548D01*
X019337Y019580D01*
X019353Y019609D01*
X019376Y019632D01*
X019405Y019648D01*
X019437Y019657D01*
X019625Y019657D01*
X019625Y019340D01*
X019625Y019385D02*
X019675Y019385D01*
X019675Y019433D02*
X019625Y019433D01*
X019625Y019482D02*
X019675Y019482D01*
X019675Y019530D02*
X019625Y019530D01*
X019625Y019579D02*
X019675Y019579D01*
X019675Y019627D02*
X019625Y019627D01*
X019391Y019724D02*
X018693Y019724D01*
X018645Y019676D02*
X021200Y019676D01*
X021200Y019724D02*
X020659Y019724D01*
X020672Y019773D02*
X021240Y019773D01*
X021288Y019821D02*
X020672Y019821D01*
X020678Y019627D02*
X021200Y019627D01*
X021200Y019579D02*
X020714Y019579D01*
X020722Y019530D02*
X021237Y019530D01*
X021286Y019482D02*
X020722Y019482D01*
X020722Y019433D02*
X021468Y019433D01*
X021765Y019433D02*
X023175Y019433D01*
X023175Y019482D02*
X022514Y019482D01*
X022563Y019530D02*
X023175Y019530D01*
X023175Y019579D02*
X022600Y019579D01*
X022600Y019627D02*
X023175Y019627D01*
X023175Y019676D02*
X022600Y019676D01*
X022600Y019724D02*
X023175Y019724D01*
X023175Y019773D02*
X022560Y019773D01*
X022512Y019821D02*
X023175Y019821D01*
X023175Y018851D02*
X020847Y018851D01*
X020799Y018900D02*
X020916Y018900D01*
X020894Y018948D02*
X020750Y018948D01*
X020702Y018997D02*
X020894Y018997D01*
X020894Y019045D02*
X020710Y019045D01*
X020722Y019094D02*
X020894Y019094D01*
X020894Y019142D02*
X020722Y019142D01*
X020722Y019191D02*
X020894Y019191D01*
X020894Y019239D02*
X020722Y019239D01*
X020722Y019288D02*
X020894Y019288D01*
X020894Y019336D02*
X020425Y019336D01*
X020425Y019385D02*
X020375Y019385D01*
X020375Y019340D02*
X020375Y019657D01*
X020187Y019657D01*
X020155Y019648D01*
X020126Y019632D01*
X020103Y019609D01*
X020087Y019580D01*
X020078Y019548D01*
X020078Y019340D01*
X020375Y019340D01*
X020375Y019336D02*
X019675Y019336D01*
X019972Y019288D02*
X020078Y019288D01*
X020078Y019239D02*
X019972Y019239D01*
X019972Y019191D02*
X020078Y019191D01*
X020078Y019142D02*
X019972Y019142D01*
X019972Y019094D02*
X020078Y019094D01*
X020090Y019045D02*
X019960Y019045D01*
X019972Y018754D02*
X020089Y018754D01*
X020078Y018706D02*
X019972Y018706D01*
X019972Y018657D02*
X020078Y018657D01*
X020078Y018609D02*
X019972Y018609D01*
X019972Y018512D02*
X020078Y018512D01*
X020078Y018560D02*
X019675Y018560D01*
X019675Y018512D02*
X019625Y018512D01*
X019625Y018560D02*
X018925Y018560D01*
X019222Y018512D02*
X019328Y018512D01*
X019328Y018463D02*
X019222Y018463D01*
X019222Y018415D02*
X019328Y018415D01*
X019328Y018366D02*
X019222Y018366D01*
X019218Y018318D02*
X019332Y018318D01*
X019354Y018269D02*
X019196Y018269D01*
X019130Y018027D02*
X019420Y018027D01*
X019378Y017978D02*
X019172Y017978D01*
X019172Y017930D02*
X019378Y017930D01*
X019378Y017881D02*
X019172Y017881D01*
X019172Y017833D02*
X019378Y017833D01*
X019378Y017784D02*
X019172Y017784D01*
X019172Y017736D02*
X019378Y017736D01*
X019378Y017687D02*
X019172Y017687D01*
X019172Y017639D02*
X019378Y017639D01*
X019378Y017590D02*
X019172Y017590D01*
X019172Y017542D02*
X019378Y017542D01*
X019414Y017493D02*
X019136Y017493D01*
X019331Y017348D02*
X019969Y017348D01*
X019969Y017299D02*
X019331Y017299D01*
X019331Y017251D02*
X019969Y017251D01*
X019886Y017493D02*
X020245Y017493D01*
X020154Y017542D02*
X019922Y017542D01*
X019922Y017590D02*
X020128Y017590D01*
X020128Y017639D02*
X019922Y017639D01*
X019922Y017687D02*
X020128Y017687D01*
X020128Y017736D02*
X019922Y017736D01*
X019922Y017784D02*
X020128Y017784D01*
X020128Y017833D02*
X019922Y017833D01*
X019922Y017881D02*
X020128Y017881D01*
X020128Y017930D02*
X019922Y017930D01*
X020011Y017978D02*
X020128Y017978D01*
X020128Y018027D02*
X020059Y018027D01*
X020100Y018075D02*
X020140Y018075D01*
X020100Y018124D02*
X020894Y018124D01*
X020894Y018172D02*
X020678Y018172D01*
X020674Y018168D02*
X020697Y018191D01*
X020713Y018220D01*
X020722Y018252D01*
X020722Y018460D01*
X020425Y018460D01*
X020425Y018143D01*
X020613Y018143D01*
X020645Y018152D01*
X020674Y018168D01*
X020714Y018221D02*
X020894Y018221D01*
X020894Y018269D02*
X020722Y018269D01*
X020722Y018318D02*
X020894Y018318D01*
X020894Y018366D02*
X020722Y018366D01*
X020722Y018415D02*
X020930Y018415D01*
X020841Y018560D02*
X020722Y018560D01*
X020722Y018512D02*
X021506Y018512D01*
X021554Y018463D02*
X020425Y018463D01*
X020425Y018415D02*
X020375Y018415D01*
X020375Y018463D02*
X019972Y018463D01*
X019972Y018415D02*
X020078Y018415D01*
X020078Y018366D02*
X019972Y018366D01*
X020015Y018318D02*
X020078Y018318D01*
X020078Y018269D02*
X020064Y018269D01*
X020100Y018172D02*
X020122Y018172D01*
X020375Y018172D02*
X020425Y018172D01*
X020425Y018221D02*
X020375Y018221D01*
X020375Y018269D02*
X020425Y018269D01*
X020425Y018318D02*
X020375Y018318D01*
X020375Y018366D02*
X020425Y018366D01*
X020660Y018075D02*
X020894Y018075D01*
X020894Y018027D02*
X020672Y018027D01*
X020672Y017978D02*
X020894Y017978D01*
X020894Y017930D02*
X020672Y017930D01*
X020672Y017881D02*
X020935Y017881D01*
X020672Y017833D02*
X021550Y017833D01*
X021501Y017784D02*
X020672Y017784D01*
X020672Y017736D02*
X021453Y017736D01*
X021450Y017687D02*
X020672Y017687D01*
X020672Y017639D02*
X021450Y017639D01*
X021450Y017590D02*
X020672Y017590D01*
X020646Y017542D02*
X021476Y017542D01*
X021524Y017493D02*
X020555Y017493D01*
X020555Y017445D02*
X021707Y017445D01*
X021858Y017590D02*
X023175Y017590D01*
X023175Y017542D02*
X021907Y017542D01*
X021955Y017493D02*
X023175Y017493D01*
X023175Y017445D02*
X022004Y017445D01*
X021850Y017639D02*
X023175Y017639D01*
X023175Y017687D02*
X021850Y017687D01*
X021847Y017736D02*
X023175Y017736D01*
X023175Y017784D02*
X021799Y017784D01*
X021750Y017833D02*
X023175Y017833D01*
X023175Y016863D02*
X020867Y016863D01*
X020867Y016911D02*
X020905Y016911D01*
X020894Y016960D02*
X020867Y016960D01*
X020867Y017008D02*
X020894Y017008D01*
X020894Y017057D02*
X020867Y017057D01*
X020867Y017105D02*
X020894Y017105D01*
X020894Y017154D02*
X020867Y017154D01*
X020867Y017202D02*
X020894Y017202D01*
X020894Y017251D02*
X020867Y017251D01*
X020867Y017299D02*
X020894Y017299D01*
X020894Y017348D02*
X020867Y017348D01*
X020912Y017396D02*
X020555Y017396D01*
X019969Y016863D02*
X019745Y016863D01*
X019555Y016863D02*
X019331Y016863D01*
X019331Y016911D02*
X019506Y016911D01*
X019458Y016960D02*
X019331Y016960D01*
X019331Y017008D02*
X019450Y017008D01*
X019450Y017057D02*
X019331Y017057D01*
X019331Y017105D02*
X019450Y017105D01*
X019471Y017154D02*
X019331Y017154D01*
X019331Y017202D02*
X019519Y017202D01*
X019331Y016814D02*
X019969Y016814D01*
X019969Y016766D02*
X019331Y016766D01*
X019331Y016717D02*
X019969Y016717D01*
X019969Y016669D02*
X019331Y016669D01*
X019331Y016620D02*
X019969Y016620D01*
X019969Y016572D02*
X019331Y016572D01*
X019331Y016523D02*
X019969Y016523D01*
X019969Y016475D02*
X019331Y016475D01*
X019331Y016426D02*
X019969Y016426D01*
X019969Y016378D02*
X019331Y016378D01*
X019331Y016329D02*
X019969Y016329D01*
X019969Y016281D02*
X019331Y016281D01*
X019331Y016232D02*
X019969Y016232D01*
X019969Y016184D02*
X019331Y016184D01*
X019331Y016135D02*
X019969Y016135D01*
X019969Y016087D02*
X019331Y016087D01*
X019331Y016038D02*
X019969Y016038D01*
X019969Y015990D02*
X019331Y015990D01*
X019323Y015941D02*
X019977Y015941D01*
X020858Y015941D02*
X023175Y015941D01*
X023175Y015893D02*
X015125Y015893D01*
X015125Y015941D02*
X018442Y015941D01*
X018429Y016184D02*
X018433Y016184D01*
X018578Y018415D02*
X017605Y018415D01*
X017605Y018463D02*
X018578Y018463D01*
X018578Y018512D02*
X017605Y018512D01*
X017605Y018560D02*
X017640Y018560D01*
X017638Y018609D02*
X017605Y018609D01*
X017605Y018657D02*
X017638Y018657D01*
X017638Y018706D02*
X017605Y018706D01*
X017605Y018754D02*
X017638Y018754D01*
X017638Y018803D02*
X017605Y018803D01*
X017605Y018851D02*
X017638Y018851D01*
X017638Y018900D02*
X017605Y018900D01*
X017605Y018948D02*
X017638Y018948D01*
X017656Y018997D02*
X017605Y018997D01*
X017605Y019045D02*
X017745Y019045D01*
X017745Y019094D02*
X017642Y019094D01*
X017691Y019142D02*
X017745Y019142D01*
X017739Y019191D02*
X017745Y019191D01*
X018055Y019530D02*
X018061Y019530D01*
X018055Y019579D02*
X018109Y019579D01*
X018158Y019627D02*
X018055Y019627D01*
X018055Y019676D02*
X018206Y019676D01*
X018255Y019724D02*
X018055Y019724D01*
X018055Y019773D02*
X018303Y019773D01*
X018352Y019821D02*
X018055Y019821D01*
X018055Y019870D02*
X018400Y019870D01*
X018449Y019918D02*
X018055Y019918D01*
X018055Y019967D02*
X018497Y019967D01*
X018546Y020015D02*
X018055Y020015D01*
X018055Y020064D02*
X018594Y020064D01*
X018643Y020112D02*
X018055Y020112D01*
X018055Y020161D02*
X019378Y020161D01*
X019378Y020209D02*
X018742Y020209D01*
X018790Y020258D02*
X019403Y020258D01*
X019378Y019821D02*
X018790Y019821D01*
X018742Y019773D02*
X019378Y019773D01*
X019372Y019627D02*
X018596Y019627D01*
X018548Y019579D02*
X019336Y019579D01*
X019328Y019530D02*
X018499Y019530D01*
X018451Y019482D02*
X019328Y019482D01*
X019328Y019433D02*
X018402Y019433D01*
X018354Y019385D02*
X019328Y019385D01*
X019328Y018754D02*
X019222Y018754D01*
X019222Y018706D02*
X019328Y018706D01*
X019328Y018657D02*
X019222Y018657D01*
X019222Y018609D02*
X019328Y018609D01*
X019625Y018463D02*
X019675Y018463D01*
X019675Y018415D02*
X019625Y018415D01*
X019625Y018366D02*
X019675Y018366D01*
X019675Y018318D02*
X019625Y018318D01*
X019625Y018269D02*
X019675Y018269D01*
X019972Y019385D02*
X020078Y019385D01*
X020078Y019433D02*
X019972Y019433D01*
X019972Y019482D02*
X020078Y019482D01*
X020078Y019530D02*
X019972Y019530D01*
X019964Y019579D02*
X020086Y019579D01*
X020122Y019627D02*
X019928Y019627D01*
X019909Y019724D02*
X020141Y019724D01*
X020128Y019773D02*
X019922Y019773D01*
X019922Y019821D02*
X020128Y019821D01*
X020375Y019627D02*
X020425Y019627D01*
X020425Y019579D02*
X020375Y019579D01*
X020375Y019530D02*
X020425Y019530D01*
X020425Y019482D02*
X020375Y019482D01*
X020375Y019433D02*
X020425Y019433D01*
X020722Y019385D02*
X020901Y019385D01*
X020896Y018803D02*
X021520Y018803D01*
X021780Y018803D02*
X022020Y018803D01*
X021971Y018754D02*
X021829Y018754D01*
X021850Y018706D02*
X021950Y018706D01*
X021950Y018657D02*
X021850Y018657D01*
X021850Y018609D02*
X021950Y018609D01*
X021957Y018560D02*
X021843Y018560D01*
X021794Y018512D02*
X021995Y018512D01*
X021995Y018463D02*
X021746Y018463D01*
X022305Y018463D02*
X023175Y018463D01*
X023175Y018512D02*
X022305Y018512D01*
X022343Y018560D02*
X023175Y018560D01*
X023175Y018609D02*
X022350Y018609D01*
X022350Y018657D02*
X023175Y018657D01*
X023175Y018706D02*
X022350Y018706D01*
X022329Y018754D02*
X023175Y018754D01*
X023175Y018803D02*
X022280Y018803D01*
X022270Y020597D02*
X021850Y020597D01*
X021850Y020646D02*
X022222Y020646D01*
X022200Y020694D02*
X021850Y020694D01*
X021840Y020743D02*
X022200Y020743D01*
X022200Y020791D02*
X021792Y020791D01*
X021743Y020840D02*
X022207Y020840D01*
X021557Y020840D02*
X020930Y020840D01*
X020928Y020888D02*
X020885Y020888D01*
X020885Y020937D02*
X020894Y020937D01*
X020885Y020985D02*
X020894Y020985D01*
X020894Y021034D02*
X020863Y021034D01*
X020894Y021082D02*
X018755Y021082D01*
X018755Y021034D02*
X019877Y021034D01*
X019855Y020985D02*
X018755Y020985D01*
X018755Y020937D02*
X019855Y020937D01*
X019855Y020888D02*
X018755Y020888D01*
X018755Y020840D02*
X019855Y020840D01*
X019855Y020791D02*
X018755Y020791D01*
X018755Y020743D02*
X019855Y020743D01*
X019855Y020694D02*
X018755Y020694D01*
X018755Y020646D02*
X019855Y020646D01*
X019855Y020597D02*
X018755Y020597D01*
X018784Y020549D02*
X019855Y020549D01*
X019855Y020500D02*
X018833Y020500D01*
X018850Y020452D02*
X019873Y020452D01*
X019897Y020258D02*
X020153Y020258D01*
X020128Y020209D02*
X019922Y020209D01*
X019922Y020161D02*
X020128Y020161D01*
X020245Y020306D02*
X018839Y020306D01*
X018850Y020355D02*
X020245Y020355D01*
X020245Y020403D02*
X018850Y020403D01*
X018558Y020209D02*
X018058Y020209D01*
X018106Y020258D02*
X018510Y020258D01*
X018461Y020306D02*
X018155Y020306D01*
X018203Y020355D02*
X018450Y020355D01*
X018450Y020403D02*
X018252Y020403D01*
X018300Y020452D02*
X018450Y020452D01*
X018467Y020500D02*
X018349Y020500D01*
X018397Y020549D02*
X018516Y020549D01*
X018545Y020597D02*
X018446Y020597D01*
X018494Y020646D02*
X018545Y020646D01*
X018543Y020694D02*
X018545Y020694D01*
X018755Y021131D02*
X020894Y021131D01*
X020894Y021179D02*
X018755Y021179D01*
X018755Y021228D02*
X020894Y021228D01*
X020894Y021276D02*
X018755Y021276D01*
X018755Y021325D02*
X020894Y021325D01*
X020894Y021373D02*
X020879Y021373D01*
X020885Y021379D02*
X020885Y021495D01*
X021022Y021495D01*
X021067Y021450D01*
X021233Y021450D01*
X021350Y021567D01*
X023175Y021567D01*
X023175Y021519D02*
X021301Y021519D01*
X021253Y021470D02*
X023175Y021470D01*
X023175Y021616D02*
X021350Y021616D01*
X021350Y021664D02*
X023175Y021664D01*
X023175Y021713D02*
X021350Y021713D01*
X021350Y021733D02*
X021350Y021567D01*
X021350Y021733D02*
X021233Y021850D01*
X021067Y021850D01*
X021022Y021805D01*
X020885Y021805D01*
X020885Y021921D01*
X020841Y021965D01*
X019899Y021965D01*
X019855Y021921D01*
X019855Y021379D01*
X019899Y021335D01*
X020841Y021335D01*
X020885Y021379D01*
X020885Y021422D02*
X020938Y021422D01*
X020885Y021470D02*
X021047Y021470D01*
X021027Y021810D02*
X020885Y021810D01*
X020885Y021858D02*
X023175Y021858D01*
X023175Y021810D02*
X021273Y021810D01*
X021322Y021761D02*
X023175Y021761D01*
X022792Y022440D02*
X020935Y022440D01*
X020935Y022489D02*
X022840Y022489D01*
X022830Y022537D02*
X020395Y022537D01*
X020395Y022585D02*
X020935Y022585D01*
X020935Y022816D01*
X020927Y022848D01*
X020910Y022877D01*
X020887Y022900D01*
X020858Y022916D01*
X020826Y022925D01*
X020395Y022925D01*
X020395Y022585D01*
X020395Y022586D02*
X020345Y022586D01*
X020345Y022634D02*
X020395Y022634D01*
X020395Y022683D02*
X020345Y022683D01*
X020345Y022731D02*
X020395Y022731D01*
X020395Y022780D02*
X020345Y022780D01*
X020345Y022828D02*
X020395Y022828D01*
X020395Y022877D02*
X020345Y022877D01*
X020272Y023168D02*
X020894Y023168D01*
X020894Y023216D02*
X020276Y023216D01*
X020276Y023265D02*
X020894Y023265D01*
X020894Y023313D02*
X020276Y023313D01*
X020276Y023362D02*
X020356Y023362D01*
X020307Y023410D02*
X020276Y023410D01*
X020257Y023653D02*
X020270Y023653D01*
X020276Y023701D02*
X020318Y023701D01*
X020276Y023750D02*
X020367Y023750D01*
X020276Y023798D02*
X022800Y023798D01*
X022800Y023750D02*
X020533Y023750D01*
X020582Y023701D02*
X022800Y023701D01*
X022815Y023653D02*
X020630Y023653D01*
X020650Y023604D02*
X022863Y023604D01*
X022912Y023556D02*
X020650Y023556D01*
X020650Y023507D02*
X023175Y023507D01*
X023175Y023459D02*
X020641Y023459D01*
X020593Y023410D02*
X020926Y023410D01*
X020894Y023362D02*
X020544Y023362D01*
X020894Y023119D02*
X019779Y023119D01*
X019805Y023071D02*
X020894Y023071D01*
X020894Y023022D02*
X019805Y023022D01*
X019805Y022974D02*
X020894Y022974D01*
X020894Y022925D02*
X019805Y022925D01*
X019805Y022877D02*
X019830Y022877D01*
X019808Y022828D02*
X019805Y022828D01*
X019805Y022780D02*
X019805Y022780D01*
X019805Y022731D02*
X019805Y022731D01*
X019805Y022683D02*
X019805Y022683D01*
X019805Y022634D02*
X019805Y022634D01*
X019805Y022586D02*
X019784Y022586D01*
X019736Y022537D02*
X020345Y022537D01*
X020345Y022489D02*
X020395Y022489D01*
X020395Y022440D02*
X020345Y022440D01*
X020345Y022392D02*
X020395Y022392D01*
X020395Y022343D02*
X020345Y022343D01*
X020345Y022295D02*
X020395Y022295D01*
X020395Y022246D02*
X020345Y022246D01*
X020345Y022198D02*
X020395Y022198D01*
X020836Y022198D02*
X020894Y022198D01*
X020894Y022149D02*
X018755Y022149D01*
X018755Y022101D02*
X020894Y022101D01*
X020894Y022052D02*
X018755Y022052D01*
X018755Y022004D02*
X020894Y022004D01*
X020894Y021955D02*
X020851Y021955D01*
X020885Y021907D02*
X020909Y021907D01*
X020935Y022586D02*
X021582Y022586D01*
X021533Y022634D02*
X020935Y022634D01*
X020935Y022683D02*
X021500Y022683D01*
X021500Y022731D02*
X020935Y022731D01*
X020935Y022780D02*
X021500Y022780D01*
X021500Y022828D02*
X020932Y022828D01*
X020910Y022877D02*
X021544Y022877D01*
X021908Y022828D02*
X022895Y022828D01*
X022847Y022780D02*
X021900Y022780D01*
X021900Y022731D02*
X022800Y022731D01*
X022800Y022683D02*
X021900Y022683D01*
X021867Y022634D02*
X022800Y022634D01*
X022800Y022586D02*
X021818Y022586D01*
X021950Y022877D02*
X023175Y022877D01*
X023175Y022828D02*
X023105Y022828D01*
X023153Y022780D02*
X023175Y022780D01*
X023175Y023556D02*
X023088Y023556D01*
X023137Y023604D02*
X023175Y023604D01*
X022814Y023847D02*
X020276Y023847D01*
X020276Y023895D02*
X020622Y023895D01*
X020574Y023944D02*
X020276Y023944D01*
X020276Y023992D02*
X020550Y023992D01*
X020550Y024041D02*
X020276Y024041D01*
X020276Y024089D02*
X020550Y024089D01*
X020555Y024138D02*
X020267Y024138D01*
X020276Y024186D02*
X020603Y024186D01*
X020483Y024235D02*
X020276Y024235D01*
X020276Y024925D02*
X020276Y025128D01*
X020232Y025172D01*
X020110Y025172D01*
X020110Y025408D01*
X020185Y025483D01*
X020185Y025648D01*
X020088Y025745D01*
X020543Y025745D01*
X020600Y025802D01*
X020600Y025717D01*
X020717Y025600D01*
X020883Y025600D01*
X021000Y025717D01*
X021000Y025852D01*
X021027Y025878D01*
X021995Y025878D01*
X021950Y025833D01*
X021950Y025667D01*
X022067Y025550D01*
X022233Y025550D01*
X022350Y025667D01*
X022350Y025833D01*
X022305Y025878D01*
X023175Y025878D01*
X023175Y025808D01*
X023133Y025850D01*
X022967Y025850D01*
X022850Y025733D01*
X022850Y025567D01*
X022967Y025450D01*
X023133Y025450D01*
X023175Y025492D01*
X023175Y025422D01*
X020938Y025422D01*
X020894Y025378D01*
X020894Y025105D01*
X020893Y025105D01*
X020850Y025148D01*
X020850Y025233D01*
X020733Y025350D01*
X020567Y025350D01*
X020450Y025233D01*
X020450Y025067D01*
X020517Y025000D01*
X020442Y024925D01*
X020276Y024925D01*
X020276Y024962D02*
X020479Y024962D01*
X020517Y025000D02*
X020517Y025000D01*
X020507Y025011D02*
X020276Y025011D01*
X020276Y025059D02*
X020458Y025059D01*
X020450Y025108D02*
X020276Y025108D01*
X020248Y025156D02*
X020450Y025156D01*
X020450Y025205D02*
X020110Y025205D01*
X020110Y025253D02*
X020470Y025253D01*
X020519Y025302D02*
X020110Y025302D01*
X020110Y025350D02*
X020894Y025350D01*
X020894Y025302D02*
X020781Y025302D01*
X020830Y025253D02*
X020894Y025253D01*
X020894Y025205D02*
X020850Y025205D01*
X020850Y025156D02*
X020894Y025156D01*
X020891Y025108D02*
X020894Y025108D01*
X020955Y024878D02*
X022773Y024878D01*
X022850Y024802D01*
X022850Y024667D01*
X022967Y024550D01*
X023133Y024550D01*
X023175Y024592D01*
X023175Y024422D01*
X020955Y024422D01*
X020955Y024878D01*
X020955Y024865D02*
X022786Y024865D01*
X022835Y024817D02*
X022316Y024817D01*
X022283Y024850D02*
X022117Y024850D01*
X022050Y024783D01*
X021983Y024850D01*
X021817Y024850D01*
X021700Y024733D01*
X021700Y024567D01*
X021817Y024450D01*
X021983Y024450D01*
X022050Y024517D01*
X022117Y024450D01*
X022283Y024450D01*
X022400Y024567D01*
X022400Y024733D01*
X022283Y024850D01*
X022365Y024768D02*
X022850Y024768D01*
X022850Y024720D02*
X022400Y024720D01*
X022400Y024671D02*
X022850Y024671D01*
X022895Y024623D02*
X022400Y024623D01*
X022400Y024574D02*
X022943Y024574D01*
X023157Y024574D02*
X023175Y024574D01*
X023175Y024526D02*
X022358Y024526D01*
X022310Y024477D02*
X023175Y024477D01*
X023175Y024429D02*
X020955Y024429D01*
X020955Y024477D02*
X021790Y024477D01*
X021742Y024526D02*
X020955Y024526D01*
X020955Y024574D02*
X021700Y024574D01*
X021700Y024623D02*
X020955Y024623D01*
X020955Y024671D02*
X021700Y024671D01*
X021700Y024720D02*
X020955Y024720D01*
X020955Y024768D02*
X021735Y024768D01*
X021784Y024817D02*
X020955Y024817D01*
X020915Y025399D02*
X020110Y025399D01*
X020149Y025447D02*
X023175Y025447D01*
X022922Y025496D02*
X020185Y025496D01*
X020185Y025544D02*
X022873Y025544D01*
X022850Y025593D02*
X022275Y025593D01*
X022324Y025641D02*
X022850Y025641D01*
X022850Y025690D02*
X022350Y025690D01*
X022350Y025738D02*
X022855Y025738D01*
X022904Y025787D02*
X022350Y025787D01*
X022348Y025835D02*
X022952Y025835D01*
X023148Y025835D02*
X023175Y025835D01*
X022025Y025593D02*
X020185Y025593D01*
X020185Y025641D02*
X020676Y025641D01*
X020628Y025690D02*
X020143Y025690D01*
X020095Y025738D02*
X020600Y025738D01*
X020600Y025787D02*
X020585Y025787D01*
X020457Y025955D02*
X019757Y025955D01*
X019695Y025893D01*
X019545Y025743D01*
X019545Y025688D01*
X019525Y025708D01*
X019525Y026042D01*
X019567Y026000D01*
X019733Y026000D01*
X019850Y026117D01*
X019850Y026200D01*
X019950Y026200D01*
X019950Y026117D01*
X020067Y026000D01*
X020233Y026000D01*
X020350Y026117D01*
X020350Y026200D01*
X020483Y026200D01*
X020600Y026317D01*
X020600Y026483D01*
X020483Y026600D01*
X020317Y026600D01*
X020255Y026538D01*
X020255Y026693D01*
X020193Y026755D01*
X020105Y026843D01*
X020105Y029843D01*
X020043Y029905D01*
X020005Y029943D01*
X020005Y031722D01*
X020100Y031817D01*
X020100Y031983D01*
X019983Y032100D01*
X019817Y032100D01*
X019700Y031983D01*
X019700Y031817D01*
X019795Y031722D01*
X019795Y030788D01*
X019733Y030850D01*
X019567Y030850D01*
X019450Y030733D01*
X019450Y030567D01*
X019545Y030472D01*
X019545Y029903D01*
X019255Y030193D01*
X019255Y032972D01*
X019350Y033067D01*
X019350Y033233D01*
X019233Y033350D01*
X019067Y033350D01*
X018950Y033233D01*
X018950Y033067D01*
X019045Y032972D01*
X019045Y030107D01*
X019107Y030045D01*
X019545Y029607D01*
X019545Y029255D01*
X019328Y029255D01*
X019233Y029350D01*
X019067Y029350D01*
X019005Y029288D01*
X019005Y029357D01*
X019098Y029450D01*
X019233Y029450D01*
X019350Y029567D01*
X019350Y029733D01*
X019233Y029850D01*
X019067Y029850D01*
X018950Y029733D01*
X018950Y029598D01*
X018857Y029505D01*
X018795Y029443D01*
X018795Y028988D01*
X018755Y029028D01*
X018755Y031972D01*
X018850Y032067D01*
X018850Y032233D01*
X018733Y032350D01*
X018567Y032350D01*
X018527Y032310D01*
X018527Y032681D01*
X018483Y032725D01*
X018432Y032725D01*
X018432Y034350D01*
X018483Y034350D01*
X018600Y034467D01*
X018600Y034633D01*
X018483Y034750D01*
X018317Y034750D01*
X018200Y034633D01*
X018200Y034467D01*
X018222Y034445D01*
X018222Y032725D01*
X018171Y032725D01*
X018150Y032704D01*
X018129Y032725D01*
X017817Y032725D01*
X017773Y032681D01*
X017773Y032560D01*
X017733Y032600D01*
X017567Y032600D01*
X017450Y032483D01*
X017450Y032317D01*
X017567Y032200D01*
X017733Y032200D01*
X017773Y032240D01*
X017773Y032119D01*
X017817Y032075D01*
X018129Y032075D01*
X018150Y032096D01*
X018171Y032075D01*
X018450Y032075D01*
X018450Y032067D01*
X018545Y031972D01*
X018545Y030788D01*
X018483Y030850D01*
X018348Y030850D01*
X018432Y030934D01*
X018432Y031075D01*
X018483Y031075D01*
X018527Y031119D01*
X018527Y031681D01*
X018483Y031725D01*
X018171Y031725D01*
X018150Y031704D01*
X018129Y031725D01*
X017817Y031725D01*
X017773Y031681D01*
X017773Y031560D01*
X017733Y031600D01*
X017567Y031600D01*
X017450Y031483D01*
X017450Y031317D01*
X017567Y031200D01*
X017733Y031200D01*
X017773Y031240D01*
X017773Y031119D01*
X017817Y031075D01*
X018129Y031075D01*
X018150Y031096D01*
X018171Y031075D01*
X018222Y031075D01*
X018222Y031021D01*
X018007Y030805D01*
X017945Y030743D01*
X017945Y028778D01*
X017905Y028738D01*
X017905Y029793D01*
X017443Y030255D01*
X017406Y030255D01*
X017406Y030378D01*
X017362Y030422D01*
X015125Y030422D01*
X015125Y030878D01*
X017023Y030878D01*
X017045Y030857D01*
X017045Y030828D01*
X016950Y030733D01*
X016950Y030567D01*
X017067Y030450D01*
X017233Y030450D01*
X017350Y030567D01*
X017350Y030733D01*
X017255Y030828D01*
X017255Y030878D01*
X017362Y030878D01*
X017406Y030922D01*
X017406Y031378D01*
X017362Y031422D01*
X015125Y031422D01*
X015125Y031878D01*
X017362Y031878D01*
X017406Y031922D01*
X017406Y031995D01*
X017450Y031952D01*
X017450Y031817D01*
X017567Y031700D01*
X017733Y031700D01*
X017850Y031817D01*
X017850Y031983D01*
X017733Y032100D01*
X017598Y032100D01*
X017443Y032255D01*
X017406Y032255D01*
X017406Y032378D01*
X017362Y032422D01*
X015527Y032422D01*
X015505Y032443D01*
X015505Y032472D01*
X015600Y032567D01*
X015600Y032733D01*
X015483Y032850D01*
X015317Y032850D01*
X015200Y032733D01*
X015200Y032567D01*
X015295Y032472D01*
X015295Y032422D01*
X015125Y032422D01*
X015125Y032878D01*
X017362Y032878D01*
X017406Y032922D01*
X017406Y033045D01*
X017472Y033045D01*
X017567Y032950D01*
X017733Y032950D01*
X017850Y033067D01*
X017850Y033233D01*
X017733Y033350D01*
X017567Y033350D01*
X017472Y033255D01*
X017406Y033255D01*
X017406Y033378D01*
X017362Y033422D01*
X015125Y033422D01*
X015125Y035925D01*
X023175Y035925D01*
X023175Y033422D01*
X023005Y033422D01*
X023005Y033472D01*
X023100Y033567D01*
X023100Y033733D01*
X022983Y033850D01*
X022817Y033850D01*
X022700Y033733D01*
X022700Y033567D01*
X022795Y033472D01*
X022795Y033443D01*
X022773Y033422D01*
X020938Y033422D01*
X020894Y033378D01*
X020894Y032922D01*
X020938Y032878D01*
X023175Y032878D01*
X023175Y032422D01*
X020938Y032422D01*
X020894Y032378D01*
X020894Y032255D01*
X020828Y032255D01*
X020733Y032350D01*
X020567Y032350D01*
X020450Y032233D01*
X020450Y032067D01*
X020567Y031950D01*
X020733Y031950D01*
X020828Y032045D01*
X020894Y032045D01*
X020894Y031922D01*
X020938Y031878D01*
X023175Y031878D01*
X023175Y031422D01*
X020938Y031422D01*
X020894Y031378D01*
X020894Y031305D01*
X020466Y031305D01*
X020433Y031272D01*
X020182Y031272D01*
X020138Y031228D01*
X020138Y030812D01*
X020182Y030768D01*
X020618Y030768D01*
X020662Y030812D01*
X020662Y030995D01*
X020894Y030995D01*
X020894Y030922D01*
X020938Y030878D01*
X023175Y030878D01*
X023175Y030472D01*
X022175Y030472D01*
X022175Y030175D01*
X022125Y030175D01*
X022125Y030472D01*
X020952Y030472D01*
X020921Y030463D01*
X020892Y030447D01*
X020869Y030424D01*
X020852Y030395D01*
X020844Y030363D01*
X020844Y030175D01*
X022125Y030175D01*
X022125Y030125D01*
X022175Y030125D01*
X022175Y029828D01*
X023175Y029828D01*
X023175Y029422D01*
X020938Y029422D01*
X020894Y029378D01*
X020894Y028922D01*
X020938Y028878D01*
X021045Y028878D01*
X021045Y028778D01*
X020950Y028683D01*
X020950Y028517D01*
X021045Y028422D01*
X020938Y028422D01*
X020894Y028378D01*
X020894Y028305D01*
X020714Y028305D01*
X020555Y028464D01*
X020555Y029528D01*
X020618Y029528D01*
X020662Y029572D01*
X020662Y029988D01*
X020618Y030032D01*
X020182Y030032D01*
X020138Y029988D01*
X020138Y029572D01*
X020182Y029528D01*
X020245Y029528D01*
X020245Y028336D01*
X020495Y028086D01*
X020586Y027995D01*
X020894Y027995D01*
X020894Y027922D01*
X020938Y027878D01*
X023175Y027878D01*
X023175Y027422D01*
X022570Y027422D01*
X022598Y027450D01*
X022733Y027450D01*
X022850Y027567D01*
X022850Y027733D01*
X022733Y027850D01*
X022567Y027850D01*
X022450Y027733D01*
X022450Y027598D01*
X022273Y027422D01*
X020938Y027422D01*
X020894Y027378D01*
X020894Y027042D01*
X020695Y026843D01*
X020695Y026193D01*
X020457Y025955D01*
X020482Y025981D02*
X019525Y025981D01*
X019525Y026029D02*
X019538Y026029D01*
X019525Y025932D02*
X019734Y025932D01*
X019685Y025884D02*
X019525Y025884D01*
X019525Y025835D02*
X019637Y025835D01*
X019588Y025787D02*
X019525Y025787D01*
X019525Y025738D02*
X019545Y025738D01*
X019543Y025690D02*
X019545Y025690D01*
X019275Y025708D02*
X019275Y025992D01*
X019233Y025950D01*
X019067Y025950D01*
X018950Y026067D01*
X018950Y026202D01*
X018795Y026357D01*
X018795Y027262D01*
X018733Y027200D01*
X018567Y027200D01*
X018475Y027292D01*
X018383Y027200D01*
X018217Y027200D01*
X018100Y027317D01*
X018100Y027483D01*
X018195Y027578D01*
X018195Y028462D01*
X018133Y028400D01*
X017967Y028400D01*
X017905Y028462D01*
X017905Y026693D01*
X017998Y026600D01*
X018133Y026600D01*
X018225Y026508D01*
X018317Y026600D01*
X018483Y026600D01*
X018600Y026483D01*
X018600Y026317D01*
X018505Y026222D01*
X018505Y025222D01*
X018710Y025222D01*
X018710Y024925D01*
X018760Y024925D01*
X019076Y024925D01*
X019290Y024925D01*
X019290Y024875D01*
X018760Y024875D01*
X018760Y024925D01*
X018760Y025222D01*
X018968Y025222D01*
X018999Y025213D01*
X019025Y025199D01*
X019051Y025213D01*
X019082Y025222D01*
X019290Y025222D01*
X019290Y024925D01*
X019340Y024925D01*
X019340Y025222D01*
X019545Y025222D01*
X019545Y025412D01*
X019483Y025350D01*
X019545Y025350D01*
X019545Y025302D02*
X018505Y025302D01*
X018505Y025350D02*
X019317Y025350D01*
X019483Y025350D01*
X019531Y025399D02*
X019545Y025399D01*
X019545Y025253D02*
X018505Y025253D01*
X018505Y025399D02*
X019269Y025399D01*
X019220Y025447D02*
X018505Y025447D01*
X018505Y025496D02*
X019200Y025496D01*
X019200Y025467D02*
X019317Y025350D01*
X019340Y025205D02*
X019290Y025205D01*
X019290Y025156D02*
X019340Y025156D01*
X019340Y025108D02*
X019290Y025108D01*
X019290Y025059D02*
X019340Y025059D01*
X019340Y025011D02*
X019290Y025011D01*
X019290Y024962D02*
X019340Y024962D01*
X019290Y024914D02*
X018760Y024914D01*
X018760Y024875D02*
X018760Y024425D01*
X019076Y024425D01*
X019290Y024425D01*
X019290Y024375D01*
X018760Y024375D01*
X018760Y024425D01*
X018710Y024425D01*
X018710Y024722D01*
X018710Y024875D01*
X018760Y024875D01*
X018760Y024865D02*
X018710Y024865D01*
X018710Y024817D02*
X018760Y024817D01*
X018760Y024768D02*
X018710Y024768D01*
X018710Y024720D02*
X018760Y024720D01*
X018760Y024671D02*
X018710Y024671D01*
X018710Y024623D02*
X018760Y024623D01*
X018760Y024574D02*
X018710Y024574D01*
X018710Y024526D02*
X018760Y024526D01*
X018760Y024477D02*
X018710Y024477D01*
X018710Y024429D02*
X018760Y024429D01*
X018760Y024380D02*
X019290Y024380D01*
X019290Y024375D02*
X019290Y024222D01*
X019290Y023925D01*
X019290Y023875D01*
X018974Y023875D01*
X018974Y023687D01*
X018982Y023655D01*
X018985Y023650D01*
X018982Y023645D01*
X018974Y023613D01*
X018974Y023425D01*
X019290Y023425D01*
X019290Y023375D01*
X018974Y023375D01*
X018974Y023200D01*
X018867Y023200D01*
X018850Y023183D01*
X018850Y023233D01*
X018733Y023350D01*
X018567Y023350D01*
X018505Y023288D01*
X018505Y024078D01*
X018710Y024078D01*
X018710Y024375D01*
X018760Y024375D01*
X018760Y024078D01*
X018968Y024078D01*
X018974Y024080D01*
X018974Y023925D01*
X019290Y023925D01*
X019340Y023925D01*
X019340Y024375D01*
X019290Y024375D01*
X019290Y024332D02*
X019340Y024332D01*
X019340Y024283D02*
X019290Y024283D01*
X019290Y024235D02*
X019340Y024235D01*
X019340Y024186D02*
X019290Y024186D01*
X019290Y024138D02*
X019340Y024138D01*
X019340Y024089D02*
X019290Y024089D01*
X019290Y024041D02*
X019340Y024041D01*
X019340Y023992D02*
X019290Y023992D01*
X019290Y023944D02*
X019340Y023944D01*
X019340Y023875D02*
X019340Y023722D01*
X019340Y023425D01*
X019290Y023425D01*
X019290Y023875D01*
X019340Y023875D01*
X019340Y023847D02*
X019290Y023847D01*
X019290Y023895D02*
X018505Y023895D01*
X018505Y023847D02*
X018974Y023847D01*
X018974Y023798D02*
X018505Y023798D01*
X018505Y023750D02*
X018974Y023750D01*
X018974Y023701D02*
X018505Y023701D01*
X018505Y023653D02*
X018984Y023653D01*
X018974Y023604D02*
X018505Y023604D01*
X018505Y023556D02*
X018974Y023556D01*
X018974Y023507D02*
X018505Y023507D01*
X018505Y023459D02*
X018974Y023459D01*
X018974Y023362D02*
X018505Y023362D01*
X018505Y023410D02*
X019290Y023410D01*
X019290Y023375D02*
X019340Y023375D01*
X019340Y023100D01*
X019317Y023100D01*
X019200Y022983D01*
X019200Y022817D01*
X019317Y022700D01*
X019483Y022700D01*
X019595Y022812D01*
X019595Y022693D01*
X019557Y022655D01*
X019093Y022655D01*
X019055Y022693D01*
X019055Y022822D01*
X019150Y022917D01*
X019150Y023078D01*
X019290Y023078D01*
X019290Y023375D01*
X019290Y023362D02*
X019340Y023362D01*
X019340Y023313D02*
X019290Y023313D01*
X019290Y023265D02*
X019340Y023265D01*
X019340Y023216D02*
X019290Y023216D01*
X019290Y023168D02*
X019340Y023168D01*
X019340Y023119D02*
X019290Y023119D01*
X019288Y023071D02*
X019150Y023071D01*
X019150Y023022D02*
X019239Y023022D01*
X019200Y022974D02*
X019150Y022974D01*
X019150Y022925D02*
X019200Y022925D01*
X019200Y022877D02*
X019109Y022877D01*
X019061Y022828D02*
X019200Y022828D01*
X019238Y022780D02*
X019055Y022780D01*
X019055Y022731D02*
X019286Y022731D01*
X019066Y022683D02*
X019584Y022683D01*
X019595Y022731D02*
X019514Y022731D01*
X019562Y022780D02*
X019595Y022780D01*
X019687Y022489D02*
X019805Y022489D01*
X019805Y022440D02*
X018755Y022440D01*
X018755Y022392D02*
X019805Y022392D01*
X019805Y022343D02*
X018755Y022343D01*
X018755Y022295D02*
X019808Y022295D01*
X019828Y022246D02*
X018755Y022246D01*
X018755Y022198D02*
X019904Y022198D01*
X019889Y021955D02*
X018755Y021955D01*
X018755Y021907D02*
X019855Y021907D01*
X019855Y021858D02*
X018755Y021858D01*
X018755Y021810D02*
X019855Y021810D01*
X019855Y021761D02*
X018755Y021761D01*
X018755Y021713D02*
X019855Y021713D01*
X019855Y021664D02*
X018755Y021664D01*
X018755Y021616D02*
X019855Y021616D01*
X019855Y021567D02*
X018755Y021567D01*
X018755Y021519D02*
X019855Y021519D01*
X019855Y021470D02*
X018755Y021470D01*
X018755Y021422D02*
X019855Y021422D01*
X019861Y021373D02*
X018755Y021373D01*
X018755Y022489D02*
X018963Y022489D01*
X018914Y022537D02*
X018755Y022537D01*
X018755Y022586D02*
X018866Y022586D01*
X018845Y022634D02*
X018755Y022634D01*
X018755Y022683D02*
X018845Y022683D01*
X018845Y022731D02*
X018755Y022731D01*
X018755Y022780D02*
X018845Y022780D01*
X018839Y022828D02*
X018755Y022828D01*
X018755Y022877D02*
X018791Y022877D01*
X018850Y023216D02*
X018974Y023216D01*
X018974Y023265D02*
X018818Y023265D01*
X018770Y023313D02*
X018974Y023313D01*
X019290Y023459D02*
X019340Y023459D01*
X019340Y023507D02*
X019290Y023507D01*
X019290Y023556D02*
X019340Y023556D01*
X019340Y023604D02*
X019290Y023604D01*
X019290Y023653D02*
X019340Y023653D01*
X019340Y023701D02*
X019290Y023701D01*
X019290Y023750D02*
X019340Y023750D01*
X019340Y023798D02*
X019290Y023798D01*
X018974Y023944D02*
X018505Y023944D01*
X018505Y023992D02*
X018974Y023992D01*
X018974Y024041D02*
X018505Y024041D01*
X018295Y024041D02*
X018042Y024041D01*
X018025Y024058D02*
X018025Y024128D01*
X018295Y024128D01*
X018295Y022557D01*
X018395Y022457D01*
X018395Y022433D01*
X018394Y022434D01*
X017567Y022434D01*
X017600Y022467D01*
X017600Y022633D01*
X017483Y022750D01*
X017317Y022750D01*
X017200Y022633D01*
X017200Y022467D01*
X017245Y022422D01*
X016505Y022422D01*
X016505Y022472D01*
X016600Y022567D01*
X016600Y022733D01*
X016483Y022850D01*
X016317Y022850D01*
X016200Y022733D01*
X016200Y022567D01*
X016295Y022472D01*
X016295Y022422D01*
X015125Y022422D01*
X015125Y022878D01*
X017362Y022878D01*
X017406Y022922D01*
X017406Y023045D01*
X017693Y023045D01*
X017848Y023200D01*
X017983Y023200D01*
X018100Y023317D01*
X018100Y023483D01*
X017983Y023600D01*
X017817Y023600D01*
X017700Y023483D01*
X017700Y023348D01*
X017607Y023255D01*
X017406Y023255D01*
X017406Y023378D01*
X017362Y023422D01*
X016305Y023422D01*
X016350Y023467D01*
X016350Y023633D01*
X016233Y023750D01*
X016067Y023750D01*
X015950Y023633D01*
X015950Y023467D01*
X015995Y023422D01*
X015125Y023422D01*
X015125Y023878D01*
X017362Y023878D01*
X017406Y023922D01*
X017406Y024011D01*
X017467Y023950D01*
X017633Y023950D01*
X017750Y024067D01*
X017750Y024233D01*
X017633Y024350D01*
X017467Y024350D01*
X017406Y024289D01*
X017406Y024378D01*
X017362Y024422D01*
X015777Y024422D01*
X015600Y024598D01*
X015600Y024733D01*
X015483Y024850D01*
X015317Y024850D01*
X015200Y024733D01*
X015200Y024567D01*
X015317Y024450D01*
X015452Y024450D01*
X015480Y024422D01*
X015125Y024422D01*
X015125Y024878D01*
X017362Y024878D01*
X017406Y024922D01*
X017406Y025378D01*
X017362Y025422D01*
X017320Y025422D01*
X017348Y025450D01*
X017483Y025450D01*
X017545Y025512D01*
X017545Y025078D01*
X017450Y024983D01*
X017450Y024817D01*
X017567Y024700D01*
X017733Y024700D01*
X017774Y024741D01*
X017774Y024672D01*
X017796Y024650D01*
X017774Y024628D01*
X017774Y024172D01*
X017775Y024171D01*
X017775Y024058D01*
X017700Y023983D01*
X017700Y023817D01*
X017817Y023700D01*
X017983Y023700D01*
X018100Y023817D01*
X018100Y023983D01*
X018025Y024058D01*
X018025Y024089D02*
X018295Y024089D01*
X018295Y023992D02*
X018091Y023992D01*
X018100Y023944D02*
X018295Y023944D01*
X018295Y023895D02*
X018100Y023895D01*
X018100Y023847D02*
X018295Y023847D01*
X018295Y023798D02*
X018081Y023798D01*
X018032Y023750D02*
X018295Y023750D01*
X018295Y023701D02*
X017984Y023701D01*
X018027Y023556D02*
X018295Y023556D01*
X018295Y023604D02*
X016350Y023604D01*
X016350Y023556D02*
X017773Y023556D01*
X017724Y023507D02*
X016350Y023507D01*
X016341Y023459D02*
X017700Y023459D01*
X017700Y023410D02*
X017374Y023410D01*
X017406Y023362D02*
X017700Y023362D01*
X017665Y023313D02*
X017406Y023313D01*
X017406Y023265D02*
X017616Y023265D01*
X017768Y023119D02*
X018295Y023119D01*
X018295Y023071D02*
X017719Y023071D01*
X017816Y023168D02*
X018295Y023168D01*
X018295Y023216D02*
X017999Y023216D01*
X018047Y023265D02*
X018295Y023265D01*
X018295Y023313D02*
X018096Y023313D01*
X018100Y023362D02*
X018295Y023362D01*
X018295Y023410D02*
X018100Y023410D01*
X018100Y023459D02*
X018295Y023459D01*
X018295Y023507D02*
X018076Y023507D01*
X018295Y023653D02*
X016330Y023653D01*
X016282Y023701D02*
X017816Y023701D01*
X017768Y023750D02*
X016233Y023750D01*
X016067Y023750D02*
X015125Y023750D01*
X015125Y023798D02*
X017719Y023798D01*
X017700Y023847D02*
X015125Y023847D01*
X015125Y023701D02*
X016018Y023701D01*
X015970Y023653D02*
X015125Y023653D01*
X015125Y023604D02*
X015950Y023604D01*
X015950Y023556D02*
X015125Y023556D01*
X015125Y023507D02*
X015950Y023507D01*
X015959Y023459D02*
X015125Y023459D01*
X015125Y022877D02*
X018295Y022877D01*
X018295Y022925D02*
X017406Y022925D01*
X017406Y022974D02*
X018295Y022974D01*
X018295Y023022D02*
X017406Y023022D01*
X017502Y022731D02*
X018295Y022731D01*
X018295Y022683D02*
X017550Y022683D01*
X017599Y022634D02*
X018295Y022634D01*
X018295Y022586D02*
X017600Y022586D01*
X017600Y022537D02*
X018314Y022537D01*
X018363Y022489D02*
X017600Y022489D01*
X017573Y022440D02*
X018395Y022440D01*
X018295Y022780D02*
X016553Y022780D01*
X016600Y022731D02*
X017298Y022731D01*
X017250Y022683D02*
X016600Y022683D01*
X016600Y022634D02*
X017201Y022634D01*
X017200Y022586D02*
X016600Y022586D01*
X016570Y022537D02*
X017200Y022537D01*
X017200Y022489D02*
X016521Y022489D01*
X016505Y022440D02*
X017227Y022440D01*
X016505Y022828D02*
X018295Y022828D01*
X018505Y023313D02*
X018530Y023313D01*
X018710Y024089D02*
X018760Y024089D01*
X018760Y024138D02*
X018710Y024138D01*
X018710Y024186D02*
X018760Y024186D01*
X018760Y024235D02*
X018710Y024235D01*
X018710Y024283D02*
X018760Y024283D01*
X018760Y024332D02*
X018710Y024332D01*
X018710Y024962D02*
X018760Y024962D01*
X018760Y025011D02*
X018710Y025011D01*
X018710Y025059D02*
X018760Y025059D01*
X018760Y025108D02*
X018710Y025108D01*
X018710Y025156D02*
X018760Y025156D01*
X018760Y025205D02*
X018710Y025205D01*
X019015Y025205D02*
X019035Y025205D01*
X019200Y025467D02*
X019200Y025633D01*
X019275Y025708D01*
X019257Y025690D02*
X018505Y025690D01*
X018505Y025738D02*
X019275Y025738D01*
X019275Y025787D02*
X018505Y025787D01*
X018505Y025835D02*
X019275Y025835D01*
X019275Y025884D02*
X018505Y025884D01*
X018505Y025932D02*
X019275Y025932D01*
X019275Y025981D02*
X019263Y025981D01*
X019037Y025981D02*
X018505Y025981D01*
X018505Y026029D02*
X018988Y026029D01*
X018950Y026078D02*
X018505Y026078D01*
X018505Y026126D02*
X018950Y026126D01*
X018950Y026175D02*
X018505Y026175D01*
X018506Y026223D02*
X018928Y026223D01*
X018880Y026272D02*
X018554Y026272D01*
X018600Y026320D02*
X018831Y026320D01*
X018795Y026369D02*
X018600Y026369D01*
X018600Y026417D02*
X018795Y026417D01*
X018795Y026466D02*
X018600Y026466D01*
X018569Y026514D02*
X018795Y026514D01*
X018795Y026563D02*
X018520Y026563D01*
X018280Y026563D02*
X018170Y026563D01*
X018219Y026514D02*
X018231Y026514D01*
X017987Y026611D02*
X018795Y026611D01*
X018795Y026660D02*
X017939Y026660D01*
X017905Y026708D02*
X018795Y026708D01*
X018795Y026757D02*
X017905Y026757D01*
X017905Y026805D02*
X018795Y026805D01*
X018795Y026854D02*
X017905Y026854D01*
X017905Y026902D02*
X018795Y026902D01*
X018795Y026951D02*
X017905Y026951D01*
X017905Y026999D02*
X018795Y026999D01*
X018795Y027048D02*
X017905Y027048D01*
X017905Y027096D02*
X018795Y027096D01*
X018795Y027145D02*
X017905Y027145D01*
X017905Y027193D02*
X018795Y027193D01*
X018795Y027242D02*
X018774Y027242D01*
X018526Y027242D02*
X018424Y027242D01*
X018473Y027290D02*
X018477Y027290D01*
X018176Y027242D02*
X017905Y027242D01*
X017905Y027290D02*
X018127Y027290D01*
X018100Y027339D02*
X017905Y027339D01*
X017905Y027387D02*
X018100Y027387D01*
X018100Y027436D02*
X017905Y027436D01*
X017905Y027484D02*
X018101Y027484D01*
X018150Y027533D02*
X017905Y027533D01*
X017905Y027581D02*
X018195Y027581D01*
X018195Y027630D02*
X017905Y027630D01*
X017905Y027678D02*
X018195Y027678D01*
X018195Y027727D02*
X017905Y027727D01*
X017905Y027775D02*
X018195Y027775D01*
X018195Y027824D02*
X017905Y027824D01*
X017905Y027872D02*
X018195Y027872D01*
X018195Y027921D02*
X017905Y027921D01*
X017905Y027969D02*
X018195Y027969D01*
X018195Y028018D02*
X017905Y028018D01*
X017905Y028066D02*
X018195Y028066D01*
X018195Y028115D02*
X017905Y028115D01*
X017905Y028163D02*
X018195Y028163D01*
X018195Y028212D02*
X017905Y028212D01*
X017905Y028260D02*
X018195Y028260D01*
X018195Y028309D02*
X017905Y028309D01*
X017905Y028357D02*
X018195Y028357D01*
X018195Y028406D02*
X018138Y028406D01*
X018187Y028454D02*
X018195Y028454D01*
X017962Y028406D02*
X017905Y028406D01*
X017905Y028454D02*
X017913Y028454D01*
X017905Y028745D02*
X017912Y028745D01*
X017905Y028794D02*
X017945Y028794D01*
X017945Y028842D02*
X017905Y028842D01*
X017905Y028891D02*
X017945Y028891D01*
X017945Y028939D02*
X017905Y028939D01*
X017905Y028988D02*
X017945Y028988D01*
X017945Y029036D02*
X017905Y029036D01*
X017905Y029085D02*
X017945Y029085D01*
X017945Y029133D02*
X017905Y029133D01*
X017905Y029182D02*
X017945Y029182D01*
X017945Y029230D02*
X017905Y029230D01*
X017905Y029279D02*
X017945Y029279D01*
X017945Y029327D02*
X017905Y029327D01*
X017905Y029376D02*
X017945Y029376D01*
X017945Y029424D02*
X017905Y029424D01*
X017905Y029473D02*
X017945Y029473D01*
X017945Y029521D02*
X017905Y029521D01*
X017905Y029570D02*
X017945Y029570D01*
X017945Y029618D02*
X017905Y029618D01*
X017905Y029667D02*
X017945Y029667D01*
X017945Y029715D02*
X017905Y029715D01*
X017905Y029764D02*
X017945Y029764D01*
X017945Y029812D02*
X017886Y029812D01*
X017838Y029861D02*
X017945Y029861D01*
X017945Y029909D02*
X017789Y029909D01*
X017741Y029958D02*
X017945Y029958D01*
X017945Y030006D02*
X017692Y030006D01*
X017644Y030055D02*
X017945Y030055D01*
X017945Y030103D02*
X017595Y030103D01*
X017547Y030152D02*
X017945Y030152D01*
X017945Y030200D02*
X017498Y030200D01*
X017450Y030249D02*
X017945Y030249D01*
X017945Y030297D02*
X017406Y030297D01*
X017406Y030346D02*
X017945Y030346D01*
X017945Y030394D02*
X017390Y030394D01*
X017274Y030491D02*
X017945Y030491D01*
X017945Y030443D02*
X015125Y030443D01*
X015125Y030491D02*
X017026Y030491D01*
X016978Y030540D02*
X015125Y030540D01*
X015125Y030588D02*
X016950Y030588D01*
X016950Y030637D02*
X015125Y030637D01*
X015125Y030685D02*
X016950Y030685D01*
X016951Y030734D02*
X015125Y030734D01*
X015125Y030782D02*
X016999Y030782D01*
X017045Y030831D02*
X015125Y030831D01*
X015125Y031461D02*
X017450Y031461D01*
X017450Y031413D02*
X017371Y031413D01*
X017406Y031364D02*
X017450Y031364D01*
X017452Y031316D02*
X017406Y031316D01*
X017406Y031267D02*
X017500Y031267D01*
X017549Y031219D02*
X017406Y031219D01*
X017406Y031170D02*
X017773Y031170D01*
X017773Y031122D02*
X017406Y031122D01*
X017406Y031073D02*
X018222Y031073D01*
X018222Y031025D02*
X017406Y031025D01*
X017406Y030976D02*
X018178Y030976D01*
X018129Y030928D02*
X017406Y030928D01*
X017363Y030879D02*
X018081Y030879D01*
X018032Y030831D02*
X017255Y030831D01*
X017301Y030782D02*
X017984Y030782D01*
X017945Y030734D02*
X017349Y030734D01*
X017350Y030685D02*
X017945Y030685D01*
X017945Y030637D02*
X017350Y030637D01*
X017350Y030588D02*
X017945Y030588D01*
X017945Y030540D02*
X017322Y030540D01*
X017751Y031219D02*
X017773Y031219D01*
X017773Y031607D02*
X015125Y031607D01*
X015125Y031655D02*
X017773Y031655D01*
X017795Y031704D02*
X017736Y031704D01*
X017785Y031752D02*
X018545Y031752D01*
X018545Y031704D02*
X018505Y031704D01*
X018527Y031655D02*
X018545Y031655D01*
X018545Y031607D02*
X018527Y031607D01*
X018527Y031558D02*
X018545Y031558D01*
X018545Y031510D02*
X018527Y031510D01*
X018527Y031461D02*
X018545Y031461D01*
X018545Y031413D02*
X018527Y031413D01*
X018527Y031364D02*
X018545Y031364D01*
X018545Y031316D02*
X018527Y031316D01*
X018527Y031267D02*
X018545Y031267D01*
X018545Y031219D02*
X018527Y031219D01*
X018527Y031170D02*
X018545Y031170D01*
X018545Y031122D02*
X018527Y031122D01*
X018545Y031073D02*
X018432Y031073D01*
X018432Y031025D02*
X018545Y031025D01*
X018545Y030976D02*
X018432Y030976D01*
X018426Y030928D02*
X018545Y030928D01*
X018545Y030879D02*
X018378Y030879D01*
X018502Y030831D02*
X018545Y030831D01*
X018755Y030831D02*
X019045Y030831D01*
X019045Y030879D02*
X018755Y030879D01*
X018755Y030928D02*
X019045Y030928D01*
X019045Y030976D02*
X018755Y030976D01*
X018755Y031025D02*
X019045Y031025D01*
X019045Y031073D02*
X018755Y031073D01*
X018755Y031122D02*
X019045Y031122D01*
X019045Y031170D02*
X018755Y031170D01*
X018755Y031219D02*
X019045Y031219D01*
X019045Y031267D02*
X018755Y031267D01*
X018755Y031316D02*
X019045Y031316D01*
X019045Y031364D02*
X018755Y031364D01*
X018755Y031413D02*
X019045Y031413D01*
X019045Y031461D02*
X018755Y031461D01*
X018755Y031510D02*
X019045Y031510D01*
X019045Y031558D02*
X018755Y031558D01*
X018755Y031607D02*
X019045Y031607D01*
X019045Y031655D02*
X018755Y031655D01*
X018755Y031704D02*
X019045Y031704D01*
X019045Y031752D02*
X018755Y031752D01*
X018755Y031801D02*
X019045Y031801D01*
X019045Y031849D02*
X018755Y031849D01*
X018755Y031898D02*
X019045Y031898D01*
X019045Y031946D02*
X018755Y031946D01*
X018777Y031995D02*
X019045Y031995D01*
X019045Y032043D02*
X018826Y032043D01*
X018850Y032092D02*
X019045Y032092D01*
X019045Y032140D02*
X018850Y032140D01*
X018850Y032189D02*
X019045Y032189D01*
X019045Y032237D02*
X018846Y032237D01*
X018797Y032286D02*
X019045Y032286D01*
X019045Y032334D02*
X018749Y032334D01*
X018551Y032334D02*
X018527Y032334D01*
X018527Y032383D02*
X019045Y032383D01*
X019045Y032431D02*
X018527Y032431D01*
X018527Y032480D02*
X019045Y032480D01*
X019045Y032528D02*
X018527Y032528D01*
X018527Y032577D02*
X019045Y032577D01*
X019045Y032625D02*
X018527Y032625D01*
X018527Y032674D02*
X019045Y032674D01*
X019045Y032722D02*
X018486Y032722D01*
X018432Y032771D02*
X019045Y032771D01*
X019045Y032819D02*
X018432Y032819D01*
X018432Y032868D02*
X019045Y032868D01*
X019045Y032916D02*
X018432Y032916D01*
X018432Y032965D02*
X019045Y032965D01*
X019004Y033013D02*
X018432Y033013D01*
X018432Y033062D02*
X018956Y033062D01*
X018950Y033110D02*
X018432Y033110D01*
X018432Y033159D02*
X018950Y033159D01*
X018950Y033207D02*
X018432Y033207D01*
X018432Y033256D02*
X018973Y033256D01*
X019021Y033304D02*
X018432Y033304D01*
X018432Y033353D02*
X020894Y033353D01*
X020894Y033304D02*
X019279Y033304D01*
X019327Y033256D02*
X020894Y033256D01*
X020894Y033207D02*
X019350Y033207D01*
X019350Y033159D02*
X020894Y033159D01*
X020894Y033110D02*
X019350Y033110D01*
X019344Y033062D02*
X020894Y033062D01*
X020894Y033013D02*
X019296Y033013D01*
X019255Y032965D02*
X020894Y032965D01*
X020900Y032916D02*
X019255Y032916D01*
X019255Y032868D02*
X023175Y032868D01*
X023175Y032819D02*
X019255Y032819D01*
X019255Y032771D02*
X023175Y032771D01*
X023175Y032722D02*
X019255Y032722D01*
X019255Y032674D02*
X023175Y032674D01*
X023175Y032625D02*
X019255Y032625D01*
X019255Y032577D02*
X023175Y032577D01*
X023175Y032528D02*
X019255Y032528D01*
X019255Y032480D02*
X023175Y032480D01*
X023175Y032431D02*
X019255Y032431D01*
X019255Y032383D02*
X020899Y032383D01*
X020894Y032334D02*
X020749Y032334D01*
X020797Y032286D02*
X020894Y032286D01*
X020894Y032043D02*
X020826Y032043D01*
X020777Y031995D02*
X020894Y031995D01*
X020894Y031946D02*
X020100Y031946D01*
X020100Y031898D02*
X020918Y031898D01*
X020523Y031995D02*
X020088Y031995D01*
X020040Y032043D02*
X020474Y032043D01*
X020450Y032092D02*
X019991Y032092D01*
X019809Y032092D02*
X019255Y032092D01*
X019255Y032140D02*
X020450Y032140D01*
X020450Y032189D02*
X019255Y032189D01*
X019255Y032237D02*
X020454Y032237D01*
X020503Y032286D02*
X019255Y032286D01*
X019255Y032334D02*
X020551Y032334D01*
X020100Y031849D02*
X023175Y031849D01*
X023175Y031801D02*
X020083Y031801D01*
X020035Y031752D02*
X023175Y031752D01*
X023175Y031704D02*
X020005Y031704D01*
X020005Y031655D02*
X023175Y031655D01*
X023175Y031607D02*
X020005Y031607D01*
X020005Y031558D02*
X023175Y031558D01*
X023175Y031510D02*
X020005Y031510D01*
X020005Y031461D02*
X023175Y031461D01*
X023175Y030831D02*
X020662Y030831D01*
X020662Y030879D02*
X020937Y030879D01*
X020894Y030928D02*
X020662Y030928D01*
X020662Y030976D02*
X020894Y030976D01*
X020632Y030782D02*
X023175Y030782D01*
X023175Y030734D02*
X020005Y030734D01*
X020005Y030782D02*
X020168Y030782D01*
X020138Y030831D02*
X020005Y030831D01*
X020005Y030879D02*
X020138Y030879D01*
X020138Y030928D02*
X020005Y030928D01*
X020005Y030976D02*
X020138Y030976D01*
X020138Y031025D02*
X020005Y031025D01*
X020005Y031073D02*
X020138Y031073D01*
X020138Y031122D02*
X020005Y031122D01*
X020005Y031170D02*
X020138Y031170D01*
X020138Y031219D02*
X020005Y031219D01*
X020005Y031267D02*
X020177Y031267D01*
X020005Y031316D02*
X020894Y031316D01*
X020894Y031364D02*
X020005Y031364D01*
X020005Y031413D02*
X020929Y031413D01*
X020888Y030443D02*
X020005Y030443D01*
X020005Y030491D02*
X023175Y030491D01*
X023175Y030540D02*
X020005Y030540D01*
X020005Y030588D02*
X023175Y030588D01*
X023175Y030637D02*
X020005Y030637D01*
X020005Y030685D02*
X023175Y030685D01*
X023175Y029812D02*
X020662Y029812D01*
X020662Y029764D02*
X023175Y029764D01*
X023175Y029715D02*
X020662Y029715D01*
X020662Y029667D02*
X023175Y029667D01*
X023175Y029618D02*
X020662Y029618D01*
X020660Y029570D02*
X023175Y029570D01*
X023175Y029521D02*
X020555Y029521D01*
X020555Y029473D02*
X023175Y029473D01*
X023175Y029424D02*
X020555Y029424D01*
X020555Y029376D02*
X020894Y029376D01*
X020894Y029327D02*
X020555Y029327D01*
X020555Y029279D02*
X020894Y029279D01*
X020894Y029230D02*
X020555Y029230D01*
X020555Y029182D02*
X020894Y029182D01*
X020894Y029133D02*
X020555Y029133D01*
X020555Y029085D02*
X020894Y029085D01*
X020894Y029036D02*
X020555Y029036D01*
X020555Y028988D02*
X020894Y028988D01*
X020894Y028939D02*
X020555Y028939D01*
X020555Y028891D02*
X020925Y028891D01*
X021045Y028842D02*
X020555Y028842D01*
X020555Y028794D02*
X021045Y028794D01*
X021012Y028745D02*
X020555Y028745D01*
X020555Y028697D02*
X020964Y028697D01*
X020950Y028648D02*
X020555Y028648D01*
X020555Y028600D02*
X020950Y028600D01*
X020950Y028551D02*
X020555Y028551D01*
X020555Y028503D02*
X020965Y028503D01*
X021013Y028454D02*
X020565Y028454D01*
X020614Y028406D02*
X020922Y028406D01*
X020894Y028357D02*
X020662Y028357D01*
X020711Y028309D02*
X020894Y028309D01*
X020894Y027969D02*
X020105Y027969D01*
X020105Y027921D02*
X020895Y027921D01*
X020563Y028018D02*
X020105Y028018D01*
X020105Y028066D02*
X020515Y028066D01*
X020466Y028115D02*
X020105Y028115D01*
X020105Y028163D02*
X020418Y028163D01*
X020369Y028212D02*
X020105Y028212D01*
X020105Y028260D02*
X020321Y028260D01*
X020272Y028309D02*
X020105Y028309D01*
X020105Y028357D02*
X020245Y028357D01*
X020245Y028406D02*
X020105Y028406D01*
X020105Y028454D02*
X020245Y028454D01*
X020245Y028503D02*
X020105Y028503D01*
X020105Y028551D02*
X020245Y028551D01*
X020245Y028600D02*
X020105Y028600D01*
X020105Y028648D02*
X020245Y028648D01*
X020245Y028697D02*
X020105Y028697D01*
X020105Y028745D02*
X020245Y028745D01*
X020245Y028794D02*
X020105Y028794D01*
X020105Y028842D02*
X020245Y028842D01*
X020245Y028891D02*
X020105Y028891D01*
X020105Y028939D02*
X020245Y028939D01*
X020245Y028988D02*
X020105Y028988D01*
X020105Y029036D02*
X020245Y029036D01*
X020245Y029085D02*
X020105Y029085D01*
X020105Y029133D02*
X020245Y029133D01*
X020245Y029182D02*
X020105Y029182D01*
X020105Y029230D02*
X020245Y029230D01*
X020245Y029279D02*
X020105Y029279D01*
X020105Y029327D02*
X020245Y029327D01*
X020245Y029376D02*
X020105Y029376D01*
X020105Y029424D02*
X020245Y029424D01*
X020245Y029473D02*
X020105Y029473D01*
X020105Y029521D02*
X020245Y029521D01*
X020140Y029570D02*
X020105Y029570D01*
X020105Y029618D02*
X020138Y029618D01*
X020138Y029667D02*
X020105Y029667D01*
X020105Y029715D02*
X020138Y029715D01*
X020138Y029764D02*
X020105Y029764D01*
X020105Y029812D02*
X020138Y029812D01*
X020138Y029861D02*
X020088Y029861D01*
X020039Y029909D02*
X020138Y029909D01*
X020138Y029958D02*
X020005Y029958D01*
X020005Y030006D02*
X020156Y030006D01*
X020005Y030055D02*
X020844Y030055D01*
X020844Y030103D02*
X020005Y030103D01*
X020005Y030152D02*
X022125Y030152D01*
X022125Y030125D02*
X020844Y030125D01*
X020844Y029937D01*
X020852Y029905D01*
X020869Y029876D01*
X020892Y029853D01*
X020921Y029837D01*
X020952Y029828D01*
X022125Y029828D01*
X022125Y030125D01*
X022125Y030103D02*
X022175Y030103D01*
X022175Y030055D02*
X022125Y030055D01*
X022125Y030006D02*
X022175Y030006D01*
X022175Y029958D02*
X022125Y029958D01*
X022125Y029909D02*
X022175Y029909D01*
X022175Y029861D02*
X022125Y029861D01*
X022125Y030200D02*
X022175Y030200D01*
X022175Y030249D02*
X022125Y030249D01*
X022125Y030297D02*
X022175Y030297D01*
X022175Y030346D02*
X022125Y030346D01*
X022125Y030394D02*
X022175Y030394D01*
X022175Y030443D02*
X022125Y030443D01*
X020852Y030394D02*
X020005Y030394D01*
X020005Y030346D02*
X020844Y030346D01*
X020844Y030297D02*
X020005Y030297D01*
X020005Y030249D02*
X020844Y030249D01*
X020844Y030200D02*
X020005Y030200D01*
X019545Y030200D02*
X019255Y030200D01*
X019255Y030249D02*
X019545Y030249D01*
X019545Y030297D02*
X019255Y030297D01*
X019255Y030346D02*
X019545Y030346D01*
X019545Y030394D02*
X019255Y030394D01*
X019255Y030443D02*
X019545Y030443D01*
X019526Y030491D02*
X019255Y030491D01*
X019255Y030540D02*
X019478Y030540D01*
X019450Y030588D02*
X019255Y030588D01*
X019255Y030637D02*
X019450Y030637D01*
X019450Y030685D02*
X019255Y030685D01*
X019255Y030734D02*
X019451Y030734D01*
X019499Y030782D02*
X019255Y030782D01*
X019255Y030831D02*
X019548Y030831D01*
X019752Y030831D02*
X019795Y030831D01*
X019795Y030879D02*
X019255Y030879D01*
X019255Y030928D02*
X019795Y030928D01*
X019795Y030976D02*
X019255Y030976D01*
X019255Y031025D02*
X019795Y031025D01*
X019795Y031073D02*
X019255Y031073D01*
X019255Y031122D02*
X019795Y031122D01*
X019795Y031170D02*
X019255Y031170D01*
X019255Y031219D02*
X019795Y031219D01*
X019795Y031267D02*
X019255Y031267D01*
X019255Y031316D02*
X019795Y031316D01*
X019795Y031364D02*
X019255Y031364D01*
X019255Y031413D02*
X019795Y031413D01*
X019795Y031461D02*
X019255Y031461D01*
X019255Y031510D02*
X019795Y031510D01*
X019795Y031558D02*
X019255Y031558D01*
X019255Y031607D02*
X019795Y031607D01*
X019795Y031655D02*
X019255Y031655D01*
X019255Y031704D02*
X019795Y031704D01*
X019765Y031752D02*
X019255Y031752D01*
X019255Y031801D02*
X019717Y031801D01*
X019700Y031849D02*
X019255Y031849D01*
X019255Y031898D02*
X019700Y031898D01*
X019700Y031946D02*
X019255Y031946D01*
X019255Y031995D02*
X019712Y031995D01*
X019760Y032043D02*
X019255Y032043D01*
X018545Y031946D02*
X017850Y031946D01*
X017850Y031898D02*
X018545Y031898D01*
X018545Y031849D02*
X017850Y031849D01*
X017833Y031801D02*
X018545Y031801D01*
X018523Y031995D02*
X017838Y031995D01*
X017790Y032043D02*
X018474Y032043D01*
X018155Y032092D02*
X018145Y032092D01*
X017800Y032092D02*
X017741Y032092D01*
X017773Y032140D02*
X017558Y032140D01*
X017510Y032189D02*
X017773Y032189D01*
X017770Y032237D02*
X017773Y032237D01*
X017530Y032237D02*
X017461Y032237D01*
X017482Y032286D02*
X017406Y032286D01*
X017406Y032334D02*
X017450Y032334D01*
X017450Y032383D02*
X017401Y032383D01*
X017450Y032431D02*
X015517Y032431D01*
X015512Y032480D02*
X017450Y032480D01*
X017495Y032528D02*
X015561Y032528D01*
X015600Y032577D02*
X017544Y032577D01*
X017756Y032577D02*
X017773Y032577D01*
X017773Y032625D02*
X015600Y032625D01*
X015600Y032674D02*
X017773Y032674D01*
X017814Y032722D02*
X015600Y032722D01*
X015562Y032771D02*
X018222Y032771D01*
X018222Y032819D02*
X015514Y032819D01*
X015286Y032819D02*
X015125Y032819D01*
X015125Y032771D02*
X015238Y032771D01*
X015200Y032722D02*
X015125Y032722D01*
X015125Y032674D02*
X015200Y032674D01*
X015200Y032625D02*
X015125Y032625D01*
X015125Y032577D02*
X015200Y032577D01*
X015239Y032528D02*
X015125Y032528D01*
X015125Y032480D02*
X015288Y032480D01*
X015295Y032431D02*
X015125Y032431D01*
X015125Y032868D02*
X018222Y032868D01*
X018222Y032916D02*
X017400Y032916D01*
X017406Y032965D02*
X017553Y032965D01*
X017504Y033013D02*
X017406Y033013D01*
X017406Y033256D02*
X017473Y033256D01*
X017521Y033304D02*
X017406Y033304D01*
X017406Y033353D02*
X018222Y033353D01*
X018222Y033401D02*
X017383Y033401D01*
X017779Y033304D02*
X018222Y033304D01*
X018222Y033256D02*
X017827Y033256D01*
X017850Y033207D02*
X018222Y033207D01*
X018222Y033159D02*
X017850Y033159D01*
X017850Y033110D02*
X018222Y033110D01*
X018222Y033062D02*
X017844Y033062D01*
X017796Y033013D02*
X018222Y033013D01*
X018222Y032965D02*
X017747Y032965D01*
X018132Y032722D02*
X018168Y032722D01*
X018432Y033401D02*
X020917Y033401D01*
X022500Y034817D02*
X022617Y034700D01*
X022783Y034700D01*
X022900Y034817D01*
X022900Y034983D01*
X022783Y035100D01*
X022617Y035100D01*
X022500Y034983D01*
X022500Y034817D01*
X022510Y034808D02*
X016238Y034808D01*
X016204Y034822D02*
X016096Y034822D01*
X015996Y034780D01*
X015920Y034704D01*
X015878Y034604D01*
X015878Y034496D01*
X015920Y034396D01*
X015996Y034320D01*
X016096Y034278D01*
X016204Y034278D01*
X016304Y034320D01*
X016380Y034396D01*
X016422Y034496D01*
X016422Y034604D01*
X016380Y034704D01*
X016304Y034780D01*
X016204Y034822D01*
X016325Y034759D02*
X022558Y034759D01*
X022607Y034711D02*
X018522Y034711D01*
X018571Y034662D02*
X023175Y034662D01*
X023175Y034614D02*
X018600Y034614D01*
X018600Y034565D02*
X023175Y034565D01*
X023175Y034517D02*
X018600Y034517D01*
X018600Y034468D02*
X023175Y034468D01*
X023175Y034420D02*
X018552Y034420D01*
X018504Y034371D02*
X023175Y034371D01*
X023175Y034323D02*
X018432Y034323D01*
X018432Y034274D02*
X023175Y034274D01*
X023175Y034226D02*
X018432Y034226D01*
X018432Y034177D02*
X023175Y034177D01*
X023175Y034129D02*
X018432Y034129D01*
X018432Y034080D02*
X023175Y034080D01*
X023175Y034032D02*
X018432Y034032D01*
X018432Y033983D02*
X023175Y033983D01*
X023175Y033935D02*
X018432Y033935D01*
X018432Y033886D02*
X023175Y033886D01*
X023175Y033838D02*
X022995Y033838D01*
X023044Y033789D02*
X023175Y033789D01*
X023175Y033741D02*
X023092Y033741D01*
X023100Y033692D02*
X023175Y033692D01*
X023175Y033644D02*
X023100Y033644D01*
X023100Y033595D02*
X023175Y033595D01*
X023175Y033547D02*
X023079Y033547D01*
X023031Y033498D02*
X023175Y033498D01*
X023175Y033450D02*
X023005Y033450D01*
X022795Y033450D02*
X018432Y033450D01*
X018432Y033498D02*
X022769Y033498D01*
X022721Y033547D02*
X018432Y033547D01*
X018432Y033595D02*
X022700Y033595D01*
X022700Y033644D02*
X018432Y033644D01*
X018432Y033692D02*
X022700Y033692D01*
X022708Y033741D02*
X018432Y033741D01*
X018432Y033789D02*
X022756Y033789D01*
X022805Y033838D02*
X018432Y033838D01*
X018222Y033838D02*
X015125Y033838D01*
X015125Y033886D02*
X018222Y033886D01*
X018222Y033935D02*
X015125Y033935D01*
X015125Y033983D02*
X018222Y033983D01*
X018222Y034032D02*
X015125Y034032D01*
X015125Y034080D02*
X018222Y034080D01*
X018222Y034129D02*
X015125Y034129D01*
X015125Y034177D02*
X018222Y034177D01*
X018222Y034226D02*
X015125Y034226D01*
X015125Y034274D02*
X018222Y034274D01*
X018222Y034323D02*
X016307Y034323D01*
X016356Y034371D02*
X018222Y034371D01*
X018222Y034420D02*
X016390Y034420D01*
X016410Y034468D02*
X018200Y034468D01*
X018200Y034517D02*
X016422Y034517D01*
X016422Y034565D02*
X018200Y034565D01*
X018200Y034614D02*
X016418Y034614D01*
X016398Y034662D02*
X018229Y034662D01*
X018278Y034711D02*
X016374Y034711D01*
X016062Y034808D02*
X015125Y034808D01*
X015125Y034856D02*
X022500Y034856D01*
X022500Y034905D02*
X015125Y034905D01*
X015125Y034953D02*
X022500Y034953D01*
X022519Y035002D02*
X015125Y035002D01*
X015125Y035050D02*
X022567Y035050D01*
X022616Y035099D02*
X015125Y035099D01*
X015125Y035147D02*
X023175Y035147D01*
X023175Y035099D02*
X022784Y035099D01*
X022833Y035050D02*
X023175Y035050D01*
X023175Y035002D02*
X022881Y035002D01*
X022900Y034953D02*
X023175Y034953D01*
X023175Y034905D02*
X022900Y034905D01*
X022900Y034856D02*
X023175Y034856D01*
X023175Y034808D02*
X022890Y034808D01*
X022842Y034759D02*
X023175Y034759D01*
X023175Y034711D02*
X022793Y034711D01*
X023175Y035196D02*
X015125Y035196D01*
X015125Y035244D02*
X023175Y035244D01*
X023175Y035293D02*
X015125Y035293D01*
X015125Y035341D02*
X023175Y035341D01*
X023175Y035390D02*
X015125Y035390D01*
X015125Y035438D02*
X023175Y035438D01*
X023175Y035487D02*
X023019Y035487D01*
X022983Y035450D02*
X023100Y035567D01*
X023100Y035733D01*
X022983Y035850D01*
X022817Y035850D01*
X022700Y035733D01*
X022700Y035567D01*
X022817Y035450D01*
X022983Y035450D01*
X023068Y035535D02*
X023175Y035535D01*
X023175Y035584D02*
X023100Y035584D01*
X023100Y035632D02*
X023175Y035632D01*
X023175Y035681D02*
X023100Y035681D01*
X023100Y035729D02*
X023175Y035729D01*
X023175Y035778D02*
X023055Y035778D01*
X023007Y035826D02*
X023175Y035826D01*
X023175Y035875D02*
X015125Y035875D01*
X015125Y035923D02*
X023175Y035923D01*
X022793Y035826D02*
X015125Y035826D01*
X015125Y035778D02*
X022745Y035778D01*
X022700Y035729D02*
X015125Y035729D01*
X015125Y035681D02*
X022700Y035681D01*
X022700Y035632D02*
X015125Y035632D01*
X015125Y035584D02*
X022700Y035584D01*
X022732Y035535D02*
X015125Y035535D01*
X015125Y035487D02*
X022781Y035487D01*
X020844Y030006D02*
X020644Y030006D01*
X020662Y029958D02*
X020844Y029958D01*
X020851Y029909D02*
X020662Y029909D01*
X020662Y029861D02*
X020885Y029861D01*
X019545Y029909D02*
X019539Y029909D01*
X019545Y029958D02*
X019491Y029958D01*
X019442Y030006D02*
X019545Y030006D01*
X019545Y030055D02*
X019394Y030055D01*
X019345Y030103D02*
X019545Y030103D01*
X019545Y030152D02*
X019297Y030152D01*
X019145Y030006D02*
X018755Y030006D01*
X018755Y029958D02*
X019194Y029958D01*
X019242Y029909D02*
X018755Y029909D01*
X018755Y029861D02*
X019291Y029861D01*
X019271Y029812D02*
X019339Y029812D01*
X019319Y029764D02*
X019388Y029764D01*
X019350Y029715D02*
X019436Y029715D01*
X019485Y029667D02*
X019350Y029667D01*
X019350Y029618D02*
X019533Y029618D01*
X019545Y029570D02*
X019350Y029570D01*
X019304Y029521D02*
X019545Y029521D01*
X019545Y029473D02*
X019255Y029473D01*
X019256Y029327D02*
X019545Y029327D01*
X019545Y029279D02*
X019304Y029279D01*
X019545Y029376D02*
X019024Y029376D01*
X019005Y029327D02*
X019044Y029327D01*
X019073Y029424D02*
X019545Y029424D01*
X018950Y029618D02*
X018755Y029618D01*
X018755Y029570D02*
X018921Y029570D01*
X018873Y029521D02*
X018755Y029521D01*
X018755Y029473D02*
X018824Y029473D01*
X018795Y029424D02*
X018755Y029424D01*
X018755Y029376D02*
X018795Y029376D01*
X018795Y029327D02*
X018755Y029327D01*
X018755Y029279D02*
X018795Y029279D01*
X018795Y029230D02*
X018755Y029230D01*
X018755Y029182D02*
X018795Y029182D01*
X018795Y029133D02*
X018755Y029133D01*
X018755Y029085D02*
X018795Y029085D01*
X018795Y029036D02*
X018755Y029036D01*
X018755Y029667D02*
X018950Y029667D01*
X018950Y029715D02*
X018755Y029715D01*
X018755Y029764D02*
X018981Y029764D01*
X019029Y029812D02*
X018755Y029812D01*
X018755Y030055D02*
X019097Y030055D01*
X019048Y030103D02*
X018755Y030103D01*
X018755Y030152D02*
X019045Y030152D01*
X019045Y030200D02*
X018755Y030200D01*
X018755Y030249D02*
X019045Y030249D01*
X019045Y030297D02*
X018755Y030297D01*
X018755Y030346D02*
X019045Y030346D01*
X019045Y030394D02*
X018755Y030394D01*
X018755Y030443D02*
X019045Y030443D01*
X019045Y030491D02*
X018755Y030491D01*
X018755Y030540D02*
X019045Y030540D01*
X019045Y030588D02*
X018755Y030588D01*
X018755Y030637D02*
X019045Y030637D01*
X019045Y030685D02*
X018755Y030685D01*
X018755Y030734D02*
X019045Y030734D01*
X019045Y030782D02*
X018755Y030782D01*
X017525Y031558D02*
X015125Y031558D01*
X015125Y031510D02*
X017477Y031510D01*
X017564Y031704D02*
X015125Y031704D01*
X015125Y031752D02*
X017515Y031752D01*
X017467Y031801D02*
X015125Y031801D01*
X015125Y031849D02*
X017450Y031849D01*
X017450Y031898D02*
X017382Y031898D01*
X017406Y031946D02*
X017450Y031946D01*
X017406Y031995D02*
X017407Y031995D01*
X018222Y033450D02*
X015125Y033450D01*
X015125Y033498D02*
X018222Y033498D01*
X018222Y033547D02*
X015125Y033547D01*
X015125Y033595D02*
X018222Y033595D01*
X018222Y033644D02*
X015125Y033644D01*
X015125Y033692D02*
X018222Y033692D01*
X018222Y033741D02*
X015125Y033741D01*
X015125Y033789D02*
X018222Y033789D01*
X015993Y034323D02*
X015125Y034323D01*
X015125Y034371D02*
X015944Y034371D01*
X015910Y034420D02*
X015125Y034420D01*
X015125Y034468D02*
X015890Y034468D01*
X015878Y034517D02*
X015125Y034517D01*
X015125Y034565D02*
X015878Y034565D01*
X015882Y034614D02*
X015125Y034614D01*
X015125Y034662D02*
X015902Y034662D01*
X015926Y034711D02*
X015125Y034711D01*
X015125Y034759D02*
X015975Y034759D01*
X016045Y028878D02*
X015125Y028878D01*
X015125Y028472D01*
X015995Y028472D01*
X015950Y028517D01*
X015950Y028683D01*
X016045Y028778D01*
X016045Y028878D01*
X016045Y028842D02*
X015125Y028842D01*
X015125Y028794D02*
X016045Y028794D01*
X016012Y028745D02*
X015125Y028745D01*
X015125Y028697D02*
X015964Y028697D01*
X015950Y028648D02*
X015125Y028648D01*
X015125Y028600D02*
X015950Y028600D01*
X015950Y028551D02*
X015125Y028551D01*
X015125Y028503D02*
X015965Y028503D01*
X016175Y028175D02*
X017456Y028175D01*
X017456Y028363D01*
X017448Y028395D01*
X017445Y028400D01*
X017452Y028400D01*
X017545Y028307D01*
X017545Y025788D01*
X017483Y025850D01*
X017317Y025850D01*
X017200Y025733D01*
X017200Y025598D01*
X017023Y025422D01*
X015125Y025422D01*
X015125Y025878D01*
X016045Y025878D01*
X016045Y025828D01*
X015950Y025733D01*
X015950Y025567D01*
X016067Y025450D01*
X016233Y025450D01*
X016350Y025567D01*
X016350Y025733D01*
X016255Y025828D01*
X016255Y025878D01*
X017362Y025878D01*
X017406Y025922D01*
X017406Y026378D01*
X017362Y026422D01*
X015125Y026422D01*
X015125Y026878D01*
X015480Y026878D01*
X015452Y026850D01*
X015317Y026850D01*
X015200Y026733D01*
X015200Y026567D01*
X015317Y026450D01*
X015483Y026450D01*
X015600Y026567D01*
X015600Y026702D01*
X015777Y026878D01*
X017362Y026878D01*
X017406Y026922D01*
X017406Y027378D01*
X017362Y027422D01*
X015125Y027422D01*
X015125Y027828D01*
X016125Y027828D01*
X016125Y028125D01*
X016175Y028125D01*
X016175Y028175D01*
X016175Y028163D02*
X017545Y028163D01*
X017545Y028115D02*
X017456Y028115D01*
X017456Y028125D02*
X016175Y028125D01*
X016175Y027828D01*
X017348Y027828D01*
X017379Y027837D01*
X017408Y027853D01*
X017431Y027876D01*
X017448Y027905D01*
X017456Y027937D01*
X017456Y028125D01*
X017456Y028066D02*
X017545Y028066D01*
X017545Y028018D02*
X017456Y028018D01*
X017456Y027969D02*
X017545Y027969D01*
X017545Y027921D02*
X017452Y027921D01*
X017427Y027872D02*
X017545Y027872D01*
X017545Y027824D02*
X015125Y027824D01*
X015125Y027775D02*
X017545Y027775D01*
X017545Y027727D02*
X015125Y027727D01*
X015125Y027678D02*
X017545Y027678D01*
X017545Y027630D02*
X015125Y027630D01*
X015125Y027581D02*
X017545Y027581D01*
X017545Y027533D02*
X015125Y027533D01*
X015125Y027484D02*
X017545Y027484D01*
X017545Y027436D02*
X015125Y027436D01*
X015125Y026854D02*
X015455Y026854D01*
X015272Y026805D02*
X015125Y026805D01*
X015125Y026757D02*
X015224Y026757D01*
X015200Y026708D02*
X015125Y026708D01*
X015125Y026660D02*
X015200Y026660D01*
X015200Y026611D02*
X015125Y026611D01*
X015125Y026563D02*
X015205Y026563D01*
X015253Y026514D02*
X015125Y026514D01*
X015125Y026466D02*
X015302Y026466D01*
X015498Y026466D02*
X017545Y026466D01*
X017545Y026514D02*
X015547Y026514D01*
X015595Y026563D02*
X017545Y026563D01*
X017545Y026611D02*
X015600Y026611D01*
X015600Y026660D02*
X017545Y026660D01*
X017545Y026708D02*
X015607Y026708D01*
X015655Y026757D02*
X017545Y026757D01*
X017545Y026805D02*
X015704Y026805D01*
X015752Y026854D02*
X017545Y026854D01*
X017545Y026902D02*
X017386Y026902D01*
X017406Y026951D02*
X017545Y026951D01*
X017545Y026999D02*
X017406Y026999D01*
X017406Y027048D02*
X017545Y027048D01*
X017545Y027096D02*
X017406Y027096D01*
X017406Y027145D02*
X017545Y027145D01*
X017545Y027193D02*
X017406Y027193D01*
X017406Y027242D02*
X017545Y027242D01*
X017545Y027290D02*
X017406Y027290D01*
X017406Y027339D02*
X017545Y027339D01*
X017545Y027387D02*
X017397Y027387D01*
X017456Y028212D02*
X017545Y028212D01*
X017545Y028260D02*
X017456Y028260D01*
X017456Y028309D02*
X017543Y028309D01*
X017494Y028357D02*
X017456Y028357D01*
X016175Y028115D02*
X016125Y028115D01*
X016125Y028066D02*
X016175Y028066D01*
X016175Y028018D02*
X016125Y028018D01*
X016125Y027969D02*
X016175Y027969D01*
X016175Y027921D02*
X016125Y027921D01*
X016125Y027872D02*
X016175Y027872D01*
X017367Y026417D02*
X017545Y026417D01*
X017545Y026369D02*
X017406Y026369D01*
X017406Y026320D02*
X017545Y026320D01*
X017545Y026272D02*
X017406Y026272D01*
X017406Y026223D02*
X017545Y026223D01*
X017545Y026175D02*
X017406Y026175D01*
X017406Y026126D02*
X017545Y026126D01*
X017545Y026078D02*
X017406Y026078D01*
X017406Y026029D02*
X017545Y026029D01*
X017545Y025981D02*
X017406Y025981D01*
X017406Y025932D02*
X017545Y025932D01*
X017545Y025884D02*
X017368Y025884D01*
X017302Y025835D02*
X016255Y025835D01*
X016296Y025787D02*
X017254Y025787D01*
X017205Y025738D02*
X016345Y025738D01*
X016350Y025690D02*
X017200Y025690D01*
X017200Y025641D02*
X016350Y025641D01*
X016350Y025593D02*
X017194Y025593D01*
X017146Y025544D02*
X016327Y025544D01*
X016278Y025496D02*
X017097Y025496D01*
X017049Y025447D02*
X015125Y025447D01*
X015125Y025496D02*
X015522Y025496D01*
X015567Y025450D02*
X015733Y025450D01*
X015850Y025567D01*
X015850Y025733D01*
X015733Y025850D01*
X015567Y025850D01*
X015450Y025733D01*
X015450Y025567D01*
X015567Y025450D01*
X015473Y025544D02*
X015125Y025544D01*
X015125Y025593D02*
X015450Y025593D01*
X015450Y025641D02*
X015125Y025641D01*
X015125Y025690D02*
X015450Y025690D01*
X015455Y025738D02*
X015125Y025738D01*
X015125Y025787D02*
X015504Y025787D01*
X015552Y025835D02*
X015125Y025835D01*
X015748Y025835D02*
X016045Y025835D01*
X016004Y025787D02*
X015796Y025787D01*
X015845Y025738D02*
X015955Y025738D01*
X015950Y025690D02*
X015850Y025690D01*
X015850Y025641D02*
X015950Y025641D01*
X015950Y025593D02*
X015850Y025593D01*
X015827Y025544D02*
X015973Y025544D01*
X016022Y025496D02*
X015778Y025496D01*
X015516Y024817D02*
X017451Y024817D01*
X017450Y024865D02*
X015125Y024865D01*
X015125Y024817D02*
X015284Y024817D01*
X015235Y024768D02*
X015125Y024768D01*
X015125Y024720D02*
X015200Y024720D01*
X015200Y024671D02*
X015125Y024671D01*
X015125Y024623D02*
X015200Y024623D01*
X015200Y024574D02*
X015125Y024574D01*
X015125Y024526D02*
X015242Y024526D01*
X015290Y024477D02*
X015125Y024477D01*
X015125Y024429D02*
X015473Y024429D01*
X015624Y024574D02*
X017774Y024574D01*
X017774Y024526D02*
X015673Y024526D01*
X015721Y024477D02*
X017774Y024477D01*
X017774Y024429D02*
X015770Y024429D01*
X015600Y024623D02*
X017774Y024623D01*
X017775Y024671D02*
X015600Y024671D01*
X015600Y024720D02*
X017548Y024720D01*
X017499Y024768D02*
X015565Y024768D01*
X015125Y022828D02*
X016295Y022828D01*
X016247Y022780D02*
X015125Y022780D01*
X015125Y022731D02*
X016200Y022731D01*
X016200Y022683D02*
X015125Y022683D01*
X015125Y022634D02*
X016200Y022634D01*
X016200Y022586D02*
X015125Y022586D01*
X015125Y022537D02*
X016230Y022537D01*
X016279Y022489D02*
X015125Y022489D01*
X015125Y022440D02*
X016295Y022440D01*
X017379Y023895D02*
X017700Y023895D01*
X017700Y023944D02*
X017406Y023944D01*
X017406Y023992D02*
X017425Y023992D01*
X017675Y023992D02*
X017709Y023992D01*
X017723Y024041D02*
X017758Y024041D01*
X017750Y024089D02*
X017775Y024089D01*
X017775Y024138D02*
X017750Y024138D01*
X017750Y024186D02*
X017774Y024186D01*
X017774Y024235D02*
X017748Y024235D01*
X017774Y024283D02*
X017700Y024283D01*
X017651Y024332D02*
X017774Y024332D01*
X017774Y024380D02*
X017404Y024380D01*
X017406Y024332D02*
X017449Y024332D01*
X017752Y024720D02*
X017774Y024720D01*
X017450Y024914D02*
X017398Y024914D01*
X017406Y024962D02*
X017450Y024962D01*
X017478Y025011D02*
X017406Y025011D01*
X017406Y025059D02*
X017526Y025059D01*
X017545Y025108D02*
X017406Y025108D01*
X017406Y025156D02*
X017545Y025156D01*
X017545Y025205D02*
X017406Y025205D01*
X017406Y025253D02*
X017545Y025253D01*
X017545Y025302D02*
X017406Y025302D01*
X017406Y025350D02*
X017545Y025350D01*
X017545Y025399D02*
X017385Y025399D01*
X017346Y025447D02*
X017545Y025447D01*
X017545Y025496D02*
X017528Y025496D01*
X017545Y025835D02*
X017498Y025835D01*
X018505Y025641D02*
X019208Y025641D01*
X019200Y025593D02*
X018505Y025593D01*
X018505Y025544D02*
X019200Y025544D01*
X019762Y026029D02*
X020038Y026029D01*
X019990Y026078D02*
X019810Y026078D01*
X019850Y026126D02*
X019950Y026126D01*
X019950Y026175D02*
X019850Y026175D01*
X020262Y026029D02*
X020531Y026029D01*
X020579Y026078D02*
X020310Y026078D01*
X020350Y026126D02*
X020628Y026126D01*
X020676Y026175D02*
X020350Y026175D01*
X020506Y026223D02*
X020695Y026223D01*
X020695Y026272D02*
X020554Y026272D01*
X020600Y026320D02*
X020695Y026320D01*
X020695Y026369D02*
X020600Y026369D01*
X020600Y026417D02*
X020695Y026417D01*
X020695Y026466D02*
X020600Y026466D01*
X020569Y026514D02*
X020695Y026514D01*
X020695Y026563D02*
X020520Y026563D01*
X020695Y026611D02*
X020255Y026611D01*
X020255Y026563D02*
X020280Y026563D01*
X020255Y026660D02*
X020695Y026660D01*
X020695Y026708D02*
X020240Y026708D01*
X020192Y026757D02*
X020695Y026757D01*
X020695Y026805D02*
X020143Y026805D01*
X020105Y026854D02*
X020705Y026854D01*
X020754Y026902D02*
X020105Y026902D01*
X020105Y026951D02*
X020802Y026951D01*
X020851Y026999D02*
X020105Y026999D01*
X020105Y027048D02*
X020894Y027048D01*
X020894Y027096D02*
X020105Y027096D01*
X020105Y027145D02*
X020894Y027145D01*
X020894Y027193D02*
X020105Y027193D01*
X020105Y027242D02*
X020894Y027242D01*
X020894Y027290D02*
X020105Y027290D01*
X020105Y027339D02*
X020894Y027339D01*
X020903Y027387D02*
X020105Y027387D01*
X020105Y027436D02*
X022287Y027436D01*
X022336Y027484D02*
X020105Y027484D01*
X020105Y027533D02*
X022384Y027533D01*
X022433Y027581D02*
X020105Y027581D01*
X020105Y027630D02*
X022450Y027630D01*
X022450Y027678D02*
X020105Y027678D01*
X020105Y027727D02*
X022450Y027727D01*
X022492Y027775D02*
X020105Y027775D01*
X020105Y027824D02*
X022541Y027824D01*
X022759Y027824D02*
X023175Y027824D01*
X023175Y027872D02*
X020105Y027872D01*
X021000Y025835D02*
X021952Y025835D01*
X021950Y025787D02*
X021000Y025787D01*
X021000Y025738D02*
X021950Y025738D01*
X021950Y025690D02*
X020972Y025690D01*
X020924Y025641D02*
X021976Y025641D01*
X022016Y024817D02*
X022084Y024817D01*
X022090Y024477D02*
X022010Y024477D01*
X020921Y023895D02*
X020878Y023895D01*
X019340Y024425D02*
X019290Y024425D01*
X019290Y024875D01*
X019340Y024875D01*
X019340Y024578D01*
X019340Y024425D01*
X019340Y024429D02*
X019290Y024429D01*
X019290Y024477D02*
X019340Y024477D01*
X019340Y024526D02*
X019290Y024526D01*
X019290Y024574D02*
X019340Y024574D01*
X019340Y024623D02*
X019290Y024623D01*
X019290Y024671D02*
X019340Y024671D01*
X019340Y024720D02*
X019290Y024720D01*
X019290Y024768D02*
X019340Y024768D01*
X019340Y024817D02*
X019290Y024817D01*
X019290Y024865D02*
X019340Y024865D01*
X022584Y027436D02*
X023175Y027436D01*
X023175Y027484D02*
X022767Y027484D01*
X022815Y027533D02*
X023175Y027533D01*
X023175Y027581D02*
X022850Y027581D01*
X022850Y027630D02*
X023175Y027630D01*
X023175Y027678D02*
X022850Y027678D01*
X022850Y027727D02*
X023175Y027727D01*
X023175Y027775D02*
X022808Y027775D01*
X020744Y018657D02*
X020722Y018657D01*
X020722Y018609D02*
X020793Y018609D01*
X020867Y016814D02*
X023175Y016814D01*
X023175Y016766D02*
X020867Y016766D01*
X020867Y016717D02*
X023175Y016717D01*
X023175Y016669D02*
X020867Y016669D01*
X020867Y016620D02*
X023175Y016620D01*
X023175Y016572D02*
X020867Y016572D01*
X020867Y016523D02*
X023175Y016523D01*
X023175Y016475D02*
X020867Y016475D01*
X020867Y016426D02*
X023175Y016426D01*
X023175Y016378D02*
X020867Y016378D01*
X020867Y016329D02*
X023175Y016329D01*
X023175Y016281D02*
X020867Y016281D01*
X020867Y016232D02*
X023175Y016232D01*
X023175Y016184D02*
X020867Y016184D01*
X020867Y016135D02*
X023175Y016135D01*
X023175Y016087D02*
X020867Y016087D01*
X020867Y016038D02*
X023175Y016038D01*
X023175Y015990D02*
X020867Y015990D01*
X018578Y018706D02*
X018488Y018706D01*
X018537Y018754D02*
X018578Y018754D01*
M02*
