G75*
%MOIN*%
%OFA0B0*%
%FSLAX24Y24*%
%IPPOS*%
%LPD*%
%AMOC8*
5,1,8,0,0,1.08239X$1,22.5*
%
%ADD10R,0.0474X0.0513*%
%ADD11C,0.0500*%
%ADD12C,0.0474*%
%ADD13R,0.0474X0.0474*%
%ADD14R,0.0828X0.1419*%
%ADD15R,0.2442X0.0474*%
%ADD16R,0.0434X0.0356*%
%ADD17R,0.0960X0.0560*%
%ADD18R,0.0946X0.1497*%
%ADD19R,0.0513X0.0474*%
%ADD20R,0.0454X0.0434*%
%ADD21R,0.0330X0.0580*%
D10*
X017650Y016315D03*
X017650Y016985D03*
X019650Y019315D03*
X019650Y019985D03*
X020400Y019985D03*
X020400Y019315D03*
X020400Y018485D03*
X020400Y017815D03*
D11*
X016008Y034550D02*
X016010Y034573D01*
X016016Y034596D01*
X016025Y034618D01*
X016038Y034637D01*
X016054Y034654D01*
X016072Y034669D01*
X016093Y034680D01*
X016115Y034688D01*
X016138Y034692D01*
X016162Y034692D01*
X016185Y034688D01*
X016207Y034680D01*
X016228Y034669D01*
X016246Y034654D01*
X016262Y034637D01*
X016275Y034618D01*
X016284Y034596D01*
X016290Y034573D01*
X016292Y034550D01*
X016290Y034527D01*
X016284Y034504D01*
X016275Y034482D01*
X016262Y034463D01*
X016246Y034446D01*
X016228Y034431D01*
X016207Y034420D01*
X016185Y034412D01*
X016162Y034408D01*
X016138Y034408D01*
X016115Y034412D01*
X016093Y034420D01*
X016072Y034431D01*
X016054Y034446D01*
X016038Y034463D01*
X016025Y034482D01*
X016016Y034504D01*
X016010Y034527D01*
X016008Y034550D01*
D12*
X016150Y034550D03*
D13*
X018900Y018544D03*
X019650Y018544D03*
X019650Y017756D03*
X018900Y017756D03*
D14*
X018882Y016650D03*
X020418Y016650D03*
D15*
X016150Y017150D03*
X016150Y018150D03*
X016150Y019150D03*
X016150Y020150D03*
X016150Y021150D03*
X016150Y022150D03*
X016150Y023150D03*
X016150Y024150D03*
X016150Y025150D03*
X016150Y026150D03*
X016150Y027150D03*
X016150Y028150D03*
X016150Y029150D03*
X016150Y030150D03*
X016150Y031150D03*
X016150Y032150D03*
X016150Y033150D03*
X022150Y033150D03*
X022150Y032150D03*
X022150Y031150D03*
X022150Y030150D03*
X022150Y029150D03*
X022150Y028150D03*
X022150Y027150D03*
X022150Y026150D03*
X022150Y025150D03*
X022150Y024150D03*
X022150Y023150D03*
X022150Y022150D03*
X022150Y021150D03*
X022150Y020150D03*
X022150Y019150D03*
X022150Y018150D03*
X022150Y017150D03*
D16*
X018150Y016906D03*
X018150Y016394D03*
D17*
X020370Y020740D03*
X020370Y021650D03*
X020370Y022560D03*
D18*
X017930Y021650D03*
D19*
X019315Y023400D03*
X019315Y023900D03*
X019315Y024400D03*
X019315Y024900D03*
X018735Y024900D03*
X018735Y024400D03*
X018065Y024400D03*
X018065Y024900D03*
X019985Y024900D03*
X019985Y024400D03*
X019985Y023900D03*
X019985Y023400D03*
D20*
X017900Y018770D03*
X017900Y017530D03*
X020400Y029780D03*
X020400Y031020D03*
D21*
X018327Y031400D03*
X017973Y031400D03*
X017973Y032400D03*
X018327Y032400D03*
M02*
