G75*
%MOIN*%
%OFA0B0*%
%FSLAX24Y24*%
%IPPOS*%
%LPD*%
%AMOC8*
5,1,8,0,0,1.08239X$1,22.5*
%
%ADD10C,0.0050*%
%ADD11C,0.0080*%
%ADD12R,0.0483X0.0017*%
%ADD13R,0.0700X0.0017*%
%ADD14R,0.0867X0.0017*%
%ADD15R,0.1000X0.0017*%
%ADD16R,0.1117X0.0017*%
%ADD17R,0.1217X0.0017*%
%ADD18R,0.1300X0.0017*%
%ADD19R,0.0517X0.0017*%
%ADD20R,0.0550X0.0017*%
%ADD21R,0.0450X0.0017*%
%ADD22R,0.0400X0.0017*%
%ADD23R,0.0417X0.0017*%
%ADD24R,0.0367X0.0017*%
%ADD25R,0.0383X0.0017*%
%ADD26R,0.0333X0.0017*%
%ADD27R,0.0350X0.0017*%
%ADD28R,0.0317X0.0017*%
%ADD29R,0.0283X0.0017*%
%ADD30R,0.0300X0.0017*%
%ADD31R,0.0283X0.0017*%
%ADD32R,0.0283X0.0017*%
%ADD33R,0.0250X0.0017*%
%ADD34R,0.0233X0.0017*%
%ADD35R,0.0267X0.0017*%
%ADD36R,0.0217X0.0017*%
%ADD37R,0.0267X0.0017*%
%ADD38R,0.0200X0.0017*%
%ADD39R,0.0250X0.0017*%
%ADD40R,0.0183X0.0017*%
%ADD41R,0.0233X0.0017*%
%ADD42R,0.0183X0.0017*%
%ADD43R,0.0183X0.0017*%
%ADD44R,0.0167X0.0017*%
%ADD45R,0.0167X0.0017*%
%ADD46R,0.0217X0.0017*%
%ADD47R,0.0067X0.0017*%
%ADD48R,0.0150X0.0017*%
%ADD49R,0.0200X0.0017*%
%ADD50R,0.0133X0.0017*%
%ADD51R,0.0217X0.0017*%
%ADD52R,0.0017X0.0017*%
%ADD53R,0.0133X0.0017*%
%ADD54R,0.0217X0.0017*%
%ADD55R,0.0050X0.0017*%
%ADD56R,0.0300X0.0017*%
%ADD57R,0.0083X0.0017*%
%ADD58R,0.0133X0.0017*%
%ADD59R,0.0433X0.0017*%
%ADD60R,0.0133X0.0017*%
%ADD61R,0.0117X0.0017*%
%ADD62R,0.0467X0.0017*%
%ADD63R,0.0117X0.0017*%
%ADD64R,0.0483X0.0017*%
%ADD65R,0.0467X0.0017*%
%ADD66R,0.0383X0.0017*%
%ADD67R,0.0350X0.0017*%
%ADD68R,0.0150X0.0017*%
%ADD69R,0.0317X0.0017*%
%ADD70R,0.0283X0.0017*%
%ADD71R,0.0167X0.0017*%
%ADD72R,0.0267X0.0017*%
%ADD73R,0.0167X0.0017*%
%ADD74R,0.0100X0.0017*%
%ADD75R,0.0100X0.0017*%
%ADD76R,0.0233X0.0017*%
%ADD77R,0.0117X0.0017*%
%ADD78R,0.0500X0.0017*%
%ADD79R,0.0083X0.0017*%
%ADD80R,0.0500X0.0017*%
%ADD81R,0.0483X0.0017*%
%ADD82R,0.0233X0.0017*%
%ADD83R,0.0450X0.0017*%
%ADD84R,0.0433X0.0017*%
%ADD85R,0.0417X0.0017*%
%ADD86R,0.0183X0.0017*%
%ADD87R,0.0433X0.0017*%
%ADD88R,0.0333X0.0017*%
%ADD89R,0.0400X0.0017*%
%ADD90R,0.0367X0.0017*%
%ADD91R,0.0017X0.0017*%
%ADD92R,0.0333X0.0017*%
%ADD93R,0.0383X0.0017*%
%ADD94R,0.0433X0.0017*%
%ADD95R,0.0717X0.0017*%
%ADD96R,0.0700X0.0017*%
%ADD97R,0.0717X0.0017*%
%ADD98R,0.0317X0.0017*%
%ADD99R,0.0333X0.0017*%
%ADD100R,0.0733X0.0017*%
%ADD101R,0.0717X0.0017*%
%ADD102R,0.0683X0.0017*%
%ADD103R,0.0650X0.0017*%
%ADD104R,0.0617X0.0017*%
%ADD105R,0.0600X0.0017*%
%ADD106R,0.0567X0.0017*%
%ADD107R,0.0367X0.0017*%
%ADD108R,0.0533X0.0017*%
%ADD109R,0.0367X0.0017*%
%ADD110R,0.0417X0.0017*%
%ADD111R,0.0550X0.0017*%
%ADD112R,0.0583X0.0017*%
%ADD113R,0.0733X0.0017*%
%ADD114R,0.0383X0.0017*%
%ADD115R,0.0767X0.0017*%
%ADD116R,0.0783X0.0017*%
%ADD117R,0.0033X0.0017*%
%ADD118R,0.0067X0.0017*%
%ADD119R,0.0533X0.0017*%
%ADD120R,0.0567X0.0017*%
%ADD121R,0.0517X0.0017*%
%ADD122R,0.0567X0.0017*%
%ADD123R,0.0517X0.0017*%
%ADD124R,0.0317X0.0017*%
%ADD125R,0.0067X0.0017*%
%ADD126R,0.0033X0.0017*%
%ADD127R,0.0467X0.0017*%
%ADD128R,0.0583X0.0017*%
%ADD129R,0.0600X0.0017*%
%ADD130R,0.0633X0.0017*%
%ADD131R,0.0683X0.0017*%
%ADD132R,0.0650X0.0017*%
%ADD133R,0.0717X0.0017*%
%ADD134R,0.0533X0.0017*%
%ADD135R,0.0883X0.0017*%
%ADD136R,0.0750X0.0017*%
%ADD137R,0.0883X0.0017*%
%ADD138R,0.0033X0.0017*%
%ADD139R,0.1717X0.0017*%
%ADD140R,0.1683X0.0017*%
%ADD141R,0.1650X0.0017*%
%ADD142R,0.1633X0.0017*%
%ADD143R,0.1333X0.0017*%
%ADD144R,0.1283X0.0017*%
%ADD145R,0.1233X0.0017*%
%ADD146R,0.1183X0.0017*%
%ADD147R,0.0867X0.0017*%
%ADD148R,0.0767X0.0017*%
%ADD149R,0.0050X0.0017*%
%ADD150C,0.0059*%
%ADD151C,0.0010*%
%ADD152C,0.0040*%
%ADD153C,0.0028*%
%ADD154C,0.0020*%
%ADD155R,0.0118X0.0276*%
D10*
X016505Y016381D02*
X016505Y016471D01*
X016550Y016516D01*
X016550Y016630D02*
X016505Y016675D01*
X016505Y016765D01*
X016550Y016811D01*
X016730Y016811D01*
X016775Y016765D01*
X016775Y016675D01*
X016730Y016630D01*
X016685Y016630D01*
X016640Y016675D01*
X016640Y016811D01*
X016730Y016516D02*
X016775Y016471D01*
X016775Y016381D01*
X016730Y016336D01*
X016550Y016336D01*
X016505Y016381D01*
X017500Y016425D02*
X017680Y016425D01*
X017590Y016425D02*
X017590Y016695D01*
X017680Y016605D01*
X017795Y016695D02*
X017975Y016695D01*
X017975Y016425D01*
X017975Y016560D02*
X017885Y016560D01*
X017829Y015975D02*
X017784Y015930D01*
X017784Y015840D01*
X017829Y015795D01*
X017964Y015795D01*
X017874Y015795D02*
X017784Y015705D01*
X017670Y015705D02*
X017489Y015885D01*
X017489Y015930D01*
X017535Y015975D01*
X017625Y015975D01*
X017670Y015930D01*
X017829Y015975D02*
X017964Y015975D01*
X017964Y015705D01*
X017670Y015705D02*
X017489Y015705D01*
X018111Y017926D02*
X018111Y018106D01*
X018111Y018221D02*
X018291Y018401D01*
X018336Y018401D01*
X018382Y018356D01*
X018382Y018266D01*
X018336Y018221D01*
X018336Y018106D02*
X018156Y017926D01*
X018111Y017926D01*
X018382Y017926D02*
X018382Y018106D01*
X018336Y018106D01*
X018111Y018221D02*
X018111Y018401D01*
X019191Y018919D02*
X019371Y018919D01*
X019281Y018919D02*
X019281Y019189D01*
X019371Y019099D01*
X019485Y019144D02*
X019666Y018964D01*
X019666Y018919D01*
X019485Y018919D01*
X019485Y019144D02*
X019485Y019189D01*
X019666Y019189D01*
X020470Y020725D02*
X020425Y020770D01*
X020425Y020860D01*
X020470Y020905D01*
X020470Y021020D02*
X020425Y021065D01*
X020425Y021155D01*
X020470Y021200D01*
X020515Y021200D01*
X020560Y021155D01*
X020560Y021110D01*
X020560Y021155D02*
X020605Y021200D01*
X020650Y021200D01*
X020695Y021155D01*
X020695Y021065D01*
X020650Y021020D01*
X020650Y020905D02*
X020695Y020860D01*
X020695Y020770D01*
X020650Y020725D01*
X020470Y020725D01*
X021075Y020770D02*
X021075Y020860D01*
X021120Y020905D01*
X021075Y020770D02*
X021120Y020725D01*
X021300Y020725D01*
X021345Y020770D01*
X021345Y020860D01*
X021300Y020905D01*
X021210Y021020D02*
X021210Y021200D01*
X021075Y021155D02*
X021345Y021155D01*
X021210Y021020D01*
X021250Y021938D02*
X021250Y022922D01*
X019005Y022465D02*
X019005Y022375D01*
X018960Y022330D01*
X019005Y022216D02*
X018780Y022216D01*
X018735Y022171D01*
X018735Y022081D01*
X018780Y022036D01*
X019005Y022036D01*
X018735Y022330D02*
X018915Y022511D01*
X018960Y022511D01*
X019005Y022465D01*
X018735Y022511D02*
X018735Y022330D01*
X017775Y022320D02*
X017730Y022275D01*
X017640Y022275D01*
X017595Y022320D01*
X017480Y022275D02*
X017300Y022275D01*
X017390Y022275D02*
X017390Y022545D01*
X017480Y022455D01*
X017595Y022500D02*
X017640Y022545D01*
X017730Y022545D01*
X017775Y022500D01*
X017775Y022320D01*
X020500Y016911D02*
X020455Y016865D01*
X020455Y016775D01*
X020500Y016730D01*
X020545Y016730D01*
X020590Y016775D01*
X020590Y016865D01*
X020545Y016911D01*
X020500Y016911D01*
X020590Y016865D02*
X020635Y016911D01*
X020680Y016911D01*
X020725Y016865D01*
X020725Y016775D01*
X020680Y016730D01*
X020635Y016730D01*
X020590Y016775D01*
X020500Y016616D02*
X020455Y016571D01*
X020455Y016481D01*
X020500Y016436D01*
X020680Y016436D01*
X020725Y016481D01*
X020725Y016571D01*
X020680Y016616D01*
X020650Y029675D02*
X018650Y029675D01*
X018650Y030825D01*
X018650Y030500D01*
X018950Y030825D01*
X018650Y030825D01*
X020650Y030825D01*
X020650Y029675D01*
X020900Y029936D02*
X020855Y029981D01*
X020855Y030071D01*
X020900Y030116D01*
X021125Y030116D01*
X020990Y030230D02*
X021080Y030320D01*
X021125Y030411D01*
X020990Y030365D02*
X020990Y030230D01*
X020900Y030230D01*
X020855Y030275D01*
X020855Y030365D01*
X020900Y030411D01*
X020945Y030411D01*
X020990Y030365D01*
X021425Y030325D02*
X021695Y030325D01*
X021695Y030460D01*
X021650Y030505D01*
X021560Y030505D01*
X021515Y030460D01*
X021515Y030325D01*
X021515Y030415D02*
X021425Y030505D01*
X021425Y030620D02*
X021425Y030800D01*
X021425Y030710D02*
X021695Y030710D01*
X021605Y030620D01*
X021650Y030914D02*
X021695Y030959D01*
X021695Y031049D01*
X021650Y031094D01*
X021605Y031094D01*
X021560Y031049D01*
X021515Y031094D01*
X021470Y031094D01*
X021425Y031049D01*
X021425Y030959D01*
X021470Y030914D01*
X021560Y031004D02*
X021560Y031049D01*
X021125Y029936D02*
X020900Y029936D01*
X018910Y030782D02*
X018650Y030782D01*
X018650Y030734D02*
X018866Y030734D01*
X018821Y030685D02*
X018650Y030685D01*
X018650Y030637D02*
X018776Y030637D01*
X018731Y030588D02*
X018650Y030588D01*
X018650Y030540D02*
X018687Y030540D01*
X017925Y030526D02*
X017655Y030526D01*
X017655Y030436D02*
X017655Y030616D01*
X017700Y030730D02*
X017655Y030775D01*
X017655Y030865D01*
X017700Y030911D01*
X017880Y030911D01*
X017925Y030865D01*
X017925Y030775D01*
X017880Y030730D01*
X017835Y030730D01*
X017790Y030775D01*
X017790Y030911D01*
X017925Y030526D02*
X017835Y030436D01*
X017880Y030321D02*
X017925Y030276D01*
X017925Y030186D01*
X017880Y030141D01*
X017700Y030141D01*
X017655Y030186D01*
X017655Y030276D01*
X017700Y030321D01*
X017684Y034405D02*
X017864Y034405D01*
X017774Y034405D02*
X017774Y034675D01*
X017864Y034585D01*
X017979Y034540D02*
X018024Y034495D01*
X018159Y034495D01*
X018225Y034491D02*
X018225Y034626D01*
X018180Y034671D01*
X018090Y034671D01*
X018045Y034626D01*
X018045Y034491D01*
X018069Y034495D02*
X017979Y034405D01*
X017955Y034491D02*
X018225Y034491D01*
X018159Y034405D02*
X018159Y034675D01*
X018024Y034675D01*
X017979Y034630D01*
X017979Y034540D01*
X018045Y034581D02*
X017955Y034671D01*
X017955Y034786D02*
X017955Y034966D01*
X017955Y034876D02*
X018225Y034876D01*
X018135Y034786D01*
X018090Y035080D02*
X018090Y035261D01*
X017955Y035215D02*
X018225Y035215D01*
X018090Y035080D01*
X018589Y035005D02*
X018770Y035005D01*
X018680Y035005D02*
X018680Y035275D01*
X018770Y035185D01*
X018884Y035005D02*
X019064Y035005D01*
X018974Y035005D02*
X018974Y035275D01*
X019064Y035185D01*
X019179Y035140D02*
X019224Y035095D01*
X019359Y035095D01*
X019359Y035005D02*
X019359Y035275D01*
X019224Y035275D01*
X019179Y035230D01*
X019179Y035140D01*
X019269Y035095D02*
X019179Y035005D01*
X017570Y034630D02*
X017525Y034675D01*
X017435Y034675D01*
X017389Y034630D01*
X017570Y034450D01*
X017525Y034405D01*
X017435Y034405D01*
X017389Y034450D01*
X017389Y034630D01*
X017570Y034630D02*
X017570Y034450D01*
D11*
X020745Y029562D02*
X020745Y028853D01*
X021355Y028853D01*
X021355Y029562D01*
X021355Y028853D02*
X021355Y028538D01*
X020745Y028538D02*
X020745Y028853D01*
X019150Y021940D02*
X017750Y021940D01*
X017750Y019360D01*
X019150Y019360D01*
X019150Y021940D01*
X017955Y018762D02*
X017955Y018447D01*
X017345Y018447D01*
X017345Y017738D01*
X017955Y017738D02*
X017955Y018447D01*
X017345Y018447D02*
X017345Y018762D01*
D12*
X020083Y034283D03*
X021817Y035217D03*
X021817Y035233D03*
X021833Y035267D03*
X020967Y037683D03*
X019333Y037717D03*
X018633Y037283D03*
D13*
X018925Y036450D03*
X018925Y036400D03*
X018925Y036350D03*
X018925Y036300D03*
X018925Y035850D03*
X018925Y035800D03*
X018925Y035750D03*
X020075Y034300D03*
D14*
X020075Y034317D03*
D15*
X020075Y034333D03*
D16*
X020067Y034350D03*
D17*
X020067Y034367D03*
D18*
X020075Y034383D03*
D19*
X020500Y034400D03*
X020050Y036200D03*
X021700Y037150D03*
D20*
X020917Y036900D03*
X019650Y034400D03*
X019017Y037600D03*
D21*
X018200Y036467D03*
X018183Y036383D03*
X019183Y035283D03*
X019567Y034417D03*
X020583Y034417D03*
X021583Y034833D03*
X021600Y034817D03*
X021833Y035283D03*
X021983Y035683D03*
X021933Y036667D03*
X021933Y036683D03*
X021917Y036717D03*
X021917Y036733D03*
X021900Y036767D03*
X020983Y037667D03*
X019867Y036367D03*
X020050Y036167D03*
D22*
X019775Y036517D03*
X019775Y036533D03*
X020758Y036817D03*
X021708Y037067D03*
X021925Y036633D03*
X022008Y036133D03*
X021825Y035317D03*
X021542Y034917D03*
X020642Y034433D03*
X018625Y037233D03*
X018358Y036833D03*
X018242Y036533D03*
D23*
X018200Y036367D03*
X019500Y034433D03*
X021700Y037083D03*
D24*
X021908Y036600D03*
X020692Y034450D03*
X019342Y035400D03*
D25*
X019450Y034450D03*
X021700Y037050D03*
D26*
X021392Y037367D03*
X021092Y037583D03*
X020658Y036733D03*
X020642Y036717D03*
X020608Y036683D03*
X020592Y036667D03*
X020558Y036633D03*
X020542Y036617D03*
X020508Y036583D03*
X020492Y036567D03*
X020458Y036533D03*
X020442Y036517D03*
X020408Y036483D03*
X020392Y036467D03*
X020358Y036433D03*
X020342Y036417D03*
X020308Y036383D03*
X020292Y036367D03*
X019808Y035867D03*
X019758Y035817D03*
X019708Y035767D03*
X019658Y035717D03*
X019608Y035667D03*
X019558Y035617D03*
X019508Y035567D03*
X019108Y035033D03*
X019358Y034483D03*
X020742Y034467D03*
D27*
X021817Y035333D03*
X020683Y036767D03*
X021383Y037383D03*
X021700Y037033D03*
X019867Y036417D03*
X019850Y036433D03*
X019867Y035933D03*
X019850Y035917D03*
X019483Y035533D03*
X019467Y035517D03*
X019433Y035483D03*
X019417Y035467D03*
X019383Y035433D03*
X019367Y035417D03*
X019400Y034467D03*
X018233Y036333D03*
D28*
X018883Y037433D03*
X018933Y037467D03*
X019833Y036467D03*
X020283Y035883D03*
X020333Y035833D03*
X020383Y035783D03*
X020783Y034483D03*
X021167Y037533D03*
D29*
X020817Y034500D03*
D30*
X019325Y034500D03*
X018308Y036550D03*
X018858Y037400D03*
X018908Y037450D03*
X020992Y037300D03*
X021692Y037000D03*
D31*
X021950Y036083D03*
X021800Y035383D03*
X020850Y034517D03*
X019250Y034533D03*
X018850Y037683D03*
D32*
X018817Y037367D03*
X019283Y037883D03*
X018383Y036767D03*
X019283Y034517D03*
X020883Y037083D03*
X021933Y036317D03*
X021933Y035833D03*
D33*
X021633Y035133D03*
X021600Y035083D03*
X021567Y035033D03*
X021550Y035017D03*
X021667Y034767D03*
X020883Y034533D03*
X020917Y035267D03*
X020817Y035367D03*
X020783Y035433D03*
X020750Y035467D03*
X020733Y035483D03*
X020883Y037117D03*
X020917Y037233D03*
X021017Y037333D03*
X021417Y037317D03*
X021450Y037283D03*
X021467Y037267D03*
X021500Y037217D03*
X021683Y036967D03*
X021517Y037567D03*
X021117Y037833D03*
X020667Y037983D03*
X020200Y038033D03*
X020200Y038067D03*
X019733Y038033D03*
X019733Y038017D03*
X019267Y037917D03*
X018500Y037383D03*
X018617Y037133D03*
X018583Y037083D03*
X018567Y037067D03*
X018550Y037033D03*
X018533Y037017D03*
X019167Y034583D03*
D34*
X019058Y034650D03*
X019092Y035900D03*
X019092Y035950D03*
X019092Y036000D03*
X019092Y036200D03*
X019092Y036250D03*
X018392Y036700D03*
X018358Y036600D03*
X019608Y036650D03*
X019658Y036600D03*
X019692Y036550D03*
X020458Y035750D03*
X020508Y035700D03*
X020808Y035400D03*
X021358Y035900D03*
X021358Y035950D03*
X021358Y036000D03*
X021358Y036050D03*
X021358Y036100D03*
X021358Y036150D03*
X021358Y036200D03*
X021358Y036250D03*
X021692Y036950D03*
X021808Y037200D03*
X021642Y035150D03*
X021608Y035100D03*
X020908Y034550D03*
D35*
X020875Y035300D03*
X020825Y035350D03*
X021875Y036550D03*
X019275Y037900D03*
X018625Y037150D03*
X018275Y036300D03*
X019225Y034550D03*
D36*
X019017Y034683D03*
X019117Y034983D03*
X018283Y036067D03*
X018283Y036083D03*
X018283Y036117D03*
X018283Y036133D03*
X018283Y036167D03*
X018283Y036183D03*
X018283Y036217D03*
X018283Y036233D03*
X018283Y036267D03*
X018283Y036283D03*
X018367Y036633D03*
X018383Y036683D03*
X018817Y037733D03*
X019717Y038083D03*
X020683Y038033D03*
X021133Y037867D03*
X020883Y037183D03*
X020883Y037167D03*
X020883Y037133D03*
X021717Y036883D03*
X021783Y035433D03*
X021783Y035417D03*
X021017Y035133D03*
X020983Y035183D03*
X020683Y035517D03*
X020667Y035533D03*
X020633Y035567D03*
X020617Y035583D03*
X020583Y035617D03*
X020567Y035633D03*
X020533Y035667D03*
X020517Y035683D03*
X020967Y034583D03*
X020933Y034567D03*
X019667Y036583D03*
D37*
X019742Y037983D03*
X020192Y038017D03*
X020658Y037967D03*
X021008Y037317D03*
X020958Y037267D03*
X021408Y037333D03*
X021692Y036983D03*
X021108Y037817D03*
X020842Y035333D03*
X020858Y035317D03*
X020892Y035283D03*
X019242Y035233D03*
X019192Y034567D03*
X018608Y037117D03*
D38*
X019292Y036950D03*
X019342Y036900D03*
X019392Y036850D03*
X019442Y036800D03*
X019492Y036750D03*
X019542Y036700D03*
X018675Y035900D03*
X018308Y035850D03*
X018292Y035950D03*
X018292Y036000D03*
X018825Y034850D03*
X018875Y034800D03*
X020975Y034600D03*
X021042Y035100D03*
X021008Y035150D03*
X021792Y035450D03*
X021808Y035500D03*
X021825Y035550D03*
X021758Y036800D03*
X021708Y036900D03*
X020892Y037200D03*
D39*
X020883Y037100D03*
X021433Y037300D03*
X021517Y037200D03*
X021917Y035850D03*
X021867Y035600D03*
X021783Y035400D03*
X021583Y035050D03*
X020767Y035450D03*
X019133Y034600D03*
X018533Y037000D03*
X018567Y037050D03*
X020200Y038050D03*
D40*
X020200Y038167D03*
X021900Y036033D03*
X021900Y036017D03*
X021900Y035983D03*
X021900Y035967D03*
X021900Y035933D03*
X021900Y035917D03*
X021900Y035883D03*
X021050Y035083D03*
X021050Y034667D03*
X021000Y034617D03*
X018800Y034883D03*
X018750Y034933D03*
X018600Y035133D03*
X018400Y035517D03*
X018350Y035667D03*
X018350Y035683D03*
X018300Y035917D03*
D41*
X018358Y036617D03*
X018392Y036717D03*
X018392Y036733D03*
X019092Y036283D03*
X019092Y036267D03*
X019092Y036233D03*
X019092Y036217D03*
X019092Y036183D03*
X019092Y035983D03*
X019092Y035967D03*
X019092Y035933D03*
X019092Y035917D03*
X019642Y036617D03*
X020442Y035767D03*
X020492Y035717D03*
X020792Y035417D03*
X020808Y035383D03*
X020942Y035233D03*
X020958Y035217D03*
X021592Y035067D03*
X021358Y035917D03*
X021358Y035933D03*
X021358Y035967D03*
X021358Y035983D03*
X021358Y036017D03*
X021358Y036033D03*
X021358Y036067D03*
X021358Y036083D03*
X021358Y036117D03*
X021358Y036133D03*
X021358Y036167D03*
X021358Y036183D03*
X021358Y036217D03*
X021358Y036233D03*
X021358Y036267D03*
X021358Y036283D03*
X021492Y037233D03*
X019258Y037933D03*
X019042Y034667D03*
X019092Y034633D03*
X019108Y034617D03*
D42*
X018817Y034867D03*
X018767Y034917D03*
X018717Y034967D03*
X018683Y035017D03*
X018667Y035033D03*
X018633Y035083D03*
X018567Y035183D03*
X018533Y035233D03*
X018517Y035267D03*
X018483Y035333D03*
X018467Y035367D03*
X018433Y035433D03*
X018417Y035483D03*
X018383Y035567D03*
X018367Y035617D03*
X018367Y035633D03*
X018333Y035717D03*
X018333Y035733D03*
X018333Y035767D03*
X018317Y035783D03*
X018317Y035817D03*
X018317Y035833D03*
X018667Y035917D03*
X018667Y035933D03*
X018667Y035967D03*
X018667Y036217D03*
X018667Y036233D03*
X018667Y036267D03*
X019267Y036983D03*
X019667Y036567D03*
X019267Y035217D03*
X020933Y035917D03*
X020933Y035933D03*
X021067Y035067D03*
X021017Y034633D03*
X021833Y035583D03*
X021883Y036333D03*
X021883Y036367D03*
X021883Y036383D03*
X021867Y036417D03*
X021867Y036433D03*
X021867Y036467D03*
D43*
X021867Y036450D03*
X021883Y036400D03*
X021883Y036350D03*
X021067Y035050D03*
X021033Y034650D03*
X021683Y034750D03*
X020933Y035900D03*
X019233Y038000D03*
X018483Y037400D03*
X018667Y036250D03*
X018667Y035950D03*
X018317Y035800D03*
X018333Y035750D03*
X018617Y035100D03*
X018733Y034950D03*
X018783Y034900D03*
D44*
X018708Y034983D03*
X018642Y035067D03*
X018608Y035117D03*
X018542Y035217D03*
X018508Y035283D03*
X018492Y035317D03*
X018458Y035383D03*
X018442Y035417D03*
X018392Y035533D03*
X018658Y035983D03*
X018658Y036017D03*
X018658Y036183D03*
X019258Y037017D03*
X019242Y037033D03*
X019208Y037067D03*
X019708Y038133D03*
X020208Y038183D03*
X020692Y038083D03*
X021192Y037033D03*
X022042Y036783D03*
X021092Y035017D03*
X021108Y034967D03*
X021058Y034683D03*
D45*
X021075Y034700D03*
X020925Y035950D03*
X020925Y036000D03*
X019225Y037050D03*
X018225Y037000D03*
X018375Y035600D03*
X018425Y035450D03*
X018475Y035350D03*
X018525Y035250D03*
D46*
X019000Y034700D03*
X020550Y035650D03*
X020600Y035600D03*
X020650Y035550D03*
X020700Y035500D03*
X019250Y037950D03*
X020200Y038100D03*
D47*
X019025Y037233D03*
X021725Y034717D03*
D48*
X021100Y034733D03*
X021083Y034717D03*
X021117Y034933D03*
X021100Y034983D03*
X020917Y036017D03*
X019267Y035183D03*
X019233Y035083D03*
X019217Y035067D03*
X019117Y034967D03*
X018467Y037417D03*
X019700Y038167D03*
X020200Y038217D03*
X020700Y038117D03*
D49*
X020692Y038067D03*
X021142Y037883D03*
X021525Y037583D03*
X021692Y036933D03*
X021725Y036867D03*
X021742Y036833D03*
X021742Y036817D03*
X021758Y036783D03*
X021858Y036517D03*
X021858Y036483D03*
X021892Y035867D03*
X021825Y035567D03*
X021825Y035533D03*
X021808Y035517D03*
X021808Y035483D03*
X021792Y035467D03*
X021025Y035117D03*
X019575Y036667D03*
X019558Y036683D03*
X019525Y036717D03*
X019508Y036733D03*
X019475Y036767D03*
X019458Y036783D03*
X019425Y036817D03*
X019408Y036833D03*
X019375Y036867D03*
X019358Y036883D03*
X019325Y036917D03*
X019308Y036933D03*
X019275Y036967D03*
X019242Y037983D03*
X019708Y038117D03*
X020208Y038133D03*
X018675Y036283D03*
X018292Y036033D03*
X018292Y036017D03*
X018292Y035983D03*
X018292Y035967D03*
X018292Y035933D03*
X018308Y035883D03*
X018308Y035867D03*
X018842Y034833D03*
X018858Y034817D03*
X018892Y034783D03*
X018908Y034767D03*
X018975Y034717D03*
D50*
X018992Y035067D03*
X018992Y035217D03*
X019008Y035233D03*
X019258Y035167D03*
X019258Y035133D03*
X021108Y034767D03*
X021708Y034733D03*
X019708Y038183D03*
X018808Y037767D03*
D51*
X019250Y037967D03*
X020200Y038083D03*
X020200Y038117D03*
X020900Y037217D03*
X021700Y036917D03*
X021000Y035167D03*
X018950Y034733D03*
X018350Y036567D03*
X018350Y036583D03*
D52*
X019750Y038200D03*
X021450Y034750D03*
D53*
X021108Y034750D03*
X019892Y036550D03*
X019258Y035150D03*
X019242Y035100D03*
D54*
X018933Y034750D03*
X018283Y036050D03*
X018283Y036100D03*
X018283Y036150D03*
X018283Y036200D03*
X018283Y036250D03*
X019717Y038100D03*
X020683Y038050D03*
X020883Y037150D03*
X021733Y036850D03*
X020967Y035200D03*
D55*
X021450Y034767D03*
X020283Y035767D03*
X021267Y037117D03*
X018983Y037283D03*
D56*
X018875Y037417D03*
X018842Y037383D03*
X018625Y037167D03*
X018508Y037367D03*
X019108Y035017D03*
X020892Y037067D03*
X020975Y037283D03*
X021492Y037533D03*
X021892Y036567D03*
X021808Y035367D03*
X021542Y034983D03*
X021658Y034783D03*
D57*
X021450Y034783D03*
X018450Y037433D03*
D58*
X021225Y037067D03*
X021125Y034917D03*
X021125Y034883D03*
X021125Y034817D03*
X021125Y034783D03*
D59*
X021542Y034900D03*
X021608Y034800D03*
X021992Y035700D03*
X021992Y035750D03*
X020058Y036150D03*
X018992Y037550D03*
D60*
X021125Y034900D03*
X021125Y034800D03*
D61*
X021133Y034833D03*
X021133Y034867D03*
X019167Y037083D03*
D62*
X020092Y036100D03*
X021558Y034850D03*
X018192Y036400D03*
X018192Y036450D03*
X018208Y036500D03*
D63*
X018983Y035200D03*
X021133Y034850D03*
D64*
X021550Y034867D03*
X020050Y036183D03*
X019000Y037567D03*
X021700Y037117D03*
D65*
X021542Y034883D03*
X018192Y036417D03*
X018192Y036433D03*
X018208Y036483D03*
X018208Y036517D03*
X018342Y036867D03*
D66*
X019300Y035367D03*
X019800Y036483D03*
X020150Y037983D03*
X021550Y034933D03*
D67*
X021550Y034950D03*
X021967Y035800D03*
X020667Y036750D03*
X021067Y037600D03*
X019500Y035550D03*
X019450Y035500D03*
X019400Y035450D03*
X019117Y035050D03*
X018367Y036800D03*
X018967Y037500D03*
D68*
X020200Y038200D03*
X021150Y037900D03*
X021533Y037600D03*
X021217Y037050D03*
X021950Y035150D03*
X021117Y034950D03*
D69*
X021550Y034967D03*
X021950Y035817D03*
X021900Y036583D03*
X021700Y037017D03*
X020350Y035817D03*
X020300Y035867D03*
X018950Y037483D03*
X018250Y036317D03*
D70*
X020200Y038000D03*
X021400Y037350D03*
X021550Y035000D03*
D71*
X021092Y035000D03*
X021042Y037350D03*
X020692Y038100D03*
X019708Y038150D03*
X018808Y037750D03*
X019258Y037000D03*
X018658Y036200D03*
X018658Y036000D03*
X018358Y035650D03*
X018392Y035550D03*
X018408Y035500D03*
X018558Y035200D03*
X018592Y035150D03*
X018658Y035050D03*
X018692Y035000D03*
X019258Y035200D03*
D72*
X019108Y035000D03*
X018392Y036750D03*
X018592Y037100D03*
X018842Y037700D03*
X019742Y038000D03*
X020658Y037950D03*
X020942Y037250D03*
X021092Y037800D03*
X021508Y037550D03*
D73*
X021825Y037217D03*
X020925Y035983D03*
X020925Y035967D03*
X021075Y035033D03*
X019225Y038017D03*
X018375Y035583D03*
X018425Y035467D03*
X018575Y035167D03*
D74*
X018975Y035183D03*
X018975Y035133D03*
X018975Y035117D03*
X018975Y035083D03*
X019892Y036567D03*
X019142Y037117D03*
X019125Y037133D03*
X019092Y037167D03*
X019242Y038033D03*
X021242Y037083D03*
X021542Y037617D03*
X021858Y037233D03*
D75*
X019158Y037100D03*
X019108Y037150D03*
X018958Y035150D03*
X018975Y035100D03*
D76*
X019625Y036633D03*
X020475Y035733D03*
X021625Y035117D03*
X021925Y036067D03*
X021875Y036533D03*
X020675Y038017D03*
X019725Y038067D03*
X018825Y037717D03*
X018375Y036667D03*
D77*
X019250Y035117D03*
X021150Y037917D03*
D78*
X021358Y037467D03*
X021708Y037133D03*
X020825Y036833D03*
X020092Y036083D03*
X019375Y037733D03*
X018375Y036967D03*
X018358Y036933D03*
X018358Y036917D03*
X018342Y036883D03*
X021792Y035183D03*
X021792Y035167D03*
D79*
X020683Y038133D03*
X019083Y037183D03*
X018967Y035167D03*
D80*
X018342Y036900D03*
X021808Y035200D03*
D81*
X021833Y035250D03*
X021367Y037450D03*
D82*
X021475Y037250D03*
X021125Y037850D03*
X020675Y038000D03*
X019725Y038050D03*
X018375Y036650D03*
X020925Y035250D03*
D83*
X019867Y036350D03*
X019200Y035300D03*
X019167Y035250D03*
X018350Y036850D03*
X019300Y037700D03*
X021700Y037100D03*
X021900Y036750D03*
X021917Y036700D03*
X021933Y036650D03*
D84*
X022025Y036167D03*
X021975Y035667D03*
X021975Y035633D03*
X021375Y037433D03*
X020075Y036133D03*
X019225Y035317D03*
X019175Y035267D03*
D85*
X021833Y035300D03*
X022017Y036200D03*
X022017Y036250D03*
D86*
X021900Y036050D03*
X021900Y036000D03*
X021900Y035950D03*
X021900Y035900D03*
X021850Y036500D03*
X020200Y038150D03*
X018300Y035900D03*
X018350Y035700D03*
X018450Y035400D03*
X018500Y035300D03*
D87*
X019242Y035333D03*
X020092Y036117D03*
X019258Y037683D03*
X021992Y035767D03*
X021992Y035733D03*
X021992Y035717D03*
D88*
X021808Y035350D03*
X019842Y035900D03*
X019792Y035850D03*
X019742Y035800D03*
X019692Y035750D03*
X019642Y035700D03*
X019592Y035650D03*
X019542Y035600D03*
X019842Y036450D03*
D89*
X019792Y036500D03*
X019275Y035350D03*
X020992Y037650D03*
D90*
X020275Y035917D03*
X019325Y035383D03*
X019025Y036017D03*
X019025Y036033D03*
X019025Y036067D03*
X019025Y036083D03*
X019025Y036117D03*
X019025Y036133D03*
X019025Y036167D03*
D91*
X020833Y035500D03*
X021133Y037950D03*
D92*
X021125Y037567D03*
X019825Y035883D03*
X019775Y035833D03*
X019725Y035783D03*
X019675Y035733D03*
X019625Y035683D03*
X019575Y035633D03*
X019525Y035583D03*
X018375Y036783D03*
X018625Y037183D03*
D93*
X018617Y037217D03*
X018967Y037517D03*
X018367Y036817D03*
X020267Y035933D03*
X021367Y036317D03*
X021367Y036333D03*
X021367Y036367D03*
X021367Y036383D03*
X021367Y036417D03*
X021367Y036433D03*
X021917Y036617D03*
X021983Y035783D03*
X021933Y035617D03*
D94*
X021975Y035650D03*
X022025Y036150D03*
X018625Y037250D03*
D95*
X021200Y035883D03*
X021200Y035867D03*
X021200Y035833D03*
X021200Y035817D03*
X021200Y035783D03*
X021200Y035767D03*
X021200Y035733D03*
D96*
X019508Y037783D03*
X018925Y036433D03*
X018925Y036417D03*
X018925Y036383D03*
X018925Y036367D03*
X018925Y036333D03*
X018925Y036317D03*
X018925Y035883D03*
X018925Y035867D03*
X018925Y035833D03*
X018925Y035817D03*
X018925Y035783D03*
X018925Y035767D03*
X018925Y035733D03*
D97*
X021200Y035750D03*
X021200Y035800D03*
X021200Y035850D03*
D98*
X021967Y036100D03*
X020367Y035800D03*
X020317Y035850D03*
D99*
X020275Y035900D03*
X020275Y036350D03*
X020325Y036400D03*
X020375Y036450D03*
X020425Y036500D03*
X020475Y036550D03*
X020525Y036600D03*
X020575Y036650D03*
X020625Y036700D03*
X021975Y036300D03*
D100*
X020075Y035950D03*
D101*
X020083Y035967D03*
X019083Y037667D03*
D102*
X020033Y036267D03*
X020083Y035983D03*
D103*
X020083Y036000D03*
X020033Y036250D03*
D104*
X020083Y036017D03*
D105*
X020092Y036033D03*
D106*
X020092Y036050D03*
X020958Y036950D03*
X020992Y037000D03*
X021342Y037500D03*
D107*
X020725Y036800D03*
X019025Y036150D03*
X019025Y036100D03*
X019025Y036050D03*
X018625Y037200D03*
D108*
X020092Y036067D03*
X021358Y037483D03*
D109*
X021042Y037617D03*
X021008Y037633D03*
X020908Y037033D03*
X020708Y036783D03*
X021992Y036117D03*
D110*
X022017Y036183D03*
X022017Y036217D03*
X022017Y036233D03*
X022017Y036267D03*
X022017Y036283D03*
X021383Y037417D03*
X019867Y036383D03*
X018983Y037533D03*
D111*
X018633Y037317D03*
X020050Y036217D03*
X020883Y036867D03*
X020900Y036883D03*
X020933Y036917D03*
X020967Y036967D03*
X021000Y037017D03*
D112*
X020050Y036233D03*
D113*
X020025Y036283D03*
D114*
X019867Y036400D03*
X021367Y036400D03*
X021367Y036450D03*
X021367Y036350D03*
X021367Y036300D03*
X021383Y037400D03*
X018217Y036350D03*
D115*
X020025Y036300D03*
D116*
X020033Y036317D03*
X020033Y036333D03*
X020833Y037767D03*
D117*
X019642Y036467D03*
D118*
X019892Y036583D03*
X019042Y037217D03*
X018992Y037267D03*
X018808Y037783D03*
X021142Y037933D03*
X021542Y037633D03*
D119*
X020942Y037700D03*
X020858Y036850D03*
D120*
X020942Y036933D03*
D121*
X018633Y037300D03*
X018367Y036950D03*
D122*
X020975Y036983D03*
D123*
X021667Y037183D03*
X021683Y037167D03*
X019017Y037583D03*
X018383Y036983D03*
D124*
X020900Y037050D03*
X021150Y037550D03*
D125*
X021258Y037100D03*
X019058Y037200D03*
X019008Y037250D03*
D126*
X018975Y037300D03*
X021875Y037250D03*
D127*
X018625Y037267D03*
D128*
X018633Y037333D03*
X019033Y037617D03*
X019467Y037767D03*
X020917Y037717D03*
X021333Y037517D03*
D129*
X018642Y037350D03*
D130*
X019042Y037633D03*
D131*
X019067Y037650D03*
D132*
X020900Y037733D03*
D133*
X020867Y037750D03*
D134*
X019425Y037750D03*
D135*
X020783Y037783D03*
D136*
X020533Y037800D03*
D137*
X019600Y037800D03*
D138*
X018808Y037800D03*
D139*
X020017Y037817D03*
D140*
X020000Y037833D03*
D141*
X019983Y037850D03*
D142*
X019975Y037867D03*
D143*
X020125Y037883D03*
D144*
X020150Y037900D03*
D145*
X020175Y037917D03*
D146*
X020200Y037933D03*
D147*
X020042Y037950D03*
D148*
X019992Y037967D03*
D149*
X019250Y038050D03*
D150*
X017365Y037264D02*
X017244Y037115D01*
X017275Y037055D01*
X017296Y036991D01*
X017486Y036972D01*
X017486Y036828D01*
X017296Y036809D01*
X017275Y036745D01*
X017244Y036685D01*
X017365Y036536D01*
X017264Y036435D01*
X017115Y036556D01*
X017055Y036525D01*
X016971Y036729D01*
X017008Y036751D01*
X017040Y036780D01*
X017064Y036816D01*
X017079Y036857D01*
X017085Y036900D01*
X017079Y036944D01*
X017064Y036985D01*
X017039Y037022D01*
X017006Y037051D01*
X016967Y037072D01*
X016924Y037083D01*
X016880Y037083D01*
X016837Y037073D01*
X016798Y037053D01*
X016764Y037025D01*
X016738Y036989D01*
X016722Y036948D01*
X016716Y036904D01*
X016720Y036860D01*
X016735Y036818D01*
X016759Y036781D01*
X016791Y036751D01*
X016829Y036729D01*
X016745Y036525D01*
X016685Y036556D01*
X016536Y036435D01*
X016435Y036536D01*
X016556Y036685D01*
X016525Y036745D01*
X016504Y036809D01*
X016314Y036828D01*
X016314Y036972D01*
X016504Y036991D01*
X016525Y037055D01*
X016556Y037115D01*
X016435Y037264D01*
X016536Y037365D01*
X016685Y037244D01*
X016745Y037275D01*
X016809Y037296D01*
X016828Y037486D01*
X016972Y037486D01*
X016991Y037296D01*
X017055Y037275D01*
X017115Y037244D01*
X017264Y037365D01*
X017365Y037264D01*
X017338Y037291D02*
X017172Y037291D01*
X017243Y037348D02*
X017281Y037348D01*
X017341Y037233D02*
X016459Y037233D01*
X016462Y037291D02*
X016628Y037291D01*
X016557Y037348D02*
X016519Y037348D01*
X016506Y037176D02*
X017294Y037176D01*
X017247Y037118D02*
X016553Y037118D01*
X016528Y037061D02*
X016812Y037061D01*
X016749Y037003D02*
X016508Y037003D01*
X016314Y036945D02*
X016721Y036945D01*
X016717Y036888D02*
X016314Y036888D01*
X016314Y036830D02*
X016730Y036830D01*
X016768Y036773D02*
X016516Y036773D01*
X016540Y036715D02*
X016823Y036715D01*
X016800Y036658D02*
X016534Y036658D01*
X016487Y036600D02*
X016776Y036600D01*
X016752Y036543D02*
X016710Y036543D01*
X016669Y036543D02*
X016440Y036543D01*
X016486Y036485D02*
X016598Y036485D01*
X017000Y036658D02*
X017266Y036658D01*
X017260Y036715D02*
X016977Y036715D01*
X017032Y036773D02*
X017284Y036773D01*
X017313Y036600D02*
X017024Y036600D01*
X017048Y036543D02*
X017090Y036543D01*
X017131Y036543D02*
X017360Y036543D01*
X017314Y036485D02*
X017202Y036485D01*
X017070Y036830D02*
X017486Y036830D01*
X017486Y036888D02*
X017083Y036888D01*
X017079Y036945D02*
X017486Y036945D01*
X017292Y037003D02*
X017051Y037003D01*
X016988Y037061D02*
X017272Y037061D01*
X017006Y037291D02*
X016794Y037291D01*
X016814Y037348D02*
X016986Y037348D01*
X016980Y037406D02*
X016820Y037406D01*
X016826Y037463D02*
X016974Y037463D01*
D151*
X021455Y028952D02*
X021455Y028852D01*
X021555Y028952D01*
X021580Y028952D01*
X021605Y028927D01*
X021605Y028877D01*
X021580Y028852D01*
X021580Y028805D02*
X021605Y028780D01*
X021605Y028705D01*
X021455Y028705D01*
X021455Y028780D01*
X021480Y028805D01*
X021580Y028805D01*
X017245Y018508D02*
X017095Y018508D01*
X017095Y018458D02*
X017095Y018558D01*
X017195Y018458D02*
X017245Y018508D01*
X017220Y018410D02*
X017245Y018385D01*
X017245Y018310D01*
X017095Y018310D01*
X017095Y018385D01*
X017120Y018410D01*
X017220Y018410D01*
D152*
X019947Y021899D02*
X019870Y021976D01*
X019870Y022129D01*
X019947Y022206D01*
X019947Y022360D02*
X019870Y022436D01*
X019870Y022590D01*
X019947Y022667D01*
X020023Y022667D01*
X020100Y022590D01*
X020100Y022360D01*
X019947Y022360D01*
X020100Y022360D02*
X020254Y022513D01*
X020330Y022667D01*
X020254Y022206D02*
X020330Y022129D01*
X020330Y021976D01*
X020254Y021899D01*
X019947Y021899D01*
X019384Y023470D02*
X019231Y023470D01*
X019154Y023547D01*
X019001Y023470D02*
X018694Y023777D01*
X018694Y023854D01*
X018771Y023930D01*
X018924Y023930D01*
X019001Y023854D01*
X019029Y023970D02*
X019182Y023970D01*
X019259Y024047D01*
X018952Y024354D01*
X018952Y024047D01*
X019029Y023970D01*
X019001Y024070D02*
X018694Y024377D01*
X018694Y024454D01*
X018771Y024530D01*
X018924Y024530D01*
X019001Y024454D01*
X019029Y024430D02*
X018952Y024354D01*
X019029Y024430D02*
X019182Y024430D01*
X019259Y024354D01*
X019259Y024047D01*
X019231Y024070D02*
X019154Y024147D01*
X019231Y024070D02*
X019384Y024070D01*
X019461Y024147D01*
X019461Y024454D01*
X019384Y024530D01*
X019231Y024530D01*
X019154Y024454D01*
X019566Y024430D02*
X019566Y023970D01*
X019413Y023970D02*
X019720Y023970D01*
X019873Y024047D02*
X019950Y023970D01*
X020103Y023970D01*
X020180Y024047D01*
X020180Y024354D01*
X020103Y024430D01*
X019950Y024430D01*
X019873Y024354D01*
X019720Y024277D02*
X019566Y024430D01*
X019720Y024570D02*
X019720Y024647D01*
X019413Y024954D01*
X019413Y025030D01*
X019720Y025030D01*
X019720Y025170D02*
X019413Y025170D01*
X019566Y025170D02*
X019566Y025630D01*
X019720Y025477D01*
X019873Y025554D02*
X019950Y025630D01*
X020103Y025630D01*
X020180Y025554D01*
X020180Y025247D01*
X020103Y025170D01*
X019950Y025170D01*
X019873Y025247D01*
X019950Y025030D02*
X019873Y024954D01*
X019950Y025030D02*
X020103Y025030D01*
X020180Y024954D01*
X020180Y024647D01*
X020103Y024570D01*
X019950Y024570D01*
X019873Y024647D01*
X019384Y023930D02*
X019461Y023854D01*
X019461Y023547D01*
X019384Y023470D01*
X019001Y023470D02*
X018694Y023470D01*
X018540Y023700D02*
X018233Y023700D01*
X018310Y023470D02*
X018310Y023930D01*
X018540Y023700D01*
X018464Y024070D02*
X018310Y024070D01*
X018233Y024147D01*
X018233Y024223D01*
X018310Y024300D01*
X018387Y024300D01*
X018310Y024300D02*
X018233Y024377D01*
X018233Y024454D01*
X018310Y024530D01*
X018464Y024530D01*
X018540Y024454D01*
X018540Y024147D02*
X018464Y024070D01*
X018694Y024070D02*
X019001Y024070D01*
X019154Y023854D02*
X019231Y023930D01*
X019384Y023930D01*
X019029Y025170D02*
X019029Y025630D01*
X019259Y025400D01*
X018952Y025400D01*
X019054Y032439D02*
X018747Y032439D01*
X018670Y032516D01*
X018670Y032669D01*
X018747Y032746D01*
X018670Y032899D02*
X018977Y033206D01*
X019054Y033206D01*
X019130Y033129D01*
X019130Y032976D01*
X019054Y032899D01*
X019054Y032746D02*
X019130Y032669D01*
X019130Y032516D01*
X019054Y032439D01*
X018670Y032899D02*
X018670Y033206D01*
X018747Y033360D02*
X018670Y033436D01*
X018670Y033590D01*
X018747Y033667D01*
X018823Y033667D01*
X018900Y033590D01*
X018900Y033360D01*
X018747Y033360D01*
X018900Y033360D02*
X019054Y033513D01*
X019130Y033667D01*
X019870Y033590D02*
X019870Y033436D01*
X019947Y033360D01*
X020100Y033360D02*
X020177Y033513D01*
X020177Y033590D01*
X020100Y033667D01*
X019947Y033667D01*
X019870Y033590D01*
X020100Y033360D02*
X020330Y033360D01*
X020330Y033667D01*
X020254Y033206D02*
X020330Y033129D01*
X020330Y032976D01*
X020254Y032899D01*
X020254Y032746D02*
X020330Y032669D01*
X020330Y032516D01*
X020254Y032439D01*
X019947Y032439D01*
X019870Y032516D01*
X019870Y032669D01*
X019947Y032746D01*
X019870Y032899D02*
X019870Y033206D01*
X019870Y032899D02*
X020177Y033206D01*
X020254Y033206D01*
D153*
X021004Y022844D02*
X021004Y022056D01*
X021496Y022056D02*
X021496Y022844D01*
D154*
X020855Y022004D02*
X020635Y022004D01*
X020635Y021931D02*
X020635Y022078D01*
X020782Y021931D02*
X020855Y022004D01*
X020635Y021857D02*
X020635Y021710D01*
X020855Y021710D01*
D155*
X021250Y022450D03*
M02*
