G75*
%MOIN*%
%OFA0B0*%
%FSLAX24Y24*%
%IPPOS*%
%LPD*%
%AMOC8*
5,1,8,0,0,1.08239X$1,22.5*
%
%ADD10C,0.0400*%
%ADD11R,0.0354X0.0276*%
%ADD12R,0.0315X0.0315*%
%ADD13R,0.0157X0.0551*%
%ADD14R,0.0787X0.0748*%
%ADD15R,0.0866X0.0748*%
%ADD16R,0.0177X0.0276*%
%ADD17R,0.0394X0.0394*%
%ADD18R,0.0157X0.0787*%
%ADD19R,0.0591X0.0118*%
%ADD20R,0.0118X0.0591*%
%ADD21R,0.0276X0.0354*%
%ADD22R,0.0433X0.0394*%
%ADD23R,0.0472X0.0394*%
%ADD24R,0.0472X0.0236*%
%ADD25R,0.0787X0.0394*%
%ADD26R,0.1181X0.0394*%
%ADD27R,0.0394X0.0787*%
%ADD28R,0.0394X0.1181*%
%ADD29C,0.0060*%
%ADD30C,0.0250*%
%ADD31C,0.0100*%
%ADD32C,0.0050*%
%ADD33C,0.0160*%
D10*
X022150Y016550D03*
D11*
X019400Y021144D03*
X019400Y021656D03*
X018650Y021656D03*
X018650Y021144D03*
X018150Y020656D03*
X017650Y020656D03*
X017650Y020144D03*
X018150Y020144D03*
X020400Y027644D03*
X020900Y027644D03*
X020900Y028156D03*
X020400Y028156D03*
X015400Y029144D03*
X015400Y029656D03*
D12*
X015400Y030105D03*
X015400Y030695D03*
X017650Y021695D03*
X018150Y021695D03*
X018150Y021105D03*
X017650Y021105D03*
D13*
X018638Y017572D03*
X018894Y017572D03*
X019150Y017572D03*
X019406Y017572D03*
X019662Y017572D03*
D14*
X019642Y016450D03*
X018658Y016450D03*
D15*
X017575Y016450D03*
X020725Y016450D03*
D16*
X019207Y018145D03*
X018893Y018145D03*
X018893Y018755D03*
X019207Y018755D03*
D17*
X016715Y020613D03*
X016085Y020613D03*
X016085Y022187D03*
X016715Y022187D03*
X021585Y027113D03*
X022215Y027113D03*
X022215Y028687D03*
X021585Y028687D03*
D18*
X020872Y021400D03*
X020400Y021400D03*
X019928Y021400D03*
D19*
X021394Y023174D03*
X021394Y023370D03*
X021394Y023567D03*
X021394Y023764D03*
X021394Y023961D03*
X021394Y024158D03*
X021394Y024355D03*
X021394Y024552D03*
X021394Y024748D03*
X021394Y024945D03*
X021394Y025142D03*
X021394Y025339D03*
X021394Y025536D03*
X021394Y025733D03*
X021394Y025930D03*
X021394Y026126D03*
X016906Y026126D03*
X016906Y025930D03*
X016906Y025733D03*
X016906Y025536D03*
X016906Y025339D03*
X016906Y025142D03*
X016906Y024945D03*
X016906Y024748D03*
X016906Y024552D03*
X016906Y024355D03*
X016906Y024158D03*
X016906Y023961D03*
X016906Y023764D03*
X016906Y023567D03*
X016906Y023370D03*
X016906Y023174D03*
D20*
X017674Y022406D03*
X017870Y022406D03*
X018067Y022406D03*
X018264Y022406D03*
X018461Y022406D03*
X018658Y022406D03*
X018855Y022406D03*
X019052Y022406D03*
X019248Y022406D03*
X019445Y022406D03*
X019642Y022406D03*
X019839Y022406D03*
X020036Y022406D03*
X020233Y022406D03*
X020430Y022406D03*
X020626Y022406D03*
X020626Y026894D03*
X020430Y026894D03*
X020233Y026894D03*
X020036Y026894D03*
X019839Y026894D03*
X019642Y026894D03*
X019445Y026894D03*
X019248Y026894D03*
X019052Y026894D03*
X018855Y026894D03*
X018658Y026894D03*
X018461Y026894D03*
X018264Y026894D03*
X018067Y026894D03*
X017870Y026894D03*
X017674Y026894D03*
D21*
X016156Y024000D03*
X015644Y024000D03*
X022144Y024250D03*
X022144Y023400D03*
X022144Y022900D03*
X022144Y022400D03*
X022656Y022400D03*
X022656Y022900D03*
X022656Y023400D03*
X022656Y024250D03*
X022656Y025350D03*
X022144Y025350D03*
X022144Y020400D03*
X022656Y020400D03*
D22*
X022735Y021900D03*
X022065Y021900D03*
D23*
X021967Y021150D03*
X022833Y021150D03*
D24*
X019617Y027768D03*
X019617Y028122D03*
X017136Y028122D03*
X017136Y027768D03*
D25*
X016197Y030187D03*
X022103Y030187D03*
D26*
X021906Y030975D03*
X021906Y031762D03*
X021906Y032550D03*
X021906Y033337D03*
X021906Y034124D03*
X021906Y034912D03*
X021906Y035699D03*
X016394Y035699D03*
X016394Y034912D03*
X016394Y034124D03*
X016394Y033337D03*
X016394Y032550D03*
X016394Y031762D03*
X016394Y030975D03*
D27*
X017181Y029597D03*
X021119Y029597D03*
D28*
X020331Y029794D03*
X019544Y029794D03*
X018756Y029794D03*
X017969Y029794D03*
D29*
X017969Y030081D01*
X017550Y030500D01*
X017400Y030900D02*
X017150Y030650D01*
X017225Y030975D02*
X017650Y031400D01*
X017400Y030900D02*
X018150Y030900D01*
X018400Y030650D01*
X017969Y029794D02*
X017969Y029181D01*
X018050Y029100D01*
X019100Y029100D01*
X019150Y029150D01*
X019400Y028850D02*
X020100Y028850D01*
X020331Y029081D01*
X020331Y029794D01*
X020206Y029794D01*
X020400Y030150D01*
X020000Y030550D01*
X019950Y030550D01*
X019650Y030650D02*
X019900Y030900D01*
X020650Y030900D01*
X020900Y030650D01*
X021119Y030431D01*
X021119Y029597D01*
X022747Y029597D01*
X023000Y029850D01*
X023000Y033550D01*
X022900Y033650D01*
X023150Y034200D02*
X023150Y028150D01*
X022650Y027650D01*
X022650Y026650D02*
X022900Y026650D01*
X022650Y026650D02*
X021733Y025733D01*
X021394Y025733D01*
X021394Y025536D02*
X021736Y025536D01*
X022000Y025800D01*
X022100Y025800D01*
X022150Y025750D01*
X021908Y025142D02*
X022000Y025050D01*
X022800Y025050D01*
X023050Y025300D01*
X023050Y025650D01*
X023050Y024750D02*
X023100Y024700D01*
X023100Y024200D01*
X022850Y023950D01*
X021950Y023950D01*
X021764Y023764D01*
X021394Y023764D01*
X021394Y023567D02*
X021817Y023567D01*
X022050Y023800D01*
X022950Y023800D01*
X023000Y023750D01*
X022200Y024650D02*
X022200Y024800D01*
X022100Y024900D01*
X021950Y024900D01*
X021905Y024945D01*
X021394Y024945D01*
X021394Y024748D02*
X021802Y024748D01*
X021900Y024650D01*
X021908Y025142D02*
X021394Y025142D01*
X020800Y025800D02*
X019300Y025800D01*
X019250Y025850D01*
X018200Y025850D01*
X018150Y025900D01*
X018300Y025650D02*
X018950Y025650D01*
X019450Y025150D01*
X020650Y025150D01*
X020850Y024150D02*
X021386Y024150D01*
X021394Y024158D01*
X021394Y023961D02*
X021011Y023961D01*
X020850Y023800D01*
X019150Y023800D01*
X018900Y023550D01*
X018050Y023550D01*
X017900Y023400D01*
X018350Y022950D02*
X015350Y022950D01*
X015150Y022750D01*
X015150Y021650D01*
X015250Y021550D01*
X016085Y021335D02*
X016085Y020613D01*
X016085Y022187D01*
X016400Y022650D02*
X016550Y022800D01*
X018000Y022800D01*
X018067Y022733D01*
X018067Y022406D01*
X017674Y022406D02*
X017544Y022406D01*
X017400Y022550D01*
X017063Y022187D02*
X017250Y022000D01*
X018650Y022000D01*
X018750Y021900D01*
X018650Y021800D01*
X018650Y021656D01*
X018750Y021900D02*
X018855Y022005D01*
X018855Y022406D01*
X018855Y022905D01*
X018950Y023000D01*
X018650Y023150D02*
X018626Y023174D01*
X016906Y023174D01*
X016906Y023370D02*
X016330Y023370D01*
X016150Y023550D01*
X016600Y024150D02*
X016442Y024308D01*
X015392Y024308D01*
X015150Y024550D01*
X015150Y026400D01*
X015400Y026650D01*
X015750Y026650D02*
X016050Y026350D01*
X017250Y026350D01*
X017350Y026250D01*
X017350Y026000D01*
X017280Y025930D01*
X016906Y025930D01*
X016906Y026126D02*
X015626Y026126D01*
X015400Y025900D01*
X015400Y024650D01*
X016264Y025536D02*
X016150Y025650D01*
X016264Y025536D02*
X016906Y025536D01*
X016906Y025733D02*
X017283Y025733D01*
X017700Y026150D01*
X019150Y026150D01*
X018855Y026505D02*
X018855Y026894D01*
X018658Y026894D02*
X018658Y027392D01*
X018650Y027400D01*
X018300Y027400D02*
X018264Y027386D01*
X018264Y026894D01*
X018067Y026894D02*
X018067Y027983D01*
X018050Y028000D01*
X017870Y027730D02*
X017478Y028122D01*
X017136Y028122D01*
X017136Y027768D02*
X017382Y027768D01*
X017674Y027476D01*
X017674Y026894D01*
X017870Y026894D02*
X017870Y027730D01*
X018050Y028600D02*
X017400Y028600D01*
X016150Y028600D01*
X015900Y028400D02*
X015900Y028900D01*
X015650Y029150D01*
X015406Y029150D01*
X015400Y029144D01*
X015400Y029656D02*
X015400Y030105D01*
X015400Y030695D02*
X015689Y030695D01*
X016197Y030187D01*
X016115Y030105D01*
X016394Y030975D02*
X017225Y030975D01*
X017012Y031762D02*
X017650Y032400D01*
X017012Y031762D02*
X016394Y031762D01*
X017181Y029597D02*
X017150Y029565D01*
X017150Y029150D01*
X017450Y028850D01*
X018650Y028850D01*
X018050Y028600D02*
X021150Y028600D01*
X020900Y028350D01*
X020900Y028156D01*
X021150Y028600D02*
X021450Y028600D01*
X021500Y028650D01*
X021548Y028650D01*
X021585Y028687D01*
X021585Y027113D01*
X021750Y026650D02*
X021750Y026482D01*
X021394Y026126D01*
X020036Y026894D02*
X020036Y027364D01*
X020050Y027400D01*
X019839Y026894D02*
X019839Y026461D01*
X019900Y026400D01*
X019650Y026200D02*
X019642Y026208D01*
X019642Y026894D01*
X019445Y026894D02*
X019445Y027355D01*
X019400Y027400D01*
X018855Y026505D02*
X018650Y026300D01*
X017500Y026300D01*
X017150Y026650D01*
X016150Y026650D01*
X016650Y027350D02*
X016650Y027650D01*
X016650Y027350D02*
X017550Y026450D01*
X018350Y026450D01*
X018461Y026561D01*
X018461Y026894D01*
X018300Y025650D02*
X018200Y025550D01*
X017400Y025550D01*
X016906Y025339D02*
X018339Y025339D01*
X018400Y025400D01*
X017650Y024900D02*
X017605Y024945D01*
X016906Y024945D01*
X016906Y024158D02*
X016600Y024150D01*
X016906Y023961D02*
X017361Y023961D01*
X017550Y024150D01*
X018350Y022950D02*
X018461Y022839D01*
X018461Y022406D01*
X019052Y022406D02*
X019052Y022002D01*
X018950Y021900D01*
X018950Y020900D01*
X018893Y020843D01*
X018893Y018755D01*
X019207Y018755D02*
X019207Y020793D01*
X019100Y020900D01*
X019100Y021850D01*
X019250Y022000D01*
X019250Y022404D01*
X019248Y022406D01*
X020036Y022406D02*
X020036Y021936D01*
X019928Y021828D01*
X019928Y021400D01*
X020300Y021950D02*
X020233Y022017D01*
X020233Y022406D01*
X020300Y021950D02*
X020750Y021950D01*
X020872Y021828D01*
X020872Y021400D01*
X020826Y023174D02*
X021394Y023174D01*
X020826Y023174D02*
X020450Y023550D01*
X020750Y024050D02*
X020850Y024150D01*
X022400Y020750D02*
X022400Y019650D01*
X021650Y018650D02*
X021650Y017650D01*
X019900Y018150D02*
X019213Y018150D01*
X019207Y018145D01*
X019150Y018087D01*
X019150Y017572D01*
X018894Y017572D02*
X018894Y018143D01*
X018893Y018145D01*
X018887Y018150D01*
X018400Y018150D01*
X018400Y018900D02*
X018150Y019150D01*
X018150Y020144D01*
X018156Y020150D01*
X018400Y020150D01*
X018650Y020400D01*
X018150Y020656D02*
X018150Y021105D01*
X017650Y021105D02*
X017650Y020656D01*
X017650Y020144D02*
X017650Y019800D01*
X016715Y020613D02*
X016715Y022187D01*
X017063Y022187D01*
X016400Y021650D02*
X016085Y021335D01*
X016150Y027650D02*
X016150Y028150D01*
X015900Y028400D01*
X018650Y032150D02*
X020650Y032150D01*
X019400Y030900D02*
X019400Y029937D01*
X019544Y029794D01*
X019294Y029794D01*
X019150Y029650D01*
X019150Y034550D02*
X022800Y034550D01*
X023150Y034200D01*
X022700Y034900D02*
X022688Y034912D01*
X021906Y034912D01*
X021894Y034900D01*
X020150Y034900D01*
X020900Y035400D02*
X016693Y035400D01*
X016394Y035699D01*
X018150Y035650D02*
X021857Y035650D01*
X021906Y035699D01*
X021906Y035656D01*
X021900Y035650D01*
X022900Y035650D01*
D30*
X022900Y035650D03*
X022700Y034900D03*
X022900Y033650D03*
X020900Y035400D03*
X020150Y034900D03*
X019150Y034550D03*
X018150Y035650D03*
X017650Y033150D03*
X017650Y032400D03*
X017650Y031400D03*
X017550Y030500D03*
X017150Y030650D03*
X016150Y029650D03*
X016150Y028600D03*
X015650Y028650D03*
X015300Y028650D03*
X015300Y027650D03*
X015650Y027650D03*
X015750Y026650D03*
X015400Y026650D03*
X016150Y026650D03*
X016150Y027650D03*
X016650Y027650D03*
X017400Y028600D03*
X018050Y028600D03*
X018050Y028000D03*
X018300Y027400D03*
X018650Y027400D03*
X019400Y027400D03*
X020050Y027400D03*
X019900Y026400D03*
X019650Y026200D03*
X019400Y026400D03*
X019150Y026150D03*
X019400Y025550D03*
X019000Y025300D03*
X018700Y025300D03*
X018400Y025400D03*
X018150Y025900D03*
X017400Y025550D03*
X017650Y024900D03*
X017400Y024600D03*
X017550Y024150D03*
X017900Y023900D03*
X017900Y023400D03*
X017550Y023500D03*
X017400Y022550D03*
X017150Y021650D03*
X016400Y021650D03*
X016400Y022650D03*
X016150Y023550D03*
X016150Y024650D03*
X015400Y024650D03*
X015250Y023650D03*
X015250Y021550D03*
X015300Y020550D03*
X015650Y019650D03*
X016150Y018650D03*
X017650Y019800D03*
X018650Y020400D03*
X018400Y018900D03*
X018400Y018150D03*
X019900Y018150D03*
X019650Y017050D03*
X021650Y017650D03*
X021650Y018650D03*
X022150Y018650D03*
X021900Y019650D03*
X022400Y019650D03*
X022400Y020750D03*
X023000Y020700D03*
X023000Y022650D03*
X023000Y023750D03*
X023050Y024750D03*
X022700Y024750D03*
X022200Y024650D03*
X021900Y024650D03*
X022150Y025750D03*
X022700Y025750D03*
X023050Y025650D03*
X022900Y026650D03*
X022650Y027650D03*
X022650Y028650D03*
X021750Y026650D03*
X020800Y025800D03*
X020650Y025150D03*
X020600Y024800D03*
X020600Y024400D03*
X020750Y024050D03*
X020850Y023550D03*
X020450Y023550D03*
X020350Y023000D03*
X020650Y023000D03*
X020050Y023000D03*
X019400Y022900D03*
X018950Y023000D03*
X018650Y023150D03*
X018650Y023800D03*
X018900Y024000D03*
X019985Y025565D03*
X020400Y026400D03*
X021150Y028600D03*
X021400Y030550D03*
X020650Y030550D03*
X019950Y030550D03*
X019650Y030650D03*
X019400Y030900D03*
X018400Y030650D03*
X019150Y029650D03*
X019150Y029150D03*
X019400Y028850D03*
X018650Y028850D03*
X018650Y032150D03*
X018650Y032650D03*
X020650Y032150D03*
X022650Y030600D03*
X021700Y022750D03*
X021150Y021650D03*
X021650Y020650D03*
X021400Y019650D03*
X016150Y025650D03*
X015400Y032650D03*
D31*
X016197Y030187D02*
X016197Y029697D01*
X016150Y029650D01*
X019248Y026894D02*
X019248Y026552D01*
X019400Y026400D01*
X019435Y025565D02*
X019400Y025550D01*
X019435Y025565D02*
X019985Y025565D01*
X020000Y025550D01*
X020800Y025550D01*
X021011Y025339D01*
X021394Y025339D01*
X022083Y025339D01*
X022144Y025350D01*
X022099Y024355D02*
X021394Y024355D01*
X020645Y024355D01*
X020600Y024400D01*
X020848Y024552D02*
X020600Y024800D01*
X020848Y024552D02*
X021394Y024552D01*
X022099Y024355D02*
X022144Y024250D01*
X022144Y023400D02*
X021918Y023174D01*
X021394Y023174D01*
X022144Y022900D02*
X022144Y022400D01*
X022144Y021979D01*
X022065Y021900D01*
X022065Y021248D01*
X021967Y021150D01*
X022656Y020973D02*
X022656Y020400D01*
X023000Y020700D02*
X022833Y020867D01*
X022833Y021150D01*
X022656Y020973D01*
X022144Y022400D02*
X022138Y022406D01*
X020626Y022406D01*
X019445Y022406D02*
X019445Y021701D01*
X019400Y021656D01*
X019445Y022406D02*
X019445Y022855D01*
X019400Y022900D01*
X017900Y023900D02*
X017764Y023764D01*
X016906Y023764D01*
X016392Y023764D01*
X016156Y024000D01*
X020400Y026400D02*
X020430Y026430D01*
X020430Y026894D01*
X020430Y027615D01*
X020400Y027644D01*
X020900Y027644D01*
D32*
X015125Y020442D02*
X015125Y015875D01*
X023175Y015875D01*
X023175Y020592D01*
X023083Y020500D01*
X023175Y020500D01*
X023175Y020452D02*
X022869Y020452D01*
X022869Y020500D02*
X022917Y020500D01*
X023083Y020500D01*
X023131Y020549D02*
X023175Y020549D01*
X023175Y020403D02*
X022869Y020403D01*
X022869Y020355D02*
X023175Y020355D01*
X023175Y020306D02*
X022869Y020306D01*
X022869Y020258D02*
X023175Y020258D01*
X023175Y020209D02*
X022869Y020209D01*
X022869Y020192D02*
X022869Y020548D01*
X022917Y020500D01*
X022869Y020192D02*
X022825Y020148D01*
X022505Y020148D01*
X022505Y019828D01*
X022600Y019733D01*
X022600Y019567D01*
X022483Y019450D01*
X022317Y019450D01*
X022200Y019567D01*
X022200Y019733D01*
X022295Y019828D01*
X022295Y020098D01*
X022169Y020098D01*
X022169Y020375D01*
X022119Y020375D01*
X021881Y020375D01*
X021881Y020206D01*
X021890Y020175D01*
X021906Y020146D01*
X021930Y020123D01*
X021958Y020106D01*
X021990Y020098D01*
X022119Y020098D01*
X022119Y020375D01*
X022119Y020425D01*
X021881Y020425D01*
X021881Y020594D01*
X021890Y020625D01*
X021906Y020654D01*
X021930Y020677D01*
X021958Y020694D01*
X021990Y020702D01*
X022119Y020702D01*
X022119Y020425D01*
X022169Y020425D01*
X022169Y020702D01*
X022200Y020702D01*
X022200Y020833D01*
X022317Y020950D01*
X022483Y020950D01*
X022531Y020902D01*
X022531Y020913D01*
X022522Y020922D01*
X022522Y021378D01*
X022566Y021422D01*
X023100Y021422D01*
X023144Y021378D01*
X023144Y020922D01*
X023103Y020880D01*
X023175Y020808D01*
X023175Y022542D01*
X023083Y022450D01*
X022919Y022450D01*
X022919Y022425D01*
X022681Y022425D01*
X022681Y022375D01*
X022919Y022375D01*
X022919Y022222D01*
X022968Y022222D01*
X022999Y022213D01*
X023028Y022197D01*
X023051Y022174D01*
X023068Y022145D01*
X023076Y022113D01*
X023076Y021925D01*
X022760Y021925D01*
X022760Y021875D01*
X023076Y021875D01*
X023076Y021687D01*
X023068Y021655D01*
X023051Y021626D01*
X023028Y021603D01*
X022999Y021587D01*
X022968Y021578D01*
X022760Y021578D01*
X022760Y021875D01*
X022710Y021875D01*
X022710Y021578D01*
X022502Y021578D01*
X022470Y021587D01*
X022441Y021603D01*
X022418Y021626D01*
X022402Y021655D01*
X022393Y021687D01*
X022393Y021875D01*
X022710Y021875D01*
X022710Y021925D01*
X022393Y021925D01*
X022393Y022113D01*
X022402Y022145D01*
X022410Y022160D01*
X022402Y022175D01*
X022393Y022206D01*
X022393Y022375D01*
X022631Y022375D01*
X022631Y022425D01*
X022631Y022875D01*
X022681Y022875D01*
X022681Y022925D01*
X022919Y022925D01*
X022919Y023094D01*
X022910Y023125D01*
X022896Y023150D01*
X022910Y023175D01*
X022919Y023206D01*
X022919Y023375D01*
X022681Y023375D01*
X022681Y023425D01*
X022919Y023425D01*
X022919Y023550D01*
X023083Y023550D01*
X023175Y023642D01*
X023175Y022758D01*
X023083Y022850D01*
X022919Y022850D01*
X022919Y022875D01*
X022681Y022875D01*
X022681Y022598D01*
X022681Y022425D01*
X022631Y022425D01*
X022393Y022425D01*
X022393Y022594D01*
X022402Y022625D01*
X022416Y022650D01*
X022402Y022675D01*
X022393Y022706D01*
X022393Y022875D01*
X022631Y022875D01*
X022631Y022925D01*
X022631Y023375D01*
X022681Y023375D01*
X022681Y023202D01*
X022681Y022925D01*
X022631Y022925D01*
X022681Y022925D01*
X022681Y022877D02*
X023175Y022877D01*
X023175Y022925D02*
X022919Y022925D01*
X022919Y022974D02*
X023175Y022974D01*
X023175Y023022D02*
X022919Y023022D01*
X022919Y023071D02*
X023175Y023071D01*
X023175Y023119D02*
X022912Y023119D01*
X022906Y023168D02*
X023175Y023168D01*
X023175Y023216D02*
X022919Y023216D01*
X022919Y023265D02*
X023175Y023265D01*
X023175Y023313D02*
X022919Y023313D01*
X022919Y023362D02*
X023175Y023362D01*
X023175Y023410D02*
X022681Y023410D01*
X022681Y023362D02*
X022631Y023362D01*
X022631Y023375D02*
X022393Y023375D01*
X022393Y023206D01*
X022402Y023175D01*
X022416Y023150D01*
X022402Y023125D01*
X022393Y023094D01*
X022393Y022925D01*
X022631Y022925D01*
X022631Y022877D02*
X022357Y022877D01*
X022357Y022925D02*
X022393Y022925D01*
X022393Y022974D02*
X022357Y022974D01*
X022357Y023022D02*
X022393Y023022D01*
X022393Y023071D02*
X022357Y023071D01*
X022357Y023108D02*
X022315Y023150D01*
X022357Y023192D01*
X022357Y023608D01*
X022313Y023652D01*
X022051Y023652D01*
X022093Y023695D01*
X022475Y023695D01*
X022470Y023694D01*
X022441Y023677D01*
X022418Y023654D01*
X022402Y023625D01*
X022393Y023594D01*
X022393Y023425D01*
X022631Y023425D01*
X022631Y023375D01*
X022631Y023410D02*
X022357Y023410D01*
X022357Y023362D02*
X022393Y023362D01*
X022393Y023313D02*
X022357Y023313D01*
X022357Y023265D02*
X022393Y023265D01*
X022393Y023216D02*
X022357Y023216D01*
X022333Y023168D02*
X022406Y023168D01*
X022400Y023119D02*
X022346Y023119D01*
X022357Y023108D02*
X022357Y022692D01*
X022315Y022650D01*
X022357Y022608D01*
X022357Y022192D01*
X022325Y022160D01*
X022357Y022128D01*
X022357Y021672D01*
X022313Y021628D01*
X022190Y021628D01*
X022190Y021422D01*
X022234Y021422D01*
X022278Y021378D01*
X022278Y020922D01*
X022234Y020878D01*
X021700Y020878D01*
X021656Y020922D01*
X021656Y021378D01*
X021700Y021422D01*
X021940Y021422D01*
X021940Y021628D01*
X021818Y021628D01*
X021774Y021672D01*
X021774Y022128D01*
X021818Y022172D01*
X021951Y022172D01*
X021931Y022192D01*
X021931Y022281D01*
X020760Y022281D01*
X020760Y022080D01*
X020736Y022055D01*
X020793Y022055D01*
X020916Y021933D01*
X020977Y021871D01*
X020977Y021869D01*
X020982Y021869D01*
X021026Y021825D01*
X021026Y021809D01*
X021067Y021850D01*
X021233Y021850D01*
X021350Y021733D01*
X021350Y021567D01*
X021940Y021567D01*
X021940Y021519D02*
X021301Y021519D01*
X021253Y021470D02*
X021940Y021470D01*
X021940Y021616D02*
X021350Y021616D01*
X021350Y021664D02*
X021782Y021664D01*
X021774Y021713D02*
X021350Y021713D01*
X021322Y021761D02*
X021774Y021761D01*
X021774Y021810D02*
X021273Y021810D01*
X021027Y021810D02*
X021026Y021810D01*
X020993Y021858D02*
X021774Y021858D01*
X021774Y021907D02*
X020942Y021907D01*
X020893Y021955D02*
X021774Y021955D01*
X021774Y022004D02*
X020845Y022004D01*
X020796Y022052D02*
X021774Y022052D01*
X021774Y022101D02*
X020760Y022101D01*
X020760Y022149D02*
X021795Y022149D01*
X021931Y022198D02*
X020760Y022198D01*
X020760Y022246D02*
X021931Y022246D01*
X021931Y022531D02*
X020760Y022531D01*
X020760Y022732D01*
X020716Y022776D01*
X020536Y022776D01*
X020528Y022768D01*
X020520Y022776D01*
X020339Y022776D01*
X020331Y022768D01*
X020323Y022776D01*
X020143Y022776D01*
X020134Y022768D01*
X020126Y022776D01*
X019999Y022776D01*
X019998Y022778D01*
X019975Y022801D01*
X019946Y022818D01*
X019914Y022826D01*
X019844Y022826D01*
X019844Y022410D01*
X019834Y022410D01*
X019834Y022826D01*
X019763Y022826D01*
X019732Y022818D01*
X019703Y022801D01*
X019680Y022778D01*
X019679Y022776D01*
X019570Y022776D01*
X019570Y022787D01*
X019600Y022817D01*
X019600Y022983D01*
X019483Y023100D01*
X019317Y023100D01*
X019200Y022983D01*
X019200Y022817D01*
X019241Y022776D01*
X019158Y022776D01*
X019150Y022768D01*
X019142Y022776D01*
X018961Y022776D01*
X018960Y022774D01*
X018960Y022800D01*
X019033Y022800D01*
X019150Y022917D01*
X019150Y023083D01*
X019033Y023200D01*
X018867Y023200D01*
X018850Y023183D01*
X018850Y023233D01*
X018733Y023350D01*
X018567Y023350D01*
X018496Y023279D01*
X018061Y023279D01*
X018100Y023317D01*
X018100Y023445D01*
X018943Y023445D01*
X019193Y023695D01*
X020312Y023695D01*
X020250Y023633D01*
X020250Y023467D01*
X020367Y023350D01*
X020502Y023350D01*
X020721Y023130D01*
X020783Y023069D01*
X021039Y023069D01*
X021068Y023040D01*
X021720Y023040D01*
X021729Y023049D01*
X021931Y023049D01*
X021931Y022692D01*
X021973Y022650D01*
X021931Y022608D01*
X021931Y022531D01*
X021931Y022537D02*
X020760Y022537D01*
X020760Y022586D02*
X021582Y022586D01*
X021617Y022550D02*
X021783Y022550D01*
X021900Y022667D01*
X021900Y022833D01*
X021783Y022950D01*
X021617Y022950D01*
X021500Y022833D01*
X021500Y022667D01*
X021617Y022550D01*
X021533Y022634D02*
X020760Y022634D01*
X020760Y022683D02*
X021500Y022683D01*
X021500Y022731D02*
X020760Y022731D01*
X020781Y023071D02*
X019512Y023071D01*
X019561Y023022D02*
X021931Y023022D01*
X021931Y022974D02*
X019600Y022974D01*
X019600Y022925D02*
X021592Y022925D01*
X021544Y022877D02*
X019600Y022877D01*
X019600Y022828D02*
X021500Y022828D01*
X021500Y022780D02*
X019996Y022780D01*
X019844Y022780D02*
X019834Y022780D01*
X019834Y022731D02*
X019844Y022731D01*
X019844Y022683D02*
X019834Y022683D01*
X019834Y022634D02*
X019844Y022634D01*
X019844Y022586D02*
X019834Y022586D01*
X019834Y022537D02*
X019844Y022537D01*
X019844Y022489D02*
X019834Y022489D01*
X019834Y022440D02*
X019844Y022440D01*
X019844Y022401D02*
X019844Y021986D01*
X019914Y021986D01*
X019931Y021990D01*
X019931Y021979D01*
X019823Y021871D01*
X019823Y021869D01*
X019818Y021869D01*
X019774Y021825D01*
X019774Y020975D01*
X019818Y020931D01*
X020037Y020931D01*
X020081Y020975D01*
X020081Y021825D01*
X020077Y021829D01*
X020079Y021831D01*
X020141Y021892D01*
X020141Y021961D01*
X020195Y021907D01*
X020141Y021907D01*
X020141Y021955D02*
X020146Y021955D01*
X020195Y021907D02*
X020226Y021875D01*
X020221Y021870D01*
X020205Y021842D01*
X020196Y021810D01*
X020196Y021414D01*
X020386Y021414D01*
X020386Y021386D01*
X020414Y021386D01*
X020414Y020881D01*
X020495Y020881D01*
X020527Y020890D01*
X020555Y020906D01*
X020579Y020930D01*
X020595Y020958D01*
X020604Y020990D01*
X020604Y021386D01*
X020414Y021386D01*
X020414Y021414D01*
X020604Y021414D01*
X020604Y021810D01*
X020595Y021842D01*
X020593Y021845D01*
X020707Y021845D01*
X020723Y021829D01*
X020719Y021825D01*
X020719Y020975D01*
X020763Y020931D01*
X020982Y020931D01*
X021026Y020975D01*
X021026Y021491D01*
X021067Y021450D01*
X021233Y021450D01*
X021350Y021567D01*
X021047Y021470D02*
X021026Y021470D01*
X021026Y021422D02*
X021699Y021422D01*
X021656Y021373D02*
X021026Y021373D01*
X021026Y021325D02*
X021656Y021325D01*
X021656Y021276D02*
X021026Y021276D01*
X021026Y021228D02*
X021656Y021228D01*
X021656Y021179D02*
X021026Y021179D01*
X021026Y021131D02*
X021656Y021131D01*
X021656Y021082D02*
X021026Y021082D01*
X021026Y021034D02*
X021656Y021034D01*
X021656Y020985D02*
X021026Y020985D01*
X020987Y020937D02*
X021656Y020937D01*
X021690Y020888D02*
X020520Y020888D01*
X020583Y020937D02*
X020757Y020937D01*
X020719Y020985D02*
X020602Y020985D01*
X020604Y021034D02*
X020719Y021034D01*
X020719Y021082D02*
X020604Y021082D01*
X020604Y021131D02*
X020719Y021131D01*
X020719Y021179D02*
X020604Y021179D01*
X020604Y021228D02*
X020719Y021228D01*
X020719Y021276D02*
X020604Y021276D01*
X020604Y021325D02*
X020719Y021325D01*
X020719Y021373D02*
X020604Y021373D01*
X020604Y021422D02*
X020719Y021422D01*
X020719Y021470D02*
X020604Y021470D01*
X020604Y021519D02*
X020719Y021519D01*
X020719Y021567D02*
X020604Y021567D01*
X020604Y021616D02*
X020719Y021616D01*
X020719Y021664D02*
X020604Y021664D01*
X020604Y021713D02*
X020719Y021713D01*
X020719Y021761D02*
X020604Y021761D01*
X020604Y021810D02*
X020719Y021810D01*
X020414Y021373D02*
X020386Y021373D01*
X020386Y021386D02*
X020386Y020881D01*
X020305Y020881D01*
X020273Y020890D01*
X020245Y020906D01*
X020221Y020930D01*
X020205Y020958D01*
X020196Y020990D01*
X020196Y021386D01*
X020386Y021386D01*
X020386Y021325D02*
X020414Y021325D01*
X020414Y021276D02*
X020386Y021276D01*
X020386Y021228D02*
X020414Y021228D01*
X020414Y021179D02*
X020386Y021179D01*
X020386Y021131D02*
X020414Y021131D01*
X020414Y021082D02*
X020386Y021082D01*
X020386Y021034D02*
X020414Y021034D01*
X020414Y020985D02*
X020386Y020985D01*
X020386Y020937D02*
X020414Y020937D01*
X020414Y020888D02*
X020386Y020888D01*
X020280Y020888D02*
X019619Y020888D01*
X019625Y020890D02*
X019654Y020906D01*
X019677Y020930D01*
X019694Y020958D01*
X019702Y020990D01*
X019702Y021119D01*
X019425Y021119D01*
X019425Y020881D01*
X019594Y020881D01*
X019625Y020890D01*
X019681Y020937D02*
X019813Y020937D01*
X019774Y020985D02*
X019701Y020985D01*
X019702Y021034D02*
X019774Y021034D01*
X019774Y021082D02*
X019702Y021082D01*
X019774Y021131D02*
X019425Y021131D01*
X019425Y021119D02*
X019425Y021169D01*
X019702Y021169D01*
X019702Y021298D01*
X019694Y021330D01*
X019677Y021359D01*
X019654Y021382D01*
X019625Y021398D01*
X019594Y021407D01*
X019425Y021407D01*
X019425Y021169D01*
X019375Y021169D01*
X019375Y021407D01*
X019206Y021407D01*
X019205Y021407D01*
X019205Y021443D01*
X019608Y021443D01*
X019652Y021487D01*
X019652Y021825D01*
X019608Y021869D01*
X019570Y021869D01*
X019570Y022036D01*
X019679Y022036D01*
X019680Y022034D01*
X019703Y022011D01*
X019732Y021994D01*
X019763Y021986D01*
X019834Y021986D01*
X019834Y022401D01*
X019844Y022401D01*
X019844Y022392D02*
X019834Y022392D01*
X019834Y022343D02*
X019844Y022343D01*
X019844Y022295D02*
X019834Y022295D01*
X019834Y022246D02*
X019844Y022246D01*
X019844Y022198D02*
X019834Y022198D01*
X019834Y022149D02*
X019844Y022149D01*
X019844Y022101D02*
X019834Y022101D01*
X019834Y022052D02*
X019844Y022052D01*
X019844Y022004D02*
X019834Y022004D01*
X019907Y021955D02*
X019570Y021955D01*
X019570Y021907D02*
X019858Y021907D01*
X019807Y021858D02*
X019619Y021858D01*
X019652Y021810D02*
X019774Y021810D01*
X019774Y021761D02*
X019652Y021761D01*
X019652Y021713D02*
X019774Y021713D01*
X019774Y021664D02*
X019652Y021664D01*
X019652Y021616D02*
X019774Y021616D01*
X019774Y021567D02*
X019652Y021567D01*
X019652Y021519D02*
X019774Y021519D01*
X019774Y021470D02*
X019635Y021470D01*
X019663Y021373D02*
X019774Y021373D01*
X019774Y021325D02*
X019695Y021325D01*
X019702Y021276D02*
X019774Y021276D01*
X019774Y021228D02*
X019702Y021228D01*
X019702Y021179D02*
X019774Y021179D01*
X019774Y021422D02*
X019205Y021422D01*
X019375Y021373D02*
X019425Y021373D01*
X019425Y021325D02*
X019375Y021325D01*
X019375Y021276D02*
X019425Y021276D01*
X019425Y021228D02*
X019375Y021228D01*
X019375Y021179D02*
X019425Y021179D01*
X019425Y021119D02*
X019375Y021119D01*
X019375Y020881D01*
X019267Y020881D01*
X019312Y020836D01*
X019312Y018968D01*
X019327Y018968D01*
X019371Y018924D01*
X019371Y018586D01*
X019327Y018542D01*
X019088Y018542D01*
X019050Y018580D01*
X019012Y018542D01*
X018773Y018542D01*
X018729Y018586D01*
X018729Y018924D01*
X018773Y018968D01*
X018788Y018968D01*
X018788Y020255D01*
X018733Y020200D01*
X018598Y020200D01*
X018505Y020107D01*
X018443Y020045D01*
X018402Y020045D01*
X018402Y019975D01*
X018358Y019931D01*
X018255Y019931D01*
X018255Y019193D01*
X018348Y019100D01*
X018483Y019100D01*
X018600Y018983D01*
X018600Y018817D01*
X018483Y018700D01*
X018317Y018700D01*
X018200Y018817D01*
X018200Y018952D01*
X018045Y019107D01*
X018045Y019931D01*
X017942Y019931D01*
X017900Y019973D01*
X017858Y019931D01*
X017802Y019931D01*
X017850Y019883D01*
X017850Y019717D01*
X017733Y019600D01*
X017567Y019600D01*
X017450Y019717D01*
X017450Y019883D01*
X017498Y019931D01*
X017442Y019931D01*
X017398Y019975D01*
X017398Y020313D01*
X017442Y020357D01*
X017858Y020357D01*
X017900Y020315D01*
X017942Y020357D01*
X018358Y020357D01*
X018402Y020313D01*
X018402Y020301D01*
X018450Y020348D01*
X018450Y020483D01*
X018567Y020600D01*
X018733Y020600D01*
X018788Y020545D01*
X018788Y020881D01*
X018675Y020881D01*
X018675Y021119D01*
X018625Y021119D01*
X018625Y020881D01*
X018456Y020881D01*
X018425Y020890D01*
X018396Y020906D01*
X018382Y020920D01*
X018382Y020916D01*
X018339Y020872D01*
X018255Y020872D01*
X018255Y020869D01*
X018358Y020869D01*
X018402Y020825D01*
X018402Y020487D01*
X018358Y020443D01*
X017942Y020443D01*
X017900Y020485D01*
X017858Y020443D01*
X017442Y020443D01*
X017398Y020487D01*
X017398Y020825D01*
X017442Y020869D01*
X017545Y020869D01*
X017545Y020872D01*
X017461Y020872D01*
X017418Y020916D01*
X017418Y021293D01*
X017461Y021337D01*
X017839Y021337D01*
X017882Y021293D01*
X017882Y020916D01*
X017839Y020872D01*
X017755Y020872D01*
X017755Y020869D01*
X017858Y020869D01*
X017900Y020827D01*
X017942Y020869D01*
X018045Y020869D01*
X018045Y020872D01*
X017961Y020872D01*
X017918Y020916D01*
X017918Y021293D01*
X017961Y021337D01*
X018339Y021337D01*
X018354Y021322D01*
X018356Y021330D01*
X018373Y021359D01*
X018396Y021382D01*
X018425Y021398D01*
X018456Y021407D01*
X018625Y021407D01*
X018625Y021169D01*
X018675Y021169D01*
X018675Y021407D01*
X018844Y021407D01*
X018845Y021407D01*
X018845Y021443D01*
X018442Y021443D01*
X018413Y021471D01*
X018408Y021461D01*
X018384Y021438D01*
X018356Y021421D01*
X018324Y021413D01*
X018175Y021413D01*
X018175Y021670D01*
X018125Y021670D01*
X018125Y021413D01*
X017976Y021413D01*
X017944Y021421D01*
X017916Y021438D01*
X017900Y021454D01*
X017884Y021438D01*
X017856Y021421D01*
X017824Y021413D01*
X017675Y021413D01*
X017675Y021670D01*
X017625Y021670D01*
X017625Y021413D01*
X017476Y021413D01*
X017444Y021421D01*
X017416Y021438D01*
X017392Y021461D01*
X017376Y021490D01*
X017368Y021521D01*
X017368Y021670D01*
X017625Y021670D01*
X017625Y021720D01*
X017368Y021720D01*
X017368Y021869D01*
X017374Y021895D01*
X017207Y021895D01*
X017145Y021957D01*
X017019Y022082D01*
X016987Y022082D01*
X016987Y021959D01*
X016943Y021916D01*
X016820Y021916D01*
X016820Y020884D01*
X016943Y020884D01*
X016987Y020841D01*
X016987Y020385D01*
X016943Y020341D01*
X016487Y020341D01*
X016443Y020385D01*
X016443Y020841D01*
X016487Y020884D01*
X016610Y020884D01*
X016610Y021916D01*
X016487Y021916D01*
X016443Y021959D01*
X016443Y022415D01*
X016478Y022450D01*
X016322Y022450D01*
X016357Y022415D01*
X016357Y021959D01*
X016313Y021916D01*
X016190Y021916D01*
X016190Y021589D01*
X016200Y021598D01*
X016200Y021733D01*
X016317Y021850D01*
X016483Y021850D01*
X016600Y021733D01*
X016600Y021567D01*
X016610Y021567D01*
X016600Y021567D02*
X016483Y021450D01*
X016348Y021450D01*
X016190Y021292D01*
X016190Y020884D01*
X016313Y020884D01*
X016357Y020841D01*
X016357Y020385D01*
X016313Y020341D01*
X015857Y020341D01*
X015813Y020385D01*
X015813Y020841D01*
X015857Y020884D01*
X015980Y020884D01*
X015980Y021916D01*
X015857Y021916D01*
X015813Y021959D01*
X015813Y022415D01*
X015857Y022459D01*
X016308Y022459D01*
X016200Y022567D01*
X016200Y022733D01*
X016312Y022845D01*
X015393Y022845D01*
X015255Y022707D01*
X015255Y021750D01*
X015333Y021750D01*
X015450Y021633D01*
X015450Y021467D01*
X015333Y021350D01*
X015167Y021350D01*
X015125Y021392D01*
X015125Y020658D01*
X015217Y020750D01*
X015383Y020750D01*
X015500Y020633D01*
X015500Y020467D01*
X015383Y020350D01*
X015217Y020350D01*
X015125Y020442D01*
X015125Y020403D02*
X015164Y020403D01*
X015125Y020355D02*
X015213Y020355D01*
X015125Y020306D02*
X017398Y020306D01*
X017398Y020258D02*
X015125Y020258D01*
X015125Y020209D02*
X017398Y020209D01*
X017398Y020161D02*
X015125Y020161D01*
X015125Y020112D02*
X017398Y020112D01*
X017398Y020064D02*
X015125Y020064D01*
X015125Y020015D02*
X017398Y020015D01*
X017407Y019967D02*
X015125Y019967D01*
X015125Y019918D02*
X017485Y019918D01*
X017450Y019870D02*
X015125Y019870D01*
X015125Y019821D02*
X015538Y019821D01*
X015567Y019850D02*
X015450Y019733D01*
X015450Y019567D01*
X015567Y019450D01*
X015733Y019450D01*
X015850Y019567D01*
X015850Y019733D01*
X015733Y019850D01*
X015567Y019850D01*
X015490Y019773D02*
X015125Y019773D01*
X015125Y019724D02*
X015450Y019724D01*
X015450Y019676D02*
X015125Y019676D01*
X015125Y019627D02*
X015450Y019627D01*
X015450Y019579D02*
X015125Y019579D01*
X015125Y019530D02*
X015487Y019530D01*
X015536Y019482D02*
X015125Y019482D01*
X015125Y019433D02*
X018045Y019433D01*
X018045Y019385D02*
X015125Y019385D01*
X015125Y019336D02*
X018045Y019336D01*
X018045Y019288D02*
X015125Y019288D01*
X015125Y019239D02*
X018045Y019239D01*
X018045Y019191D02*
X015125Y019191D01*
X015125Y019142D02*
X018045Y019142D01*
X018058Y019094D02*
X015125Y019094D01*
X015125Y019045D02*
X018106Y019045D01*
X018155Y018997D02*
X015125Y018997D01*
X015125Y018948D02*
X018200Y018948D01*
X018200Y018900D02*
X015125Y018900D01*
X015125Y018851D02*
X018200Y018851D01*
X018215Y018803D02*
X016280Y018803D01*
X016233Y018850D02*
X016067Y018850D01*
X015950Y018733D01*
X015950Y018567D01*
X016067Y018450D01*
X016233Y018450D01*
X016350Y018567D01*
X016350Y018733D01*
X016233Y018850D01*
X016329Y018754D02*
X018263Y018754D01*
X018312Y018706D02*
X016350Y018706D01*
X016350Y018657D02*
X018729Y018657D01*
X018729Y018609D02*
X016350Y018609D01*
X016343Y018560D02*
X018755Y018560D01*
X018729Y018706D02*
X018488Y018706D01*
X018537Y018754D02*
X018729Y018754D01*
X018729Y018803D02*
X018585Y018803D01*
X018600Y018851D02*
X018729Y018851D01*
X018729Y018900D02*
X018600Y018900D01*
X018600Y018948D02*
X018753Y018948D01*
X018788Y018997D02*
X018586Y018997D01*
X018538Y019045D02*
X018788Y019045D01*
X018788Y019094D02*
X018489Y019094D01*
X018306Y019142D02*
X018788Y019142D01*
X018788Y019191D02*
X018258Y019191D01*
X018255Y019239D02*
X018788Y019239D01*
X018788Y019288D02*
X018255Y019288D01*
X018255Y019336D02*
X018788Y019336D01*
X018788Y019385D02*
X018255Y019385D01*
X018255Y019433D02*
X018788Y019433D01*
X018788Y019482D02*
X018255Y019482D01*
X018255Y019530D02*
X018788Y019530D01*
X018788Y019579D02*
X018255Y019579D01*
X018255Y019627D02*
X018788Y019627D01*
X018788Y019676D02*
X018255Y019676D01*
X018255Y019724D02*
X018788Y019724D01*
X018788Y019773D02*
X018255Y019773D01*
X018255Y019821D02*
X018788Y019821D01*
X018788Y019870D02*
X018255Y019870D01*
X018255Y019918D02*
X018788Y019918D01*
X018788Y019967D02*
X018393Y019967D01*
X018402Y020015D02*
X018788Y020015D01*
X018788Y020064D02*
X018462Y020064D01*
X018511Y020112D02*
X018788Y020112D01*
X018788Y020161D02*
X018559Y020161D01*
X018742Y020209D02*
X018788Y020209D01*
X018784Y020549D02*
X018788Y020549D01*
X018788Y020597D02*
X018736Y020597D01*
X018788Y020646D02*
X018402Y020646D01*
X018402Y020694D02*
X018788Y020694D01*
X018788Y020743D02*
X018402Y020743D01*
X018402Y020791D02*
X018788Y020791D01*
X018788Y020840D02*
X018387Y020840D01*
X018354Y020888D02*
X018431Y020888D01*
X018625Y020888D02*
X018675Y020888D01*
X018675Y020937D02*
X018625Y020937D01*
X018625Y020985D02*
X018675Y020985D01*
X018675Y021034D02*
X018625Y021034D01*
X018625Y021082D02*
X018675Y021082D01*
X018675Y021179D02*
X018625Y021179D01*
X018625Y021228D02*
X018675Y021228D01*
X018675Y021276D02*
X018625Y021276D01*
X018625Y021325D02*
X018675Y021325D01*
X018675Y021373D02*
X018625Y021373D01*
X018845Y021422D02*
X018356Y021422D01*
X018387Y021373D02*
X016820Y021373D01*
X016820Y021325D02*
X017449Y021325D01*
X017418Y021276D02*
X016820Y021276D01*
X016820Y021228D02*
X017418Y021228D01*
X017418Y021179D02*
X016820Y021179D01*
X016820Y021131D02*
X017418Y021131D01*
X017418Y021082D02*
X016820Y021082D01*
X016820Y021034D02*
X017418Y021034D01*
X017418Y020985D02*
X016820Y020985D01*
X016820Y020937D02*
X017418Y020937D01*
X017446Y020888D02*
X016820Y020888D01*
X016987Y020840D02*
X017413Y020840D01*
X017398Y020791D02*
X016987Y020791D01*
X016987Y020743D02*
X017398Y020743D01*
X017398Y020694D02*
X016987Y020694D01*
X016987Y020646D02*
X017398Y020646D01*
X017398Y020597D02*
X016987Y020597D01*
X016987Y020549D02*
X017398Y020549D01*
X017398Y020500D02*
X016987Y020500D01*
X016987Y020452D02*
X017433Y020452D01*
X017439Y020355D02*
X016957Y020355D01*
X016987Y020403D02*
X018450Y020403D01*
X018450Y020355D02*
X018361Y020355D01*
X018402Y020306D02*
X018408Y020306D01*
X018367Y020452D02*
X018450Y020452D01*
X018467Y020500D02*
X018402Y020500D01*
X018402Y020549D02*
X018516Y020549D01*
X018564Y020597D02*
X018402Y020597D01*
X018045Y019918D02*
X017815Y019918D01*
X017850Y019870D02*
X018045Y019870D01*
X018045Y019821D02*
X017850Y019821D01*
X017850Y019773D02*
X018045Y019773D01*
X018045Y019724D02*
X017850Y019724D01*
X017808Y019676D02*
X018045Y019676D01*
X018045Y019627D02*
X017760Y019627D01*
X017540Y019627D02*
X015850Y019627D01*
X015850Y019579D02*
X018045Y019579D01*
X018045Y019530D02*
X015813Y019530D01*
X015764Y019482D02*
X018045Y019482D01*
X017907Y019967D02*
X017893Y019967D01*
X017861Y020355D02*
X017939Y020355D01*
X017933Y020452D02*
X017867Y020452D01*
X017887Y020840D02*
X017913Y020840D01*
X017946Y020888D02*
X017854Y020888D01*
X017882Y020937D02*
X017918Y020937D01*
X017918Y020985D02*
X017882Y020985D01*
X017882Y021034D02*
X017918Y021034D01*
X017918Y021082D02*
X017882Y021082D01*
X017882Y021131D02*
X017918Y021131D01*
X017918Y021179D02*
X017882Y021179D01*
X017882Y021228D02*
X017918Y021228D01*
X017918Y021276D02*
X017882Y021276D01*
X017851Y021325D02*
X017949Y021325D01*
X017944Y021422D02*
X017856Y021422D01*
X017675Y021422D02*
X017625Y021422D01*
X017625Y021470D02*
X017675Y021470D01*
X017675Y021519D02*
X017625Y021519D01*
X017625Y021567D02*
X017675Y021567D01*
X017675Y021616D02*
X017625Y021616D01*
X017625Y021664D02*
X017675Y021664D01*
X017675Y021670D02*
X017675Y021720D01*
X017932Y021720D01*
X018125Y021720D01*
X018125Y021670D01*
X017675Y021670D01*
X017675Y021713D02*
X018125Y021713D01*
X018125Y021664D02*
X018175Y021664D01*
X018175Y021616D02*
X018125Y021616D01*
X018125Y021567D02*
X018175Y021567D01*
X018175Y021519D02*
X018125Y021519D01*
X018125Y021470D02*
X018175Y021470D01*
X018175Y021422D02*
X018125Y021422D01*
X018351Y021325D02*
X018355Y021325D01*
X018413Y021470D02*
X018415Y021470D01*
X017625Y021713D02*
X017350Y021713D01*
X017350Y021733D02*
X017350Y021567D01*
X017368Y021567D01*
X017350Y021567D02*
X017233Y021450D01*
X017067Y021450D01*
X016950Y021567D01*
X016820Y021567D01*
X016820Y021519D02*
X016999Y021519D01*
X017047Y021470D02*
X016820Y021470D01*
X016820Y021422D02*
X017444Y021422D01*
X017387Y021470D02*
X017253Y021470D01*
X017301Y021519D02*
X017368Y021519D01*
X017368Y021616D02*
X017350Y021616D01*
X017350Y021664D02*
X017368Y021664D01*
X017350Y021733D02*
X017233Y021850D01*
X017067Y021850D01*
X016950Y021733D01*
X016950Y021567D01*
X016950Y021616D02*
X016820Y021616D01*
X016820Y021664D02*
X016950Y021664D01*
X016950Y021713D02*
X016820Y021713D01*
X016820Y021761D02*
X016978Y021761D01*
X017027Y021810D02*
X016820Y021810D01*
X016820Y021858D02*
X017368Y021858D01*
X017368Y021810D02*
X017273Y021810D01*
X017322Y021761D02*
X017368Y021761D01*
X017195Y021907D02*
X016820Y021907D01*
X016982Y021955D02*
X017146Y021955D01*
X017098Y022004D02*
X016987Y022004D01*
X016987Y022052D02*
X017049Y022052D01*
X016610Y021907D02*
X016190Y021907D01*
X016190Y021858D02*
X016610Y021858D01*
X016610Y021810D02*
X016523Y021810D01*
X016572Y021761D02*
X016610Y021761D01*
X016610Y021713D02*
X016600Y021713D01*
X016600Y021664D02*
X016610Y021664D01*
X016610Y021616D02*
X016600Y021616D01*
X016610Y021519D02*
X016551Y021519D01*
X016503Y021470D02*
X016610Y021470D01*
X016610Y021422D02*
X016320Y021422D01*
X016272Y021373D02*
X016610Y021373D01*
X016610Y021325D02*
X016223Y021325D01*
X016190Y021276D02*
X016610Y021276D01*
X016610Y021228D02*
X016190Y021228D01*
X016190Y021179D02*
X016610Y021179D01*
X016610Y021131D02*
X016190Y021131D01*
X016190Y021082D02*
X016610Y021082D01*
X016610Y021034D02*
X016190Y021034D01*
X016190Y020985D02*
X016610Y020985D01*
X016610Y020937D02*
X016190Y020937D01*
X016190Y020888D02*
X016610Y020888D01*
X016443Y020840D02*
X016357Y020840D01*
X016357Y020791D02*
X016443Y020791D01*
X016443Y020743D02*
X016357Y020743D01*
X016357Y020694D02*
X016443Y020694D01*
X016443Y020646D02*
X016357Y020646D01*
X016357Y020597D02*
X016443Y020597D01*
X016443Y020549D02*
X016357Y020549D01*
X016357Y020500D02*
X016443Y020500D01*
X016443Y020452D02*
X016357Y020452D01*
X016357Y020403D02*
X016443Y020403D01*
X016473Y020355D02*
X016327Y020355D01*
X015843Y020355D02*
X015387Y020355D01*
X015436Y020403D02*
X015813Y020403D01*
X015813Y020452D02*
X015484Y020452D01*
X015500Y020500D02*
X015813Y020500D01*
X015813Y020549D02*
X015500Y020549D01*
X015500Y020597D02*
X015813Y020597D01*
X015813Y020646D02*
X015487Y020646D01*
X015439Y020694D02*
X015813Y020694D01*
X015813Y020743D02*
X015390Y020743D01*
X015210Y020743D02*
X015125Y020743D01*
X015125Y020791D02*
X015813Y020791D01*
X015813Y020840D02*
X015125Y020840D01*
X015125Y020888D02*
X015980Y020888D01*
X015980Y020937D02*
X015125Y020937D01*
X015125Y020985D02*
X015980Y020985D01*
X015980Y021034D02*
X015125Y021034D01*
X015125Y021082D02*
X015980Y021082D01*
X015980Y021131D02*
X015125Y021131D01*
X015125Y021179D02*
X015980Y021179D01*
X015980Y021228D02*
X015125Y021228D01*
X015125Y021276D02*
X015980Y021276D01*
X015980Y021325D02*
X015125Y021325D01*
X015125Y021373D02*
X015144Y021373D01*
X015356Y021373D02*
X015980Y021373D01*
X015980Y021422D02*
X015404Y021422D01*
X015450Y021470D02*
X015980Y021470D01*
X015980Y021519D02*
X015450Y021519D01*
X015450Y021567D02*
X015980Y021567D01*
X015980Y021616D02*
X015450Y021616D01*
X015419Y021664D02*
X015980Y021664D01*
X015980Y021713D02*
X015370Y021713D01*
X015255Y021761D02*
X015980Y021761D01*
X015980Y021810D02*
X015255Y021810D01*
X015255Y021858D02*
X015980Y021858D01*
X015980Y021907D02*
X015255Y021907D01*
X015255Y021955D02*
X015818Y021955D01*
X015813Y022004D02*
X015255Y022004D01*
X015255Y022052D02*
X015813Y022052D01*
X015813Y022101D02*
X015255Y022101D01*
X015255Y022149D02*
X015813Y022149D01*
X015813Y022198D02*
X015255Y022198D01*
X015255Y022246D02*
X015813Y022246D01*
X015813Y022295D02*
X015255Y022295D01*
X015255Y022343D02*
X015813Y022343D01*
X015813Y022392D02*
X015255Y022392D01*
X015255Y022440D02*
X015838Y022440D01*
X016200Y022586D02*
X015255Y022586D01*
X015255Y022634D02*
X016200Y022634D01*
X016200Y022683D02*
X015255Y022683D01*
X015280Y022731D02*
X016200Y022731D01*
X016247Y022780D02*
X015328Y022780D01*
X015377Y022828D02*
X016295Y022828D01*
X016230Y022537D02*
X015255Y022537D01*
X015255Y022489D02*
X016279Y022489D01*
X016332Y022440D02*
X016468Y022440D01*
X016443Y022392D02*
X016357Y022392D01*
X016357Y022343D02*
X016443Y022343D01*
X016443Y022295D02*
X016357Y022295D01*
X016357Y022246D02*
X016443Y022246D01*
X016443Y022198D02*
X016357Y022198D01*
X016357Y022149D02*
X016443Y022149D01*
X016443Y022101D02*
X016357Y022101D01*
X016357Y022052D02*
X016443Y022052D01*
X016443Y022004D02*
X016357Y022004D01*
X016352Y021955D02*
X016448Y021955D01*
X016277Y021810D02*
X016190Y021810D01*
X016190Y021761D02*
X016228Y021761D01*
X016200Y021713D02*
X016190Y021713D01*
X016190Y021664D02*
X016200Y021664D01*
X016200Y021616D02*
X016190Y021616D01*
X015161Y020694D02*
X015125Y020694D01*
X015762Y019821D02*
X017450Y019821D01*
X017450Y019773D02*
X015810Y019773D01*
X015850Y019724D02*
X017450Y019724D01*
X017492Y019676D02*
X015850Y019676D01*
X016020Y018803D02*
X015125Y018803D01*
X015125Y018754D02*
X015971Y018754D01*
X015950Y018706D02*
X015125Y018706D01*
X015125Y018657D02*
X015950Y018657D01*
X015950Y018609D02*
X015125Y018609D01*
X015125Y018560D02*
X015957Y018560D01*
X016006Y018512D02*
X015125Y018512D01*
X015125Y018463D02*
X016054Y018463D01*
X016246Y018463D02*
X021545Y018463D01*
X021545Y018472D02*
X021545Y017828D01*
X021450Y017733D01*
X021450Y017567D01*
X021567Y017450D01*
X021733Y017450D01*
X021850Y017567D01*
X021850Y017733D01*
X021755Y017828D01*
X021755Y018472D01*
X021850Y018567D01*
X021850Y018733D01*
X021733Y018850D01*
X021567Y018850D01*
X021450Y018733D01*
X021450Y018567D01*
X021545Y018472D01*
X021506Y018512D02*
X016294Y018512D01*
X015125Y018415D02*
X021545Y018415D01*
X021545Y018366D02*
X015125Y018366D01*
X015125Y018318D02*
X018285Y018318D01*
X018317Y018350D02*
X018200Y018233D01*
X018200Y018067D01*
X018317Y017950D01*
X018483Y017950D01*
X018578Y018045D01*
X018729Y018045D01*
X018729Y017976D01*
X018773Y017932D01*
X018789Y017932D01*
X018789Y017923D01*
X018784Y017923D01*
X018766Y017904D01*
X018748Y017923D01*
X018528Y017923D01*
X018484Y017879D01*
X018484Y017638D01*
X018483Y017636D01*
X018483Y017098D01*
X018595Y016986D01*
X018682Y016899D01*
X018233Y016899D01*
X018189Y016855D01*
X018189Y016045D01*
X018233Y016001D01*
X019083Y016001D01*
X019127Y016045D01*
X019127Y016855D01*
X019087Y016895D01*
X019213Y016895D01*
X019173Y016855D01*
X019173Y016045D01*
X019217Y016001D01*
X020067Y016001D01*
X020111Y016045D01*
X020111Y016855D01*
X020067Y016899D01*
X019782Y016899D01*
X019850Y016967D01*
X019850Y017133D01*
X019798Y017185D01*
X019817Y017196D01*
X019841Y017220D01*
X019857Y017248D01*
X019866Y017280D01*
X019866Y017558D01*
X019676Y017558D01*
X019676Y017586D01*
X019866Y017586D01*
X019866Y017864D01*
X019857Y017896D01*
X019841Y017924D01*
X019817Y017948D01*
X019789Y017964D01*
X019757Y017973D01*
X019676Y017973D01*
X019676Y017586D01*
X019647Y017586D01*
X019647Y017558D01*
X019560Y017558D01*
X019560Y017586D01*
X019647Y017586D01*
X019647Y017973D01*
X019567Y017973D01*
X019535Y017964D01*
X019506Y017948D01*
X019483Y017924D01*
X019482Y017923D01*
X019296Y017923D01*
X019278Y017904D01*
X019260Y017923D01*
X019255Y017923D01*
X019255Y017932D01*
X019327Y017932D01*
X019371Y017976D01*
X019371Y018045D01*
X019722Y018045D01*
X019817Y017950D01*
X019983Y017950D01*
X020100Y018067D01*
X020100Y018233D01*
X019983Y018350D01*
X019817Y018350D01*
X019722Y018255D01*
X019371Y018255D01*
X019371Y018314D01*
X019327Y018358D01*
X019088Y018358D01*
X019050Y018320D01*
X019012Y018358D01*
X018773Y018358D01*
X018729Y018314D01*
X018729Y018255D01*
X018578Y018255D01*
X018483Y018350D01*
X018317Y018350D01*
X018236Y018269D02*
X015125Y018269D01*
X015125Y018221D02*
X018200Y018221D01*
X018200Y018172D02*
X015125Y018172D01*
X015125Y018124D02*
X018200Y018124D01*
X018200Y018075D02*
X015125Y018075D01*
X015125Y018027D02*
X018241Y018027D01*
X018289Y017978D02*
X015125Y017978D01*
X015125Y017930D02*
X018789Y017930D01*
X018729Y017978D02*
X018511Y017978D01*
X018559Y018027D02*
X018729Y018027D01*
X018729Y018269D02*
X018564Y018269D01*
X018515Y018318D02*
X018733Y018318D01*
X019030Y018560D02*
X019070Y018560D01*
X019345Y018560D02*
X021457Y018560D01*
X021450Y018609D02*
X019371Y018609D01*
X019371Y018657D02*
X021450Y018657D01*
X021450Y018706D02*
X019371Y018706D01*
X019371Y018754D02*
X021471Y018754D01*
X021520Y018803D02*
X019371Y018803D01*
X019371Y018851D02*
X023175Y018851D01*
X023175Y018803D02*
X022280Y018803D01*
X022233Y018850D02*
X022067Y018850D01*
X021950Y018733D01*
X021950Y018567D01*
X022067Y018450D01*
X022233Y018450D01*
X022350Y018567D01*
X022350Y018733D01*
X022233Y018850D01*
X022329Y018754D02*
X023175Y018754D01*
X023175Y018706D02*
X022350Y018706D01*
X022350Y018657D02*
X023175Y018657D01*
X023175Y018609D02*
X022350Y018609D01*
X022343Y018560D02*
X023175Y018560D01*
X023175Y018512D02*
X022294Y018512D01*
X022246Y018463D02*
X023175Y018463D01*
X023175Y018415D02*
X021755Y018415D01*
X021755Y018463D02*
X022054Y018463D01*
X022006Y018512D02*
X021794Y018512D01*
X021843Y018560D02*
X021957Y018560D01*
X021950Y018609D02*
X021850Y018609D01*
X021850Y018657D02*
X021950Y018657D01*
X021950Y018706D02*
X021850Y018706D01*
X021829Y018754D02*
X021971Y018754D01*
X022020Y018803D02*
X021780Y018803D01*
X021755Y018366D02*
X023175Y018366D01*
X023175Y018318D02*
X021755Y018318D01*
X021755Y018269D02*
X023175Y018269D01*
X023175Y018221D02*
X021755Y018221D01*
X021755Y018172D02*
X023175Y018172D01*
X023175Y018124D02*
X021755Y018124D01*
X021755Y018075D02*
X023175Y018075D01*
X023175Y018027D02*
X021755Y018027D01*
X021755Y017978D02*
X023175Y017978D01*
X023175Y017930D02*
X021755Y017930D01*
X021755Y017881D02*
X023175Y017881D01*
X023175Y017833D02*
X021755Y017833D01*
X021799Y017784D02*
X023175Y017784D01*
X023175Y017736D02*
X021847Y017736D01*
X021850Y017687D02*
X023175Y017687D01*
X023175Y017639D02*
X021850Y017639D01*
X021850Y017590D02*
X023175Y017590D01*
X023175Y017542D02*
X021824Y017542D01*
X021776Y017493D02*
X023175Y017493D01*
X023175Y017445D02*
X019866Y017445D01*
X019866Y017493D02*
X021524Y017493D01*
X021476Y017542D02*
X019866Y017542D01*
X019866Y017590D02*
X021450Y017590D01*
X021450Y017639D02*
X019866Y017639D01*
X019866Y017687D02*
X021450Y017687D01*
X021453Y017736D02*
X019866Y017736D01*
X019866Y017784D02*
X021501Y017784D01*
X021545Y017833D02*
X019866Y017833D01*
X019861Y017881D02*
X021545Y017881D01*
X021545Y017930D02*
X019835Y017930D01*
X019789Y017978D02*
X019371Y017978D01*
X019371Y018027D02*
X019741Y018027D01*
X019676Y017930D02*
X019647Y017930D01*
X019647Y017881D02*
X019676Y017881D01*
X019676Y017833D02*
X019647Y017833D01*
X019647Y017784D02*
X019676Y017784D01*
X019676Y017736D02*
X019647Y017736D01*
X019647Y017687D02*
X019676Y017687D01*
X019676Y017639D02*
X019647Y017639D01*
X019647Y017590D02*
X019676Y017590D01*
X019676Y017558D02*
X019676Y017250D01*
X019647Y017250D01*
X019647Y017558D01*
X019676Y017558D01*
X019676Y017542D02*
X019647Y017542D01*
X019647Y017493D02*
X019676Y017493D01*
X019676Y017445D02*
X019647Y017445D01*
X019647Y017396D02*
X019676Y017396D01*
X019676Y017348D02*
X019647Y017348D01*
X019647Y017299D02*
X019676Y017299D01*
X019676Y017251D02*
X019647Y017251D01*
X019823Y017202D02*
X021952Y017202D01*
X021996Y017223D02*
X021719Y017090D01*
X021528Y016850D01*
X021528Y016850D01*
X021459Y016550D01*
X021528Y016250D01*
X021719Y016010D01*
X021719Y016010D01*
X021996Y015877D01*
X022304Y015877D01*
X022581Y016010D01*
X022772Y016250D01*
X022772Y016250D01*
X022841Y016550D01*
X022772Y016850D01*
X022581Y017090D01*
X022581Y017090D01*
X022304Y017223D01*
X021996Y017223D01*
X021852Y017154D02*
X019829Y017154D01*
X019850Y017105D02*
X021751Y017105D01*
X021719Y017090D02*
X021719Y017090D01*
X021719Y017090D01*
X021693Y017057D02*
X019850Y017057D01*
X019850Y017008D02*
X021654Y017008D01*
X021615Y016960D02*
X019842Y016960D01*
X019794Y016911D02*
X021577Y016911D01*
X021538Y016863D02*
X021225Y016863D01*
X021233Y016855D02*
X021189Y016899D01*
X020261Y016899D01*
X020217Y016855D01*
X020217Y016045D01*
X020261Y016001D01*
X021189Y016001D01*
X021233Y016045D01*
X021233Y016855D01*
X021233Y016814D02*
X021520Y016814D01*
X021509Y016766D02*
X021233Y016766D01*
X021233Y016717D02*
X021498Y016717D01*
X021486Y016669D02*
X021233Y016669D01*
X021233Y016620D02*
X021475Y016620D01*
X021464Y016572D02*
X021233Y016572D01*
X021233Y016523D02*
X021466Y016523D01*
X021459Y016550D02*
X021459Y016550D01*
X021477Y016475D02*
X021233Y016475D01*
X021233Y016426D02*
X021488Y016426D01*
X021499Y016378D02*
X021233Y016378D01*
X021233Y016329D02*
X021510Y016329D01*
X021521Y016281D02*
X021233Y016281D01*
X021233Y016232D02*
X021542Y016232D01*
X021528Y016250D02*
X021528Y016250D01*
X021581Y016184D02*
X021233Y016184D01*
X021233Y016135D02*
X021620Y016135D01*
X021659Y016087D02*
X021233Y016087D01*
X021226Y016038D02*
X021697Y016038D01*
X021762Y015990D02*
X015125Y015990D01*
X015125Y016038D02*
X017074Y016038D01*
X017067Y016045D02*
X017111Y016001D01*
X018039Y016001D01*
X018083Y016045D01*
X018083Y016855D01*
X018039Y016899D01*
X017111Y016899D01*
X017067Y016855D01*
X017067Y016045D01*
X017067Y016087D02*
X015125Y016087D01*
X015125Y016135D02*
X017067Y016135D01*
X017067Y016184D02*
X015125Y016184D01*
X015125Y016232D02*
X017067Y016232D01*
X017067Y016281D02*
X015125Y016281D01*
X015125Y016329D02*
X017067Y016329D01*
X017067Y016378D02*
X015125Y016378D01*
X015125Y016426D02*
X017067Y016426D01*
X017067Y016475D02*
X015125Y016475D01*
X015125Y016523D02*
X017067Y016523D01*
X017067Y016572D02*
X015125Y016572D01*
X015125Y016620D02*
X017067Y016620D01*
X017067Y016669D02*
X015125Y016669D01*
X015125Y016717D02*
X017067Y016717D01*
X017067Y016766D02*
X015125Y016766D01*
X015125Y016814D02*
X017067Y016814D01*
X017075Y016863D02*
X015125Y016863D01*
X015125Y016911D02*
X018670Y016911D01*
X018621Y016960D02*
X015125Y016960D01*
X015125Y017008D02*
X018573Y017008D01*
X018524Y017057D02*
X015125Y017057D01*
X015125Y017105D02*
X018483Y017105D01*
X018483Y017154D02*
X015125Y017154D01*
X015125Y017202D02*
X018483Y017202D01*
X018483Y017251D02*
X015125Y017251D01*
X015125Y017299D02*
X018483Y017299D01*
X018483Y017348D02*
X015125Y017348D01*
X015125Y017396D02*
X018483Y017396D01*
X018483Y017445D02*
X015125Y017445D01*
X015125Y017493D02*
X018483Y017493D01*
X018483Y017542D02*
X015125Y017542D01*
X015125Y017590D02*
X018483Y017590D01*
X018484Y017639D02*
X015125Y017639D01*
X015125Y017687D02*
X018484Y017687D01*
X018484Y017736D02*
X015125Y017736D01*
X015125Y017784D02*
X018484Y017784D01*
X018484Y017833D02*
X015125Y017833D01*
X015125Y017881D02*
X018487Y017881D01*
X018197Y016863D02*
X018076Y016863D01*
X018083Y016814D02*
X018189Y016814D01*
X018189Y016766D02*
X018083Y016766D01*
X018083Y016717D02*
X018189Y016717D01*
X018189Y016669D02*
X018083Y016669D01*
X018083Y016620D02*
X018189Y016620D01*
X018189Y016572D02*
X018083Y016572D01*
X018083Y016523D02*
X018189Y016523D01*
X018189Y016475D02*
X018083Y016475D01*
X018083Y016426D02*
X018189Y016426D01*
X018189Y016378D02*
X018083Y016378D01*
X018083Y016329D02*
X018189Y016329D01*
X018189Y016281D02*
X018083Y016281D01*
X018083Y016232D02*
X018189Y016232D01*
X018189Y016184D02*
X018083Y016184D01*
X018083Y016135D02*
X018189Y016135D01*
X018189Y016087D02*
X018083Y016087D01*
X018076Y016038D02*
X018196Y016038D01*
X019120Y016038D02*
X019180Y016038D01*
X019173Y016087D02*
X019127Y016087D01*
X019127Y016135D02*
X019173Y016135D01*
X019173Y016184D02*
X019127Y016184D01*
X019127Y016232D02*
X019173Y016232D01*
X019173Y016281D02*
X019127Y016281D01*
X019127Y016329D02*
X019173Y016329D01*
X019173Y016378D02*
X019127Y016378D01*
X019127Y016426D02*
X019173Y016426D01*
X019173Y016475D02*
X019127Y016475D01*
X019127Y016523D02*
X019173Y016523D01*
X019173Y016572D02*
X019127Y016572D01*
X019127Y016620D02*
X019173Y016620D01*
X019173Y016669D02*
X019127Y016669D01*
X019127Y016717D02*
X019173Y016717D01*
X019173Y016766D02*
X019127Y016766D01*
X019127Y016814D02*
X019173Y016814D01*
X019181Y016863D02*
X019119Y016863D01*
X019858Y017251D02*
X023175Y017251D01*
X023175Y017299D02*
X019866Y017299D01*
X019866Y017348D02*
X023175Y017348D01*
X023175Y017396D02*
X019866Y017396D01*
X020103Y016863D02*
X020224Y016863D01*
X020217Y016814D02*
X020111Y016814D01*
X020111Y016766D02*
X020217Y016766D01*
X020217Y016717D02*
X020111Y016717D01*
X020111Y016669D02*
X020217Y016669D01*
X020217Y016620D02*
X020111Y016620D01*
X020111Y016572D02*
X020217Y016572D01*
X020217Y016523D02*
X020111Y016523D01*
X020111Y016475D02*
X020217Y016475D01*
X020217Y016426D02*
X020111Y016426D01*
X020111Y016378D02*
X020217Y016378D01*
X020217Y016329D02*
X020111Y016329D01*
X020111Y016281D02*
X020217Y016281D01*
X020217Y016232D02*
X020111Y016232D01*
X020111Y016184D02*
X020217Y016184D01*
X020217Y016135D02*
X020111Y016135D01*
X020111Y016087D02*
X020217Y016087D01*
X020224Y016038D02*
X020104Y016038D01*
X020011Y017978D02*
X021545Y017978D01*
X021545Y018027D02*
X020059Y018027D01*
X020100Y018075D02*
X021545Y018075D01*
X021545Y018124D02*
X020100Y018124D01*
X020100Y018172D02*
X021545Y018172D01*
X021545Y018221D02*
X020100Y018221D01*
X020064Y018269D02*
X021545Y018269D01*
X021545Y018318D02*
X020015Y018318D01*
X019785Y018318D02*
X019367Y018318D01*
X019371Y018269D02*
X019736Y018269D01*
X019488Y017930D02*
X019255Y017930D01*
X019371Y018900D02*
X023175Y018900D01*
X023175Y018948D02*
X019347Y018948D01*
X019312Y018997D02*
X023175Y018997D01*
X023175Y019045D02*
X019312Y019045D01*
X019312Y019094D02*
X023175Y019094D01*
X023175Y019142D02*
X019312Y019142D01*
X019312Y019191D02*
X023175Y019191D01*
X023175Y019239D02*
X019312Y019239D01*
X019312Y019288D02*
X023175Y019288D01*
X023175Y019336D02*
X019312Y019336D01*
X019312Y019385D02*
X023175Y019385D01*
X023175Y019433D02*
X019312Y019433D01*
X019312Y019482D02*
X021286Y019482D01*
X021317Y019450D02*
X021483Y019450D01*
X021600Y019567D01*
X021600Y019733D01*
X021483Y019850D01*
X021317Y019850D01*
X021200Y019733D01*
X021200Y019567D01*
X021317Y019450D01*
X021237Y019530D02*
X019312Y019530D01*
X019312Y019579D02*
X021200Y019579D01*
X021200Y019627D02*
X019312Y019627D01*
X019312Y019676D02*
X021200Y019676D01*
X021200Y019724D02*
X019312Y019724D01*
X019312Y019773D02*
X021240Y019773D01*
X021288Y019821D02*
X019312Y019821D01*
X019312Y019870D02*
X022295Y019870D01*
X022295Y019918D02*
X019312Y019918D01*
X019312Y019967D02*
X022295Y019967D01*
X022295Y020015D02*
X019312Y020015D01*
X019312Y020064D02*
X022295Y020064D01*
X022169Y020112D02*
X022119Y020112D01*
X022119Y020161D02*
X022169Y020161D01*
X022169Y020209D02*
X022119Y020209D01*
X022119Y020258D02*
X022169Y020258D01*
X022169Y020306D02*
X022119Y020306D01*
X022119Y020355D02*
X022169Y020355D01*
X022119Y020403D02*
X019312Y020403D01*
X019312Y020355D02*
X021881Y020355D01*
X021881Y020306D02*
X019312Y020306D01*
X019312Y020258D02*
X021881Y020258D01*
X021881Y020209D02*
X019312Y020209D01*
X019312Y020161D02*
X021898Y020161D01*
X021948Y020112D02*
X019312Y020112D01*
X019312Y020452D02*
X021566Y020452D01*
X021567Y020450D02*
X021733Y020450D01*
X021850Y020567D01*
X021850Y020733D01*
X021733Y020850D01*
X021567Y020850D01*
X021450Y020733D01*
X021450Y020567D01*
X021567Y020450D01*
X021517Y020500D02*
X019312Y020500D01*
X019312Y020549D02*
X021469Y020549D01*
X021450Y020597D02*
X019312Y020597D01*
X019312Y020646D02*
X021450Y020646D01*
X021450Y020694D02*
X019312Y020694D01*
X019312Y020743D02*
X021460Y020743D01*
X021508Y020791D02*
X019312Y020791D01*
X019309Y020840D02*
X021557Y020840D01*
X021743Y020840D02*
X022207Y020840D01*
X022200Y020791D02*
X021792Y020791D01*
X021840Y020743D02*
X022200Y020743D01*
X022169Y020694D02*
X022119Y020694D01*
X022119Y020646D02*
X022169Y020646D01*
X022169Y020597D02*
X022119Y020597D01*
X022119Y020549D02*
X022169Y020549D01*
X022169Y020500D02*
X022119Y020500D01*
X022119Y020452D02*
X022169Y020452D01*
X021881Y020452D02*
X021734Y020452D01*
X021783Y020500D02*
X021881Y020500D01*
X021881Y020549D02*
X021831Y020549D01*
X021850Y020597D02*
X021882Y020597D01*
X021901Y020646D02*
X021850Y020646D01*
X021850Y020694D02*
X021959Y020694D01*
X022244Y020888D02*
X022255Y020888D01*
X022278Y020937D02*
X022304Y020937D01*
X022278Y020985D02*
X022522Y020985D01*
X022522Y020937D02*
X022496Y020937D01*
X022522Y021034D02*
X022278Y021034D01*
X022278Y021082D02*
X022522Y021082D01*
X022522Y021131D02*
X022278Y021131D01*
X022278Y021179D02*
X022522Y021179D01*
X022522Y021228D02*
X022278Y021228D01*
X022278Y021276D02*
X022522Y021276D01*
X022522Y021325D02*
X022278Y021325D01*
X022278Y021373D02*
X022522Y021373D01*
X022565Y021422D02*
X022235Y021422D01*
X022190Y021470D02*
X023175Y021470D01*
X023175Y021422D02*
X023101Y021422D01*
X023144Y021373D02*
X023175Y021373D01*
X023175Y021325D02*
X023144Y021325D01*
X023144Y021276D02*
X023175Y021276D01*
X023175Y021228D02*
X023144Y021228D01*
X023144Y021179D02*
X023175Y021179D01*
X023175Y021131D02*
X023144Y021131D01*
X023144Y021082D02*
X023175Y021082D01*
X023175Y021034D02*
X023144Y021034D01*
X023144Y020985D02*
X023175Y020985D01*
X023175Y020937D02*
X023144Y020937D01*
X023175Y020888D02*
X023110Y020888D01*
X023143Y020840D02*
X023175Y020840D01*
X023175Y021519D02*
X022190Y021519D01*
X022190Y021567D02*
X023175Y021567D01*
X023175Y021616D02*
X023040Y021616D01*
X023070Y021664D02*
X023175Y021664D01*
X023175Y021713D02*
X023076Y021713D01*
X023076Y021761D02*
X023175Y021761D01*
X023175Y021810D02*
X023076Y021810D01*
X023076Y021858D02*
X023175Y021858D01*
X023175Y021907D02*
X022760Y021907D01*
X022760Y021858D02*
X022710Y021858D01*
X022710Y021810D02*
X022760Y021810D01*
X022760Y021761D02*
X022710Y021761D01*
X022710Y021713D02*
X022760Y021713D01*
X022760Y021664D02*
X022710Y021664D01*
X022710Y021616D02*
X022760Y021616D01*
X022710Y021907D02*
X022357Y021907D01*
X022357Y021955D02*
X022393Y021955D01*
X022393Y022004D02*
X022357Y022004D01*
X022357Y022052D02*
X022393Y022052D01*
X022393Y022101D02*
X022357Y022101D01*
X022336Y022149D02*
X022404Y022149D01*
X022395Y022198D02*
X022357Y022198D01*
X022357Y022246D02*
X022393Y022246D01*
X022393Y022295D02*
X022357Y022295D01*
X022357Y022343D02*
X022393Y022343D01*
X022357Y022392D02*
X022631Y022392D01*
X022631Y022440D02*
X022681Y022440D01*
X022681Y022392D02*
X023175Y022392D01*
X023175Y022440D02*
X022919Y022440D01*
X022919Y022343D02*
X023175Y022343D01*
X023175Y022295D02*
X022919Y022295D01*
X022919Y022246D02*
X023175Y022246D01*
X023175Y022198D02*
X023027Y022198D01*
X023065Y022149D02*
X023175Y022149D01*
X023175Y022101D02*
X023076Y022101D01*
X023076Y022052D02*
X023175Y022052D01*
X023175Y022004D02*
X023076Y022004D01*
X023076Y021955D02*
X023175Y021955D01*
X023175Y022489D02*
X023121Y022489D01*
X023170Y022537D02*
X023175Y022537D01*
X023153Y022780D02*
X023175Y022780D01*
X023175Y022828D02*
X023105Y022828D01*
X022681Y022828D02*
X022631Y022828D01*
X022631Y022780D02*
X022681Y022780D01*
X022681Y022731D02*
X022631Y022731D01*
X022631Y022683D02*
X022681Y022683D01*
X022681Y022634D02*
X022631Y022634D01*
X022631Y022586D02*
X022681Y022586D01*
X022681Y022537D02*
X022631Y022537D01*
X022631Y022489D02*
X022681Y022489D01*
X022393Y022489D02*
X022357Y022489D01*
X022357Y022537D02*
X022393Y022537D01*
X022393Y022586D02*
X022357Y022586D01*
X022331Y022634D02*
X022407Y022634D01*
X022399Y022683D02*
X022348Y022683D01*
X022357Y022731D02*
X022393Y022731D01*
X022393Y022780D02*
X022357Y022780D01*
X022357Y022828D02*
X022393Y022828D01*
X022631Y022974D02*
X022681Y022974D01*
X022681Y023022D02*
X022631Y023022D01*
X022631Y023071D02*
X022681Y023071D01*
X022681Y023119D02*
X022631Y023119D01*
X022631Y023168D02*
X022681Y023168D01*
X022681Y023216D02*
X022631Y023216D01*
X022631Y023265D02*
X022681Y023265D01*
X022681Y023313D02*
X022631Y023313D01*
X022393Y023459D02*
X022357Y023459D01*
X022357Y023507D02*
X022393Y023507D01*
X022393Y023556D02*
X022357Y023556D01*
X022357Y023604D02*
X022396Y023604D01*
X022417Y023653D02*
X022051Y023653D01*
X021931Y023533D02*
X021931Y023364D01*
X021866Y023299D01*
X021814Y023299D01*
X021814Y023366D01*
X021399Y023366D01*
X021399Y023375D01*
X021814Y023375D01*
X021814Y023446D01*
X021810Y023462D01*
X021861Y023462D01*
X021931Y023533D01*
X021931Y023507D02*
X021906Y023507D01*
X021931Y023459D02*
X021811Y023459D01*
X021814Y023410D02*
X021931Y023410D01*
X021929Y023362D02*
X021814Y023362D01*
X021814Y023313D02*
X021880Y023313D01*
X021931Y022925D02*
X021808Y022925D01*
X021856Y022877D02*
X021931Y022877D01*
X021931Y022828D02*
X021900Y022828D01*
X021900Y022780D02*
X021931Y022780D01*
X021931Y022731D02*
X021900Y022731D01*
X021900Y022683D02*
X021941Y022683D01*
X021957Y022634D02*
X021867Y022634D01*
X021818Y022586D02*
X021931Y022586D01*
X022357Y022440D02*
X022393Y022440D01*
X022393Y021858D02*
X022357Y021858D01*
X022357Y021810D02*
X022393Y021810D01*
X022393Y021761D02*
X022357Y021761D01*
X022357Y021713D02*
X022393Y021713D01*
X022399Y021664D02*
X022349Y021664D01*
X022429Y021616D02*
X022190Y021616D01*
X022505Y020112D02*
X023175Y020112D01*
X023175Y020064D02*
X022505Y020064D01*
X022505Y020015D02*
X023175Y020015D01*
X023175Y019967D02*
X022505Y019967D01*
X022505Y019918D02*
X023175Y019918D01*
X023175Y019870D02*
X022505Y019870D01*
X022512Y019821D02*
X023175Y019821D01*
X023175Y019773D02*
X022560Y019773D01*
X022600Y019724D02*
X023175Y019724D01*
X023175Y019676D02*
X022600Y019676D01*
X022600Y019627D02*
X023175Y019627D01*
X023175Y019579D02*
X022600Y019579D01*
X022563Y019530D02*
X023175Y019530D01*
X023175Y019482D02*
X022514Y019482D01*
X022286Y019482D02*
X022014Y019482D01*
X021983Y019450D02*
X022100Y019567D01*
X022100Y019733D01*
X021983Y019850D01*
X021817Y019850D01*
X021700Y019733D01*
X021700Y019567D01*
X021817Y019450D01*
X021983Y019450D01*
X022063Y019530D02*
X022237Y019530D01*
X022200Y019579D02*
X022100Y019579D01*
X022100Y019627D02*
X022200Y019627D01*
X022200Y019676D02*
X022100Y019676D01*
X022100Y019724D02*
X022200Y019724D01*
X022240Y019773D02*
X022060Y019773D01*
X022012Y019821D02*
X022288Y019821D01*
X022837Y020161D02*
X023175Y020161D01*
X021788Y019821D02*
X021512Y019821D01*
X021560Y019773D02*
X021740Y019773D01*
X021700Y019724D02*
X021600Y019724D01*
X021600Y019676D02*
X021700Y019676D01*
X021700Y019627D02*
X021600Y019627D01*
X021600Y019579D02*
X021700Y019579D01*
X021737Y019530D02*
X021563Y019530D01*
X021514Y019482D02*
X021786Y019482D01*
X020217Y020937D02*
X020043Y020937D01*
X020081Y020985D02*
X020198Y020985D01*
X020196Y021034D02*
X020081Y021034D01*
X020081Y021082D02*
X020196Y021082D01*
X020196Y021131D02*
X020081Y021131D01*
X020081Y021179D02*
X020196Y021179D01*
X020196Y021228D02*
X020081Y021228D01*
X020081Y021276D02*
X020196Y021276D01*
X020196Y021325D02*
X020081Y021325D01*
X020081Y021373D02*
X020196Y021373D01*
X020196Y021422D02*
X020081Y021422D01*
X020081Y021470D02*
X020196Y021470D01*
X020196Y021519D02*
X020081Y021519D01*
X020081Y021567D02*
X020196Y021567D01*
X020196Y021616D02*
X020081Y021616D01*
X020081Y021664D02*
X020196Y021664D01*
X020196Y021713D02*
X020081Y021713D01*
X020081Y021761D02*
X020196Y021761D01*
X020196Y021810D02*
X020081Y021810D01*
X020107Y021858D02*
X020214Y021858D01*
X019715Y022004D02*
X019570Y022004D01*
X019570Y022780D02*
X019682Y022780D01*
X019238Y022780D02*
X018960Y022780D01*
X019061Y022828D02*
X019200Y022828D01*
X019200Y022877D02*
X019109Y022877D01*
X019150Y022925D02*
X019200Y022925D01*
X019200Y022974D02*
X019150Y022974D01*
X019150Y023022D02*
X019239Y023022D01*
X019288Y023071D02*
X019150Y023071D01*
X019114Y023119D02*
X020732Y023119D01*
X020684Y023168D02*
X019065Y023168D01*
X018850Y023216D02*
X020635Y023216D01*
X020587Y023265D02*
X018818Y023265D01*
X018770Y023313D02*
X020538Y023313D01*
X020356Y023362D02*
X018100Y023362D01*
X018100Y023410D02*
X020307Y023410D01*
X020259Y023459D02*
X018957Y023459D01*
X019006Y023507D02*
X020250Y023507D01*
X020250Y023556D02*
X019054Y023556D01*
X019103Y023604D02*
X020250Y023604D01*
X020270Y023653D02*
X019151Y023653D01*
X019000Y023798D02*
X018081Y023798D01*
X018100Y023817D02*
X018100Y023983D01*
X017983Y024100D01*
X017817Y024100D01*
X017700Y023983D01*
X017700Y023889D01*
X017438Y023889D01*
X017498Y023950D01*
X017633Y023950D01*
X017750Y024067D01*
X017750Y024233D01*
X017633Y024350D01*
X017467Y024350D01*
X017350Y024233D01*
X017350Y024098D01*
X017318Y024066D01*
X017274Y024066D01*
X017276Y024068D01*
X017276Y024248D01*
X017268Y024256D01*
X017276Y024265D01*
X017276Y024445D01*
X017268Y024453D01*
X017276Y024461D01*
X017276Y024588D01*
X017278Y024589D01*
X017301Y024613D01*
X017318Y024641D01*
X017326Y024673D01*
X017326Y024744D01*
X016910Y024744D01*
X016910Y024753D01*
X017326Y024753D01*
X017326Y024824D01*
X017322Y024840D01*
X017450Y024840D01*
X017450Y024817D01*
X017567Y024700D01*
X017733Y024700D01*
X017850Y024817D01*
X017850Y024983D01*
X017733Y025100D01*
X017567Y025100D01*
X017517Y025050D01*
X017274Y025050D01*
X017276Y025052D01*
X017276Y025232D01*
X017274Y025234D01*
X018283Y025234D01*
X018317Y025200D01*
X018483Y025200D01*
X018600Y025317D01*
X018600Y025483D01*
X018538Y025545D01*
X018907Y025545D01*
X019345Y025107D01*
X019407Y025045D01*
X020472Y025045D01*
X020517Y025000D01*
X020400Y024883D01*
X020400Y024717D01*
X020517Y024600D01*
X020400Y024483D01*
X020400Y024317D01*
X020517Y024200D01*
X020617Y024200D01*
X020550Y024133D01*
X020550Y023967D01*
X020612Y023905D01*
X019107Y023905D01*
X019045Y023843D01*
X018857Y023655D01*
X018007Y023655D01*
X017952Y023600D01*
X017817Y023600D01*
X017700Y023483D01*
X017700Y023317D01*
X017739Y023279D01*
X017274Y023279D01*
X017276Y023280D01*
X017276Y023407D01*
X017278Y023408D01*
X017301Y023432D01*
X017318Y023460D01*
X017326Y023492D01*
X017326Y023563D01*
X016910Y023563D01*
X016910Y023572D01*
X017326Y023572D01*
X017326Y023639D01*
X017816Y023639D01*
X017877Y023700D01*
X017983Y023700D01*
X018100Y023817D01*
X018100Y023847D02*
X019048Y023847D01*
X019097Y023895D02*
X018100Y023895D01*
X018100Y023944D02*
X020574Y023944D01*
X020550Y023992D02*
X018091Y023992D01*
X018042Y024041D02*
X020550Y024041D01*
X020550Y024089D02*
X017994Y024089D01*
X017806Y024089D02*
X017750Y024089D01*
X017750Y024138D02*
X020555Y024138D01*
X020603Y024186D02*
X017750Y024186D01*
X017748Y024235D02*
X020483Y024235D01*
X020434Y024283D02*
X017700Y024283D01*
X017651Y024332D02*
X020400Y024332D01*
X020400Y024380D02*
X017276Y024380D01*
X017276Y024332D02*
X017449Y024332D01*
X017400Y024283D02*
X017276Y024283D01*
X017276Y024235D02*
X017352Y024235D01*
X017350Y024186D02*
X017276Y024186D01*
X017276Y024138D02*
X017350Y024138D01*
X017341Y024089D02*
X017276Y024089D01*
X017444Y023895D02*
X017700Y023895D01*
X017700Y023944D02*
X017492Y023944D01*
X017675Y023992D02*
X017709Y023992D01*
X017723Y024041D02*
X017758Y024041D01*
X017829Y023653D02*
X018004Y023653D01*
X017984Y023701D02*
X018903Y023701D01*
X018951Y023750D02*
X018032Y023750D01*
X017956Y023604D02*
X017326Y023604D01*
X017326Y023556D02*
X017773Y023556D01*
X017724Y023507D02*
X017326Y023507D01*
X017317Y023459D02*
X017700Y023459D01*
X017700Y023410D02*
X017280Y023410D01*
X017276Y023362D02*
X017700Y023362D01*
X017704Y023313D02*
X017276Y023313D01*
X016901Y023563D02*
X016486Y023563D01*
X016486Y023492D01*
X016490Y023475D01*
X016373Y023475D01*
X016350Y023498D01*
X016350Y023633D01*
X016344Y023639D01*
X016486Y023639D01*
X016486Y023572D01*
X016901Y023572D01*
X016901Y023563D01*
X016486Y023556D02*
X016350Y023556D01*
X016350Y023604D02*
X016486Y023604D01*
X016486Y023507D02*
X016350Y023507D01*
X016202Y023350D02*
X016286Y023265D01*
X016537Y023265D01*
X016536Y023264D01*
X016536Y023084D01*
X016564Y023055D01*
X015307Y023055D01*
X015125Y022873D01*
X015125Y024427D01*
X015349Y024203D01*
X015384Y024203D01*
X015381Y024194D01*
X015381Y024025D01*
X015619Y024025D01*
X015619Y023975D01*
X015381Y023975D01*
X015381Y023806D01*
X015390Y023775D01*
X015406Y023746D01*
X015430Y023723D01*
X015458Y023706D01*
X015490Y023698D01*
X015619Y023698D01*
X015619Y023975D01*
X015669Y023975D01*
X015669Y023698D01*
X015798Y023698D01*
X015830Y023706D01*
X015859Y023723D01*
X015882Y023746D01*
X015898Y023775D01*
X015907Y023806D01*
X015907Y023975D01*
X015669Y023975D01*
X015669Y024025D01*
X015907Y024025D01*
X015907Y024194D01*
X015904Y024203D01*
X015943Y024203D01*
X015943Y023792D01*
X015987Y023748D01*
X016065Y023748D01*
X015950Y023633D01*
X015950Y023467D01*
X016067Y023350D01*
X016202Y023350D01*
X016238Y023313D02*
X015125Y023313D01*
X015125Y023265D02*
X016536Y023265D01*
X016536Y023216D02*
X015125Y023216D01*
X015125Y023168D02*
X016536Y023168D01*
X016536Y023119D02*
X015125Y023119D01*
X015125Y023071D02*
X016549Y023071D01*
X016056Y023362D02*
X015125Y023362D01*
X015125Y023410D02*
X016007Y023410D01*
X015959Y023459D02*
X015125Y023459D01*
X015125Y023507D02*
X015950Y023507D01*
X015950Y023556D02*
X015125Y023556D01*
X015125Y023604D02*
X015950Y023604D01*
X015970Y023653D02*
X015125Y023653D01*
X015125Y023701D02*
X015478Y023701D01*
X015404Y023750D02*
X015125Y023750D01*
X015125Y023798D02*
X015384Y023798D01*
X015381Y023847D02*
X015125Y023847D01*
X015125Y023895D02*
X015381Y023895D01*
X015381Y023944D02*
X015125Y023944D01*
X015125Y023992D02*
X015619Y023992D01*
X015619Y023944D02*
X015669Y023944D01*
X015669Y023992D02*
X015943Y023992D01*
X015943Y023944D02*
X015907Y023944D01*
X015907Y023895D02*
X015943Y023895D01*
X015943Y023847D02*
X015907Y023847D01*
X015905Y023798D02*
X015943Y023798D01*
X015985Y023750D02*
X015884Y023750D01*
X015810Y023701D02*
X016018Y023701D01*
X015943Y024041D02*
X015907Y024041D01*
X015907Y024089D02*
X015943Y024089D01*
X015943Y024138D02*
X015907Y024138D01*
X015907Y024186D02*
X015943Y024186D01*
X015669Y023895D02*
X015619Y023895D01*
X015619Y023847D02*
X015669Y023847D01*
X015669Y023798D02*
X015619Y023798D01*
X015619Y023750D02*
X015669Y023750D01*
X015669Y023701D02*
X015619Y023701D01*
X015381Y024041D02*
X015125Y024041D01*
X015125Y024089D02*
X015381Y024089D01*
X015381Y024138D02*
X015125Y024138D01*
X015125Y024186D02*
X015381Y024186D01*
X015317Y024235D02*
X015125Y024235D01*
X015125Y024283D02*
X015268Y024283D01*
X015220Y024332D02*
X015125Y024332D01*
X015125Y024380D02*
X015171Y024380D01*
X015398Y024450D02*
X015483Y024450D01*
X015600Y024567D01*
X015600Y024733D01*
X015505Y024828D01*
X015505Y025857D01*
X015670Y026021D01*
X016537Y026021D01*
X016536Y026020D01*
X016536Y025839D01*
X016544Y025831D01*
X016536Y025823D01*
X016536Y025643D01*
X016537Y025641D01*
X016350Y025641D01*
X016350Y025733D01*
X016233Y025850D01*
X016067Y025850D01*
X015950Y025733D01*
X015950Y025567D01*
X016067Y025450D01*
X016202Y025450D01*
X016221Y025431D01*
X016537Y025431D01*
X016536Y025429D01*
X016536Y025249D01*
X016544Y025241D01*
X016536Y025232D01*
X016536Y025052D01*
X016544Y025044D01*
X016536Y025035D01*
X016536Y024909D01*
X016534Y024908D01*
X016511Y024884D01*
X016494Y024856D01*
X016486Y024824D01*
X016486Y024753D01*
X016901Y024753D01*
X016901Y024744D01*
X016486Y024744D01*
X016486Y024673D01*
X016494Y024641D01*
X016511Y024613D01*
X016534Y024589D01*
X016536Y024588D01*
X016536Y024461D01*
X016544Y024453D01*
X016536Y024445D01*
X016536Y024363D01*
X016486Y024413D01*
X015436Y024413D01*
X015398Y024450D01*
X015420Y024429D02*
X016536Y024429D01*
X016536Y024477D02*
X015510Y024477D01*
X015558Y024526D02*
X016536Y024526D01*
X016536Y024574D02*
X015600Y024574D01*
X015600Y024623D02*
X016505Y024623D01*
X016486Y024671D02*
X015600Y024671D01*
X015600Y024720D02*
X016486Y024720D01*
X016486Y024768D02*
X015565Y024768D01*
X015516Y024817D02*
X016486Y024817D01*
X016500Y024865D02*
X015505Y024865D01*
X015505Y024914D02*
X016536Y024914D01*
X016536Y024962D02*
X015505Y024962D01*
X015505Y025011D02*
X016536Y025011D01*
X016536Y025059D02*
X015505Y025059D01*
X015505Y025108D02*
X016536Y025108D01*
X016536Y025156D02*
X015505Y025156D01*
X015505Y025205D02*
X016536Y025205D01*
X016536Y025253D02*
X015505Y025253D01*
X015505Y025302D02*
X016536Y025302D01*
X016536Y025350D02*
X015505Y025350D01*
X015505Y025399D02*
X016536Y025399D01*
X016537Y025641D02*
X016350Y025641D01*
X016350Y025690D02*
X016536Y025690D01*
X016536Y025738D02*
X016345Y025738D01*
X016296Y025787D02*
X016536Y025787D01*
X016540Y025835D02*
X016248Y025835D01*
X016052Y025835D02*
X015505Y025835D01*
X015505Y025787D02*
X016004Y025787D01*
X015955Y025738D02*
X015505Y025738D01*
X015505Y025690D02*
X015950Y025690D01*
X015950Y025641D02*
X015505Y025641D01*
X015505Y025593D02*
X015950Y025593D01*
X015973Y025544D02*
X015505Y025544D01*
X015505Y025496D02*
X016022Y025496D01*
X016204Y025447D02*
X015505Y025447D01*
X015532Y025884D02*
X016536Y025884D01*
X016536Y025932D02*
X015581Y025932D01*
X015629Y025981D02*
X016536Y025981D01*
X016328Y026755D02*
X016233Y026850D01*
X016067Y026850D01*
X015950Y026733D01*
X015833Y026850D01*
X015667Y026850D01*
X015575Y026758D01*
X015483Y026850D01*
X015317Y026850D01*
X015200Y026733D01*
X015200Y026598D01*
X015125Y026523D01*
X015125Y035925D01*
X015729Y035925D01*
X015729Y035471D01*
X015772Y035427D01*
X016517Y035427D01*
X016650Y035295D01*
X020722Y035295D01*
X020817Y035200D01*
X020983Y035200D01*
X021100Y035317D01*
X021100Y035483D01*
X021038Y035545D01*
X021240Y035545D01*
X021240Y035471D01*
X021284Y035427D01*
X022528Y035427D01*
X022571Y035471D01*
X022571Y035545D01*
X022722Y035545D01*
X022817Y035450D01*
X022983Y035450D01*
X023100Y035567D01*
X023100Y035733D01*
X022983Y035850D01*
X022817Y035850D01*
X022722Y035755D01*
X022571Y035755D01*
X022571Y035925D01*
X023175Y035925D01*
X023175Y034323D01*
X022905Y034593D01*
X022905Y034593D01*
X022843Y034655D01*
X022543Y034655D01*
X022571Y034684D01*
X022571Y034746D01*
X022617Y034700D01*
X022783Y034700D01*
X022900Y034817D01*
X022900Y034983D01*
X022783Y035100D01*
X022617Y035100D01*
X022571Y035054D01*
X022571Y035140D01*
X022528Y035184D01*
X021284Y035184D01*
X021240Y035140D01*
X021240Y035005D01*
X020328Y035005D01*
X020233Y035100D01*
X020067Y035100D01*
X019950Y034983D01*
X019950Y034817D01*
X020067Y034700D01*
X020233Y034700D01*
X020328Y034795D01*
X021240Y034795D01*
X021240Y034684D01*
X021269Y034655D01*
X019328Y034655D01*
X019233Y034750D01*
X019067Y034750D01*
X018950Y034633D01*
X018950Y034467D01*
X019067Y034350D01*
X019233Y034350D01*
X019328Y034445D01*
X022757Y034445D01*
X023045Y034157D01*
X023045Y033788D01*
X022983Y033850D01*
X022817Y033850D01*
X022700Y033733D01*
X022700Y033567D01*
X022817Y033450D01*
X022895Y033450D01*
X022895Y029893D01*
X022703Y029702D01*
X021390Y029702D01*
X021390Y030022D01*
X021346Y030066D01*
X021224Y030066D01*
X021224Y030475D01*
X021005Y030693D01*
X020755Y030943D01*
X020693Y031005D01*
X019857Y031005D01*
X019702Y030850D01*
X019600Y030850D01*
X019600Y030983D01*
X019483Y031100D01*
X019317Y031100D01*
X019200Y030983D01*
X019200Y030817D01*
X019295Y030722D01*
X019295Y030438D01*
X019272Y030415D01*
X019272Y029899D01*
X019250Y029899D01*
X019202Y029850D01*
X019067Y029850D01*
X019028Y029811D01*
X019028Y030415D01*
X018984Y030459D01*
X018528Y030459D01*
X018484Y030415D01*
X018484Y029205D01*
X018241Y029205D01*
X018241Y030415D01*
X018197Y030459D01*
X017750Y030459D01*
X017750Y030583D01*
X017633Y030700D01*
X017467Y030700D01*
X017350Y030583D01*
X017350Y030417D01*
X017467Y030300D01*
X017602Y030300D01*
X017697Y030204D01*
X017697Y029172D01*
X017741Y029128D01*
X017873Y029128D01*
X017945Y029057D01*
X018007Y028995D01*
X018512Y028995D01*
X018472Y028955D01*
X017493Y028955D01*
X017320Y029128D01*
X017409Y029128D01*
X017453Y029172D01*
X017453Y030022D01*
X017409Y030066D01*
X016954Y030066D01*
X016910Y030022D01*
X016910Y029172D01*
X016954Y029128D01*
X017045Y029128D01*
X017045Y029107D01*
X017107Y029045D01*
X017352Y028800D01*
X017317Y028800D01*
X017222Y028705D01*
X016328Y028705D01*
X016233Y028800D01*
X016067Y028800D01*
X016005Y028738D01*
X016005Y028943D01*
X015755Y029193D01*
X015693Y029255D01*
X015652Y029255D01*
X015652Y029313D01*
X015608Y029357D01*
X015192Y029357D01*
X015148Y029313D01*
X015148Y028975D01*
X015192Y028931D01*
X015608Y028931D01*
X015652Y028975D01*
X015652Y028999D01*
X015795Y028857D01*
X015795Y028357D01*
X015125Y028357D01*
X015125Y028309D02*
X015843Y028309D01*
X015857Y028295D02*
X016045Y028107D01*
X016045Y027828D01*
X015950Y027733D01*
X015950Y027567D01*
X016067Y027450D01*
X016233Y027450D01*
X016350Y027567D01*
X016350Y027733D01*
X016255Y027828D01*
X016255Y028193D01*
X016005Y028443D01*
X016005Y028462D01*
X016067Y028400D01*
X016233Y028400D01*
X016328Y028495D01*
X017222Y028495D01*
X017317Y028400D01*
X017483Y028400D01*
X017578Y028495D01*
X017872Y028495D01*
X017967Y028400D01*
X018133Y028400D01*
X018228Y028495D01*
X020897Y028495D01*
X020795Y028393D01*
X020795Y028369D01*
X020692Y028369D01*
X020683Y028360D01*
X020677Y028370D01*
X020654Y028394D01*
X020625Y028410D01*
X020594Y028419D01*
X020425Y028419D01*
X020425Y028181D01*
X020375Y028181D01*
X020375Y028419D01*
X020206Y028419D01*
X020175Y028410D01*
X020146Y028394D01*
X020123Y028370D01*
X020106Y028342D01*
X020098Y028310D01*
X020098Y028181D01*
X020375Y028181D01*
X020375Y028131D01*
X020098Y028131D01*
X020098Y028002D01*
X020106Y027970D01*
X020123Y027941D01*
X020146Y027918D01*
X020175Y027902D01*
X020206Y027893D01*
X020375Y027893D01*
X020375Y028131D01*
X020425Y028131D01*
X020425Y027893D01*
X020594Y027893D01*
X020625Y027902D01*
X020654Y027918D01*
X020677Y027941D01*
X020683Y027952D01*
X020692Y027943D01*
X021108Y027943D01*
X021152Y027987D01*
X021152Y028325D01*
X021108Y028369D01*
X021067Y028369D01*
X021098Y028400D01*
X021233Y028400D01*
X021313Y028480D01*
X021313Y028459D01*
X021357Y028416D01*
X021480Y028416D01*
X021480Y027384D01*
X021357Y027384D01*
X021313Y027341D01*
X021313Y026885D01*
X021357Y026841D01*
X021658Y026841D01*
X021550Y026733D01*
X021550Y026567D01*
X021618Y026499D01*
X021380Y026260D01*
X021068Y026260D01*
X021024Y026216D01*
X021024Y026036D01*
X021032Y026028D01*
X021024Y026020D01*
X021024Y025839D01*
X021032Y025831D01*
X021024Y025823D01*
X021024Y025643D01*
X021032Y025634D01*
X021024Y025626D01*
X021024Y025503D01*
X020925Y025602D01*
X020905Y025622D01*
X021000Y025717D01*
X021000Y025883D01*
X020883Y026000D01*
X020717Y026000D01*
X020622Y025905D01*
X019343Y025905D01*
X019293Y025955D01*
X019238Y025955D01*
X019350Y026067D01*
X019350Y026200D01*
X019450Y026200D01*
X019450Y026117D01*
X019567Y026000D01*
X019733Y026000D01*
X019850Y026117D01*
X019850Y026200D01*
X019983Y026200D01*
X020100Y026317D01*
X020100Y026483D01*
X020059Y026524D01*
X020126Y026524D01*
X020134Y026532D01*
X020143Y026524D01*
X020241Y026524D01*
X020200Y026483D01*
X020200Y026317D01*
X020317Y026200D01*
X020483Y026200D01*
X020600Y026317D01*
X020600Y026474D01*
X020622Y026474D01*
X020622Y026890D01*
X020631Y026890D01*
X020631Y026899D01*
X020622Y026899D01*
X020622Y027314D01*
X020555Y027314D01*
X020555Y027431D01*
X020608Y027431D01*
X020650Y027473D01*
X020692Y027431D01*
X021108Y027431D01*
X021152Y027475D01*
X021152Y027813D01*
X021108Y027857D01*
X020692Y027857D01*
X020650Y027815D01*
X020608Y027857D01*
X020192Y027857D01*
X020148Y027813D01*
X020148Y027585D01*
X020133Y027600D01*
X019967Y027600D01*
X019850Y027483D01*
X019850Y027317D01*
X019903Y027264D01*
X019749Y027264D01*
X019741Y027256D01*
X019732Y027264D01*
X019552Y027264D01*
X019550Y027263D01*
X019550Y027267D01*
X019600Y027317D01*
X019600Y027483D01*
X019508Y027575D01*
X019884Y027575D01*
X019928Y027619D01*
X019928Y027917D01*
X019900Y027945D01*
X019928Y027973D01*
X019928Y028272D01*
X019884Y028316D01*
X019349Y028316D01*
X019305Y028272D01*
X019305Y027973D01*
X019333Y027945D01*
X019305Y027917D01*
X019305Y027619D01*
X019324Y027600D01*
X019317Y027600D01*
X019200Y027483D01*
X019200Y027317D01*
X019253Y027264D01*
X019158Y027264D01*
X019150Y027256D01*
X019142Y027264D01*
X018961Y027264D01*
X018953Y027256D01*
X018945Y027264D01*
X018797Y027264D01*
X018850Y027317D01*
X018850Y027483D01*
X018733Y027600D01*
X018567Y027600D01*
X018475Y027508D01*
X018383Y027600D01*
X018217Y027600D01*
X018172Y027555D01*
X018172Y027839D01*
X018250Y027917D01*
X018250Y028083D01*
X018133Y028200D01*
X017967Y028200D01*
X017850Y028083D01*
X017850Y027917D01*
X017962Y027805D01*
X017962Y027786D01*
X017521Y028227D01*
X017447Y028227D01*
X017447Y028272D01*
X017404Y028316D01*
X016869Y028316D01*
X016825Y028272D01*
X016825Y027973D01*
X016853Y027945D01*
X016825Y027917D01*
X016825Y027758D01*
X016733Y027850D01*
X016567Y027850D01*
X016450Y027733D01*
X016450Y027567D01*
X016545Y027472D01*
X016545Y027307D01*
X016607Y027245D01*
X017097Y026755D01*
X016328Y026755D01*
X016326Y026757D02*
X017095Y026757D01*
X017046Y026805D02*
X016278Y026805D01*
X016022Y026805D02*
X015878Y026805D01*
X015926Y026757D02*
X015974Y026757D01*
X015950Y026733D02*
X015950Y026598D01*
X015950Y026598D01*
X015950Y026733D01*
X015950Y026708D02*
X015950Y026708D01*
X015950Y026660D02*
X015950Y026660D01*
X015950Y026611D02*
X015950Y026611D01*
X015622Y026805D02*
X015528Y026805D01*
X015272Y026805D02*
X015125Y026805D01*
X015125Y026757D02*
X015224Y026757D01*
X015200Y026708D02*
X015125Y026708D01*
X015125Y026660D02*
X015200Y026660D01*
X015200Y026611D02*
X015125Y026611D01*
X015125Y026563D02*
X015164Y026563D01*
X015125Y026854D02*
X016998Y026854D01*
X016949Y026902D02*
X015125Y026902D01*
X015125Y026951D02*
X016901Y026951D01*
X016852Y026999D02*
X015125Y026999D01*
X015125Y027048D02*
X016804Y027048D01*
X016755Y027096D02*
X015125Y027096D01*
X015125Y027145D02*
X016707Y027145D01*
X016658Y027193D02*
X015125Y027193D01*
X015125Y027242D02*
X016610Y027242D01*
X016561Y027290D02*
X015125Y027290D01*
X015125Y027339D02*
X016545Y027339D01*
X016545Y027387D02*
X015125Y027387D01*
X015125Y027436D02*
X016545Y027436D01*
X016533Y027484D02*
X016267Y027484D01*
X016315Y027533D02*
X016485Y027533D01*
X016450Y027581D02*
X016350Y027581D01*
X016350Y027630D02*
X016450Y027630D01*
X016450Y027678D02*
X016350Y027678D01*
X016350Y027727D02*
X016450Y027727D01*
X016492Y027775D02*
X016308Y027775D01*
X016259Y027824D02*
X016541Y027824D01*
X016759Y027824D02*
X016825Y027824D01*
X016825Y027872D02*
X016255Y027872D01*
X016255Y027921D02*
X016828Y027921D01*
X016829Y027969D02*
X016255Y027969D01*
X016255Y028018D02*
X016825Y028018D01*
X016825Y028066D02*
X016255Y028066D01*
X016255Y028115D02*
X016825Y028115D01*
X016825Y028163D02*
X016255Y028163D01*
X016237Y028212D02*
X016825Y028212D01*
X016825Y028260D02*
X016188Y028260D01*
X016140Y028309D02*
X016862Y028309D01*
X017263Y028454D02*
X016287Y028454D01*
X016238Y028406D02*
X017312Y028406D01*
X017410Y028309D02*
X019342Y028309D01*
X019305Y028260D02*
X017447Y028260D01*
X017537Y028212D02*
X019305Y028212D01*
X019305Y028163D02*
X018170Y028163D01*
X018218Y028115D02*
X019305Y028115D01*
X019305Y028066D02*
X018250Y028066D01*
X018250Y028018D02*
X019305Y028018D01*
X019310Y027969D02*
X018250Y027969D01*
X018250Y027921D02*
X019309Y027921D01*
X019305Y027872D02*
X018205Y027872D01*
X018172Y027824D02*
X019305Y027824D01*
X019305Y027775D02*
X018172Y027775D01*
X018172Y027727D02*
X019305Y027727D01*
X019305Y027678D02*
X018172Y027678D01*
X018172Y027630D02*
X019305Y027630D01*
X019298Y027581D02*
X018752Y027581D01*
X018800Y027533D02*
X019250Y027533D01*
X019201Y027484D02*
X018849Y027484D01*
X018850Y027436D02*
X019200Y027436D01*
X019200Y027387D02*
X018850Y027387D01*
X018850Y027339D02*
X019200Y027339D01*
X019227Y027290D02*
X018823Y027290D01*
X018548Y027581D02*
X018402Y027581D01*
X018450Y027533D02*
X018500Y027533D01*
X018198Y027581D02*
X018172Y027581D01*
X017944Y027824D02*
X017925Y027824D01*
X017895Y027872D02*
X017876Y027872D01*
X017850Y027921D02*
X017828Y027921D01*
X017850Y027969D02*
X017779Y027969D01*
X017731Y028018D02*
X017850Y028018D01*
X017850Y028066D02*
X017682Y028066D01*
X017634Y028115D02*
X017882Y028115D01*
X017930Y028163D02*
X017585Y028163D01*
X017488Y028406D02*
X017962Y028406D01*
X017913Y028454D02*
X017537Y028454D01*
X017262Y028745D02*
X016288Y028745D01*
X016239Y028794D02*
X017311Y028794D01*
X017309Y028842D02*
X016005Y028842D01*
X016005Y028794D02*
X016061Y028794D01*
X016012Y028745D02*
X016005Y028745D01*
X016005Y028891D02*
X017261Y028891D01*
X017212Y028939D02*
X016005Y028939D01*
X015961Y028988D02*
X017164Y028988D01*
X017115Y029036D02*
X015912Y029036D01*
X015864Y029085D02*
X017067Y029085D01*
X016949Y029133D02*
X015815Y029133D01*
X015767Y029182D02*
X016910Y029182D01*
X016910Y029230D02*
X015718Y029230D01*
X015652Y029279D02*
X016910Y029279D01*
X016910Y029327D02*
X015638Y029327D01*
X015608Y029443D02*
X015652Y029487D01*
X015652Y029825D01*
X015608Y029869D01*
X015505Y029869D01*
X015505Y029872D01*
X015589Y029872D01*
X015632Y029916D01*
X015632Y030293D01*
X015589Y030337D01*
X015211Y030337D01*
X015168Y030293D01*
X015168Y029916D01*
X015211Y029872D01*
X015295Y029872D01*
X015295Y029869D01*
X015192Y029869D01*
X015148Y029825D01*
X015148Y029487D01*
X015192Y029443D01*
X015608Y029443D01*
X015638Y029473D02*
X016045Y029473D01*
X016067Y029450D02*
X016233Y029450D01*
X016350Y029567D01*
X016350Y029733D01*
X016322Y029761D01*
X016322Y029916D01*
X016622Y029916D01*
X016666Y029959D01*
X016666Y030415D01*
X016622Y030459D01*
X016074Y030459D01*
X015830Y030703D01*
X016950Y030703D01*
X016950Y030567D01*
X017067Y030450D01*
X017233Y030450D01*
X017350Y030567D01*
X017350Y030702D01*
X017443Y030795D01*
X018107Y030795D01*
X018200Y030702D01*
X018200Y030567D01*
X018317Y030450D01*
X018483Y030450D01*
X018600Y030567D01*
X018600Y030733D01*
X018483Y030850D01*
X018348Y030850D01*
X018255Y030943D01*
X018193Y031005D01*
X017403Y031005D01*
X017598Y031200D01*
X017733Y031200D01*
X017850Y031317D01*
X017850Y031483D01*
X017733Y031600D01*
X017567Y031600D01*
X017450Y031483D01*
X017450Y031348D01*
X017181Y031080D01*
X017060Y031080D01*
X017060Y031203D01*
X017016Y031247D01*
X015772Y031247D01*
X015729Y031203D01*
X015729Y030800D01*
X015632Y030800D01*
X015632Y030884D01*
X015589Y030928D01*
X015729Y030928D01*
X015729Y030976D02*
X015125Y030976D01*
X015125Y030928D02*
X015211Y030928D01*
X015168Y030884D01*
X015168Y030507D01*
X015211Y030463D01*
X015589Y030463D01*
X015632Y030507D01*
X015632Y030590D01*
X015646Y030590D01*
X015777Y030459D01*
X015772Y030459D01*
X015729Y030415D01*
X015729Y029959D01*
X015772Y029916D01*
X016072Y029916D01*
X016072Y029850D01*
X016067Y029850D01*
X015950Y029733D01*
X015950Y029567D01*
X016067Y029450D01*
X015996Y029521D02*
X015652Y029521D01*
X015652Y029570D02*
X015950Y029570D01*
X015950Y029618D02*
X015652Y029618D01*
X015652Y029667D02*
X015950Y029667D01*
X015950Y029715D02*
X015652Y029715D01*
X015652Y029764D02*
X015981Y029764D01*
X016029Y029812D02*
X015652Y029812D01*
X015616Y029861D02*
X016072Y029861D01*
X016072Y029909D02*
X015625Y029909D01*
X015632Y029958D02*
X015730Y029958D01*
X015729Y030006D02*
X015632Y030006D01*
X015632Y030055D02*
X015729Y030055D01*
X015729Y030103D02*
X015632Y030103D01*
X015632Y030152D02*
X015729Y030152D01*
X015729Y030200D02*
X015632Y030200D01*
X015632Y030249D02*
X015729Y030249D01*
X015729Y030297D02*
X015629Y030297D01*
X015729Y030346D02*
X015125Y030346D01*
X015125Y030394D02*
X015729Y030394D01*
X015756Y030443D02*
X015125Y030443D01*
X015125Y030491D02*
X015183Y030491D01*
X015168Y030540D02*
X015125Y030540D01*
X015125Y030588D02*
X015168Y030588D01*
X015168Y030637D02*
X015125Y030637D01*
X015125Y030685D02*
X015168Y030685D01*
X015168Y030734D02*
X015125Y030734D01*
X015125Y030782D02*
X015168Y030782D01*
X015168Y030831D02*
X015125Y030831D01*
X015125Y030879D02*
X015168Y030879D01*
X015211Y030928D02*
X015589Y030928D01*
X015632Y030879D02*
X015729Y030879D01*
X015729Y030831D02*
X015632Y030831D01*
X015729Y031025D02*
X015125Y031025D01*
X015125Y031073D02*
X015729Y031073D01*
X015729Y031122D02*
X015125Y031122D01*
X015125Y031170D02*
X015729Y031170D01*
X015744Y031219D02*
X015125Y031219D01*
X015125Y031267D02*
X017369Y031267D01*
X017417Y031316D02*
X015125Y031316D01*
X015125Y031364D02*
X017450Y031364D01*
X017450Y031413D02*
X015125Y031413D01*
X015125Y031461D02*
X017450Y031461D01*
X017477Y031510D02*
X017035Y031510D01*
X017016Y031490D02*
X017060Y031534D01*
X017060Y031661D01*
X017598Y032200D01*
X017733Y032200D01*
X017850Y032317D01*
X017850Y032483D01*
X017733Y032600D01*
X017567Y032600D01*
X017450Y032483D01*
X017450Y032348D01*
X017060Y031958D01*
X017060Y031990D01*
X017016Y032034D01*
X015772Y032034D01*
X015729Y031990D01*
X015729Y031534D01*
X015772Y031490D01*
X017016Y031490D01*
X017060Y031558D02*
X017525Y031558D01*
X017775Y031558D02*
X021240Y031558D01*
X021240Y031534D02*
X021284Y031490D01*
X022528Y031490D01*
X022571Y031534D01*
X022571Y031990D01*
X022528Y032034D01*
X021284Y032034D01*
X021240Y031990D01*
X021240Y031534D01*
X021265Y031510D02*
X017823Y031510D01*
X017850Y031461D02*
X022895Y031461D01*
X022895Y031413D02*
X017850Y031413D01*
X017850Y031364D02*
X022895Y031364D01*
X022895Y031316D02*
X017848Y031316D01*
X017800Y031267D02*
X022895Y031267D01*
X022895Y031219D02*
X022556Y031219D01*
X022571Y031203D02*
X022528Y031247D01*
X021284Y031247D01*
X021240Y031203D01*
X021240Y030747D01*
X021284Y030703D01*
X022528Y030703D01*
X022571Y030747D01*
X022571Y031203D01*
X022571Y031170D02*
X022895Y031170D01*
X022895Y031122D02*
X022571Y031122D01*
X022571Y031073D02*
X022895Y031073D01*
X022895Y031025D02*
X022571Y031025D01*
X022571Y030976D02*
X022895Y030976D01*
X022895Y030928D02*
X022571Y030928D01*
X022571Y030879D02*
X022895Y030879D01*
X022895Y030831D02*
X022571Y030831D01*
X022571Y030782D02*
X022895Y030782D01*
X022895Y030734D02*
X022558Y030734D01*
X022513Y030509D02*
X022128Y030509D01*
X022128Y030212D01*
X022621Y030212D01*
X022621Y030401D01*
X022613Y030433D01*
X022596Y030461D01*
X022573Y030484D01*
X022545Y030501D01*
X022513Y030509D01*
X022561Y030491D02*
X022895Y030491D01*
X022895Y030443D02*
X022607Y030443D01*
X022621Y030394D02*
X022895Y030394D01*
X022895Y030346D02*
X022621Y030346D01*
X022621Y030297D02*
X022895Y030297D01*
X022895Y030249D02*
X022621Y030249D01*
X022621Y030162D02*
X022621Y029974D01*
X022613Y029942D01*
X022596Y029914D01*
X022573Y029891D01*
X022545Y029874D01*
X022513Y029866D01*
X022128Y029866D01*
X022128Y030162D01*
X022078Y030162D01*
X022078Y029866D01*
X021693Y029866D01*
X021661Y029874D01*
X021632Y029891D01*
X021609Y029914D01*
X021593Y029942D01*
X021584Y029974D01*
X021584Y030162D01*
X022078Y030162D01*
X022078Y030212D01*
X021584Y030212D01*
X021584Y030401D01*
X021593Y030433D01*
X021609Y030461D01*
X021632Y030484D01*
X021661Y030501D01*
X021693Y030509D01*
X022078Y030509D01*
X022078Y030212D01*
X022128Y030212D01*
X022128Y030162D01*
X022621Y030162D01*
X022621Y030152D02*
X022895Y030152D01*
X022895Y030200D02*
X022128Y030200D01*
X022128Y030152D02*
X022078Y030152D01*
X022078Y030200D02*
X021224Y030200D01*
X021224Y030152D02*
X021584Y030152D01*
X021584Y030103D02*
X021224Y030103D01*
X021357Y030055D02*
X021584Y030055D01*
X021584Y030006D02*
X021390Y030006D01*
X021390Y029958D02*
X021588Y029958D01*
X021614Y029909D02*
X021390Y029909D01*
X021390Y029861D02*
X022862Y029861D01*
X022895Y029909D02*
X022592Y029909D01*
X022617Y029958D02*
X022895Y029958D01*
X022895Y030006D02*
X022621Y030006D01*
X022621Y030055D02*
X022895Y030055D01*
X022895Y030103D02*
X022621Y030103D01*
X022814Y029812D02*
X021390Y029812D01*
X021390Y029764D02*
X022765Y029764D01*
X022717Y029715D02*
X021390Y029715D01*
X021390Y029492D02*
X022790Y029492D01*
X023043Y029745D01*
X023045Y029747D01*
X023045Y028193D01*
X022702Y027850D01*
X022567Y027850D01*
X022450Y027733D01*
X022450Y027567D01*
X022567Y027450D01*
X022733Y027450D01*
X022850Y027567D01*
X022850Y027702D01*
X023175Y028027D01*
X023175Y025808D01*
X023133Y025850D01*
X022967Y025850D01*
X022850Y025733D01*
X022850Y025639D01*
X022842Y025644D01*
X022810Y025652D01*
X022681Y025652D01*
X022681Y025375D01*
X022919Y025375D01*
X022919Y025498D01*
X022945Y025472D01*
X022945Y025343D01*
X022919Y025317D01*
X022919Y025325D01*
X022681Y025325D01*
X022681Y025375D01*
X022631Y025375D01*
X022631Y025652D01*
X022502Y025652D01*
X022470Y025644D01*
X022441Y025627D01*
X022418Y025604D01*
X022402Y025575D01*
X022393Y025544D01*
X022357Y025544D01*
X022357Y025558D02*
X022313Y025602D01*
X022285Y025602D01*
X022350Y025667D01*
X022350Y025833D01*
X022233Y025950D01*
X022098Y025950D01*
X022693Y026545D01*
X022722Y026545D01*
X022817Y026450D01*
X022983Y026450D01*
X023100Y026567D01*
X023100Y026733D01*
X022983Y026850D01*
X022817Y026850D01*
X022722Y026755D01*
X022607Y026755D01*
X022545Y026693D01*
X021764Y025913D01*
X021764Y026020D01*
X021756Y026028D01*
X021764Y026036D01*
X021764Y026216D01*
X021720Y026260D01*
X021677Y026260D01*
X021855Y026439D01*
X021855Y026472D01*
X021950Y026567D01*
X021950Y026733D01*
X021833Y026850D01*
X021822Y026850D01*
X021857Y026885D01*
X021857Y027341D01*
X021813Y027384D01*
X021690Y027384D01*
X021690Y028416D01*
X021813Y028416D01*
X021857Y028459D01*
X021857Y028915D01*
X021813Y028959D01*
X021357Y028959D01*
X021313Y028915D01*
X021313Y028720D01*
X021233Y028800D01*
X021067Y028800D01*
X020972Y028705D01*
X019538Y028705D01*
X019578Y028745D01*
X020143Y028745D01*
X020436Y029038D01*
X020436Y029128D01*
X020559Y029128D01*
X020603Y029172D01*
X020603Y030350D01*
X020733Y030350D01*
X020850Y030467D01*
X020850Y030552D01*
X020857Y030545D01*
X021014Y030388D01*
X021014Y030066D01*
X020891Y030066D01*
X020847Y030022D01*
X020847Y029172D01*
X020891Y029128D01*
X021346Y029128D01*
X021390Y029172D01*
X021390Y029492D01*
X021390Y029473D02*
X023045Y029473D01*
X023045Y029521D02*
X022820Y029521D01*
X022868Y029570D02*
X023045Y029570D01*
X023045Y029618D02*
X022917Y029618D01*
X022965Y029667D02*
X023045Y029667D01*
X023045Y029715D02*
X023014Y029715D01*
X023045Y029424D02*
X021390Y029424D01*
X021390Y029376D02*
X023045Y029376D01*
X023045Y029327D02*
X021390Y029327D01*
X021390Y029279D02*
X023045Y029279D01*
X023045Y029230D02*
X021390Y029230D01*
X021390Y029182D02*
X023045Y029182D01*
X023045Y029133D02*
X021351Y029133D01*
X021337Y028939D02*
X020338Y028939D01*
X020386Y028988D02*
X021947Y028988D01*
X021941Y028984D02*
X021918Y028961D01*
X021902Y028933D01*
X021893Y028901D01*
X021893Y028712D01*
X022190Y028712D01*
X022190Y028662D01*
X022240Y028662D01*
X022240Y028366D01*
X022428Y028366D01*
X022460Y028374D01*
X022489Y028391D01*
X022512Y028414D01*
X022528Y028442D01*
X022537Y028474D01*
X022537Y028480D01*
X022567Y028450D01*
X022733Y028450D01*
X022850Y028567D01*
X022850Y028733D01*
X022733Y028850D01*
X022567Y028850D01*
X022537Y028820D01*
X022537Y028901D01*
X022528Y028933D01*
X022512Y028961D01*
X022489Y028984D01*
X022460Y029001D01*
X022428Y029009D01*
X022240Y029009D01*
X022240Y028712D01*
X022190Y028712D01*
X022190Y029009D01*
X022002Y029009D01*
X021970Y029001D01*
X021941Y028984D01*
X021905Y028939D02*
X021833Y028939D01*
X021857Y028891D02*
X021893Y028891D01*
X021893Y028842D02*
X021857Y028842D01*
X021857Y028794D02*
X021893Y028794D01*
X021893Y028745D02*
X021857Y028745D01*
X021857Y028697D02*
X022190Y028697D01*
X022190Y028662D02*
X021893Y028662D01*
X021893Y028474D01*
X021902Y028442D01*
X021918Y028414D01*
X021941Y028391D01*
X021970Y028374D01*
X022002Y028366D01*
X022190Y028366D01*
X022190Y028662D01*
X022190Y028648D02*
X022240Y028648D01*
X022240Y028600D02*
X022190Y028600D01*
X022190Y028551D02*
X022240Y028551D01*
X022240Y028503D02*
X022190Y028503D01*
X022190Y028454D02*
X022240Y028454D01*
X022240Y028406D02*
X022190Y028406D01*
X021926Y028406D02*
X021690Y028406D01*
X021690Y028357D02*
X023045Y028357D01*
X023045Y028309D02*
X021690Y028309D01*
X021690Y028260D02*
X023045Y028260D01*
X023045Y028212D02*
X021690Y028212D01*
X021690Y028163D02*
X023015Y028163D01*
X022966Y028115D02*
X021690Y028115D01*
X021690Y028066D02*
X022918Y028066D01*
X022869Y028018D02*
X021690Y028018D01*
X021690Y027969D02*
X022821Y027969D01*
X022772Y027921D02*
X021690Y027921D01*
X021690Y027872D02*
X022724Y027872D01*
X022541Y027824D02*
X021690Y027824D01*
X021690Y027775D02*
X022492Y027775D01*
X022450Y027727D02*
X021690Y027727D01*
X021690Y027678D02*
X022450Y027678D01*
X022450Y027630D02*
X021690Y027630D01*
X021690Y027581D02*
X022450Y027581D01*
X022485Y027533D02*
X021690Y027533D01*
X021690Y027484D02*
X022533Y027484D01*
X022489Y027409D02*
X022460Y027426D01*
X022428Y027434D01*
X022240Y027434D01*
X022240Y027138D01*
X022190Y027138D01*
X022190Y027434D01*
X022002Y027434D01*
X021970Y027426D01*
X021941Y027409D01*
X021918Y027386D01*
X021902Y027358D01*
X021893Y027326D01*
X021893Y027138D01*
X022190Y027138D01*
X022190Y027088D01*
X021893Y027088D01*
X021893Y026899D01*
X021902Y026867D01*
X021918Y026839D01*
X021941Y026816D01*
X021970Y026799D01*
X022002Y026791D01*
X022190Y026791D01*
X022190Y027088D01*
X022240Y027088D01*
X022240Y027138D01*
X022537Y027138D01*
X022537Y027326D01*
X022528Y027358D01*
X022512Y027386D01*
X022489Y027409D01*
X022511Y027387D02*
X023175Y027387D01*
X023175Y027339D02*
X022533Y027339D01*
X022537Y027290D02*
X023175Y027290D01*
X023175Y027242D02*
X022537Y027242D01*
X022537Y027193D02*
X023175Y027193D01*
X023175Y027145D02*
X022537Y027145D01*
X022537Y027088D02*
X022537Y026899D01*
X022528Y026867D01*
X022512Y026839D01*
X022489Y026816D01*
X022460Y026799D01*
X022428Y026791D01*
X022240Y026791D01*
X022240Y027088D01*
X022537Y027088D01*
X022537Y027048D02*
X023175Y027048D01*
X023175Y027096D02*
X022240Y027096D01*
X022240Y027048D02*
X022190Y027048D01*
X022190Y027096D02*
X021857Y027096D01*
X021857Y027048D02*
X021893Y027048D01*
X021893Y026999D02*
X021857Y026999D01*
X021857Y026951D02*
X021893Y026951D01*
X021893Y026902D02*
X021857Y026902D01*
X021826Y026854D02*
X021910Y026854D01*
X021878Y026805D02*
X021960Y026805D01*
X021926Y026757D02*
X022724Y026757D01*
X022772Y026805D02*
X022470Y026805D01*
X022520Y026854D02*
X023175Y026854D01*
X023175Y026902D02*
X022537Y026902D01*
X022537Y026951D02*
X023175Y026951D01*
X023175Y026999D02*
X022537Y026999D01*
X022560Y026708D02*
X021950Y026708D01*
X021950Y026660D02*
X022511Y026660D01*
X022463Y026611D02*
X021950Y026611D01*
X021945Y026563D02*
X022414Y026563D01*
X022366Y026514D02*
X021897Y026514D01*
X021855Y026466D02*
X022317Y026466D01*
X022269Y026417D02*
X021833Y026417D01*
X021785Y026369D02*
X022220Y026369D01*
X022172Y026320D02*
X021736Y026320D01*
X021688Y026272D02*
X022123Y026272D01*
X022075Y026223D02*
X021758Y026223D01*
X021764Y026175D02*
X022026Y026175D01*
X021978Y026126D02*
X021764Y026126D01*
X021764Y026078D02*
X021929Y026078D01*
X021881Y026029D02*
X021757Y026029D01*
X021764Y025981D02*
X021832Y025981D01*
X021784Y025932D02*
X021764Y025932D01*
X022129Y025981D02*
X023175Y025981D01*
X023175Y026029D02*
X022178Y026029D01*
X022226Y026078D02*
X023175Y026078D01*
X023175Y026126D02*
X022275Y026126D01*
X022323Y026175D02*
X023175Y026175D01*
X023175Y026223D02*
X022372Y026223D01*
X022420Y026272D02*
X023175Y026272D01*
X023175Y026320D02*
X022469Y026320D01*
X022517Y026369D02*
X023175Y026369D01*
X023175Y026417D02*
X022566Y026417D01*
X022614Y026466D02*
X022802Y026466D01*
X022753Y026514D02*
X022663Y026514D01*
X022998Y026466D02*
X023175Y026466D01*
X023175Y026514D02*
X023047Y026514D01*
X023095Y026563D02*
X023175Y026563D01*
X023175Y026611D02*
X023100Y026611D01*
X023100Y026660D02*
X023175Y026660D01*
X023175Y026708D02*
X023100Y026708D01*
X023076Y026757D02*
X023175Y026757D01*
X023175Y026805D02*
X023028Y026805D01*
X023175Y027436D02*
X021690Y027436D01*
X021690Y027387D02*
X021919Y027387D01*
X021897Y027339D02*
X021857Y027339D01*
X021857Y027290D02*
X021893Y027290D01*
X021893Y027242D02*
X021857Y027242D01*
X021857Y027193D02*
X021893Y027193D01*
X021893Y027145D02*
X021857Y027145D01*
X022190Y027145D02*
X022240Y027145D01*
X022240Y027193D02*
X022190Y027193D01*
X022190Y027242D02*
X022240Y027242D01*
X022240Y027290D02*
X022190Y027290D01*
X022190Y027339D02*
X022240Y027339D01*
X022240Y027387D02*
X022190Y027387D01*
X022190Y026999D02*
X022240Y026999D01*
X022240Y026951D02*
X022190Y026951D01*
X022190Y026902D02*
X022240Y026902D01*
X022240Y026854D02*
X022190Y026854D01*
X022190Y026805D02*
X022240Y026805D01*
X022767Y027484D02*
X023175Y027484D01*
X023175Y027533D02*
X022815Y027533D01*
X022850Y027581D02*
X023175Y027581D01*
X023175Y027630D02*
X022850Y027630D01*
X022850Y027678D02*
X023175Y027678D01*
X023175Y027727D02*
X022875Y027727D01*
X022924Y027775D02*
X023175Y027775D01*
X023175Y027824D02*
X022972Y027824D01*
X023021Y027872D02*
X023175Y027872D01*
X023175Y027921D02*
X023069Y027921D01*
X023118Y027969D02*
X023175Y027969D01*
X023166Y028018D02*
X023175Y028018D01*
X023045Y028406D02*
X022504Y028406D01*
X022531Y028454D02*
X022563Y028454D01*
X022737Y028454D02*
X023045Y028454D01*
X023045Y028503D02*
X022785Y028503D01*
X022834Y028551D02*
X023045Y028551D01*
X023045Y028600D02*
X022850Y028600D01*
X022850Y028648D02*
X023045Y028648D01*
X023045Y028697D02*
X022850Y028697D01*
X022838Y028745D02*
X023045Y028745D01*
X023045Y028794D02*
X022789Y028794D01*
X022741Y028842D02*
X023045Y028842D01*
X023045Y028891D02*
X022537Y028891D01*
X022537Y028842D02*
X022559Y028842D01*
X022524Y028939D02*
X023045Y028939D01*
X023045Y028988D02*
X022483Y028988D01*
X022240Y028988D02*
X022190Y028988D01*
X022190Y028939D02*
X022240Y028939D01*
X022240Y028891D02*
X022190Y028891D01*
X022190Y028842D02*
X022240Y028842D01*
X022240Y028794D02*
X022190Y028794D01*
X022190Y028745D02*
X022240Y028745D01*
X021893Y028648D02*
X021857Y028648D01*
X021857Y028600D02*
X021893Y028600D01*
X021893Y028551D02*
X021857Y028551D01*
X021857Y028503D02*
X021893Y028503D01*
X021898Y028454D02*
X021851Y028454D01*
X021480Y028406D02*
X021238Y028406D01*
X021287Y028454D02*
X021319Y028454D01*
X021480Y028357D02*
X021120Y028357D01*
X021152Y028309D02*
X021480Y028309D01*
X021480Y028260D02*
X021152Y028260D01*
X021152Y028212D02*
X021480Y028212D01*
X021480Y028163D02*
X021152Y028163D01*
X021152Y028115D02*
X021480Y028115D01*
X021480Y028066D02*
X021152Y028066D01*
X021152Y028018D02*
X021480Y028018D01*
X021480Y027969D02*
X021134Y027969D01*
X021142Y027824D02*
X021480Y027824D01*
X021480Y027872D02*
X019928Y027872D01*
X019928Y027824D02*
X020158Y027824D01*
X020148Y027775D02*
X019928Y027775D01*
X019928Y027727D02*
X020148Y027727D01*
X020148Y027678D02*
X019928Y027678D01*
X019928Y027630D02*
X020148Y027630D01*
X019948Y027581D02*
X019890Y027581D01*
X019900Y027533D02*
X019550Y027533D01*
X019599Y027484D02*
X019851Y027484D01*
X019850Y027436D02*
X019600Y027436D01*
X019600Y027387D02*
X019850Y027387D01*
X019850Y027339D02*
X019600Y027339D01*
X019573Y027290D02*
X019877Y027290D01*
X019924Y027921D02*
X020144Y027921D01*
X020107Y027969D02*
X019924Y027969D01*
X019928Y028018D02*
X020098Y028018D01*
X020098Y028066D02*
X019928Y028066D01*
X019928Y028115D02*
X020098Y028115D01*
X020098Y028212D02*
X019928Y028212D01*
X019928Y028260D02*
X020098Y028260D01*
X020098Y028309D02*
X019891Y028309D01*
X019928Y028163D02*
X020375Y028163D01*
X020375Y028115D02*
X020425Y028115D01*
X020425Y028066D02*
X020375Y028066D01*
X020375Y028018D02*
X020425Y028018D01*
X020425Y027969D02*
X020375Y027969D01*
X020375Y027921D02*
X020425Y027921D01*
X020656Y027921D02*
X021480Y027921D01*
X021480Y027775D02*
X021152Y027775D01*
X021152Y027727D02*
X021480Y027727D01*
X021480Y027678D02*
X021152Y027678D01*
X021152Y027630D02*
X021480Y027630D01*
X021480Y027581D02*
X021152Y027581D01*
X021152Y027533D02*
X021480Y027533D01*
X021480Y027484D02*
X021152Y027484D01*
X021112Y027436D02*
X021480Y027436D01*
X021480Y027387D02*
X020555Y027387D01*
X020555Y027339D02*
X021313Y027339D01*
X021313Y027290D02*
X020761Y027290D01*
X020762Y027289D02*
X020734Y027306D01*
X020702Y027314D01*
X020631Y027314D01*
X020631Y026899D01*
X020810Y026899D01*
X020810Y027206D01*
X020802Y027238D01*
X020785Y027266D01*
X020762Y027289D01*
X020800Y027242D02*
X021313Y027242D01*
X021313Y027193D02*
X020810Y027193D01*
X020810Y027145D02*
X021313Y027145D01*
X021313Y027096D02*
X020810Y027096D01*
X020810Y027048D02*
X021313Y027048D01*
X021313Y026999D02*
X020810Y026999D01*
X020810Y026951D02*
X021313Y026951D01*
X021313Y026902D02*
X020810Y026902D01*
X020810Y026890D02*
X020631Y026890D01*
X020631Y026474D01*
X020702Y026474D01*
X020734Y026482D01*
X020762Y026499D01*
X020785Y026522D01*
X020802Y026551D01*
X020810Y026582D01*
X020810Y026890D01*
X020810Y026854D02*
X021344Y026854D01*
X021574Y026757D02*
X020810Y026757D01*
X020810Y026805D02*
X021622Y026805D01*
X021550Y026708D02*
X020810Y026708D01*
X020810Y026660D02*
X021550Y026660D01*
X021550Y026611D02*
X020810Y026611D01*
X020805Y026563D02*
X021555Y026563D01*
X021603Y026514D02*
X020777Y026514D01*
X020631Y026514D02*
X020622Y026514D01*
X020622Y026563D02*
X020631Y026563D01*
X020622Y026611D02*
X020631Y026611D01*
X020622Y026660D02*
X020631Y026660D01*
X020622Y026708D02*
X020631Y026708D01*
X020622Y026757D02*
X020631Y026757D01*
X020622Y026805D02*
X020631Y026805D01*
X020622Y026854D02*
X020631Y026854D01*
X020622Y026902D02*
X020631Y026902D01*
X020622Y026951D02*
X020631Y026951D01*
X020622Y026999D02*
X020631Y026999D01*
X020622Y027048D02*
X020631Y027048D01*
X020622Y027096D02*
X020631Y027096D01*
X020622Y027145D02*
X020631Y027145D01*
X020622Y027193D02*
X020631Y027193D01*
X020622Y027242D02*
X020631Y027242D01*
X020622Y027290D02*
X020631Y027290D01*
X020612Y027436D02*
X020688Y027436D01*
X020658Y027824D02*
X020642Y027824D01*
X020425Y028212D02*
X020375Y028212D01*
X020375Y028260D02*
X020425Y028260D01*
X020425Y028309D02*
X020375Y028309D01*
X020375Y028357D02*
X020425Y028357D01*
X020425Y028406D02*
X020375Y028406D01*
X020167Y028406D02*
X018138Y028406D01*
X018187Y028454D02*
X020856Y028454D01*
X020807Y028406D02*
X020633Y028406D01*
X021012Y028745D02*
X020144Y028745D01*
X020192Y028794D02*
X021061Y028794D01*
X021239Y028794D02*
X021313Y028794D01*
X021313Y028842D02*
X020241Y028842D01*
X020289Y028891D02*
X021313Y028891D01*
X021313Y028745D02*
X021288Y028745D01*
X020886Y029133D02*
X020564Y029133D01*
X020603Y029182D02*
X020847Y029182D01*
X020847Y029230D02*
X020603Y029230D01*
X020603Y029279D02*
X020847Y029279D01*
X020847Y029327D02*
X020603Y029327D01*
X020603Y029376D02*
X020847Y029376D01*
X020847Y029424D02*
X020603Y029424D01*
X020603Y029473D02*
X020847Y029473D01*
X020847Y029521D02*
X020603Y029521D01*
X020603Y029570D02*
X020847Y029570D01*
X020847Y029618D02*
X020603Y029618D01*
X020603Y029667D02*
X020847Y029667D01*
X020847Y029715D02*
X020603Y029715D01*
X020603Y029764D02*
X020847Y029764D01*
X020847Y029812D02*
X020603Y029812D01*
X020603Y029861D02*
X020847Y029861D01*
X020847Y029909D02*
X020603Y029909D01*
X020603Y029958D02*
X020847Y029958D01*
X020847Y030006D02*
X020603Y030006D01*
X020603Y030055D02*
X020880Y030055D01*
X021014Y030103D02*
X020603Y030103D01*
X020603Y030152D02*
X021014Y030152D01*
X021014Y030200D02*
X020603Y030200D01*
X020603Y030249D02*
X021014Y030249D01*
X021014Y030297D02*
X020603Y030297D01*
X020603Y030346D02*
X021014Y030346D01*
X021007Y030394D02*
X020777Y030394D01*
X020825Y030443D02*
X020959Y030443D01*
X020910Y030491D02*
X020850Y030491D01*
X020850Y030540D02*
X020862Y030540D01*
X021013Y030685D02*
X022895Y030685D01*
X022895Y030637D02*
X021062Y030637D01*
X021110Y030588D02*
X022895Y030588D01*
X022895Y030540D02*
X021159Y030540D01*
X021207Y030491D02*
X021644Y030491D01*
X021598Y030443D02*
X021224Y030443D01*
X021224Y030394D02*
X021584Y030394D01*
X021584Y030346D02*
X021224Y030346D01*
X021224Y030297D02*
X021584Y030297D01*
X021584Y030249D02*
X021224Y030249D01*
X021254Y030734D02*
X020965Y030734D01*
X020916Y030782D02*
X021240Y030782D01*
X021240Y030831D02*
X020868Y030831D01*
X020819Y030879D02*
X021240Y030879D01*
X021240Y030928D02*
X020771Y030928D01*
X020722Y030976D02*
X021240Y030976D01*
X021240Y031025D02*
X019558Y031025D01*
X019600Y030976D02*
X019828Y030976D01*
X019779Y030928D02*
X019600Y030928D01*
X019600Y030879D02*
X019731Y030879D01*
X019510Y031073D02*
X021240Y031073D01*
X021240Y031122D02*
X017520Y031122D01*
X017569Y031170D02*
X021240Y031170D01*
X021256Y031219D02*
X017751Y031219D01*
X017472Y031073D02*
X019290Y031073D01*
X019242Y031025D02*
X017423Y031025D01*
X017272Y031170D02*
X017060Y031170D01*
X017060Y031122D02*
X017223Y031122D01*
X017320Y031219D02*
X017044Y031219D01*
X017060Y031607D02*
X021240Y031607D01*
X021240Y031655D02*
X017060Y031655D01*
X017102Y031704D02*
X021240Y031704D01*
X021240Y031752D02*
X017151Y031752D01*
X017199Y031801D02*
X021240Y031801D01*
X021240Y031849D02*
X017248Y031849D01*
X017296Y031898D02*
X021240Y031898D01*
X021240Y031946D02*
X017345Y031946D01*
X017393Y031995D02*
X018523Y031995D01*
X018567Y031950D02*
X018733Y031950D01*
X018828Y032045D01*
X020472Y032045D01*
X020567Y031950D01*
X020733Y031950D01*
X020850Y032067D01*
X020850Y032233D01*
X020733Y032350D01*
X020567Y032350D01*
X020472Y032255D01*
X018828Y032255D01*
X018733Y032350D01*
X018567Y032350D01*
X018450Y032233D01*
X018450Y032067D01*
X018567Y031950D01*
X018474Y032043D02*
X017442Y032043D01*
X017490Y032092D02*
X018450Y032092D01*
X018450Y032140D02*
X017539Y032140D01*
X017587Y032189D02*
X018450Y032189D01*
X018454Y032237D02*
X017770Y032237D01*
X017818Y032286D02*
X018503Y032286D01*
X018551Y032334D02*
X017850Y032334D01*
X017850Y032383D02*
X021240Y032383D01*
X021240Y032431D02*
X017850Y032431D01*
X017850Y032480D02*
X018538Y032480D01*
X018567Y032450D02*
X018733Y032450D01*
X018850Y032567D01*
X018850Y032733D01*
X018733Y032850D01*
X018567Y032850D01*
X018450Y032733D01*
X018450Y032567D01*
X018567Y032450D01*
X018489Y032528D02*
X017805Y032528D01*
X017756Y032577D02*
X018450Y032577D01*
X018450Y032625D02*
X017060Y032625D01*
X017060Y032577D02*
X017544Y032577D01*
X017495Y032528D02*
X017060Y032528D01*
X017060Y032480D02*
X017450Y032480D01*
X017450Y032431D02*
X017060Y032431D01*
X017060Y032383D02*
X017450Y032383D01*
X017436Y032334D02*
X017060Y032334D01*
X017060Y032322D02*
X017060Y032778D01*
X017016Y032821D01*
X015772Y032821D01*
X015729Y032778D01*
X015729Y032322D01*
X015772Y032278D01*
X017016Y032278D01*
X017060Y032322D01*
X017024Y032286D02*
X017387Y032286D01*
X017339Y032237D02*
X015125Y032237D01*
X015125Y032189D02*
X017290Y032189D01*
X017242Y032140D02*
X015125Y032140D01*
X015125Y032092D02*
X017193Y032092D01*
X017145Y032043D02*
X015125Y032043D01*
X015125Y031995D02*
X015733Y031995D01*
X015729Y031946D02*
X015125Y031946D01*
X015125Y031898D02*
X015729Y031898D01*
X015729Y031849D02*
X015125Y031849D01*
X015125Y031801D02*
X015729Y031801D01*
X015729Y031752D02*
X015125Y031752D01*
X015125Y031704D02*
X015729Y031704D01*
X015729Y031655D02*
X015125Y031655D01*
X015125Y031607D02*
X015729Y031607D01*
X015729Y031558D02*
X015125Y031558D01*
X015125Y031510D02*
X015753Y031510D01*
X015765Y032286D02*
X015125Y032286D01*
X015125Y032334D02*
X015729Y032334D01*
X015729Y032383D02*
X015125Y032383D01*
X015125Y032431D02*
X015729Y032431D01*
X015729Y032480D02*
X015512Y032480D01*
X015483Y032450D02*
X015600Y032567D01*
X015600Y032733D01*
X015483Y032850D01*
X015317Y032850D01*
X015200Y032733D01*
X015200Y032567D01*
X015317Y032450D01*
X015483Y032450D01*
X015561Y032528D02*
X015729Y032528D01*
X015729Y032577D02*
X015600Y032577D01*
X015600Y032625D02*
X015729Y032625D01*
X015729Y032674D02*
X015600Y032674D01*
X015600Y032722D02*
X015729Y032722D01*
X015729Y032771D02*
X015562Y032771D01*
X015514Y032819D02*
X015770Y032819D01*
X015772Y033065D02*
X017016Y033065D01*
X017060Y033109D01*
X017060Y033565D01*
X017016Y033609D01*
X015772Y033609D01*
X015729Y033565D01*
X015729Y033109D01*
X015772Y033065D01*
X015729Y033110D02*
X015125Y033110D01*
X015125Y033062D02*
X017456Y033062D01*
X017450Y033067D02*
X017567Y032950D01*
X017733Y032950D01*
X017850Y033067D01*
X017850Y033233D01*
X017733Y033350D01*
X017567Y033350D01*
X017450Y033233D01*
X017450Y033067D01*
X017450Y033110D02*
X017060Y033110D01*
X017060Y033159D02*
X017450Y033159D01*
X017450Y033207D02*
X017060Y033207D01*
X017060Y033256D02*
X017473Y033256D01*
X017521Y033304D02*
X017060Y033304D01*
X017060Y033353D02*
X021240Y033353D01*
X021240Y033401D02*
X017060Y033401D01*
X017060Y033450D02*
X021240Y033450D01*
X021240Y033498D02*
X017060Y033498D01*
X017060Y033547D02*
X021240Y033547D01*
X021240Y033565D02*
X021240Y033109D01*
X021284Y033065D01*
X022528Y033065D01*
X022571Y033109D01*
X022571Y033565D01*
X022528Y033609D01*
X021284Y033609D01*
X021240Y033565D01*
X021271Y033595D02*
X017029Y033595D01*
X017016Y033853D02*
X017060Y033896D01*
X017060Y034352D01*
X017016Y034396D01*
X015772Y034396D01*
X015729Y034352D01*
X015729Y033896D01*
X015772Y033853D01*
X017016Y033853D01*
X017049Y033886D02*
X021251Y033886D01*
X021240Y033896D02*
X021284Y033853D01*
X022528Y033853D01*
X022571Y033896D01*
X022571Y034352D01*
X022528Y034396D01*
X021284Y034396D01*
X021240Y034352D01*
X021240Y033896D01*
X021240Y033935D02*
X017060Y033935D01*
X017060Y033983D02*
X021240Y033983D01*
X021240Y034032D02*
X017060Y034032D01*
X017060Y034080D02*
X021240Y034080D01*
X021240Y034129D02*
X017060Y034129D01*
X017060Y034177D02*
X021240Y034177D01*
X021240Y034226D02*
X017060Y034226D01*
X017060Y034274D02*
X021240Y034274D01*
X021240Y034323D02*
X017060Y034323D01*
X017041Y034371D02*
X019046Y034371D01*
X018998Y034420D02*
X015125Y034420D01*
X015125Y034468D02*
X018950Y034468D01*
X018950Y034517D02*
X015125Y034517D01*
X015125Y034565D02*
X018950Y034565D01*
X018950Y034614D02*
X015125Y034614D01*
X015125Y034662D02*
X015750Y034662D01*
X015729Y034684D02*
X015772Y034640D01*
X017016Y034640D01*
X017060Y034684D01*
X017060Y035140D01*
X017016Y035184D01*
X015772Y035184D01*
X015729Y035140D01*
X015729Y034684D01*
X015729Y034711D02*
X015125Y034711D01*
X015125Y034759D02*
X015729Y034759D01*
X015729Y034808D02*
X015125Y034808D01*
X015125Y034856D02*
X015729Y034856D01*
X015729Y034905D02*
X015125Y034905D01*
X015125Y034953D02*
X015729Y034953D01*
X015729Y035002D02*
X015125Y035002D01*
X015125Y035050D02*
X015729Y035050D01*
X015729Y035099D02*
X015125Y035099D01*
X015125Y035147D02*
X015736Y035147D01*
X015762Y035438D02*
X015125Y035438D01*
X015125Y035390D02*
X016555Y035390D01*
X016604Y035341D02*
X015125Y035341D01*
X015125Y035293D02*
X020725Y035293D01*
X020773Y035244D02*
X015125Y035244D01*
X015125Y035196D02*
X023175Y035196D01*
X023175Y035244D02*
X021027Y035244D01*
X021075Y035293D02*
X023175Y035293D01*
X023175Y035341D02*
X021100Y035341D01*
X021100Y035390D02*
X023175Y035390D01*
X023175Y035438D02*
X022538Y035438D01*
X022571Y035487D02*
X022781Y035487D01*
X022732Y035535D02*
X022571Y035535D01*
X022571Y035778D02*
X022745Y035778D01*
X022793Y035826D02*
X022571Y035826D01*
X022571Y035875D02*
X023175Y035875D01*
X023175Y035923D02*
X022571Y035923D01*
X023007Y035826D02*
X023175Y035826D01*
X023175Y035778D02*
X023055Y035778D01*
X023100Y035729D02*
X023175Y035729D01*
X023175Y035681D02*
X023100Y035681D01*
X023100Y035632D02*
X023175Y035632D01*
X023175Y035584D02*
X023100Y035584D01*
X023068Y035535D02*
X023175Y035535D01*
X023175Y035487D02*
X023019Y035487D01*
X023175Y035147D02*
X022564Y035147D01*
X022571Y035099D02*
X022616Y035099D01*
X022784Y035099D02*
X023175Y035099D01*
X023175Y035050D02*
X022833Y035050D01*
X022881Y035002D02*
X023175Y035002D01*
X023175Y034953D02*
X022900Y034953D01*
X022900Y034905D02*
X023175Y034905D01*
X023175Y034856D02*
X022900Y034856D01*
X022890Y034808D02*
X023175Y034808D01*
X023175Y034759D02*
X022842Y034759D01*
X022793Y034711D02*
X023175Y034711D01*
X023175Y034662D02*
X022550Y034662D01*
X022571Y034711D02*
X022607Y034711D01*
X022885Y034614D02*
X023175Y034614D01*
X023175Y034565D02*
X022933Y034565D01*
X022982Y034517D02*
X023175Y034517D01*
X023175Y034468D02*
X023030Y034468D01*
X023079Y034420D02*
X023175Y034420D01*
X023175Y034371D02*
X023127Y034371D01*
X022976Y034226D02*
X022571Y034226D01*
X022571Y034274D02*
X022927Y034274D01*
X022879Y034323D02*
X022571Y034323D01*
X022553Y034371D02*
X022830Y034371D01*
X022782Y034420D02*
X019302Y034420D01*
X019254Y034371D02*
X021259Y034371D01*
X021262Y034662D02*
X019321Y034662D01*
X019272Y034711D02*
X020057Y034711D01*
X020008Y034759D02*
X017060Y034759D01*
X017060Y034711D02*
X019028Y034711D01*
X018979Y034662D02*
X017038Y034662D01*
X017060Y034808D02*
X019960Y034808D01*
X019950Y034856D02*
X017060Y034856D01*
X017060Y034905D02*
X019950Y034905D01*
X019950Y034953D02*
X017060Y034953D01*
X017060Y035002D02*
X019969Y035002D01*
X020017Y035050D02*
X017060Y035050D01*
X017060Y035099D02*
X020066Y035099D01*
X020234Y035099D02*
X021240Y035099D01*
X021248Y035147D02*
X017052Y035147D01*
X015729Y035487D02*
X015125Y035487D01*
X015125Y035535D02*
X015729Y035535D01*
X015729Y035584D02*
X015125Y035584D01*
X015125Y035632D02*
X015729Y035632D01*
X015729Y035681D02*
X015125Y035681D01*
X015125Y035729D02*
X015729Y035729D01*
X015729Y035778D02*
X015125Y035778D01*
X015125Y035826D02*
X015729Y035826D01*
X015729Y035875D02*
X015125Y035875D01*
X015125Y035923D02*
X015729Y035923D01*
X015747Y034371D02*
X015125Y034371D01*
X015125Y034323D02*
X015729Y034323D01*
X015729Y034274D02*
X015125Y034274D01*
X015125Y034226D02*
X015729Y034226D01*
X015729Y034177D02*
X015125Y034177D01*
X015125Y034129D02*
X015729Y034129D01*
X015729Y034080D02*
X015125Y034080D01*
X015125Y034032D02*
X015729Y034032D01*
X015729Y033983D02*
X015125Y033983D01*
X015125Y033935D02*
X015729Y033935D01*
X015739Y033886D02*
X015125Y033886D01*
X015125Y033838D02*
X022805Y033838D01*
X022756Y033789D02*
X015125Y033789D01*
X015125Y033741D02*
X022708Y033741D01*
X022700Y033692D02*
X015125Y033692D01*
X015125Y033644D02*
X022700Y033644D01*
X022700Y033595D02*
X022541Y033595D01*
X022571Y033547D02*
X022721Y033547D01*
X022769Y033498D02*
X022571Y033498D01*
X022571Y033450D02*
X022895Y033450D01*
X022895Y033401D02*
X022571Y033401D01*
X022571Y033353D02*
X022895Y033353D01*
X022895Y033304D02*
X022571Y033304D01*
X022571Y033256D02*
X022895Y033256D01*
X022895Y033207D02*
X022571Y033207D01*
X022571Y033159D02*
X022895Y033159D01*
X022895Y033110D02*
X022571Y033110D01*
X022528Y032821D02*
X021284Y032821D01*
X021240Y032778D01*
X021240Y032322D01*
X021284Y032278D01*
X022528Y032278D01*
X022571Y032322D01*
X022571Y032778D01*
X022528Y032821D01*
X022530Y032819D02*
X022895Y032819D01*
X022895Y032771D02*
X022571Y032771D01*
X022571Y032722D02*
X022895Y032722D01*
X022895Y032674D02*
X022571Y032674D01*
X022571Y032625D02*
X022895Y032625D01*
X022895Y032577D02*
X022571Y032577D01*
X022571Y032528D02*
X022895Y032528D01*
X022895Y032480D02*
X022571Y032480D01*
X022571Y032431D02*
X022895Y032431D01*
X022895Y032383D02*
X022571Y032383D01*
X022571Y032334D02*
X022895Y032334D01*
X022895Y032286D02*
X022535Y032286D01*
X022567Y031995D02*
X022895Y031995D01*
X022895Y032043D02*
X020826Y032043D01*
X020850Y032092D02*
X022895Y032092D01*
X022895Y032140D02*
X020850Y032140D01*
X020850Y032189D02*
X022895Y032189D01*
X022895Y032237D02*
X020846Y032237D01*
X020797Y032286D02*
X021276Y032286D01*
X021240Y032334D02*
X020749Y032334D01*
X020551Y032334D02*
X018749Y032334D01*
X018797Y032286D02*
X020503Y032286D01*
X020474Y032043D02*
X018826Y032043D01*
X018777Y031995D02*
X020523Y031995D01*
X020777Y031995D02*
X021245Y031995D01*
X021240Y032480D02*
X018762Y032480D01*
X018811Y032528D02*
X021240Y032528D01*
X021240Y032577D02*
X018850Y032577D01*
X018850Y032625D02*
X021240Y032625D01*
X021240Y032674D02*
X018850Y032674D01*
X018850Y032722D02*
X021240Y032722D01*
X021240Y032771D02*
X018812Y032771D01*
X018764Y032819D02*
X021282Y032819D01*
X021240Y033110D02*
X017850Y033110D01*
X017850Y033159D02*
X021240Y033159D01*
X021240Y033207D02*
X017850Y033207D01*
X017827Y033256D02*
X021240Y033256D01*
X021240Y033304D02*
X017779Y033304D01*
X017844Y033062D02*
X022895Y033062D01*
X022895Y033013D02*
X017796Y033013D01*
X017747Y032965D02*
X022895Y032965D01*
X022895Y032916D02*
X015125Y032916D01*
X015125Y032868D02*
X022895Y032868D01*
X022895Y031946D02*
X022571Y031946D01*
X022571Y031898D02*
X022895Y031898D01*
X022895Y031849D02*
X022571Y031849D01*
X022571Y031801D02*
X022895Y031801D01*
X022895Y031752D02*
X022571Y031752D01*
X022571Y031704D02*
X022895Y031704D01*
X022895Y031655D02*
X022571Y031655D01*
X022571Y031607D02*
X022895Y031607D01*
X022895Y031558D02*
X022571Y031558D01*
X022547Y031510D02*
X022895Y031510D01*
X022128Y030491D02*
X022078Y030491D01*
X022078Y030443D02*
X022128Y030443D01*
X022128Y030394D02*
X022078Y030394D01*
X022078Y030346D02*
X022128Y030346D01*
X022128Y030297D02*
X022078Y030297D01*
X022078Y030249D02*
X022128Y030249D01*
X022128Y030103D02*
X022078Y030103D01*
X022078Y030055D02*
X022128Y030055D01*
X022128Y030006D02*
X022078Y030006D01*
X022078Y029958D02*
X022128Y029958D01*
X022128Y029909D02*
X022078Y029909D01*
X023045Y029085D02*
X020436Y029085D01*
X020435Y029036D02*
X023045Y029036D01*
X021585Y026466D02*
X020600Y026466D01*
X020600Y026417D02*
X021536Y026417D01*
X021488Y026369D02*
X020600Y026369D01*
X020600Y026320D02*
X021439Y026320D01*
X021391Y026272D02*
X020554Y026272D01*
X020506Y026223D02*
X021030Y026223D01*
X021024Y026175D02*
X019850Y026175D01*
X019850Y026126D02*
X021024Y026126D01*
X021024Y026078D02*
X019810Y026078D01*
X019762Y026029D02*
X021031Y026029D01*
X021024Y025981D02*
X020902Y025981D01*
X020951Y025932D02*
X021024Y025932D01*
X021024Y025884D02*
X020999Y025884D01*
X021000Y025835D02*
X021028Y025835D01*
X021024Y025787D02*
X021000Y025787D01*
X021000Y025738D02*
X021024Y025738D01*
X021024Y025690D02*
X020972Y025690D01*
X020924Y025641D02*
X021025Y025641D01*
X021024Y025593D02*
X020934Y025593D01*
X020983Y025544D02*
X021024Y025544D01*
X020649Y025932D02*
X019316Y025932D01*
X019263Y025981D02*
X020698Y025981D01*
X020507Y025011D02*
X017822Y025011D01*
X017850Y024962D02*
X020479Y024962D01*
X020517Y025000D02*
X020517Y025000D01*
X020431Y024914D02*
X017850Y024914D01*
X017850Y024865D02*
X020400Y024865D01*
X020400Y024817D02*
X017849Y024817D01*
X017801Y024768D02*
X020400Y024768D01*
X020400Y024720D02*
X017752Y024720D01*
X017548Y024720D02*
X017326Y024720D01*
X017326Y024768D02*
X017499Y024768D01*
X017451Y024817D02*
X017326Y024817D01*
X017326Y024671D02*
X020446Y024671D01*
X020495Y024623D02*
X017307Y024623D01*
X017276Y024574D02*
X020491Y024574D01*
X020517Y024600D02*
X020623Y024600D01*
X020623Y024600D01*
X020517Y024600D01*
X020443Y024526D02*
X017276Y024526D01*
X017276Y024477D02*
X020400Y024477D01*
X020400Y024429D02*
X017276Y024429D01*
X017276Y025059D02*
X017526Y025059D01*
X017774Y025059D02*
X019392Y025059D01*
X019344Y025108D02*
X017276Y025108D01*
X017276Y025156D02*
X019295Y025156D01*
X019247Y025205D02*
X018487Y025205D01*
X018536Y025253D02*
X019198Y025253D01*
X019150Y025302D02*
X018584Y025302D01*
X018600Y025350D02*
X019101Y025350D01*
X019053Y025399D02*
X018600Y025399D01*
X018600Y025447D02*
X019004Y025447D01*
X018956Y025496D02*
X018587Y025496D01*
X018539Y025544D02*
X018907Y025544D01*
X019312Y026029D02*
X019538Y026029D01*
X019490Y026078D02*
X019350Y026078D01*
X019350Y026126D02*
X019450Y026126D01*
X019450Y026175D02*
X019350Y026175D01*
X020006Y026223D02*
X020294Y026223D01*
X020246Y026272D02*
X020054Y026272D01*
X020100Y026320D02*
X020200Y026320D01*
X020200Y026369D02*
X020100Y026369D01*
X020100Y026417D02*
X020200Y026417D01*
X020200Y026466D02*
X020100Y026466D01*
X020069Y026514D02*
X020231Y026514D01*
X020115Y028357D02*
X016091Y028357D01*
X016062Y028406D02*
X016043Y028406D01*
X016013Y028454D02*
X016005Y028454D01*
X015795Y028454D02*
X015125Y028454D01*
X015125Y028406D02*
X015795Y028406D01*
X015795Y028357D02*
X015857Y028295D01*
X015891Y028260D02*
X015125Y028260D01*
X015125Y028212D02*
X015940Y028212D01*
X015988Y028163D02*
X015125Y028163D01*
X015125Y028115D02*
X016037Y028115D01*
X016045Y028066D02*
X015125Y028066D01*
X015125Y028018D02*
X016045Y028018D01*
X016045Y027969D02*
X015125Y027969D01*
X015125Y027921D02*
X016045Y027921D01*
X016045Y027872D02*
X015125Y027872D01*
X015125Y027824D02*
X016041Y027824D01*
X015992Y027775D02*
X015125Y027775D01*
X015125Y027727D02*
X015950Y027727D01*
X015950Y027678D02*
X015125Y027678D01*
X015125Y027630D02*
X015950Y027630D01*
X015950Y027581D02*
X015125Y027581D01*
X015125Y027533D02*
X015985Y027533D01*
X016033Y027484D02*
X015125Y027484D01*
X015125Y028503D02*
X015795Y028503D01*
X015795Y028551D02*
X015125Y028551D01*
X015125Y028600D02*
X015795Y028600D01*
X015795Y028648D02*
X015125Y028648D01*
X015125Y028697D02*
X015795Y028697D01*
X015795Y028745D02*
X015125Y028745D01*
X015125Y028794D02*
X015795Y028794D01*
X015795Y028842D02*
X015125Y028842D01*
X015125Y028891D02*
X015761Y028891D01*
X015712Y028939D02*
X015616Y028939D01*
X015652Y028988D02*
X015664Y028988D01*
X015184Y028939D02*
X015125Y028939D01*
X015125Y028988D02*
X015148Y028988D01*
X015148Y029036D02*
X015125Y029036D01*
X015125Y029085D02*
X015148Y029085D01*
X015148Y029133D02*
X015125Y029133D01*
X015125Y029182D02*
X015148Y029182D01*
X015148Y029230D02*
X015125Y029230D01*
X015125Y029279D02*
X015148Y029279D01*
X015162Y029327D02*
X015125Y029327D01*
X015125Y029376D02*
X016910Y029376D01*
X016910Y029424D02*
X015125Y029424D01*
X015125Y029473D02*
X015162Y029473D01*
X015148Y029521D02*
X015125Y029521D01*
X015125Y029570D02*
X015148Y029570D01*
X015148Y029618D02*
X015125Y029618D01*
X015125Y029667D02*
X015148Y029667D01*
X015148Y029715D02*
X015125Y029715D01*
X015125Y029764D02*
X015148Y029764D01*
X015148Y029812D02*
X015125Y029812D01*
X015125Y029861D02*
X015184Y029861D01*
X015175Y029909D02*
X015125Y029909D01*
X015125Y029958D02*
X015168Y029958D01*
X015168Y030006D02*
X015125Y030006D01*
X015125Y030055D02*
X015168Y030055D01*
X015168Y030103D02*
X015125Y030103D01*
X015125Y030152D02*
X015168Y030152D01*
X015168Y030200D02*
X015125Y030200D01*
X015125Y030249D02*
X015168Y030249D01*
X015171Y030297D02*
X015125Y030297D01*
X015617Y030491D02*
X015745Y030491D01*
X015697Y030540D02*
X015632Y030540D01*
X015632Y030588D02*
X015648Y030588D01*
X015848Y030685D02*
X016950Y030685D01*
X016950Y030637D02*
X015897Y030637D01*
X015945Y030588D02*
X016950Y030588D01*
X016978Y030540D02*
X015994Y030540D01*
X016042Y030491D02*
X017026Y030491D01*
X017274Y030491D02*
X017350Y030491D01*
X017350Y030443D02*
X016639Y030443D01*
X016666Y030394D02*
X017373Y030394D01*
X017422Y030346D02*
X016666Y030346D01*
X016666Y030297D02*
X017604Y030297D01*
X017653Y030249D02*
X016666Y030249D01*
X016666Y030200D02*
X017697Y030200D01*
X017697Y030152D02*
X016666Y030152D01*
X016666Y030103D02*
X017697Y030103D01*
X017697Y030055D02*
X017420Y030055D01*
X017453Y030006D02*
X017697Y030006D01*
X017697Y029958D02*
X017453Y029958D01*
X017453Y029909D02*
X017697Y029909D01*
X017697Y029861D02*
X017453Y029861D01*
X017453Y029812D02*
X017697Y029812D01*
X017697Y029764D02*
X017453Y029764D01*
X017453Y029715D02*
X017697Y029715D01*
X017697Y029667D02*
X017453Y029667D01*
X017453Y029618D02*
X017697Y029618D01*
X017697Y029570D02*
X017453Y029570D01*
X017453Y029521D02*
X017697Y029521D01*
X017697Y029473D02*
X017453Y029473D01*
X017453Y029424D02*
X017697Y029424D01*
X017697Y029376D02*
X017453Y029376D01*
X017453Y029327D02*
X017697Y029327D01*
X017697Y029279D02*
X017453Y029279D01*
X017453Y029230D02*
X017697Y029230D01*
X017697Y029182D02*
X017453Y029182D01*
X017414Y029133D02*
X017736Y029133D01*
X017917Y029085D02*
X017364Y029085D01*
X017412Y029036D02*
X017965Y029036D01*
X018241Y029230D02*
X018484Y029230D01*
X018484Y029279D02*
X018241Y029279D01*
X018241Y029327D02*
X018484Y029327D01*
X018484Y029376D02*
X018241Y029376D01*
X018241Y029424D02*
X018484Y029424D01*
X018484Y029473D02*
X018241Y029473D01*
X018241Y029521D02*
X018484Y029521D01*
X018484Y029570D02*
X018241Y029570D01*
X018241Y029618D02*
X018484Y029618D01*
X018484Y029667D02*
X018241Y029667D01*
X018241Y029715D02*
X018484Y029715D01*
X018484Y029764D02*
X018241Y029764D01*
X018241Y029812D02*
X018484Y029812D01*
X018484Y029861D02*
X018241Y029861D01*
X018241Y029909D02*
X018484Y029909D01*
X018484Y029958D02*
X018241Y029958D01*
X018241Y030006D02*
X018484Y030006D01*
X018484Y030055D02*
X018241Y030055D01*
X018241Y030103D02*
X018484Y030103D01*
X018484Y030152D02*
X018241Y030152D01*
X018241Y030200D02*
X018484Y030200D01*
X018484Y030249D02*
X018241Y030249D01*
X018241Y030297D02*
X018484Y030297D01*
X018484Y030346D02*
X018241Y030346D01*
X018241Y030394D02*
X018484Y030394D01*
X018512Y030443D02*
X018213Y030443D01*
X018276Y030491D02*
X017750Y030491D01*
X017750Y030540D02*
X018228Y030540D01*
X018200Y030588D02*
X017745Y030588D01*
X017696Y030637D02*
X018200Y030637D01*
X018200Y030685D02*
X017648Y030685D01*
X017452Y030685D02*
X017350Y030685D01*
X017350Y030637D02*
X017404Y030637D01*
X017355Y030588D02*
X017350Y030588D01*
X017350Y030540D02*
X017322Y030540D01*
X017382Y030734D02*
X018168Y030734D01*
X018119Y030782D02*
X017431Y030782D01*
X016943Y030055D02*
X016666Y030055D01*
X016666Y030006D02*
X016910Y030006D01*
X016910Y029958D02*
X016664Y029958D01*
X016910Y029909D02*
X016322Y029909D01*
X016322Y029861D02*
X016910Y029861D01*
X016910Y029812D02*
X016322Y029812D01*
X016322Y029764D02*
X016910Y029764D01*
X016910Y029715D02*
X016350Y029715D01*
X016350Y029667D02*
X016910Y029667D01*
X016910Y029618D02*
X016350Y029618D01*
X016350Y029570D02*
X016910Y029570D01*
X016910Y029521D02*
X016304Y029521D01*
X016255Y029473D02*
X016910Y029473D01*
X017461Y028988D02*
X018505Y028988D01*
X019028Y029812D02*
X019029Y029812D01*
X019028Y029861D02*
X019212Y029861D01*
X019272Y029909D02*
X019028Y029909D01*
X019028Y029958D02*
X019272Y029958D01*
X019272Y030006D02*
X019028Y030006D01*
X019028Y030055D02*
X019272Y030055D01*
X019272Y030103D02*
X019028Y030103D01*
X019028Y030152D02*
X019272Y030152D01*
X019272Y030200D02*
X019028Y030200D01*
X019028Y030249D02*
X019272Y030249D01*
X019272Y030297D02*
X019028Y030297D01*
X019028Y030346D02*
X019272Y030346D01*
X019272Y030394D02*
X019028Y030394D01*
X019001Y030443D02*
X019295Y030443D01*
X019295Y030491D02*
X018524Y030491D01*
X018572Y030540D02*
X019295Y030540D01*
X019295Y030588D02*
X018600Y030588D01*
X018600Y030637D02*
X019295Y030637D01*
X019295Y030685D02*
X018600Y030685D01*
X018599Y030734D02*
X019284Y030734D01*
X019235Y030782D02*
X018551Y030782D01*
X018502Y030831D02*
X019200Y030831D01*
X019200Y030879D02*
X018319Y030879D01*
X018271Y030928D02*
X019200Y030928D01*
X019200Y030976D02*
X018222Y030976D01*
X017096Y031995D02*
X017055Y031995D01*
X017060Y032674D02*
X018450Y032674D01*
X018450Y032722D02*
X017060Y032722D01*
X017060Y032771D02*
X018488Y032771D01*
X018536Y032819D02*
X017018Y032819D01*
X017504Y033013D02*
X015125Y033013D01*
X015125Y032965D02*
X017553Y032965D01*
X015729Y033159D02*
X015125Y033159D01*
X015125Y033207D02*
X015729Y033207D01*
X015729Y033256D02*
X015125Y033256D01*
X015125Y033304D02*
X015729Y033304D01*
X015729Y033353D02*
X015125Y033353D01*
X015125Y033401D02*
X015729Y033401D01*
X015729Y033450D02*
X015125Y033450D01*
X015125Y033498D02*
X015729Y033498D01*
X015729Y033547D02*
X015125Y033547D01*
X015125Y033595D02*
X015759Y033595D01*
X015286Y032819D02*
X015125Y032819D01*
X015125Y032771D02*
X015238Y032771D01*
X015200Y032722D02*
X015125Y032722D01*
X015125Y032674D02*
X015200Y032674D01*
X015200Y032625D02*
X015125Y032625D01*
X015125Y032577D02*
X015200Y032577D01*
X015239Y032528D02*
X015125Y032528D01*
X015125Y032480D02*
X015288Y032480D01*
X016808Y027775D02*
X016825Y027775D01*
X017276Y025205D02*
X018313Y025205D01*
X018096Y023313D02*
X018530Y023313D01*
X019375Y021082D02*
X019425Y021082D01*
X019425Y021034D02*
X019375Y021034D01*
X019375Y020985D02*
X019425Y020985D01*
X019425Y020937D02*
X019375Y020937D01*
X019375Y020888D02*
X019425Y020888D01*
X020870Y023279D02*
X020650Y023498D01*
X020650Y023633D01*
X020588Y023695D01*
X020893Y023695D01*
X021024Y023825D01*
X021024Y023674D01*
X021032Y023666D01*
X021024Y023657D01*
X021024Y023531D01*
X021022Y023530D01*
X020999Y023506D01*
X020982Y023478D01*
X020974Y023446D01*
X020974Y023375D01*
X021390Y023375D01*
X021390Y023366D01*
X020974Y023366D01*
X020974Y023295D01*
X020978Y023279D01*
X020870Y023279D01*
X020835Y023313D02*
X020974Y023313D01*
X020974Y023362D02*
X020787Y023362D01*
X020738Y023410D02*
X020974Y023410D01*
X020977Y023459D02*
X020690Y023459D01*
X020650Y023507D02*
X021000Y023507D01*
X021024Y023556D02*
X020650Y023556D01*
X020650Y023604D02*
X021024Y023604D01*
X021024Y023653D02*
X020630Y023653D01*
X020900Y023701D02*
X021024Y023701D01*
X021024Y023750D02*
X020948Y023750D01*
X020997Y023798D02*
X021024Y023798D01*
X022203Y024945D02*
X022843Y024945D01*
X023155Y025257D01*
X023155Y025472D01*
X023175Y025492D01*
X023175Y024908D01*
X023133Y024950D01*
X022967Y024950D01*
X022850Y024833D01*
X022850Y024667D01*
X022967Y024550D01*
X022995Y024550D01*
X022995Y024243D01*
X022919Y024167D01*
X022919Y024225D01*
X022681Y024225D01*
X022681Y024275D01*
X022919Y024275D01*
X022919Y024444D01*
X022910Y024475D01*
X022894Y024504D01*
X022870Y024527D01*
X022842Y024544D01*
X022810Y024552D01*
X022681Y024552D01*
X022681Y024275D01*
X022631Y024275D01*
X022631Y024552D01*
X022502Y024552D01*
X022470Y024544D01*
X022441Y024527D01*
X022418Y024504D01*
X022402Y024475D01*
X022393Y024444D01*
X022393Y024275D01*
X022631Y024275D01*
X022631Y024225D01*
X022393Y024225D01*
X022393Y024056D01*
X022393Y024055D01*
X022357Y024055D01*
X022357Y024458D01*
X022324Y024491D01*
X022400Y024567D01*
X022400Y024733D01*
X022305Y024828D01*
X022305Y024843D01*
X022243Y024905D01*
X022203Y024945D01*
X022235Y024914D02*
X022931Y024914D01*
X022882Y024865D02*
X022283Y024865D01*
X022316Y024817D02*
X022850Y024817D01*
X022850Y024768D02*
X022365Y024768D01*
X022400Y024720D02*
X022850Y024720D01*
X022850Y024671D02*
X022400Y024671D01*
X022400Y024623D02*
X022895Y024623D01*
X022943Y024574D02*
X022400Y024574D01*
X022440Y024526D02*
X022358Y024526D01*
X022338Y024477D02*
X022403Y024477D01*
X022393Y024429D02*
X022357Y024429D01*
X022357Y024380D02*
X022393Y024380D01*
X022393Y024332D02*
X022357Y024332D01*
X022357Y024283D02*
X022393Y024283D01*
X022357Y024235D02*
X022631Y024235D01*
X022631Y024283D02*
X022681Y024283D01*
X022681Y024235D02*
X022986Y024235D01*
X022995Y024283D02*
X022919Y024283D01*
X022919Y024332D02*
X022995Y024332D01*
X022995Y024380D02*
X022919Y024380D01*
X022919Y024429D02*
X022995Y024429D01*
X022995Y024477D02*
X022909Y024477D01*
X022872Y024526D02*
X022995Y024526D01*
X022681Y024526D02*
X022631Y024526D01*
X022631Y024477D02*
X022681Y024477D01*
X022681Y024429D02*
X022631Y024429D01*
X022631Y024380D02*
X022681Y024380D01*
X022681Y024332D02*
X022631Y024332D01*
X022393Y024186D02*
X022357Y024186D01*
X022357Y024138D02*
X022393Y024138D01*
X022393Y024089D02*
X022357Y024089D01*
X022919Y024186D02*
X022938Y024186D01*
X023137Y023604D02*
X023175Y023604D01*
X023175Y023556D02*
X023088Y023556D01*
X023175Y023507D02*
X022919Y023507D01*
X022919Y023459D02*
X023175Y023459D01*
X023169Y024914D02*
X023175Y024914D01*
X023175Y024962D02*
X022861Y024962D01*
X022909Y025011D02*
X023175Y025011D01*
X023175Y025059D02*
X022958Y025059D01*
X023006Y025108D02*
X023175Y025108D01*
X023175Y025156D02*
X023055Y025156D01*
X023103Y025205D02*
X023175Y025205D01*
X023175Y025253D02*
X023152Y025253D01*
X023155Y025302D02*
X023175Y025302D01*
X023175Y025350D02*
X023155Y025350D01*
X023155Y025399D02*
X023175Y025399D01*
X023175Y025447D02*
X023155Y025447D01*
X022945Y025447D02*
X022919Y025447D01*
X022919Y025399D02*
X022945Y025399D01*
X022945Y025350D02*
X022681Y025350D01*
X022681Y025399D02*
X022631Y025399D01*
X022631Y025375D02*
X022631Y025325D01*
X022393Y025325D01*
X022393Y025156D01*
X022357Y025156D01*
X022357Y025155D02*
X022357Y025558D01*
X022393Y025544D02*
X022393Y025375D01*
X022631Y025375D01*
X022631Y025350D02*
X022357Y025350D01*
X022357Y025302D02*
X022393Y025302D01*
X022393Y025253D02*
X022357Y025253D01*
X022357Y025205D02*
X022393Y025205D01*
X022393Y025156D02*
X022393Y025155D01*
X022357Y025155D01*
X022357Y025399D02*
X022393Y025399D01*
X022393Y025447D02*
X022357Y025447D01*
X022357Y025496D02*
X022393Y025496D01*
X022412Y025593D02*
X022323Y025593D01*
X022324Y025641D02*
X022465Y025641D01*
X022350Y025690D02*
X022850Y025690D01*
X022855Y025738D02*
X022350Y025738D01*
X022350Y025787D02*
X022904Y025787D01*
X022952Y025835D02*
X022348Y025835D01*
X022299Y025884D02*
X023175Y025884D01*
X023175Y025932D02*
X022251Y025932D01*
X022631Y025641D02*
X022681Y025641D01*
X022681Y025593D02*
X022631Y025593D01*
X022631Y025544D02*
X022681Y025544D01*
X022681Y025496D02*
X022631Y025496D01*
X022631Y025447D02*
X022681Y025447D01*
X022919Y025496D02*
X022922Y025496D01*
X022850Y025641D02*
X022846Y025641D01*
X023148Y025835D02*
X023175Y025835D01*
X023044Y033789D02*
X023045Y033789D01*
X023045Y033838D02*
X022995Y033838D01*
X023045Y033886D02*
X022561Y033886D01*
X022571Y033935D02*
X023045Y033935D01*
X023045Y033983D02*
X022571Y033983D01*
X022571Y034032D02*
X023045Y034032D01*
X023045Y034080D02*
X022571Y034080D01*
X022571Y034129D02*
X023045Y034129D01*
X023024Y034177D02*
X022571Y034177D01*
X021240Y034711D02*
X020243Y034711D01*
X020292Y034759D02*
X021240Y034759D01*
X021240Y035050D02*
X020283Y035050D01*
X021048Y035535D02*
X021240Y035535D01*
X021240Y035487D02*
X021096Y035487D01*
X021100Y035438D02*
X021274Y035438D01*
X016536Y024380D02*
X016518Y024380D01*
X015274Y023022D02*
X015125Y023022D01*
X015125Y022974D02*
X015225Y022974D01*
X015177Y022925D02*
X015125Y022925D01*
X015125Y022877D02*
X015128Y022877D01*
X015125Y015941D02*
X021863Y015941D01*
X021964Y015893D02*
X015125Y015893D01*
X022336Y015893D02*
X023175Y015893D01*
X023175Y015941D02*
X022437Y015941D01*
X022538Y015990D02*
X023175Y015990D01*
X023175Y016038D02*
X022603Y016038D01*
X022581Y016010D02*
X022581Y016010D01*
X022581Y016010D01*
X022641Y016087D02*
X023175Y016087D01*
X023175Y016135D02*
X022680Y016135D01*
X022719Y016184D02*
X023175Y016184D01*
X023175Y016232D02*
X022758Y016232D01*
X022779Y016281D02*
X023175Y016281D01*
X023175Y016329D02*
X022790Y016329D01*
X022801Y016378D02*
X023175Y016378D01*
X023175Y016426D02*
X022812Y016426D01*
X022823Y016475D02*
X023175Y016475D01*
X023175Y016523D02*
X022834Y016523D01*
X022836Y016572D02*
X023175Y016572D01*
X023175Y016620D02*
X022825Y016620D01*
X022814Y016669D02*
X023175Y016669D01*
X023175Y016717D02*
X022802Y016717D01*
X022791Y016766D02*
X023175Y016766D01*
X023175Y016814D02*
X022780Y016814D01*
X022772Y016850D02*
X022772Y016850D01*
X022762Y016863D02*
X023175Y016863D01*
X023175Y016911D02*
X022723Y016911D01*
X022685Y016960D02*
X023175Y016960D01*
X023175Y017008D02*
X022646Y017008D01*
X022607Y017057D02*
X023175Y017057D01*
X023175Y017105D02*
X022549Y017105D01*
X022448Y017154D02*
X023175Y017154D01*
X023175Y017202D02*
X022348Y017202D01*
D33*
X019650Y017050D02*
X018750Y017050D01*
X018638Y017162D01*
X018638Y017572D01*
M02*
