G75*
%MOIN*%
%OFA0B0*%
%FSLAX24Y24*%
%IPPOS*%
%LPD*%
%AMOC8*
5,1,8,0,0,1.08239X$1,22.5*
%
%ADD10C,0.0050*%
%ADD11C,0.0060*%
%ADD12C,0.0080*%
%ADD13R,0.0483X0.0017*%
%ADD14R,0.0700X0.0017*%
%ADD15R,0.0867X0.0017*%
%ADD16R,0.1000X0.0017*%
%ADD17R,0.1117X0.0017*%
%ADD18R,0.1217X0.0017*%
%ADD19R,0.1300X0.0017*%
%ADD20R,0.0517X0.0017*%
%ADD21R,0.0550X0.0017*%
%ADD22R,0.0450X0.0017*%
%ADD23R,0.0400X0.0017*%
%ADD24R,0.0417X0.0017*%
%ADD25R,0.0367X0.0017*%
%ADD26R,0.0383X0.0017*%
%ADD27R,0.0333X0.0017*%
%ADD28R,0.0350X0.0017*%
%ADD29R,0.0317X0.0017*%
%ADD30R,0.0283X0.0017*%
%ADD31R,0.0300X0.0017*%
%ADD32R,0.0283X0.0017*%
%ADD33R,0.0283X0.0017*%
%ADD34R,0.0250X0.0017*%
%ADD35R,0.0233X0.0017*%
%ADD36R,0.0267X0.0017*%
%ADD37R,0.0217X0.0017*%
%ADD38R,0.0267X0.0017*%
%ADD39R,0.0200X0.0017*%
%ADD40R,0.0250X0.0017*%
%ADD41R,0.0183X0.0017*%
%ADD42R,0.0233X0.0017*%
%ADD43R,0.0183X0.0017*%
%ADD44R,0.0183X0.0017*%
%ADD45R,0.0167X0.0017*%
%ADD46R,0.0167X0.0017*%
%ADD47R,0.0217X0.0017*%
%ADD48R,0.0067X0.0017*%
%ADD49R,0.0150X0.0017*%
%ADD50R,0.0200X0.0017*%
%ADD51R,0.0133X0.0017*%
%ADD52R,0.0217X0.0017*%
%ADD53R,0.0017X0.0017*%
%ADD54R,0.0133X0.0017*%
%ADD55R,0.0217X0.0017*%
%ADD56R,0.0050X0.0017*%
%ADD57R,0.0300X0.0017*%
%ADD58R,0.0083X0.0017*%
%ADD59R,0.0133X0.0017*%
%ADD60R,0.0433X0.0017*%
%ADD61R,0.0133X0.0017*%
%ADD62R,0.0117X0.0017*%
%ADD63R,0.0467X0.0017*%
%ADD64R,0.0117X0.0017*%
%ADD65R,0.0483X0.0017*%
%ADD66R,0.0467X0.0017*%
%ADD67R,0.0383X0.0017*%
%ADD68R,0.0350X0.0017*%
%ADD69R,0.0150X0.0017*%
%ADD70R,0.0317X0.0017*%
%ADD71R,0.0283X0.0017*%
%ADD72R,0.0167X0.0017*%
%ADD73R,0.0267X0.0017*%
%ADD74R,0.0167X0.0017*%
%ADD75R,0.0100X0.0017*%
%ADD76R,0.0100X0.0017*%
%ADD77R,0.0233X0.0017*%
%ADD78R,0.0117X0.0017*%
%ADD79R,0.0500X0.0017*%
%ADD80R,0.0083X0.0017*%
%ADD81R,0.0500X0.0017*%
%ADD82R,0.0483X0.0017*%
%ADD83R,0.0233X0.0017*%
%ADD84R,0.0450X0.0017*%
%ADD85R,0.0433X0.0017*%
%ADD86R,0.0417X0.0017*%
%ADD87R,0.0183X0.0017*%
%ADD88R,0.0433X0.0017*%
%ADD89R,0.0333X0.0017*%
%ADD90R,0.0400X0.0017*%
%ADD91R,0.0367X0.0017*%
%ADD92R,0.0017X0.0017*%
%ADD93R,0.0333X0.0017*%
%ADD94R,0.0383X0.0017*%
%ADD95R,0.0433X0.0017*%
%ADD96R,0.0717X0.0017*%
%ADD97R,0.0700X0.0017*%
%ADD98R,0.0717X0.0017*%
%ADD99R,0.0317X0.0017*%
%ADD100R,0.0333X0.0017*%
%ADD101R,0.0733X0.0017*%
%ADD102R,0.0717X0.0017*%
%ADD103R,0.0683X0.0017*%
%ADD104R,0.0650X0.0017*%
%ADD105R,0.0617X0.0017*%
%ADD106R,0.0600X0.0017*%
%ADD107R,0.0567X0.0017*%
%ADD108R,0.0367X0.0017*%
%ADD109R,0.0533X0.0017*%
%ADD110R,0.0367X0.0017*%
%ADD111R,0.0417X0.0017*%
%ADD112R,0.0550X0.0017*%
%ADD113R,0.0583X0.0017*%
%ADD114R,0.0733X0.0017*%
%ADD115R,0.0383X0.0017*%
%ADD116R,0.0767X0.0017*%
%ADD117R,0.0783X0.0017*%
%ADD118R,0.0033X0.0017*%
%ADD119R,0.0067X0.0017*%
%ADD120R,0.0533X0.0017*%
%ADD121R,0.0567X0.0017*%
%ADD122R,0.0517X0.0017*%
%ADD123R,0.0567X0.0017*%
%ADD124R,0.0517X0.0017*%
%ADD125R,0.0317X0.0017*%
%ADD126R,0.0067X0.0017*%
%ADD127R,0.0033X0.0017*%
%ADD128R,0.0467X0.0017*%
%ADD129R,0.0583X0.0017*%
%ADD130R,0.0600X0.0017*%
%ADD131R,0.0633X0.0017*%
%ADD132R,0.0683X0.0017*%
%ADD133R,0.0650X0.0017*%
%ADD134R,0.0717X0.0017*%
%ADD135R,0.0533X0.0017*%
%ADD136R,0.0883X0.0017*%
%ADD137R,0.0750X0.0017*%
%ADD138R,0.0883X0.0017*%
%ADD139R,0.0033X0.0017*%
%ADD140R,0.1717X0.0017*%
%ADD141R,0.1683X0.0017*%
%ADD142R,0.1650X0.0017*%
%ADD143R,0.1633X0.0017*%
%ADD144R,0.1333X0.0017*%
%ADD145R,0.1283X0.0017*%
%ADD146R,0.1233X0.0017*%
%ADD147R,0.1183X0.0017*%
%ADD148R,0.0867X0.0017*%
%ADD149R,0.0767X0.0017*%
%ADD150R,0.0050X0.0017*%
%ADD151C,0.0059*%
%ADD152C,0.0010*%
%ADD153C,0.0040*%
D10*
X017105Y016381D02*
X017105Y016471D01*
X017150Y016516D01*
X017150Y016630D02*
X017105Y016675D01*
X017105Y016765D01*
X017150Y016811D01*
X017330Y016811D01*
X017375Y016765D01*
X017375Y016675D01*
X017330Y016630D01*
X017285Y016630D01*
X017240Y016675D01*
X017240Y016811D01*
X017330Y016516D02*
X017375Y016471D01*
X017375Y016381D01*
X017330Y016336D01*
X017150Y016336D01*
X017105Y016381D01*
X017900Y016425D02*
X018080Y016425D01*
X017990Y016425D02*
X017990Y016695D01*
X018080Y016605D01*
X018195Y016695D02*
X018375Y016695D01*
X018375Y016425D01*
X018375Y016560D02*
X018285Y016560D01*
X018329Y015975D02*
X018284Y015930D01*
X018284Y015840D01*
X018329Y015795D01*
X018464Y015795D01*
X018374Y015795D02*
X018284Y015705D01*
X018170Y015705D02*
X017989Y015885D01*
X017989Y015930D01*
X018035Y015975D01*
X018125Y015975D01*
X018170Y015930D01*
X018329Y015975D02*
X018464Y015975D01*
X018464Y015705D01*
X018170Y015705D02*
X017989Y015705D01*
X018361Y017826D02*
X018361Y018006D01*
X018361Y018121D02*
X018541Y018301D01*
X018586Y018301D01*
X018632Y018256D01*
X018632Y018166D01*
X018586Y018121D01*
X018586Y018006D02*
X018406Y017826D01*
X018361Y017826D01*
X018632Y017826D02*
X018632Y018006D01*
X018586Y018006D01*
X018361Y018121D02*
X018361Y018301D01*
X019391Y018819D02*
X019571Y018819D01*
X019555Y018775D02*
X019600Y018730D01*
X019555Y018775D02*
X019555Y018865D01*
X019600Y018911D01*
X019645Y018911D01*
X019690Y018865D01*
X019690Y018820D01*
X019685Y018819D02*
X019866Y018819D01*
X019866Y018864D01*
X019685Y019044D01*
X019685Y019089D01*
X019866Y019089D01*
X019780Y018911D02*
X019735Y018911D01*
X019690Y018865D01*
X019780Y018911D02*
X019825Y018865D01*
X019825Y018775D01*
X019780Y018730D01*
X019780Y018616D02*
X019825Y018571D01*
X019825Y018481D01*
X019780Y018436D01*
X019600Y018436D01*
X019555Y018481D01*
X019555Y018571D01*
X019600Y018616D01*
X019481Y018819D02*
X019481Y019089D01*
X019571Y018999D01*
X020305Y018865D02*
X020575Y018865D01*
X020440Y018730D01*
X020440Y018911D01*
X020350Y018616D02*
X020305Y018571D01*
X020305Y018481D01*
X020350Y018436D01*
X020530Y018436D01*
X020575Y018481D01*
X020575Y018571D01*
X020530Y018616D01*
X020770Y018300D02*
X020725Y018255D01*
X020725Y018165D01*
X020770Y018120D01*
X020815Y018120D01*
X020860Y018165D01*
X020860Y018255D01*
X020815Y018300D01*
X020770Y018300D01*
X020860Y018255D02*
X020905Y018300D01*
X020950Y018300D01*
X020995Y018255D01*
X020995Y018165D01*
X020950Y018120D01*
X020905Y018120D01*
X020860Y018165D01*
X020770Y018005D02*
X020725Y017960D01*
X020725Y017870D01*
X020770Y017825D01*
X020950Y017825D01*
X020995Y017870D01*
X020995Y017960D01*
X020950Y018005D01*
X019705Y023036D02*
X019480Y023036D01*
X019435Y023081D01*
X019435Y023171D01*
X019480Y023216D01*
X019705Y023216D01*
X019660Y023330D02*
X019705Y023375D01*
X019705Y023465D01*
X019660Y023511D01*
X019615Y023511D01*
X019435Y023330D01*
X019435Y023511D01*
X018975Y023500D02*
X018975Y023320D01*
X018930Y023275D01*
X018840Y023275D01*
X018795Y023320D01*
X018680Y023275D02*
X018500Y023275D01*
X018590Y023275D02*
X018590Y023545D01*
X018680Y023455D01*
X018795Y023500D02*
X018840Y023545D01*
X018930Y023545D01*
X018975Y023500D01*
D11*
X015650Y016900D02*
X015900Y016650D01*
X016400Y016650D01*
X016650Y016900D01*
X016650Y017400D01*
X016400Y017650D01*
X016650Y017900D01*
X016650Y018400D01*
X016400Y018650D01*
X016650Y018900D01*
X016650Y019400D01*
X016400Y019650D01*
X016650Y019900D01*
X016650Y020400D01*
X016400Y020650D01*
X016650Y020900D01*
X016650Y021400D01*
X016400Y021650D01*
X016650Y021900D01*
X016650Y022400D01*
X016400Y022650D01*
X016650Y022900D01*
X016650Y023400D01*
X016400Y023650D01*
X016650Y023900D01*
X016650Y024400D01*
X016400Y024650D01*
X016650Y024900D01*
X016650Y025400D01*
X016400Y025650D01*
X016650Y025900D01*
X016650Y026400D01*
X016400Y026650D01*
X016650Y026900D01*
X016650Y027400D01*
X016400Y027650D01*
X016650Y027900D01*
X016650Y028400D01*
X016400Y028650D01*
X016650Y028900D01*
X016650Y029400D01*
X016400Y029650D01*
X015900Y029650D01*
X015650Y029400D01*
X015650Y028900D01*
X015900Y028650D01*
X015650Y028400D01*
X015650Y027900D01*
X015900Y027650D01*
X015650Y027400D01*
X015650Y026900D01*
X015900Y026650D01*
X015650Y026400D01*
X015650Y025900D01*
X015900Y025650D01*
X015650Y025400D01*
X015650Y024900D01*
X015900Y024650D01*
X015650Y024400D01*
X015650Y023900D01*
X015900Y023650D01*
X015650Y023400D01*
X015650Y022900D01*
X015900Y022650D01*
X015650Y022400D01*
X015650Y021900D01*
X015900Y021650D01*
X015650Y021400D01*
X015650Y020900D01*
X015900Y020650D01*
X015650Y020400D01*
X015650Y019900D01*
X015900Y019650D01*
X015650Y019400D01*
X015650Y018900D01*
X015900Y018650D01*
X015650Y018400D01*
X015650Y017900D01*
X015900Y017650D01*
X015650Y017400D01*
X015650Y016900D01*
X015900Y017650D02*
X016400Y017650D01*
X016400Y018650D02*
X015900Y018650D01*
X015900Y019650D02*
X016400Y019650D01*
X016400Y020650D02*
X015900Y020650D01*
X015900Y021650D02*
X016400Y021650D01*
X016400Y022650D02*
X015900Y022650D01*
X015900Y023650D02*
X016400Y023650D01*
X016400Y024650D02*
X015900Y024650D01*
X015900Y025650D02*
X016400Y025650D01*
X016400Y026650D02*
X015900Y026650D01*
X015900Y027650D02*
X016400Y027650D01*
X016400Y028650D02*
X015900Y028650D01*
X015900Y029650D02*
X015650Y029900D01*
X015650Y030400D01*
X015900Y030650D01*
X016400Y030650D01*
X016650Y030400D01*
X016650Y029900D01*
X016400Y029650D01*
X016400Y030650D02*
X016650Y030900D01*
X016650Y031400D01*
X016400Y031650D01*
X016650Y031900D01*
X016650Y032400D01*
X016400Y032650D01*
X016650Y032900D01*
X016650Y033400D01*
X016400Y033650D01*
X015900Y033650D01*
X015650Y033400D01*
X015650Y032900D01*
X015900Y032650D01*
X015650Y032400D01*
X015650Y031900D01*
X015900Y031650D01*
X015650Y031400D01*
X015650Y030900D01*
X015900Y030650D01*
X015900Y031650D02*
X016400Y031650D01*
X016400Y032650D02*
X015900Y032650D01*
X021650Y032400D02*
X021650Y031900D01*
X021900Y031650D01*
X021650Y031400D01*
X021650Y030900D01*
X021900Y030650D01*
X021650Y030400D01*
X021650Y029900D01*
X021900Y029650D01*
X021650Y029400D01*
X021650Y028900D01*
X021900Y028650D01*
X021650Y028400D01*
X021650Y027900D01*
X021900Y027650D01*
X021650Y027400D01*
X021650Y026900D01*
X021900Y026650D01*
X021650Y026400D01*
X021650Y025900D01*
X021900Y025650D01*
X021650Y025400D01*
X021650Y024900D01*
X021900Y024650D01*
X021650Y024400D01*
X021650Y023900D01*
X021900Y023650D01*
X021650Y023400D01*
X021650Y022900D01*
X021900Y022650D01*
X021650Y022400D01*
X021650Y021900D01*
X021900Y021650D01*
X021650Y021400D01*
X021650Y020900D01*
X021900Y020650D01*
X021650Y020400D01*
X021650Y019900D01*
X021900Y019650D01*
X021650Y019400D01*
X021650Y018900D01*
X021900Y018650D01*
X021650Y018400D01*
X021650Y017900D01*
X021900Y017650D01*
X021650Y017400D01*
X021650Y016900D01*
X021900Y016650D01*
X022400Y016650D01*
X022650Y016900D01*
X022650Y017400D01*
X022400Y017650D01*
X022650Y017900D01*
X022650Y018400D01*
X022400Y018650D01*
X022650Y018900D01*
X022650Y019400D01*
X022400Y019650D01*
X022650Y019900D01*
X022650Y020400D01*
X022400Y020650D01*
X022650Y020900D01*
X022650Y021400D01*
X022400Y021650D01*
X022650Y021900D01*
X022650Y022400D01*
X022400Y022650D01*
X022650Y022900D01*
X022650Y023400D01*
X022400Y023650D01*
X022650Y023900D01*
X022650Y024400D01*
X022400Y024650D01*
X022650Y024900D01*
X022650Y025400D01*
X022400Y025650D01*
X022650Y025900D01*
X022650Y026400D01*
X022400Y026650D01*
X022650Y026900D01*
X022650Y027400D01*
X022400Y027650D01*
X022650Y027900D01*
X022650Y028400D01*
X022400Y028650D01*
X022650Y028900D01*
X022650Y029400D01*
X022400Y029650D01*
X021900Y029650D01*
X022400Y029650D02*
X022650Y029900D01*
X022650Y030400D01*
X022400Y030650D01*
X021900Y030650D01*
X022400Y030650D02*
X022650Y030900D01*
X022650Y031400D01*
X022400Y031650D01*
X022650Y031900D01*
X022650Y032400D01*
X022400Y032650D01*
X022650Y032900D01*
X022650Y033400D01*
X022400Y033650D01*
X021900Y033650D01*
X021650Y033400D01*
X021650Y032900D01*
X021900Y032650D01*
X021650Y032400D01*
X021900Y032650D02*
X022400Y032650D01*
X022400Y031650D02*
X021900Y031650D01*
X021900Y028650D02*
X022400Y028650D01*
X022400Y027650D02*
X021900Y027650D01*
X021900Y026650D02*
X022400Y026650D01*
X022400Y025650D02*
X021900Y025650D01*
X021900Y024650D02*
X022400Y024650D01*
X022400Y023650D02*
X021900Y023650D01*
X021900Y022650D02*
X022400Y022650D01*
X022400Y021650D02*
X021900Y021650D01*
X021900Y020650D02*
X022400Y020650D01*
X022400Y019650D02*
X021900Y019650D01*
X021900Y018650D02*
X022400Y018650D01*
X022400Y017650D02*
X021900Y017650D01*
D12*
X019850Y020360D02*
X019850Y022940D01*
X018450Y022940D01*
X018450Y020360D01*
X019850Y020360D01*
X018205Y018662D02*
X018205Y018347D01*
X017595Y018347D01*
X017595Y017638D01*
X017595Y018347D02*
X017595Y018662D01*
X018205Y018347D02*
X018205Y017638D01*
X020095Y029888D02*
X020095Y030203D01*
X020705Y030203D01*
X020705Y030912D01*
X020705Y030203D02*
X020705Y029888D01*
X020095Y030203D02*
X020095Y030912D01*
X018465Y031006D02*
X017835Y031006D01*
X017835Y031007D02*
X017819Y031012D01*
X017803Y031020D01*
X017789Y031030D01*
X017777Y031042D01*
X017767Y031057D01*
X017760Y031073D01*
X017756Y031090D01*
X017755Y031107D01*
X017757Y031125D01*
X017757Y031675D02*
X017755Y031693D01*
X017756Y031710D01*
X017760Y031727D01*
X017767Y031743D01*
X017777Y031758D01*
X017789Y031770D01*
X017803Y031780D01*
X017819Y031788D01*
X017835Y031793D01*
X017835Y031794D02*
X018465Y031794D01*
X018465Y031793D02*
X018481Y031788D01*
X018497Y031780D01*
X018511Y031770D01*
X018523Y031758D01*
X018533Y031743D01*
X018540Y031727D01*
X018544Y031710D01*
X018545Y031693D01*
X018543Y031675D01*
X018465Y032006D02*
X017835Y032006D01*
X017835Y032007D02*
X017819Y032012D01*
X017803Y032020D01*
X017789Y032030D01*
X017777Y032042D01*
X017767Y032057D01*
X017760Y032073D01*
X017756Y032090D01*
X017755Y032107D01*
X017757Y032125D01*
X017757Y032675D02*
X017755Y032693D01*
X017756Y032710D01*
X017760Y032727D01*
X017767Y032743D01*
X017777Y032758D01*
X017789Y032770D01*
X017803Y032780D01*
X017819Y032788D01*
X017835Y032793D01*
X017835Y032794D02*
X018465Y032794D01*
X018465Y032793D02*
X018481Y032788D01*
X018497Y032780D01*
X018511Y032770D01*
X018523Y032758D01*
X018533Y032743D01*
X018540Y032727D01*
X018544Y032710D01*
X018545Y032693D01*
X018543Y032675D01*
X018543Y032125D02*
X018545Y032107D01*
X018544Y032090D01*
X018540Y032073D01*
X018533Y032057D01*
X018523Y032042D01*
X018511Y032030D01*
X018497Y032020D01*
X018481Y032012D01*
X018465Y032007D01*
X018543Y031125D02*
X018545Y031107D01*
X018544Y031090D01*
X018540Y031073D01*
X018533Y031057D01*
X018523Y031042D01*
X018511Y031030D01*
X018497Y031020D01*
X018481Y031012D01*
X018465Y031007D01*
D13*
X019083Y032033D03*
X020817Y032967D03*
X020817Y032983D03*
X020833Y033017D03*
X019967Y035433D03*
X018333Y035467D03*
X017633Y035033D03*
D14*
X017925Y034200D03*
X017925Y034150D03*
X017925Y034100D03*
X017925Y034050D03*
X017925Y033600D03*
X017925Y033550D03*
X017925Y033500D03*
X019075Y032050D03*
D15*
X019075Y032067D03*
D16*
X019075Y032083D03*
D17*
X019067Y032100D03*
D18*
X019067Y032117D03*
D19*
X019075Y032133D03*
D20*
X019500Y032150D03*
X019050Y033950D03*
X020700Y034900D03*
D21*
X019917Y034650D03*
X018650Y032150D03*
X018017Y035350D03*
D22*
X017200Y034217D03*
X017183Y034133D03*
X018183Y033033D03*
X018567Y032167D03*
X019583Y032167D03*
X020583Y032583D03*
X020600Y032567D03*
X020833Y033033D03*
X020983Y033433D03*
X020933Y034417D03*
X020933Y034433D03*
X020917Y034467D03*
X020917Y034483D03*
X020900Y034517D03*
X019983Y035417D03*
X018867Y034117D03*
X019050Y033917D03*
D23*
X018775Y034267D03*
X018775Y034283D03*
X019758Y034567D03*
X020708Y034817D03*
X020925Y034383D03*
X021008Y033883D03*
X020825Y033067D03*
X020542Y032667D03*
X019642Y032183D03*
X017625Y034983D03*
X017358Y034583D03*
X017242Y034283D03*
D24*
X017200Y034117D03*
X018500Y032183D03*
X020700Y034833D03*
D25*
X020908Y034350D03*
X019692Y032200D03*
X018342Y033150D03*
D26*
X018450Y032200D03*
X020700Y034800D03*
D27*
X020392Y035117D03*
X020092Y035333D03*
X019658Y034483D03*
X019642Y034467D03*
X019608Y034433D03*
X019592Y034417D03*
X019558Y034383D03*
X019542Y034367D03*
X019508Y034333D03*
X019492Y034317D03*
X019458Y034283D03*
X019442Y034267D03*
X019408Y034233D03*
X019392Y034217D03*
X019358Y034183D03*
X019342Y034167D03*
X019308Y034133D03*
X019292Y034117D03*
X018808Y033617D03*
X018758Y033567D03*
X018708Y033517D03*
X018658Y033467D03*
X018608Y033417D03*
X018558Y033367D03*
X018508Y033317D03*
X018108Y032783D03*
X018358Y032233D03*
X019742Y032217D03*
D28*
X018400Y032217D03*
X018367Y033167D03*
X018383Y033183D03*
X018417Y033217D03*
X018433Y033233D03*
X018467Y033267D03*
X018483Y033283D03*
X018850Y033667D03*
X018867Y033683D03*
X018867Y034167D03*
X018850Y034183D03*
X019683Y034517D03*
X020383Y035133D03*
X020700Y034783D03*
X020817Y033083D03*
X017233Y034083D03*
D29*
X017883Y035183D03*
X017933Y035217D03*
X018833Y034217D03*
X019283Y033633D03*
X019333Y033583D03*
X019383Y033533D03*
X019783Y032233D03*
X020167Y035283D03*
D30*
X019817Y032250D03*
D31*
X018325Y032250D03*
X017308Y034300D03*
X017858Y035150D03*
X017908Y035200D03*
X019992Y035050D03*
X020692Y034750D03*
D32*
X020950Y033833D03*
X020800Y033133D03*
X019850Y032267D03*
X018250Y032283D03*
X017850Y035433D03*
D33*
X017817Y035117D03*
X018283Y035633D03*
X017383Y034517D03*
X018283Y032267D03*
X019883Y034833D03*
X020933Y034067D03*
X020933Y033583D03*
D34*
X020633Y032883D03*
X020600Y032833D03*
X020567Y032783D03*
X020550Y032767D03*
X020667Y032517D03*
X019917Y033017D03*
X019817Y033117D03*
X019783Y033183D03*
X019750Y033217D03*
X019733Y033233D03*
X019883Y032283D03*
X018167Y032333D03*
X017533Y034767D03*
X017550Y034783D03*
X017567Y034817D03*
X017583Y034833D03*
X017617Y034883D03*
X017500Y035133D03*
X018267Y035667D03*
X018733Y035767D03*
X018733Y035783D03*
X019200Y035783D03*
X019200Y035817D03*
X019667Y035733D03*
X020117Y035583D03*
X020517Y035317D03*
X020417Y035067D03*
X020450Y035033D03*
X020467Y035017D03*
X020500Y034967D03*
X020683Y034717D03*
X020017Y035083D03*
X019917Y034983D03*
X019883Y034867D03*
D35*
X020358Y034000D03*
X020358Y033950D03*
X020358Y033900D03*
X020358Y033850D03*
X020358Y033800D03*
X020358Y033750D03*
X020358Y033700D03*
X020358Y033650D03*
X020642Y032900D03*
X020608Y032850D03*
X019808Y033150D03*
X019508Y033450D03*
X019458Y033500D03*
X018692Y034300D03*
X018658Y034350D03*
X018608Y034400D03*
X018092Y034000D03*
X018092Y033950D03*
X018092Y033750D03*
X018092Y033700D03*
X018092Y033650D03*
X017358Y034350D03*
X017392Y034450D03*
X018058Y032400D03*
X019908Y032300D03*
X020692Y034700D03*
X020808Y034950D03*
D36*
X020875Y034300D03*
X019825Y033100D03*
X019875Y033050D03*
X018225Y032300D03*
X017275Y034050D03*
X017625Y034900D03*
X018275Y035650D03*
D37*
X018717Y035833D03*
X017817Y035483D03*
X017383Y034433D03*
X017367Y034383D03*
X017283Y034033D03*
X017283Y034017D03*
X017283Y033983D03*
X017283Y033967D03*
X017283Y033933D03*
X017283Y033917D03*
X017283Y033883D03*
X017283Y033867D03*
X017283Y033833D03*
X017283Y033817D03*
X018117Y032733D03*
X018017Y032433D03*
X019517Y033433D03*
X019533Y033417D03*
X019567Y033383D03*
X019583Y033367D03*
X019617Y033333D03*
X019633Y033317D03*
X019667Y033283D03*
X019683Y033267D03*
X019983Y032933D03*
X020017Y032883D03*
X019967Y032333D03*
X019933Y032317D03*
X020783Y033167D03*
X020783Y033183D03*
X020717Y034633D03*
X020133Y035617D03*
X019683Y035783D03*
X019883Y034933D03*
X019883Y034917D03*
X019883Y034883D03*
X018667Y034333D03*
D38*
X018742Y035733D03*
X019192Y035767D03*
X019658Y035717D03*
X020108Y035567D03*
X020008Y035067D03*
X019958Y035017D03*
X020408Y035083D03*
X020692Y034733D03*
X019842Y033083D03*
X019858Y033067D03*
X019892Y033033D03*
X018242Y032983D03*
X018192Y032317D03*
X017608Y034867D03*
D39*
X018292Y034700D03*
X018342Y034650D03*
X018392Y034600D03*
X018442Y034550D03*
X018492Y034500D03*
X018542Y034450D03*
X017675Y033650D03*
X017308Y033600D03*
X017292Y033700D03*
X017292Y033750D03*
X017825Y032600D03*
X017875Y032550D03*
X019892Y034950D03*
X020708Y034650D03*
X020758Y034550D03*
X020825Y033300D03*
X020808Y033250D03*
X020792Y033200D03*
X020042Y032850D03*
X020008Y032900D03*
X019975Y032350D03*
D40*
X020583Y032800D03*
X020783Y033150D03*
X020867Y033350D03*
X020917Y033600D03*
X019767Y033200D03*
X019883Y034850D03*
X019200Y035800D03*
X020433Y035050D03*
X020517Y034950D03*
X018133Y032350D03*
X017533Y034750D03*
X017567Y034800D03*
D41*
X017300Y033667D03*
X017350Y033433D03*
X017350Y033417D03*
X017400Y033267D03*
X017600Y032883D03*
X017750Y032683D03*
X017800Y032633D03*
X020000Y032367D03*
X020050Y032417D03*
X020050Y032833D03*
X020900Y033633D03*
X020900Y033667D03*
X020900Y033683D03*
X020900Y033717D03*
X020900Y033733D03*
X020900Y033767D03*
X020900Y033783D03*
X019200Y035917D03*
D42*
X018258Y035683D03*
X018642Y034367D03*
X018092Y034033D03*
X018092Y034017D03*
X018092Y033983D03*
X018092Y033967D03*
X018092Y033933D03*
X018092Y033733D03*
X018092Y033717D03*
X018092Y033683D03*
X018092Y033667D03*
X017358Y034367D03*
X017392Y034467D03*
X017392Y034483D03*
X018042Y032417D03*
X018092Y032383D03*
X018108Y032367D03*
X019442Y033517D03*
X019492Y033467D03*
X019792Y033167D03*
X019808Y033133D03*
X019942Y032983D03*
X019958Y032967D03*
X020592Y032817D03*
X020358Y033667D03*
X020358Y033683D03*
X020358Y033717D03*
X020358Y033733D03*
X020358Y033767D03*
X020358Y033783D03*
X020358Y033817D03*
X020358Y033833D03*
X020358Y033867D03*
X020358Y033883D03*
X020358Y033917D03*
X020358Y033933D03*
X020358Y033967D03*
X020358Y033983D03*
X020358Y034017D03*
X020358Y034033D03*
X020492Y034983D03*
D43*
X020867Y034217D03*
X020867Y034183D03*
X020867Y034167D03*
X020883Y034133D03*
X020883Y034117D03*
X020883Y034083D03*
X020833Y033333D03*
X020067Y032817D03*
X020017Y032383D03*
X019933Y033667D03*
X019933Y033683D03*
X018667Y034317D03*
X018267Y034733D03*
X017667Y034017D03*
X017667Y033983D03*
X017667Y033967D03*
X017667Y033717D03*
X017667Y033683D03*
X017667Y033667D03*
X017317Y033583D03*
X017317Y033567D03*
X017317Y033533D03*
X017333Y033517D03*
X017333Y033483D03*
X017333Y033467D03*
X017367Y033383D03*
X017367Y033367D03*
X017383Y033317D03*
X017417Y033233D03*
X017433Y033183D03*
X017467Y033117D03*
X017483Y033083D03*
X017517Y033017D03*
X017533Y032983D03*
X017567Y032933D03*
X017633Y032833D03*
X017667Y032783D03*
X017683Y032767D03*
X017717Y032717D03*
X017767Y032667D03*
X017817Y032617D03*
X018267Y032967D03*
D44*
X017783Y032650D03*
X017733Y032700D03*
X017617Y032850D03*
X017333Y033500D03*
X017317Y033550D03*
X017667Y033700D03*
X017667Y034000D03*
X017483Y035150D03*
X018233Y035750D03*
X019933Y033650D03*
X020067Y032800D03*
X020033Y032400D03*
X020683Y032500D03*
X020883Y034100D03*
X020883Y034150D03*
X020867Y034200D03*
D45*
X021042Y034533D03*
X020192Y034783D03*
X019692Y035833D03*
X019208Y035933D03*
X018708Y035883D03*
X018208Y034817D03*
X018242Y034783D03*
X018258Y034767D03*
X017658Y033933D03*
X017658Y033767D03*
X017658Y033733D03*
X017392Y033283D03*
X017442Y033167D03*
X017458Y033133D03*
X017492Y033067D03*
X017508Y033033D03*
X017542Y032967D03*
X017608Y032867D03*
X017642Y032817D03*
X017708Y032733D03*
X020058Y032433D03*
X020108Y032717D03*
X020092Y032767D03*
D46*
X020075Y032450D03*
X019925Y033700D03*
X019925Y033750D03*
X018225Y034800D03*
X017225Y034750D03*
X017375Y033350D03*
X017425Y033200D03*
X017475Y033100D03*
X017525Y033000D03*
D47*
X018000Y032450D03*
X019550Y033400D03*
X019600Y033350D03*
X019650Y033300D03*
X019700Y033250D03*
X018250Y035700D03*
X019200Y035850D03*
D48*
X018025Y034983D03*
X020725Y032467D03*
D49*
X020100Y032483D03*
X020083Y032467D03*
X020117Y032683D03*
X020100Y032733D03*
X019917Y033767D03*
X019700Y035867D03*
X019200Y035967D03*
X018700Y035917D03*
X017467Y035167D03*
X018267Y032933D03*
X018233Y032833D03*
X018217Y032817D03*
X018117Y032717D03*
D50*
X017975Y032467D03*
X017908Y032517D03*
X017892Y032533D03*
X017858Y032567D03*
X017842Y032583D03*
X017308Y033617D03*
X017308Y033633D03*
X017292Y033683D03*
X017292Y033717D03*
X017292Y033733D03*
X017292Y033767D03*
X017292Y033783D03*
X017675Y034033D03*
X018325Y034667D03*
X018308Y034683D03*
X018275Y034717D03*
X018358Y034633D03*
X018375Y034617D03*
X018408Y034583D03*
X018425Y034567D03*
X018458Y034533D03*
X018475Y034517D03*
X018508Y034483D03*
X018525Y034467D03*
X018558Y034433D03*
X018575Y034417D03*
X018242Y035733D03*
X018708Y035867D03*
X019208Y035883D03*
X019692Y035817D03*
X020142Y035633D03*
X020525Y035333D03*
X020692Y034683D03*
X020725Y034617D03*
X020742Y034583D03*
X020742Y034567D03*
X020758Y034533D03*
X020858Y034267D03*
X020858Y034233D03*
X020892Y033617D03*
X020825Y033317D03*
X020825Y033283D03*
X020808Y033267D03*
X020808Y033233D03*
X020792Y033217D03*
X020025Y032867D03*
D51*
X020108Y032517D03*
X020708Y032483D03*
X018258Y032883D03*
X018258Y032917D03*
X018008Y032983D03*
X017992Y032967D03*
X017992Y032817D03*
X017808Y035517D03*
X018708Y035933D03*
D52*
X018250Y035717D03*
X017350Y034333D03*
X017350Y034317D03*
X017950Y032483D03*
X019900Y034967D03*
X019200Y035833D03*
X019200Y035867D03*
X020700Y034667D03*
X020000Y032917D03*
D53*
X020450Y032500D03*
X018750Y035950D03*
D54*
X018892Y034300D03*
X018258Y032900D03*
X018242Y032850D03*
X020108Y032500D03*
D55*
X019967Y032950D03*
X020733Y034600D03*
X019883Y034900D03*
X019683Y035800D03*
X018717Y035850D03*
X017283Y034000D03*
X017283Y033950D03*
X017283Y033900D03*
X017283Y033850D03*
X017283Y033800D03*
X017933Y032500D03*
D56*
X019283Y033517D03*
X020450Y032517D03*
X020267Y034867D03*
X017983Y035033D03*
D57*
X017875Y035167D03*
X017842Y035133D03*
X017625Y034917D03*
X017508Y035117D03*
X018108Y032767D03*
X019892Y034817D03*
X019975Y035033D03*
X020492Y035283D03*
X020892Y034317D03*
X020808Y033117D03*
X020542Y032733D03*
X020658Y032533D03*
D58*
X020450Y032533D03*
X017450Y035183D03*
D59*
X020225Y034817D03*
X020125Y032667D03*
X020125Y032633D03*
X020125Y032567D03*
X020125Y032533D03*
D60*
X020542Y032650D03*
X020608Y032550D03*
X020992Y033450D03*
X020992Y033500D03*
X019058Y033900D03*
X017992Y035300D03*
D61*
X020125Y032650D03*
X020125Y032550D03*
D62*
X020133Y032583D03*
X020133Y032617D03*
X018167Y034833D03*
D63*
X019092Y033850D03*
X020558Y032600D03*
X017192Y034150D03*
X017192Y034200D03*
X017208Y034250D03*
D64*
X017983Y032950D03*
X020133Y032600D03*
D65*
X020550Y032617D03*
X019050Y033933D03*
X018000Y035317D03*
X020700Y034867D03*
D66*
X020542Y032633D03*
X017342Y034617D03*
X017208Y034267D03*
X017208Y034233D03*
X017192Y034183D03*
X017192Y034167D03*
D67*
X018300Y033117D03*
X018800Y034233D03*
X019150Y035733D03*
X020550Y032683D03*
D68*
X020550Y032700D03*
X020967Y033550D03*
X019667Y034500D03*
X020067Y035350D03*
X018500Y033300D03*
X018450Y033250D03*
X018400Y033200D03*
X018117Y032800D03*
X017367Y034550D03*
X017967Y035250D03*
D69*
X019200Y035950D03*
X020150Y035650D03*
X020533Y035350D03*
X020217Y034800D03*
X020950Y032900D03*
X020117Y032700D03*
D70*
X020550Y032717D03*
X020950Y033567D03*
X020900Y034333D03*
X020700Y034767D03*
X019350Y033567D03*
X019300Y033617D03*
X017950Y035233D03*
X017250Y034067D03*
D71*
X019200Y035750D03*
X020400Y035100D03*
X020550Y032750D03*
D72*
X020092Y032750D03*
X020042Y035100D03*
X019692Y035850D03*
X018708Y035900D03*
X017808Y035500D03*
X018258Y034750D03*
X017658Y033950D03*
X017658Y033750D03*
X017358Y033400D03*
X017392Y033300D03*
X017408Y033250D03*
X017558Y032950D03*
X017592Y032900D03*
X017658Y032800D03*
X017692Y032750D03*
X018258Y032950D03*
D73*
X018108Y032750D03*
X017392Y034500D03*
X017592Y034850D03*
X017842Y035450D03*
X018742Y035750D03*
X019658Y035700D03*
X020092Y035550D03*
X020508Y035300D03*
X019942Y035000D03*
D74*
X020825Y034967D03*
X019925Y033733D03*
X019925Y033717D03*
X020075Y032783D03*
X018225Y035767D03*
X017375Y033333D03*
X017425Y033217D03*
X017575Y032917D03*
D75*
X017975Y032933D03*
X017975Y032883D03*
X017975Y032867D03*
X017975Y032833D03*
X018892Y034317D03*
X018142Y034867D03*
X018125Y034883D03*
X018092Y034917D03*
X018242Y035783D03*
X020242Y034833D03*
X020542Y035367D03*
X020858Y034983D03*
D76*
X018158Y034850D03*
X018108Y034900D03*
X017958Y032900D03*
X017975Y032850D03*
D77*
X018625Y034383D03*
X019475Y033483D03*
X020625Y032867D03*
X020925Y033817D03*
X020875Y034283D03*
X019675Y035767D03*
X018725Y035817D03*
X017825Y035467D03*
X017375Y034417D03*
D78*
X018250Y032867D03*
X020150Y035667D03*
D79*
X020358Y035217D03*
X020708Y034883D03*
X019825Y034583D03*
X019092Y033833D03*
X018375Y035483D03*
X017375Y034717D03*
X017358Y034683D03*
X017358Y034667D03*
X017342Y034633D03*
X020792Y032933D03*
X020792Y032917D03*
D80*
X019683Y035883D03*
X018083Y034933D03*
X017967Y032917D03*
D81*
X017342Y034650D03*
X020808Y032950D03*
D82*
X020833Y033000D03*
X020367Y035200D03*
D83*
X020475Y035000D03*
X020125Y035600D03*
X019675Y035750D03*
X018725Y035800D03*
X017375Y034400D03*
X019925Y033000D03*
D84*
X018867Y034100D03*
X018200Y033050D03*
X018167Y033000D03*
X017350Y034600D03*
X018300Y035450D03*
X020700Y034850D03*
X020900Y034500D03*
X020917Y034450D03*
X020933Y034400D03*
D85*
X021025Y033917D03*
X020975Y033417D03*
X020975Y033383D03*
X020375Y035183D03*
X019075Y033883D03*
X018225Y033067D03*
X018175Y033017D03*
D86*
X020833Y033050D03*
X021017Y033950D03*
X021017Y034000D03*
D87*
X020900Y033800D03*
X020900Y033750D03*
X020900Y033700D03*
X020900Y033650D03*
X020850Y034250D03*
X019200Y035900D03*
X017300Y033650D03*
X017350Y033450D03*
X017450Y033150D03*
X017500Y033050D03*
D88*
X018242Y033083D03*
X019092Y033867D03*
X018258Y035433D03*
X020992Y033517D03*
X020992Y033483D03*
X020992Y033467D03*
D89*
X020808Y033100D03*
X018842Y033650D03*
X018792Y033600D03*
X018742Y033550D03*
X018692Y033500D03*
X018642Y033450D03*
X018592Y033400D03*
X018542Y033350D03*
X018842Y034200D03*
D90*
X018792Y034250D03*
X018275Y033100D03*
X019992Y035400D03*
D91*
X019275Y033667D03*
X018325Y033133D03*
X018025Y033767D03*
X018025Y033783D03*
X018025Y033817D03*
X018025Y033833D03*
X018025Y033867D03*
X018025Y033883D03*
X018025Y033917D03*
D92*
X019833Y033250D03*
X020133Y035700D03*
D93*
X020125Y035317D03*
X018825Y033633D03*
X018775Y033583D03*
X018725Y033533D03*
X018675Y033483D03*
X018625Y033433D03*
X018575Y033383D03*
X018525Y033333D03*
X017375Y034533D03*
X017625Y034933D03*
D94*
X017617Y034967D03*
X017967Y035267D03*
X017367Y034567D03*
X019267Y033683D03*
X020367Y034067D03*
X020367Y034083D03*
X020367Y034117D03*
X020367Y034133D03*
X020367Y034167D03*
X020367Y034183D03*
X020917Y034367D03*
X020983Y033533D03*
X020933Y033367D03*
D95*
X020975Y033400D03*
X021025Y033900D03*
X017625Y035000D03*
D96*
X020200Y033633D03*
X020200Y033617D03*
X020200Y033583D03*
X020200Y033567D03*
X020200Y033533D03*
X020200Y033517D03*
X020200Y033483D03*
D97*
X018508Y035533D03*
X017925Y034183D03*
X017925Y034167D03*
X017925Y034133D03*
X017925Y034117D03*
X017925Y034083D03*
X017925Y034067D03*
X017925Y033633D03*
X017925Y033617D03*
X017925Y033583D03*
X017925Y033567D03*
X017925Y033533D03*
X017925Y033517D03*
X017925Y033483D03*
D98*
X020200Y033500D03*
X020200Y033550D03*
X020200Y033600D03*
D99*
X020967Y033850D03*
X019367Y033550D03*
X019317Y033600D03*
D100*
X019275Y033650D03*
X019275Y034100D03*
X019325Y034150D03*
X019375Y034200D03*
X019425Y034250D03*
X019475Y034300D03*
X019525Y034350D03*
X019575Y034400D03*
X019625Y034450D03*
X020975Y034050D03*
D101*
X019075Y033700D03*
D102*
X019083Y033717D03*
X018083Y035417D03*
D103*
X019033Y034017D03*
X019083Y033733D03*
D104*
X019083Y033750D03*
X019033Y034000D03*
D105*
X019083Y033767D03*
D106*
X019092Y033783D03*
D107*
X019092Y033800D03*
X019958Y034700D03*
X019992Y034750D03*
X020342Y035250D03*
D108*
X019725Y034550D03*
X018025Y033900D03*
X018025Y033850D03*
X018025Y033800D03*
X017625Y034950D03*
D109*
X019092Y033817D03*
X020358Y035233D03*
D110*
X020042Y035367D03*
X020008Y035383D03*
X019908Y034783D03*
X019708Y034533D03*
X020992Y033867D03*
D111*
X021017Y033933D03*
X021017Y033967D03*
X021017Y033983D03*
X021017Y034017D03*
X021017Y034033D03*
X020383Y035167D03*
X018867Y034133D03*
X017983Y035283D03*
D112*
X017633Y035067D03*
X019050Y033967D03*
X019883Y034617D03*
X019900Y034633D03*
X019933Y034667D03*
X019967Y034717D03*
X020000Y034767D03*
D113*
X019050Y033983D03*
D114*
X019025Y034033D03*
D115*
X018867Y034150D03*
X020367Y034150D03*
X020367Y034200D03*
X020367Y034100D03*
X020367Y034050D03*
X020383Y035150D03*
X017217Y034100D03*
D116*
X019025Y034050D03*
D117*
X019033Y034067D03*
X019033Y034083D03*
X019833Y035517D03*
D118*
X018642Y034217D03*
D119*
X018892Y034333D03*
X018042Y034967D03*
X017992Y035017D03*
X017808Y035533D03*
X020142Y035683D03*
X020542Y035383D03*
D120*
X019942Y035450D03*
X019858Y034600D03*
D121*
X019942Y034683D03*
D122*
X017633Y035050D03*
X017367Y034700D03*
D123*
X019975Y034733D03*
D124*
X020667Y034933D03*
X020683Y034917D03*
X018017Y035333D03*
X017383Y034733D03*
D125*
X019900Y034800D03*
X020150Y035300D03*
D126*
X020258Y034850D03*
X018058Y034950D03*
X018008Y035000D03*
D127*
X017975Y035050D03*
X020875Y035000D03*
D128*
X017625Y035017D03*
D129*
X017633Y035083D03*
X018033Y035367D03*
X018467Y035517D03*
X019917Y035467D03*
X020333Y035267D03*
D130*
X017642Y035100D03*
D131*
X018042Y035383D03*
D132*
X018067Y035400D03*
D133*
X019900Y035483D03*
D134*
X019867Y035500D03*
D135*
X018425Y035500D03*
D136*
X019783Y035533D03*
D137*
X019533Y035550D03*
D138*
X018600Y035550D03*
D139*
X017808Y035550D03*
D140*
X019017Y035567D03*
D141*
X019000Y035583D03*
D142*
X018983Y035600D03*
D143*
X018975Y035617D03*
D144*
X019125Y035633D03*
D145*
X019150Y035650D03*
D146*
X019175Y035667D03*
D147*
X019200Y035683D03*
D148*
X019042Y035700D03*
D149*
X018992Y035717D03*
D150*
X018250Y035800D03*
D151*
X021814Y034722D02*
X022004Y034741D01*
X022025Y034805D01*
X022056Y034865D01*
X021935Y035014D01*
X022036Y035115D01*
X022185Y034994D01*
X022245Y035025D01*
X022309Y035046D01*
X022491Y035046D01*
X022555Y035025D01*
X022615Y034994D01*
X022764Y035115D01*
X022865Y035014D01*
X022744Y034865D01*
X022775Y034805D01*
X022796Y034741D01*
X022986Y034722D01*
X022986Y034578D01*
X022796Y034559D01*
X022775Y034495D01*
X022744Y034435D01*
X022865Y034286D01*
X022764Y034185D01*
X022615Y034306D01*
X022555Y034275D01*
X022471Y034479D01*
X022508Y034501D01*
X022540Y034530D01*
X022564Y034566D01*
X022579Y034607D01*
X022585Y034650D01*
X022579Y034694D01*
X022564Y034735D01*
X022539Y034772D01*
X022506Y034801D01*
X022467Y034822D01*
X022424Y034833D01*
X022380Y034833D01*
X022337Y034823D01*
X022298Y034803D01*
X022264Y034775D01*
X022238Y034739D01*
X022222Y034698D01*
X022216Y034654D01*
X022220Y034610D01*
X022235Y034568D01*
X022259Y034531D01*
X022291Y034501D01*
X022329Y034479D01*
X022245Y034275D01*
X022185Y034306D01*
X022036Y034185D01*
X021935Y034286D01*
X022056Y034435D01*
X022025Y034495D01*
X022004Y034559D01*
X021814Y034578D01*
X021814Y034722D01*
X021814Y034701D02*
X022223Y034701D01*
X022217Y034643D02*
X021814Y034643D01*
X021814Y034586D02*
X022228Y034586D01*
X022262Y034528D02*
X022014Y034528D01*
X022037Y034471D02*
X022326Y034471D01*
X022302Y034413D02*
X022038Y034413D01*
X021991Y034355D02*
X022278Y034355D01*
X022254Y034298D02*
X022200Y034298D01*
X022175Y034298D02*
X021944Y034298D01*
X021981Y034240D02*
X022105Y034240D01*
X022498Y034413D02*
X022762Y034413D01*
X022763Y034471D02*
X022474Y034471D01*
X022538Y034528D02*
X022786Y034528D01*
X022809Y034355D02*
X022522Y034355D01*
X022546Y034298D02*
X022600Y034298D01*
X022625Y034298D02*
X022856Y034298D01*
X022819Y034240D02*
X022695Y034240D01*
X022572Y034586D02*
X022986Y034586D01*
X022986Y034643D02*
X022584Y034643D01*
X022577Y034701D02*
X022986Y034701D01*
X022790Y034758D02*
X022548Y034758D01*
X022478Y034816D02*
X022770Y034816D01*
X022751Y034873D02*
X022049Y034873D01*
X022030Y034816D02*
X022322Y034816D01*
X022252Y034758D02*
X022010Y034758D01*
X022002Y034931D02*
X022798Y034931D01*
X022845Y034989D02*
X021955Y034989D01*
X021967Y035046D02*
X022121Y035046D01*
X022051Y035104D02*
X022025Y035104D01*
X022315Y035104D02*
X022485Y035104D01*
X022480Y035161D02*
X022320Y035161D01*
X022326Y035219D02*
X022474Y035219D01*
X022472Y035236D02*
X022491Y035046D01*
X022309Y035046D02*
X022328Y035236D01*
X022472Y035236D01*
X022679Y035046D02*
X022833Y035046D01*
X022775Y035104D02*
X022749Y035104D01*
D152*
X020930Y030302D02*
X020955Y030277D01*
X020955Y030227D01*
X020930Y030202D01*
X020930Y030155D02*
X020955Y030130D01*
X020955Y030055D01*
X020805Y030055D01*
X020805Y030130D01*
X020830Y030155D01*
X020930Y030155D01*
X020805Y030202D02*
X020905Y030302D01*
X020930Y030302D01*
X020805Y030302D02*
X020805Y030202D01*
X019113Y031745D02*
X019013Y031745D01*
X018966Y031745D02*
X018966Y031895D01*
X018891Y031895D01*
X018866Y031870D01*
X018866Y031820D01*
X018891Y031795D01*
X018966Y031795D01*
X018916Y031795D02*
X018866Y031745D01*
X018819Y031745D02*
X018819Y031845D01*
X018769Y031895D01*
X018719Y031845D01*
X018719Y031745D01*
X018671Y031770D02*
X018646Y031745D01*
X018596Y031745D01*
X018571Y031770D01*
X018571Y031795D01*
X018596Y031820D01*
X018646Y031820D01*
X018671Y031845D01*
X018671Y031870D01*
X018646Y031895D01*
X018596Y031895D01*
X018571Y031870D01*
X018524Y031895D02*
X018524Y031745D01*
X018424Y031745D01*
X018377Y031720D02*
X018277Y031720D01*
X018230Y031770D02*
X018204Y031745D01*
X018179Y031745D01*
X018154Y031770D01*
X018154Y031895D01*
X018158Y031905D02*
X018158Y032055D01*
X018208Y032055D02*
X018108Y032055D01*
X018255Y032030D02*
X018280Y032055D01*
X018330Y032055D01*
X018355Y032030D01*
X018355Y032005D01*
X018330Y031980D01*
X018280Y031980D01*
X018255Y031955D01*
X018255Y031930D01*
X018280Y031905D01*
X018330Y031905D01*
X018355Y031930D01*
X018402Y031905D02*
X018452Y031955D01*
X018427Y031955D02*
X018502Y031955D01*
X018502Y031905D02*
X018502Y032055D01*
X018427Y032055D01*
X018402Y032030D01*
X018402Y031980D01*
X018427Y031955D01*
X018424Y031895D02*
X018524Y031895D01*
X018524Y031820D02*
X018474Y031820D01*
X018719Y031820D02*
X018819Y031820D01*
X019013Y031895D02*
X019113Y031895D01*
X019113Y031745D01*
X019113Y031820D02*
X019063Y031820D01*
X018179Y031895D02*
X018129Y031895D01*
X018082Y031895D02*
X018032Y031845D01*
X017982Y031895D01*
X017982Y031745D01*
X017935Y031745D02*
X017935Y031895D01*
X017860Y031895D01*
X017835Y031870D01*
X017835Y031820D01*
X017860Y031795D01*
X017935Y031795D01*
X017960Y031880D02*
X018061Y031880D01*
X018082Y031895D02*
X018082Y031745D01*
X017913Y031930D02*
X017888Y031905D01*
X017863Y031905D01*
X017838Y031930D01*
X017838Y032055D01*
X017863Y032055D02*
X017813Y032055D01*
X017766Y032055D02*
X017716Y032005D01*
X017666Y032055D01*
X017666Y031905D01*
X017619Y031905D02*
X017619Y032055D01*
X017543Y032055D01*
X017518Y032030D01*
X017518Y031980D01*
X017543Y031955D01*
X017619Y031955D01*
X017766Y031905D02*
X017766Y032055D01*
X017345Y018458D02*
X017345Y018358D01*
X017345Y018408D02*
X017495Y018408D01*
X017445Y018358D01*
X017470Y018310D02*
X017495Y018285D01*
X017495Y018210D01*
X017345Y018210D01*
X017345Y018285D01*
X017370Y018310D01*
X017470Y018310D01*
D153*
X018260Y023620D02*
X018260Y024080D01*
X018490Y023850D01*
X018183Y023850D01*
X018260Y024120D02*
X018414Y024120D01*
X018490Y024197D01*
X018644Y024120D02*
X018951Y024120D01*
X018644Y024427D01*
X018644Y024504D01*
X018721Y024580D01*
X018874Y024580D01*
X018951Y024504D01*
X019059Y024604D02*
X018982Y024680D01*
X018829Y024680D01*
X018752Y024604D01*
X019059Y024297D01*
X018982Y024220D01*
X018829Y024220D01*
X018752Y024297D01*
X018752Y024604D01*
X018490Y024504D02*
X018414Y024580D01*
X018260Y024580D01*
X018183Y024504D01*
X018183Y024427D01*
X018260Y024350D01*
X018183Y024273D01*
X018183Y024197D01*
X018260Y024120D01*
X018260Y024350D02*
X018337Y024350D01*
X018644Y024004D02*
X018721Y024080D01*
X018874Y024080D01*
X018951Y024004D01*
X019104Y024004D02*
X019181Y024080D01*
X019334Y024080D01*
X019411Y024004D01*
X019411Y023697D01*
X019334Y023620D01*
X019181Y023620D01*
X019104Y023697D01*
X018951Y023620D02*
X018644Y023927D01*
X018644Y024004D01*
X018644Y023620D02*
X018951Y023620D01*
X019181Y024120D02*
X019104Y024197D01*
X019181Y024120D02*
X019334Y024120D01*
X019411Y024197D01*
X019411Y024504D01*
X019334Y024580D01*
X019181Y024580D01*
X019104Y024504D01*
X019059Y024604D02*
X019059Y024297D01*
X019213Y024220D02*
X019520Y024220D01*
X019366Y024220D02*
X019366Y024680D01*
X019520Y024527D01*
X019673Y024604D02*
X019750Y024680D01*
X019903Y024680D01*
X019980Y024604D01*
X019980Y024297D01*
X019903Y024220D01*
X019750Y024220D01*
X019673Y024297D01*
X019750Y024720D02*
X019673Y024797D01*
X019750Y024720D02*
X019903Y024720D01*
X019980Y024797D01*
X019980Y025104D01*
X019903Y025180D01*
X019750Y025180D01*
X019673Y025104D01*
X019750Y025220D02*
X019673Y025297D01*
X019750Y025220D02*
X019903Y025220D01*
X019980Y025297D01*
X019980Y025604D01*
X019903Y025680D01*
X019750Y025680D01*
X019673Y025604D01*
X019520Y025527D02*
X019366Y025680D01*
X019366Y025220D01*
X019213Y025220D02*
X019520Y025220D01*
X019520Y025180D02*
X019213Y025180D01*
X019213Y025104D01*
X019520Y024797D01*
X019520Y024720D01*
X018829Y025220D02*
X018829Y025680D01*
X019059Y025450D01*
X018752Y025450D01*
X019045Y031335D02*
X019045Y031796D01*
X019275Y031566D01*
X018968Y031566D01*
X019429Y031566D02*
X019506Y031489D01*
X019736Y031489D01*
X019736Y031335D02*
X019736Y031796D01*
X019506Y031796D01*
X019429Y031719D01*
X019429Y031566D01*
X019889Y031796D02*
X020196Y031796D01*
X020275Y031796D02*
X020275Y031566D01*
X020122Y031642D01*
X020045Y031642D01*
X019968Y031566D01*
X019968Y031412D01*
X020045Y031335D01*
X020199Y031335D01*
X020275Y031412D01*
X020429Y031566D02*
X020506Y031489D01*
X020736Y031489D01*
X020736Y031335D02*
X020736Y031796D01*
X020506Y031796D01*
X020429Y031719D01*
X020429Y031566D01*
X020275Y031796D02*
X019968Y031796D01*
X020043Y031796D02*
X020043Y031335D01*
X020889Y031796D02*
X021196Y031796D01*
X021043Y031796D02*
X021043Y031335D01*
X021043Y032335D02*
X021043Y032796D01*
X021196Y032796D02*
X020889Y032796D01*
X020736Y032796D02*
X020506Y032796D01*
X020429Y032719D01*
X020429Y032566D01*
X020506Y032489D01*
X020736Y032489D01*
X020736Y032335D02*
X020736Y032796D01*
X020275Y032719D02*
X020199Y032796D01*
X020045Y032796D01*
X019968Y032719D01*
X019968Y032642D01*
X020275Y032335D01*
X019968Y032335D01*
X020043Y032335D02*
X020043Y032796D01*
X020196Y032796D02*
X019889Y032796D01*
X019736Y032796D02*
X019506Y032796D01*
X019429Y032719D01*
X019429Y032566D01*
X019506Y032489D01*
X019736Y032489D01*
X019736Y032335D02*
X019736Y032796D01*
X019275Y032719D02*
X019199Y032796D01*
X019045Y032796D01*
X018968Y032719D01*
X018968Y032642D01*
X019045Y032566D01*
X018968Y032489D01*
X018968Y032412D01*
X019045Y032335D01*
X019199Y032335D01*
X019275Y032412D01*
X019122Y032566D02*
X019045Y032566D01*
X019043Y032796D02*
X019043Y032335D01*
X018736Y032335D02*
X018736Y032796D01*
X018506Y032796D01*
X018429Y032719D01*
X018429Y032566D01*
X018506Y032489D01*
X018736Y032489D01*
X018889Y032796D02*
X019196Y032796D01*
X018275Y032642D02*
X018122Y032796D01*
X018122Y032335D01*
X018275Y032335D02*
X017968Y032335D01*
M02*
