G75*
%MOIN*%
%OFA0B0*%
%FSLAX24Y24*%
%IPPOS*%
%LPD*%
%AMOC8*
5,1,8,0,0,1.08239X$1,22.5*
%
%ADD10C,0.0540*%
%ADD11C,0.0220*%
%ADD12C,0.0050*%
%ADD13C,0.0120*%
D10*
X016150Y017150D03*
X016150Y018150D03*
X016150Y019150D03*
X016150Y020150D03*
X016150Y021150D03*
X016150Y022150D03*
X016150Y023150D03*
X016150Y024150D03*
X016150Y025150D03*
X016150Y026150D03*
X016150Y027150D03*
X016150Y028150D03*
X016150Y029150D03*
X016150Y030150D03*
X016150Y031150D03*
X016150Y032150D03*
X016150Y033150D03*
X022150Y033150D03*
X022150Y032150D03*
X022150Y031150D03*
X022150Y030150D03*
X022150Y029150D03*
X022150Y028150D03*
X022150Y027150D03*
X022150Y026150D03*
X022150Y025150D03*
X022150Y024150D03*
X022150Y023150D03*
X022150Y022150D03*
X022150Y021150D03*
X022150Y020150D03*
X022150Y019150D03*
X022150Y018150D03*
X022150Y017150D03*
D11*
X019650Y018250D03*
X019450Y019050D03*
X019050Y019050D03*
X018650Y018250D03*
X018250Y017650D03*
X017450Y019650D03*
X018650Y020650D03*
X017600Y022100D03*
X016850Y022550D03*
X017050Y023150D03*
X017850Y023100D03*
X018050Y022900D03*
X018350Y022800D03*
X018750Y022900D03*
X019050Y022900D03*
X019250Y022650D03*
X019450Y022850D03*
X019350Y022300D03*
X020050Y022900D03*
X020500Y023200D03*
X020900Y024200D03*
X020900Y024500D03*
X020900Y024800D03*
X020900Y025100D03*
X021350Y025300D03*
X021450Y025600D03*
X021450Y025900D03*
X021450Y026200D03*
X021400Y026650D03*
X020850Y026450D03*
X020600Y026850D03*
X020350Y026400D03*
X019950Y026450D03*
X019700Y027100D03*
X019850Y027350D03*
X019050Y027650D03*
X018650Y027400D03*
X018200Y027650D03*
X017650Y028050D03*
X017650Y027250D03*
X017850Y027050D03*
X018050Y026850D03*
X018900Y026800D03*
X018800Y026400D03*
X019250Y026400D03*
X019050Y028550D03*
X020250Y028450D03*
X020300Y029900D03*
X019250Y030050D03*
X018850Y030250D03*
X019400Y030650D03*
X018450Y031250D03*
X017650Y030650D03*
X017250Y029850D03*
X017450Y029450D03*
X017050Y032050D03*
X017450Y033050D03*
X017050Y034300D03*
X018250Y035050D03*
X018850Y034450D03*
X019450Y034650D03*
X019650Y034850D03*
X019850Y035050D03*
X020200Y035000D03*
X020200Y035200D03*
X020200Y035400D03*
X020200Y035600D03*
X020200Y035800D03*
X020200Y036000D03*
X020900Y036000D03*
X020900Y035800D03*
X020900Y035600D03*
X020900Y035400D03*
X020900Y035200D03*
X021050Y034650D03*
X021350Y034650D03*
X021500Y034200D03*
X021250Y032650D03*
X021000Y032500D03*
X020150Y032200D03*
X019650Y032150D03*
X019450Y031950D03*
X018900Y032550D03*
X018800Y033150D03*
X018750Y033450D03*
X018800Y033750D03*
X019850Y033650D03*
X020050Y033450D03*
X020250Y033250D03*
X020250Y033650D03*
X019850Y033250D03*
X017050Y026050D03*
X016850Y025850D03*
X016650Y025050D03*
X017050Y024950D03*
X017350Y024800D03*
X017300Y024400D03*
X017400Y024100D03*
X016900Y024450D03*
X017350Y025350D03*
X016200Y023650D03*
X021250Y021600D03*
X022050Y023650D03*
D12*
X015875Y016937D02*
X015875Y016457D01*
X015917Y016499D01*
X016068Y016561D01*
X016232Y016561D01*
X016383Y016499D01*
X016499Y016383D01*
X016561Y016232D01*
X021739Y016232D01*
X021739Y016068D01*
X021801Y015917D01*
X021843Y015875D01*
X016457Y015875D01*
X016499Y015917D01*
X016561Y016068D01*
X016561Y016232D01*
X016561Y016184D02*
X021739Y016184D01*
X021739Y016232D02*
X021801Y016383D01*
X021917Y016499D01*
X022068Y016561D01*
X022232Y016561D01*
X022383Y016499D01*
X022425Y016457D01*
X022425Y016937D01*
X022345Y016858D01*
X022219Y016805D01*
X022081Y016805D01*
X021955Y016858D01*
X021858Y016955D01*
X021805Y017081D01*
X021805Y017219D01*
X021858Y017345D01*
X021955Y017442D01*
X022081Y017495D01*
X022219Y017495D01*
X022345Y017442D01*
X022425Y017363D01*
X022425Y017937D01*
X022345Y017858D01*
X022219Y017805D01*
X022081Y017805D01*
X021955Y017858D01*
X021858Y017955D01*
X021805Y018081D01*
X021805Y018219D01*
X021858Y018345D01*
X021955Y018442D01*
X022081Y018495D01*
X022219Y018495D01*
X022345Y018442D01*
X022425Y018363D01*
X022425Y018937D01*
X022345Y018858D01*
X022219Y018805D01*
X022081Y018805D01*
X021955Y018858D01*
X021858Y018955D01*
X021805Y019081D01*
X021805Y019219D01*
X021858Y019345D01*
X021955Y019442D01*
X022081Y019495D01*
X022219Y019495D01*
X022345Y019442D01*
X022425Y019363D01*
X022425Y019937D01*
X022345Y019858D01*
X022219Y019805D01*
X022081Y019805D01*
X021955Y019858D01*
X021858Y019955D01*
X021805Y020081D01*
X021805Y020219D01*
X021858Y020345D01*
X021955Y020442D01*
X022081Y020495D01*
X022219Y020495D01*
X022345Y020442D01*
X022425Y020363D01*
X022425Y020937D01*
X022345Y020858D01*
X022219Y020805D01*
X022081Y020805D01*
X021955Y020858D01*
X021858Y020955D01*
X021805Y021081D01*
X021805Y021219D01*
X021858Y021345D01*
X021955Y021442D01*
X022081Y021495D01*
X022219Y021495D01*
X022345Y021442D01*
X022425Y021363D01*
X022425Y021937D01*
X022345Y021858D01*
X022219Y021805D01*
X022081Y021805D01*
X021955Y021858D01*
X021858Y021955D01*
X021805Y022081D01*
X021805Y022219D01*
X021858Y022345D01*
X021955Y022442D01*
X022081Y022495D01*
X022219Y022495D01*
X022345Y022442D01*
X022425Y022363D01*
X022425Y022937D01*
X022345Y022858D01*
X022219Y022805D01*
X022081Y022805D01*
X021955Y022858D01*
X021858Y022955D01*
X021805Y023081D01*
X021805Y023219D01*
X021858Y023345D01*
X021955Y023442D01*
X022081Y023495D01*
X022219Y023495D01*
X022345Y023442D01*
X022425Y023363D01*
X022425Y023937D01*
X022345Y023858D01*
X022219Y023805D01*
X022081Y023805D01*
X021955Y023858D01*
X021858Y023955D01*
X021805Y024081D01*
X021805Y024219D01*
X021858Y024345D01*
X021955Y024442D01*
X022081Y024495D01*
X022219Y024495D01*
X022345Y024442D01*
X022425Y024363D01*
X022425Y024937D01*
X022345Y024858D01*
X022219Y024805D01*
X022081Y024805D01*
X021955Y024858D01*
X021858Y024955D01*
X021805Y025081D01*
X021805Y025219D01*
X021858Y025345D01*
X021955Y025442D01*
X022081Y025495D01*
X022219Y025495D01*
X022345Y025442D01*
X022425Y025363D01*
X022425Y025937D01*
X022345Y025858D01*
X022219Y025805D01*
X022081Y025805D01*
X021955Y025858D01*
X021858Y025955D01*
X021805Y026081D01*
X021805Y026219D01*
X021858Y026345D01*
X021955Y026442D01*
X022081Y026495D01*
X022219Y026495D01*
X022345Y026442D01*
X022425Y026363D01*
X022425Y026937D01*
X022345Y026858D01*
X022219Y026805D01*
X022425Y026805D01*
X022425Y026757D02*
X019898Y026757D01*
X019891Y026750D02*
X019950Y026809D01*
X021750Y028609D01*
X021750Y031609D01*
X021986Y031845D01*
X022081Y031805D01*
X022219Y031805D01*
X022345Y031858D01*
X022425Y031937D01*
X022425Y031363D01*
X022345Y031442D01*
X022219Y031495D01*
X022081Y031495D01*
X021955Y031442D01*
X021858Y031345D01*
X021805Y031219D01*
X021805Y031081D01*
X021858Y030955D01*
X021955Y030858D01*
X022081Y030805D01*
X022219Y030805D01*
X022345Y030858D01*
X022425Y030937D01*
X022425Y030434D01*
X022402Y030457D01*
X022337Y030500D01*
X022265Y030530D01*
X022189Y030545D01*
X022175Y030545D01*
X022175Y030175D01*
X022125Y030175D01*
X022125Y030545D01*
X022111Y030545D01*
X022035Y030530D01*
X021963Y030500D01*
X021898Y030457D01*
X021843Y030402D01*
X021800Y030337D01*
X021770Y030265D01*
X021755Y030189D01*
X021755Y030175D01*
X022125Y030175D01*
X022125Y030125D01*
X022175Y030125D01*
X022175Y029755D01*
X022189Y029755D01*
X022265Y029770D01*
X022337Y029800D01*
X022402Y029843D01*
X022425Y029866D01*
X022425Y029363D01*
X022345Y029442D01*
X022219Y029495D01*
X022081Y029495D01*
X021955Y029442D01*
X021858Y029345D01*
X021805Y029219D01*
X021805Y029081D01*
X021858Y028955D01*
X021955Y028858D01*
X022081Y028805D01*
X022219Y028805D01*
X022345Y028858D01*
X022425Y028937D01*
X022425Y028363D01*
X022345Y028442D01*
X022219Y028495D01*
X022081Y028495D01*
X021955Y028442D01*
X021858Y028345D01*
X021805Y028219D01*
X021805Y028081D01*
X021858Y027955D01*
X021955Y027858D01*
X022081Y027805D01*
X022219Y027805D01*
X022345Y027858D01*
X022425Y027937D01*
X022425Y027363D01*
X022345Y027442D01*
X022219Y027495D01*
X022081Y027495D01*
X021955Y027442D01*
X021858Y027345D01*
X021805Y027219D01*
X021805Y027081D01*
X021858Y026955D01*
X021955Y026858D01*
X022081Y026805D01*
X019946Y026805D01*
X019995Y026854D02*
X021964Y026854D01*
X021910Y026902D02*
X020043Y026902D01*
X020092Y026951D02*
X021862Y026951D01*
X021839Y026999D02*
X020140Y026999D01*
X020189Y027048D02*
X021819Y027048D01*
X021805Y027096D02*
X020237Y027096D01*
X020286Y027145D02*
X021805Y027145D01*
X021805Y027193D02*
X020334Y027193D01*
X020383Y027242D02*
X021815Y027242D01*
X021835Y027290D02*
X020431Y027290D01*
X020480Y027339D02*
X021855Y027339D01*
X021899Y027387D02*
X020528Y027387D01*
X020577Y027436D02*
X021948Y027436D01*
X022055Y027484D02*
X020625Y027484D01*
X020674Y027533D02*
X022425Y027533D01*
X022425Y027581D02*
X020722Y027581D01*
X020771Y027630D02*
X022425Y027630D01*
X022425Y027678D02*
X020819Y027678D01*
X020868Y027727D02*
X022425Y027727D01*
X022425Y027775D02*
X020916Y027775D01*
X020965Y027824D02*
X022037Y027824D01*
X021940Y027872D02*
X021013Y027872D01*
X021062Y027921D02*
X021892Y027921D01*
X021852Y027969D02*
X021110Y027969D01*
X021159Y028018D02*
X021831Y028018D01*
X021811Y028066D02*
X021207Y028066D01*
X021256Y028115D02*
X021805Y028115D01*
X021805Y028163D02*
X021304Y028163D01*
X021353Y028212D02*
X021805Y028212D01*
X021822Y028260D02*
X021401Y028260D01*
X021450Y028309D02*
X021842Y028309D01*
X021869Y028357D02*
X021498Y028357D01*
X021547Y028406D02*
X021918Y028406D01*
X021983Y028454D02*
X021595Y028454D01*
X021644Y028503D02*
X022425Y028503D01*
X022425Y028551D02*
X021692Y028551D01*
X021741Y028600D02*
X022425Y028600D01*
X022425Y028648D02*
X021750Y028648D01*
X021750Y028697D02*
X022425Y028697D01*
X022425Y028745D02*
X021750Y028745D01*
X021750Y028794D02*
X022425Y028794D01*
X022425Y028842D02*
X022308Y028842D01*
X022378Y028891D02*
X022425Y028891D01*
X021992Y028842D02*
X021750Y028842D01*
X021750Y028891D02*
X021922Y028891D01*
X021873Y028939D02*
X021750Y028939D01*
X021750Y028988D02*
X021844Y028988D01*
X021824Y029036D02*
X021750Y029036D01*
X021750Y029085D02*
X021805Y029085D01*
X021805Y029133D02*
X021750Y029133D01*
X021750Y029182D02*
X021805Y029182D01*
X021810Y029230D02*
X021750Y029230D01*
X021750Y029279D02*
X021830Y029279D01*
X021850Y029327D02*
X021750Y029327D01*
X021750Y029376D02*
X021888Y029376D01*
X021936Y029424D02*
X021750Y029424D01*
X021750Y029473D02*
X022027Y029473D01*
X022273Y029473D02*
X022425Y029473D01*
X022425Y029521D02*
X021750Y029521D01*
X021750Y029570D02*
X022425Y029570D01*
X022425Y029618D02*
X021750Y029618D01*
X021750Y029667D02*
X022425Y029667D01*
X022425Y029715D02*
X021750Y029715D01*
X021750Y029764D02*
X022068Y029764D01*
X022035Y029770D02*
X022111Y029755D01*
X022125Y029755D01*
X022125Y030125D01*
X021755Y030125D01*
X021755Y030111D01*
X021770Y030035D01*
X021800Y029963D01*
X021843Y029898D01*
X021898Y029843D01*
X021963Y029800D01*
X022035Y029770D01*
X022125Y029764D02*
X022175Y029764D01*
X022175Y029812D02*
X022125Y029812D01*
X022125Y029861D02*
X022175Y029861D01*
X022175Y029909D02*
X022125Y029909D01*
X022125Y029958D02*
X022175Y029958D01*
X022175Y030006D02*
X022125Y030006D01*
X022125Y030055D02*
X022175Y030055D01*
X022175Y030103D02*
X022125Y030103D01*
X022125Y030152D02*
X021750Y030152D01*
X021750Y030200D02*
X021757Y030200D01*
X021750Y030249D02*
X021767Y030249D01*
X021750Y030297D02*
X021783Y030297D01*
X021806Y030346D02*
X021750Y030346D01*
X021750Y030394D02*
X021838Y030394D01*
X021884Y030443D02*
X021750Y030443D01*
X021750Y030491D02*
X021949Y030491D01*
X022084Y030540D02*
X021750Y030540D01*
X021750Y030588D02*
X022425Y030588D01*
X022425Y030540D02*
X022216Y030540D01*
X022175Y030540D02*
X022125Y030540D01*
X022125Y030491D02*
X022175Y030491D01*
X022175Y030443D02*
X022125Y030443D01*
X022125Y030394D02*
X022175Y030394D01*
X022175Y030346D02*
X022125Y030346D01*
X022125Y030297D02*
X022175Y030297D01*
X022175Y030249D02*
X022125Y030249D01*
X022125Y030200D02*
X022175Y030200D01*
X022351Y030491D02*
X022425Y030491D01*
X022416Y030443D02*
X022425Y030443D01*
X022425Y030637D02*
X021750Y030637D01*
X021750Y030685D02*
X022425Y030685D01*
X022425Y030734D02*
X021750Y030734D01*
X021750Y030782D02*
X022425Y030782D01*
X022425Y030831D02*
X022280Y030831D01*
X022367Y030879D02*
X022425Y030879D01*
X022425Y030928D02*
X022415Y030928D01*
X022020Y030831D02*
X021750Y030831D01*
X021750Y030879D02*
X021933Y030879D01*
X021885Y030928D02*
X021750Y030928D01*
X021750Y030976D02*
X021849Y030976D01*
X021829Y031025D02*
X021750Y031025D01*
X021750Y031073D02*
X021808Y031073D01*
X021805Y031122D02*
X021750Y031122D01*
X021750Y031170D02*
X021805Y031170D01*
X021805Y031219D02*
X021750Y031219D01*
X021750Y031267D02*
X021825Y031267D01*
X021845Y031316D02*
X021750Y031316D01*
X021750Y031364D02*
X021876Y031364D01*
X021925Y031413D02*
X021750Y031413D01*
X021750Y031461D02*
X021999Y031461D01*
X021750Y031510D02*
X022425Y031510D01*
X022425Y031558D02*
X021750Y031558D01*
X021750Y031607D02*
X022425Y031607D01*
X022425Y031655D02*
X021797Y031655D01*
X021845Y031704D02*
X022425Y031704D01*
X022425Y031752D02*
X021894Y031752D01*
X021942Y031801D02*
X022425Y031801D01*
X022425Y031849D02*
X022325Y031849D01*
X022385Y031898D02*
X022425Y031898D01*
X022150Y032150D02*
X021650Y031650D01*
X021650Y028650D01*
X019850Y026850D01*
X018950Y026850D01*
X018900Y026800D01*
X018715Y026805D02*
X018235Y026805D01*
X018235Y026773D02*
X018235Y026927D01*
X018127Y027035D01*
X018035Y027035D01*
X018035Y027127D01*
X017927Y027235D01*
X017835Y027235D01*
X017835Y027327D01*
X017727Y027435D01*
X017573Y027435D01*
X017465Y027327D01*
X017465Y027173D01*
X017573Y027065D01*
X017665Y027065D01*
X017665Y026973D01*
X017773Y026865D01*
X017865Y026865D01*
X017865Y026773D01*
X017973Y026665D01*
X018127Y026665D01*
X018235Y026773D01*
X018218Y026757D02*
X018715Y026757D01*
X018715Y026723D02*
X018823Y026615D01*
X018977Y026615D01*
X019085Y026723D01*
X019085Y026750D01*
X019891Y026750D01*
X019873Y026635D02*
X019765Y026527D01*
X019765Y026373D01*
X019873Y026265D01*
X020027Y026265D01*
X020135Y026373D01*
X020135Y026527D01*
X020027Y026635D01*
X019873Y026635D01*
X019849Y026611D02*
X015875Y026611D01*
X015875Y026563D02*
X018701Y026563D01*
X018723Y026585D02*
X018615Y026477D01*
X018615Y026323D01*
X018723Y026215D01*
X018877Y026215D01*
X018985Y026323D01*
X018985Y026477D01*
X018877Y026585D01*
X018723Y026585D01*
X018779Y026660D02*
X015875Y026660D01*
X015875Y026708D02*
X017930Y026708D01*
X017882Y026757D02*
X015875Y026757D01*
X015875Y026805D02*
X016081Y026805D01*
X016219Y026805D01*
X017865Y026805D01*
X017865Y026854D02*
X016336Y026854D01*
X016345Y026858D02*
X016442Y026955D01*
X016495Y027081D01*
X016495Y027219D01*
X016442Y027345D01*
X016345Y027442D01*
X016219Y027495D01*
X016081Y027495D01*
X015955Y027442D01*
X015875Y027363D01*
X015875Y027866D01*
X015898Y027843D01*
X015963Y027800D01*
X016035Y027770D01*
X016111Y027755D01*
X016125Y027755D01*
X016125Y028125D01*
X016175Y028125D01*
X016175Y028175D01*
X016125Y028175D01*
X016125Y028545D01*
X016111Y028545D01*
X016035Y028530D01*
X015963Y028500D01*
X015898Y028457D01*
X015875Y028434D01*
X015875Y028937D01*
X015955Y028858D01*
X016081Y028805D01*
X016219Y028805D01*
X016345Y028858D01*
X016442Y028955D01*
X016495Y029081D01*
X016495Y029219D01*
X016442Y029345D01*
X016345Y029442D01*
X016219Y029495D01*
X016081Y029495D01*
X015955Y029442D01*
X015875Y029363D01*
X015875Y029937D01*
X015955Y029858D01*
X016081Y029805D01*
X016219Y029805D01*
X016345Y029858D01*
X016442Y029955D01*
X016495Y030081D01*
X016495Y030219D01*
X016442Y030345D01*
X016345Y030442D01*
X016345Y030443D02*
X019700Y030443D01*
X019700Y030491D02*
X019503Y030491D01*
X019477Y030465D02*
X019585Y030573D01*
X019585Y030727D01*
X019477Y030835D01*
X019323Y030835D01*
X019215Y030727D01*
X019215Y030573D01*
X019323Y030465D01*
X019477Y030465D01*
X019551Y030540D02*
X019700Y030540D01*
X019700Y030588D02*
X019585Y030588D01*
X019585Y030637D02*
X019700Y030637D01*
X019700Y030685D02*
X019585Y030685D01*
X019578Y030734D02*
X019700Y030734D01*
X019700Y030782D02*
X019530Y030782D01*
X019481Y030831D02*
X019700Y030831D01*
X019700Y030879D02*
X016367Y030879D01*
X016345Y030858D02*
X016442Y030955D01*
X016495Y031081D01*
X016495Y031219D01*
X016442Y031345D01*
X016345Y031442D01*
X016219Y031495D01*
X016081Y031495D01*
X015955Y031442D01*
X015875Y031363D01*
X015875Y031937D01*
X015955Y031858D01*
X016081Y031805D01*
X016219Y031805D01*
X016345Y031858D01*
X016442Y031955D01*
X016495Y032081D01*
X016495Y032219D01*
X016442Y032345D01*
X016345Y032442D01*
X016219Y032495D01*
X016081Y032495D01*
X015955Y032442D01*
X015875Y032363D01*
X015875Y032937D01*
X015955Y032858D01*
X016081Y032805D01*
X016219Y032805D01*
X016345Y032858D01*
X016442Y032955D01*
X016495Y033081D01*
X016495Y033219D01*
X016442Y033345D01*
X016345Y033442D01*
X016219Y033495D01*
X016081Y033495D01*
X015955Y033442D01*
X015875Y033363D01*
X015875Y033843D01*
X015917Y033801D01*
X016068Y033739D01*
X016232Y033739D01*
X016383Y033801D01*
X016499Y033917D01*
X016561Y034068D01*
X016561Y034232D01*
X016499Y034383D01*
X016383Y034499D01*
X016232Y034561D01*
X016068Y034561D01*
X015917Y034499D01*
X015875Y034457D01*
X015875Y036150D01*
X022425Y036150D01*
X022425Y034457D01*
X022383Y034499D01*
X022232Y034561D01*
X022068Y034561D01*
X021917Y034499D01*
X021801Y034383D01*
X021739Y034232D01*
X021739Y034068D01*
X021801Y033917D01*
X021917Y033801D01*
X022068Y033739D01*
X022232Y033739D01*
X022383Y033801D01*
X022425Y033843D01*
X022425Y033363D01*
X022345Y033442D01*
X022219Y033495D01*
X022081Y033495D01*
X021955Y033442D01*
X021858Y033345D01*
X021805Y033219D01*
X021805Y033146D01*
X021410Y032752D01*
X021327Y032835D01*
X021173Y032835D01*
X021065Y032727D01*
X021065Y032685D01*
X020923Y032685D01*
X020815Y032577D01*
X020815Y032423D01*
X020923Y032315D01*
X021077Y032315D01*
X021185Y032423D01*
X021185Y032465D01*
X021327Y032465D01*
X021350Y032488D01*
X021350Y028691D01*
X020035Y027376D01*
X020035Y027427D01*
X019927Y027535D01*
X019900Y027535D01*
X019900Y031959D01*
X019950Y032009D01*
X019950Y032491D01*
X019650Y032791D01*
X019650Y034591D01*
X019635Y034606D01*
X019635Y034665D01*
X019727Y034665D01*
X019835Y034773D01*
X019835Y034865D01*
X019927Y034865D01*
X020035Y034973D01*
X020035Y035127D01*
X019927Y035235D01*
X019773Y035235D01*
X019665Y035127D01*
X019665Y035035D01*
X019573Y035035D01*
X019465Y034927D01*
X019465Y034835D01*
X019373Y034835D01*
X019265Y034727D01*
X019265Y034573D01*
X019373Y034465D01*
X019450Y034465D01*
X019450Y032709D01*
X019509Y032650D01*
X019750Y032409D01*
X019750Y032312D01*
X019727Y032335D01*
X019573Y032335D01*
X019465Y032227D01*
X019465Y032135D01*
X019373Y032135D01*
X019265Y032027D01*
X019265Y031873D01*
X019373Y031765D01*
X019527Y031765D01*
X019635Y031873D01*
X019635Y031965D01*
X019700Y031965D01*
X019700Y027462D01*
X019665Y027427D01*
X019665Y027285D01*
X019623Y027285D01*
X019515Y027177D01*
X019515Y027023D01*
X019588Y026950D01*
X019012Y026950D01*
X018977Y026985D01*
X018823Y026985D01*
X018715Y026877D01*
X018715Y026723D01*
X018730Y026708D02*
X018170Y026708D01*
X018235Y026854D02*
X018715Y026854D01*
X018740Y026902D02*
X018235Y026902D01*
X018211Y026951D02*
X018789Y026951D01*
X019011Y026951D02*
X019588Y026951D01*
X019539Y026999D02*
X018163Y026999D01*
X018035Y027048D02*
X019515Y027048D01*
X019515Y027096D02*
X018035Y027096D01*
X018017Y027145D02*
X019515Y027145D01*
X019531Y027193D02*
X017969Y027193D01*
X017835Y027242D02*
X018547Y027242D01*
X018573Y027215D02*
X018727Y027215D01*
X018835Y027323D01*
X018835Y027477D01*
X018727Y027585D01*
X018573Y027585D01*
X018465Y027477D01*
X018465Y027323D01*
X018573Y027215D01*
X018498Y027290D02*
X017835Y027290D01*
X017823Y027339D02*
X018465Y027339D01*
X018465Y027387D02*
X017775Y027387D01*
X017525Y027387D02*
X016401Y027387D01*
X016445Y027339D02*
X017477Y027339D01*
X017465Y027290D02*
X016465Y027290D01*
X016485Y027242D02*
X017465Y027242D01*
X017465Y027193D02*
X016495Y027193D01*
X016495Y027145D02*
X017494Y027145D01*
X017542Y027096D02*
X016495Y027096D01*
X016481Y027048D02*
X017665Y027048D01*
X017665Y026999D02*
X016461Y026999D01*
X016438Y026951D02*
X017688Y026951D01*
X017736Y026902D02*
X016390Y026902D01*
X016345Y026858D02*
X016219Y026805D01*
X016081Y026805D02*
X015955Y026858D01*
X015875Y026937D01*
X015875Y026363D01*
X015955Y026442D01*
X016081Y026495D01*
X016219Y026495D01*
X016345Y026442D01*
X016442Y026345D01*
X016495Y026219D01*
X016495Y026081D01*
X016442Y025955D01*
X016345Y025858D01*
X016219Y025805D01*
X016081Y025805D01*
X015955Y025858D01*
X015875Y025937D01*
X015875Y025363D01*
X015955Y025442D01*
X016081Y025495D01*
X016219Y025495D01*
X016345Y025442D01*
X016442Y025345D01*
X016495Y025219D01*
X016495Y025157D01*
X016573Y025235D01*
X016727Y025235D01*
X016835Y025127D01*
X016835Y024973D01*
X016727Y024865D01*
X016873Y024865D01*
X016865Y024873D02*
X016973Y024765D01*
X017127Y024765D01*
X017235Y024873D01*
X017235Y025027D01*
X017127Y025135D01*
X016973Y025135D01*
X016865Y025027D01*
X016865Y024873D01*
X016865Y024914D02*
X016775Y024914D01*
X016824Y024962D02*
X016865Y024962D01*
X016865Y025011D02*
X016835Y025011D01*
X016835Y025059D02*
X016897Y025059D01*
X016946Y025108D02*
X016835Y025108D01*
X016806Y025156D02*
X020715Y025156D01*
X020715Y025177D02*
X020715Y025023D01*
X020788Y024950D01*
X020715Y024877D01*
X020715Y024723D01*
X020788Y024650D01*
X020715Y024577D01*
X020715Y024550D01*
X018091Y024550D01*
X018000Y024641D01*
X017941Y024700D01*
X017009Y024700D01*
X016944Y024635D01*
X016823Y024635D01*
X016715Y024527D01*
X016715Y024373D01*
X016823Y024265D01*
X016977Y024265D01*
X017085Y024373D01*
X017085Y024494D01*
X017091Y024500D01*
X017138Y024500D01*
X017115Y024477D01*
X017115Y024323D01*
X017223Y024215D01*
X017253Y024215D01*
X017215Y024177D01*
X017215Y024023D01*
X017323Y023915D01*
X017477Y023915D01*
X017585Y024023D01*
X017585Y024177D01*
X017477Y024285D01*
X017447Y024285D01*
X017485Y024323D01*
X017485Y024477D01*
X017462Y024500D01*
X017859Y024500D01*
X018009Y024350D01*
X020788Y024350D01*
X020738Y024300D01*
X018059Y024300D01*
X017094Y023335D01*
X016973Y023335D01*
X016865Y023227D01*
X016865Y023073D01*
X016973Y022965D01*
X017127Y022965D01*
X017235Y023073D01*
X017235Y023194D01*
X018141Y024100D01*
X020738Y024100D01*
X020823Y024015D01*
X020977Y024015D01*
X021085Y024123D01*
X021085Y024277D01*
X021012Y024350D01*
X021085Y024423D01*
X021085Y024577D01*
X021012Y024650D01*
X021085Y024723D01*
X021085Y024877D01*
X021012Y024950D01*
X021085Y025023D01*
X021085Y025177D01*
X020977Y025285D01*
X020823Y025285D01*
X020715Y025177D01*
X020743Y025205D02*
X017466Y025205D01*
X017427Y025165D02*
X017535Y025273D01*
X017535Y025427D01*
X017427Y025535D01*
X017273Y025535D01*
X017165Y025427D01*
X017165Y025273D01*
X017273Y025165D01*
X017427Y025165D01*
X017515Y025253D02*
X020791Y025253D01*
X020715Y025108D02*
X017154Y025108D01*
X017203Y025059D02*
X020715Y025059D01*
X020728Y025011D02*
X017235Y025011D01*
X017235Y024962D02*
X020776Y024962D01*
X020752Y024914D02*
X017235Y024914D01*
X017227Y024865D02*
X020715Y024865D01*
X020715Y024817D02*
X017178Y024817D01*
X017130Y024768D02*
X020715Y024768D01*
X020719Y024720D02*
X015875Y024720D01*
X015875Y024768D02*
X016970Y024768D01*
X016922Y024817D02*
X016246Y024817D01*
X016219Y024805D02*
X016345Y024858D01*
X016442Y024955D01*
X016465Y025009D01*
X016465Y024973D01*
X016573Y024865D01*
X016353Y024865D01*
X016401Y024914D02*
X016525Y024914D01*
X016476Y024962D02*
X016446Y024962D01*
X016573Y024865D02*
X016727Y024865D01*
X016811Y024623D02*
X015875Y024623D01*
X015875Y024671D02*
X016980Y024671D01*
X017050Y024600D02*
X016900Y024450D01*
X016762Y024574D02*
X015875Y024574D01*
X015875Y024526D02*
X016715Y024526D01*
X016715Y024477D02*
X016262Y024477D01*
X016219Y024495D02*
X016081Y024495D01*
X015955Y024442D01*
X015875Y024363D01*
X015875Y024937D01*
X015955Y024858D01*
X016081Y024805D01*
X016219Y024805D01*
X016053Y024817D02*
X015875Y024817D01*
X015875Y024865D02*
X015947Y024865D01*
X015899Y024914D02*
X015875Y024914D01*
X015875Y024477D02*
X016038Y024477D01*
X015941Y024429D02*
X015875Y024429D01*
X015875Y024380D02*
X015892Y024380D01*
X016219Y024495D02*
X016345Y024442D01*
X016442Y024345D01*
X016495Y024219D01*
X016495Y024081D01*
X016442Y023955D01*
X016345Y023858D01*
X016219Y023805D01*
X016081Y023805D01*
X015955Y023858D01*
X015875Y023937D01*
X015875Y023363D01*
X015955Y023442D01*
X016081Y023495D01*
X016219Y023495D01*
X016345Y023442D01*
X016442Y023345D01*
X016495Y023219D01*
X016495Y023081D01*
X016442Y022955D01*
X016345Y022858D01*
X016219Y022805D01*
X016081Y022805D01*
X015955Y022858D01*
X015875Y022937D01*
X015875Y022363D01*
X015955Y022442D01*
X016081Y022495D01*
X016219Y022495D01*
X016345Y022442D01*
X016442Y022345D01*
X016495Y022219D01*
X016495Y022081D01*
X016442Y021955D01*
X016345Y021858D01*
X016219Y021805D01*
X016081Y021805D01*
X015955Y021858D01*
X015875Y021937D01*
X015875Y021363D01*
X015955Y021442D01*
X016081Y021495D01*
X016219Y021495D01*
X016345Y021442D01*
X016442Y021345D01*
X016495Y021219D01*
X016495Y021081D01*
X016442Y020955D01*
X016345Y020858D01*
X016219Y020805D01*
X016081Y020805D01*
X015955Y020858D01*
X015875Y020937D01*
X015875Y020363D01*
X015955Y020442D01*
X016081Y020495D01*
X016219Y020495D01*
X016345Y020442D01*
X016442Y020345D01*
X016495Y020219D01*
X016495Y020081D01*
X016442Y019955D01*
X016345Y019858D01*
X016219Y019805D01*
X016081Y019805D01*
X015955Y019858D01*
X015875Y019937D01*
X015875Y019363D01*
X015955Y019442D01*
X016081Y019495D01*
X016219Y019495D01*
X016345Y019442D01*
X016442Y019345D01*
X016495Y019219D01*
X016495Y019081D01*
X016442Y018955D01*
X016345Y018858D01*
X016219Y018805D01*
X016081Y018805D01*
X015955Y018858D01*
X015875Y018937D01*
X015875Y018363D01*
X015955Y018442D01*
X016081Y018495D01*
X016219Y018495D01*
X016345Y018442D01*
X016442Y018345D01*
X016495Y018219D01*
X016495Y018081D01*
X016442Y017955D01*
X016345Y017858D01*
X016219Y017805D01*
X016081Y017805D01*
X015955Y017858D01*
X015875Y017937D01*
X015875Y017363D01*
X015955Y017442D01*
X016081Y017495D01*
X016219Y017495D01*
X016345Y017442D01*
X016442Y017345D01*
X016495Y017219D01*
X016495Y017081D01*
X016442Y016955D01*
X016345Y016858D01*
X016219Y016805D01*
X016081Y016805D01*
X015955Y016858D01*
X015875Y016937D01*
X015875Y016911D02*
X015901Y016911D01*
X015875Y016863D02*
X015950Y016863D01*
X015875Y016814D02*
X016060Y016814D01*
X016240Y016814D02*
X022060Y016814D01*
X021950Y016863D02*
X016350Y016863D01*
X016399Y016911D02*
X021901Y016911D01*
X021855Y016960D02*
X016445Y016960D01*
X016465Y017008D02*
X021835Y017008D01*
X021815Y017057D02*
X016485Y017057D01*
X016495Y017105D02*
X021805Y017105D01*
X021805Y017154D02*
X016495Y017154D01*
X016495Y017202D02*
X021805Y017202D01*
X021818Y017251D02*
X016482Y017251D01*
X016462Y017299D02*
X021838Y017299D01*
X021860Y017348D02*
X016440Y017348D01*
X016392Y017396D02*
X021908Y017396D01*
X021959Y017445D02*
X016341Y017445D01*
X016223Y017493D02*
X018145Y017493D01*
X018173Y017465D02*
X018327Y017465D01*
X018435Y017573D01*
X018435Y017727D01*
X018327Y017835D01*
X018173Y017835D01*
X018065Y017727D01*
X018065Y017573D01*
X018173Y017465D01*
X018097Y017542D02*
X015875Y017542D01*
X015875Y017590D02*
X018065Y017590D01*
X018065Y017639D02*
X015875Y017639D01*
X015875Y017687D02*
X018065Y017687D01*
X018074Y017736D02*
X015875Y017736D01*
X015875Y017784D02*
X018122Y017784D01*
X018171Y017833D02*
X016285Y017833D01*
X016369Y017881D02*
X021931Y017881D01*
X021883Y017930D02*
X016417Y017930D01*
X016452Y017978D02*
X021848Y017978D01*
X021828Y018027D02*
X016472Y018027D01*
X016492Y018075D02*
X018563Y018075D01*
X018573Y018065D02*
X018727Y018065D01*
X018835Y018173D01*
X018835Y018327D01*
X018727Y018435D01*
X018573Y018435D01*
X018465Y018327D01*
X018465Y018173D01*
X018573Y018065D01*
X018515Y018124D02*
X016495Y018124D01*
X016495Y018172D02*
X018466Y018172D01*
X018465Y018221D02*
X016494Y018221D01*
X016474Y018269D02*
X018465Y018269D01*
X018465Y018318D02*
X016454Y018318D01*
X016422Y018366D02*
X018504Y018366D01*
X018553Y018415D02*
X016373Y018415D01*
X016296Y018463D02*
X022004Y018463D01*
X021927Y018415D02*
X019747Y018415D01*
X019727Y018435D02*
X019573Y018435D01*
X019465Y018327D01*
X019465Y018173D01*
X019573Y018065D01*
X019727Y018065D01*
X019835Y018173D01*
X019835Y018327D01*
X019727Y018435D01*
X019796Y018366D02*
X021878Y018366D01*
X021846Y018318D02*
X019835Y018318D01*
X019835Y018269D02*
X021826Y018269D01*
X021806Y018221D02*
X019835Y018221D01*
X019834Y018172D02*
X021805Y018172D01*
X021805Y018124D02*
X019785Y018124D01*
X019737Y018075D02*
X021808Y018075D01*
X022015Y017833D02*
X018329Y017833D01*
X018378Y017784D02*
X022425Y017784D01*
X022425Y017736D02*
X018426Y017736D01*
X018435Y017687D02*
X022425Y017687D01*
X022425Y017639D02*
X018435Y017639D01*
X018435Y017590D02*
X022425Y017590D01*
X022425Y017542D02*
X018403Y017542D01*
X018355Y017493D02*
X022077Y017493D01*
X022223Y017493D02*
X022425Y017493D01*
X022425Y017445D02*
X022341Y017445D01*
X022392Y017396D02*
X022425Y017396D01*
X022425Y017833D02*
X022285Y017833D01*
X022369Y017881D02*
X022425Y017881D01*
X022417Y017930D02*
X022425Y017930D01*
X022422Y018366D02*
X022425Y018366D01*
X022425Y018415D02*
X022373Y018415D01*
X022425Y018463D02*
X022296Y018463D01*
X022425Y018512D02*
X015875Y018512D01*
X015875Y018560D02*
X022425Y018560D01*
X022425Y018609D02*
X015875Y018609D01*
X015875Y018657D02*
X022425Y018657D01*
X022425Y018706D02*
X015875Y018706D01*
X015875Y018754D02*
X022425Y018754D01*
X022425Y018803D02*
X015875Y018803D01*
X015875Y018851D02*
X015970Y018851D01*
X015913Y018900D02*
X015875Y018900D01*
X015875Y018463D02*
X016004Y018463D01*
X015927Y018415D02*
X015875Y018415D01*
X015875Y018366D02*
X015878Y018366D01*
X015875Y017930D02*
X015883Y017930D01*
X015875Y017881D02*
X015931Y017881D01*
X015875Y017833D02*
X016015Y017833D01*
X016077Y017493D02*
X015875Y017493D01*
X015875Y017445D02*
X015959Y017445D01*
X015908Y017396D02*
X015875Y017396D01*
X015875Y016766D02*
X022425Y016766D01*
X022425Y016814D02*
X022240Y016814D01*
X022350Y016863D02*
X022425Y016863D01*
X022425Y016911D02*
X022399Y016911D01*
X022425Y016717D02*
X015875Y016717D01*
X015875Y016669D02*
X022425Y016669D01*
X022425Y016620D02*
X015875Y016620D01*
X015875Y016572D02*
X022425Y016572D01*
X022425Y016523D02*
X022324Y016523D01*
X022407Y016475D02*
X022425Y016475D01*
X021976Y016523D02*
X016324Y016523D01*
X016407Y016475D02*
X021893Y016475D01*
X021844Y016426D02*
X016456Y016426D01*
X016501Y016378D02*
X021799Y016378D01*
X021779Y016329D02*
X016521Y016329D01*
X016541Y016281D02*
X021759Y016281D01*
X021739Y016135D02*
X016561Y016135D01*
X016561Y016087D02*
X021739Y016087D01*
X021751Y016038D02*
X016549Y016038D01*
X016529Y015990D02*
X021771Y015990D01*
X021791Y015941D02*
X016509Y015941D01*
X016474Y015893D02*
X021826Y015893D01*
X021970Y018851D02*
X016330Y018851D01*
X016387Y018900D02*
X018939Y018900D01*
X018973Y018865D02*
X019127Y018865D01*
X019235Y018973D01*
X019235Y019127D01*
X019127Y019235D01*
X018973Y019235D01*
X018865Y019127D01*
X018865Y018973D01*
X018973Y018865D01*
X018890Y018948D02*
X016436Y018948D01*
X016460Y018997D02*
X018865Y018997D01*
X018865Y019045D02*
X016480Y019045D01*
X016495Y019094D02*
X018865Y019094D01*
X018880Y019142D02*
X016495Y019142D01*
X016495Y019191D02*
X018929Y019191D01*
X019171Y019191D02*
X019329Y019191D01*
X019373Y019235D02*
X019265Y019127D01*
X019265Y018973D01*
X019373Y018865D01*
X019527Y018865D01*
X019635Y018973D01*
X019635Y019127D01*
X019527Y019235D01*
X019373Y019235D01*
X019280Y019142D02*
X019220Y019142D01*
X019235Y019094D02*
X019265Y019094D01*
X019265Y019045D02*
X019235Y019045D01*
X019235Y018997D02*
X019265Y018997D01*
X019290Y018948D02*
X019210Y018948D01*
X019161Y018900D02*
X019339Y018900D01*
X019561Y018900D02*
X021913Y018900D01*
X021864Y018948D02*
X019610Y018948D01*
X019635Y018997D02*
X021840Y018997D01*
X021820Y019045D02*
X019635Y019045D01*
X019635Y019094D02*
X021805Y019094D01*
X021805Y019142D02*
X019620Y019142D01*
X019571Y019191D02*
X021805Y019191D01*
X021813Y019239D02*
X016487Y019239D01*
X016466Y019288D02*
X021834Y019288D01*
X021854Y019336D02*
X016446Y019336D01*
X016403Y019385D02*
X021897Y019385D01*
X021945Y019433D02*
X016355Y019433D01*
X016251Y019482D02*
X017357Y019482D01*
X017373Y019465D02*
X017527Y019465D01*
X017635Y019573D01*
X017635Y019727D01*
X017527Y019835D01*
X017373Y019835D01*
X017265Y019727D01*
X017265Y019573D01*
X017373Y019465D01*
X017308Y019530D02*
X015875Y019530D01*
X015875Y019482D02*
X016049Y019482D01*
X015945Y019433D02*
X015875Y019433D01*
X015875Y019385D02*
X015897Y019385D01*
X015875Y019579D02*
X017265Y019579D01*
X017265Y019627D02*
X015875Y019627D01*
X015875Y019676D02*
X017265Y019676D01*
X017265Y019724D02*
X015875Y019724D01*
X015875Y019773D02*
X017311Y019773D01*
X017359Y019821D02*
X016257Y019821D01*
X016357Y019870D02*
X021943Y019870D01*
X021894Y019918D02*
X016406Y019918D01*
X016447Y019967D02*
X021853Y019967D01*
X021832Y020015D02*
X016468Y020015D01*
X016488Y020064D02*
X021812Y020064D01*
X021805Y020112D02*
X016495Y020112D01*
X016495Y020161D02*
X021805Y020161D01*
X021805Y020209D02*
X016495Y020209D01*
X016479Y020258D02*
X021821Y020258D01*
X021841Y020306D02*
X016459Y020306D01*
X016433Y020355D02*
X021867Y020355D01*
X021915Y020403D02*
X016385Y020403D01*
X016324Y020452D02*
X021976Y020452D01*
X022324Y020452D02*
X022425Y020452D01*
X022425Y020500D02*
X018762Y020500D01*
X018727Y020465D02*
X018835Y020573D01*
X018835Y020727D01*
X018727Y020835D01*
X018573Y020835D01*
X018465Y020727D01*
X018465Y020573D01*
X018573Y020465D01*
X018727Y020465D01*
X018810Y020549D02*
X022425Y020549D01*
X022425Y020597D02*
X018835Y020597D01*
X018835Y020646D02*
X022425Y020646D01*
X022425Y020694D02*
X018835Y020694D01*
X018819Y020743D02*
X022425Y020743D01*
X022425Y020791D02*
X018771Y020791D01*
X018529Y020791D02*
X015875Y020791D01*
X015875Y020743D02*
X018481Y020743D01*
X018465Y020694D02*
X015875Y020694D01*
X015875Y020646D02*
X018465Y020646D01*
X018465Y020597D02*
X015875Y020597D01*
X015875Y020549D02*
X018490Y020549D01*
X018538Y020500D02*
X015875Y020500D01*
X015875Y020452D02*
X015976Y020452D01*
X015915Y020403D02*
X015875Y020403D01*
X015875Y020840D02*
X015998Y020840D01*
X015924Y020888D02*
X015875Y020888D01*
X015875Y020937D02*
X015876Y020937D01*
X015875Y021373D02*
X015885Y021373D01*
X015875Y021422D02*
X015934Y021422D01*
X015875Y021470D02*
X016021Y021470D01*
X015875Y021519D02*
X019291Y021519D01*
X019242Y021567D02*
X015875Y021567D01*
X015875Y021616D02*
X019194Y021616D01*
X019145Y021664D02*
X015875Y021664D01*
X015875Y021713D02*
X019097Y021713D01*
X019048Y021761D02*
X015875Y021761D01*
X015875Y021810D02*
X016070Y021810D01*
X015954Y021858D02*
X015875Y021858D01*
X015875Y021907D02*
X015906Y021907D01*
X016230Y021810D02*
X019000Y021810D01*
X018951Y021858D02*
X016346Y021858D01*
X016394Y021907D02*
X018903Y021907D01*
X018854Y021955D02*
X016443Y021955D01*
X016463Y022004D02*
X018806Y022004D01*
X018757Y022052D02*
X016483Y022052D01*
X016495Y022101D02*
X018709Y022101D01*
X018694Y022115D02*
X019344Y021465D01*
X021123Y021465D01*
X021173Y021415D01*
X021327Y021415D01*
X021435Y021523D01*
X021435Y021677D01*
X021327Y021785D01*
X021173Y021785D01*
X021123Y021735D01*
X019456Y021735D01*
X018885Y022306D01*
X018885Y022773D01*
X018900Y022788D01*
X018973Y022715D01*
X019065Y022715D01*
X019065Y022573D01*
X019173Y022465D01*
X019327Y022465D01*
X019435Y022573D01*
X019435Y022665D01*
X019527Y022665D01*
X019635Y022773D01*
X019635Y022927D01*
X019527Y023035D01*
X019373Y023035D01*
X019265Y022927D01*
X019265Y022835D01*
X019235Y022835D01*
X019235Y022977D01*
X019127Y023085D01*
X018973Y023085D01*
X018900Y023012D01*
X018827Y023085D01*
X018673Y023085D01*
X018565Y022977D01*
X018565Y022823D01*
X018615Y022773D01*
X018615Y022194D01*
X018694Y022115D01*
X018660Y022149D02*
X016495Y022149D01*
X016495Y022198D02*
X018615Y022198D01*
X018615Y022246D02*
X016484Y022246D01*
X016464Y022295D02*
X018615Y022295D01*
X018615Y022343D02*
X016443Y022343D01*
X016396Y022392D02*
X016747Y022392D01*
X016773Y022365D02*
X016927Y022365D01*
X017035Y022473D01*
X017035Y022627D01*
X016927Y022735D01*
X016773Y022735D01*
X016665Y022627D01*
X016665Y022473D01*
X016773Y022365D01*
X016698Y022440D02*
X016348Y022440D01*
X016234Y022489D02*
X016665Y022489D01*
X016665Y022537D02*
X015875Y022537D01*
X015875Y022489D02*
X016066Y022489D01*
X015952Y022440D02*
X015875Y022440D01*
X015875Y022392D02*
X015904Y022392D01*
X015875Y022586D02*
X016665Y022586D01*
X016672Y022634D02*
X015875Y022634D01*
X015875Y022683D02*
X016721Y022683D01*
X016769Y022731D02*
X015875Y022731D01*
X015875Y022780D02*
X017909Y022780D01*
X017865Y022823D02*
X017973Y022715D01*
X018127Y022715D01*
X018165Y022753D01*
X018165Y022723D01*
X018273Y022615D01*
X018427Y022615D01*
X018535Y022723D01*
X018535Y022877D01*
X018427Y022985D01*
X018273Y022985D01*
X018235Y022947D01*
X018235Y022977D01*
X018127Y023085D01*
X018035Y023085D01*
X018035Y023177D01*
X017927Y023285D01*
X017773Y023285D01*
X017665Y023177D01*
X017665Y023023D01*
X017773Y022915D01*
X017865Y022915D01*
X017865Y022823D01*
X017865Y022828D02*
X016274Y022828D01*
X016364Y022877D02*
X017865Y022877D01*
X017763Y022925D02*
X016413Y022925D01*
X016450Y022974D02*
X016965Y022974D01*
X016916Y023022D02*
X016470Y023022D01*
X016491Y023071D02*
X016868Y023071D01*
X016865Y023119D02*
X016495Y023119D01*
X016495Y023168D02*
X016865Y023168D01*
X016865Y023216D02*
X016495Y023216D01*
X016476Y023265D02*
X016903Y023265D01*
X016951Y023313D02*
X016456Y023313D01*
X016426Y023362D02*
X017120Y023362D01*
X017169Y023410D02*
X016378Y023410D01*
X016307Y023459D02*
X017217Y023459D01*
X017266Y023507D02*
X015875Y023507D01*
X015875Y023459D02*
X015993Y023459D01*
X015922Y023410D02*
X015875Y023410D01*
X015875Y023556D02*
X017314Y023556D01*
X017363Y023604D02*
X015875Y023604D01*
X015875Y023653D02*
X017411Y023653D01*
X017460Y023701D02*
X015875Y023701D01*
X015875Y023750D02*
X017508Y023750D01*
X017557Y023798D02*
X015875Y023798D01*
X015875Y023847D02*
X015981Y023847D01*
X015917Y023895D02*
X015875Y023895D01*
X016319Y023847D02*
X017605Y023847D01*
X017654Y023895D02*
X016383Y023895D01*
X016431Y023944D02*
X017295Y023944D01*
X017246Y023992D02*
X016458Y023992D01*
X016478Y024041D02*
X017215Y024041D01*
X017215Y024089D02*
X016495Y024089D01*
X016495Y024138D02*
X017215Y024138D01*
X017224Y024186D02*
X016495Y024186D01*
X016488Y024235D02*
X017204Y024235D01*
X017155Y024283D02*
X016995Y024283D01*
X017043Y024332D02*
X017115Y024332D01*
X017115Y024380D02*
X017085Y024380D01*
X017085Y024429D02*
X017115Y024429D01*
X017115Y024477D02*
X017085Y024477D01*
X017050Y024600D02*
X017900Y024600D01*
X018050Y024450D01*
X020850Y024450D01*
X020900Y024500D01*
X021039Y024623D02*
X022425Y024623D01*
X022425Y024671D02*
X021033Y024671D01*
X021081Y024720D02*
X022425Y024720D01*
X022425Y024768D02*
X021085Y024768D01*
X021085Y024817D02*
X022053Y024817D01*
X021947Y024865D02*
X021085Y024865D01*
X021048Y024914D02*
X021899Y024914D01*
X021854Y024962D02*
X021024Y024962D01*
X021072Y025011D02*
X021834Y025011D01*
X021814Y025059D02*
X021085Y025059D01*
X021085Y025108D02*
X021805Y025108D01*
X021805Y025156D02*
X021468Y025156D01*
X021427Y025115D02*
X021535Y025223D01*
X021535Y025377D01*
X021497Y025415D01*
X021527Y025415D01*
X021635Y025523D01*
X021635Y025677D01*
X021562Y025750D01*
X021635Y025823D01*
X021635Y025977D01*
X021562Y026050D01*
X021635Y026123D01*
X021635Y026277D01*
X021527Y026385D01*
X021373Y026385D01*
X021265Y026277D01*
X021265Y026123D01*
X021338Y026050D01*
X021265Y025977D01*
X021265Y025823D01*
X021338Y025750D01*
X021265Y025677D01*
X021265Y025523D01*
X021303Y025485D01*
X021273Y025485D01*
X021165Y025377D01*
X021165Y025223D01*
X021273Y025115D01*
X021427Y025115D01*
X021516Y025205D02*
X021805Y025205D01*
X021819Y025253D02*
X021535Y025253D01*
X021535Y025302D02*
X021839Y025302D01*
X021862Y025350D02*
X021535Y025350D01*
X021513Y025399D02*
X021911Y025399D01*
X021966Y025447D02*
X021559Y025447D01*
X021607Y025496D02*
X022425Y025496D01*
X022425Y025544D02*
X021635Y025544D01*
X021635Y025593D02*
X022425Y025593D01*
X022425Y025641D02*
X021635Y025641D01*
X021622Y025690D02*
X022425Y025690D01*
X022425Y025738D02*
X021574Y025738D01*
X021598Y025787D02*
X022425Y025787D01*
X022425Y025835D02*
X022291Y025835D01*
X022371Y025884D02*
X022425Y025884D01*
X022420Y025932D02*
X022425Y025932D01*
X022009Y025835D02*
X021635Y025835D01*
X021635Y025884D02*
X021929Y025884D01*
X021880Y025932D02*
X021635Y025932D01*
X021631Y025981D02*
X021847Y025981D01*
X021827Y026029D02*
X021583Y026029D01*
X021589Y026078D02*
X021807Y026078D01*
X021805Y026126D02*
X021635Y026126D01*
X021635Y026175D02*
X021805Y026175D01*
X021807Y026223D02*
X021635Y026223D01*
X021635Y026272D02*
X021827Y026272D01*
X021847Y026320D02*
X021592Y026320D01*
X021543Y026369D02*
X021881Y026369D01*
X021929Y026417D02*
X021035Y026417D01*
X021035Y026373D02*
X020927Y026265D01*
X020773Y026265D01*
X020665Y026373D01*
X020665Y026527D01*
X020773Y026635D01*
X020927Y026635D01*
X021035Y026527D01*
X021035Y026373D01*
X021030Y026369D02*
X021357Y026369D01*
X021308Y026320D02*
X020982Y026320D01*
X020933Y026272D02*
X021265Y026272D01*
X021265Y026223D02*
X020435Y026223D01*
X020427Y026215D02*
X020535Y026323D01*
X020535Y026477D01*
X020427Y026585D01*
X020273Y026585D01*
X020165Y026477D01*
X020165Y026323D01*
X020273Y026215D01*
X020427Y026215D01*
X020483Y026272D02*
X020767Y026272D01*
X020718Y026320D02*
X020532Y026320D01*
X020535Y026369D02*
X020670Y026369D01*
X020665Y026417D02*
X020535Y026417D01*
X020535Y026466D02*
X020665Y026466D01*
X020665Y026514D02*
X020498Y026514D01*
X020449Y026563D02*
X020701Y026563D01*
X020749Y026611D02*
X020051Y026611D01*
X020099Y026563D02*
X020251Y026563D01*
X020202Y026514D02*
X020135Y026514D01*
X020135Y026466D02*
X020165Y026466D01*
X020165Y026417D02*
X020135Y026417D01*
X020130Y026369D02*
X020165Y026369D01*
X020168Y026320D02*
X020082Y026320D01*
X020033Y026272D02*
X020217Y026272D01*
X020265Y026223D02*
X019335Y026223D01*
X019327Y026215D02*
X019435Y026323D01*
X019435Y026477D01*
X019327Y026585D01*
X019173Y026585D01*
X019065Y026477D01*
X019065Y026323D01*
X019173Y026215D01*
X019327Y026215D01*
X019383Y026272D02*
X019867Y026272D01*
X019818Y026320D02*
X019432Y026320D01*
X019435Y026369D02*
X019770Y026369D01*
X019765Y026417D02*
X019435Y026417D01*
X019435Y026466D02*
X019765Y026466D01*
X019765Y026514D02*
X019398Y026514D01*
X019349Y026563D02*
X019801Y026563D01*
X019900Y027100D02*
X019700Y027100D01*
X019580Y027242D02*
X018753Y027242D01*
X018802Y027290D02*
X019665Y027290D01*
X019665Y027339D02*
X018835Y027339D01*
X018835Y027387D02*
X019665Y027387D01*
X019674Y027436D02*
X018835Y027436D01*
X018828Y027484D02*
X018954Y027484D01*
X018973Y027465D02*
X019127Y027465D01*
X019235Y027573D01*
X019235Y027727D01*
X019127Y027835D01*
X018973Y027835D01*
X018865Y027727D01*
X018865Y027573D01*
X018973Y027465D01*
X018906Y027533D02*
X018779Y027533D01*
X018731Y027581D02*
X018865Y027581D01*
X018865Y027630D02*
X015875Y027630D01*
X015875Y027678D02*
X018865Y027678D01*
X018865Y027727D02*
X015875Y027727D01*
X015875Y027775D02*
X016023Y027775D01*
X016125Y027775D02*
X016175Y027775D01*
X016175Y027755D02*
X016189Y027755D01*
X016265Y027770D01*
X016337Y027800D01*
X016402Y027843D01*
X016457Y027898D01*
X016500Y027963D01*
X016530Y028035D01*
X016545Y028111D01*
X016545Y028125D01*
X016175Y028125D01*
X016175Y027755D01*
X016175Y027824D02*
X016125Y027824D01*
X016125Y027872D02*
X016175Y027872D01*
X016175Y027921D02*
X016125Y027921D01*
X016125Y027969D02*
X016175Y027969D01*
X016175Y028018D02*
X016125Y028018D01*
X016125Y028066D02*
X016175Y028066D01*
X016175Y028115D02*
X016125Y028115D01*
X016175Y028163D02*
X017501Y028163D01*
X017465Y028127D02*
X017465Y027973D01*
X017573Y027865D01*
X017727Y027865D01*
X017835Y027973D01*
X017835Y028127D01*
X017727Y028235D01*
X017573Y028235D01*
X017465Y028127D01*
X017465Y028115D02*
X016545Y028115D01*
X016536Y028066D02*
X017465Y028066D01*
X017465Y028018D02*
X016523Y028018D01*
X016503Y027969D02*
X017469Y027969D01*
X017518Y027921D02*
X016472Y027921D01*
X016431Y027872D02*
X017566Y027872D01*
X017734Y027872D02*
X019700Y027872D01*
X019700Y027824D02*
X019138Y027824D01*
X019187Y027775D02*
X019700Y027775D01*
X019700Y027727D02*
X019235Y027727D01*
X019235Y027678D02*
X019700Y027678D01*
X019700Y027630D02*
X019235Y027630D01*
X019235Y027581D02*
X019700Y027581D01*
X019700Y027533D02*
X019194Y027533D01*
X019146Y027484D02*
X019700Y027484D01*
X019800Y027450D02*
X019800Y032000D01*
X019850Y032050D01*
X019850Y032450D01*
X019550Y032750D01*
X019550Y034550D01*
X019450Y034650D01*
X019322Y034517D02*
X019035Y034517D01*
X019035Y034527D02*
X018927Y034635D01*
X018773Y034635D01*
X018665Y034527D01*
X018665Y034373D01*
X018773Y034265D01*
X018927Y034265D01*
X019035Y034373D01*
X019035Y034527D01*
X018997Y034565D02*
X019273Y034565D01*
X019265Y034614D02*
X018948Y034614D01*
X019035Y034468D02*
X019370Y034468D01*
X019450Y034420D02*
X019035Y034420D01*
X019033Y034371D02*
X019450Y034371D01*
X019450Y034323D02*
X018984Y034323D01*
X018936Y034274D02*
X019450Y034274D01*
X019450Y034226D02*
X017235Y034226D01*
X017235Y034223D02*
X017127Y034115D01*
X016973Y034115D01*
X016865Y034223D01*
X016865Y034377D01*
X016973Y034485D01*
X017127Y034485D01*
X017235Y034377D01*
X017235Y034223D01*
X017235Y034274D02*
X018764Y034274D01*
X018716Y034323D02*
X017235Y034323D01*
X017235Y034371D02*
X018667Y034371D01*
X018665Y034420D02*
X017192Y034420D01*
X017144Y034468D02*
X018665Y034468D01*
X018665Y034517D02*
X016340Y034517D01*
X016413Y034468D02*
X016956Y034468D01*
X016908Y034420D02*
X016462Y034420D01*
X016504Y034371D02*
X016865Y034371D01*
X016865Y034323D02*
X016524Y034323D01*
X016544Y034274D02*
X016865Y034274D01*
X016865Y034226D02*
X016561Y034226D01*
X016561Y034177D02*
X016911Y034177D01*
X016960Y034129D02*
X016561Y034129D01*
X016561Y034080D02*
X019450Y034080D01*
X019450Y034032D02*
X016546Y034032D01*
X016526Y033983D02*
X019450Y033983D01*
X019450Y033935D02*
X018877Y033935D01*
X018723Y033935D01*
X018615Y033827D01*
X018615Y033673D01*
X018723Y033565D01*
X018877Y033565D01*
X018985Y033673D01*
X018985Y033827D01*
X018877Y033935D01*
X018926Y033886D02*
X019450Y033886D01*
X019450Y033838D02*
X018974Y033838D01*
X018985Y033789D02*
X019450Y033789D01*
X019450Y033741D02*
X018985Y033741D01*
X018985Y033692D02*
X019450Y033692D01*
X019450Y033644D02*
X018955Y033644D01*
X018907Y033595D02*
X019450Y033595D01*
X019450Y033547D02*
X015875Y033547D01*
X015875Y033595D02*
X018693Y033595D01*
X018645Y033644D02*
X015875Y033644D01*
X015875Y033692D02*
X018615Y033692D01*
X018615Y033741D02*
X016236Y033741D01*
X016353Y033789D02*
X018615Y033789D01*
X018626Y033838D02*
X016419Y033838D01*
X016468Y033886D02*
X018674Y033886D01*
X018723Y033935D02*
X016506Y033935D01*
X016328Y033450D02*
X019450Y033450D01*
X019450Y033498D02*
X015875Y033498D01*
X015875Y033450D02*
X015972Y033450D01*
X015913Y033401D02*
X015875Y033401D01*
X015875Y033741D02*
X016064Y033741D01*
X015947Y033789D02*
X015875Y033789D01*
X015875Y033838D02*
X015881Y033838D01*
X015875Y034468D02*
X015887Y034468D01*
X015875Y034517D02*
X015960Y034517D01*
X015875Y034565D02*
X018703Y034565D01*
X018752Y034614D02*
X015875Y034614D01*
X015875Y034662D02*
X019265Y034662D01*
X019265Y034711D02*
X015875Y034711D01*
X015875Y034759D02*
X019297Y034759D01*
X019346Y034808D02*
X015875Y034808D01*
X015875Y034856D02*
X019465Y034856D01*
X019465Y034905D02*
X018366Y034905D01*
X018327Y034865D02*
X018435Y034973D01*
X018435Y035127D01*
X018327Y035235D01*
X018173Y035235D01*
X018065Y035127D01*
X018065Y034973D01*
X018173Y034865D01*
X018327Y034865D01*
X018415Y034953D02*
X019491Y034953D01*
X019540Y035002D02*
X018435Y035002D01*
X018435Y035050D02*
X019665Y035050D01*
X019665Y035099D02*
X018435Y035099D01*
X018415Y035147D02*
X019685Y035147D01*
X019734Y035196D02*
X018366Y035196D01*
X018134Y035196D02*
X015875Y035196D01*
X015875Y035244D02*
X022425Y035244D01*
X022425Y035196D02*
X019966Y035196D01*
X020015Y035147D02*
X022425Y035147D01*
X022425Y035099D02*
X020035Y035099D01*
X020035Y035050D02*
X022425Y035050D01*
X022425Y035002D02*
X020035Y035002D01*
X020015Y034953D02*
X022425Y034953D01*
X022425Y034905D02*
X019966Y034905D01*
X019835Y034856D02*
X022425Y034856D01*
X022425Y034808D02*
X021454Y034808D01*
X021427Y034835D02*
X021535Y034727D01*
X021535Y034573D01*
X021427Y034465D01*
X021273Y034465D01*
X021200Y034538D01*
X021127Y034465D01*
X020973Y034465D01*
X020865Y034573D01*
X020865Y034727D01*
X020973Y034835D01*
X021127Y034835D01*
X021200Y034762D01*
X021273Y034835D01*
X021427Y034835D01*
X021503Y034759D02*
X022425Y034759D01*
X022425Y034711D02*
X021535Y034711D01*
X021535Y034662D02*
X022425Y034662D01*
X022425Y034614D02*
X021535Y034614D01*
X021527Y034565D02*
X022425Y034565D01*
X022425Y034517D02*
X022340Y034517D01*
X022413Y034468D02*
X022425Y034468D01*
X021960Y034517D02*
X021478Y034517D01*
X021430Y034468D02*
X021887Y034468D01*
X021838Y034420D02*
X019650Y034420D01*
X019650Y034468D02*
X020970Y034468D01*
X020922Y034517D02*
X019650Y034517D01*
X019650Y034565D02*
X020873Y034565D01*
X020865Y034614D02*
X019635Y034614D01*
X019635Y034662D02*
X020865Y034662D01*
X020865Y034711D02*
X019772Y034711D01*
X019821Y034759D02*
X020897Y034759D01*
X020946Y034808D02*
X019835Y034808D01*
X019650Y034371D02*
X021409Y034371D01*
X021423Y034385D02*
X021315Y034277D01*
X021315Y034123D01*
X021423Y034015D01*
X021577Y034015D01*
X021685Y034123D01*
X021685Y034277D01*
X021577Y034385D01*
X021423Y034385D01*
X021361Y034323D02*
X019650Y034323D01*
X019650Y034274D02*
X021315Y034274D01*
X021315Y034226D02*
X019650Y034226D01*
X019650Y034177D02*
X021315Y034177D01*
X021315Y034129D02*
X019650Y034129D01*
X019650Y034080D02*
X021358Y034080D01*
X021407Y034032D02*
X019650Y034032D01*
X019650Y033983D02*
X021774Y033983D01*
X021794Y033935D02*
X019650Y033935D01*
X019650Y033886D02*
X021832Y033886D01*
X021881Y033838D02*
X019650Y033838D01*
X019650Y033789D02*
X021947Y033789D01*
X022064Y033741D02*
X019650Y033741D01*
X019650Y033692D02*
X022425Y033692D01*
X022425Y033644D02*
X019650Y033644D01*
X019650Y033595D02*
X022425Y033595D01*
X022425Y033547D02*
X019650Y033547D01*
X019650Y033498D02*
X022425Y033498D01*
X022425Y033450D02*
X022328Y033450D01*
X022387Y033401D02*
X022425Y033401D01*
X022425Y033741D02*
X022236Y033741D01*
X022353Y033789D02*
X022425Y033789D01*
X022419Y033838D02*
X022425Y033838D01*
X021972Y033450D02*
X019650Y033450D01*
X019650Y033401D02*
X021913Y033401D01*
X021865Y033353D02*
X019650Y033353D01*
X019650Y033304D02*
X021840Y033304D01*
X021820Y033256D02*
X019650Y033256D01*
X019650Y033207D02*
X021805Y033207D01*
X021805Y033159D02*
X019650Y033159D01*
X019650Y033110D02*
X021769Y033110D01*
X021720Y033062D02*
X019650Y033062D01*
X019650Y033013D02*
X021672Y033013D01*
X021623Y032965D02*
X019650Y032965D01*
X019650Y032916D02*
X021575Y032916D01*
X021526Y032868D02*
X019650Y032868D01*
X019650Y032819D02*
X021157Y032819D01*
X021109Y032771D02*
X019671Y032771D01*
X019719Y032722D02*
X021065Y032722D01*
X020912Y032674D02*
X019768Y032674D01*
X019816Y032625D02*
X020863Y032625D01*
X020815Y032577D02*
X019865Y032577D01*
X019913Y032528D02*
X020815Y032528D01*
X020815Y032480D02*
X019950Y032480D01*
X019950Y032431D02*
X020815Y032431D01*
X020856Y032383D02*
X020229Y032383D01*
X020227Y032385D02*
X020073Y032385D01*
X019965Y032277D01*
X019965Y032123D01*
X020073Y032015D01*
X020227Y032015D01*
X020335Y032123D01*
X020335Y032277D01*
X020227Y032385D01*
X020278Y032334D02*
X020904Y032334D01*
X021096Y032334D02*
X021350Y032334D01*
X021350Y032286D02*
X020326Y032286D01*
X020335Y032237D02*
X021350Y032237D01*
X021350Y032189D02*
X020335Y032189D01*
X020335Y032140D02*
X021350Y032140D01*
X021350Y032092D02*
X020303Y032092D01*
X020255Y032043D02*
X021350Y032043D01*
X021350Y031995D02*
X019936Y031995D01*
X019950Y032043D02*
X020045Y032043D01*
X019997Y032092D02*
X019950Y032092D01*
X019950Y032140D02*
X019965Y032140D01*
X019965Y032189D02*
X019950Y032189D01*
X019950Y032237D02*
X019965Y032237D01*
X019974Y032286D02*
X019950Y032286D01*
X019950Y032334D02*
X020022Y032334D01*
X020071Y032383D02*
X019950Y032383D01*
X019750Y032383D02*
X018994Y032383D01*
X018977Y032365D02*
X019085Y032473D01*
X019085Y032627D01*
X018977Y032735D01*
X018823Y032735D01*
X018715Y032627D01*
X018715Y032473D01*
X018823Y032365D01*
X018977Y032365D01*
X019043Y032431D02*
X019727Y032431D01*
X019679Y032480D02*
X019085Y032480D01*
X019085Y032528D02*
X019630Y032528D01*
X019582Y032577D02*
X019085Y032577D01*
X019085Y032625D02*
X019533Y032625D01*
X019485Y032674D02*
X019038Y032674D01*
X018990Y032722D02*
X019450Y032722D01*
X019450Y032771D02*
X015875Y032771D01*
X015875Y032819D02*
X016047Y032819D01*
X015945Y032868D02*
X015875Y032868D01*
X015875Y032916D02*
X015896Y032916D01*
X015875Y032722D02*
X018810Y032722D01*
X018762Y032674D02*
X015875Y032674D01*
X015875Y032625D02*
X018715Y032625D01*
X018715Y032577D02*
X015875Y032577D01*
X015875Y032528D02*
X018715Y032528D01*
X018715Y032480D02*
X016256Y032480D01*
X016357Y032431D02*
X018757Y032431D01*
X018806Y032383D02*
X016405Y032383D01*
X016447Y032334D02*
X019572Y032334D01*
X019524Y032286D02*
X016467Y032286D01*
X016487Y032237D02*
X019475Y032237D01*
X019465Y032189D02*
X017173Y032189D01*
X017127Y032235D02*
X016973Y032235D01*
X016865Y032127D01*
X016865Y031973D01*
X016973Y031865D01*
X017127Y031865D01*
X017235Y031973D01*
X017235Y032127D01*
X017127Y032235D01*
X017222Y032140D02*
X019465Y032140D01*
X019330Y032092D02*
X017235Y032092D01*
X017235Y032043D02*
X019281Y032043D01*
X019265Y031995D02*
X017235Y031995D01*
X017208Y031946D02*
X019265Y031946D01*
X019265Y031898D02*
X017159Y031898D01*
X016941Y031898D02*
X016385Y031898D01*
X016434Y031946D02*
X016892Y031946D01*
X016865Y031995D02*
X016459Y031995D01*
X016479Y032043D02*
X016865Y032043D01*
X016865Y032092D02*
X016495Y032092D01*
X016495Y032140D02*
X016878Y032140D01*
X016927Y032189D02*
X016495Y032189D01*
X016325Y031849D02*
X019289Y031849D01*
X019338Y031801D02*
X015875Y031801D01*
X015875Y031849D02*
X015975Y031849D01*
X015915Y031898D02*
X015875Y031898D01*
X015875Y031752D02*
X019700Y031752D01*
X019700Y031704D02*
X015875Y031704D01*
X015875Y031655D02*
X019700Y031655D01*
X019700Y031607D02*
X015875Y031607D01*
X015875Y031558D02*
X019700Y031558D01*
X019700Y031510D02*
X015875Y031510D01*
X015875Y031461D02*
X015999Y031461D01*
X015925Y031413D02*
X015875Y031413D01*
X015875Y031364D02*
X015876Y031364D01*
X015875Y030937D02*
X015955Y030858D01*
X016081Y030805D01*
X016219Y030805D01*
X016345Y030858D01*
X016280Y030831D02*
X017569Y030831D01*
X017573Y030835D02*
X017465Y030727D01*
X017465Y030573D01*
X017573Y030465D01*
X017727Y030465D01*
X017835Y030573D01*
X017835Y030727D01*
X017727Y030835D01*
X017573Y030835D01*
X017520Y030782D02*
X015875Y030782D01*
X015875Y030734D02*
X017472Y030734D01*
X017465Y030685D02*
X015875Y030685D01*
X015875Y030637D02*
X017465Y030637D01*
X017465Y030588D02*
X015875Y030588D01*
X015875Y030540D02*
X017499Y030540D01*
X017547Y030491D02*
X016228Y030491D01*
X016219Y030495D02*
X016081Y030495D01*
X015955Y030442D01*
X015955Y030443D02*
X015875Y030443D01*
X015875Y030491D02*
X016072Y030491D01*
X015955Y030442D02*
X015875Y030363D01*
X015875Y030937D01*
X015875Y030928D02*
X015885Y030928D01*
X015875Y030879D02*
X015933Y030879D01*
X015875Y030831D02*
X016020Y030831D01*
X016219Y030495D02*
X016345Y030442D01*
X016394Y030394D02*
X018732Y030394D01*
X018773Y030435D02*
X018665Y030327D01*
X018665Y030173D01*
X018773Y030065D01*
X018927Y030065D01*
X019035Y030173D01*
X019035Y030327D01*
X018927Y030435D01*
X018773Y030435D01*
X018684Y030346D02*
X016442Y030346D01*
X016463Y030297D02*
X018665Y030297D01*
X018665Y030249D02*
X016483Y030249D01*
X016495Y030200D02*
X018665Y030200D01*
X018687Y030152D02*
X016495Y030152D01*
X016495Y030103D02*
X018735Y030103D01*
X018965Y030103D02*
X019065Y030103D01*
X019065Y030127D02*
X019065Y029973D01*
X019173Y029865D01*
X019327Y029865D01*
X019435Y029973D01*
X019435Y030127D01*
X019327Y030235D01*
X019173Y030235D01*
X019065Y030127D01*
X019090Y030152D02*
X019013Y030152D01*
X019035Y030200D02*
X019138Y030200D01*
X019035Y030249D02*
X019700Y030249D01*
X019700Y030297D02*
X019035Y030297D01*
X019016Y030346D02*
X019700Y030346D01*
X019700Y030394D02*
X018968Y030394D01*
X019215Y030588D02*
X017835Y030588D01*
X017835Y030637D02*
X019215Y030637D01*
X019215Y030685D02*
X017835Y030685D01*
X017828Y030734D02*
X019222Y030734D01*
X019270Y030782D02*
X017780Y030782D01*
X017731Y030831D02*
X019319Y030831D01*
X019249Y030540D02*
X017801Y030540D01*
X017753Y030491D02*
X019297Y030491D01*
X019362Y030200D02*
X019700Y030200D01*
X019700Y030152D02*
X019410Y030152D01*
X019435Y030103D02*
X019700Y030103D01*
X019700Y030055D02*
X019435Y030055D01*
X019435Y030006D02*
X019700Y030006D01*
X019700Y029958D02*
X019419Y029958D01*
X019371Y029909D02*
X019700Y029909D01*
X019700Y029861D02*
X016348Y029861D01*
X016397Y029909D02*
X019129Y029909D01*
X019081Y029958D02*
X016444Y029958D01*
X016464Y030006D02*
X019065Y030006D01*
X019065Y030055D02*
X016484Y030055D01*
X016236Y029812D02*
X019700Y029812D01*
X019700Y029764D02*
X015875Y029764D01*
X015875Y029812D02*
X016064Y029812D01*
X015952Y029861D02*
X015875Y029861D01*
X015875Y029909D02*
X015903Y029909D01*
X015875Y029715D02*
X019700Y029715D01*
X019700Y029667D02*
X015875Y029667D01*
X015875Y029618D02*
X017356Y029618D01*
X017373Y029635D02*
X017265Y029527D01*
X017265Y029373D01*
X017373Y029265D01*
X017527Y029265D01*
X017635Y029373D01*
X017635Y029527D01*
X017527Y029635D01*
X017373Y029635D01*
X017308Y029570D02*
X015875Y029570D01*
X015875Y029521D02*
X017265Y029521D01*
X017265Y029473D02*
X016273Y029473D01*
X016364Y029424D02*
X017265Y029424D01*
X017265Y029376D02*
X016412Y029376D01*
X016450Y029327D02*
X017311Y029327D01*
X017360Y029279D02*
X016470Y029279D01*
X016490Y029230D02*
X019700Y029230D01*
X019700Y029182D02*
X016495Y029182D01*
X016495Y029133D02*
X019700Y029133D01*
X019700Y029085D02*
X016495Y029085D01*
X016476Y029036D02*
X019700Y029036D01*
X019700Y028988D02*
X016456Y028988D01*
X016427Y028939D02*
X019700Y028939D01*
X019700Y028891D02*
X016378Y028891D01*
X016308Y028842D02*
X019700Y028842D01*
X019700Y028794D02*
X015875Y028794D01*
X015875Y028842D02*
X015992Y028842D01*
X015922Y028891D02*
X015875Y028891D01*
X015875Y028745D02*
X019700Y028745D01*
X019700Y028697D02*
X019165Y028697D01*
X019127Y028735D02*
X019235Y028627D01*
X019235Y028473D01*
X019127Y028365D01*
X018973Y028365D01*
X018865Y028473D01*
X018865Y028627D01*
X018973Y028735D01*
X019127Y028735D01*
X019214Y028648D02*
X019700Y028648D01*
X019700Y028600D02*
X019235Y028600D01*
X019235Y028551D02*
X019700Y028551D01*
X019700Y028503D02*
X019235Y028503D01*
X019216Y028454D02*
X019700Y028454D01*
X019700Y028406D02*
X019167Y028406D01*
X018933Y028406D02*
X016453Y028406D01*
X016457Y028402D02*
X016402Y028457D01*
X016337Y028500D01*
X016265Y028530D01*
X016189Y028545D01*
X016175Y028545D01*
X016175Y028175D01*
X016545Y028175D01*
X016545Y028189D01*
X016530Y028265D01*
X016500Y028337D01*
X016457Y028402D01*
X016487Y028357D02*
X019700Y028357D01*
X019700Y028309D02*
X016512Y028309D01*
X016531Y028260D02*
X019700Y028260D01*
X019700Y028212D02*
X017750Y028212D01*
X017799Y028163D02*
X019700Y028163D01*
X019700Y028115D02*
X017835Y028115D01*
X017835Y028066D02*
X019700Y028066D01*
X019700Y028018D02*
X017835Y028018D01*
X017831Y027969D02*
X019700Y027969D01*
X019700Y027921D02*
X017782Y027921D01*
X017550Y028212D02*
X016540Y028212D01*
X016405Y028454D02*
X018884Y028454D01*
X018865Y028503D02*
X016331Y028503D01*
X016175Y028503D02*
X016125Y028503D01*
X016125Y028454D02*
X016175Y028454D01*
X016175Y028406D02*
X016125Y028406D01*
X016125Y028357D02*
X016175Y028357D01*
X016175Y028309D02*
X016125Y028309D01*
X016125Y028260D02*
X016175Y028260D01*
X016175Y028212D02*
X016125Y028212D01*
X015969Y028503D02*
X015875Y028503D01*
X015875Y028551D02*
X018865Y028551D01*
X018865Y028600D02*
X015875Y028600D01*
X015875Y028648D02*
X018886Y028648D01*
X018935Y028697D02*
X015875Y028697D01*
X015875Y028454D02*
X015895Y028454D01*
X015875Y027824D02*
X015928Y027824D01*
X015875Y027581D02*
X018569Y027581D01*
X018521Y027533D02*
X015875Y027533D01*
X015875Y027484D02*
X016055Y027484D01*
X015948Y027436D02*
X015875Y027436D01*
X015875Y027387D02*
X015899Y027387D01*
X016245Y027484D02*
X018472Y027484D01*
X018465Y027436D02*
X016352Y027436D01*
X016277Y027775D02*
X018913Y027775D01*
X018962Y027824D02*
X016372Y027824D01*
X015910Y026902D02*
X015875Y026902D01*
X015875Y026854D02*
X015964Y026854D01*
X015875Y026514D02*
X018652Y026514D01*
X018615Y026466D02*
X016290Y026466D01*
X016371Y026417D02*
X018615Y026417D01*
X018615Y026369D02*
X016419Y026369D01*
X016453Y026320D02*
X018618Y026320D01*
X018667Y026272D02*
X016473Y026272D01*
X016493Y026223D02*
X016961Y026223D01*
X016973Y026235D02*
X016865Y026127D01*
X016865Y026035D01*
X016773Y026035D01*
X016665Y025927D01*
X016665Y025773D01*
X016773Y025665D01*
X016927Y025665D01*
X017035Y025773D01*
X017035Y025865D01*
X017127Y025865D01*
X017235Y025973D01*
X017235Y026127D01*
X017127Y026235D01*
X016973Y026235D01*
X016913Y026175D02*
X016495Y026175D01*
X016495Y026126D02*
X016865Y026126D01*
X016865Y026078D02*
X016493Y026078D01*
X016473Y026029D02*
X016767Y026029D01*
X016719Y025981D02*
X016453Y025981D01*
X016420Y025932D02*
X016670Y025932D01*
X016665Y025884D02*
X016371Y025884D01*
X016291Y025835D02*
X016665Y025835D01*
X016665Y025787D02*
X015875Y025787D01*
X015875Y025835D02*
X016009Y025835D01*
X015929Y025884D02*
X015875Y025884D01*
X015875Y025932D02*
X015880Y025932D01*
X015875Y025738D02*
X016700Y025738D01*
X016749Y025690D02*
X015875Y025690D01*
X015875Y025641D02*
X021265Y025641D01*
X021265Y025593D02*
X015875Y025593D01*
X015875Y025544D02*
X021265Y025544D01*
X021293Y025496D02*
X017466Y025496D01*
X017515Y025447D02*
X021235Y025447D01*
X021187Y025399D02*
X017535Y025399D01*
X017535Y025350D02*
X021165Y025350D01*
X021165Y025302D02*
X017535Y025302D01*
X017234Y025205D02*
X016757Y025205D01*
X016543Y025205D02*
X016495Y025205D01*
X016481Y025253D02*
X017185Y025253D01*
X017165Y025302D02*
X016461Y025302D01*
X016438Y025350D02*
X017165Y025350D01*
X017165Y025399D02*
X016389Y025399D01*
X016334Y025447D02*
X017185Y025447D01*
X017234Y025496D02*
X015875Y025496D01*
X015875Y025447D02*
X015966Y025447D01*
X015911Y025399D02*
X015875Y025399D01*
X015875Y026369D02*
X015881Y026369D01*
X015875Y026417D02*
X015929Y026417D01*
X015875Y026466D02*
X016010Y026466D01*
X017139Y026223D02*
X018715Y026223D01*
X018885Y026223D02*
X019165Y026223D01*
X019117Y026272D02*
X018933Y026272D01*
X018982Y026320D02*
X019068Y026320D01*
X019065Y026369D02*
X018985Y026369D01*
X018985Y026417D02*
X019065Y026417D01*
X019065Y026466D02*
X018985Y026466D01*
X018948Y026514D02*
X019102Y026514D01*
X019151Y026563D02*
X018899Y026563D01*
X019021Y026660D02*
X022425Y026660D01*
X022425Y026708D02*
X019070Y026708D01*
X019900Y027100D02*
X021450Y028650D01*
X021450Y032650D01*
X021950Y033150D01*
X022150Y033150D01*
X021478Y032819D02*
X021343Y032819D01*
X021391Y032771D02*
X021429Y032771D01*
X021350Y032480D02*
X021341Y032480D01*
X021350Y032431D02*
X021185Y032431D01*
X021144Y032383D02*
X021350Y032383D01*
X021350Y031946D02*
X019900Y031946D01*
X019900Y031898D02*
X021350Y031898D01*
X021350Y031849D02*
X019900Y031849D01*
X019900Y031801D02*
X021350Y031801D01*
X021350Y031752D02*
X019900Y031752D01*
X019900Y031704D02*
X021350Y031704D01*
X021350Y031655D02*
X019900Y031655D01*
X019900Y031607D02*
X021350Y031607D01*
X021350Y031558D02*
X019900Y031558D01*
X019900Y031510D02*
X021350Y031510D01*
X021350Y031461D02*
X019900Y031461D01*
X019900Y031413D02*
X021350Y031413D01*
X021350Y031364D02*
X019900Y031364D01*
X019900Y031316D02*
X021350Y031316D01*
X021350Y031267D02*
X019900Y031267D01*
X019900Y031219D02*
X021350Y031219D01*
X021350Y031170D02*
X019900Y031170D01*
X019900Y031122D02*
X021350Y031122D01*
X021350Y031073D02*
X019900Y031073D01*
X019900Y031025D02*
X021350Y031025D01*
X021350Y030976D02*
X019900Y030976D01*
X019900Y030928D02*
X021350Y030928D01*
X021350Y030879D02*
X019900Y030879D01*
X019900Y030831D02*
X021350Y030831D01*
X021350Y030782D02*
X019900Y030782D01*
X019900Y030734D02*
X021350Y030734D01*
X021350Y030685D02*
X019900Y030685D01*
X019900Y030637D02*
X021350Y030637D01*
X021350Y030588D02*
X019900Y030588D01*
X019900Y030540D02*
X021350Y030540D01*
X021350Y030491D02*
X019900Y030491D01*
X019900Y030443D02*
X021350Y030443D01*
X021350Y030394D02*
X019900Y030394D01*
X019900Y030346D02*
X021350Y030346D01*
X021350Y030297D02*
X019900Y030297D01*
X019900Y030249D02*
X021350Y030249D01*
X021350Y030200D02*
X019900Y030200D01*
X019900Y030152D02*
X021350Y030152D01*
X021350Y030103D02*
X019900Y030103D01*
X019900Y030055D02*
X020193Y030055D01*
X020223Y030085D02*
X020115Y029977D01*
X020115Y029823D01*
X020223Y029715D01*
X019900Y029715D01*
X019900Y029667D02*
X021350Y029667D01*
X021350Y029715D02*
X020377Y029715D01*
X020485Y029823D01*
X020485Y029977D01*
X020377Y030085D01*
X020223Y030085D01*
X020144Y030006D02*
X019900Y030006D01*
X019900Y029958D02*
X020115Y029958D01*
X020115Y029909D02*
X019900Y029909D01*
X019900Y029861D02*
X020115Y029861D01*
X020126Y029812D02*
X019900Y029812D01*
X019900Y029764D02*
X020175Y029764D01*
X020223Y029715D02*
X020377Y029715D01*
X020425Y029764D02*
X021350Y029764D01*
X021350Y029812D02*
X020474Y029812D01*
X020485Y029861D02*
X021350Y029861D01*
X021350Y029909D02*
X020485Y029909D01*
X020485Y029958D02*
X021350Y029958D01*
X021350Y030006D02*
X020456Y030006D01*
X020407Y030055D02*
X021350Y030055D01*
X021750Y030055D02*
X021766Y030055D01*
X021757Y030103D02*
X021750Y030103D01*
X021750Y030006D02*
X021782Y030006D01*
X021804Y029958D02*
X021750Y029958D01*
X021750Y029909D02*
X021836Y029909D01*
X021881Y029861D02*
X021750Y029861D01*
X021750Y029812D02*
X021945Y029812D01*
X022232Y029764D02*
X022425Y029764D01*
X022425Y029812D02*
X022355Y029812D01*
X022419Y029861D02*
X022425Y029861D01*
X022425Y029424D02*
X022364Y029424D01*
X022412Y029376D02*
X022425Y029376D01*
X022425Y028454D02*
X022317Y028454D01*
X022382Y028406D02*
X022425Y028406D01*
X022408Y027921D02*
X022425Y027921D01*
X022425Y027872D02*
X022360Y027872D01*
X022425Y027824D02*
X022263Y027824D01*
X022245Y027484D02*
X022425Y027484D01*
X022425Y027436D02*
X022352Y027436D01*
X022401Y027387D02*
X022425Y027387D01*
X022425Y026902D02*
X022390Y026902D01*
X022425Y026854D02*
X022336Y026854D01*
X022219Y026805D02*
X022081Y026805D01*
X022010Y026466D02*
X021035Y026466D01*
X021035Y026514D02*
X022425Y026514D01*
X022425Y026466D02*
X022290Y026466D01*
X022371Y026417D02*
X022425Y026417D01*
X022419Y026369D02*
X022425Y026369D01*
X022425Y026563D02*
X020999Y026563D01*
X020951Y026611D02*
X022425Y026611D01*
X022425Y025447D02*
X022334Y025447D01*
X022389Y025399D02*
X022425Y025399D01*
X022401Y024914D02*
X022425Y024914D01*
X022425Y024865D02*
X022353Y024865D01*
X022425Y024817D02*
X022246Y024817D01*
X022425Y024574D02*
X021085Y024574D01*
X021085Y024526D02*
X022425Y024526D01*
X022425Y024477D02*
X022262Y024477D01*
X022359Y024429D02*
X022425Y024429D01*
X022425Y024380D02*
X022408Y024380D01*
X022038Y024477D02*
X021085Y024477D01*
X021085Y024429D02*
X021941Y024429D01*
X021892Y024380D02*
X021042Y024380D01*
X021030Y024332D02*
X021852Y024332D01*
X021832Y024283D02*
X021079Y024283D01*
X021085Y024235D02*
X021812Y024235D01*
X021805Y024186D02*
X021085Y024186D01*
X021085Y024138D02*
X021805Y024138D01*
X021805Y024089D02*
X021051Y024089D01*
X021002Y024041D02*
X021822Y024041D01*
X021842Y023992D02*
X018033Y023992D01*
X017985Y023944D02*
X021869Y023944D01*
X021917Y023895D02*
X017936Y023895D01*
X017888Y023847D02*
X021981Y023847D01*
X022319Y023847D02*
X022425Y023847D01*
X022425Y023895D02*
X022383Y023895D01*
X022425Y023798D02*
X017839Y023798D01*
X017791Y023750D02*
X022425Y023750D01*
X022425Y023701D02*
X017742Y023701D01*
X017694Y023653D02*
X022425Y023653D01*
X022425Y023604D02*
X017645Y023604D01*
X017597Y023556D02*
X022425Y023556D01*
X022425Y023507D02*
X017548Y023507D01*
X017500Y023459D02*
X021993Y023459D01*
X021922Y023410D02*
X017451Y023410D01*
X017403Y023362D02*
X020400Y023362D01*
X020423Y023385D02*
X020315Y023277D01*
X020315Y023123D01*
X020423Y023015D01*
X020577Y023015D01*
X020685Y023123D01*
X020685Y023277D01*
X020577Y023385D01*
X020423Y023385D01*
X020351Y023313D02*
X017354Y023313D01*
X017306Y023265D02*
X017753Y023265D01*
X017704Y023216D02*
X017257Y023216D01*
X017235Y023168D02*
X017665Y023168D01*
X017665Y023119D02*
X017235Y023119D01*
X017232Y023071D02*
X017665Y023071D01*
X017666Y023022D02*
X017184Y023022D01*
X017135Y022974D02*
X017715Y022974D01*
X017957Y022731D02*
X016931Y022731D01*
X016979Y022683D02*
X018206Y022683D01*
X018165Y022731D02*
X018143Y022731D01*
X018254Y022634D02*
X017028Y022634D01*
X017035Y022586D02*
X018615Y022586D01*
X018615Y022634D02*
X018446Y022634D01*
X018494Y022683D02*
X018615Y022683D01*
X018615Y022731D02*
X018535Y022731D01*
X018535Y022780D02*
X018609Y022780D01*
X018565Y022828D02*
X018535Y022828D01*
X018535Y022877D02*
X018565Y022877D01*
X018565Y022925D02*
X018487Y022925D01*
X018438Y022974D02*
X018565Y022974D01*
X018610Y023022D02*
X018190Y023022D01*
X018235Y022974D02*
X018262Y022974D01*
X018141Y023071D02*
X018659Y023071D01*
X018841Y023071D02*
X018959Y023071D01*
X018910Y023022D02*
X018890Y023022D01*
X018891Y022780D02*
X018909Y022780D01*
X018885Y022731D02*
X018957Y022731D01*
X018885Y022683D02*
X019065Y022683D01*
X019065Y022634D02*
X018885Y022634D01*
X018885Y022586D02*
X019065Y022586D01*
X019101Y022537D02*
X018885Y022537D01*
X018885Y022489D02*
X019150Y022489D01*
X019350Y022489D02*
X022066Y022489D01*
X021952Y022440D02*
X018885Y022440D01*
X018885Y022392D02*
X021904Y022392D01*
X021857Y022343D02*
X018885Y022343D01*
X018896Y022295D02*
X021836Y022295D01*
X021816Y022246D02*
X018945Y022246D01*
X018993Y022198D02*
X021805Y022198D01*
X021805Y022149D02*
X019042Y022149D01*
X019090Y022101D02*
X021805Y022101D01*
X021817Y022052D02*
X019139Y022052D01*
X019187Y022004D02*
X021837Y022004D01*
X021857Y021955D02*
X019236Y021955D01*
X019284Y021907D02*
X021906Y021907D01*
X021954Y021858D02*
X019333Y021858D01*
X019381Y021810D02*
X022070Y021810D01*
X022230Y021810D02*
X022425Y021810D01*
X022425Y021858D02*
X022346Y021858D01*
X022394Y021907D02*
X022425Y021907D01*
X022425Y021761D02*
X021351Y021761D01*
X021399Y021713D02*
X022425Y021713D01*
X022425Y021664D02*
X021435Y021664D01*
X021435Y021616D02*
X022425Y021616D01*
X022425Y021567D02*
X021435Y021567D01*
X021430Y021519D02*
X022425Y021519D01*
X022425Y021470D02*
X022279Y021470D01*
X022366Y021422D02*
X022425Y021422D01*
X022425Y021373D02*
X022415Y021373D01*
X022021Y021470D02*
X021382Y021470D01*
X021333Y021422D02*
X021934Y021422D01*
X021885Y021373D02*
X016415Y021373D01*
X016451Y021325D02*
X021849Y021325D01*
X021829Y021276D02*
X016471Y021276D01*
X016491Y021228D02*
X021809Y021228D01*
X021805Y021179D02*
X016495Y021179D01*
X016495Y021131D02*
X021805Y021131D01*
X021805Y021082D02*
X016495Y021082D01*
X016475Y021034D02*
X021825Y021034D01*
X021845Y020985D02*
X016455Y020985D01*
X016424Y020937D02*
X021876Y020937D01*
X021924Y020888D02*
X016376Y020888D01*
X016302Y020840D02*
X021998Y020840D01*
X022302Y020840D02*
X022425Y020840D01*
X022425Y020888D02*
X022376Y020888D01*
X022424Y020937D02*
X022425Y020937D01*
X022425Y020403D02*
X022385Y020403D01*
X022406Y019918D02*
X022425Y019918D01*
X022425Y019870D02*
X022357Y019870D01*
X022425Y019821D02*
X022257Y019821D01*
X022425Y019773D02*
X017589Y019773D01*
X017635Y019724D02*
X022425Y019724D01*
X022425Y019676D02*
X017635Y019676D01*
X017635Y019627D02*
X022425Y019627D01*
X022425Y019579D02*
X017635Y019579D01*
X017592Y019530D02*
X022425Y019530D01*
X022425Y019482D02*
X022251Y019482D01*
X022355Y019433D02*
X022425Y019433D01*
X022425Y019385D02*
X022403Y019385D01*
X022049Y019482D02*
X017543Y019482D01*
X017541Y019821D02*
X022043Y019821D01*
X022387Y018900D02*
X022425Y018900D01*
X022425Y018851D02*
X022330Y018851D01*
X021167Y021422D02*
X016366Y021422D01*
X016279Y021470D02*
X019339Y021470D01*
X019430Y021761D02*
X021149Y021761D01*
X021936Y022877D02*
X020235Y022877D01*
X020235Y022925D02*
X021887Y022925D01*
X021850Y022974D02*
X020235Y022974D01*
X020235Y022977D02*
X020127Y023085D01*
X019973Y023085D01*
X019865Y022977D01*
X019865Y022823D01*
X019973Y022715D01*
X020127Y022715D01*
X020235Y022823D01*
X020235Y022977D01*
X020190Y023022D02*
X020416Y023022D01*
X020368Y023071D02*
X020141Y023071D01*
X019959Y023071D02*
X019141Y023071D01*
X019190Y023022D02*
X019360Y023022D01*
X019312Y022974D02*
X019235Y022974D01*
X019235Y022925D02*
X019265Y022925D01*
X019265Y022877D02*
X019235Y022877D01*
X019435Y022634D02*
X022425Y022634D01*
X022425Y022586D02*
X019435Y022586D01*
X019399Y022537D02*
X022425Y022537D01*
X022425Y022489D02*
X022234Y022489D01*
X022348Y022440D02*
X022425Y022440D01*
X022425Y022392D02*
X022396Y022392D01*
X022425Y022683D02*
X019544Y022683D01*
X019593Y022731D02*
X019957Y022731D01*
X019909Y022780D02*
X019635Y022780D01*
X019635Y022828D02*
X019865Y022828D01*
X019865Y022877D02*
X019635Y022877D01*
X019635Y022925D02*
X019865Y022925D01*
X019865Y022974D02*
X019588Y022974D01*
X019540Y023022D02*
X019910Y023022D01*
X020191Y022780D02*
X022425Y022780D01*
X022425Y022828D02*
X022274Y022828D01*
X022364Y022877D02*
X022425Y022877D01*
X022425Y022925D02*
X022413Y022925D01*
X022425Y022731D02*
X020143Y022731D01*
X020235Y022828D02*
X022026Y022828D01*
X021830Y023022D02*
X020584Y023022D01*
X020632Y023071D02*
X021809Y023071D01*
X021805Y023119D02*
X020681Y023119D01*
X020685Y023168D02*
X021805Y023168D01*
X021805Y023216D02*
X020685Y023216D01*
X020685Y023265D02*
X021824Y023265D01*
X021844Y023313D02*
X020649Y023313D01*
X020600Y023362D02*
X021874Y023362D01*
X022307Y023459D02*
X022425Y023459D01*
X022425Y023410D02*
X022378Y023410D01*
X021232Y025156D02*
X021085Y025156D01*
X021057Y025205D02*
X021184Y025205D01*
X021165Y025253D02*
X021009Y025253D01*
X021278Y025690D02*
X016951Y025690D01*
X017000Y025738D02*
X021326Y025738D01*
X021302Y025787D02*
X017035Y025787D01*
X017035Y025835D02*
X021265Y025835D01*
X021265Y025884D02*
X017145Y025884D01*
X017194Y025932D02*
X021265Y025932D01*
X021269Y025981D02*
X017235Y025981D01*
X017235Y026029D02*
X021317Y026029D01*
X021311Y026078D02*
X017235Y026078D01*
X017235Y026126D02*
X021265Y026126D01*
X021265Y026175D02*
X017187Y026175D01*
X017970Y024671D02*
X020767Y024671D01*
X020761Y024623D02*
X018019Y024623D01*
X018067Y024574D02*
X020715Y024574D01*
X020770Y024332D02*
X017485Y024332D01*
X017485Y024380D02*
X017979Y024380D01*
X017930Y024429D02*
X017485Y024429D01*
X017485Y024477D02*
X017882Y024477D01*
X018042Y024283D02*
X017479Y024283D01*
X017527Y024235D02*
X017993Y024235D01*
X017945Y024186D02*
X017576Y024186D01*
X017585Y024138D02*
X017896Y024138D01*
X017848Y024089D02*
X017585Y024089D01*
X017585Y024041D02*
X017799Y024041D01*
X017751Y023992D02*
X017554Y023992D01*
X017505Y023944D02*
X017702Y023944D01*
X018082Y024041D02*
X020798Y024041D01*
X020749Y024089D02*
X018130Y024089D01*
X018100Y024200D02*
X017050Y023150D01*
X017035Y022537D02*
X018615Y022537D01*
X018615Y022489D02*
X017035Y022489D01*
X017002Y022440D02*
X018615Y022440D01*
X018615Y022392D02*
X016953Y022392D01*
X017947Y023265D02*
X020315Y023265D01*
X020315Y023216D02*
X017996Y023216D01*
X018035Y023168D02*
X020315Y023168D01*
X020319Y023119D02*
X018035Y023119D01*
X018100Y024200D02*
X020900Y024200D01*
X020046Y027387D02*
X020035Y027387D01*
X020026Y027436D02*
X020094Y027436D01*
X020143Y027484D02*
X019978Y027484D01*
X019929Y027533D02*
X020191Y027533D01*
X020240Y027581D02*
X019900Y027581D01*
X019900Y027630D02*
X020288Y027630D01*
X020337Y027678D02*
X019900Y027678D01*
X019900Y027727D02*
X020385Y027727D01*
X020434Y027775D02*
X019900Y027775D01*
X019900Y027824D02*
X020482Y027824D01*
X020531Y027872D02*
X019900Y027872D01*
X019900Y027921D02*
X020579Y027921D01*
X020628Y027969D02*
X019900Y027969D01*
X019900Y028018D02*
X020676Y028018D01*
X020725Y028066D02*
X019900Y028066D01*
X019900Y028115D02*
X020773Y028115D01*
X020822Y028163D02*
X019900Y028163D01*
X019900Y028212D02*
X020870Y028212D01*
X020919Y028260D02*
X019900Y028260D01*
X019900Y028309D02*
X020130Y028309D01*
X020173Y028265D02*
X020327Y028265D01*
X020435Y028373D01*
X020435Y028527D01*
X020327Y028635D01*
X020173Y028635D01*
X020065Y028527D01*
X020065Y028373D01*
X020173Y028265D01*
X020081Y028357D02*
X019900Y028357D01*
X019900Y028406D02*
X020065Y028406D01*
X020065Y028454D02*
X019900Y028454D01*
X019900Y028503D02*
X020065Y028503D01*
X020089Y028551D02*
X019900Y028551D01*
X019900Y028600D02*
X020138Y028600D01*
X020362Y028600D02*
X021258Y028600D01*
X021307Y028648D02*
X019900Y028648D01*
X019900Y028697D02*
X021350Y028697D01*
X021350Y028745D02*
X019900Y028745D01*
X019900Y028794D02*
X021350Y028794D01*
X021350Y028842D02*
X019900Y028842D01*
X019900Y028891D02*
X021350Y028891D01*
X021350Y028939D02*
X019900Y028939D01*
X019900Y028988D02*
X021350Y028988D01*
X021350Y029036D02*
X019900Y029036D01*
X019900Y029085D02*
X021350Y029085D01*
X021350Y029133D02*
X019900Y029133D01*
X019900Y029182D02*
X021350Y029182D01*
X021350Y029230D02*
X019900Y029230D01*
X019900Y029279D02*
X021350Y029279D01*
X021350Y029327D02*
X019900Y029327D01*
X019900Y029376D02*
X021350Y029376D01*
X021350Y029424D02*
X019900Y029424D01*
X019900Y029473D02*
X021350Y029473D01*
X021350Y029521D02*
X019900Y029521D01*
X019900Y029570D02*
X021350Y029570D01*
X021350Y029618D02*
X019900Y029618D01*
X019700Y029618D02*
X017544Y029618D01*
X017592Y029570D02*
X019700Y029570D01*
X019700Y029521D02*
X017635Y029521D01*
X017635Y029473D02*
X019700Y029473D01*
X019700Y029424D02*
X017635Y029424D01*
X017635Y029376D02*
X019700Y029376D01*
X019700Y029327D02*
X017589Y029327D01*
X017540Y029279D02*
X019700Y029279D01*
X020411Y028551D02*
X021210Y028551D01*
X021161Y028503D02*
X020435Y028503D01*
X020435Y028454D02*
X021113Y028454D01*
X021064Y028406D02*
X020435Y028406D01*
X020419Y028357D02*
X021016Y028357D01*
X020967Y028309D02*
X020370Y028309D01*
X019800Y027450D02*
X019850Y027400D01*
X019850Y027350D01*
X019700Y030928D02*
X016415Y030928D01*
X016451Y030976D02*
X019700Y030976D01*
X019700Y031025D02*
X016471Y031025D01*
X016492Y031073D02*
X019700Y031073D01*
X019700Y031122D02*
X016495Y031122D01*
X016495Y031170D02*
X019700Y031170D01*
X019700Y031219D02*
X016495Y031219D01*
X016475Y031267D02*
X019700Y031267D01*
X019700Y031316D02*
X016455Y031316D01*
X016424Y031364D02*
X019700Y031364D01*
X019700Y031413D02*
X016375Y031413D01*
X016301Y031461D02*
X019700Y031461D01*
X019700Y031801D02*
X019562Y031801D01*
X019611Y031849D02*
X019700Y031849D01*
X019700Y031898D02*
X019635Y031898D01*
X019635Y031946D02*
X019700Y031946D01*
X019728Y032334D02*
X019750Y032334D01*
X019450Y032819D02*
X016253Y032819D01*
X016355Y032868D02*
X017371Y032868D01*
X017373Y032865D02*
X017527Y032865D01*
X017635Y032973D01*
X017635Y033127D01*
X017527Y033235D01*
X017373Y033235D01*
X017265Y033127D01*
X017265Y032973D01*
X017373Y032865D01*
X017322Y032916D02*
X016404Y032916D01*
X016447Y032965D02*
X017274Y032965D01*
X017265Y033013D02*
X016467Y033013D01*
X016487Y033062D02*
X017265Y033062D01*
X017265Y033110D02*
X016495Y033110D01*
X016495Y033159D02*
X017297Y033159D01*
X017345Y033207D02*
X016495Y033207D01*
X016480Y033256D02*
X018644Y033256D01*
X018615Y033227D02*
X018615Y033073D01*
X018723Y032965D01*
X018877Y032965D01*
X018985Y033073D01*
X018985Y033227D01*
X018877Y033335D01*
X018723Y033335D01*
X018615Y033227D01*
X018615Y033207D02*
X017555Y033207D01*
X017603Y033159D02*
X018615Y033159D01*
X018615Y033110D02*
X017635Y033110D01*
X017635Y033062D02*
X018627Y033062D01*
X018675Y033013D02*
X017635Y033013D01*
X017626Y032965D02*
X019450Y032965D01*
X019450Y033013D02*
X018925Y033013D01*
X018973Y033062D02*
X019450Y033062D01*
X019450Y033110D02*
X018985Y033110D01*
X018985Y033159D02*
X019450Y033159D01*
X019450Y033207D02*
X018985Y033207D01*
X018956Y033256D02*
X019450Y033256D01*
X019450Y033304D02*
X018908Y033304D01*
X018692Y033304D02*
X016460Y033304D01*
X016435Y033353D02*
X019450Y033353D01*
X019450Y033401D02*
X016387Y033401D01*
X016044Y032480D02*
X015875Y032480D01*
X015875Y032431D02*
X015943Y032431D01*
X015895Y032383D02*
X015875Y032383D01*
X017140Y034129D02*
X019450Y034129D01*
X019450Y034177D02*
X017189Y034177D01*
X017578Y032916D02*
X019450Y032916D01*
X019450Y032868D02*
X017529Y032868D01*
X018134Y034905D02*
X015875Y034905D01*
X015875Y034953D02*
X018085Y034953D01*
X018065Y035002D02*
X015875Y035002D01*
X015875Y035050D02*
X018065Y035050D01*
X018065Y035099D02*
X015875Y035099D01*
X015875Y035147D02*
X018085Y035147D01*
X015875Y035293D02*
X022425Y035293D01*
X022425Y035341D02*
X015875Y035341D01*
X015875Y035390D02*
X022425Y035390D01*
X022425Y035438D02*
X015875Y035438D01*
X015875Y035487D02*
X022425Y035487D01*
X022425Y035535D02*
X015875Y035535D01*
X015875Y035584D02*
X022425Y035584D01*
X022425Y035632D02*
X015875Y035632D01*
X015875Y035681D02*
X022425Y035681D01*
X022425Y035729D02*
X015875Y035729D01*
X015875Y035778D02*
X022425Y035778D01*
X022425Y035826D02*
X015875Y035826D01*
X015875Y035875D02*
X022425Y035875D01*
X022425Y035923D02*
X015875Y035923D01*
X015875Y035972D02*
X022425Y035972D01*
X022425Y036020D02*
X015875Y036020D01*
X015875Y036069D02*
X022425Y036069D01*
X022425Y036117D02*
X015875Y036117D01*
X015875Y030394D02*
X015906Y030394D01*
X015875Y029473D02*
X016027Y029473D01*
X015936Y029424D02*
X015875Y029424D01*
X015875Y029376D02*
X015888Y029376D01*
X016359Y024429D02*
X016715Y024429D01*
X016715Y024380D02*
X016408Y024380D01*
X016448Y024332D02*
X016757Y024332D01*
X016805Y024283D02*
X016468Y024283D01*
X015887Y022925D02*
X015875Y022925D01*
X015875Y022877D02*
X015936Y022877D01*
X015875Y022828D02*
X016026Y022828D01*
X015894Y019918D02*
X015875Y019918D01*
X015875Y019870D02*
X015943Y019870D01*
X015875Y019821D02*
X016043Y019821D01*
X015976Y016523D02*
X015875Y016523D01*
X015875Y016475D02*
X015893Y016475D01*
X018737Y018075D02*
X019563Y018075D01*
X019515Y018124D02*
X018785Y018124D01*
X018834Y018172D02*
X019466Y018172D01*
X019465Y018221D02*
X018835Y018221D01*
X018835Y018269D02*
X019465Y018269D01*
X019465Y018318D02*
X018835Y018318D01*
X018796Y018366D02*
X019504Y018366D01*
X019553Y018415D02*
X018747Y018415D01*
X022424Y031364D02*
X022425Y031364D01*
X022425Y031413D02*
X022375Y031413D01*
X022425Y031461D02*
X022301Y031461D01*
X021754Y034032D02*
X021593Y034032D01*
X021642Y034080D02*
X021739Y034080D01*
X021739Y034129D02*
X021685Y034129D01*
X021685Y034177D02*
X021739Y034177D01*
X021739Y034226D02*
X021685Y034226D01*
X021685Y034274D02*
X021756Y034274D01*
X021776Y034323D02*
X021639Y034323D01*
X021591Y034371D02*
X021796Y034371D01*
X021270Y034468D02*
X021130Y034468D01*
X021178Y034517D02*
X021222Y034517D01*
X021246Y034808D02*
X021154Y034808D01*
D13*
X018750Y022900D02*
X018750Y022250D01*
X019400Y021600D01*
X021250Y021600D01*
M02*
