G75*
%MOIN*%
%OFA0B0*%
%FSLAX24Y24*%
%IPPOS*%
%LPD*%
%AMOC8*
5,1,8,0,0,1.08239X$1,22.5*
%
%ADD10C,0.0120*%
%ADD11C,0.0160*%
%ADD12C,0.0050*%
%ADD13R,0.0059X0.0118*%
%ADD14R,0.0118X0.0118*%
%ADD15C,0.0100*%
%ADD16C,0.0040*%
%ADD17C,0.0080*%
%ADD18C,0.0020*%
%ADD19R,0.0197X0.0197*%
%ADD20C,0.0060*%
%ADD21C,0.0010*%
D10*
X016550Y029950D02*
X016840Y030150D01*
X016550Y030350D01*
X016550Y029950D01*
X016850Y030950D02*
X016850Y031350D01*
X016550Y031150D01*
X016850Y030950D01*
D11*
X016730Y031110D02*
X016730Y031190D01*
X016670Y030190D02*
X016670Y030120D01*
D12*
X015960Y017525D02*
X015825Y017525D01*
X015825Y017795D01*
X015960Y017795D01*
X016005Y017750D01*
X016005Y017570D01*
X015960Y017525D01*
X016120Y017525D02*
X016300Y017525D01*
X016210Y017525D02*
X016210Y017795D01*
X016120Y017705D01*
X016414Y017750D02*
X016459Y017795D01*
X016549Y017795D01*
X016594Y017750D01*
X016594Y017705D01*
X016414Y017525D01*
X016594Y017525D01*
X016720Y017675D02*
X016720Y017945D01*
X016810Y017945D02*
X016810Y017675D01*
X016855Y017765D02*
X016675Y017765D01*
X016675Y017855D02*
X016810Y017855D01*
X016855Y017855D01*
X016594Y018525D02*
X016414Y018525D01*
X016504Y018525D02*
X016504Y018795D01*
X016414Y018705D01*
X016300Y018525D02*
X016120Y018525D01*
X016210Y018525D02*
X016210Y018795D01*
X016120Y018705D01*
X016005Y018750D02*
X015960Y018795D01*
X015825Y018795D01*
X015825Y018525D01*
X015960Y018525D01*
X016005Y018570D01*
X016005Y018750D01*
X015960Y019525D02*
X016005Y019570D01*
X016005Y019750D01*
X015960Y019795D01*
X015825Y019795D01*
X015825Y019525D01*
X015960Y019525D01*
X016120Y019525D02*
X016300Y019525D01*
X016210Y019525D02*
X016210Y019795D01*
X016120Y019705D01*
X016414Y019750D02*
X016459Y019795D01*
X016549Y019795D01*
X016594Y019750D01*
X016414Y019570D01*
X016459Y019525D01*
X016549Y019525D01*
X016594Y019570D01*
X016594Y019750D01*
X016675Y019815D02*
X016855Y019815D01*
X016855Y019905D02*
X016810Y019905D01*
X016675Y019905D01*
X016720Y019995D02*
X016720Y019725D01*
X016810Y019725D02*
X016810Y019995D01*
X017055Y020125D02*
X017055Y020260D01*
X017100Y020305D01*
X017190Y020305D01*
X017235Y020260D01*
X017235Y020125D01*
X017325Y020125D02*
X017055Y020125D01*
X017235Y020215D02*
X017325Y020305D01*
X017280Y020420D02*
X017325Y020465D01*
X017325Y020555D01*
X017280Y020600D01*
X017190Y020600D01*
X017145Y020555D01*
X017145Y020510D01*
X017190Y020420D01*
X017055Y020420D01*
X017055Y020600D01*
X017025Y020616D02*
X017025Y020436D01*
X017025Y020526D02*
X017295Y020526D01*
X017295Y020730D02*
X017025Y020911D01*
X017025Y020730D02*
X017295Y020911D01*
X017650Y020600D02*
X017605Y020555D01*
X017605Y020465D01*
X017650Y020420D01*
X017695Y020420D01*
X017740Y020465D01*
X017740Y020555D01*
X017785Y020600D01*
X017830Y020600D01*
X017875Y020555D01*
X017875Y020465D01*
X017830Y020420D01*
X017785Y020420D01*
X017740Y020465D01*
X017740Y020555D02*
X017695Y020600D01*
X017650Y020600D01*
X017650Y020305D02*
X017740Y020305D01*
X017785Y020260D01*
X017785Y020125D01*
X017875Y020125D02*
X017605Y020125D01*
X017605Y020260D01*
X017650Y020305D01*
X017785Y020215D02*
X017875Y020305D01*
X018205Y020425D02*
X018475Y020425D01*
X018475Y020605D01*
X018820Y020994D02*
X018820Y021506D01*
X020080Y021506D01*
X020080Y020994D01*
X018820Y020994D01*
X019203Y020603D02*
X019293Y020603D01*
X019338Y020558D01*
X019338Y020378D01*
X019293Y020333D01*
X019203Y020333D01*
X019158Y020378D01*
X019158Y020558D01*
X019203Y020603D01*
X019248Y020423D02*
X019338Y020333D01*
X019453Y020333D02*
X019633Y020333D01*
X019543Y020333D02*
X019543Y020603D01*
X019453Y020513D01*
X018725Y018819D02*
X018725Y018639D01*
X018725Y018729D02*
X018455Y018729D01*
X018545Y018639D01*
X018455Y018525D02*
X018725Y018525D01*
X018455Y018345D01*
X018725Y018345D01*
X018725Y018230D02*
X018635Y018140D01*
X018635Y018185D02*
X018635Y018050D01*
X018725Y018050D02*
X018455Y018050D01*
X018455Y018185D01*
X018500Y018230D01*
X018590Y018230D01*
X018635Y018185D01*
X016805Y018765D02*
X016625Y018765D01*
X016625Y018855D02*
X016760Y018855D01*
X016805Y018855D01*
X016760Y018945D02*
X016760Y018675D01*
X016670Y018675D02*
X016670Y018945D01*
X016414Y019570D02*
X016414Y019750D01*
X016355Y020525D02*
X016400Y020570D01*
X016400Y020750D01*
X016355Y020795D01*
X016265Y020795D01*
X016220Y020750D01*
X016220Y020705D01*
X016265Y020660D01*
X016400Y020660D01*
X016355Y020525D02*
X016265Y020525D01*
X016220Y020570D01*
X016105Y020570D02*
X016105Y020750D01*
X016060Y020795D01*
X015925Y020795D01*
X015925Y020525D01*
X016060Y020525D01*
X016105Y020570D01*
X016525Y020765D02*
X016705Y020765D01*
X016705Y020855D02*
X016660Y020855D01*
X016525Y020855D01*
X016570Y020945D02*
X016570Y020675D01*
X016660Y020675D02*
X016660Y020945D01*
X016355Y021525D02*
X016265Y021525D01*
X016220Y021570D01*
X016220Y021615D01*
X016265Y021660D01*
X016355Y021660D01*
X016400Y021615D01*
X016400Y021570D01*
X016355Y021525D01*
X016355Y021660D02*
X016400Y021705D01*
X016400Y021750D01*
X016355Y021795D01*
X016265Y021795D01*
X016220Y021750D01*
X016220Y021705D01*
X016265Y021660D01*
X016105Y021570D02*
X016105Y021750D01*
X016060Y021795D01*
X015925Y021795D01*
X015925Y021525D01*
X016060Y021525D01*
X016105Y021570D01*
X016110Y022525D02*
X015975Y022525D01*
X015975Y022795D01*
X016110Y022795D01*
X016155Y022750D01*
X016155Y022570D01*
X016110Y022525D01*
X016270Y022525D02*
X016270Y022570D01*
X016450Y022750D01*
X016450Y022795D01*
X016270Y022795D01*
X016265Y023525D02*
X016355Y023525D01*
X016400Y023570D01*
X016400Y023615D01*
X016355Y023660D01*
X016220Y023660D01*
X016220Y023570D01*
X016265Y023525D01*
X016220Y023660D02*
X016310Y023750D01*
X016400Y023795D01*
X016525Y023815D02*
X016705Y023815D01*
X016705Y023905D02*
X016660Y023905D01*
X016525Y023905D01*
X016570Y023995D02*
X016570Y023725D01*
X016660Y023725D02*
X016660Y023995D01*
X016105Y023750D02*
X016060Y023795D01*
X015925Y023795D01*
X015925Y023525D01*
X016060Y023525D01*
X016105Y023570D01*
X016105Y023750D01*
X016060Y024525D02*
X016105Y024570D01*
X016105Y024750D01*
X016060Y024795D01*
X015925Y024795D01*
X015925Y024525D01*
X016060Y024525D01*
X016220Y024570D02*
X016265Y024525D01*
X016355Y024525D01*
X016400Y024570D01*
X016400Y024660D01*
X016355Y024705D01*
X016310Y024705D01*
X016220Y024660D01*
X016220Y024795D01*
X016400Y024795D01*
X016525Y024765D02*
X016705Y024765D01*
X016705Y024855D02*
X016660Y024855D01*
X016525Y024855D01*
X016570Y024945D02*
X016570Y024675D01*
X016660Y024675D02*
X016660Y024945D01*
X016355Y025525D02*
X016355Y025795D01*
X016220Y025660D01*
X016400Y025660D01*
X016525Y025765D02*
X016705Y025765D01*
X016705Y025855D02*
X016660Y025855D01*
X016525Y025855D01*
X016570Y025945D02*
X016570Y025675D01*
X016660Y025675D02*
X016660Y025945D01*
X016105Y025750D02*
X016060Y025795D01*
X015925Y025795D01*
X015925Y025525D01*
X016060Y025525D01*
X016105Y025570D01*
X016105Y025750D01*
X016060Y026475D02*
X016105Y026520D01*
X016105Y026700D01*
X016060Y026745D01*
X015925Y026745D01*
X015925Y026475D01*
X016060Y026475D01*
X016220Y026520D02*
X016265Y026475D01*
X016355Y026475D01*
X016400Y026520D01*
X016400Y026565D01*
X016355Y026610D01*
X016310Y026610D01*
X016355Y026610D02*
X016400Y026655D01*
X016400Y026700D01*
X016355Y026745D01*
X016265Y026745D01*
X016220Y026700D01*
X016220Y027475D02*
X016400Y027655D01*
X016400Y027700D01*
X016355Y027745D01*
X016265Y027745D01*
X016220Y027700D01*
X016105Y027700D02*
X016060Y027745D01*
X015925Y027745D01*
X015925Y027475D01*
X016060Y027475D01*
X016105Y027520D01*
X016105Y027700D01*
X016220Y027475D02*
X016400Y027475D01*
X016350Y028525D02*
X016350Y028795D01*
X016464Y028795D02*
X016599Y028795D01*
X016644Y028750D01*
X016644Y028570D01*
X016599Y028525D01*
X016464Y028525D01*
X016464Y028795D01*
X016350Y028525D02*
X016170Y028795D01*
X016170Y028525D01*
X016055Y028570D02*
X016055Y028660D01*
X015965Y028660D01*
X015875Y028570D02*
X015920Y028525D01*
X016010Y028525D01*
X016055Y028570D01*
X015875Y028570D02*
X015875Y028750D01*
X015920Y028795D01*
X016010Y028795D01*
X016055Y028750D01*
X016055Y029525D02*
X015965Y029615D01*
X016010Y029615D02*
X015875Y029615D01*
X015875Y029525D02*
X015875Y029795D01*
X016010Y029795D01*
X016055Y029750D01*
X016055Y029660D01*
X016010Y029615D01*
X016170Y029570D02*
X016215Y029525D01*
X016305Y029525D01*
X016350Y029570D01*
X016350Y029615D01*
X016305Y029660D01*
X016215Y029660D01*
X016170Y029705D01*
X016170Y029750D01*
X016215Y029795D01*
X016305Y029795D01*
X016350Y029750D01*
X016464Y029795D02*
X016644Y029795D01*
X016554Y029795D02*
X016554Y029525D01*
X017023Y029601D02*
X017023Y028499D01*
X018677Y028499D01*
X018677Y029601D01*
X017023Y029601D01*
X017417Y029129D02*
X017417Y028971D01*
X017419Y028943D01*
X017424Y028915D01*
X017432Y028887D01*
X017444Y028861D01*
X017459Y028837D01*
X017476Y028815D01*
X017497Y028794D01*
X017519Y028777D01*
X017543Y028762D01*
X017569Y028750D01*
X017597Y028742D01*
X017625Y028737D01*
X017653Y028735D01*
X018047Y028735D01*
X018075Y028737D01*
X018103Y028742D01*
X018131Y028750D01*
X018157Y028762D01*
X018181Y028777D01*
X018203Y028794D01*
X018224Y028815D01*
X018241Y028837D01*
X018256Y028861D01*
X018268Y028887D01*
X018276Y028915D01*
X018281Y028943D01*
X018283Y028971D01*
X018283Y029129D01*
X018281Y029157D01*
X018276Y029185D01*
X018268Y029213D01*
X018256Y029239D01*
X018241Y029263D01*
X018224Y029285D01*
X018203Y029306D01*
X018181Y029323D01*
X018157Y029338D01*
X018131Y029350D01*
X018103Y029358D01*
X018075Y029363D01*
X018047Y029365D01*
X017653Y029365D01*
X017625Y029363D01*
X017597Y029358D01*
X017569Y029350D01*
X017543Y029338D01*
X017519Y029323D01*
X017497Y029306D01*
X017476Y029285D01*
X017459Y029263D01*
X017444Y029239D01*
X017432Y029213D01*
X017424Y029185D01*
X017419Y029157D01*
X017417Y029129D01*
X017362Y028201D02*
X017598Y028201D01*
X017598Y027689D02*
X017362Y027689D01*
X017772Y026028D02*
X017772Y023272D01*
X020528Y023272D01*
X020528Y023174D01*
X020626Y023174D01*
X020626Y023272D01*
X020528Y023272D01*
X020528Y026028D01*
X017772Y026028D01*
X019173Y027689D02*
X019173Y028201D01*
X019291Y028201D01*
X019623Y028499D02*
X019623Y029601D01*
X021277Y029601D01*
X021277Y028499D01*
X019623Y028499D01*
X019786Y028325D02*
X019921Y028325D01*
X019966Y028280D01*
X019966Y028190D01*
X019921Y028145D01*
X019786Y028145D01*
X019876Y028145D02*
X019966Y028055D01*
X020080Y028055D02*
X020261Y028325D01*
X020305Y028425D02*
X020215Y028515D01*
X020260Y028515D02*
X020125Y028515D01*
X020125Y028425D02*
X020125Y028695D01*
X020260Y028695D01*
X020305Y028650D01*
X020305Y028560D01*
X020260Y028515D01*
X020420Y028425D02*
X020600Y028425D01*
X020510Y028425D02*
X020510Y028695D01*
X020420Y028605D01*
X020253Y028735D02*
X020647Y028735D01*
X020675Y028737D01*
X020703Y028742D01*
X020731Y028750D01*
X020757Y028762D01*
X020781Y028777D01*
X020803Y028794D01*
X020824Y028815D01*
X020841Y028837D01*
X020856Y028861D01*
X020868Y028887D01*
X020876Y028915D01*
X020881Y028943D01*
X020883Y028971D01*
X020883Y029129D01*
X020881Y029157D01*
X020876Y029185D01*
X020868Y029213D01*
X020856Y029239D01*
X020841Y029263D01*
X020824Y029285D01*
X020803Y029306D01*
X020781Y029323D01*
X020757Y029338D01*
X020731Y029350D01*
X020703Y029358D01*
X020675Y029363D01*
X020647Y029365D01*
X020253Y029365D01*
X020225Y029363D01*
X020197Y029358D01*
X020169Y029350D01*
X020143Y029338D01*
X020119Y029323D01*
X020097Y029306D01*
X020076Y029285D01*
X020059Y029263D01*
X020044Y029239D01*
X020032Y029213D01*
X020024Y029185D01*
X020019Y029157D01*
X020017Y029129D01*
X020017Y028971D01*
X020019Y028943D01*
X020024Y028915D01*
X020032Y028887D01*
X020044Y028861D01*
X020059Y028837D01*
X020076Y028815D01*
X020097Y028794D01*
X020119Y028777D01*
X020143Y028762D01*
X020169Y028750D01*
X020197Y028742D01*
X020225Y028737D01*
X020253Y028735D01*
X020080Y028325D02*
X020261Y028055D01*
X019786Y028055D02*
X019786Y028325D01*
X019291Y027689D02*
X019173Y027689D01*
X019436Y029755D02*
X019526Y029755D01*
X019571Y029800D01*
X019686Y029755D02*
X019866Y029755D01*
X019776Y029755D02*
X019776Y030025D01*
X019686Y029935D01*
X019571Y029980D02*
X019526Y030025D01*
X019436Y030025D01*
X019391Y029980D01*
X019391Y029800D01*
X019436Y029755D01*
X019980Y029755D02*
X019980Y029800D01*
X020161Y029980D01*
X020161Y030025D01*
X019980Y030025D01*
X020408Y030320D02*
X020408Y031580D01*
X021392Y031580D01*
X021392Y030320D01*
X020408Y030320D01*
X021775Y030570D02*
X021820Y030525D01*
X021910Y030525D01*
X021955Y030570D01*
X021955Y030660D01*
X021865Y030660D01*
X021775Y030750D02*
X021775Y030570D01*
X021775Y030750D02*
X021820Y030795D01*
X021910Y030795D01*
X021955Y030750D01*
X022070Y030795D02*
X022250Y030525D01*
X022250Y030795D01*
X022364Y030795D02*
X022499Y030795D01*
X022544Y030750D01*
X022544Y030570D01*
X022499Y030525D01*
X022364Y030525D01*
X022364Y030795D01*
X022070Y030795D02*
X022070Y030525D01*
X022165Y029795D02*
X022120Y029750D01*
X022120Y029705D01*
X022165Y029660D01*
X022255Y029660D01*
X022300Y029615D01*
X022300Y029570D01*
X022255Y029525D01*
X022165Y029525D01*
X022120Y029570D01*
X022005Y029525D02*
X021915Y029615D01*
X021960Y029615D02*
X021825Y029615D01*
X021825Y029525D02*
X021825Y029795D01*
X021960Y029795D01*
X022005Y029750D01*
X022005Y029660D01*
X021960Y029615D01*
X022165Y029795D02*
X022255Y029795D01*
X022300Y029750D01*
X022414Y029795D02*
X022594Y029795D01*
X022504Y029795D02*
X022504Y029525D01*
X022105Y028795D02*
X022105Y028615D01*
X022015Y028525D01*
X021925Y028615D01*
X021925Y028795D01*
X022220Y028660D02*
X022400Y028660D01*
X022310Y028750D02*
X022310Y028570D01*
X022354Y027795D02*
X022354Y027525D01*
X022534Y027525D01*
X022444Y027660D02*
X022354Y027660D01*
X022239Y027615D02*
X022239Y027570D01*
X022194Y027525D01*
X022104Y027525D01*
X022059Y027570D01*
X022104Y027660D02*
X022194Y027660D01*
X022239Y027615D01*
X022239Y027750D02*
X022194Y027795D01*
X022104Y027795D01*
X022059Y027750D01*
X022059Y027705D01*
X022104Y027660D01*
X021944Y027660D02*
X021764Y027660D01*
X021764Y027705D02*
X021764Y027525D01*
X021650Y027525D02*
X021560Y027615D01*
X021605Y027615D02*
X021470Y027615D01*
X021470Y027525D02*
X021470Y027795D01*
X021605Y027795D01*
X021650Y027750D01*
X021650Y027660D01*
X021605Y027615D01*
X021764Y027705D02*
X021854Y027795D01*
X021944Y027705D01*
X021944Y027525D01*
X022354Y027795D02*
X022534Y027795D01*
X022510Y026750D02*
X022510Y026570D01*
X022555Y026525D01*
X022555Y026705D02*
X022465Y026705D01*
X022351Y026705D02*
X022216Y026705D01*
X022171Y026660D01*
X022216Y026615D01*
X022306Y026615D01*
X022351Y026570D01*
X022306Y026525D01*
X022171Y026525D01*
X022060Y026705D02*
X022015Y026705D01*
X021925Y026615D01*
X021925Y026525D02*
X021925Y026705D01*
X022015Y025795D02*
X022105Y025705D01*
X022105Y025525D01*
X022220Y025570D02*
X022265Y025525D01*
X022355Y025525D01*
X022400Y025570D01*
X022400Y025660D01*
X022355Y025705D01*
X022310Y025705D01*
X022220Y025660D01*
X022220Y025795D01*
X022400Y025795D01*
X022105Y025660D02*
X021925Y025660D01*
X021925Y025705D02*
X022015Y025795D01*
X021925Y025705D02*
X021925Y025525D01*
X021965Y024795D02*
X022055Y024705D01*
X022055Y024525D01*
X022055Y024660D02*
X021875Y024660D01*
X021875Y024705D02*
X021965Y024795D01*
X021875Y024705D02*
X021875Y024525D01*
X022170Y024660D02*
X022350Y024660D01*
X022305Y024525D02*
X022305Y024795D01*
X022170Y024660D01*
X022265Y023795D02*
X022355Y023795D01*
X022400Y023750D01*
X022400Y023705D01*
X022355Y023660D01*
X022400Y023615D01*
X022400Y023570D01*
X022355Y023525D01*
X022265Y023525D01*
X022220Y023570D01*
X022105Y023525D02*
X022105Y023705D01*
X022015Y023795D01*
X021925Y023705D01*
X021925Y023525D01*
X021925Y023660D02*
X022105Y023660D01*
X022220Y023750D02*
X022265Y023795D01*
X022310Y023660D02*
X022355Y023660D01*
X022355Y022795D02*
X022265Y022795D01*
X022220Y022750D01*
X022105Y022705D02*
X022105Y022525D01*
X022220Y022525D02*
X022400Y022705D01*
X022400Y022750D01*
X022355Y022795D01*
X022105Y022705D02*
X022015Y022795D01*
X021925Y022705D01*
X021925Y022525D01*
X021925Y022660D02*
X022105Y022660D01*
X022220Y022525D02*
X022400Y022525D01*
X022310Y021795D02*
X022310Y021525D01*
X022220Y021525D02*
X022400Y021525D01*
X022220Y021705D02*
X022310Y021795D01*
X022105Y021705D02*
X022105Y021525D01*
X022105Y021660D02*
X021925Y021660D01*
X021925Y021705D02*
X022015Y021795D01*
X022105Y021705D01*
X021925Y021705D02*
X021925Y021525D01*
X022015Y020795D02*
X022105Y020705D01*
X022105Y020525D01*
X022220Y020570D02*
X022400Y020750D01*
X022400Y020570D01*
X022355Y020525D01*
X022265Y020525D01*
X022220Y020570D01*
X022220Y020750D01*
X022265Y020795D01*
X022355Y020795D01*
X022400Y020750D01*
X022105Y020660D02*
X021925Y020660D01*
X021925Y020705D02*
X022015Y020795D01*
X021925Y020705D02*
X021925Y020525D01*
X021960Y019745D02*
X021825Y019745D01*
X021825Y019475D01*
X021825Y019565D02*
X021960Y019565D01*
X022005Y019610D01*
X022005Y019700D01*
X021960Y019745D01*
X022120Y019745D02*
X022120Y019475D01*
X022300Y019475D01*
X022414Y019475D02*
X022414Y019745D01*
X022594Y019745D01*
X022504Y019610D02*
X022414Y019610D01*
X022300Y019745D02*
X022120Y019745D01*
X022120Y019610D02*
X022210Y019610D01*
X022005Y019475D02*
X021915Y019565D01*
X021910Y018745D02*
X021820Y018745D01*
X021775Y018700D01*
X021865Y018610D02*
X021910Y018610D01*
X021955Y018565D01*
X021955Y018520D01*
X021910Y018475D01*
X021820Y018475D01*
X021775Y018520D01*
X021910Y018610D02*
X021955Y018655D01*
X021955Y018700D01*
X021910Y018745D01*
X022070Y018745D02*
X022070Y018565D01*
X022160Y018475D01*
X022250Y018565D01*
X022250Y018745D01*
X022364Y018700D02*
X022409Y018745D01*
X022499Y018745D01*
X022544Y018700D01*
X022544Y018655D01*
X022499Y018610D01*
X022544Y018565D01*
X022544Y018520D01*
X022499Y018475D01*
X022409Y018475D01*
X022364Y018520D01*
X022454Y018610D02*
X022499Y018610D01*
X022499Y017795D02*
X022544Y017750D01*
X022544Y017705D01*
X022499Y017660D01*
X022544Y017615D01*
X022544Y017570D01*
X022499Y017525D01*
X022409Y017525D01*
X022364Y017570D01*
X022250Y017525D02*
X022070Y017525D01*
X022160Y017525D02*
X022160Y017795D01*
X022070Y017705D01*
X021955Y017750D02*
X021910Y017795D01*
X021775Y017795D01*
X021775Y017525D01*
X021910Y017525D01*
X021955Y017570D01*
X021955Y017750D01*
X021705Y017715D02*
X021525Y017715D01*
X021525Y017805D02*
X021660Y017805D01*
X021705Y017805D01*
X021660Y017895D02*
X021660Y017625D01*
X021570Y017625D02*
X021570Y017895D01*
X022364Y017750D02*
X022409Y017795D01*
X022499Y017795D01*
X022499Y017660D02*
X022454Y017660D01*
X020528Y023174D02*
X020430Y023174D01*
X020430Y023370D01*
X020626Y023370D01*
X020626Y023272D01*
X021175Y027525D02*
X021355Y027525D01*
X021265Y027660D02*
X021175Y027660D01*
X021175Y027795D02*
X021175Y027525D01*
X021175Y027795D02*
X021355Y027795D01*
X021915Y031525D02*
X021825Y031615D01*
X021825Y031795D01*
X022005Y031795D02*
X022005Y031615D01*
X021915Y031525D01*
X022120Y031525D02*
X022210Y031525D01*
X022165Y031525D02*
X022165Y031795D01*
X022120Y031795D02*
X022210Y031795D01*
X022316Y031795D02*
X022496Y031525D01*
X022496Y031795D01*
X022316Y031795D02*
X022316Y031525D01*
X022406Y032525D02*
X022496Y032525D01*
X022541Y032570D01*
X022541Y032750D01*
X022496Y032795D01*
X022406Y032795D01*
X022361Y032750D01*
X022361Y032570D01*
X022406Y032525D01*
X022246Y032570D02*
X022201Y032525D01*
X022111Y032525D01*
X022066Y032570D01*
X022111Y032660D02*
X022201Y032660D01*
X022246Y032615D01*
X022246Y032570D01*
X022111Y032660D02*
X022066Y032705D01*
X022066Y032750D01*
X022111Y032795D01*
X022201Y032795D01*
X022246Y032750D01*
X021960Y032795D02*
X021870Y032795D01*
X021915Y032795D02*
X021915Y032525D01*
X021870Y032525D02*
X021960Y032525D01*
X021755Y032525D02*
X021755Y032795D01*
X021665Y032705D01*
X021575Y032795D01*
X021575Y032525D01*
X021150Y031805D02*
X020970Y031805D01*
X021060Y031805D02*
X021060Y032075D01*
X020970Y031985D01*
X020856Y032030D02*
X020856Y032075D01*
X020856Y032030D02*
X020765Y031940D01*
X020765Y031805D01*
X020765Y031940D02*
X020675Y032030D01*
X020675Y032075D01*
X020044Y031945D02*
X019954Y031900D01*
X019864Y031810D01*
X019999Y031810D01*
X020044Y031765D01*
X020044Y031720D01*
X019999Y031675D01*
X019909Y031675D01*
X019864Y031720D01*
X019864Y031810D01*
X019750Y031675D02*
X019570Y031675D01*
X019660Y031675D02*
X019660Y031945D01*
X019570Y031855D01*
X019455Y031900D02*
X019410Y031945D01*
X019320Y031945D01*
X019275Y031900D01*
X019275Y031720D01*
X019320Y031675D01*
X019410Y031675D01*
X019455Y031720D01*
X021256Y033870D02*
X021481Y033870D01*
X021526Y033915D01*
X021526Y034005D01*
X021481Y034050D01*
X021256Y034050D01*
X021256Y034165D02*
X021391Y034165D01*
X021346Y034255D01*
X021346Y034300D01*
X021391Y034345D01*
X021481Y034345D01*
X021526Y034300D01*
X021526Y034210D01*
X021481Y034165D01*
X021256Y034165D02*
X021256Y034345D01*
X021100Y034741D02*
X021145Y034786D01*
X021145Y034876D01*
X021100Y034921D01*
X021075Y034925D02*
X020805Y034925D01*
X020805Y035060D01*
X020850Y035105D01*
X020940Y035105D01*
X020985Y035060D01*
X020985Y034925D01*
X020920Y034921D02*
X020875Y034876D01*
X020875Y034786D01*
X020920Y034741D01*
X021100Y034741D01*
X020985Y035015D02*
X021075Y035105D01*
X021145Y035126D02*
X020875Y035126D01*
X020965Y035036D01*
X021145Y035036D02*
X021145Y035216D01*
X021075Y035265D02*
X021030Y035220D01*
X021075Y035265D02*
X021075Y035355D01*
X021030Y035400D01*
X020985Y035400D01*
X020940Y035355D01*
X020940Y035310D01*
X020920Y035330D02*
X020965Y035330D01*
X021010Y035375D01*
X021010Y035465D01*
X021055Y035511D01*
X021100Y035511D01*
X021145Y035465D01*
X021145Y035375D01*
X021100Y035330D01*
X021055Y035330D01*
X021010Y035375D01*
X020940Y035355D02*
X020895Y035400D01*
X020850Y035400D01*
X020805Y035355D01*
X020805Y035265D01*
X020850Y035220D01*
X020920Y035330D02*
X020875Y035375D01*
X020875Y035465D01*
X020920Y035511D01*
X020965Y035511D01*
X021010Y035465D01*
X019694Y035845D02*
X019514Y035845D01*
X019604Y035845D02*
X019604Y035575D01*
X019400Y035620D02*
X019355Y035575D01*
X019265Y035575D01*
X019220Y035620D01*
X019265Y035710D02*
X019355Y035710D01*
X019400Y035665D01*
X019400Y035620D01*
X019265Y035710D02*
X019220Y035755D01*
X019220Y035800D01*
X019265Y035845D01*
X019355Y035845D01*
X019400Y035800D01*
X019105Y035800D02*
X019060Y035845D01*
X018925Y035845D01*
X018925Y035575D01*
X018925Y035665D02*
X019060Y035665D01*
X019105Y035710D01*
X019105Y035800D01*
X019015Y035665D02*
X019105Y035575D01*
X019064Y036925D02*
X019019Y036970D01*
X019199Y037150D01*
X019199Y036970D01*
X019154Y036925D01*
X019064Y036925D01*
X019019Y036970D02*
X019019Y037150D01*
X019064Y037195D01*
X019154Y037195D01*
X019199Y037150D01*
X018917Y036970D02*
X018917Y036925D01*
X018872Y036925D01*
X018872Y036970D01*
X018917Y036970D01*
X018757Y036970D02*
X018712Y036925D01*
X018622Y036925D01*
X018577Y036970D01*
X018667Y037060D02*
X018712Y037060D01*
X018757Y037015D01*
X018757Y036970D01*
X018712Y037060D02*
X018757Y037105D01*
X018757Y037150D01*
X018712Y037195D01*
X018622Y037195D01*
X018577Y037150D01*
X018462Y037060D02*
X018282Y037060D01*
X018168Y037060D02*
X017988Y037060D01*
X017988Y037105D02*
X018078Y037195D01*
X018168Y037105D01*
X018168Y036925D01*
X017988Y036925D02*
X017988Y037105D01*
X017873Y037150D02*
X017828Y037195D01*
X017738Y037195D01*
X017693Y037150D01*
X017693Y037105D01*
X017738Y037060D01*
X017828Y037060D01*
X017873Y037015D01*
X017873Y036970D01*
X017828Y036925D01*
X017738Y036925D01*
X017693Y036970D01*
X017578Y037060D02*
X017398Y037060D01*
X017284Y037150D02*
X017284Y037195D01*
X017284Y037150D02*
X017194Y037060D01*
X017194Y036925D01*
X017194Y037060D02*
X017104Y037150D01*
X017104Y037195D01*
X016989Y037150D02*
X016989Y037105D01*
X016944Y037060D01*
X016809Y037060D01*
X016694Y037060D02*
X016514Y037060D01*
X016400Y036970D02*
X016355Y036925D01*
X016265Y036925D01*
X016220Y036970D01*
X016220Y037150D01*
X016265Y037195D01*
X016355Y037195D01*
X016400Y037150D01*
X016416Y037405D02*
X016506Y037495D01*
X016506Y037585D01*
X016416Y037675D01*
X016302Y037585D02*
X016166Y037585D01*
X016121Y037540D01*
X016121Y037450D01*
X016166Y037405D01*
X016302Y037405D01*
X016015Y037405D02*
X015925Y037495D01*
X015925Y037585D01*
X016015Y037675D01*
X015925Y037885D02*
X015925Y038065D01*
X016015Y038155D01*
X016105Y038065D01*
X016105Y037885D01*
X016220Y037885D02*
X016220Y038065D01*
X016310Y038065D02*
X016355Y038065D01*
X016310Y038065D02*
X016220Y037975D01*
X016105Y038020D02*
X015925Y038020D01*
X016465Y037930D02*
X016510Y037975D01*
X016645Y037975D01*
X016645Y038020D02*
X016645Y037885D01*
X016510Y037885D01*
X016465Y037930D01*
X016510Y038065D02*
X016600Y038065D01*
X016645Y038020D01*
X016760Y038020D02*
X016760Y037930D01*
X016805Y037885D01*
X016940Y037885D01*
X017054Y037885D02*
X017054Y038155D01*
X017100Y038065D02*
X017190Y038065D01*
X017235Y038020D01*
X017235Y037885D01*
X017349Y037885D02*
X017349Y038065D01*
X017484Y038065D01*
X017529Y038020D01*
X017529Y037885D01*
X017644Y037885D02*
X017734Y037885D01*
X017689Y037885D02*
X017689Y038065D01*
X017644Y038065D01*
X017689Y038155D02*
X017689Y038200D01*
X017840Y038020D02*
X017840Y037930D01*
X017885Y037885D01*
X017975Y037885D01*
X018020Y037930D01*
X018020Y038020D01*
X017975Y038065D01*
X017885Y038065D01*
X017840Y038020D01*
X017791Y037675D02*
X017791Y037540D01*
X017881Y037585D01*
X017926Y037585D01*
X017971Y037540D01*
X017971Y037450D01*
X017926Y037405D01*
X017836Y037405D01*
X017791Y037450D01*
X017677Y037405D02*
X017496Y037405D01*
X017587Y037405D02*
X017587Y037675D01*
X017496Y037585D01*
X017382Y037630D02*
X017202Y037450D01*
X017247Y037405D01*
X017337Y037405D01*
X017382Y037450D01*
X017382Y037630D01*
X017337Y037675D01*
X017247Y037675D01*
X017202Y037630D01*
X017202Y037450D01*
X017087Y037405D02*
X016907Y037405D01*
X017087Y037585D01*
X017087Y037630D01*
X017042Y037675D01*
X016952Y037675D01*
X016907Y037630D01*
X016760Y038020D02*
X016805Y038065D01*
X016940Y038065D01*
X017054Y038020D02*
X017100Y038065D01*
X017791Y037675D02*
X017971Y037675D01*
X018430Y037885D02*
X018430Y038065D01*
X018520Y038065D02*
X018565Y038065D01*
X018520Y038065D02*
X018430Y037975D01*
X018675Y037885D02*
X018855Y037885D01*
X018765Y037885D02*
X018765Y038155D01*
X018675Y038065D01*
X016989Y037150D02*
X016944Y037195D01*
X016809Y037195D01*
X016809Y036925D01*
X016944Y036925D01*
X016989Y036970D01*
X016989Y037015D01*
X016944Y037060D01*
X016105Y036970D02*
X016060Y036925D01*
X015970Y036925D01*
X015925Y036970D01*
X015925Y037150D01*
X015970Y037195D01*
X016060Y037195D01*
X016105Y037150D01*
X016115Y033795D02*
X016070Y033750D01*
X016070Y033570D01*
X016115Y033525D01*
X016205Y033525D01*
X016250Y033570D01*
X016250Y033750D01*
X016205Y033795D01*
X016115Y033795D01*
X015955Y033795D02*
X015955Y033525D01*
X015775Y033525D02*
X015775Y033795D01*
X015865Y033705D01*
X015955Y033795D01*
X016364Y033750D02*
X016364Y033705D01*
X016409Y033660D01*
X016499Y033660D01*
X016544Y033615D01*
X016544Y033570D01*
X016499Y033525D01*
X016409Y033525D01*
X016364Y033570D01*
X016364Y033750D02*
X016409Y033795D01*
X016499Y033795D01*
X016544Y033750D01*
X016659Y033795D02*
X016749Y033795D01*
X016704Y033795D02*
X016704Y033525D01*
X016659Y033525D02*
X016749Y033525D01*
X016355Y032795D02*
X016265Y032795D01*
X016220Y032750D01*
X016220Y032705D01*
X016265Y032660D01*
X016355Y032660D01*
X016400Y032615D01*
X016400Y032570D01*
X016355Y032525D01*
X016265Y032525D01*
X016220Y032570D01*
X016105Y032570D02*
X016060Y032525D01*
X015970Y032525D01*
X015925Y032570D01*
X015970Y032660D02*
X016060Y032660D01*
X016105Y032615D01*
X016105Y032570D01*
X015970Y032660D02*
X015925Y032705D01*
X015925Y032750D01*
X015970Y032795D01*
X016060Y032795D01*
X016105Y032750D01*
X016355Y032795D02*
X016400Y032750D01*
X016775Y032011D02*
X016820Y032011D01*
X017000Y031830D01*
X017045Y031830D01*
X017045Y031716D02*
X016955Y031626D01*
X016955Y031671D02*
X016955Y031536D01*
X017045Y031536D02*
X016775Y031536D01*
X016775Y031671D01*
X016820Y031716D01*
X016910Y031716D01*
X016955Y031671D01*
X016775Y031830D02*
X016775Y032011D01*
X016554Y031795D02*
X016554Y031525D01*
X016464Y031525D02*
X016644Y031525D01*
X016464Y031705D02*
X016554Y031795D01*
X016350Y031795D02*
X016170Y031525D01*
X016350Y031525D02*
X016170Y031795D01*
X016055Y031795D02*
X015875Y031795D01*
X015965Y031795D02*
X015965Y031525D01*
X016010Y030795D02*
X016055Y030750D01*
X016055Y030660D01*
X016010Y030615D01*
X015875Y030615D01*
X015875Y030525D02*
X015875Y030795D01*
X016010Y030795D01*
X016170Y030795D02*
X016350Y030525D01*
X016464Y030525D02*
X016644Y030525D01*
X016554Y030525D02*
X016554Y030795D01*
X016464Y030705D01*
X016350Y030795D02*
X016170Y030525D01*
X016055Y030525D02*
X015965Y030615D01*
X021825Y033570D02*
X021870Y033525D01*
X021960Y033525D01*
X022005Y033570D01*
X022005Y033615D01*
X021960Y033660D01*
X021870Y033660D01*
X021825Y033705D01*
X021825Y033750D01*
X021870Y033795D01*
X021960Y033795D01*
X022005Y033750D01*
X022120Y033750D02*
X022120Y033570D01*
X022165Y033525D01*
X022255Y033525D01*
X022300Y033570D01*
X022414Y033525D02*
X022414Y033795D01*
X022300Y033750D02*
X022255Y033795D01*
X022165Y033795D01*
X022120Y033750D01*
X022414Y033615D02*
X022594Y033795D01*
X022459Y033660D02*
X022594Y033525D01*
D13*
X017198Y033591D03*
X016902Y033591D03*
X017502Y021509D03*
X017798Y021509D03*
X018102Y021509D03*
X018398Y021509D03*
D14*
X018250Y021509D03*
X017650Y021509D03*
X017050Y033591D03*
D15*
X017536Y017631D02*
X018441Y017631D01*
X017536Y017631D02*
X017536Y016922D01*
X017536Y015978D02*
X017536Y015702D01*
X019859Y017631D02*
X020764Y017631D01*
X020764Y016922D01*
X020764Y015978D02*
X020764Y015702D01*
D16*
X019445Y018105D02*
X019445Y018695D01*
X018855Y018695D02*
X018855Y018105D01*
X020446Y021139D02*
X020753Y021139D01*
X020830Y021216D01*
X020830Y021369D01*
X020753Y021446D01*
X020830Y021599D02*
X020523Y021906D01*
X020446Y021906D01*
X020370Y021829D01*
X020370Y021676D01*
X020446Y021599D01*
X020446Y021446D02*
X020370Y021369D01*
X020370Y021216D01*
X020446Y021139D01*
X020830Y021599D02*
X020830Y021906D01*
X020970Y021829D02*
X020970Y021676D01*
X021046Y021599D01*
X021353Y021599D01*
X021430Y021676D01*
X021430Y021829D01*
X021353Y021906D01*
X021430Y022060D02*
X021123Y022367D01*
X021046Y022367D01*
X020970Y022290D01*
X020970Y022136D01*
X021046Y022060D01*
X021046Y021906D02*
X020970Y021829D01*
X020753Y022060D02*
X020446Y022367D01*
X020753Y022367D01*
X020830Y022290D01*
X020830Y022136D01*
X020753Y022060D01*
X020446Y022060D01*
X020370Y022136D01*
X020370Y022290D01*
X020446Y022367D01*
X019630Y022340D02*
X019630Y022186D01*
X019553Y022110D01*
X019400Y022110D02*
X019323Y022263D01*
X019323Y022340D01*
X019400Y022417D01*
X019553Y022417D01*
X019630Y022340D01*
X019400Y022110D02*
X019170Y022110D01*
X019170Y022417D01*
X019170Y021803D02*
X019630Y021803D01*
X019630Y021956D02*
X019630Y021649D01*
X019553Y021496D02*
X019630Y021419D01*
X019630Y021266D01*
X019553Y021189D01*
X019246Y021189D01*
X019170Y021266D01*
X019170Y021419D01*
X019246Y021496D01*
X019323Y021649D02*
X019170Y021803D01*
X017830Y022816D02*
X017753Y022739D01*
X017446Y022739D01*
X017370Y022816D01*
X017370Y022969D01*
X017446Y023046D01*
X017446Y023199D02*
X017370Y023276D01*
X017370Y023429D01*
X017446Y023506D01*
X017523Y023506D01*
X017830Y023199D01*
X017830Y023506D01*
X017830Y023660D02*
X017523Y023967D01*
X017446Y023967D01*
X017370Y023890D01*
X017370Y023736D01*
X017446Y023660D01*
X017830Y023660D02*
X017830Y023967D01*
X017753Y023046D02*
X017830Y022969D01*
X017830Y022816D01*
X019605Y026335D02*
X019529Y026412D01*
X019529Y026796D01*
X019546Y026770D02*
X019470Y026847D01*
X019470Y027000D01*
X019546Y027077D01*
X019546Y027230D02*
X019470Y027307D01*
X019470Y027461D01*
X019546Y027537D01*
X019623Y027537D01*
X019930Y027230D01*
X019930Y027537D01*
X019930Y027691D02*
X019930Y027998D01*
X019930Y027844D02*
X019470Y027844D01*
X019623Y027691D01*
X019853Y027077D02*
X019930Y027000D01*
X019930Y026847D01*
X019853Y026770D01*
X019546Y026770D01*
X019836Y026796D02*
X019836Y026412D01*
X019759Y026335D01*
X019605Y026335D01*
X019989Y026335D02*
X020296Y026335D01*
X020143Y026335D02*
X020143Y026796D01*
X019989Y026642D01*
X018930Y026847D02*
X018930Y027000D01*
X018853Y027077D01*
X018930Y027230D02*
X018930Y027537D01*
X018930Y027384D02*
X018470Y027384D01*
X018623Y027230D01*
X018546Y027077D02*
X018470Y027000D01*
X018470Y026847D01*
X018546Y026770D01*
X018853Y026770D01*
X018930Y026847D01*
X018853Y027691D02*
X018930Y027768D01*
X018930Y027921D01*
X018853Y027998D01*
X018777Y027998D01*
X018700Y027921D01*
X018700Y027844D01*
X018700Y027921D02*
X018623Y027998D01*
X018546Y027998D01*
X018470Y027921D01*
X018470Y027768D01*
X018546Y027691D01*
X018311Y030270D02*
X018387Y030347D01*
X018387Y030654D01*
X018311Y030730D01*
X018157Y030730D01*
X018080Y030654D01*
X018080Y030577D01*
X018157Y030500D01*
X018387Y030500D01*
X018311Y030270D02*
X018157Y030270D01*
X018080Y030347D01*
X017927Y030270D02*
X017773Y030423D01*
X017850Y030423D02*
X017620Y030423D01*
X017620Y030270D02*
X017620Y030730D01*
X017850Y030730D01*
X017927Y030654D01*
X017927Y030500D01*
X017850Y030423D01*
X017856Y031770D02*
X017549Y031770D01*
X017856Y032077D01*
X017856Y032154D01*
X017779Y032230D01*
X017626Y032230D01*
X017549Y032154D01*
X017396Y032154D02*
X017319Y032230D01*
X017166Y032230D01*
X017089Y032154D01*
X017089Y031847D01*
X017166Y031770D01*
X017319Y031770D01*
X017396Y031847D01*
X018010Y031847D02*
X018010Y031923D01*
X018086Y032000D01*
X018240Y032000D01*
X018317Y031923D01*
X018317Y031847D01*
X018240Y031770D01*
X018086Y031770D01*
X018010Y031847D01*
X018086Y032000D02*
X018010Y032077D01*
X018010Y032154D01*
X018086Y032230D01*
X018240Y032230D01*
X018317Y032154D01*
X018317Y032077D01*
X018240Y032000D01*
X018010Y032970D02*
X018010Y033047D01*
X018317Y033354D01*
X018317Y033430D01*
X018010Y033430D01*
X017856Y033354D02*
X017779Y033430D01*
X017626Y033430D01*
X017549Y033354D01*
X017396Y033354D02*
X017319Y033430D01*
X017166Y033430D01*
X017089Y033354D01*
X017089Y033047D01*
X017166Y032970D01*
X017319Y032970D01*
X017396Y033047D01*
X017549Y032970D02*
X017856Y033277D01*
X017856Y033354D01*
X017856Y032970D02*
X017549Y032970D01*
X021770Y033076D02*
X021846Y032999D01*
X021770Y033076D02*
X021770Y033229D01*
X021846Y033306D01*
X021923Y033306D01*
X022230Y032999D01*
X022230Y033306D01*
X022153Y033460D02*
X022230Y033536D01*
X022230Y033690D01*
X022153Y033767D01*
X021846Y033767D01*
X021770Y033690D01*
X021770Y033536D01*
X021846Y033460D01*
X021923Y033460D01*
X022000Y033536D01*
X022000Y033767D01*
X022153Y032846D02*
X022230Y032769D01*
X022230Y032616D01*
X022153Y032539D01*
X021846Y032539D01*
X021770Y032616D01*
X021770Y032769D01*
X021846Y032846D01*
X022030Y024767D02*
X022030Y024460D01*
X022030Y024613D02*
X021570Y024613D01*
X021723Y024460D01*
X022030Y024306D02*
X022030Y023999D01*
X022030Y024153D02*
X021570Y024153D01*
X021723Y023999D01*
X021646Y023846D02*
X021570Y023769D01*
X021570Y023616D01*
X021646Y023539D01*
X021953Y023539D01*
X022030Y023616D01*
X022030Y023769D01*
X021953Y023846D01*
X022030Y023467D02*
X022030Y023160D01*
X021723Y023467D01*
X021646Y023467D01*
X021570Y023390D01*
X021570Y023236D01*
X021646Y023160D01*
X021570Y022853D02*
X022030Y022853D01*
X022030Y023006D02*
X022030Y022699D01*
X021953Y022546D02*
X022030Y022469D01*
X022030Y022316D01*
X021953Y022239D01*
X021646Y022239D01*
X021570Y022316D01*
X021570Y022469D01*
X021646Y022546D01*
X021723Y022699D02*
X021570Y022853D01*
X021570Y022367D02*
X021570Y022060D01*
X021800Y022060D01*
X021723Y022213D01*
X021723Y022290D01*
X021800Y022367D01*
X021953Y022367D01*
X022030Y022290D01*
X022030Y022136D01*
X021953Y022060D01*
X021953Y021906D02*
X022030Y021829D01*
X022030Y021676D01*
X021953Y021599D01*
X021646Y021599D01*
X021570Y021676D01*
X021570Y021829D01*
X021646Y021906D01*
X021430Y022060D02*
X021430Y022367D01*
D17*
X020896Y032505D02*
X020995Y032604D01*
X020995Y034296D02*
X020896Y034395D01*
X019575Y034850D02*
X018925Y034850D01*
X018908Y034852D01*
X018891Y034856D01*
X018875Y034863D01*
X018861Y034873D01*
X018848Y034886D01*
X018838Y034900D01*
X018831Y034916D01*
X018827Y034933D01*
X018825Y034950D01*
X018825Y035550D02*
X018827Y035567D01*
X018831Y035584D01*
X018838Y035600D01*
X018848Y035614D01*
X018861Y035627D01*
X018875Y035637D01*
X018891Y035644D01*
X018908Y035648D01*
X018925Y035650D01*
X019575Y035650D01*
X019592Y035648D01*
X019609Y035644D01*
X019625Y035637D01*
X019639Y035627D01*
X019652Y035614D01*
X019662Y035600D01*
X019669Y035584D01*
X019673Y035567D01*
X019675Y035550D01*
X019675Y034950D02*
X019673Y034933D01*
X019669Y034916D01*
X019662Y034900D01*
X019652Y034886D01*
X019639Y034873D01*
X019625Y034863D01*
X019609Y034856D01*
X019592Y034852D01*
X019575Y034850D01*
X019204Y034395D02*
X019105Y034296D01*
X019105Y032604D02*
X019204Y032505D01*
D18*
X020434Y036691D02*
X020434Y036802D01*
X020471Y036838D01*
X020544Y036838D01*
X020581Y036802D01*
X020581Y036691D01*
X020654Y036691D02*
X020434Y036691D01*
X020581Y036765D02*
X020654Y036838D01*
X020654Y036912D02*
X020434Y036912D01*
X020434Y037059D01*
X020544Y036986D02*
X020544Y036912D01*
X021261Y036912D02*
X021481Y037059D01*
X021261Y037059D01*
X021261Y037133D02*
X021261Y037244D01*
X021297Y037280D01*
X021444Y037280D01*
X021481Y037244D01*
X021481Y037133D01*
X021261Y037133D01*
X021261Y036912D02*
X021481Y036912D01*
X021444Y036838D02*
X021481Y036802D01*
X021481Y036728D01*
X021444Y036691D01*
X021297Y036691D01*
X021261Y036728D01*
X021261Y036802D01*
X021297Y036838D01*
X021371Y036838D02*
X021371Y036765D01*
X021371Y036838D02*
X021444Y036838D01*
D19*
X020528Y023272D03*
D20*
X018050Y031250D02*
X017050Y031250D01*
X017033Y031252D01*
X017016Y031256D01*
X017000Y031263D01*
X016986Y031273D01*
X016973Y031286D01*
X016963Y031300D01*
X016956Y031316D01*
X016952Y031333D01*
X016950Y031350D01*
X016950Y031950D01*
X016952Y031967D01*
X016956Y031984D01*
X016963Y032000D01*
X016973Y032014D01*
X016986Y032027D01*
X017000Y032037D01*
X017016Y032044D01*
X017033Y032048D01*
X017050Y032050D01*
X018050Y032050D01*
X018067Y032048D01*
X018084Y032044D01*
X018100Y032037D01*
X018114Y032027D01*
X018127Y032014D01*
X018137Y032000D01*
X018144Y031984D01*
X018148Y031967D01*
X018150Y031950D01*
X018150Y031350D01*
X018148Y031333D01*
X018144Y031316D01*
X018137Y031300D01*
X018127Y031286D01*
X018114Y031273D01*
X018100Y031263D01*
X018084Y031256D01*
X018067Y031252D01*
X018050Y031250D01*
D21*
X018086Y032155D02*
X018086Y032255D01*
X018136Y032305D01*
X018186Y032255D01*
X018186Y032155D01*
X018186Y032230D02*
X018086Y032230D01*
X018039Y032305D02*
X017939Y032305D01*
X017989Y032305D02*
X017989Y032155D01*
X017892Y032180D02*
X017892Y032280D01*
X017867Y032305D01*
X017817Y032305D01*
X017792Y032280D01*
X017792Y032180D01*
X017817Y032155D01*
X017867Y032155D01*
X017892Y032180D01*
X017744Y032305D02*
X017644Y032155D01*
X017597Y032180D02*
X017597Y032280D01*
X017572Y032305D01*
X017497Y032305D01*
X017497Y032155D01*
X017572Y032155D01*
X017597Y032180D01*
X017450Y032155D02*
X017450Y032255D01*
X017400Y032305D01*
X017350Y032255D01*
X017350Y032155D01*
X017302Y032180D02*
X017302Y032280D01*
X017277Y032305D01*
X017227Y032305D01*
X017202Y032280D01*
X017202Y032180D01*
X017227Y032155D01*
X017277Y032155D01*
X017302Y032180D01*
X017350Y032230D02*
X017450Y032230D01*
X017155Y032155D02*
X017055Y032155D01*
X017055Y032305D01*
M02*
