G75*
%MOIN*%
%OFA0B0*%
%FSLAX24Y24*%
%IPPOS*%
%LPD*%
%AMOC8*
5,1,8,0,0,1.08239X$1,22.5*
%
%ADD10C,0.0250*%
%ADD11C,0.0050*%
%ADD12C,0.0100*%
D10*
X015300Y020550D03*
X015650Y019650D03*
X016150Y018650D03*
X017650Y019800D03*
X018650Y020400D03*
X018400Y018900D03*
X018400Y018150D03*
X019900Y018150D03*
X019650Y017050D03*
X021650Y017650D03*
X021650Y018650D03*
X022150Y018650D03*
X021900Y019650D03*
X022400Y019650D03*
X022400Y020750D03*
X023000Y020700D03*
X023000Y022650D03*
X023000Y023750D03*
X023050Y024750D03*
X022700Y024750D03*
X022200Y024650D03*
X021900Y024650D03*
X022150Y025750D03*
X022700Y025750D03*
X023050Y025650D03*
X022900Y026650D03*
X022650Y027650D03*
X022650Y028650D03*
X021750Y026650D03*
X020800Y025800D03*
X020650Y025150D03*
X020600Y024800D03*
X020600Y024400D03*
X020750Y024050D03*
X020850Y023550D03*
X020450Y023550D03*
X020350Y023000D03*
X020650Y023000D03*
X020050Y023000D03*
X019400Y022900D03*
X018950Y023000D03*
X018650Y023150D03*
X018650Y023800D03*
X018900Y024000D03*
X019000Y025300D03*
X018700Y025300D03*
X018150Y025900D03*
X018050Y026400D03*
X018400Y026400D03*
X019150Y026150D03*
X019400Y026400D03*
X019650Y026200D03*
X019900Y026400D03*
X020150Y026200D03*
X020400Y026400D03*
X019985Y025565D03*
X019400Y025550D03*
X019400Y027400D03*
X018650Y027400D03*
X018300Y027400D03*
X018050Y028600D03*
X018650Y028850D03*
X019150Y029150D03*
X019400Y028850D03*
X019150Y029650D03*
X019650Y030650D03*
X019900Y031900D03*
X020650Y032150D03*
X021400Y030550D03*
X022650Y030600D03*
X021150Y028600D03*
X018400Y030650D03*
X017650Y031400D03*
X017650Y031900D03*
X017650Y032400D03*
X017650Y033150D03*
X018650Y032150D03*
X019150Y033150D03*
X018400Y034550D03*
X017150Y030650D03*
X016150Y029650D03*
X016150Y028600D03*
X015650Y028650D03*
X015300Y028650D03*
X015300Y027650D03*
X015650Y027650D03*
X015400Y026650D03*
X015650Y025650D03*
X016150Y025650D03*
X016150Y024650D03*
X015400Y024650D03*
X015250Y023650D03*
X016150Y023550D03*
X016400Y022650D03*
X016400Y021650D03*
X017150Y021650D03*
X017400Y022550D03*
X017550Y023500D03*
X017900Y023400D03*
X017900Y023900D03*
X017550Y024150D03*
X017400Y024600D03*
X017650Y024900D03*
X017400Y025650D03*
X017400Y028600D03*
X015400Y032650D03*
X022900Y033650D03*
X022700Y034900D03*
X022900Y035650D03*
X021700Y022750D03*
X021150Y021650D03*
X021650Y020650D03*
X021400Y019650D03*
X015250Y021550D03*
D11*
X015125Y020442D02*
X015125Y015875D01*
X023175Y015875D01*
X023175Y020592D01*
X023083Y020500D01*
X023175Y020500D01*
X023175Y020452D02*
X021734Y020452D01*
X021733Y020450D02*
X021850Y020567D01*
X021850Y020733D01*
X021733Y020850D01*
X021567Y020850D01*
X021450Y020733D01*
X021450Y020567D01*
X021567Y020450D01*
X021733Y020450D01*
X021783Y020500D02*
X022917Y020500D01*
X023083Y020500D01*
X023131Y020549D02*
X023175Y020549D01*
X023175Y020403D02*
X018850Y020403D01*
X018850Y020355D02*
X023175Y020355D01*
X023175Y020306D02*
X018839Y020306D01*
X018850Y020317D02*
X018733Y020200D01*
X018567Y020200D01*
X018450Y020317D01*
X018450Y020483D01*
X018567Y020600D01*
X018733Y020600D01*
X018850Y020483D01*
X018850Y020317D01*
X018790Y020258D02*
X023175Y020258D01*
X023175Y020209D02*
X018742Y020209D01*
X018558Y020209D02*
X015125Y020209D01*
X015125Y020161D02*
X023175Y020161D01*
X023175Y020112D02*
X015125Y020112D01*
X015125Y020064D02*
X023175Y020064D01*
X023175Y020015D02*
X015125Y020015D01*
X015125Y019967D02*
X017534Y019967D01*
X017567Y020000D02*
X017450Y019883D01*
X017450Y019717D01*
X017567Y019600D01*
X017733Y019600D01*
X017850Y019717D01*
X017850Y019883D01*
X017733Y020000D01*
X017567Y020000D01*
X017485Y019918D02*
X015125Y019918D01*
X015125Y019870D02*
X017450Y019870D01*
X017450Y019821D02*
X015762Y019821D01*
X015733Y019850D02*
X015567Y019850D01*
X015450Y019733D01*
X015450Y019567D01*
X015567Y019450D01*
X015733Y019450D01*
X015850Y019567D01*
X015850Y019733D01*
X015733Y019850D01*
X015810Y019773D02*
X017450Y019773D01*
X017450Y019724D02*
X015850Y019724D01*
X015850Y019676D02*
X017492Y019676D01*
X017540Y019627D02*
X015850Y019627D01*
X015850Y019579D02*
X021200Y019579D01*
X021200Y019567D02*
X021317Y019450D01*
X021483Y019450D01*
X021600Y019567D01*
X021600Y019733D01*
X021483Y019850D01*
X021317Y019850D01*
X021200Y019733D01*
X021200Y019567D01*
X021237Y019530D02*
X015813Y019530D01*
X015764Y019482D02*
X021286Y019482D01*
X021200Y019627D02*
X017760Y019627D01*
X017808Y019676D02*
X021200Y019676D01*
X021200Y019724D02*
X017850Y019724D01*
X017850Y019773D02*
X021240Y019773D01*
X021288Y019821D02*
X017850Y019821D01*
X017850Y019870D02*
X023175Y019870D01*
X023175Y019918D02*
X017815Y019918D01*
X017766Y019967D02*
X023175Y019967D01*
X023175Y019821D02*
X022512Y019821D01*
X022483Y019850D02*
X022317Y019850D01*
X022200Y019733D01*
X022200Y019567D01*
X022317Y019450D01*
X022483Y019450D01*
X022600Y019567D01*
X022600Y019733D01*
X022483Y019850D01*
X022560Y019773D02*
X023175Y019773D01*
X023175Y019724D02*
X022600Y019724D01*
X022600Y019676D02*
X023175Y019676D01*
X023175Y019627D02*
X022600Y019627D01*
X022600Y019579D02*
X023175Y019579D01*
X023175Y019530D02*
X022563Y019530D01*
X022514Y019482D02*
X023175Y019482D01*
X023175Y019433D02*
X015125Y019433D01*
X015125Y019385D02*
X023175Y019385D01*
X023175Y019336D02*
X015125Y019336D01*
X015125Y019288D02*
X023175Y019288D01*
X023175Y019239D02*
X015125Y019239D01*
X015125Y019191D02*
X023175Y019191D01*
X023175Y019142D02*
X015125Y019142D01*
X015125Y019094D02*
X018311Y019094D01*
X018317Y019100D02*
X018200Y018983D01*
X018200Y018817D01*
X018317Y018700D01*
X018483Y018700D01*
X018600Y018817D01*
X018600Y018983D01*
X018483Y019100D01*
X018317Y019100D01*
X018262Y019045D02*
X015125Y019045D01*
X015125Y018997D02*
X018214Y018997D01*
X018200Y018948D02*
X015125Y018948D01*
X015125Y018900D02*
X018200Y018900D01*
X018200Y018851D02*
X015125Y018851D01*
X015125Y018803D02*
X016020Y018803D01*
X016067Y018850D02*
X015950Y018733D01*
X015950Y018567D01*
X016067Y018450D01*
X016233Y018450D01*
X016350Y018567D01*
X016350Y018733D01*
X016233Y018850D01*
X016067Y018850D01*
X015971Y018754D02*
X015125Y018754D01*
X015125Y018706D02*
X015950Y018706D01*
X015950Y018657D02*
X015125Y018657D01*
X015125Y018609D02*
X015950Y018609D01*
X015957Y018560D02*
X015125Y018560D01*
X015125Y018512D02*
X016006Y018512D01*
X016054Y018463D02*
X015125Y018463D01*
X015125Y018415D02*
X023175Y018415D01*
X023175Y018463D02*
X022246Y018463D01*
X022233Y018450D02*
X022350Y018567D01*
X022350Y018733D01*
X022233Y018850D01*
X022067Y018850D01*
X021950Y018733D01*
X021950Y018567D01*
X022067Y018450D01*
X022233Y018450D01*
X022294Y018512D02*
X023175Y018512D01*
X023175Y018560D02*
X022343Y018560D01*
X022350Y018609D02*
X023175Y018609D01*
X023175Y018657D02*
X022350Y018657D01*
X022350Y018706D02*
X023175Y018706D01*
X023175Y018754D02*
X022329Y018754D01*
X022280Y018803D02*
X023175Y018803D01*
X023175Y018851D02*
X018600Y018851D01*
X018600Y018900D02*
X023175Y018900D01*
X023175Y018948D02*
X018600Y018948D01*
X018586Y018997D02*
X023175Y018997D01*
X023175Y019045D02*
X018538Y019045D01*
X018489Y019094D02*
X023175Y019094D01*
X023175Y018366D02*
X015125Y018366D01*
X015125Y018318D02*
X018285Y018318D01*
X018317Y018350D02*
X018200Y018233D01*
X018200Y018067D01*
X018317Y017950D01*
X018483Y017950D01*
X018600Y018067D01*
X018600Y018233D01*
X018483Y018350D01*
X018317Y018350D01*
X018236Y018269D02*
X015125Y018269D01*
X015125Y018221D02*
X018200Y018221D01*
X018200Y018172D02*
X015125Y018172D01*
X015125Y018124D02*
X018200Y018124D01*
X018200Y018075D02*
X015125Y018075D01*
X015125Y018027D02*
X018241Y018027D01*
X018289Y017978D02*
X015125Y017978D01*
X015125Y017930D02*
X023175Y017930D01*
X023175Y017978D02*
X020011Y017978D01*
X019983Y017950D02*
X020100Y018067D01*
X020100Y018233D01*
X019983Y018350D01*
X019817Y018350D01*
X019700Y018233D01*
X019700Y018067D01*
X019817Y017950D01*
X019983Y017950D01*
X020059Y018027D02*
X023175Y018027D01*
X023175Y018075D02*
X020100Y018075D01*
X020100Y018124D02*
X023175Y018124D01*
X023175Y018172D02*
X020100Y018172D01*
X020100Y018221D02*
X023175Y018221D01*
X023175Y018269D02*
X020064Y018269D01*
X020015Y018318D02*
X023175Y018318D01*
X023175Y017881D02*
X015125Y017881D01*
X015125Y017833D02*
X021550Y017833D01*
X021567Y017850D02*
X021450Y017733D01*
X021450Y017567D01*
X021567Y017450D01*
X021733Y017450D01*
X021850Y017567D01*
X021850Y017733D01*
X021733Y017850D01*
X021567Y017850D01*
X021501Y017784D02*
X015125Y017784D01*
X015125Y017736D02*
X021453Y017736D01*
X021450Y017687D02*
X015125Y017687D01*
X015125Y017639D02*
X021450Y017639D01*
X021450Y017590D02*
X015125Y017590D01*
X015125Y017542D02*
X021476Y017542D01*
X021524Y017493D02*
X015125Y017493D01*
X015125Y017445D02*
X023175Y017445D01*
X023175Y017493D02*
X021776Y017493D01*
X021824Y017542D02*
X023175Y017542D01*
X023175Y017590D02*
X021850Y017590D01*
X021850Y017639D02*
X023175Y017639D01*
X023175Y017687D02*
X021850Y017687D01*
X021847Y017736D02*
X023175Y017736D01*
X023175Y017784D02*
X021799Y017784D01*
X021750Y017833D02*
X023175Y017833D01*
X023175Y017396D02*
X015125Y017396D01*
X015125Y017348D02*
X023175Y017348D01*
X023175Y017299D02*
X015125Y017299D01*
X015125Y017251D02*
X023175Y017251D01*
X023175Y017202D02*
X019781Y017202D01*
X019733Y017250D02*
X019567Y017250D01*
X019450Y017133D01*
X019450Y016967D01*
X019567Y016850D01*
X019733Y016850D01*
X019850Y016967D01*
X019850Y017133D01*
X019733Y017250D01*
X019829Y017154D02*
X023175Y017154D01*
X023175Y017105D02*
X019850Y017105D01*
X019850Y017057D02*
X023175Y017057D01*
X023175Y017008D02*
X019850Y017008D01*
X019842Y016960D02*
X023175Y016960D01*
X023175Y016911D02*
X019794Y016911D01*
X019745Y016863D02*
X023175Y016863D01*
X023175Y016814D02*
X015125Y016814D01*
X015125Y016766D02*
X023175Y016766D01*
X023175Y016717D02*
X015125Y016717D01*
X015125Y016669D02*
X023175Y016669D01*
X023175Y016620D02*
X015125Y016620D01*
X015125Y016572D02*
X023175Y016572D01*
X023175Y016523D02*
X015125Y016523D01*
X015125Y016475D02*
X023175Y016475D01*
X023175Y016426D02*
X015125Y016426D01*
X015125Y016378D02*
X023175Y016378D01*
X023175Y016329D02*
X015125Y016329D01*
X015125Y016281D02*
X023175Y016281D01*
X023175Y016232D02*
X015125Y016232D01*
X015125Y016184D02*
X023175Y016184D01*
X023175Y016135D02*
X015125Y016135D01*
X015125Y016087D02*
X023175Y016087D01*
X023175Y016038D02*
X015125Y016038D01*
X015125Y015990D02*
X023175Y015990D01*
X023175Y015941D02*
X015125Y015941D01*
X015125Y015893D02*
X023175Y015893D01*
X021733Y018450D02*
X021850Y018567D01*
X021850Y018733D01*
X021733Y018850D01*
X021567Y018850D01*
X021450Y018733D01*
X021450Y018567D01*
X021567Y018450D01*
X021733Y018450D01*
X021746Y018463D02*
X022054Y018463D01*
X022006Y018512D02*
X021794Y018512D01*
X021843Y018560D02*
X021957Y018560D01*
X021950Y018609D02*
X021850Y018609D01*
X021850Y018657D02*
X021950Y018657D01*
X021950Y018706D02*
X021850Y018706D01*
X021829Y018754D02*
X021971Y018754D01*
X022020Y018803D02*
X021780Y018803D01*
X021520Y018803D02*
X018585Y018803D01*
X018537Y018754D02*
X021471Y018754D01*
X021450Y018706D02*
X018488Y018706D01*
X018312Y018706D02*
X016350Y018706D01*
X016350Y018657D02*
X021450Y018657D01*
X021450Y018609D02*
X016350Y018609D01*
X016343Y018560D02*
X021457Y018560D01*
X021506Y018512D02*
X016294Y018512D01*
X016246Y018463D02*
X021554Y018463D01*
X021514Y019482D02*
X021786Y019482D01*
X021817Y019450D02*
X021983Y019450D01*
X022100Y019567D01*
X022100Y019733D01*
X021983Y019850D01*
X021817Y019850D01*
X021700Y019733D01*
X021700Y019567D01*
X021817Y019450D01*
X021737Y019530D02*
X021563Y019530D01*
X021600Y019579D02*
X021700Y019579D01*
X021700Y019627D02*
X021600Y019627D01*
X021600Y019676D02*
X021700Y019676D01*
X021700Y019724D02*
X021600Y019724D01*
X021560Y019773D02*
X021740Y019773D01*
X021788Y019821D02*
X021512Y019821D01*
X022012Y019821D02*
X022288Y019821D01*
X022240Y019773D02*
X022060Y019773D01*
X022100Y019724D02*
X022200Y019724D01*
X022200Y019676D02*
X022100Y019676D01*
X022100Y019627D02*
X022200Y019627D01*
X022200Y019579D02*
X022100Y019579D01*
X022063Y019530D02*
X022237Y019530D01*
X022286Y019482D02*
X022014Y019482D01*
X021566Y020452D02*
X018850Y020452D01*
X018833Y020500D02*
X021517Y020500D01*
X021469Y020549D02*
X018784Y020549D01*
X018736Y020597D02*
X021450Y020597D01*
X021450Y020646D02*
X015487Y020646D01*
X015500Y020633D02*
X015383Y020750D01*
X015217Y020750D01*
X015125Y020658D01*
X015125Y021392D01*
X015167Y021350D01*
X015333Y021350D01*
X015450Y021467D01*
X015450Y021633D01*
X015333Y021750D01*
X015167Y021750D01*
X015125Y021708D01*
X015125Y035925D01*
X023175Y035925D01*
X023175Y025808D01*
X023133Y025850D01*
X022967Y025850D01*
X022850Y025733D01*
X022850Y025567D01*
X022967Y025450D01*
X023133Y025450D01*
X023175Y025492D01*
X023175Y024908D01*
X023133Y024950D01*
X022967Y024950D01*
X022850Y024833D01*
X022850Y024667D01*
X022967Y024550D01*
X023133Y024550D01*
X023175Y024592D01*
X023175Y023858D01*
X023083Y023950D01*
X022917Y023950D01*
X022800Y023833D01*
X022800Y023667D01*
X022917Y023550D01*
X023083Y023550D01*
X023175Y023642D01*
X023175Y022758D01*
X023083Y022850D01*
X022917Y022850D01*
X022800Y022733D01*
X022800Y022567D01*
X022917Y022450D01*
X023083Y022450D01*
X023175Y022542D01*
X023175Y020808D01*
X023083Y020900D01*
X022917Y020900D01*
X022872Y020855D01*
X022525Y021202D01*
X022525Y021702D01*
X021677Y022550D01*
X021783Y022550D01*
X021900Y022667D01*
X021900Y022833D01*
X021783Y022950D01*
X021617Y022950D01*
X021500Y022833D01*
X021500Y022727D01*
X020925Y023302D01*
X020852Y023375D01*
X020558Y023375D01*
X020650Y023467D01*
X020650Y023633D01*
X020533Y023750D01*
X020367Y023750D01*
X020275Y023658D01*
X020275Y024498D01*
X020447Y024670D01*
X020517Y024600D01*
X020400Y024483D01*
X020400Y024317D01*
X020517Y024200D01*
X020617Y024200D01*
X020550Y024133D01*
X020550Y023967D01*
X020667Y023850D01*
X020833Y023850D01*
X020950Y023967D01*
X020950Y024133D01*
X020833Y024250D01*
X020733Y024250D01*
X020800Y024317D01*
X020800Y024483D01*
X020683Y024600D01*
X020517Y024600D01*
X020683Y024600D01*
X020800Y024717D01*
X020800Y024883D01*
X020733Y024950D01*
X020850Y025067D01*
X020850Y025233D01*
X020733Y025350D01*
X020567Y025350D01*
X020450Y025233D01*
X020450Y025067D01*
X020517Y025000D01*
X020442Y024925D01*
X020348Y024925D01*
X020275Y024852D01*
X020025Y024602D01*
X020025Y023348D01*
X020098Y023275D01*
X020248Y023125D01*
X020748Y023125D01*
X022275Y021598D01*
X022275Y021098D01*
X022348Y021025D01*
X022423Y020950D01*
X022317Y020950D01*
X022200Y020833D01*
X022200Y020667D01*
X022317Y020550D01*
X022483Y020550D01*
X022600Y020667D01*
X022600Y020773D01*
X022725Y020648D01*
X022798Y020575D01*
X022842Y020575D01*
X022917Y020500D01*
X022869Y020549D02*
X021831Y020549D01*
X021850Y020597D02*
X022270Y020597D01*
X022222Y020646D02*
X021850Y020646D01*
X021850Y020694D02*
X022200Y020694D01*
X022200Y020743D02*
X021840Y020743D01*
X021792Y020791D02*
X022200Y020791D01*
X022207Y020840D02*
X021743Y020840D01*
X021557Y020840D02*
X015125Y020840D01*
X015125Y020888D02*
X022255Y020888D01*
X022304Y020937D02*
X015125Y020937D01*
X015125Y020985D02*
X022388Y020985D01*
X022340Y021034D02*
X015125Y021034D01*
X015125Y021082D02*
X022291Y021082D01*
X022275Y021131D02*
X015125Y021131D01*
X015125Y021179D02*
X022275Y021179D01*
X022275Y021228D02*
X015125Y021228D01*
X015125Y021276D02*
X022275Y021276D01*
X022275Y021325D02*
X015125Y021325D01*
X015125Y021373D02*
X015144Y021373D01*
X015356Y021373D02*
X022275Y021373D01*
X022275Y021422D02*
X015404Y021422D01*
X015450Y021470D02*
X016297Y021470D01*
X016317Y021450D02*
X016483Y021450D01*
X016600Y021567D01*
X016950Y021567D01*
X017067Y021450D01*
X017233Y021450D01*
X017350Y021567D01*
X020950Y021567D01*
X021067Y021450D01*
X021233Y021450D01*
X021350Y021567D01*
X022275Y021567D01*
X022275Y021519D02*
X021301Y021519D01*
X021253Y021470D02*
X022275Y021470D01*
X022258Y021616D02*
X021350Y021616D01*
X021350Y021664D02*
X022209Y021664D01*
X022161Y021713D02*
X021350Y021713D01*
X021350Y021733D02*
X021350Y021567D01*
X021350Y021733D02*
X021233Y021850D01*
X021067Y021850D01*
X020950Y021733D01*
X020950Y021567D01*
X020950Y021616D02*
X017350Y021616D01*
X017350Y021664D02*
X020950Y021664D01*
X020950Y021713D02*
X017350Y021713D01*
X017350Y021733D02*
X017350Y021567D01*
X017301Y021519D02*
X020999Y021519D01*
X021047Y021470D02*
X017253Y021470D01*
X017047Y021470D02*
X016503Y021470D01*
X016551Y021519D02*
X016999Y021519D01*
X016950Y021567D02*
X016950Y021733D01*
X017067Y021850D01*
X017233Y021850D01*
X017350Y021733D01*
X017322Y021761D02*
X020978Y021761D01*
X021027Y021810D02*
X017273Y021810D01*
X017027Y021810D02*
X016523Y021810D01*
X016483Y021850D02*
X016317Y021850D01*
X016200Y021733D01*
X016200Y021567D01*
X015450Y021567D01*
X015450Y021519D02*
X016249Y021519D01*
X016200Y021567D02*
X016317Y021450D01*
X016200Y021616D02*
X015450Y021616D01*
X015419Y021664D02*
X016200Y021664D01*
X016200Y021713D02*
X015370Y021713D01*
X015130Y021713D02*
X015125Y021713D01*
X015125Y021761D02*
X016228Y021761D01*
X016277Y021810D02*
X015125Y021810D01*
X015125Y021858D02*
X022015Y021858D01*
X021967Y021907D02*
X015125Y021907D01*
X015125Y021955D02*
X021918Y021955D01*
X021870Y022004D02*
X015125Y022004D01*
X015125Y022052D02*
X021821Y022052D01*
X021773Y022101D02*
X015125Y022101D01*
X015125Y022149D02*
X021724Y022149D01*
X021676Y022198D02*
X015125Y022198D01*
X015125Y022246D02*
X021627Y022246D01*
X021579Y022295D02*
X015125Y022295D01*
X015125Y022343D02*
X021530Y022343D01*
X021482Y022392D02*
X017524Y022392D01*
X017483Y022350D02*
X017600Y022467D01*
X017600Y022633D01*
X017483Y022750D01*
X017317Y022750D01*
X017200Y022633D01*
X017200Y022467D01*
X017317Y022350D01*
X017483Y022350D01*
X017573Y022440D02*
X021433Y022440D01*
X021385Y022489D02*
X017600Y022489D01*
X017600Y022537D02*
X021336Y022537D01*
X021288Y022586D02*
X017600Y022586D01*
X017599Y022634D02*
X021239Y022634D01*
X021191Y022683D02*
X017550Y022683D01*
X017502Y022731D02*
X019286Y022731D01*
X019317Y022700D02*
X019483Y022700D01*
X019600Y022817D01*
X019600Y022983D01*
X019483Y023100D01*
X019317Y023100D01*
X019200Y022983D01*
X019200Y022817D01*
X019317Y022700D01*
X019238Y022780D02*
X016553Y022780D01*
X016600Y022733D02*
X016483Y022850D01*
X016317Y022850D01*
X016200Y022733D01*
X016200Y022567D01*
X016317Y022450D01*
X016483Y022450D01*
X016600Y022567D01*
X016600Y022733D01*
X016600Y022731D02*
X017298Y022731D01*
X017250Y022683D02*
X016600Y022683D01*
X016600Y022634D02*
X017201Y022634D01*
X017200Y022586D02*
X016600Y022586D01*
X016570Y022537D02*
X017200Y022537D01*
X017200Y022489D02*
X016521Y022489D01*
X016279Y022489D02*
X015125Y022489D01*
X015125Y022537D02*
X016230Y022537D01*
X016200Y022586D02*
X015125Y022586D01*
X015125Y022634D02*
X016200Y022634D01*
X016200Y022683D02*
X015125Y022683D01*
X015125Y022731D02*
X016200Y022731D01*
X016247Y022780D02*
X015125Y022780D01*
X015125Y022828D02*
X016295Y022828D01*
X016505Y022828D02*
X018839Y022828D01*
X018867Y022800D02*
X019033Y022800D01*
X019150Y022917D01*
X019150Y023083D01*
X019033Y023200D01*
X018867Y023200D01*
X018850Y023183D01*
X018850Y023233D01*
X018733Y023350D01*
X018567Y023350D01*
X018450Y023233D01*
X018450Y023067D01*
X018567Y022950D01*
X018733Y022950D01*
X018750Y022967D01*
X018750Y022917D01*
X018867Y022800D01*
X018791Y022877D02*
X015125Y022877D01*
X015125Y022925D02*
X018750Y022925D01*
X018544Y022974D02*
X015125Y022974D01*
X015125Y023022D02*
X018495Y023022D01*
X018450Y023071D02*
X015125Y023071D01*
X015125Y023119D02*
X018450Y023119D01*
X018450Y023168D02*
X015125Y023168D01*
X015125Y023216D02*
X017801Y023216D01*
X017817Y023200D02*
X017983Y023200D01*
X018100Y023317D01*
X018100Y023483D01*
X017983Y023600D01*
X017817Y023600D01*
X017700Y023483D01*
X017700Y023317D01*
X017817Y023200D01*
X017753Y023265D02*
X015125Y023265D01*
X015125Y023313D02*
X017704Y023313D01*
X017700Y023362D02*
X016244Y023362D01*
X016233Y023350D02*
X016350Y023467D01*
X016350Y023633D01*
X016233Y023750D01*
X016067Y023750D01*
X015950Y023633D01*
X015950Y023467D01*
X016067Y023350D01*
X016233Y023350D01*
X016293Y023410D02*
X017700Y023410D01*
X017700Y023459D02*
X016341Y023459D01*
X016350Y023507D02*
X017724Y023507D01*
X017773Y023556D02*
X016350Y023556D01*
X016350Y023604D02*
X020025Y023604D01*
X020025Y023556D02*
X018027Y023556D01*
X018076Y023507D02*
X020025Y023507D01*
X020025Y023459D02*
X018100Y023459D01*
X018100Y023410D02*
X020025Y023410D01*
X020025Y023362D02*
X018100Y023362D01*
X018096Y023313D02*
X018530Y023313D01*
X018482Y023265D02*
X018047Y023265D01*
X017999Y023216D02*
X018450Y023216D01*
X018770Y023313D02*
X020060Y023313D01*
X020109Y023265D02*
X018818Y023265D01*
X018850Y023216D02*
X020157Y023216D01*
X020206Y023168D02*
X019065Y023168D01*
X019114Y023119D02*
X020754Y023119D01*
X020803Y023071D02*
X019512Y023071D01*
X019561Y023022D02*
X020851Y023022D01*
X020900Y022974D02*
X019600Y022974D01*
X019600Y022925D02*
X020948Y022925D01*
X020997Y022877D02*
X019600Y022877D01*
X019600Y022828D02*
X021045Y022828D01*
X021094Y022780D02*
X019562Y022780D01*
X019514Y022731D02*
X021142Y022731D01*
X021302Y022925D02*
X021592Y022925D01*
X021544Y022877D02*
X021350Y022877D01*
X021399Y022828D02*
X021500Y022828D01*
X021500Y022780D02*
X021447Y022780D01*
X021496Y022731D02*
X021500Y022731D01*
X021690Y022537D02*
X022830Y022537D01*
X022800Y022586D02*
X021818Y022586D01*
X021867Y022634D02*
X022800Y022634D01*
X022800Y022683D02*
X021900Y022683D01*
X021900Y022731D02*
X022800Y022731D01*
X022847Y022780D02*
X021900Y022780D01*
X021900Y022828D02*
X022895Y022828D01*
X023105Y022828D02*
X023175Y022828D01*
X023175Y022780D02*
X023153Y022780D01*
X023175Y022877D02*
X021856Y022877D01*
X021808Y022925D02*
X023175Y022925D01*
X023175Y022974D02*
X021253Y022974D01*
X021205Y023022D02*
X023175Y023022D01*
X023175Y023071D02*
X021156Y023071D01*
X021108Y023119D02*
X023175Y023119D01*
X023175Y023168D02*
X021059Y023168D01*
X021011Y023216D02*
X023175Y023216D01*
X023175Y023265D02*
X020962Y023265D01*
X020914Y023313D02*
X023175Y023313D01*
X023175Y023362D02*
X020865Y023362D01*
X020641Y023459D02*
X023175Y023459D01*
X023175Y023507D02*
X020650Y023507D01*
X020650Y023556D02*
X022912Y023556D01*
X022863Y023604D02*
X020650Y023604D01*
X020630Y023653D02*
X022815Y023653D01*
X022800Y023701D02*
X020582Y023701D01*
X020533Y023750D02*
X022800Y023750D01*
X022800Y023798D02*
X020275Y023798D01*
X020275Y023750D02*
X020367Y023750D01*
X020318Y023701D02*
X020275Y023701D01*
X020275Y023847D02*
X022814Y023847D01*
X022862Y023895D02*
X020878Y023895D01*
X020926Y023944D02*
X022911Y023944D01*
X023089Y023944D02*
X023175Y023944D01*
X023175Y023992D02*
X020950Y023992D01*
X020950Y024041D02*
X023175Y024041D01*
X023175Y024089D02*
X020950Y024089D01*
X020945Y024138D02*
X023175Y024138D01*
X023175Y024186D02*
X020897Y024186D01*
X020848Y024235D02*
X023175Y024235D01*
X023175Y024283D02*
X020766Y024283D01*
X020800Y024332D02*
X023175Y024332D01*
X023175Y024380D02*
X020800Y024380D01*
X020800Y024429D02*
X023175Y024429D01*
X023175Y024477D02*
X022310Y024477D01*
X022283Y024450D02*
X022400Y024567D01*
X022400Y024733D01*
X022283Y024850D01*
X022117Y024850D01*
X022050Y024783D01*
X021983Y024850D01*
X021817Y024850D01*
X021700Y024733D01*
X021700Y024567D01*
X021817Y024450D01*
X021983Y024450D01*
X022050Y024517D01*
X022117Y024450D01*
X022283Y024450D01*
X022358Y024526D02*
X023175Y024526D01*
X023175Y024574D02*
X023157Y024574D01*
X022943Y024574D02*
X022400Y024574D01*
X022400Y024623D02*
X022895Y024623D01*
X022850Y024671D02*
X022400Y024671D01*
X022400Y024720D02*
X022850Y024720D01*
X022850Y024768D02*
X022365Y024768D01*
X022316Y024817D02*
X022850Y024817D01*
X022882Y024865D02*
X020800Y024865D01*
X020800Y024817D02*
X021784Y024817D01*
X021735Y024768D02*
X020800Y024768D01*
X020800Y024720D02*
X021700Y024720D01*
X021700Y024671D02*
X020754Y024671D01*
X020705Y024623D02*
X021700Y024623D01*
X021700Y024574D02*
X020709Y024574D01*
X020757Y024526D02*
X021742Y024526D01*
X021790Y024477D02*
X020800Y024477D01*
X020491Y024574D02*
X020351Y024574D01*
X020399Y024623D02*
X020495Y024623D01*
X020443Y024526D02*
X020302Y024526D01*
X020275Y024477D02*
X020400Y024477D01*
X020400Y024429D02*
X020275Y024429D01*
X020275Y024380D02*
X020400Y024380D01*
X020400Y024332D02*
X020275Y024332D01*
X020275Y024283D02*
X020434Y024283D01*
X020483Y024235D02*
X020275Y024235D01*
X020275Y024186D02*
X020603Y024186D01*
X020555Y024138D02*
X020275Y024138D01*
X020275Y024089D02*
X020550Y024089D01*
X020550Y024041D02*
X020275Y024041D01*
X020275Y023992D02*
X020550Y023992D01*
X020574Y023944D02*
X020275Y023944D01*
X020275Y023895D02*
X020622Y023895D01*
X020593Y023410D02*
X023175Y023410D01*
X023175Y023556D02*
X023088Y023556D01*
X023137Y023604D02*
X023175Y023604D01*
X023175Y023895D02*
X023138Y023895D01*
X023169Y024914D02*
X023175Y024914D01*
X023175Y024962D02*
X020745Y024962D01*
X020733Y024950D02*
X020733Y024950D01*
X020769Y024914D02*
X022931Y024914D01*
X023175Y025011D02*
X020793Y025011D01*
X020842Y025059D02*
X023175Y025059D01*
X023175Y025108D02*
X020850Y025108D01*
X020850Y025156D02*
X023175Y025156D01*
X023175Y025205D02*
X020850Y025205D01*
X020830Y025253D02*
X023175Y025253D01*
X023175Y025302D02*
X020781Y025302D01*
X020519Y025302D02*
X015125Y025302D01*
X015125Y025350D02*
X019317Y025350D01*
X019483Y025350D01*
X023175Y025350D01*
X023175Y025399D02*
X020101Y025399D01*
X020067Y025365D02*
X020185Y025483D01*
X020185Y025648D01*
X020067Y025765D01*
X019902Y025765D01*
X019785Y025648D01*
X019785Y025483D01*
X019902Y025365D01*
X020067Y025365D01*
X020149Y025447D02*
X023175Y025447D01*
X022922Y025496D02*
X020185Y025496D01*
X020185Y025544D02*
X022873Y025544D01*
X022850Y025593D02*
X022275Y025593D01*
X022233Y025550D02*
X022350Y025667D01*
X022350Y025833D01*
X022233Y025950D01*
X022067Y025950D01*
X021950Y025833D01*
X021950Y025667D01*
X022067Y025550D01*
X022233Y025550D01*
X022324Y025641D02*
X022850Y025641D01*
X022850Y025690D02*
X022350Y025690D01*
X022350Y025738D02*
X022855Y025738D01*
X022904Y025787D02*
X022350Y025787D01*
X022348Y025835D02*
X022952Y025835D01*
X023148Y025835D02*
X023175Y025835D01*
X023175Y025884D02*
X022299Y025884D01*
X022251Y025932D02*
X023175Y025932D01*
X023175Y025981D02*
X020902Y025981D01*
X020883Y026000D02*
X020717Y026000D01*
X020600Y025883D01*
X020600Y025717D01*
X020717Y025600D01*
X020883Y025600D01*
X021000Y025717D01*
X021000Y025883D01*
X020883Y026000D01*
X020951Y025932D02*
X022049Y025932D01*
X022001Y025884D02*
X020999Y025884D01*
X021000Y025835D02*
X021952Y025835D01*
X021950Y025787D02*
X021000Y025787D01*
X021000Y025738D02*
X021950Y025738D01*
X021950Y025690D02*
X020972Y025690D01*
X020924Y025641D02*
X021976Y025641D01*
X022025Y025593D02*
X020185Y025593D01*
X020185Y025641D02*
X020676Y025641D01*
X020628Y025690D02*
X020143Y025690D01*
X020095Y025738D02*
X020600Y025738D01*
X020600Y025787D02*
X018319Y025787D01*
X018350Y025817D02*
X018233Y025700D01*
X018067Y025700D01*
X017950Y025817D01*
X017950Y025983D01*
X018067Y026100D01*
X018233Y026100D01*
X018350Y025983D01*
X018350Y025817D01*
X018350Y025835D02*
X020600Y025835D01*
X020601Y025884D02*
X018350Y025884D01*
X018350Y025932D02*
X020649Y025932D01*
X020698Y025981D02*
X019263Y025981D01*
X019233Y025950D02*
X019350Y026067D01*
X019350Y026200D01*
X019450Y026200D01*
X019450Y026117D01*
X019567Y026000D01*
X019733Y026000D01*
X019850Y026117D01*
X019850Y026200D01*
X019950Y026200D01*
X019950Y026117D01*
X020067Y026000D01*
X020233Y026000D01*
X020350Y026117D01*
X020350Y026200D01*
X020483Y026200D01*
X020600Y026317D01*
X020600Y026483D01*
X020483Y026600D01*
X020317Y026600D01*
X020200Y026483D01*
X020200Y026400D01*
X020100Y026400D01*
X020100Y026483D01*
X019983Y026600D01*
X019817Y026600D01*
X019700Y026483D01*
X019700Y026400D01*
X019600Y026400D01*
X019600Y026483D01*
X019483Y026600D01*
X019317Y026600D01*
X019200Y026483D01*
X019200Y026350D01*
X019067Y026350D01*
X018950Y026233D01*
X018950Y026067D01*
X019067Y025950D01*
X019233Y025950D01*
X019312Y026029D02*
X019538Y026029D01*
X019490Y026078D02*
X019350Y026078D01*
X019350Y026126D02*
X019450Y026126D01*
X019450Y026175D02*
X019350Y026175D01*
X019200Y026369D02*
X018600Y026369D01*
X018600Y026417D02*
X019200Y026417D01*
X019200Y026466D02*
X018600Y026466D01*
X018600Y026483D02*
X018483Y026600D01*
X018317Y026600D01*
X018225Y026508D01*
X018133Y026600D01*
X017967Y026600D01*
X017850Y026483D01*
X017850Y026317D01*
X017967Y026200D01*
X018133Y026200D01*
X018225Y026292D01*
X018317Y026200D01*
X018483Y026200D01*
X018600Y026317D01*
X018600Y026483D01*
X018569Y026514D02*
X019231Y026514D01*
X019280Y026563D02*
X018520Y026563D01*
X018280Y026563D02*
X018170Y026563D01*
X018219Y026514D02*
X018231Y026514D01*
X018246Y026272D02*
X018204Y026272D01*
X018156Y026223D02*
X018294Y026223D01*
X018255Y026078D02*
X018950Y026078D01*
X018950Y026126D02*
X015125Y026126D01*
X015125Y026078D02*
X018045Y026078D01*
X017996Y026029D02*
X015125Y026029D01*
X015125Y025981D02*
X017950Y025981D01*
X017950Y025932D02*
X015125Y025932D01*
X015125Y025884D02*
X017950Y025884D01*
X017950Y025835D02*
X017498Y025835D01*
X017483Y025850D02*
X017317Y025850D01*
X017200Y025733D01*
X017200Y025567D01*
X017317Y025450D01*
X017483Y025450D01*
X017600Y025567D01*
X017600Y025733D01*
X017483Y025850D01*
X017546Y025787D02*
X017981Y025787D01*
X018029Y025738D02*
X017595Y025738D01*
X017600Y025690D02*
X019257Y025690D01*
X019305Y025738D02*
X018271Y025738D01*
X018350Y025981D02*
X019037Y025981D01*
X018988Y026029D02*
X018304Y026029D01*
X018506Y026223D02*
X018950Y026223D01*
X018950Y026175D02*
X015125Y026175D01*
X015125Y026223D02*
X017944Y026223D01*
X017896Y026272D02*
X015125Y026272D01*
X015125Y026320D02*
X017850Y026320D01*
X017850Y026369D02*
X015125Y026369D01*
X015125Y026417D02*
X017850Y026417D01*
X017850Y026466D02*
X015498Y026466D01*
X015483Y026450D02*
X015600Y026567D01*
X015600Y026733D01*
X015483Y026850D01*
X015317Y026850D01*
X015200Y026733D01*
X015200Y026567D01*
X015317Y026450D01*
X015483Y026450D01*
X015547Y026514D02*
X017881Y026514D01*
X017930Y026563D02*
X015595Y026563D01*
X015600Y026611D02*
X021550Y026611D01*
X021550Y026567D02*
X021550Y026733D01*
X021667Y026850D01*
X021833Y026850D01*
X021950Y026733D01*
X021950Y026567D01*
X021833Y026450D01*
X021667Y026450D01*
X021550Y026567D01*
X021555Y026563D02*
X020520Y026563D01*
X020569Y026514D02*
X021603Y026514D01*
X021652Y026466D02*
X020600Y026466D01*
X020600Y026417D02*
X023175Y026417D01*
X023175Y026369D02*
X020600Y026369D01*
X020600Y026320D02*
X023175Y026320D01*
X023175Y026272D02*
X020554Y026272D01*
X020506Y026223D02*
X023175Y026223D01*
X023175Y026175D02*
X020350Y026175D01*
X020350Y026126D02*
X023175Y026126D01*
X023175Y026078D02*
X020310Y026078D01*
X020262Y026029D02*
X023175Y026029D01*
X023175Y026466D02*
X022998Y026466D01*
X022983Y026450D02*
X023100Y026567D01*
X023100Y026733D01*
X022983Y026850D01*
X022817Y026850D01*
X022700Y026733D01*
X022700Y026567D01*
X022817Y026450D01*
X022983Y026450D01*
X023047Y026514D02*
X023175Y026514D01*
X023175Y026563D02*
X023095Y026563D01*
X023100Y026611D02*
X023175Y026611D01*
X023175Y026660D02*
X023100Y026660D01*
X023100Y026708D02*
X023175Y026708D01*
X023175Y026757D02*
X023076Y026757D01*
X023028Y026805D02*
X023175Y026805D01*
X023175Y026854D02*
X015125Y026854D01*
X015125Y026902D02*
X023175Y026902D01*
X023175Y026951D02*
X015125Y026951D01*
X015125Y026999D02*
X023175Y026999D01*
X023175Y027048D02*
X015125Y027048D01*
X015125Y027096D02*
X023175Y027096D01*
X023175Y027145D02*
X015125Y027145D01*
X015125Y027193D02*
X023175Y027193D01*
X023175Y027242D02*
X019524Y027242D01*
X019483Y027200D02*
X019600Y027317D01*
X019600Y027483D01*
X019483Y027600D01*
X019317Y027600D01*
X019200Y027483D01*
X019200Y027317D01*
X019317Y027200D01*
X019483Y027200D01*
X019573Y027290D02*
X023175Y027290D01*
X023175Y027339D02*
X019600Y027339D01*
X019600Y027387D02*
X023175Y027387D01*
X023175Y027436D02*
X019600Y027436D01*
X019599Y027484D02*
X022533Y027484D01*
X022567Y027450D02*
X022733Y027450D01*
X022850Y027567D01*
X022850Y027733D01*
X022733Y027850D01*
X022567Y027850D01*
X022450Y027733D01*
X022450Y027567D01*
X022567Y027450D01*
X022485Y027533D02*
X019550Y027533D01*
X019502Y027581D02*
X022450Y027581D01*
X022450Y027630D02*
X015125Y027630D01*
X015125Y027678D02*
X022450Y027678D01*
X022450Y027727D02*
X015125Y027727D01*
X015125Y027775D02*
X022492Y027775D01*
X022541Y027824D02*
X015125Y027824D01*
X015125Y027872D02*
X023175Y027872D01*
X023175Y027824D02*
X022759Y027824D01*
X022808Y027775D02*
X023175Y027775D01*
X023175Y027727D02*
X022850Y027727D01*
X022850Y027678D02*
X023175Y027678D01*
X023175Y027630D02*
X022850Y027630D01*
X022850Y027581D02*
X023175Y027581D01*
X023175Y027533D02*
X022815Y027533D01*
X022767Y027484D02*
X023175Y027484D01*
X023175Y027921D02*
X015125Y027921D01*
X015125Y027969D02*
X023175Y027969D01*
X023175Y028018D02*
X015125Y028018D01*
X015125Y028066D02*
X023175Y028066D01*
X023175Y028115D02*
X015125Y028115D01*
X015125Y028163D02*
X023175Y028163D01*
X023175Y028212D02*
X015125Y028212D01*
X015125Y028260D02*
X023175Y028260D01*
X023175Y028309D02*
X015125Y028309D01*
X015125Y028357D02*
X023175Y028357D01*
X023175Y028406D02*
X021238Y028406D01*
X021233Y028400D02*
X021350Y028517D01*
X021350Y028683D01*
X021233Y028800D01*
X021067Y028800D01*
X020950Y028683D01*
X020950Y028517D01*
X021067Y028400D01*
X021233Y028400D01*
X021287Y028454D02*
X022563Y028454D01*
X022567Y028450D02*
X022733Y028450D01*
X022850Y028567D01*
X022850Y028733D01*
X022733Y028850D01*
X022567Y028850D01*
X022450Y028733D01*
X022450Y028567D01*
X022567Y028450D01*
X022515Y028503D02*
X021335Y028503D01*
X021350Y028551D02*
X022466Y028551D01*
X022450Y028600D02*
X021350Y028600D01*
X021350Y028648D02*
X022450Y028648D01*
X022450Y028697D02*
X021336Y028697D01*
X021288Y028745D02*
X022462Y028745D01*
X022511Y028794D02*
X021239Y028794D01*
X021061Y028794D02*
X019600Y028794D01*
X019600Y028767D02*
X019600Y028933D01*
X019483Y029050D01*
X019333Y029050D01*
X019350Y029067D01*
X019350Y029233D01*
X019233Y029350D01*
X019067Y029350D01*
X018950Y029233D01*
X018950Y029067D01*
X019067Y028950D01*
X019217Y028950D01*
X019200Y028933D01*
X019200Y028767D01*
X019317Y028650D01*
X019483Y028650D01*
X019600Y028767D01*
X019578Y028745D02*
X021012Y028745D01*
X020964Y028697D02*
X019529Y028697D01*
X019600Y028842D02*
X022559Y028842D01*
X022741Y028842D02*
X023175Y028842D01*
X023175Y028794D02*
X022789Y028794D01*
X022838Y028745D02*
X023175Y028745D01*
X023175Y028697D02*
X022850Y028697D01*
X022850Y028648D02*
X023175Y028648D01*
X023175Y028600D02*
X022850Y028600D01*
X022834Y028551D02*
X023175Y028551D01*
X023175Y028503D02*
X022785Y028503D01*
X022737Y028454D02*
X023175Y028454D01*
X023175Y028891D02*
X019600Y028891D01*
X019594Y028939D02*
X023175Y028939D01*
X023175Y028988D02*
X019545Y028988D01*
X019497Y029036D02*
X023175Y029036D01*
X023175Y029085D02*
X019350Y029085D01*
X019350Y029133D02*
X023175Y029133D01*
X023175Y029182D02*
X019350Y029182D01*
X019350Y029230D02*
X023175Y029230D01*
X023175Y029279D02*
X019304Y029279D01*
X019256Y029327D02*
X023175Y029327D01*
X023175Y029376D02*
X015125Y029376D01*
X015125Y029424D02*
X023175Y029424D01*
X023175Y029473D02*
X019255Y029473D01*
X019233Y029450D02*
X019350Y029567D01*
X019350Y029733D01*
X019233Y029850D01*
X019067Y029850D01*
X018950Y029733D01*
X018950Y029567D01*
X019067Y029450D01*
X019233Y029450D01*
X019304Y029521D02*
X023175Y029521D01*
X023175Y029570D02*
X019350Y029570D01*
X019350Y029618D02*
X023175Y029618D01*
X023175Y029667D02*
X019350Y029667D01*
X019350Y029715D02*
X023175Y029715D01*
X023175Y029764D02*
X019319Y029764D01*
X019271Y029812D02*
X023175Y029812D01*
X023175Y029861D02*
X015125Y029861D01*
X015125Y029909D02*
X023175Y029909D01*
X023175Y029958D02*
X015125Y029958D01*
X015125Y030006D02*
X023175Y030006D01*
X023175Y030055D02*
X015125Y030055D01*
X015125Y030103D02*
X023175Y030103D01*
X023175Y030152D02*
X015125Y030152D01*
X015125Y030200D02*
X023175Y030200D01*
X023175Y030249D02*
X015125Y030249D01*
X015125Y030297D02*
X023175Y030297D01*
X023175Y030346D02*
X015125Y030346D01*
X015125Y030394D02*
X023175Y030394D01*
X023175Y030443D02*
X015125Y030443D01*
X015125Y030491D02*
X017026Y030491D01*
X017067Y030450D02*
X017233Y030450D01*
X017350Y030567D01*
X017350Y030733D01*
X017233Y030850D01*
X017067Y030850D01*
X016950Y030733D01*
X016950Y030567D01*
X017067Y030450D01*
X016978Y030540D02*
X015125Y030540D01*
X015125Y030588D02*
X016950Y030588D01*
X016950Y030637D02*
X015125Y030637D01*
X015125Y030685D02*
X016950Y030685D01*
X016951Y030734D02*
X015125Y030734D01*
X015125Y030782D02*
X016999Y030782D01*
X017048Y030831D02*
X015125Y030831D01*
X015125Y030879D02*
X023175Y030879D01*
X023175Y030831D02*
X019752Y030831D01*
X019733Y030850D02*
X019567Y030850D01*
X019450Y030733D01*
X019450Y030567D01*
X019567Y030450D01*
X019733Y030450D01*
X019850Y030567D01*
X019850Y030733D01*
X019733Y030850D01*
X019801Y030782D02*
X023175Y030782D01*
X023175Y030734D02*
X019849Y030734D01*
X019850Y030685D02*
X023175Y030685D01*
X023175Y030637D02*
X019850Y030637D01*
X019850Y030588D02*
X023175Y030588D01*
X023175Y030540D02*
X019822Y030540D01*
X019774Y030491D02*
X023175Y030491D01*
X023175Y030928D02*
X015125Y030928D01*
X015125Y030976D02*
X023175Y030976D01*
X023175Y031025D02*
X015125Y031025D01*
X015125Y031073D02*
X023175Y031073D01*
X023175Y031122D02*
X015125Y031122D01*
X015125Y031170D02*
X023175Y031170D01*
X023175Y031219D02*
X017751Y031219D01*
X017733Y031200D02*
X017850Y031317D01*
X017850Y031483D01*
X017733Y031600D01*
X017567Y031600D01*
X017450Y031483D01*
X017450Y031317D01*
X017567Y031200D01*
X017733Y031200D01*
X017800Y031267D02*
X023175Y031267D01*
X023175Y031316D02*
X017848Y031316D01*
X017850Y031364D02*
X023175Y031364D01*
X023175Y031413D02*
X017850Y031413D01*
X017850Y031461D02*
X023175Y031461D01*
X023175Y031510D02*
X017823Y031510D01*
X017775Y031558D02*
X023175Y031558D01*
X023175Y031607D02*
X015125Y031607D01*
X015125Y031655D02*
X023175Y031655D01*
X023175Y031704D02*
X019986Y031704D01*
X019983Y031700D02*
X020100Y031817D01*
X020100Y031983D01*
X019983Y032100D01*
X019817Y032100D01*
X019700Y031983D01*
X019700Y031817D01*
X019817Y031700D01*
X019983Y031700D01*
X020035Y031752D02*
X023175Y031752D01*
X023175Y031801D02*
X020083Y031801D01*
X020100Y031849D02*
X023175Y031849D01*
X023175Y031898D02*
X020100Y031898D01*
X020100Y031946D02*
X023175Y031946D01*
X023175Y031995D02*
X020777Y031995D01*
X020733Y031950D02*
X020850Y032067D01*
X020850Y032233D01*
X020733Y032350D01*
X020567Y032350D01*
X020450Y032233D01*
X020450Y032067D01*
X020567Y031950D01*
X020733Y031950D01*
X020826Y032043D02*
X023175Y032043D01*
X023175Y032092D02*
X020850Y032092D01*
X020850Y032140D02*
X023175Y032140D01*
X023175Y032189D02*
X020850Y032189D01*
X020846Y032237D02*
X023175Y032237D01*
X023175Y032286D02*
X020797Y032286D01*
X020749Y032334D02*
X023175Y032334D01*
X023175Y032383D02*
X017850Y032383D01*
X017850Y032431D02*
X023175Y032431D01*
X023175Y032480D02*
X017850Y032480D01*
X017850Y032483D02*
X017733Y032600D01*
X017567Y032600D01*
X017450Y032483D01*
X017450Y032317D01*
X017567Y032200D01*
X017733Y032200D01*
X017850Y032317D01*
X017850Y032483D01*
X017805Y032528D02*
X023175Y032528D01*
X023175Y032577D02*
X017756Y032577D01*
X017544Y032577D02*
X015600Y032577D01*
X015600Y032567D02*
X015483Y032450D01*
X015317Y032450D01*
X015200Y032567D01*
X015200Y032733D01*
X015317Y032850D01*
X015483Y032850D01*
X015600Y032733D01*
X015600Y032567D01*
X015561Y032528D02*
X017495Y032528D01*
X017450Y032480D02*
X015512Y032480D01*
X015600Y032625D02*
X023175Y032625D01*
X023175Y032674D02*
X015600Y032674D01*
X015600Y032722D02*
X023175Y032722D01*
X023175Y032771D02*
X015562Y032771D01*
X015514Y032819D02*
X023175Y032819D01*
X023175Y032868D02*
X015125Y032868D01*
X015125Y032916D02*
X023175Y032916D01*
X023175Y032965D02*
X019247Y032965D01*
X019233Y032950D02*
X019350Y033067D01*
X019350Y033233D01*
X019233Y033350D01*
X019067Y033350D01*
X018950Y033233D01*
X018950Y033067D01*
X019067Y032950D01*
X019233Y032950D01*
X019296Y033013D02*
X023175Y033013D01*
X023175Y033062D02*
X019344Y033062D01*
X019350Y033110D02*
X023175Y033110D01*
X023175Y033159D02*
X019350Y033159D01*
X019350Y033207D02*
X023175Y033207D01*
X023175Y033256D02*
X019327Y033256D01*
X019279Y033304D02*
X023175Y033304D01*
X023175Y033353D02*
X015125Y033353D01*
X015125Y033401D02*
X023175Y033401D01*
X023175Y033450D02*
X015125Y033450D01*
X015125Y033498D02*
X022769Y033498D01*
X022817Y033450D02*
X022983Y033450D01*
X023100Y033567D01*
X023100Y033733D01*
X022983Y033850D01*
X022817Y033850D01*
X022700Y033733D01*
X022700Y033567D01*
X022817Y033450D01*
X022721Y033547D02*
X015125Y033547D01*
X015125Y033595D02*
X022700Y033595D01*
X022700Y033644D02*
X015125Y033644D01*
X015125Y033692D02*
X022700Y033692D01*
X022708Y033741D02*
X015125Y033741D01*
X015125Y033789D02*
X022756Y033789D01*
X022805Y033838D02*
X015125Y033838D01*
X015125Y033886D02*
X023175Y033886D01*
X023175Y033838D02*
X022995Y033838D01*
X023044Y033789D02*
X023175Y033789D01*
X023175Y033741D02*
X023092Y033741D01*
X023100Y033692D02*
X023175Y033692D01*
X023175Y033644D02*
X023100Y033644D01*
X023100Y033595D02*
X023175Y033595D01*
X023175Y033547D02*
X023079Y033547D01*
X023031Y033498D02*
X023175Y033498D01*
X023175Y033935D02*
X015125Y033935D01*
X015125Y033983D02*
X023175Y033983D01*
X023175Y034032D02*
X015125Y034032D01*
X015125Y034080D02*
X023175Y034080D01*
X023175Y034129D02*
X015125Y034129D01*
X015125Y034177D02*
X023175Y034177D01*
X023175Y034226D02*
X015125Y034226D01*
X015125Y034274D02*
X023175Y034274D01*
X023175Y034323D02*
X015125Y034323D01*
X015125Y034371D02*
X018296Y034371D01*
X018317Y034350D02*
X018483Y034350D01*
X018600Y034467D01*
X018600Y034633D01*
X018483Y034750D01*
X018317Y034750D01*
X018200Y034633D01*
X018200Y034467D01*
X018317Y034350D01*
X018248Y034420D02*
X015125Y034420D01*
X015125Y034468D02*
X018200Y034468D01*
X018200Y034517D02*
X015125Y034517D01*
X015125Y034565D02*
X018200Y034565D01*
X018200Y034614D02*
X015125Y034614D01*
X015125Y034662D02*
X018229Y034662D01*
X018278Y034711D02*
X015125Y034711D01*
X015125Y034759D02*
X022558Y034759D01*
X022607Y034711D02*
X018522Y034711D01*
X018571Y034662D02*
X023175Y034662D01*
X023175Y034614D02*
X018600Y034614D01*
X018600Y034565D02*
X023175Y034565D01*
X023175Y034517D02*
X018600Y034517D01*
X018600Y034468D02*
X023175Y034468D01*
X023175Y034420D02*
X018552Y034420D01*
X018504Y034371D02*
X023175Y034371D01*
X023175Y034711D02*
X022793Y034711D01*
X022783Y034700D02*
X022900Y034817D01*
X022900Y034983D01*
X022783Y035100D01*
X022617Y035100D01*
X022500Y034983D01*
X022500Y034817D01*
X022617Y034700D01*
X022783Y034700D01*
X022842Y034759D02*
X023175Y034759D01*
X023175Y034808D02*
X022890Y034808D01*
X022900Y034856D02*
X023175Y034856D01*
X023175Y034905D02*
X022900Y034905D01*
X022900Y034953D02*
X023175Y034953D01*
X023175Y035002D02*
X022881Y035002D01*
X022833Y035050D02*
X023175Y035050D01*
X023175Y035099D02*
X022784Y035099D01*
X022616Y035099D02*
X015125Y035099D01*
X015125Y035147D02*
X023175Y035147D01*
X023175Y035196D02*
X015125Y035196D01*
X015125Y035244D02*
X023175Y035244D01*
X023175Y035293D02*
X015125Y035293D01*
X015125Y035341D02*
X023175Y035341D01*
X023175Y035390D02*
X015125Y035390D01*
X015125Y035438D02*
X023175Y035438D01*
X023175Y035487D02*
X023019Y035487D01*
X022983Y035450D02*
X023100Y035567D01*
X023100Y035733D01*
X022983Y035850D01*
X022817Y035850D01*
X022700Y035733D01*
X022700Y035567D01*
X022817Y035450D01*
X022983Y035450D01*
X023068Y035535D02*
X023175Y035535D01*
X023175Y035584D02*
X023100Y035584D01*
X023100Y035632D02*
X023175Y035632D01*
X023175Y035681D02*
X023100Y035681D01*
X023100Y035729D02*
X023175Y035729D01*
X023175Y035778D02*
X023055Y035778D01*
X023007Y035826D02*
X023175Y035826D01*
X023175Y035875D02*
X015125Y035875D01*
X015125Y035923D02*
X023175Y035923D01*
X022793Y035826D02*
X015125Y035826D01*
X015125Y035778D02*
X022745Y035778D01*
X022700Y035729D02*
X015125Y035729D01*
X015125Y035681D02*
X022700Y035681D01*
X022700Y035632D02*
X015125Y035632D01*
X015125Y035584D02*
X022700Y035584D01*
X022732Y035535D02*
X015125Y035535D01*
X015125Y035487D02*
X022781Y035487D01*
X022567Y035050D02*
X015125Y035050D01*
X015125Y035002D02*
X022519Y035002D01*
X022500Y034953D02*
X015125Y034953D01*
X015125Y034905D02*
X022500Y034905D01*
X022500Y034856D02*
X015125Y034856D01*
X015125Y034808D02*
X022510Y034808D01*
X020551Y032334D02*
X018749Y032334D01*
X018733Y032350D02*
X018567Y032350D01*
X018450Y032233D01*
X018450Y032067D01*
X018567Y031950D01*
X018733Y031950D01*
X018850Y032067D01*
X018850Y032233D01*
X018733Y032350D01*
X018797Y032286D02*
X020503Y032286D01*
X020454Y032237D02*
X018846Y032237D01*
X018850Y032189D02*
X020450Y032189D01*
X020450Y032140D02*
X018850Y032140D01*
X018850Y032092D02*
X019809Y032092D01*
X019760Y032043D02*
X018826Y032043D01*
X018777Y031995D02*
X019712Y031995D01*
X019700Y031946D02*
X017850Y031946D01*
X017850Y031983D02*
X017733Y032100D01*
X017567Y032100D01*
X017450Y031983D01*
X017450Y031817D01*
X017567Y031700D01*
X017733Y031700D01*
X017850Y031817D01*
X017850Y031983D01*
X017838Y031995D02*
X018523Y031995D01*
X018474Y032043D02*
X017790Y032043D01*
X017741Y032092D02*
X018450Y032092D01*
X018450Y032140D02*
X015125Y032140D01*
X015125Y032092D02*
X017559Y032092D01*
X017510Y032043D02*
X015125Y032043D01*
X015125Y031995D02*
X017462Y031995D01*
X017450Y031946D02*
X015125Y031946D01*
X015125Y031898D02*
X017450Y031898D01*
X017450Y031849D02*
X015125Y031849D01*
X015125Y031801D02*
X017467Y031801D01*
X017515Y031752D02*
X015125Y031752D01*
X015125Y031704D02*
X017564Y031704D01*
X017525Y031558D02*
X015125Y031558D01*
X015125Y031510D02*
X017477Y031510D01*
X017450Y031461D02*
X015125Y031461D01*
X015125Y031413D02*
X017450Y031413D01*
X017450Y031364D02*
X015125Y031364D01*
X015125Y031316D02*
X017452Y031316D01*
X017500Y031267D02*
X015125Y031267D01*
X015125Y031219D02*
X017549Y031219D01*
X017252Y030831D02*
X018298Y030831D01*
X018317Y030850D02*
X018200Y030733D01*
X018200Y030567D01*
X018317Y030450D01*
X018483Y030450D01*
X018600Y030567D01*
X018600Y030733D01*
X018483Y030850D01*
X018317Y030850D01*
X018249Y030782D02*
X017301Y030782D01*
X017349Y030734D02*
X018201Y030734D01*
X018200Y030685D02*
X017350Y030685D01*
X017350Y030637D02*
X018200Y030637D01*
X018200Y030588D02*
X017350Y030588D01*
X017322Y030540D02*
X018228Y030540D01*
X018276Y030491D02*
X017274Y030491D01*
X017736Y031704D02*
X019814Y031704D01*
X019765Y031752D02*
X017785Y031752D01*
X017833Y031801D02*
X019717Y031801D01*
X019700Y031849D02*
X017850Y031849D01*
X017850Y031898D02*
X019700Y031898D01*
X019991Y032092D02*
X020450Y032092D01*
X020474Y032043D02*
X020040Y032043D01*
X020088Y031995D02*
X020523Y031995D01*
X019548Y030831D02*
X018502Y030831D01*
X018551Y030782D02*
X019499Y030782D01*
X019451Y030734D02*
X018599Y030734D01*
X018600Y030685D02*
X019450Y030685D01*
X019450Y030637D02*
X018600Y030637D01*
X018600Y030588D02*
X019450Y030588D01*
X019478Y030540D02*
X018572Y030540D01*
X018524Y030491D02*
X019526Y030491D01*
X019029Y029812D02*
X016271Y029812D01*
X016233Y029850D02*
X016067Y029850D01*
X015950Y029733D01*
X015950Y029567D01*
X016067Y029450D01*
X016233Y029450D01*
X016350Y029567D01*
X016350Y029733D01*
X016233Y029850D01*
X016319Y029764D02*
X018981Y029764D01*
X018950Y029715D02*
X016350Y029715D01*
X016350Y029667D02*
X018950Y029667D01*
X018950Y029618D02*
X016350Y029618D01*
X016350Y029570D02*
X018950Y029570D01*
X018996Y029521D02*
X016304Y029521D01*
X016255Y029473D02*
X019045Y029473D01*
X019044Y029327D02*
X015125Y029327D01*
X015125Y029279D02*
X018996Y029279D01*
X018950Y029230D02*
X015125Y029230D01*
X015125Y029182D02*
X018950Y029182D01*
X018950Y029133D02*
X015125Y029133D01*
X015125Y029085D02*
X018950Y029085D01*
X018981Y029036D02*
X018747Y029036D01*
X018733Y029050D02*
X018567Y029050D01*
X018450Y028933D01*
X018450Y028767D01*
X018567Y028650D01*
X018733Y028650D01*
X018850Y028767D01*
X018850Y028933D01*
X018733Y029050D01*
X018795Y028988D02*
X019030Y028988D01*
X019206Y028939D02*
X018844Y028939D01*
X018850Y028891D02*
X019200Y028891D01*
X019200Y028842D02*
X018850Y028842D01*
X018850Y028794D02*
X019200Y028794D01*
X019222Y028745D02*
X018828Y028745D01*
X018779Y028697D02*
X019271Y028697D01*
X018521Y028697D02*
X018236Y028697D01*
X018250Y028683D02*
X018133Y028800D01*
X017967Y028800D01*
X017850Y028683D01*
X017850Y028517D01*
X017967Y028400D01*
X018133Y028400D01*
X018250Y028517D01*
X018250Y028683D01*
X018250Y028648D02*
X020950Y028648D01*
X020950Y028600D02*
X018250Y028600D01*
X018250Y028551D02*
X020950Y028551D01*
X020965Y028503D02*
X018235Y028503D01*
X018187Y028454D02*
X021013Y028454D01*
X021062Y028406D02*
X018138Y028406D01*
X017962Y028406D02*
X017488Y028406D01*
X017483Y028400D02*
X017600Y028517D01*
X017600Y028683D01*
X017483Y028800D01*
X017317Y028800D01*
X017200Y028683D01*
X017200Y028517D01*
X017317Y028400D01*
X017483Y028400D01*
X017537Y028454D02*
X017913Y028454D01*
X017865Y028503D02*
X017585Y028503D01*
X017600Y028551D02*
X017850Y028551D01*
X017850Y028600D02*
X017600Y028600D01*
X017600Y028648D02*
X017850Y028648D01*
X017864Y028697D02*
X017586Y028697D01*
X017538Y028745D02*
X017912Y028745D01*
X017961Y028794D02*
X017489Y028794D01*
X017311Y028794D02*
X016239Y028794D01*
X016233Y028800D02*
X016067Y028800D01*
X015950Y028683D01*
X015950Y028517D01*
X016067Y028400D01*
X016233Y028400D01*
X016350Y028517D01*
X016350Y028683D01*
X016233Y028800D01*
X016288Y028745D02*
X017262Y028745D01*
X017214Y028697D02*
X016336Y028697D01*
X016350Y028648D02*
X017200Y028648D01*
X017200Y028600D02*
X016350Y028600D01*
X016350Y028551D02*
X017200Y028551D01*
X017215Y028503D02*
X016335Y028503D01*
X016287Y028454D02*
X017263Y028454D01*
X017312Y028406D02*
X016238Y028406D01*
X016062Y028406D02*
X015125Y028406D01*
X015125Y028454D02*
X016013Y028454D01*
X015965Y028503D02*
X015125Y028503D01*
X015125Y028551D02*
X015950Y028551D01*
X015950Y028600D02*
X015125Y028600D01*
X015125Y028648D02*
X015950Y028648D01*
X015964Y028697D02*
X015125Y028697D01*
X015125Y028745D02*
X016012Y028745D01*
X016061Y028794D02*
X015125Y028794D01*
X015125Y028842D02*
X018450Y028842D01*
X018450Y028794D02*
X018139Y028794D01*
X018188Y028745D02*
X018472Y028745D01*
X018450Y028891D02*
X015125Y028891D01*
X015125Y028939D02*
X018456Y028939D01*
X018505Y028988D02*
X015125Y028988D01*
X015125Y029036D02*
X018553Y029036D01*
X018567Y027600D02*
X018475Y027508D01*
X018383Y027600D01*
X018217Y027600D01*
X018100Y027483D01*
X018100Y027317D01*
X018217Y027200D01*
X018383Y027200D01*
X018475Y027292D01*
X018567Y027200D01*
X018733Y027200D01*
X018850Y027317D01*
X018850Y027483D01*
X018733Y027600D01*
X018567Y027600D01*
X018548Y027581D02*
X018402Y027581D01*
X018450Y027533D02*
X018500Y027533D01*
X018473Y027290D02*
X018477Y027290D01*
X018526Y027242D02*
X018424Y027242D01*
X018176Y027242D02*
X015125Y027242D01*
X015125Y027290D02*
X018127Y027290D01*
X018100Y027339D02*
X015125Y027339D01*
X015125Y027387D02*
X018100Y027387D01*
X018100Y027436D02*
X015125Y027436D01*
X015125Y027484D02*
X018101Y027484D01*
X018150Y027533D02*
X015125Y027533D01*
X015125Y027581D02*
X018198Y027581D01*
X018752Y027581D02*
X019298Y027581D01*
X019250Y027533D02*
X018800Y027533D01*
X018849Y027484D02*
X019201Y027484D01*
X019200Y027436D02*
X018850Y027436D01*
X018850Y027387D02*
X019200Y027387D01*
X019200Y027339D02*
X018850Y027339D01*
X018823Y027290D02*
X019227Y027290D01*
X019276Y027242D02*
X018774Y027242D01*
X018600Y026320D02*
X019037Y026320D01*
X018989Y026272D02*
X018554Y026272D01*
X019200Y025633D02*
X019200Y025467D01*
X019317Y025350D01*
X019269Y025399D02*
X015125Y025399D01*
X015125Y025447D02*
X019220Y025447D01*
X019200Y025496D02*
X017528Y025496D01*
X017577Y025544D02*
X019200Y025544D01*
X019200Y025593D02*
X017600Y025593D01*
X017600Y025641D02*
X019208Y025641D01*
X019200Y025633D02*
X019317Y025750D01*
X019483Y025750D01*
X019600Y025633D01*
X019600Y025467D01*
X019483Y025350D01*
X019531Y025399D02*
X019869Y025399D01*
X019820Y025447D02*
X019580Y025447D01*
X019600Y025496D02*
X019785Y025496D01*
X019785Y025544D02*
X019600Y025544D01*
X019600Y025593D02*
X019785Y025593D01*
X019785Y025641D02*
X019592Y025641D01*
X019543Y025690D02*
X019826Y025690D01*
X019875Y025738D02*
X019495Y025738D01*
X019762Y026029D02*
X020038Y026029D01*
X019990Y026078D02*
X019810Y026078D01*
X019850Y026126D02*
X019950Y026126D01*
X019950Y026175D02*
X019850Y026175D01*
X019700Y026417D02*
X019600Y026417D01*
X019600Y026466D02*
X019700Y026466D01*
X019731Y026514D02*
X019569Y026514D01*
X019520Y026563D02*
X019780Y026563D01*
X020020Y026563D02*
X020280Y026563D01*
X020231Y026514D02*
X020069Y026514D01*
X020100Y026466D02*
X020200Y026466D01*
X020200Y026417D02*
X020100Y026417D01*
X020470Y025253D02*
X015125Y025253D01*
X015125Y025205D02*
X020450Y025205D01*
X020450Y025156D02*
X015125Y025156D01*
X015125Y025108D02*
X020450Y025108D01*
X020458Y025059D02*
X017774Y025059D01*
X017733Y025100D02*
X017567Y025100D01*
X017450Y024983D01*
X017450Y024817D01*
X017567Y024700D01*
X017733Y024700D01*
X017850Y024817D01*
X017850Y024983D01*
X017733Y025100D01*
X017822Y025011D02*
X020507Y025011D01*
X020517Y025000D02*
X020517Y025000D01*
X020479Y024962D02*
X017850Y024962D01*
X017850Y024914D02*
X020337Y024914D01*
X020288Y024865D02*
X017850Y024865D01*
X017849Y024817D02*
X020240Y024817D01*
X020191Y024768D02*
X017801Y024768D01*
X017752Y024720D02*
X020143Y024720D01*
X020094Y024671D02*
X015600Y024671D01*
X015600Y024623D02*
X020046Y024623D01*
X020025Y024574D02*
X015600Y024574D01*
X015600Y024567D02*
X015483Y024450D01*
X015317Y024450D01*
X015200Y024567D01*
X015200Y024733D01*
X015317Y024850D01*
X015483Y024850D01*
X015600Y024733D01*
X015600Y024567D01*
X015558Y024526D02*
X020025Y024526D01*
X020025Y024477D02*
X015510Y024477D01*
X015290Y024477D02*
X015125Y024477D01*
X015125Y024429D02*
X020025Y024429D01*
X020025Y024380D02*
X015125Y024380D01*
X015125Y024332D02*
X017449Y024332D01*
X017467Y024350D02*
X017350Y024233D01*
X017350Y024067D01*
X017467Y023950D01*
X017633Y023950D01*
X017750Y024067D01*
X017750Y024233D01*
X017633Y024350D01*
X017467Y024350D01*
X017400Y024283D02*
X015125Y024283D01*
X015125Y024235D02*
X017352Y024235D01*
X017350Y024186D02*
X015125Y024186D01*
X015125Y024138D02*
X017350Y024138D01*
X017350Y024089D02*
X015125Y024089D01*
X015125Y024041D02*
X017377Y024041D01*
X017425Y023992D02*
X015125Y023992D01*
X015125Y023944D02*
X017700Y023944D01*
X017700Y023983D02*
X017700Y023817D01*
X017817Y023700D01*
X017983Y023700D01*
X018100Y023817D01*
X018100Y023983D01*
X017983Y024100D01*
X017817Y024100D01*
X017700Y023983D01*
X017709Y023992D02*
X017675Y023992D01*
X017723Y024041D02*
X017758Y024041D01*
X017750Y024089D02*
X017806Y024089D01*
X017750Y024138D02*
X020025Y024138D01*
X020025Y024186D02*
X017750Y024186D01*
X017748Y024235D02*
X020025Y024235D01*
X020025Y024283D02*
X017700Y024283D01*
X017651Y024332D02*
X020025Y024332D01*
X020025Y024089D02*
X017994Y024089D01*
X018042Y024041D02*
X020025Y024041D01*
X020025Y023992D02*
X018091Y023992D01*
X018100Y023944D02*
X020025Y023944D01*
X020025Y023895D02*
X018100Y023895D01*
X018100Y023847D02*
X020025Y023847D01*
X020025Y023798D02*
X018081Y023798D01*
X018032Y023750D02*
X020025Y023750D01*
X020025Y023701D02*
X017984Y023701D01*
X017816Y023701D02*
X016282Y023701D01*
X016330Y023653D02*
X020025Y023653D01*
X019288Y023071D02*
X019150Y023071D01*
X019150Y023022D02*
X019239Y023022D01*
X019200Y022974D02*
X019150Y022974D01*
X019150Y022925D02*
X019200Y022925D01*
X019200Y022877D02*
X019109Y022877D01*
X019061Y022828D02*
X019200Y022828D01*
X017768Y023750D02*
X016233Y023750D01*
X016067Y023750D02*
X015125Y023750D01*
X015125Y023798D02*
X017719Y023798D01*
X017700Y023847D02*
X015125Y023847D01*
X015125Y023895D02*
X017700Y023895D01*
X017548Y024720D02*
X015600Y024720D01*
X015565Y024768D02*
X017499Y024768D01*
X017451Y024817D02*
X015516Y024817D01*
X015284Y024817D02*
X015125Y024817D01*
X015125Y024865D02*
X017450Y024865D01*
X017450Y024914D02*
X015125Y024914D01*
X015125Y024962D02*
X017450Y024962D01*
X017478Y025011D02*
X015125Y025011D01*
X015125Y025059D02*
X017526Y025059D01*
X017272Y025496D02*
X016278Y025496D01*
X016233Y025450D02*
X016350Y025567D01*
X016350Y025733D01*
X016233Y025850D01*
X016067Y025850D01*
X015950Y025733D01*
X015950Y025567D01*
X016067Y025450D01*
X016233Y025450D01*
X016327Y025544D02*
X017223Y025544D01*
X017200Y025593D02*
X016350Y025593D01*
X016350Y025641D02*
X017200Y025641D01*
X017200Y025690D02*
X016350Y025690D01*
X016345Y025738D02*
X017205Y025738D01*
X017254Y025787D02*
X016296Y025787D01*
X016248Y025835D02*
X017302Y025835D01*
X016052Y025835D02*
X015748Y025835D01*
X015733Y025850D02*
X015567Y025850D01*
X015450Y025733D01*
X015450Y025567D01*
X015567Y025450D01*
X015733Y025450D01*
X015850Y025567D01*
X015850Y025733D01*
X015733Y025850D01*
X015796Y025787D02*
X016004Y025787D01*
X015955Y025738D02*
X015845Y025738D01*
X015850Y025690D02*
X015950Y025690D01*
X015950Y025641D02*
X015850Y025641D01*
X015850Y025593D02*
X015950Y025593D01*
X015973Y025544D02*
X015827Y025544D01*
X015778Y025496D02*
X016022Y025496D01*
X015522Y025496D02*
X015125Y025496D01*
X015125Y025544D02*
X015473Y025544D01*
X015450Y025593D02*
X015125Y025593D01*
X015125Y025641D02*
X015450Y025641D01*
X015450Y025690D02*
X015125Y025690D01*
X015125Y025738D02*
X015455Y025738D01*
X015504Y025787D02*
X015125Y025787D01*
X015125Y025835D02*
X015552Y025835D01*
X015302Y026466D02*
X015125Y026466D01*
X015125Y026514D02*
X015253Y026514D01*
X015205Y026563D02*
X015125Y026563D01*
X015125Y026611D02*
X015200Y026611D01*
X015200Y026660D02*
X015125Y026660D01*
X015125Y026708D02*
X015200Y026708D01*
X015224Y026757D02*
X015125Y026757D01*
X015125Y026805D02*
X015272Y026805D01*
X015528Y026805D02*
X021622Y026805D01*
X021574Y026757D02*
X015576Y026757D01*
X015600Y026708D02*
X021550Y026708D01*
X021550Y026660D02*
X015600Y026660D01*
X015235Y024768D02*
X015125Y024768D01*
X015125Y024720D02*
X015200Y024720D01*
X015200Y024671D02*
X015125Y024671D01*
X015125Y024623D02*
X015200Y024623D01*
X015200Y024574D02*
X015125Y024574D01*
X015125Y024526D02*
X015242Y024526D01*
X015125Y023701D02*
X016018Y023701D01*
X015970Y023653D02*
X015125Y023653D01*
X015125Y023604D02*
X015950Y023604D01*
X015950Y023556D02*
X015125Y023556D01*
X015125Y023507D02*
X015950Y023507D01*
X015959Y023459D02*
X015125Y023459D01*
X015125Y023410D02*
X016007Y023410D01*
X016056Y023362D02*
X015125Y023362D01*
X015125Y022440D02*
X017227Y022440D01*
X017276Y022392D02*
X015125Y022392D01*
X015125Y020791D02*
X021508Y020791D01*
X021460Y020743D02*
X015390Y020743D01*
X015439Y020694D02*
X021450Y020694D01*
X021322Y021761D02*
X022112Y021761D01*
X022064Y021810D02*
X021273Y021810D01*
X021787Y022440D02*
X023175Y022440D01*
X023175Y022392D02*
X021835Y022392D01*
X021884Y022343D02*
X023175Y022343D01*
X023175Y022295D02*
X021932Y022295D01*
X021981Y022246D02*
X023175Y022246D01*
X023175Y022198D02*
X022029Y022198D01*
X022078Y022149D02*
X023175Y022149D01*
X023175Y022101D02*
X022126Y022101D01*
X022175Y022052D02*
X023175Y022052D01*
X023175Y022004D02*
X022223Y022004D01*
X022272Y021955D02*
X023175Y021955D01*
X023175Y021907D02*
X022320Y021907D01*
X022369Y021858D02*
X023175Y021858D01*
X023175Y021810D02*
X022417Y021810D01*
X022466Y021761D02*
X023175Y021761D01*
X023175Y021713D02*
X022514Y021713D01*
X022525Y021664D02*
X023175Y021664D01*
X023175Y021616D02*
X022525Y021616D01*
X022525Y021567D02*
X023175Y021567D01*
X023175Y021519D02*
X022525Y021519D01*
X022525Y021470D02*
X023175Y021470D01*
X023175Y021422D02*
X022525Y021422D01*
X022525Y021373D02*
X023175Y021373D01*
X023175Y021325D02*
X022525Y021325D01*
X022525Y021276D02*
X023175Y021276D01*
X023175Y021228D02*
X022525Y021228D01*
X022548Y021179D02*
X023175Y021179D01*
X023175Y021131D02*
X022596Y021131D01*
X022645Y021082D02*
X023175Y021082D01*
X023175Y021034D02*
X022693Y021034D01*
X022742Y020985D02*
X023175Y020985D01*
X023175Y020937D02*
X022790Y020937D01*
X022839Y020888D02*
X022905Y020888D01*
X023095Y020888D02*
X023175Y020888D01*
X023175Y020840D02*
X023143Y020840D01*
X022776Y020597D02*
X022530Y020597D01*
X022578Y020646D02*
X022728Y020646D01*
X022725Y020648D02*
X022725Y020648D01*
X022679Y020694D02*
X022600Y020694D01*
X022600Y020743D02*
X022631Y020743D01*
X022879Y022489D02*
X021738Y022489D01*
X023121Y022489D02*
X023175Y022489D01*
X023170Y022537D02*
X023175Y022537D01*
X022090Y024477D02*
X022010Y024477D01*
X022016Y024817D02*
X022084Y024817D01*
X021848Y026466D02*
X022802Y026466D01*
X022753Y026514D02*
X021897Y026514D01*
X021945Y026563D02*
X022705Y026563D01*
X022700Y026611D02*
X021950Y026611D01*
X021950Y026660D02*
X022700Y026660D01*
X022700Y026708D02*
X021950Y026708D01*
X021926Y026757D02*
X022724Y026757D01*
X022772Y026805D02*
X021878Y026805D01*
X018450Y032189D02*
X015125Y032189D01*
X015125Y032237D02*
X017530Y032237D01*
X017482Y032286D02*
X015125Y032286D01*
X015125Y032334D02*
X017450Y032334D01*
X017450Y032383D02*
X015125Y032383D01*
X015125Y032431D02*
X017450Y032431D01*
X017770Y032237D02*
X018454Y032237D01*
X018503Y032286D02*
X017818Y032286D01*
X017850Y032334D02*
X018551Y032334D01*
X019053Y032965D02*
X017747Y032965D01*
X017733Y032950D02*
X017850Y033067D01*
X017850Y033233D01*
X017733Y033350D01*
X017567Y033350D01*
X017450Y033233D01*
X017450Y033067D01*
X017567Y032950D01*
X017733Y032950D01*
X017796Y033013D02*
X019004Y033013D01*
X018956Y033062D02*
X017844Y033062D01*
X017850Y033110D02*
X018950Y033110D01*
X018950Y033159D02*
X017850Y033159D01*
X017850Y033207D02*
X018950Y033207D01*
X018973Y033256D02*
X017827Y033256D01*
X017779Y033304D02*
X019021Y033304D01*
X017521Y033304D02*
X015125Y033304D01*
X015125Y033256D02*
X017473Y033256D01*
X017450Y033207D02*
X015125Y033207D01*
X015125Y033159D02*
X017450Y033159D01*
X017450Y033110D02*
X015125Y033110D01*
X015125Y033062D02*
X017456Y033062D01*
X017504Y033013D02*
X015125Y033013D01*
X015125Y032965D02*
X017553Y032965D01*
X015286Y032819D02*
X015125Y032819D01*
X015125Y032771D02*
X015238Y032771D01*
X015200Y032722D02*
X015125Y032722D01*
X015125Y032674D02*
X015200Y032674D01*
X015200Y032625D02*
X015125Y032625D01*
X015125Y032577D02*
X015200Y032577D01*
X015239Y032528D02*
X015125Y032528D01*
X015125Y032480D02*
X015288Y032480D01*
X015125Y029812D02*
X016029Y029812D01*
X015981Y029764D02*
X015125Y029764D01*
X015125Y029715D02*
X015950Y029715D01*
X015950Y029667D02*
X015125Y029667D01*
X015125Y029618D02*
X015950Y029618D01*
X015950Y029570D02*
X015125Y029570D01*
X015125Y029521D02*
X015996Y029521D01*
X016045Y029473D02*
X015125Y029473D01*
X016483Y021850D02*
X016600Y021733D01*
X016600Y021567D01*
X016600Y021616D02*
X016950Y021616D01*
X016950Y021664D02*
X016600Y021664D01*
X016600Y021713D02*
X016950Y021713D01*
X016978Y021761D02*
X016572Y021761D01*
X015500Y020633D02*
X015500Y020467D01*
X015383Y020350D01*
X015217Y020350D01*
X015125Y020442D01*
X015125Y020403D02*
X015164Y020403D01*
X015125Y020355D02*
X015213Y020355D01*
X015125Y020306D02*
X018461Y020306D01*
X018450Y020355D02*
X015387Y020355D01*
X015436Y020403D02*
X018450Y020403D01*
X018450Y020452D02*
X015484Y020452D01*
X015500Y020500D02*
X018467Y020500D01*
X018516Y020549D02*
X015500Y020549D01*
X015500Y020597D02*
X018564Y020597D01*
X018510Y020258D02*
X015125Y020258D01*
X015125Y020694D02*
X015161Y020694D01*
X015125Y020743D02*
X015210Y020743D01*
X015125Y019821D02*
X015538Y019821D01*
X015490Y019773D02*
X015125Y019773D01*
X015125Y019724D02*
X015450Y019724D01*
X015450Y019676D02*
X015125Y019676D01*
X015125Y019627D02*
X015450Y019627D01*
X015450Y019579D02*
X015125Y019579D01*
X015125Y019530D02*
X015487Y019530D01*
X015536Y019482D02*
X015125Y019482D01*
X016280Y018803D02*
X018215Y018803D01*
X018263Y018754D02*
X016329Y018754D01*
X015125Y017202D02*
X019519Y017202D01*
X019471Y017154D02*
X015125Y017154D01*
X015125Y017105D02*
X019450Y017105D01*
X019450Y017057D02*
X015125Y017057D01*
X015125Y017008D02*
X019450Y017008D01*
X019458Y016960D02*
X015125Y016960D01*
X015125Y016911D02*
X019506Y016911D01*
X019555Y016863D02*
X015125Y016863D01*
X018511Y017978D02*
X019789Y017978D01*
X019741Y018027D02*
X018559Y018027D01*
X018600Y018075D02*
X019700Y018075D01*
X019700Y018124D02*
X018600Y018124D01*
X018600Y018172D02*
X019700Y018172D01*
X019700Y018221D02*
X018600Y018221D01*
X018564Y018269D02*
X019736Y018269D01*
X019785Y018318D02*
X018515Y018318D01*
D12*
X022400Y021650D02*
X020800Y023250D01*
X020300Y023250D01*
X020150Y023400D01*
X020150Y024550D01*
X020400Y024800D01*
X020600Y024800D01*
X022400Y021650D02*
X022400Y021150D01*
X022850Y020700D01*
X023000Y020700D01*
M02*
