%
M48
M72
T01C0.0100
T02C0.0360
T03C0.0472
%
T01
X16850Y22550
X17050Y23150
X17850Y23100
X18050Y22900
X18350Y22800
X18750Y22900
X19050Y22900
X19250Y22650
X19450Y22850
X19350Y22300
X20050Y22900
X20500Y23200
X20900Y24200
X20900Y24500
X20900Y24800
X20900Y25100
X21350Y25300
X21450Y25600
X21450Y25900
X21450Y26200
X21400Y26650
X20850Y26450
X20600Y26850
X20350Y26400
X19950Y26450
X19700Y27100
X19850Y27350
X19050Y27650
X18650Y27400
X18200Y27650
X17650Y28050
X17650Y27250
X17850Y27050
X18050Y26850
X18900Y26800
X18800Y26400
X19250Y26400
X19050Y28550
X20250Y28450
X20300Y29900
X19250Y30050
X18850Y30250
X19400Y30650
X18450Y31250
X17650Y30650
X17250Y29850
X17450Y29450
X17050Y32050
X17450Y33050
X17050Y34300
X18250Y35050
X18850Y34450
X19450Y34650
X19650Y34850
X19850Y35050
X20200Y35000
X20200Y35200
X20200Y35400
X20200Y35600
X20200Y35800
X20200Y36000
X20900Y36000
X20900Y35800
X20900Y35600
X20900Y35400
X20900Y35200
X21050Y34650
X21350Y34650
X21500Y34200
X21250Y32650
X21000Y32500
X20150Y32200
X19650Y32150
X19450Y31950
X18900Y32550
X18800Y33150
X18750Y33450
X18800Y33750
X19850Y33650
X20050Y33450
X20250Y33250
X20250Y33650
X19850Y33250
X17050Y26050
X16850Y25850
X16650Y25050
X17050Y24950
X17350Y24800
X17300Y24400
X17400Y24100
X16900Y24450
X17350Y25350
X16200Y23650
X17600Y22100
X18650Y20650
X17450Y19650
X18650Y18250
X18250Y17650
X19050Y19050
X19450Y19050
X19650Y18250
X21250Y21600
X22050Y23650
T02
X22150Y23150
X22150Y22150
X22150Y21150
X22150Y20150
X22150Y19150
X22150Y18150
X22150Y17150
X22150Y24150
X22150Y25150
X22150Y26150
X22150Y27150
X22150Y28150
X22150Y29150
X22150Y30150
X22150Y31150
X22150Y32150
X22150Y33150
X16150Y33150
X16150Y32150
X16150Y31150
X16150Y30150
X16150Y29150
X16150Y28150
X16150Y27150
X16150Y26150
X16150Y25150
X16150Y24150
X16150Y23150
X16150Y22150
X16150Y21150
X16150Y20150
X16150Y19150
X16150Y18150
X16150Y17150
T03
X16150Y16150
X22150Y16150
X22150Y34150
X16150Y34150
M30
