G75*
%MOIN*%
%OFA0B0*%
%FSLAX24Y24*%
%IPPOS*%
%LPD*%
%AMOC8*
5,1,8,0,0,1.08239X$1,22.5*
%
%ADD10R,0.0394X0.0433*%
%ADD11C,0.0394*%
%ADD12R,0.0394X0.0394*%
%ADD13R,0.0748X0.1339*%
%ADD14R,0.0620X0.0620*%
%ADD15C,0.0620*%
%ADD16R,0.0354X0.0276*%
%ADD17R,0.0276X0.0866*%
%ADD18R,0.0276X0.0354*%
%ADD19R,0.0880X0.0480*%
%ADD20R,0.0866X0.1417*%
%ADD21R,0.0433X0.0394*%
%ADD22R,0.0591X0.0591*%
%ADD23R,0.0374X0.0354*%
%ADD24R,0.0394X0.0472*%
%ADD25C,0.0220*%
%ADD26C,0.0050*%
%ADD27C,0.0120*%
D10*
X017050Y016315D03*
X017050Y016985D03*
X020600Y019715D03*
X020600Y020385D03*
X021250Y020385D03*
X021250Y019715D03*
X020650Y022115D03*
X020650Y022785D03*
X021050Y016985D03*
X021050Y016315D03*
X020650Y033115D03*
X020650Y033785D03*
X019450Y033785D03*
X019450Y033115D03*
D11*
X016900Y033550D03*
D12*
X018650Y018644D03*
X018650Y017856D03*
X019450Y017856D03*
X019450Y018644D03*
D13*
X020018Y016650D03*
X018482Y016650D03*
D14*
X016150Y033150D03*
D15*
X016150Y032150D03*
X016150Y031150D03*
X016150Y030150D03*
X016150Y029150D03*
X016150Y028150D03*
X016150Y027150D03*
X016150Y026150D03*
X016150Y025150D03*
X016150Y024150D03*
X016150Y023150D03*
X016150Y022150D03*
X016150Y021150D03*
X016150Y020150D03*
X016150Y019150D03*
X016150Y018150D03*
X016150Y017150D03*
X022150Y017150D03*
X022150Y018150D03*
X022150Y019150D03*
X022150Y020150D03*
X022150Y021150D03*
X022150Y022150D03*
X022150Y023150D03*
X022150Y024150D03*
X022150Y025150D03*
X022150Y026150D03*
X022150Y027150D03*
X022150Y028150D03*
X022150Y029150D03*
X022150Y030150D03*
X022150Y031150D03*
X022150Y032150D03*
X022150Y033150D03*
D16*
X021050Y030906D03*
X021050Y030394D03*
X018250Y030394D03*
X018250Y030906D03*
X017650Y016906D03*
X017650Y016394D03*
D17*
X018900Y029167D03*
X019400Y029167D03*
X019900Y029167D03*
X020400Y029167D03*
X020400Y031333D03*
X019900Y031333D03*
X019400Y031333D03*
X018900Y031333D03*
D18*
X019106Y035050D03*
X018594Y035050D03*
X018594Y035650D03*
X019106Y035650D03*
X017906Y035050D03*
X017394Y035050D03*
D19*
X019670Y021560D03*
X019670Y020650D03*
X019670Y019740D03*
D20*
X017230Y020650D03*
D21*
X018115Y022400D03*
X018785Y022400D03*
X019515Y023650D03*
X019515Y024250D03*
X019515Y024850D03*
X018785Y024850D03*
X018785Y024250D03*
X018115Y024250D03*
X018115Y024850D03*
X020185Y024850D03*
X020185Y024250D03*
X020185Y023650D03*
D22*
X017650Y035650D03*
D23*
X021050Y029670D03*
X021050Y028430D03*
X017650Y018870D03*
X017650Y017630D03*
D24*
X021250Y022017D03*
X021250Y022883D03*
D25*
X020500Y023200D03*
X020050Y022900D03*
X019450Y022850D03*
X019250Y022650D03*
X019050Y022900D03*
X018750Y022900D03*
X018350Y022800D03*
X018050Y022900D03*
X017850Y023100D03*
X017050Y023150D03*
X016850Y022550D03*
X017600Y022100D03*
X018650Y020650D03*
X017450Y019650D03*
X018650Y018250D03*
X018250Y017650D03*
X019050Y019050D03*
X019450Y019050D03*
X019650Y018250D03*
X021250Y021600D03*
X022050Y023650D03*
X020900Y024200D03*
X020900Y024500D03*
X020900Y024800D03*
X020900Y025100D03*
X021350Y025300D03*
X021450Y025600D03*
X021450Y025900D03*
X021450Y026200D03*
X021400Y026650D03*
X020850Y026450D03*
X020600Y026850D03*
X020350Y026400D03*
X019950Y026450D03*
X019700Y027100D03*
X019850Y027350D03*
X019050Y027650D03*
X018650Y027400D03*
X018200Y027650D03*
X017650Y028050D03*
X017650Y027250D03*
X017850Y027050D03*
X018050Y026850D03*
X018900Y026800D03*
X018800Y026400D03*
X019250Y026400D03*
X019050Y028550D03*
X020250Y028450D03*
X020300Y029900D03*
X019250Y030050D03*
X018850Y030250D03*
X019400Y030650D03*
X018450Y031250D03*
X017650Y030650D03*
X017250Y029850D03*
X017450Y029450D03*
X017050Y032050D03*
X017450Y033050D03*
X017050Y034300D03*
X018250Y035050D03*
X018850Y034450D03*
X019450Y034650D03*
X019650Y034850D03*
X019850Y035050D03*
X020200Y035000D03*
X020200Y035200D03*
X020200Y035400D03*
X020200Y035600D03*
X020200Y035800D03*
X020200Y036000D03*
X020900Y036000D03*
X020900Y035800D03*
X020900Y035600D03*
X020900Y035400D03*
X020900Y035200D03*
X021050Y034650D03*
X021350Y034650D03*
X021500Y034200D03*
X021250Y032650D03*
X021000Y032500D03*
X020150Y032200D03*
X019650Y032150D03*
X019450Y031950D03*
X018900Y032550D03*
X018800Y033150D03*
X018750Y033450D03*
X018800Y033750D03*
X019850Y033650D03*
X020050Y033450D03*
X020250Y033250D03*
X020250Y033650D03*
X019850Y033250D03*
X017050Y026050D03*
X016850Y025850D03*
X016650Y025050D03*
X017050Y024950D03*
X017350Y024800D03*
X017300Y024400D03*
X017400Y024100D03*
X016900Y024450D03*
X017350Y025350D03*
X016200Y023650D03*
X019350Y022300D03*
D26*
X015875Y016881D02*
X015875Y016457D01*
X015917Y016499D01*
X016068Y016561D01*
X016232Y016561D01*
X016383Y016499D01*
X016499Y016383D01*
X016561Y016232D01*
X016728Y016232D01*
X016728Y016184D02*
X016561Y016184D01*
X016561Y016232D02*
X016561Y016068D01*
X016499Y015917D01*
X016457Y015875D01*
X021843Y015875D01*
X021801Y015917D01*
X021739Y016068D01*
X021739Y016232D01*
X021372Y016232D01*
X021372Y016184D02*
X021739Y016184D01*
X021739Y016232D02*
X021801Y016383D01*
X021917Y016499D01*
X022068Y016561D01*
X022232Y016561D01*
X022383Y016499D01*
X022425Y016457D01*
X022425Y016881D01*
X022368Y016824D01*
X022227Y016765D01*
X022073Y016765D01*
X021932Y016824D01*
X021824Y016932D01*
X021765Y017073D01*
X021765Y017227D01*
X021824Y017368D01*
X021932Y017476D01*
X022073Y017535D01*
X022227Y017535D01*
X022368Y017476D01*
X022425Y017419D01*
X022425Y017881D01*
X022368Y017824D01*
X022227Y017765D01*
X022073Y017765D01*
X021932Y017824D01*
X021824Y017932D01*
X021765Y018073D01*
X021765Y018227D01*
X021824Y018368D01*
X021932Y018476D01*
X022073Y018535D01*
X022227Y018535D01*
X022368Y018476D01*
X022425Y018419D01*
X022425Y018881D01*
X022368Y018824D01*
X022227Y018765D01*
X022073Y018765D01*
X021932Y018824D01*
X021824Y018932D01*
X021765Y019073D01*
X021765Y019227D01*
X021824Y019368D01*
X021932Y019476D01*
X022073Y019535D01*
X022227Y019535D01*
X022368Y019476D01*
X022425Y019419D01*
X022425Y019881D01*
X022368Y019824D01*
X022227Y019765D01*
X022073Y019765D01*
X021932Y019824D01*
X021824Y019932D01*
X021775Y020049D01*
X021522Y019796D01*
X021522Y019468D01*
X021478Y019424D01*
X021022Y019424D01*
X020978Y019468D01*
X020978Y019580D01*
X020872Y019580D01*
X020872Y019468D01*
X020828Y019424D01*
X020372Y019424D01*
X020328Y019468D01*
X020328Y019580D01*
X020185Y019580D01*
X020185Y019469D01*
X020141Y019425D01*
X019199Y019425D01*
X019155Y019469D01*
X019155Y019605D01*
X018196Y019605D01*
X017785Y019194D01*
X017785Y019122D01*
X017868Y019122D01*
X017912Y019078D01*
X017912Y018662D01*
X017868Y018618D01*
X017432Y018618D01*
X017388Y018662D01*
X017388Y019078D01*
X017432Y019122D01*
X017515Y019122D01*
X017515Y019306D01*
X018005Y019796D01*
X018084Y019875D01*
X019155Y019875D01*
X019155Y020011D01*
X019199Y020055D01*
X020141Y020055D01*
X020185Y020011D01*
X020185Y019850D01*
X020328Y019850D01*
X020328Y019963D01*
X020372Y020007D01*
X020828Y020007D01*
X020872Y019963D01*
X020872Y019850D01*
X020978Y019850D01*
X020978Y019963D01*
X021022Y020007D01*
X021351Y020007D01*
X021387Y020043D01*
X021275Y020043D01*
X021275Y020360D01*
X021225Y020360D01*
X020928Y020360D01*
X020928Y020152D01*
X020937Y020120D01*
X020953Y020091D01*
X020976Y020068D01*
X021005Y020052D01*
X021037Y020043D01*
X021225Y020043D01*
X021225Y020360D01*
X021225Y020410D01*
X021225Y020726D01*
X021037Y020726D01*
X021005Y020718D01*
X020976Y020701D01*
X020953Y020678D01*
X020937Y020649D01*
X020928Y020618D01*
X020928Y020410D01*
X021225Y020410D01*
X021275Y020410D01*
X021275Y020726D01*
X021463Y020726D01*
X021495Y020718D01*
X021515Y020706D01*
X021515Y021743D01*
X021478Y021706D01*
X021406Y021706D01*
X021435Y021677D01*
X021435Y021523D01*
X021327Y021415D01*
X021173Y021415D01*
X021065Y021523D01*
X021065Y021677D01*
X021094Y021706D01*
X021022Y021706D01*
X020978Y021750D01*
X020978Y022284D01*
X021022Y022328D01*
X021478Y022328D01*
X021515Y022291D01*
X021515Y022609D01*
X021478Y022572D01*
X021022Y022572D01*
X020978Y022616D01*
X020978Y022748D01*
X020922Y022748D01*
X020922Y022537D01*
X020878Y022493D01*
X020422Y022493D01*
X020378Y022537D01*
X020378Y023032D01*
X020392Y023046D01*
X020320Y023119D01*
X020320Y022979D01*
X020235Y022894D01*
X020235Y022823D01*
X020127Y022715D01*
X019973Y022715D01*
X019865Y022823D01*
X019865Y022977D01*
X019973Y023085D01*
X020044Y023085D01*
X020050Y023091D01*
X020050Y023378D01*
X019937Y023378D01*
X019893Y023422D01*
X019893Y023878D01*
X019937Y023922D01*
X020432Y023922D01*
X020476Y023878D01*
X020476Y023422D01*
X020439Y023385D01*
X020577Y023385D01*
X020685Y023277D01*
X020685Y023206D01*
X020785Y023106D01*
X020785Y023076D01*
X020878Y023076D01*
X020922Y023032D01*
X020922Y023018D01*
X020978Y023018D01*
X020978Y023150D01*
X021022Y023194D01*
X021478Y023194D01*
X021515Y023157D01*
X021515Y025203D01*
X021427Y025115D01*
X021273Y025115D01*
X021165Y025223D01*
X021165Y025377D01*
X021273Y025485D01*
X021303Y025485D01*
X021265Y025523D01*
X021265Y025677D01*
X021338Y025750D01*
X021265Y025823D01*
X021265Y025977D01*
X021338Y026050D01*
X021265Y026123D01*
X021265Y026277D01*
X021373Y026385D01*
X021515Y026385D01*
X021515Y027594D01*
X021415Y027694D01*
X020931Y028178D01*
X020832Y028178D01*
X020788Y028222D01*
X020788Y028638D01*
X020832Y028682D01*
X021268Y028682D01*
X021312Y028638D01*
X021312Y028222D01*
X021291Y028200D01*
X021550Y027941D01*
X021765Y028156D01*
X021765Y028227D01*
X021824Y028368D01*
X021932Y028476D01*
X022073Y028535D01*
X022227Y028535D01*
X022368Y028476D01*
X022425Y028419D01*
X022425Y028881D01*
X022368Y028824D01*
X022227Y028765D01*
X022073Y028765D01*
X021932Y028824D01*
X021824Y028932D01*
X021765Y029073D01*
X021765Y029227D01*
X021824Y029368D01*
X021932Y029476D01*
X022073Y029535D01*
X022227Y029535D01*
X022368Y029476D01*
X022425Y029419D01*
X022425Y029812D01*
X022425Y029812D01*
X022378Y029778D01*
X022317Y029747D01*
X022252Y029726D01*
X022184Y029715D01*
X022175Y029715D01*
X022175Y030125D01*
X022125Y030125D01*
X022125Y029715D01*
X022116Y029715D01*
X022048Y029726D01*
X021983Y029747D01*
X021922Y029778D01*
X021867Y029818D01*
X021818Y029867D01*
X021778Y029922D01*
X021747Y029983D01*
X021726Y030048D01*
X021715Y030116D01*
X021715Y030125D01*
X022125Y030125D01*
X022125Y030175D01*
X022125Y030585D01*
X022116Y030585D01*
X022048Y030574D01*
X021983Y030553D01*
X021922Y030522D01*
X021889Y030498D01*
X022156Y030765D01*
X022227Y030765D01*
X022368Y030824D01*
X022425Y030881D01*
X022425Y030488D01*
X022378Y030522D01*
X022317Y030553D01*
X022252Y030574D01*
X022184Y030585D01*
X022175Y030585D01*
X022175Y030175D01*
X022125Y030175D01*
X021715Y030175D01*
X021715Y030184D01*
X021726Y030252D01*
X021747Y030317D01*
X021778Y030378D01*
X021802Y030411D01*
X021291Y029900D01*
X021312Y029878D01*
X021312Y029462D01*
X021268Y029418D01*
X020832Y029418D01*
X020788Y029462D01*
X020788Y029878D01*
X020832Y029922D01*
X020931Y029922D01*
X020994Y029985D01*
X021190Y030181D01*
X020842Y030181D01*
X020798Y030225D01*
X020798Y030294D01*
X020236Y030294D01*
X020000Y030059D01*
X020000Y029675D01*
X020069Y029675D01*
X020113Y029631D01*
X020113Y028703D01*
X020069Y028659D01*
X019731Y028659D01*
X019687Y028703D01*
X019687Y029631D01*
X019731Y029675D01*
X019800Y029675D01*
X019800Y030141D01*
X020094Y030436D01*
X020153Y030494D01*
X020798Y030494D01*
X020798Y030563D01*
X020841Y030606D01*
X020253Y030606D01*
X020194Y030664D01*
X020109Y030750D01*
X020050Y030809D01*
X020050Y030825D01*
X019731Y030825D01*
X019687Y030869D01*
X019687Y031404D01*
X019613Y031478D01*
X019613Y030869D01*
X019569Y030825D01*
X019500Y030825D01*
X019500Y030812D01*
X019585Y030727D01*
X019585Y030573D01*
X019477Y030465D01*
X019323Y030465D01*
X019215Y030573D01*
X019215Y030727D01*
X019300Y030812D01*
X019300Y030825D01*
X019231Y030825D01*
X019187Y030869D01*
X019187Y031797D01*
X019231Y031841D01*
X019298Y031841D01*
X019288Y031850D01*
X019191Y031850D01*
X019113Y031771D01*
X019113Y030869D01*
X019069Y030825D01*
X018731Y030825D01*
X018687Y030869D01*
X018687Y031797D01*
X018731Y031841D01*
X018899Y031841D01*
X019009Y031950D01*
X018091Y031950D01*
X016486Y030345D01*
X016535Y030227D01*
X016535Y030073D01*
X016476Y029932D01*
X016368Y029824D01*
X016227Y029765D01*
X016073Y029765D01*
X015932Y029824D01*
X015875Y029881D01*
X015875Y029419D01*
X015932Y029476D01*
X016073Y029535D01*
X016227Y029535D01*
X016368Y029476D01*
X016476Y029368D01*
X016535Y029227D01*
X016535Y029073D01*
X016476Y028932D01*
X016368Y028824D01*
X016227Y028765D01*
X016073Y028765D01*
X015932Y028824D01*
X015875Y028881D01*
X015875Y028488D01*
X015922Y028522D01*
X015983Y028553D01*
X016048Y028574D01*
X016116Y028585D01*
X016125Y028585D01*
X016125Y028175D01*
X016175Y028175D01*
X016175Y028585D01*
X016184Y028585D01*
X016252Y028574D01*
X016317Y028553D01*
X016378Y028522D01*
X016433Y028482D01*
X016482Y028433D01*
X016522Y028378D01*
X016550Y028323D01*
X016550Y029691D01*
X017465Y030606D01*
X017465Y030727D01*
X017573Y030835D01*
X017727Y030835D01*
X017835Y030727D01*
X017835Y030573D01*
X017727Y030465D01*
X017606Y030465D01*
X016750Y029609D01*
X016750Y026609D01*
X016691Y026550D01*
X016486Y026345D01*
X016535Y026227D01*
X016535Y026073D01*
X016476Y025932D01*
X016368Y025824D01*
X016227Y025765D01*
X016073Y025765D01*
X015932Y025824D01*
X015875Y025881D01*
X015875Y025419D01*
X015932Y025476D01*
X016073Y025535D01*
X016227Y025535D01*
X016368Y025476D01*
X016476Y025368D01*
X016535Y025227D01*
X016535Y025197D01*
X016573Y025235D01*
X016727Y025235D01*
X016835Y025127D01*
X016835Y024973D01*
X016727Y024865D01*
X016873Y024865D01*
X016865Y024873D02*
X016973Y024765D01*
X017127Y024765D01*
X017235Y024873D01*
X017235Y025027D01*
X017127Y025135D01*
X016973Y025135D01*
X016865Y025027D01*
X016865Y024873D01*
X016865Y024914D02*
X016775Y024914D01*
X016824Y024962D02*
X016865Y024962D01*
X016865Y025011D02*
X016835Y025011D01*
X016835Y025059D02*
X016897Y025059D01*
X016946Y025108D02*
X016835Y025108D01*
X016806Y025156D02*
X018507Y025156D01*
X018520Y025163D02*
X018491Y025147D01*
X018468Y025124D01*
X018452Y025095D01*
X018443Y025063D01*
X018443Y024875D01*
X018760Y024875D01*
X018760Y025172D01*
X018552Y025172D01*
X018520Y025163D01*
X018459Y025108D02*
X018377Y025108D01*
X018363Y025122D02*
X017868Y025122D01*
X017824Y025078D01*
X017824Y024622D01*
X017868Y024578D01*
X017980Y024578D01*
X017980Y024522D01*
X017868Y024522D01*
X017824Y024478D01*
X017824Y024385D01*
X017541Y024385D01*
X017528Y024393D01*
X017487Y024385D01*
X017485Y024385D01*
X017485Y024477D01*
X017377Y024585D01*
X017223Y024585D01*
X017115Y024477D01*
X017115Y024323D01*
X017223Y024215D01*
X017253Y024215D01*
X017215Y024177D01*
X017215Y024023D01*
X017323Y023915D01*
X017477Y023915D01*
X017585Y024023D01*
X017585Y024115D01*
X017824Y024115D01*
X017824Y024022D01*
X017868Y023978D01*
X018363Y023978D01*
X018407Y024022D01*
X018407Y024478D01*
X018363Y024522D01*
X018250Y024522D01*
X018250Y024578D01*
X018363Y024578D01*
X018407Y024622D01*
X018407Y025078D01*
X018363Y025122D01*
X018407Y025059D02*
X018443Y025059D01*
X018443Y025011D02*
X018407Y025011D01*
X018407Y024962D02*
X018443Y024962D01*
X018443Y024914D02*
X018407Y024914D01*
X018407Y024865D02*
X018760Y024865D01*
X018760Y024875D02*
X018760Y024825D01*
X018810Y024825D01*
X018810Y024875D01*
X019126Y024875D01*
X019126Y025063D01*
X019118Y025095D01*
X019101Y025124D01*
X019078Y025147D01*
X019049Y025163D01*
X019018Y025172D01*
X018810Y025172D01*
X018810Y024875D01*
X018760Y024875D01*
X018760Y024914D02*
X018810Y024914D01*
X018810Y024962D02*
X018760Y024962D01*
X018760Y025011D02*
X018810Y025011D01*
X018810Y025059D02*
X018760Y025059D01*
X018760Y025108D02*
X018810Y025108D01*
X018810Y025156D02*
X018760Y025156D01*
X018810Y024865D02*
X019490Y024865D01*
X019490Y024875D02*
X019490Y024825D01*
X019174Y024825D01*
X019174Y024637D01*
X019182Y024605D01*
X019199Y024576D01*
X019222Y024553D01*
X019227Y024550D01*
X019222Y024547D01*
X019199Y024524D01*
X019182Y024495D01*
X019174Y024463D01*
X019174Y024275D01*
X019490Y024275D01*
X019490Y024225D01*
X019174Y024225D01*
X019174Y024037D01*
X019182Y024005D01*
X019199Y023976D01*
X019222Y023953D01*
X019227Y023950D01*
X019222Y023947D01*
X019199Y023924D01*
X019182Y023895D01*
X016440Y023895D01*
X016476Y023932D02*
X016368Y023824D01*
X016227Y023765D01*
X016073Y023765D01*
X015932Y023824D01*
X015875Y023881D01*
X015875Y023419D01*
X015932Y023476D01*
X016073Y023535D01*
X016227Y023535D01*
X016368Y023476D01*
X016476Y023368D01*
X016535Y023227D01*
X016535Y023073D01*
X016476Y022932D01*
X016368Y022824D01*
X016227Y022765D01*
X016073Y022765D01*
X015932Y022824D01*
X015875Y022881D01*
X015875Y022419D01*
X015932Y022476D01*
X016073Y022535D01*
X016227Y022535D01*
X016345Y022486D01*
X016809Y022950D01*
X017738Y022950D01*
X017665Y023023D01*
X017665Y023177D01*
X017773Y023285D01*
X017927Y023285D01*
X018035Y023177D01*
X018035Y023085D01*
X018127Y023085D01*
X018235Y022977D01*
X018235Y022947D01*
X018273Y022985D01*
X018427Y022985D01*
X018535Y022877D01*
X018535Y022723D01*
X018450Y022639D01*
X018457Y022613D01*
X018457Y022425D01*
X018140Y022425D01*
X018140Y022375D01*
X018140Y022078D01*
X018348Y022078D01*
X018380Y022087D01*
X018409Y022103D01*
X018432Y022126D01*
X018448Y022155D01*
X018457Y022187D01*
X018457Y022375D01*
X018140Y022375D01*
X018090Y022375D01*
X017774Y022375D01*
X017774Y022187D01*
X017782Y022155D01*
X017799Y022126D01*
X017822Y022103D01*
X017851Y022087D01*
X017882Y022078D01*
X018090Y022078D01*
X018090Y022375D01*
X018090Y022425D01*
X017774Y022425D01*
X017774Y022600D01*
X017341Y022600D01*
X016550Y021809D01*
X016550Y021409D01*
X016486Y021345D01*
X016535Y021227D01*
X016535Y021073D01*
X016476Y020932D01*
X016368Y020824D01*
X016227Y020765D01*
X016073Y020765D01*
X015932Y020824D01*
X015875Y020881D01*
X015875Y020419D01*
X015932Y020476D01*
X016073Y020535D01*
X016227Y020535D01*
X016368Y020476D01*
X016476Y020368D01*
X016535Y020227D01*
X016535Y020073D01*
X016476Y019932D01*
X016368Y019824D01*
X016227Y019765D01*
X016073Y019765D01*
X015932Y019824D01*
X015875Y019881D01*
X015875Y019419D01*
X015932Y019476D01*
X016073Y019535D01*
X016227Y019535D01*
X016368Y019476D01*
X016476Y019368D01*
X016535Y019227D01*
X016535Y019073D01*
X016476Y018932D01*
X016368Y018824D01*
X016227Y018765D01*
X016073Y018765D01*
X015932Y018824D01*
X015875Y018881D01*
X015875Y018419D01*
X015932Y018476D01*
X016073Y018535D01*
X016227Y018535D01*
X016368Y018476D01*
X016476Y018368D01*
X016535Y018227D01*
X016535Y018073D01*
X016476Y017932D01*
X016368Y017824D01*
X016227Y017765D01*
X016073Y017765D01*
X015932Y017824D01*
X015875Y017881D01*
X015875Y017419D01*
X015932Y017476D01*
X016073Y017535D01*
X016227Y017535D01*
X016368Y017476D01*
X016476Y017368D01*
X016535Y017227D01*
X016535Y017073D01*
X016476Y016932D01*
X016368Y016824D01*
X016227Y016765D01*
X016073Y016765D01*
X015932Y016824D01*
X015875Y016881D01*
X015875Y016863D02*
X015893Y016863D01*
X015875Y016814D02*
X015955Y016814D01*
X015875Y016766D02*
X016072Y016766D01*
X016228Y016766D02*
X016778Y016766D01*
X016778Y016737D02*
X016822Y016693D01*
X017278Y016693D01*
X017322Y016737D01*
X017322Y016771D01*
X017398Y016771D01*
X017398Y016737D01*
X017442Y016693D01*
X017858Y016693D01*
X017902Y016737D01*
X017902Y016771D01*
X018033Y016771D01*
X018033Y015950D01*
X018077Y015906D01*
X018887Y015906D01*
X018931Y015950D01*
X018931Y017315D01*
X019162Y017315D01*
X019569Y016908D01*
X019569Y015950D01*
X019613Y015906D01*
X020423Y015906D01*
X020467Y015950D01*
X020467Y016850D01*
X020778Y016850D01*
X020778Y016737D01*
X020822Y016693D01*
X021278Y016693D01*
X021322Y016737D01*
X021322Y017232D01*
X021278Y017276D01*
X020822Y017276D01*
X020778Y017232D01*
X020778Y017120D01*
X020467Y017120D01*
X020467Y017350D01*
X020423Y017394D01*
X019613Y017394D01*
X019569Y017350D01*
X019569Y017290D01*
X019274Y017584D01*
X019678Y017584D01*
X019722Y017628D01*
X019722Y018065D01*
X019727Y018065D01*
X019835Y018173D01*
X019835Y018327D01*
X019763Y018398D01*
X019763Y018399D01*
X019772Y018430D01*
X019772Y018619D01*
X019475Y018619D01*
X019475Y018669D01*
X019772Y018669D01*
X019772Y018857D01*
X019763Y018889D01*
X019747Y018917D01*
X019724Y018941D01*
X019695Y018957D01*
X019663Y018966D01*
X019627Y018966D01*
X019635Y018973D01*
X019635Y019127D01*
X019527Y019235D01*
X019373Y019235D01*
X019265Y019127D01*
X019265Y018973D01*
X019273Y018966D01*
X019237Y018966D01*
X019224Y018962D01*
X019235Y018973D01*
X019235Y019127D01*
X019127Y019235D01*
X018973Y019235D01*
X018865Y019127D01*
X018865Y018973D01*
X018876Y018962D01*
X018863Y018966D01*
X018675Y018966D01*
X018675Y018669D01*
X018625Y018669D01*
X018625Y018966D01*
X018437Y018966D01*
X018405Y018957D01*
X018376Y018941D01*
X018353Y018917D01*
X018337Y018889D01*
X018328Y018857D01*
X018328Y018669D01*
X018625Y018669D01*
X018625Y018619D01*
X018328Y018619D01*
X018328Y018430D01*
X018337Y018399D01*
X018353Y018370D01*
X018376Y018347D01*
X018405Y018330D01*
X018437Y018322D01*
X018465Y018322D01*
X018465Y018173D01*
X018510Y018128D01*
X018422Y018128D01*
X018378Y018084D01*
X018378Y017783D01*
X018327Y017835D01*
X018173Y017835D01*
X018065Y017727D01*
X018065Y017573D01*
X018173Y017465D01*
X018244Y017465D01*
X018315Y017394D01*
X018077Y017394D01*
X018033Y017350D01*
X018033Y017041D01*
X017902Y017041D01*
X017902Y017075D01*
X017858Y017119D01*
X017785Y017119D01*
X017785Y017378D01*
X017868Y017378D01*
X017912Y017422D01*
X017912Y017838D01*
X017868Y017882D01*
X017432Y017882D01*
X017388Y017838D01*
X017388Y017422D01*
X017432Y017378D01*
X017515Y017378D01*
X017515Y017119D01*
X017442Y017119D01*
X017398Y017075D01*
X017398Y017041D01*
X017322Y017041D01*
X017322Y017232D01*
X017278Y017276D01*
X016822Y017276D01*
X016778Y017232D01*
X016778Y016737D01*
X016798Y016717D02*
X015875Y016717D01*
X015875Y016669D02*
X018033Y016669D01*
X018033Y016717D02*
X017882Y016717D01*
X017902Y016766D02*
X018033Y016766D01*
X018033Y016620D02*
X017916Y016620D01*
X017927Y016609D02*
X017904Y016632D01*
X017875Y016648D01*
X017844Y016657D01*
X017675Y016657D01*
X017675Y016419D01*
X017952Y016419D01*
X017952Y016548D01*
X017944Y016580D01*
X017927Y016609D01*
X017946Y016572D02*
X018033Y016572D01*
X018033Y016523D02*
X017952Y016523D01*
X017952Y016475D02*
X018033Y016475D01*
X018033Y016426D02*
X017952Y016426D01*
X017952Y016369D02*
X017675Y016369D01*
X017675Y016131D01*
X017844Y016131D01*
X017875Y016140D01*
X017904Y016156D01*
X017927Y016180D01*
X017944Y016208D01*
X017952Y016240D01*
X017952Y016369D01*
X017952Y016329D02*
X018033Y016329D01*
X018033Y016281D02*
X017952Y016281D01*
X017950Y016232D02*
X018033Y016232D01*
X018033Y016184D02*
X017929Y016184D01*
X017857Y016135D02*
X018033Y016135D01*
X018033Y016087D02*
X017372Y016087D01*
X017372Y016082D02*
X017372Y016181D01*
X017373Y016180D01*
X017396Y016156D01*
X017425Y016140D01*
X017456Y016131D01*
X017625Y016131D01*
X017625Y016369D01*
X017675Y016369D01*
X017675Y016419D01*
X017625Y016419D01*
X017625Y016657D01*
X017456Y016657D01*
X017425Y016648D01*
X017396Y016632D01*
X017373Y016609D01*
X017360Y016586D01*
X017347Y016609D01*
X017324Y016632D01*
X017295Y016648D01*
X017263Y016657D01*
X017075Y016657D01*
X017075Y016340D01*
X017025Y016340D01*
X017025Y016290D01*
X017075Y016290D01*
X017075Y015974D01*
X017263Y015974D01*
X017295Y015982D01*
X017324Y015999D01*
X017347Y016022D01*
X017363Y016051D01*
X017372Y016082D01*
X017356Y016038D02*
X018033Y016038D01*
X018033Y015990D02*
X017308Y015990D01*
X017372Y016135D02*
X017443Y016135D01*
X017625Y016135D02*
X017675Y016135D01*
X017675Y016184D02*
X017625Y016184D01*
X017625Y016232D02*
X017675Y016232D01*
X017675Y016281D02*
X017625Y016281D01*
X017625Y016329D02*
X017675Y016329D01*
X017675Y016378D02*
X018033Y016378D01*
X017675Y016426D02*
X017625Y016426D01*
X017625Y016475D02*
X017675Y016475D01*
X017675Y016523D02*
X017625Y016523D01*
X017625Y016572D02*
X017675Y016572D01*
X017675Y016620D02*
X017625Y016620D01*
X017418Y016717D02*
X017302Y016717D01*
X017322Y016766D02*
X017398Y016766D01*
X017384Y016620D02*
X017336Y016620D01*
X017075Y016620D02*
X017025Y016620D01*
X017025Y016657D02*
X016837Y016657D01*
X016805Y016648D01*
X016776Y016632D01*
X016753Y016609D01*
X016737Y016580D01*
X016728Y016548D01*
X016728Y016340D01*
X017025Y016340D01*
X017025Y016657D01*
X017025Y016572D02*
X017075Y016572D01*
X017075Y016523D02*
X017025Y016523D01*
X017025Y016475D02*
X017075Y016475D01*
X017075Y016426D02*
X017025Y016426D01*
X017025Y016378D02*
X017075Y016378D01*
X017025Y016329D02*
X016521Y016329D01*
X016541Y016281D02*
X016728Y016281D01*
X016728Y016290D02*
X016728Y016082D01*
X016737Y016051D01*
X016753Y016022D01*
X016776Y015999D01*
X016805Y015982D01*
X016837Y015974D01*
X017025Y015974D01*
X017025Y016290D01*
X016728Y016290D01*
X016728Y016378D02*
X016501Y016378D01*
X016456Y016426D02*
X016728Y016426D01*
X016728Y016475D02*
X016407Y016475D01*
X016324Y016523D02*
X016728Y016523D01*
X016734Y016572D02*
X015875Y016572D01*
X015875Y016620D02*
X016764Y016620D01*
X016778Y016814D02*
X016345Y016814D01*
X016407Y016863D02*
X016778Y016863D01*
X016778Y016911D02*
X016455Y016911D01*
X016488Y016960D02*
X016778Y016960D01*
X016778Y017008D02*
X016508Y017008D01*
X016528Y017057D02*
X016778Y017057D01*
X016778Y017105D02*
X016535Y017105D01*
X016535Y017154D02*
X016778Y017154D01*
X016778Y017202D02*
X016535Y017202D01*
X016525Y017251D02*
X016796Y017251D01*
X016505Y017299D02*
X017515Y017299D01*
X017515Y017251D02*
X017304Y017251D01*
X017322Y017202D02*
X017515Y017202D01*
X017515Y017154D02*
X017322Y017154D01*
X017322Y017105D02*
X017428Y017105D01*
X017398Y017057D02*
X017322Y017057D01*
X017515Y017348D02*
X016485Y017348D01*
X016448Y017396D02*
X017414Y017396D01*
X017388Y017445D02*
X016400Y017445D01*
X016328Y017493D02*
X017388Y017493D01*
X017388Y017542D02*
X015875Y017542D01*
X015875Y017590D02*
X017388Y017590D01*
X017388Y017639D02*
X015875Y017639D01*
X015875Y017687D02*
X017388Y017687D01*
X017388Y017736D02*
X015875Y017736D01*
X015875Y017784D02*
X016028Y017784D01*
X015923Y017833D02*
X015875Y017833D01*
X015875Y017493D02*
X015972Y017493D01*
X015900Y017445D02*
X015875Y017445D01*
X016272Y017784D02*
X017388Y017784D01*
X017388Y017833D02*
X016377Y017833D01*
X016425Y017881D02*
X017431Y017881D01*
X017869Y017881D02*
X018378Y017881D01*
X018378Y017833D02*
X018329Y017833D01*
X018378Y017784D02*
X018378Y017784D01*
X018378Y017930D02*
X016474Y017930D01*
X016495Y017978D02*
X018378Y017978D01*
X018378Y018027D02*
X016516Y018027D01*
X016535Y018075D02*
X018378Y018075D01*
X018417Y018124D02*
X016535Y018124D01*
X016535Y018172D02*
X018466Y018172D01*
X018465Y018221D02*
X016535Y018221D01*
X016517Y018269D02*
X018465Y018269D01*
X018465Y018318D02*
X016497Y018318D01*
X016477Y018366D02*
X018357Y018366D01*
X018332Y018415D02*
X016430Y018415D01*
X016381Y018463D02*
X018328Y018463D01*
X018328Y018512D02*
X016283Y018512D01*
X016017Y018512D02*
X015875Y018512D01*
X015875Y018560D02*
X018328Y018560D01*
X018328Y018609D02*
X015875Y018609D01*
X015875Y018657D02*
X017393Y018657D01*
X017388Y018706D02*
X015875Y018706D01*
X015875Y018754D02*
X017388Y018754D01*
X017388Y018803D02*
X016317Y018803D01*
X016395Y018851D02*
X017388Y018851D01*
X017388Y018900D02*
X016444Y018900D01*
X016483Y018948D02*
X017388Y018948D01*
X017388Y018997D02*
X016503Y018997D01*
X016523Y019045D02*
X017388Y019045D01*
X017403Y019094D02*
X016535Y019094D01*
X016535Y019142D02*
X017515Y019142D01*
X017515Y019191D02*
X016535Y019191D01*
X016530Y019239D02*
X017515Y019239D01*
X017515Y019288D02*
X016510Y019288D01*
X016490Y019336D02*
X017545Y019336D01*
X017594Y019385D02*
X016460Y019385D01*
X016411Y019433D02*
X017642Y019433D01*
X017691Y019482D02*
X017543Y019482D01*
X017527Y019465D02*
X017635Y019573D01*
X017635Y019727D01*
X017527Y019835D01*
X017456Y019835D01*
X017425Y019866D01*
X017694Y019866D01*
X017738Y019910D01*
X017738Y021390D01*
X017694Y021434D01*
X016766Y021434D01*
X016722Y021390D01*
X016722Y019910D01*
X016766Y019866D01*
X017095Y019866D01*
X017095Y019814D01*
X017265Y019644D01*
X017265Y019573D01*
X017373Y019465D01*
X017527Y019465D01*
X017592Y019530D02*
X017739Y019530D01*
X017788Y019579D02*
X017635Y019579D01*
X017635Y019627D02*
X017836Y019627D01*
X017885Y019676D02*
X017635Y019676D01*
X017635Y019724D02*
X017933Y019724D01*
X017982Y019773D02*
X017589Y019773D01*
X017541Y019821D02*
X018030Y019821D01*
X018079Y019870D02*
X017697Y019870D01*
X017738Y019918D02*
X019155Y019918D01*
X019155Y019967D02*
X017738Y019967D01*
X017738Y020015D02*
X019159Y020015D01*
X019199Y020335D02*
X020141Y020335D01*
X020185Y020379D01*
X020185Y020921D01*
X020141Y020965D01*
X019199Y020965D01*
X019163Y020928D01*
X018920Y021171D01*
X018920Y022128D01*
X019032Y022128D01*
X019076Y022172D01*
X019076Y022562D01*
X019173Y022465D01*
X019327Y022465D01*
X019435Y022573D01*
X019435Y022665D01*
X019527Y022665D01*
X019635Y022773D01*
X019635Y022927D01*
X019527Y023035D01*
X019373Y023035D01*
X019265Y022927D01*
X019265Y022835D01*
X019235Y022835D01*
X019235Y022977D01*
X019127Y023085D01*
X018973Y023085D01*
X018900Y023012D01*
X018827Y023085D01*
X018673Y023085D01*
X018565Y022977D01*
X018565Y022823D01*
X018673Y022715D01*
X018827Y022715D01*
X018900Y022788D01*
X018973Y022715D01*
X019065Y022715D01*
X019065Y022639D01*
X019032Y022672D01*
X018537Y022672D01*
X018493Y022628D01*
X018493Y022172D01*
X018537Y022128D01*
X018650Y022128D01*
X018650Y021059D01*
X018659Y021050D01*
X018515Y020906D01*
X018515Y020777D01*
X018465Y020727D01*
X018465Y020573D01*
X018573Y020465D01*
X018727Y020465D01*
X018835Y020573D01*
X018835Y020727D01*
X018785Y020777D01*
X018785Y020794D01*
X018850Y020859D01*
X019115Y020594D01*
X019155Y020554D01*
X019155Y020379D01*
X019199Y020335D01*
X019180Y020355D02*
X017738Y020355D01*
X017738Y020403D02*
X019155Y020403D01*
X019155Y020452D02*
X017738Y020452D01*
X017738Y020500D02*
X018538Y020500D01*
X018490Y020549D02*
X017738Y020549D01*
X017738Y020597D02*
X018465Y020597D01*
X018465Y020646D02*
X017738Y020646D01*
X017738Y020694D02*
X018465Y020694D01*
X018481Y020743D02*
X017738Y020743D01*
X017738Y020791D02*
X018515Y020791D01*
X018515Y020840D02*
X017738Y020840D01*
X017738Y020888D02*
X018515Y020888D01*
X018546Y020937D02*
X017738Y020937D01*
X017738Y020985D02*
X018594Y020985D01*
X018643Y021034D02*
X017738Y021034D01*
X017738Y021082D02*
X018650Y021082D01*
X018650Y021131D02*
X017738Y021131D01*
X017738Y021179D02*
X018650Y021179D01*
X018650Y021228D02*
X017738Y021228D01*
X017738Y021276D02*
X018650Y021276D01*
X018650Y021325D02*
X017738Y021325D01*
X017738Y021373D02*
X018650Y021373D01*
X018650Y021422D02*
X017706Y021422D01*
X017827Y022101D02*
X016842Y022101D01*
X016890Y022149D02*
X017786Y022149D01*
X017774Y022198D02*
X016939Y022198D01*
X016987Y022246D02*
X017774Y022246D01*
X017774Y022295D02*
X017036Y022295D01*
X017084Y022343D02*
X017774Y022343D01*
X017774Y022440D02*
X017181Y022440D01*
X017133Y022392D02*
X018090Y022392D01*
X018090Y022343D02*
X018140Y022343D01*
X018140Y022295D02*
X018090Y022295D01*
X018090Y022246D02*
X018140Y022246D01*
X018140Y022198D02*
X018090Y022198D01*
X018090Y022149D02*
X018140Y022149D01*
X018140Y022101D02*
X018090Y022101D01*
X018140Y022392D02*
X018493Y022392D01*
X018493Y022440D02*
X018457Y022440D01*
X018457Y022489D02*
X018493Y022489D01*
X018493Y022537D02*
X018457Y022537D01*
X018457Y022586D02*
X018493Y022586D01*
X018499Y022634D02*
X018451Y022634D01*
X018494Y022683D02*
X019065Y022683D01*
X018957Y022731D02*
X018843Y022731D01*
X018891Y022780D02*
X018909Y022780D01*
X018890Y023022D02*
X018910Y023022D01*
X018959Y023071D02*
X018841Y023071D01*
X018659Y023071D02*
X018141Y023071D01*
X018190Y023022D02*
X018610Y023022D01*
X018565Y022974D02*
X018438Y022974D01*
X018487Y022925D02*
X018565Y022925D01*
X018565Y022877D02*
X018535Y022877D01*
X018535Y022828D02*
X018565Y022828D01*
X018535Y022780D02*
X018609Y022780D01*
X018657Y022731D02*
X018535Y022731D01*
X018350Y022800D02*
X018250Y022700D01*
X017300Y022700D01*
X016450Y021850D01*
X016450Y021450D01*
X016150Y021150D01*
X016289Y020791D02*
X016722Y020791D01*
X016722Y020743D02*
X015875Y020743D01*
X015875Y020791D02*
X016011Y020791D01*
X015916Y020840D02*
X015875Y020840D01*
X015875Y020694D02*
X016722Y020694D01*
X016722Y020646D02*
X015875Y020646D01*
X015875Y020597D02*
X016722Y020597D01*
X016722Y020549D02*
X015875Y020549D01*
X015875Y020500D02*
X015989Y020500D01*
X015907Y020452D02*
X015875Y020452D01*
X016311Y020500D02*
X016722Y020500D01*
X016722Y020452D02*
X016393Y020452D01*
X016441Y020403D02*
X016722Y020403D01*
X016722Y020355D02*
X016482Y020355D01*
X016502Y020306D02*
X016722Y020306D01*
X016722Y020258D02*
X016522Y020258D01*
X016535Y020209D02*
X016722Y020209D01*
X016722Y020161D02*
X016535Y020161D01*
X016535Y020112D02*
X016722Y020112D01*
X016722Y020064D02*
X016531Y020064D01*
X016511Y020015D02*
X016722Y020015D01*
X016722Y019967D02*
X016491Y019967D01*
X016462Y019918D02*
X016722Y019918D01*
X016763Y019870D02*
X016414Y019870D01*
X016362Y019821D02*
X017095Y019821D01*
X017137Y019773D02*
X016245Y019773D01*
X016055Y019773D02*
X015875Y019773D01*
X015875Y019821D02*
X015938Y019821D01*
X015886Y019870D02*
X015875Y019870D01*
X015875Y019724D02*
X017185Y019724D01*
X017234Y019676D02*
X015875Y019676D01*
X015875Y019627D02*
X017265Y019627D01*
X017265Y019579D02*
X015875Y019579D01*
X015875Y019530D02*
X016061Y019530D01*
X015944Y019482D02*
X015875Y019482D01*
X015875Y019433D02*
X015889Y019433D01*
X016239Y019530D02*
X017308Y019530D01*
X017357Y019482D02*
X016356Y019482D01*
X015983Y018803D02*
X015875Y018803D01*
X015875Y018851D02*
X015905Y018851D01*
X015919Y018463D02*
X015875Y018463D01*
X015875Y016523D02*
X015976Y016523D01*
X015893Y016475D02*
X015875Y016475D01*
X016561Y016135D02*
X016728Y016135D01*
X016728Y016087D02*
X016561Y016087D01*
X016549Y016038D02*
X016744Y016038D01*
X016792Y015990D02*
X016529Y015990D01*
X016509Y015941D02*
X018042Y015941D01*
X018923Y015941D02*
X019577Y015941D01*
X019569Y015990D02*
X018931Y015990D01*
X018931Y016038D02*
X019569Y016038D01*
X019569Y016087D02*
X018931Y016087D01*
X018931Y016135D02*
X019569Y016135D01*
X019569Y016184D02*
X018931Y016184D01*
X018931Y016232D02*
X019569Y016232D01*
X019569Y016281D02*
X018931Y016281D01*
X018931Y016329D02*
X019569Y016329D01*
X019569Y016378D02*
X018931Y016378D01*
X018931Y016426D02*
X019569Y016426D01*
X019569Y016475D02*
X018931Y016475D01*
X018931Y016523D02*
X019569Y016523D01*
X019569Y016572D02*
X018931Y016572D01*
X018931Y016620D02*
X019569Y016620D01*
X019569Y016669D02*
X018931Y016669D01*
X018931Y016717D02*
X019569Y016717D01*
X019569Y016766D02*
X018931Y016766D01*
X018931Y016814D02*
X019569Y016814D01*
X019569Y016863D02*
X018931Y016863D01*
X018931Y016911D02*
X019566Y016911D01*
X019517Y016960D02*
X018931Y016960D01*
X018931Y017008D02*
X019469Y017008D01*
X019420Y017057D02*
X018931Y017057D01*
X018931Y017105D02*
X019372Y017105D01*
X019323Y017154D02*
X018931Y017154D01*
X018931Y017202D02*
X019275Y017202D01*
X019226Y017251D02*
X018931Y017251D01*
X018931Y017299D02*
X019178Y017299D01*
X019366Y017493D02*
X021972Y017493D01*
X021900Y017445D02*
X019414Y017445D01*
X019463Y017396D02*
X021852Y017396D01*
X021815Y017348D02*
X020467Y017348D01*
X020467Y017299D02*
X021795Y017299D01*
X021775Y017251D02*
X021304Y017251D01*
X021322Y017202D02*
X021765Y017202D01*
X021765Y017154D02*
X021322Y017154D01*
X021322Y017105D02*
X021765Y017105D01*
X021772Y017057D02*
X021322Y017057D01*
X021322Y017008D02*
X021792Y017008D01*
X021812Y016960D02*
X021322Y016960D01*
X021322Y016911D02*
X021845Y016911D01*
X021893Y016863D02*
X021322Y016863D01*
X021322Y016814D02*
X021955Y016814D01*
X022072Y016766D02*
X021322Y016766D01*
X021302Y016717D02*
X022425Y016717D01*
X022425Y016669D02*
X020467Y016669D01*
X020467Y016717D02*
X020798Y016717D01*
X020778Y016766D02*
X020467Y016766D01*
X020467Y016814D02*
X020778Y016814D01*
X020837Y016657D02*
X020805Y016648D01*
X020776Y016632D01*
X020753Y016609D01*
X020737Y016580D01*
X020728Y016548D01*
X020728Y016340D01*
X021025Y016340D01*
X021025Y016290D01*
X021075Y016290D01*
X021075Y015974D01*
X021263Y015974D01*
X021295Y015982D01*
X021324Y015999D01*
X021347Y016022D01*
X021363Y016051D01*
X021372Y016082D01*
X021372Y016290D01*
X021075Y016290D01*
X021075Y016340D01*
X021372Y016340D01*
X021372Y016548D01*
X021363Y016580D01*
X021347Y016609D01*
X021324Y016632D01*
X021295Y016648D01*
X021263Y016657D01*
X021075Y016657D01*
X021075Y016340D01*
X021025Y016340D01*
X021025Y016657D01*
X020837Y016657D01*
X020764Y016620D02*
X020467Y016620D01*
X020467Y016572D02*
X020734Y016572D01*
X020728Y016523D02*
X020467Y016523D01*
X020467Y016475D02*
X020728Y016475D01*
X020728Y016426D02*
X020467Y016426D01*
X020467Y016378D02*
X020728Y016378D01*
X020728Y016290D02*
X020728Y016082D01*
X020737Y016051D01*
X020753Y016022D01*
X020776Y015999D01*
X020805Y015982D01*
X020837Y015974D01*
X021025Y015974D01*
X021025Y016290D01*
X020728Y016290D01*
X020728Y016281D02*
X020467Y016281D01*
X020467Y016329D02*
X021025Y016329D01*
X021025Y016281D02*
X021075Y016281D01*
X021075Y016329D02*
X021779Y016329D01*
X021759Y016281D02*
X021372Y016281D01*
X021372Y016378D02*
X021799Y016378D01*
X021844Y016426D02*
X021372Y016426D01*
X021372Y016475D02*
X021893Y016475D01*
X021976Y016523D02*
X021372Y016523D01*
X021366Y016572D02*
X022425Y016572D01*
X022425Y016620D02*
X021336Y016620D01*
X021075Y016620D02*
X021025Y016620D01*
X021025Y016572D02*
X021075Y016572D01*
X021075Y016523D02*
X021025Y016523D01*
X021025Y016475D02*
X021075Y016475D01*
X021075Y016426D02*
X021025Y016426D01*
X021025Y016378D02*
X021075Y016378D01*
X021075Y016232D02*
X021025Y016232D01*
X021025Y016184D02*
X021075Y016184D01*
X021075Y016135D02*
X021025Y016135D01*
X021025Y016087D02*
X021075Y016087D01*
X021075Y016038D02*
X021025Y016038D01*
X021025Y015990D02*
X021075Y015990D01*
X021308Y015990D02*
X021771Y015990D01*
X021751Y016038D02*
X021356Y016038D01*
X021372Y016087D02*
X021739Y016087D01*
X021739Y016135D02*
X021372Y016135D01*
X021791Y015941D02*
X020458Y015941D01*
X020467Y015990D02*
X020792Y015990D01*
X020744Y016038D02*
X020467Y016038D01*
X020467Y016087D02*
X020728Y016087D01*
X020728Y016135D02*
X020467Y016135D01*
X020467Y016184D02*
X020728Y016184D01*
X020728Y016232D02*
X020467Y016232D01*
X020467Y017154D02*
X020778Y017154D01*
X020778Y017202D02*
X020467Y017202D01*
X020467Y017251D02*
X020796Y017251D01*
X021826Y017930D02*
X019722Y017930D01*
X019722Y017978D02*
X021805Y017978D01*
X021784Y018027D02*
X019722Y018027D01*
X019737Y018075D02*
X021765Y018075D01*
X021765Y018124D02*
X019785Y018124D01*
X019834Y018172D02*
X021765Y018172D01*
X021765Y018221D02*
X019835Y018221D01*
X019835Y018269D02*
X021783Y018269D01*
X021803Y018318D02*
X019835Y018318D01*
X019796Y018366D02*
X021823Y018366D01*
X021870Y018415D02*
X019768Y018415D01*
X019772Y018463D02*
X021919Y018463D01*
X022017Y018512D02*
X019772Y018512D01*
X019772Y018560D02*
X022425Y018560D01*
X022425Y018512D02*
X022283Y018512D01*
X022381Y018463D02*
X022425Y018463D01*
X022425Y018609D02*
X019772Y018609D01*
X019772Y018706D02*
X022425Y018706D01*
X022425Y018754D02*
X019772Y018754D01*
X019772Y018803D02*
X021983Y018803D01*
X021905Y018851D02*
X019772Y018851D01*
X019757Y018900D02*
X021856Y018900D01*
X021817Y018948D02*
X019711Y018948D01*
X019635Y018997D02*
X021797Y018997D01*
X021777Y019045D02*
X019635Y019045D01*
X019635Y019094D02*
X021765Y019094D01*
X021765Y019142D02*
X019620Y019142D01*
X019571Y019191D02*
X021765Y019191D01*
X021770Y019239D02*
X017830Y019239D01*
X017785Y019191D02*
X018929Y019191D01*
X018880Y019142D02*
X017785Y019142D01*
X017897Y019094D02*
X018865Y019094D01*
X018865Y019045D02*
X017912Y019045D01*
X017912Y018997D02*
X018865Y018997D01*
X018968Y018870D02*
X018973Y018865D01*
X019127Y018865D01*
X019132Y018870D01*
X019128Y018857D01*
X019128Y018669D01*
X019425Y018669D01*
X019425Y018619D01*
X019128Y018619D01*
X019128Y018430D01*
X019137Y018399D01*
X019153Y018370D01*
X019176Y018347D01*
X019205Y018330D01*
X019237Y018322D01*
X019425Y018322D01*
X019425Y018619D01*
X019475Y018619D01*
X019475Y018337D01*
X019465Y018327D01*
X019465Y018206D01*
X019387Y018128D01*
X019222Y018128D01*
X019178Y018084D01*
X019178Y017628D01*
X019222Y017585D01*
X018878Y017585D01*
X018922Y017628D01*
X018922Y018084D01*
X018878Y018128D01*
X018790Y018128D01*
X018835Y018173D01*
X018835Y018322D01*
X018863Y018322D01*
X018895Y018330D01*
X018924Y018347D01*
X018947Y018370D01*
X018963Y018399D01*
X018972Y018430D01*
X018972Y018619D01*
X018675Y018619D01*
X018675Y018669D01*
X018972Y018669D01*
X018972Y018857D01*
X018968Y018870D01*
X018972Y018851D02*
X019128Y018851D01*
X019128Y018803D02*
X018972Y018803D01*
X018972Y018754D02*
X019128Y018754D01*
X019128Y018706D02*
X018972Y018706D01*
X018972Y018609D02*
X019128Y018609D01*
X019128Y018560D02*
X018972Y018560D01*
X018972Y018512D02*
X019128Y018512D01*
X019128Y018463D02*
X018972Y018463D01*
X018968Y018415D02*
X019132Y018415D01*
X019157Y018366D02*
X018943Y018366D01*
X018835Y018318D02*
X019465Y018318D01*
X019465Y018269D02*
X018835Y018269D01*
X018835Y018221D02*
X019465Y018221D01*
X019431Y018172D02*
X018834Y018172D01*
X018883Y018124D02*
X019217Y018124D01*
X019178Y018075D02*
X018922Y018075D01*
X018922Y018027D02*
X019178Y018027D01*
X019178Y017978D02*
X018922Y017978D01*
X018922Y017930D02*
X019178Y017930D01*
X019178Y017881D02*
X018922Y017881D01*
X018922Y017833D02*
X019178Y017833D01*
X019178Y017784D02*
X018922Y017784D01*
X018922Y017736D02*
X019178Y017736D01*
X019178Y017687D02*
X018922Y017687D01*
X018922Y017639D02*
X019178Y017639D01*
X019217Y017590D02*
X018883Y017590D01*
X018650Y017856D02*
X018650Y018250D01*
X018675Y018657D02*
X019425Y018657D01*
X019425Y018609D02*
X019475Y018609D01*
X019475Y018657D02*
X022425Y018657D01*
X022425Y018803D02*
X022317Y018803D01*
X022395Y018851D02*
X022425Y018851D01*
X022411Y019433D02*
X022425Y019433D01*
X022425Y019482D02*
X022356Y019482D01*
X022425Y019530D02*
X022239Y019530D01*
X022061Y019530D02*
X021522Y019530D01*
X021522Y019482D02*
X021944Y019482D01*
X021889Y019433D02*
X021487Y019433D01*
X021522Y019579D02*
X022425Y019579D01*
X022425Y019627D02*
X021522Y019627D01*
X021522Y019676D02*
X022425Y019676D01*
X022425Y019724D02*
X021522Y019724D01*
X021522Y019773D02*
X022055Y019773D01*
X021938Y019821D02*
X021547Y019821D01*
X021595Y019870D02*
X021886Y019870D01*
X021838Y019918D02*
X021644Y019918D01*
X021692Y019967D02*
X021809Y019967D01*
X021789Y020015D02*
X021741Y020015D01*
X021359Y020015D02*
X020181Y020015D01*
X020185Y019967D02*
X020332Y019967D01*
X020328Y019918D02*
X020185Y019918D01*
X020185Y019870D02*
X020328Y019870D01*
X020387Y020043D02*
X020575Y020043D01*
X020575Y020360D01*
X020278Y020360D01*
X020278Y020152D01*
X020287Y020120D01*
X020303Y020091D01*
X020326Y020068D01*
X020355Y020052D01*
X020387Y020043D01*
X020334Y020064D02*
X017738Y020064D01*
X017738Y020112D02*
X020291Y020112D01*
X020278Y020161D02*
X017738Y020161D01*
X017738Y020209D02*
X020278Y020209D01*
X020278Y020258D02*
X017738Y020258D01*
X017738Y020306D02*
X020278Y020306D01*
X020278Y020355D02*
X020161Y020355D01*
X020185Y020403D02*
X020575Y020403D01*
X020575Y020410D02*
X020575Y020360D01*
X020625Y020360D01*
X020625Y020410D01*
X020575Y020410D01*
X020575Y020726D01*
X020387Y020726D01*
X020355Y020718D01*
X020326Y020701D01*
X020303Y020678D01*
X020287Y020649D01*
X020278Y020618D01*
X020278Y020410D01*
X020575Y020410D01*
X020575Y020452D02*
X020625Y020452D01*
X020625Y020410D02*
X020625Y020726D01*
X020813Y020726D01*
X020845Y020718D01*
X020874Y020701D01*
X020897Y020678D01*
X020913Y020649D01*
X020922Y020618D01*
X020922Y020410D01*
X020625Y020410D01*
X020625Y020403D02*
X021225Y020403D01*
X021225Y020355D02*
X021275Y020355D01*
X021275Y020306D02*
X021225Y020306D01*
X021225Y020258D02*
X021275Y020258D01*
X021275Y020209D02*
X021225Y020209D01*
X021225Y020161D02*
X021275Y020161D01*
X021275Y020112D02*
X021225Y020112D01*
X021225Y020064D02*
X021275Y020064D01*
X020984Y020064D02*
X020866Y020064D01*
X020874Y020068D02*
X020897Y020091D01*
X020913Y020120D01*
X020922Y020152D01*
X020922Y020360D01*
X020625Y020360D01*
X020625Y020043D01*
X020813Y020043D01*
X020845Y020052D01*
X020874Y020068D01*
X020909Y020112D02*
X020941Y020112D01*
X020928Y020161D02*
X020922Y020161D01*
X020922Y020209D02*
X020928Y020209D01*
X020922Y020258D02*
X020928Y020258D01*
X020922Y020306D02*
X020928Y020306D01*
X020922Y020355D02*
X020928Y020355D01*
X020922Y020452D02*
X020928Y020452D01*
X020922Y020500D02*
X020928Y020500D01*
X020922Y020549D02*
X020928Y020549D01*
X020922Y020597D02*
X020928Y020597D01*
X020936Y020646D02*
X020914Y020646D01*
X020881Y020694D02*
X020969Y020694D01*
X021225Y020694D02*
X021275Y020694D01*
X021275Y020646D02*
X021225Y020646D01*
X021225Y020597D02*
X021275Y020597D01*
X021275Y020549D02*
X021225Y020549D01*
X021225Y020500D02*
X021275Y020500D01*
X021275Y020452D02*
X021225Y020452D01*
X021515Y020743D02*
X020185Y020743D01*
X020185Y020791D02*
X021515Y020791D01*
X021515Y020840D02*
X020185Y020840D01*
X020185Y020888D02*
X021515Y020888D01*
X021515Y020937D02*
X020170Y020937D01*
X020185Y020694D02*
X020319Y020694D01*
X020286Y020646D02*
X020185Y020646D01*
X020185Y020597D02*
X020278Y020597D01*
X020278Y020549D02*
X020185Y020549D01*
X020185Y020500D02*
X020278Y020500D01*
X020278Y020452D02*
X020185Y020452D01*
X020575Y020500D02*
X020625Y020500D01*
X020625Y020549D02*
X020575Y020549D01*
X020575Y020597D02*
X020625Y020597D01*
X020625Y020646D02*
X020575Y020646D01*
X020575Y020694D02*
X020625Y020694D01*
X020625Y020355D02*
X020575Y020355D01*
X020575Y020306D02*
X020625Y020306D01*
X020625Y020258D02*
X020575Y020258D01*
X020575Y020209D02*
X020625Y020209D01*
X020625Y020161D02*
X020575Y020161D01*
X020575Y020112D02*
X020625Y020112D01*
X020625Y020064D02*
X020575Y020064D01*
X020868Y019967D02*
X020982Y019967D01*
X020978Y019918D02*
X020872Y019918D01*
X020872Y019870D02*
X020978Y019870D01*
X020978Y019579D02*
X020872Y019579D01*
X020872Y019530D02*
X020978Y019530D01*
X020978Y019482D02*
X020872Y019482D01*
X020837Y019433D02*
X021013Y019433D01*
X020363Y019433D02*
X020149Y019433D01*
X020185Y019482D02*
X020328Y019482D01*
X020328Y019530D02*
X020185Y019530D01*
X020185Y019579D02*
X020328Y019579D01*
X019329Y019191D02*
X019171Y019191D01*
X019220Y019142D02*
X019280Y019142D01*
X019265Y019094D02*
X019235Y019094D01*
X019235Y019045D02*
X019265Y019045D01*
X019265Y018997D02*
X019235Y018997D01*
X019191Y019433D02*
X018024Y019433D01*
X018072Y019482D02*
X019155Y019482D01*
X019155Y019530D02*
X018121Y019530D01*
X018169Y019579D02*
X019155Y019579D01*
X019155Y020500D02*
X018762Y020500D01*
X018810Y020549D02*
X019155Y020549D01*
X019112Y020597D02*
X018835Y020597D01*
X018835Y020646D02*
X019064Y020646D01*
X019015Y020694D02*
X018835Y020694D01*
X018819Y020743D02*
X018967Y020743D01*
X018918Y020791D02*
X018785Y020791D01*
X018830Y020840D02*
X018870Y020840D01*
X019057Y021034D02*
X021515Y021034D01*
X021515Y021082D02*
X019009Y021082D01*
X018960Y021131D02*
X021515Y021131D01*
X021515Y021179D02*
X018920Y021179D01*
X018920Y021228D02*
X019146Y021228D01*
X019153Y021220D02*
X019130Y021243D01*
X019114Y021272D01*
X019105Y021303D01*
X019105Y021535D01*
X019645Y021535D01*
X019645Y021585D01*
X019645Y021925D01*
X019214Y021925D01*
X019182Y021916D01*
X019153Y021900D01*
X019130Y021877D01*
X019114Y021848D01*
X019105Y021816D01*
X019105Y021585D01*
X019645Y021585D01*
X019695Y021585D01*
X019695Y021925D01*
X020126Y021925D01*
X020158Y021916D01*
X020187Y021900D01*
X020210Y021877D01*
X020227Y021848D01*
X020235Y021816D01*
X020235Y021585D01*
X019695Y021585D01*
X019695Y021535D01*
X020235Y021535D01*
X020235Y021303D01*
X020227Y021272D01*
X020210Y021243D01*
X020187Y021220D01*
X020158Y021203D01*
X020126Y021195D01*
X019695Y021195D01*
X019695Y021535D01*
X019645Y021535D01*
X019645Y021195D01*
X019214Y021195D01*
X019182Y021203D01*
X019153Y021220D01*
X019112Y021276D02*
X018920Y021276D01*
X018920Y021325D02*
X019105Y021325D01*
X019105Y021373D02*
X018920Y021373D01*
X018920Y021422D02*
X019105Y021422D01*
X019105Y021470D02*
X018920Y021470D01*
X018920Y021519D02*
X019105Y021519D01*
X019105Y021616D02*
X018920Y021616D01*
X018920Y021664D02*
X019105Y021664D01*
X019105Y021713D02*
X018920Y021713D01*
X018920Y021761D02*
X019105Y021761D01*
X019105Y021810D02*
X018920Y021810D01*
X018920Y021858D02*
X019119Y021858D01*
X019165Y021907D02*
X018920Y021907D01*
X018920Y021955D02*
X020328Y021955D01*
X020328Y021907D02*
X020175Y021907D01*
X020221Y021858D02*
X020335Y021858D01*
X020337Y021851D02*
X020353Y021822D01*
X020376Y021799D01*
X020405Y021782D01*
X020437Y021774D01*
X020625Y021774D01*
X020625Y022090D01*
X020675Y022090D01*
X020675Y021774D01*
X020863Y021774D01*
X020895Y021782D01*
X020924Y021799D01*
X020947Y021822D01*
X020963Y021851D01*
X020972Y021882D01*
X020972Y022090D01*
X020675Y022090D01*
X020675Y022140D01*
X020972Y022140D01*
X020972Y022348D01*
X020963Y022380D01*
X020947Y022409D01*
X020924Y022432D01*
X020895Y022448D01*
X020863Y022457D01*
X020675Y022457D01*
X020675Y022140D01*
X020625Y022140D01*
X020625Y022090D01*
X020328Y022090D01*
X020328Y021882D01*
X020337Y021851D01*
X020366Y021810D02*
X020235Y021810D01*
X020235Y021761D02*
X020978Y021761D01*
X020978Y021810D02*
X020934Y021810D01*
X020965Y021858D02*
X020978Y021858D01*
X020972Y021907D02*
X020978Y021907D01*
X020972Y021955D02*
X020978Y021955D01*
X020972Y022004D02*
X020978Y022004D01*
X020972Y022052D02*
X020978Y022052D01*
X020978Y022101D02*
X020675Y022101D01*
X020675Y022149D02*
X020625Y022149D01*
X020625Y022140D02*
X020625Y022457D01*
X020437Y022457D01*
X020405Y022448D01*
X020376Y022432D01*
X020353Y022409D01*
X020337Y022380D01*
X020328Y022348D01*
X020328Y022140D01*
X020625Y022140D01*
X020625Y022101D02*
X018920Y022101D01*
X018920Y022052D02*
X020328Y022052D01*
X020328Y022004D02*
X018920Y022004D01*
X019053Y022149D02*
X020328Y022149D01*
X020328Y022198D02*
X019076Y022198D01*
X019076Y022246D02*
X020328Y022246D01*
X020328Y022295D02*
X019076Y022295D01*
X019076Y022343D02*
X020328Y022343D01*
X020343Y022392D02*
X019076Y022392D01*
X019076Y022440D02*
X020390Y022440D01*
X020378Y022537D02*
X019399Y022537D01*
X019435Y022586D02*
X020378Y022586D01*
X020378Y022634D02*
X019435Y022634D01*
X019544Y022683D02*
X020378Y022683D01*
X020378Y022731D02*
X020143Y022731D01*
X020191Y022780D02*
X020378Y022780D01*
X020378Y022828D02*
X020235Y022828D01*
X020235Y022877D02*
X020378Y022877D01*
X020378Y022925D02*
X020266Y022925D01*
X020314Y022974D02*
X020378Y022974D01*
X020378Y023022D02*
X020320Y023022D01*
X020320Y023071D02*
X020368Y023071D01*
X020050Y023119D02*
X018035Y023119D01*
X018035Y023168D02*
X020050Y023168D01*
X020050Y023216D02*
X017996Y023216D01*
X017947Y023265D02*
X020050Y023265D01*
X020050Y023313D02*
X017149Y023313D01*
X017127Y023335D02*
X016973Y023335D01*
X016865Y023227D01*
X016865Y023073D01*
X016973Y022965D01*
X017127Y022965D01*
X017235Y023073D01*
X017235Y023227D01*
X017127Y023335D01*
X017197Y023265D02*
X017753Y023265D01*
X017704Y023216D02*
X017235Y023216D01*
X017235Y023168D02*
X017665Y023168D01*
X017665Y023119D02*
X017235Y023119D01*
X017232Y023071D02*
X017665Y023071D01*
X017666Y023022D02*
X017184Y023022D01*
X017135Y022974D02*
X017715Y022974D01*
X018000Y022850D02*
X016850Y022850D01*
X016150Y022150D01*
X015896Y022440D02*
X015875Y022440D01*
X015875Y022489D02*
X015961Y022489D01*
X015875Y022537D02*
X016396Y022537D01*
X016444Y022586D02*
X015875Y022586D01*
X015875Y022634D02*
X016493Y022634D01*
X016541Y022683D02*
X015875Y022683D01*
X015875Y022731D02*
X016590Y022731D01*
X016638Y022780D02*
X016262Y022780D01*
X016373Y022828D02*
X016687Y022828D01*
X016735Y022877D02*
X016421Y022877D01*
X016470Y022925D02*
X016784Y022925D01*
X016916Y023022D02*
X016514Y023022D01*
X016534Y023071D02*
X016868Y023071D01*
X016865Y023119D02*
X016535Y023119D01*
X016535Y023168D02*
X016865Y023168D01*
X016865Y023216D02*
X016535Y023216D01*
X016519Y023265D02*
X016903Y023265D01*
X016951Y023313D02*
X016499Y023313D01*
X016479Y023362D02*
X019214Y023362D01*
X019222Y023353D02*
X019251Y023337D01*
X019282Y023328D01*
X019490Y023328D01*
X019490Y023625D01*
X019174Y023625D01*
X019174Y023437D01*
X019182Y023405D01*
X019199Y023376D01*
X019222Y023353D01*
X019181Y023410D02*
X016434Y023410D01*
X016386Y023459D02*
X019174Y023459D01*
X019174Y023507D02*
X016294Y023507D01*
X016006Y023507D02*
X015875Y023507D01*
X015875Y023459D02*
X015914Y023459D01*
X015875Y023556D02*
X019174Y023556D01*
X019174Y023604D02*
X015875Y023604D01*
X015875Y023653D02*
X019490Y023653D01*
X019490Y023675D02*
X019490Y023625D01*
X019540Y023625D01*
X019540Y023328D01*
X019748Y023328D01*
X019780Y023337D01*
X019809Y023353D01*
X019832Y023376D01*
X019848Y023405D01*
X019857Y023437D01*
X019857Y023625D01*
X019540Y023625D01*
X019540Y023675D01*
X019490Y023675D01*
X019174Y023675D01*
X019174Y023863D01*
X019182Y023895D01*
X019174Y023847D02*
X016391Y023847D01*
X016306Y023798D02*
X019174Y023798D01*
X019174Y023750D02*
X015875Y023750D01*
X015875Y023798D02*
X015994Y023798D01*
X015909Y023847D02*
X015875Y023847D01*
X015875Y023701D02*
X019174Y023701D01*
X019219Y023944D02*
X019061Y023944D01*
X019049Y023937D02*
X019078Y023953D01*
X019101Y023976D01*
X019118Y024005D01*
X019126Y024037D01*
X019126Y024225D01*
X018810Y024225D01*
X018810Y024275D01*
X019126Y024275D01*
X019126Y024463D01*
X019118Y024495D01*
X019101Y024524D01*
X019078Y024547D01*
X019073Y024550D01*
X019078Y024553D01*
X019101Y024576D01*
X019118Y024605D01*
X019126Y024637D01*
X019126Y024825D01*
X018810Y024825D01*
X018810Y024275D01*
X018760Y024275D01*
X018760Y024572D01*
X018760Y024825D01*
X018443Y024825D01*
X018443Y024637D01*
X018452Y024605D01*
X018468Y024576D01*
X018491Y024553D01*
X018497Y024550D01*
X018491Y024547D01*
X018468Y024524D01*
X018452Y024495D01*
X018443Y024463D01*
X018443Y024275D01*
X018760Y024275D01*
X018760Y024225D01*
X018810Y024225D01*
X018810Y023928D01*
X019018Y023928D01*
X019049Y023937D01*
X019110Y023992D02*
X019190Y023992D01*
X019174Y024041D02*
X019126Y024041D01*
X019126Y024089D02*
X019174Y024089D01*
X019174Y024138D02*
X019126Y024138D01*
X019126Y024186D02*
X019174Y024186D01*
X019174Y024283D02*
X019126Y024283D01*
X019126Y024332D02*
X019174Y024332D01*
X019174Y024380D02*
X019126Y024380D01*
X019126Y024429D02*
X019174Y024429D01*
X019178Y024477D02*
X019122Y024477D01*
X019099Y024526D02*
X019201Y024526D01*
X019201Y024574D02*
X019099Y024574D01*
X019122Y024623D02*
X019178Y024623D01*
X019174Y024671D02*
X019126Y024671D01*
X019126Y024720D02*
X019174Y024720D01*
X019174Y024768D02*
X019126Y024768D01*
X019126Y024817D02*
X019174Y024817D01*
X019174Y024875D02*
X019490Y024875D01*
X019490Y025172D01*
X019282Y025172D01*
X019251Y025163D01*
X019222Y025147D01*
X019199Y025124D01*
X019182Y025095D01*
X019174Y025063D01*
X019174Y024875D01*
X019174Y024914D02*
X019126Y024914D01*
X019126Y024962D02*
X019174Y024962D01*
X019174Y025011D02*
X019126Y025011D01*
X019126Y025059D02*
X019174Y025059D01*
X019190Y025108D02*
X019110Y025108D01*
X019062Y025156D02*
X019238Y025156D01*
X019394Y025315D02*
X019794Y025315D01*
X019987Y025122D01*
X019937Y025122D01*
X019893Y025078D01*
X019893Y024622D01*
X019937Y024578D01*
X020415Y024578D01*
X020415Y024522D01*
X019937Y024522D01*
X019893Y024478D01*
X019893Y024022D01*
X019937Y023978D01*
X020432Y023978D01*
X020476Y024022D01*
X020476Y024135D01*
X020606Y024265D01*
X020685Y024344D01*
X020685Y024594D01*
X020717Y024626D01*
X020776Y024638D01*
X020715Y024577D01*
X020715Y024423D01*
X020788Y024350D01*
X020715Y024277D01*
X020715Y024123D01*
X020823Y024015D01*
X020977Y024015D01*
X021085Y024123D01*
X021085Y024277D01*
X021012Y024350D01*
X021085Y024423D01*
X021085Y024577D01*
X021012Y024650D01*
X021085Y024723D01*
X021085Y024877D01*
X021012Y024950D01*
X021085Y025023D01*
X021085Y025177D01*
X020977Y025285D01*
X020823Y025285D01*
X020760Y025222D01*
X020378Y025185D01*
X020329Y025185D01*
X020323Y025180D01*
X020316Y025179D01*
X020314Y025177D01*
X019985Y025506D01*
X019906Y025585D01*
X019506Y025585D01*
X019385Y025706D01*
X019385Y026273D01*
X019435Y026323D01*
X019435Y026477D01*
X019327Y026585D01*
X019173Y026585D01*
X019065Y026477D01*
X019065Y026323D01*
X019115Y026273D01*
X019115Y025594D01*
X019194Y025515D01*
X019394Y025315D01*
X019359Y025350D02*
X017535Y025350D01*
X017535Y025302D02*
X019808Y025302D01*
X019856Y025253D02*
X017515Y025253D01*
X017535Y025273D02*
X017427Y025165D01*
X017273Y025165D01*
X017165Y025273D01*
X017165Y025427D01*
X017273Y025535D01*
X017427Y025535D01*
X017535Y025427D01*
X017535Y025273D01*
X017466Y025205D02*
X019905Y025205D01*
X019953Y025156D02*
X019793Y025156D01*
X019780Y025163D02*
X019748Y025172D01*
X019540Y025172D01*
X019540Y024875D01*
X019490Y024875D01*
X019490Y024914D02*
X019540Y024914D01*
X019540Y024875D02*
X019857Y024875D01*
X019857Y025063D01*
X019848Y025095D01*
X019832Y025124D01*
X019809Y025147D01*
X019780Y025163D01*
X019841Y025108D02*
X019923Y025108D01*
X019893Y025059D02*
X019857Y025059D01*
X019857Y025011D02*
X019893Y025011D01*
X019893Y024962D02*
X019857Y024962D01*
X019857Y024914D02*
X019893Y024914D01*
X019893Y024865D02*
X019540Y024865D01*
X019540Y024875D02*
X019540Y024825D01*
X019540Y024528D01*
X019540Y024275D01*
X019490Y024275D01*
X019490Y024825D01*
X019540Y024825D01*
X019857Y024825D01*
X019857Y024637D01*
X019848Y024605D01*
X019832Y024576D01*
X019809Y024553D01*
X019803Y024550D01*
X019809Y024547D01*
X019832Y024524D01*
X019848Y024495D01*
X019857Y024463D01*
X019857Y024275D01*
X019540Y024275D01*
X019540Y024225D01*
X019540Y023675D01*
X019857Y023675D01*
X019857Y023863D01*
X019848Y023895D01*
X019832Y023924D01*
X019809Y023947D01*
X019803Y023950D01*
X019809Y023953D01*
X019832Y023976D01*
X019848Y024005D01*
X019857Y024037D01*
X019857Y024225D01*
X019540Y024225D01*
X019490Y024225D01*
X019490Y023972D01*
X019490Y023675D01*
X019490Y023701D02*
X019540Y023701D01*
X019540Y023653D02*
X019893Y023653D01*
X019893Y023701D02*
X019857Y023701D01*
X019857Y023750D02*
X019893Y023750D01*
X019893Y023798D02*
X019857Y023798D01*
X019857Y023847D02*
X019893Y023847D01*
X019910Y023895D02*
X019848Y023895D01*
X019812Y023944D02*
X021515Y023944D01*
X021515Y023992D02*
X020446Y023992D01*
X020476Y024041D02*
X020798Y024041D01*
X020749Y024089D02*
X020476Y024089D01*
X020478Y024138D02*
X020715Y024138D01*
X020715Y024186D02*
X020527Y024186D01*
X020575Y024235D02*
X020715Y024235D01*
X020721Y024283D02*
X020624Y024283D01*
X020672Y024332D02*
X020770Y024332D01*
X020758Y024380D02*
X020685Y024380D01*
X020685Y024429D02*
X020715Y024429D01*
X020715Y024477D02*
X020685Y024477D01*
X020685Y024526D02*
X020715Y024526D01*
X020715Y024574D02*
X020685Y024574D01*
X020713Y024623D02*
X020761Y024623D01*
X021033Y024671D02*
X021515Y024671D01*
X021515Y024623D02*
X021039Y024623D01*
X021085Y024574D02*
X021515Y024574D01*
X021515Y024526D02*
X021085Y024526D01*
X021085Y024477D02*
X021515Y024477D01*
X021515Y024429D02*
X021085Y024429D01*
X021042Y024380D02*
X021515Y024380D01*
X021515Y024332D02*
X021030Y024332D01*
X021079Y024283D02*
X021515Y024283D01*
X021515Y024235D02*
X021085Y024235D01*
X021085Y024186D02*
X021515Y024186D01*
X021515Y024138D02*
X021085Y024138D01*
X021051Y024089D02*
X021515Y024089D01*
X021515Y024041D02*
X021002Y024041D01*
X021515Y023895D02*
X020459Y023895D01*
X020476Y023847D02*
X021515Y023847D01*
X021515Y023798D02*
X020476Y023798D01*
X020476Y023750D02*
X021515Y023750D01*
X021515Y023701D02*
X020476Y023701D01*
X020476Y023653D02*
X021515Y023653D01*
X021515Y023604D02*
X020476Y023604D01*
X020476Y023556D02*
X021515Y023556D01*
X021515Y023507D02*
X020476Y023507D01*
X020476Y023459D02*
X021515Y023459D01*
X021515Y023410D02*
X020464Y023410D01*
X020600Y023362D02*
X021515Y023362D01*
X021515Y023313D02*
X020649Y023313D01*
X020685Y023265D02*
X021515Y023265D01*
X021515Y023216D02*
X020685Y023216D01*
X020723Y023168D02*
X020995Y023168D01*
X020978Y023119D02*
X020772Y023119D01*
X020884Y023071D02*
X020978Y023071D01*
X020978Y023022D02*
X020922Y023022D01*
X020922Y022731D02*
X020978Y022731D01*
X020978Y022683D02*
X020922Y022683D01*
X020922Y022634D02*
X020978Y022634D01*
X021008Y022586D02*
X020922Y022586D01*
X020922Y022537D02*
X021515Y022537D01*
X021515Y022489D02*
X019350Y022489D01*
X019150Y022489D02*
X019076Y022489D01*
X019076Y022537D02*
X019101Y022537D01*
X019235Y022877D02*
X019265Y022877D01*
X019265Y022925D02*
X019235Y022925D01*
X019235Y022974D02*
X019312Y022974D01*
X019360Y023022D02*
X019190Y023022D01*
X019141Y023071D02*
X019959Y023071D01*
X019910Y023022D02*
X019540Y023022D01*
X019588Y022974D02*
X019865Y022974D01*
X019865Y022925D02*
X019635Y022925D01*
X019635Y022877D02*
X019865Y022877D01*
X019865Y022828D02*
X019635Y022828D01*
X019635Y022780D02*
X019909Y022780D01*
X019957Y022731D02*
X019593Y022731D01*
X019645Y021907D02*
X019695Y021907D01*
X019695Y021858D02*
X019645Y021858D01*
X019645Y021810D02*
X019695Y021810D01*
X019695Y021761D02*
X019645Y021761D01*
X019645Y021713D02*
X019695Y021713D01*
X019695Y021664D02*
X019645Y021664D01*
X019645Y021616D02*
X019695Y021616D01*
X019695Y021567D02*
X021065Y021567D01*
X021065Y021616D02*
X020235Y021616D01*
X020235Y021664D02*
X021065Y021664D01*
X021015Y021713D02*
X020235Y021713D01*
X020235Y021519D02*
X021070Y021519D01*
X021118Y021470D02*
X020235Y021470D01*
X020235Y021422D02*
X021167Y021422D01*
X021333Y021422D02*
X021515Y021422D01*
X021515Y021470D02*
X021382Y021470D01*
X021430Y021519D02*
X021515Y021519D01*
X021515Y021567D02*
X021435Y021567D01*
X021435Y021616D02*
X021515Y021616D01*
X021515Y021664D02*
X021435Y021664D01*
X021485Y021713D02*
X021515Y021713D01*
X021515Y021373D02*
X020235Y021373D01*
X020235Y021325D02*
X021515Y021325D01*
X021515Y021276D02*
X020228Y021276D01*
X020194Y021228D02*
X021515Y021228D01*
X021515Y020985D02*
X019106Y020985D01*
X019154Y020937D02*
X019171Y020937D01*
X019645Y021228D02*
X019695Y021228D01*
X019695Y021276D02*
X019645Y021276D01*
X019645Y021325D02*
X019695Y021325D01*
X019695Y021373D02*
X019645Y021373D01*
X019645Y021422D02*
X019695Y021422D01*
X019695Y021470D02*
X019645Y021470D01*
X019645Y021519D02*
X019695Y021519D01*
X019645Y021567D02*
X018920Y021567D01*
X018650Y021567D02*
X016550Y021567D01*
X016550Y021519D02*
X018650Y021519D01*
X018650Y021470D02*
X016550Y021470D01*
X016550Y021422D02*
X016754Y021422D01*
X016722Y021373D02*
X016514Y021373D01*
X016494Y021325D02*
X016722Y021325D01*
X016722Y021276D02*
X016515Y021276D01*
X016535Y021228D02*
X016722Y021228D01*
X016722Y021179D02*
X016535Y021179D01*
X016535Y021131D02*
X016722Y021131D01*
X016722Y021082D02*
X016535Y021082D01*
X016518Y021034D02*
X016722Y021034D01*
X016722Y020985D02*
X016498Y020985D01*
X016478Y020937D02*
X016722Y020937D01*
X016722Y020888D02*
X016432Y020888D01*
X016384Y020840D02*
X016722Y020840D01*
X016550Y021616D02*
X018650Y021616D01*
X018650Y021664D02*
X016550Y021664D01*
X016550Y021713D02*
X018650Y021713D01*
X018650Y021761D02*
X016550Y021761D01*
X016551Y021810D02*
X018650Y021810D01*
X018650Y021858D02*
X016599Y021858D01*
X016648Y021907D02*
X018650Y021907D01*
X018650Y021955D02*
X016696Y021955D01*
X016745Y022004D02*
X018650Y022004D01*
X018650Y022052D02*
X016793Y022052D01*
X017230Y022489D02*
X017774Y022489D01*
X017774Y022537D02*
X017278Y022537D01*
X017327Y022586D02*
X017774Y022586D01*
X018000Y022850D02*
X018050Y022900D01*
X018235Y022974D02*
X018262Y022974D01*
X018457Y022343D02*
X018493Y022343D01*
X018493Y022295D02*
X018457Y022295D01*
X018457Y022246D02*
X018493Y022246D01*
X018493Y022198D02*
X018457Y022198D01*
X018445Y022149D02*
X018516Y022149D01*
X018404Y022101D02*
X018650Y022101D01*
X019490Y023362D02*
X019540Y023362D01*
X019540Y023410D02*
X019490Y023410D01*
X019490Y023459D02*
X019540Y023459D01*
X019540Y023507D02*
X019490Y023507D01*
X019490Y023556D02*
X019540Y023556D01*
X019540Y023604D02*
X019490Y023604D01*
X019490Y023750D02*
X019540Y023750D01*
X019540Y023798D02*
X019490Y023798D01*
X019490Y023847D02*
X019540Y023847D01*
X019540Y023895D02*
X019490Y023895D01*
X019490Y023944D02*
X019540Y023944D01*
X019540Y023992D02*
X019490Y023992D01*
X019490Y024041D02*
X019540Y024041D01*
X019540Y024089D02*
X019490Y024089D01*
X019490Y024138D02*
X019540Y024138D01*
X019540Y024186D02*
X019490Y024186D01*
X019490Y024235D02*
X018810Y024235D01*
X018810Y024283D02*
X018760Y024283D01*
X018760Y024235D02*
X018407Y024235D01*
X018443Y024225D02*
X018443Y024037D01*
X018452Y024005D01*
X018468Y023976D01*
X018491Y023953D01*
X018520Y023937D01*
X018552Y023928D01*
X018760Y023928D01*
X018760Y024225D01*
X018443Y024225D01*
X018443Y024186D02*
X018407Y024186D01*
X018407Y024138D02*
X018443Y024138D01*
X018443Y024089D02*
X018407Y024089D01*
X018407Y024041D02*
X018443Y024041D01*
X018459Y023992D02*
X018377Y023992D01*
X018508Y023944D02*
X017505Y023944D01*
X017554Y023992D02*
X017854Y023992D01*
X017824Y024041D02*
X017585Y024041D01*
X017585Y024089D02*
X017824Y024089D01*
X017824Y024429D02*
X017485Y024429D01*
X017485Y024477D02*
X017824Y024477D01*
X017824Y024623D02*
X016989Y024623D01*
X016977Y024635D02*
X016823Y024635D01*
X016715Y024527D01*
X016715Y024373D01*
X016823Y024265D01*
X016977Y024265D01*
X017085Y024373D01*
X017085Y024527D01*
X016977Y024635D01*
X017038Y024574D02*
X017212Y024574D01*
X017164Y024526D02*
X017085Y024526D01*
X017085Y024477D02*
X017115Y024477D01*
X017115Y024429D02*
X017085Y024429D01*
X017085Y024380D02*
X017115Y024380D01*
X017115Y024332D02*
X017043Y024332D01*
X016995Y024283D02*
X017155Y024283D01*
X017204Y024235D02*
X016532Y024235D01*
X016535Y024227D02*
X016476Y024368D01*
X016368Y024476D01*
X016227Y024535D01*
X016073Y024535D01*
X015932Y024476D01*
X015875Y024419D01*
X015875Y024881D01*
X015932Y024824D01*
X016073Y024765D01*
X016227Y024765D01*
X016368Y024824D01*
X016476Y024932D01*
X016485Y024953D01*
X016573Y024865D01*
X016410Y024865D01*
X016458Y024914D02*
X016525Y024914D01*
X016573Y024865D02*
X016727Y024865D01*
X016922Y024817D02*
X016351Y024817D01*
X016234Y024768D02*
X016970Y024768D01*
X017130Y024768D02*
X017824Y024768D01*
X017824Y024720D02*
X015875Y024720D01*
X015875Y024768D02*
X016066Y024768D01*
X015949Y024817D02*
X015875Y024817D01*
X015875Y024865D02*
X015890Y024865D01*
X015875Y024671D02*
X017824Y024671D01*
X017824Y024817D02*
X017178Y024817D01*
X017227Y024865D02*
X017824Y024865D01*
X017824Y024914D02*
X017235Y024914D01*
X017235Y024962D02*
X017824Y024962D01*
X017824Y025011D02*
X017235Y025011D01*
X017203Y025059D02*
X017824Y025059D01*
X017853Y025108D02*
X017154Y025108D01*
X017234Y025205D02*
X016757Y025205D01*
X016543Y025205D02*
X016535Y025205D01*
X016524Y025253D02*
X017185Y025253D01*
X017165Y025302D02*
X016504Y025302D01*
X016484Y025350D02*
X017165Y025350D01*
X017165Y025399D02*
X016446Y025399D01*
X016397Y025447D02*
X017185Y025447D01*
X017234Y025496D02*
X016322Y025496D01*
X016279Y025787D02*
X016665Y025787D01*
X016665Y025773D02*
X016773Y025665D01*
X016927Y025665D01*
X017035Y025773D01*
X017035Y025865D01*
X017127Y025865D01*
X017235Y025973D01*
X017235Y026127D01*
X017127Y026235D01*
X016973Y026235D01*
X016865Y026127D01*
X016865Y026035D01*
X016773Y026035D01*
X016665Y025927D01*
X016665Y025773D01*
X016700Y025738D02*
X015875Y025738D01*
X015875Y025690D02*
X016749Y025690D01*
X016665Y025835D02*
X016380Y025835D01*
X016428Y025884D02*
X016665Y025884D01*
X016670Y025932D02*
X016476Y025932D01*
X016497Y025981D02*
X016719Y025981D01*
X016767Y026029D02*
X016517Y026029D01*
X016535Y026078D02*
X016865Y026078D01*
X016865Y026126D02*
X016535Y026126D01*
X016535Y026175D02*
X016913Y026175D01*
X016961Y026223D02*
X016535Y026223D01*
X016516Y026272D02*
X018667Y026272D01*
X018618Y026320D02*
X016496Y026320D01*
X016510Y026369D02*
X018615Y026369D01*
X018615Y026323D02*
X018723Y026215D01*
X018877Y026215D01*
X018985Y026323D01*
X018985Y026477D01*
X018877Y026585D01*
X018723Y026585D01*
X018615Y026477D01*
X018615Y026323D01*
X018615Y026417D02*
X016558Y026417D01*
X016607Y026466D02*
X018615Y026466D01*
X018652Y026514D02*
X016655Y026514D01*
X016704Y026563D02*
X018701Y026563D01*
X018779Y026660D02*
X016750Y026660D01*
X016750Y026708D02*
X017930Y026708D01*
X017973Y026665D02*
X018127Y026665D01*
X018235Y026773D01*
X018235Y026927D01*
X018127Y027035D01*
X018035Y027035D01*
X018035Y027127D01*
X017927Y027235D01*
X017835Y027235D01*
X017835Y027327D01*
X017727Y027435D01*
X017573Y027435D01*
X017465Y027327D01*
X017465Y027173D01*
X017573Y027065D01*
X017665Y027065D01*
X017665Y026973D01*
X017773Y026865D01*
X017865Y026865D01*
X017865Y026773D01*
X017973Y026665D01*
X017882Y026757D02*
X016750Y026757D01*
X016750Y026805D02*
X017865Y026805D01*
X017865Y026854D02*
X016750Y026854D01*
X016750Y026902D02*
X017736Y026902D01*
X017688Y026951D02*
X016750Y026951D01*
X016750Y026999D02*
X017665Y026999D01*
X017665Y027048D02*
X016750Y027048D01*
X016750Y027096D02*
X017542Y027096D01*
X017494Y027145D02*
X016750Y027145D01*
X016750Y027193D02*
X017465Y027193D01*
X017465Y027242D02*
X016750Y027242D01*
X016750Y027290D02*
X017465Y027290D01*
X017477Y027339D02*
X016750Y027339D01*
X016750Y027387D02*
X017525Y027387D01*
X017775Y027387D02*
X018465Y027387D01*
X018465Y027339D02*
X017823Y027339D01*
X017835Y027290D02*
X018498Y027290D01*
X018465Y027323D02*
X018573Y027215D01*
X018727Y027215D01*
X018835Y027323D01*
X018835Y027477D01*
X018727Y027585D01*
X018573Y027585D01*
X018465Y027477D01*
X018465Y027323D01*
X018465Y027436D02*
X016750Y027436D01*
X016750Y027484D02*
X018472Y027484D01*
X018521Y027533D02*
X016750Y027533D01*
X016750Y027581D02*
X018569Y027581D01*
X018731Y027581D02*
X018865Y027581D01*
X018865Y027573D02*
X018973Y027465D01*
X019127Y027465D01*
X019235Y027573D01*
X019235Y027727D01*
X019150Y027812D01*
X019150Y028388D01*
X019235Y028473D01*
X019235Y028627D01*
X019127Y028735D01*
X019113Y028735D01*
X019113Y029631D01*
X019069Y029675D01*
X019035Y029675D01*
X019035Y030327D01*
X018927Y030435D01*
X018856Y030435D01*
X018762Y030529D01*
X018502Y030529D01*
X018502Y030563D01*
X018458Y030607D01*
X018042Y030607D01*
X017998Y030563D01*
X017998Y030225D01*
X018042Y030181D01*
X018458Y030181D01*
X018502Y030225D01*
X018502Y030259D01*
X018650Y030259D01*
X018665Y030244D01*
X018665Y030173D01*
X018765Y030073D01*
X018765Y029675D01*
X018731Y029675D01*
X018687Y029631D01*
X018687Y028703D01*
X018731Y028659D01*
X018898Y028659D01*
X018865Y028627D01*
X018865Y028473D01*
X018950Y028388D01*
X018950Y027812D01*
X018865Y027727D01*
X018865Y027573D01*
X018865Y027630D02*
X016750Y027630D01*
X016750Y027678D02*
X018865Y027678D01*
X018865Y027727D02*
X016750Y027727D01*
X016750Y027775D02*
X018913Y027775D01*
X018950Y027824D02*
X016750Y027824D01*
X016750Y027872D02*
X017566Y027872D01*
X017573Y027865D02*
X017727Y027865D01*
X017835Y027973D01*
X017835Y028127D01*
X017727Y028235D01*
X017573Y028235D01*
X017465Y028127D01*
X017465Y027973D01*
X017573Y027865D01*
X017518Y027921D02*
X016750Y027921D01*
X016750Y027969D02*
X017469Y027969D01*
X017465Y028018D02*
X016750Y028018D01*
X016750Y028066D02*
X017465Y028066D01*
X017465Y028115D02*
X016750Y028115D01*
X016750Y028163D02*
X017501Y028163D01*
X017550Y028212D02*
X016750Y028212D01*
X016750Y028260D02*
X018950Y028260D01*
X018950Y028212D02*
X017750Y028212D01*
X017799Y028163D02*
X018950Y028163D01*
X018950Y028115D02*
X017835Y028115D01*
X017835Y028066D02*
X018950Y028066D01*
X018950Y028018D02*
X017835Y028018D01*
X017831Y027969D02*
X018950Y027969D01*
X018950Y027921D02*
X017782Y027921D01*
X017734Y027872D02*
X018950Y027872D01*
X019150Y027872D02*
X021237Y027872D01*
X021286Y027824D02*
X019150Y027824D01*
X019187Y027775D02*
X021334Y027775D01*
X021383Y027727D02*
X019235Y027727D01*
X019235Y027678D02*
X021431Y027678D01*
X021480Y027630D02*
X019235Y027630D01*
X019235Y027581D02*
X021515Y027581D01*
X021515Y027533D02*
X019929Y027533D01*
X019927Y027535D02*
X019773Y027535D01*
X019665Y027427D01*
X019665Y027285D01*
X019623Y027285D01*
X019515Y027177D01*
X019515Y027023D01*
X019623Y026915D01*
X019777Y026915D01*
X019885Y027023D01*
X019885Y027165D01*
X019927Y027165D01*
X020035Y027273D01*
X020035Y027427D01*
X019927Y027535D01*
X019978Y027484D02*
X021515Y027484D01*
X021515Y027436D02*
X020026Y027436D01*
X020035Y027387D02*
X021515Y027387D01*
X021515Y027339D02*
X020035Y027339D01*
X020035Y027290D02*
X021515Y027290D01*
X021515Y027242D02*
X020003Y027242D01*
X019955Y027193D02*
X021515Y027193D01*
X021515Y027145D02*
X019885Y027145D01*
X019885Y027096D02*
X021515Y027096D01*
X021515Y027048D02*
X019885Y027048D01*
X019861Y026999D02*
X021515Y026999D01*
X021515Y026951D02*
X019812Y026951D01*
X019588Y026951D02*
X019011Y026951D01*
X018977Y026985D02*
X018823Y026985D01*
X018715Y026877D01*
X018715Y026723D01*
X018823Y026615D01*
X018977Y026615D01*
X019085Y026723D01*
X019085Y026877D01*
X018977Y026985D01*
X019060Y026902D02*
X021515Y026902D01*
X021515Y026854D02*
X019085Y026854D01*
X019085Y026805D02*
X021515Y026805D01*
X021515Y026757D02*
X019085Y026757D01*
X019070Y026708D02*
X021515Y026708D01*
X021515Y026660D02*
X019021Y026660D01*
X018899Y026563D02*
X019151Y026563D01*
X019102Y026514D02*
X018948Y026514D01*
X018985Y026466D02*
X019065Y026466D01*
X019065Y026417D02*
X018985Y026417D01*
X018985Y026369D02*
X019065Y026369D01*
X019068Y026320D02*
X018982Y026320D01*
X018933Y026272D02*
X019115Y026272D01*
X019115Y026223D02*
X018885Y026223D01*
X018715Y026223D02*
X017139Y026223D01*
X017187Y026175D02*
X019115Y026175D01*
X019115Y026126D02*
X017235Y026126D01*
X017235Y026078D02*
X019115Y026078D01*
X019115Y026029D02*
X017235Y026029D01*
X017235Y025981D02*
X019115Y025981D01*
X019115Y025932D02*
X017194Y025932D01*
X017145Y025884D02*
X019115Y025884D01*
X019115Y025835D02*
X017035Y025835D01*
X017035Y025787D02*
X019115Y025787D01*
X019115Y025738D02*
X017000Y025738D01*
X016951Y025690D02*
X019115Y025690D01*
X019115Y025641D02*
X015875Y025641D01*
X015875Y025593D02*
X019117Y025593D01*
X019165Y025544D02*
X015875Y025544D01*
X015875Y025496D02*
X015978Y025496D01*
X015903Y025447D02*
X015875Y025447D01*
X015875Y025787D02*
X016021Y025787D01*
X015920Y025835D02*
X015875Y025835D01*
X016150Y026150D02*
X016650Y026650D01*
X016650Y029650D01*
X017650Y030650D01*
X017780Y030782D02*
X017948Y030782D01*
X017948Y030752D02*
X017956Y030720D01*
X017973Y030691D01*
X017996Y030668D01*
X018025Y030652D01*
X018056Y030643D01*
X018225Y030643D01*
X018225Y030881D01*
X017948Y030881D01*
X017948Y030752D01*
X017953Y030734D02*
X017828Y030734D01*
X017835Y030685D02*
X017979Y030685D01*
X018023Y030588D02*
X017835Y030588D01*
X017835Y030637D02*
X019215Y030637D01*
X019215Y030685D02*
X018521Y030685D01*
X018527Y030691D02*
X018544Y030720D01*
X018552Y030752D01*
X018552Y030881D01*
X018275Y030881D01*
X018275Y030931D01*
X018225Y030931D01*
X018225Y031169D01*
X018056Y031169D01*
X018025Y031160D01*
X017996Y031144D01*
X017973Y031120D01*
X017956Y031092D01*
X017948Y031060D01*
X017948Y030931D01*
X018225Y030931D01*
X018225Y030881D01*
X018275Y030881D01*
X018275Y030643D01*
X018444Y030643D01*
X018475Y030652D01*
X018504Y030668D01*
X018527Y030691D01*
X018547Y030734D02*
X019222Y030734D01*
X019270Y030782D02*
X018552Y030782D01*
X018552Y030831D02*
X018725Y030831D01*
X018687Y030879D02*
X018552Y030879D01*
X018552Y030931D02*
X018552Y031060D01*
X018544Y031092D01*
X018527Y031120D01*
X018504Y031144D01*
X018475Y031160D01*
X018444Y031169D01*
X018275Y031169D01*
X018275Y030931D01*
X018552Y030931D01*
X018552Y030976D02*
X018687Y030976D01*
X018687Y030928D02*
X018275Y030928D01*
X018275Y030976D02*
X018225Y030976D01*
X018225Y030928D02*
X017069Y030928D01*
X017117Y030976D02*
X017948Y030976D01*
X017948Y031025D02*
X017166Y031025D01*
X017214Y031073D02*
X017951Y031073D01*
X017974Y031122D02*
X017263Y031122D01*
X017311Y031170D02*
X018687Y031170D01*
X018687Y031122D02*
X018526Y031122D01*
X018549Y031073D02*
X018687Y031073D01*
X018687Y031025D02*
X018552Y031025D01*
X018687Y031219D02*
X017360Y031219D01*
X017408Y031267D02*
X018687Y031267D01*
X018687Y031316D02*
X017457Y031316D01*
X017505Y031364D02*
X018687Y031364D01*
X018687Y031413D02*
X017554Y031413D01*
X017603Y031461D02*
X018687Y031461D01*
X018687Y031510D02*
X017651Y031510D01*
X017700Y031558D02*
X018687Y031558D01*
X018687Y031607D02*
X017748Y031607D01*
X017797Y031655D02*
X018687Y031655D01*
X018687Y031704D02*
X017845Y031704D01*
X017894Y031752D02*
X018687Y031752D01*
X018691Y031801D02*
X017942Y031801D01*
X017991Y031849D02*
X018908Y031849D01*
X018956Y031898D02*
X018039Y031898D01*
X018088Y031946D02*
X019005Y031946D01*
X019050Y032050D02*
X019450Y032450D01*
X020650Y032450D01*
X020850Y032250D01*
X021150Y032250D01*
X021300Y032400D01*
X021300Y032600D01*
X021250Y032650D01*
X021391Y032771D02*
X022060Y032771D01*
X022073Y032765D02*
X022227Y032765D01*
X022368Y032824D01*
X022425Y032881D01*
X022425Y032419D01*
X022368Y032476D01*
X022227Y032535D01*
X022073Y032535D01*
X021932Y032476D01*
X021824Y032368D01*
X021765Y032227D01*
X021765Y032073D01*
X021824Y031932D01*
X021932Y031824D01*
X022073Y031765D01*
X022227Y031765D01*
X022368Y031824D01*
X022425Y031881D01*
X022425Y031419D01*
X022368Y031476D01*
X022227Y031535D01*
X022073Y031535D01*
X021932Y031476D01*
X021824Y031368D01*
X021765Y031227D01*
X021765Y031073D01*
X021302Y031073D01*
X021302Y031075D02*
X021258Y031119D01*
X020842Y031119D01*
X020798Y031075D01*
X020798Y030806D01*
X020621Y030806D01*
X020638Y030823D01*
X020654Y030851D01*
X020663Y030883D01*
X020663Y031308D01*
X020425Y031308D01*
X020425Y031358D01*
X020375Y031358D01*
X020375Y031891D01*
X020250Y031891D01*
X020250Y032038D01*
X020335Y032123D01*
X020335Y032277D01*
X020262Y032350D01*
X020609Y032350D01*
X020750Y032209D01*
X020809Y032150D01*
X021191Y032150D01*
X021341Y032300D01*
X021400Y032359D01*
X021400Y032538D01*
X021435Y032573D01*
X021435Y032727D01*
X021327Y032835D01*
X021173Y032835D01*
X021065Y032727D01*
X021065Y032685D01*
X020956Y032685D01*
X020891Y032750D01*
X019409Y032750D01*
X019350Y032691D01*
X019009Y032350D01*
X018009Y032350D01*
X017950Y032291D01*
X016909Y031250D01*
X016525Y031250D01*
X016476Y031368D01*
X016368Y031476D01*
X016227Y031535D01*
X016073Y031535D01*
X015932Y031476D01*
X015875Y031419D01*
X015875Y031881D01*
X015932Y031824D01*
X016073Y031765D01*
X016227Y031765D01*
X016368Y031824D01*
X016476Y031932D01*
X016535Y032073D01*
X016535Y032227D01*
X016476Y032368D01*
X016368Y032476D01*
X016227Y032535D01*
X016073Y032535D01*
X015932Y032476D01*
X015875Y032419D01*
X015875Y032765D01*
X016491Y032765D01*
X016535Y032809D01*
X016535Y033491D01*
X016491Y033535D01*
X015875Y033535D01*
X015875Y033843D01*
X015917Y033801D01*
X016068Y033739D01*
X016232Y033739D01*
X016383Y033801D01*
X016499Y033917D01*
X016561Y034068D01*
X016561Y034232D01*
X016499Y034383D01*
X016383Y034499D01*
X016232Y034561D01*
X016068Y034561D01*
X015917Y034499D01*
X015875Y034457D01*
X015875Y036150D01*
X022425Y036150D01*
X022425Y034457D01*
X022383Y034499D01*
X022232Y034561D01*
X022068Y034561D01*
X021917Y034499D01*
X021801Y034383D01*
X021739Y034232D01*
X021739Y034068D01*
X021801Y033917D01*
X021917Y033801D01*
X022068Y033739D01*
X022232Y033739D01*
X022383Y033801D01*
X022425Y033843D01*
X022425Y033419D01*
X022368Y033476D01*
X022227Y033535D01*
X022073Y033535D01*
X021932Y033476D01*
X021824Y033368D01*
X021765Y033227D01*
X021765Y033073D01*
X021824Y032932D01*
X021932Y032824D01*
X022073Y032765D01*
X021943Y032819D02*
X021343Y032819D01*
X021435Y032722D02*
X022425Y032722D01*
X022425Y032674D02*
X021435Y032674D01*
X021435Y032625D02*
X022425Y032625D01*
X022425Y032577D02*
X021435Y032577D01*
X021400Y032528D02*
X022057Y032528D01*
X021940Y032480D02*
X021400Y032480D01*
X021400Y032431D02*
X021887Y032431D01*
X021838Y032383D02*
X021400Y032383D01*
X021376Y032334D02*
X021810Y032334D01*
X021789Y032286D02*
X021327Y032286D01*
X021279Y032237D02*
X021769Y032237D01*
X021765Y032189D02*
X021230Y032189D01*
X021000Y032500D02*
X020850Y032650D01*
X019450Y032650D01*
X019050Y032250D01*
X018050Y032250D01*
X016950Y031150D01*
X016150Y031150D01*
X016012Y031510D02*
X015875Y031510D01*
X015875Y031558D02*
X017217Y031558D01*
X017265Y031607D02*
X015875Y031607D01*
X015875Y031655D02*
X017314Y031655D01*
X017362Y031704D02*
X015875Y031704D01*
X015875Y031752D02*
X017411Y031752D01*
X017459Y031801D02*
X016312Y031801D01*
X016394Y031849D02*
X017508Y031849D01*
X017556Y031898D02*
X017159Y031898D01*
X017127Y031865D02*
X017235Y031973D01*
X017235Y032127D01*
X017127Y032235D01*
X016973Y032235D01*
X016865Y032127D01*
X016865Y031973D01*
X016973Y031865D01*
X017127Y031865D01*
X017208Y031946D02*
X017605Y031946D01*
X017653Y031995D02*
X017235Y031995D01*
X017235Y032043D02*
X017702Y032043D01*
X017750Y032092D02*
X017235Y032092D01*
X017222Y032140D02*
X017799Y032140D01*
X017847Y032189D02*
X017173Y032189D01*
X016927Y032189D02*
X016535Y032189D01*
X016531Y032237D02*
X017896Y032237D01*
X017944Y032286D02*
X016511Y032286D01*
X016490Y032334D02*
X017993Y032334D01*
X018050Y032050D02*
X019050Y032050D01*
X019150Y031950D02*
X018900Y031700D01*
X018900Y031333D01*
X019113Y031316D02*
X019187Y031316D01*
X019187Y031364D02*
X019113Y031364D01*
X019113Y031413D02*
X019187Y031413D01*
X019187Y031461D02*
X019113Y031461D01*
X019113Y031510D02*
X019187Y031510D01*
X019187Y031558D02*
X019113Y031558D01*
X019113Y031607D02*
X019187Y031607D01*
X019187Y031655D02*
X019113Y031655D01*
X019113Y031704D02*
X019187Y031704D01*
X019187Y031752D02*
X019113Y031752D01*
X019142Y031801D02*
X019191Y031801D01*
X019191Y031849D02*
X019289Y031849D01*
X019150Y031950D02*
X019450Y031950D01*
X019650Y032150D02*
X019650Y031583D01*
X019900Y031333D01*
X019687Y031316D02*
X019613Y031316D01*
X019613Y031364D02*
X019687Y031364D01*
X019679Y031413D02*
X019613Y031413D01*
X019613Y031461D02*
X019630Y031461D01*
X019613Y031267D02*
X019687Y031267D01*
X019687Y031219D02*
X019613Y031219D01*
X019613Y031170D02*
X019687Y031170D01*
X019687Y031122D02*
X019613Y031122D01*
X019613Y031073D02*
X019687Y031073D01*
X019687Y031025D02*
X019613Y031025D01*
X019613Y030976D02*
X019687Y030976D01*
X019687Y030928D02*
X019613Y030928D01*
X019613Y030879D02*
X019687Y030879D01*
X019725Y030831D02*
X019575Y030831D01*
X019530Y030782D02*
X020077Y030782D01*
X020125Y030734D02*
X019578Y030734D01*
X019585Y030685D02*
X020174Y030685D01*
X020222Y030637D02*
X019585Y030637D01*
X019585Y030588D02*
X020823Y030588D01*
X020798Y030540D02*
X019551Y030540D01*
X019503Y030491D02*
X020150Y030491D01*
X020101Y030443D02*
X018848Y030443D01*
X018800Y030491D02*
X019297Y030491D01*
X019249Y030540D02*
X018502Y030540D01*
X018477Y030588D02*
X019215Y030588D01*
X019400Y030650D02*
X019400Y031333D01*
X019187Y031267D02*
X019113Y031267D01*
X019113Y031219D02*
X019187Y031219D01*
X019187Y031170D02*
X019113Y031170D01*
X019113Y031122D02*
X019187Y031122D01*
X019187Y031073D02*
X019113Y031073D01*
X019113Y031025D02*
X019187Y031025D01*
X019187Y030976D02*
X019113Y030976D01*
X019113Y030928D02*
X019187Y030928D01*
X019187Y030879D02*
X019113Y030879D01*
X019075Y030831D02*
X019225Y030831D01*
X018968Y030394D02*
X020053Y030394D01*
X020004Y030346D02*
X019016Y030346D01*
X019035Y030297D02*
X019956Y030297D01*
X019907Y030249D02*
X019035Y030249D01*
X019035Y030200D02*
X019138Y030200D01*
X019173Y030235D02*
X019065Y030127D01*
X019065Y029973D01*
X019150Y029888D01*
X019150Y029809D01*
X019283Y029675D01*
X019231Y029675D01*
X019187Y029631D01*
X019187Y028703D01*
X019231Y028659D01*
X019569Y028659D01*
X019613Y028703D01*
X019613Y029631D01*
X019569Y029675D01*
X019500Y029675D01*
X019500Y029741D01*
X019352Y029890D01*
X019435Y029973D01*
X019435Y030127D01*
X019327Y030235D01*
X019173Y030235D01*
X019090Y030152D02*
X019035Y030152D01*
X019035Y030103D02*
X019065Y030103D01*
X019065Y030055D02*
X019035Y030055D01*
X019035Y030006D02*
X019065Y030006D01*
X019081Y029958D02*
X019035Y029958D01*
X019035Y029909D02*
X019129Y029909D01*
X019150Y029861D02*
X019035Y029861D01*
X019035Y029812D02*
X019150Y029812D01*
X019195Y029764D02*
X019035Y029764D01*
X019035Y029715D02*
X019244Y029715D01*
X019222Y029667D02*
X019078Y029667D01*
X019113Y029618D02*
X019187Y029618D01*
X019187Y029570D02*
X019113Y029570D01*
X019113Y029521D02*
X019187Y029521D01*
X019187Y029473D02*
X019113Y029473D01*
X019113Y029424D02*
X019187Y029424D01*
X019187Y029376D02*
X019113Y029376D01*
X019113Y029327D02*
X019187Y029327D01*
X019187Y029279D02*
X019113Y029279D01*
X019113Y029230D02*
X019187Y029230D01*
X019187Y029182D02*
X019113Y029182D01*
X019113Y029133D02*
X019187Y029133D01*
X019187Y029085D02*
X019113Y029085D01*
X019113Y029036D02*
X019187Y029036D01*
X019187Y028988D02*
X019113Y028988D01*
X019113Y028939D02*
X019187Y028939D01*
X019187Y028891D02*
X019113Y028891D01*
X019113Y028842D02*
X019187Y028842D01*
X019187Y028794D02*
X019113Y028794D01*
X019113Y028745D02*
X019187Y028745D01*
X019194Y028697D02*
X019165Y028697D01*
X019214Y028648D02*
X020798Y028648D01*
X020788Y028600D02*
X020362Y028600D01*
X020327Y028635D02*
X020173Y028635D01*
X020065Y028527D01*
X020065Y028373D01*
X020173Y028265D01*
X020327Y028265D01*
X020435Y028373D01*
X020435Y028527D01*
X020327Y028635D01*
X020231Y028659D02*
X020569Y028659D01*
X020613Y028703D01*
X020613Y029631D01*
X020569Y029675D01*
X020400Y029675D01*
X020400Y029738D01*
X020485Y029823D01*
X020485Y029977D01*
X020377Y030085D01*
X020223Y030085D01*
X020115Y029977D01*
X020115Y029823D01*
X020200Y029738D01*
X020200Y029644D01*
X020187Y029631D01*
X020187Y028703D01*
X020231Y028659D01*
X020194Y028697D02*
X020106Y028697D01*
X020113Y028745D02*
X020187Y028745D01*
X020187Y028794D02*
X020113Y028794D01*
X020113Y028842D02*
X020187Y028842D01*
X020187Y028891D02*
X020113Y028891D01*
X020113Y028939D02*
X020187Y028939D01*
X020187Y028988D02*
X020113Y028988D01*
X020113Y029036D02*
X020187Y029036D01*
X020187Y029085D02*
X020113Y029085D01*
X020113Y029133D02*
X020187Y029133D01*
X020187Y029182D02*
X020113Y029182D01*
X020113Y029230D02*
X020187Y029230D01*
X020187Y029279D02*
X020113Y029279D01*
X020113Y029327D02*
X020187Y029327D01*
X020187Y029376D02*
X020113Y029376D01*
X020113Y029424D02*
X020187Y029424D01*
X020187Y029473D02*
X020113Y029473D01*
X020113Y029521D02*
X020187Y029521D01*
X020187Y029570D02*
X020113Y029570D01*
X020113Y029618D02*
X020187Y029618D01*
X020200Y029667D02*
X020078Y029667D01*
X020000Y029715D02*
X020200Y029715D01*
X020175Y029764D02*
X020000Y029764D01*
X020000Y029812D02*
X020126Y029812D01*
X020115Y029861D02*
X020000Y029861D01*
X020000Y029909D02*
X020115Y029909D01*
X020115Y029958D02*
X020000Y029958D01*
X020000Y030006D02*
X020144Y030006D01*
X020193Y030055D02*
X020000Y030055D01*
X020044Y030103D02*
X021112Y030103D01*
X021064Y030055D02*
X020407Y030055D01*
X020456Y030006D02*
X021015Y030006D01*
X020967Y029958D02*
X020485Y029958D01*
X020485Y029909D02*
X020819Y029909D01*
X020788Y029861D02*
X020485Y029861D01*
X020474Y029812D02*
X020788Y029812D01*
X020788Y029764D02*
X020425Y029764D01*
X020400Y029715D02*
X020788Y029715D01*
X020788Y029667D02*
X020578Y029667D01*
X020613Y029618D02*
X020788Y029618D01*
X020788Y029570D02*
X020613Y029570D01*
X020613Y029521D02*
X020788Y029521D01*
X020788Y029473D02*
X020613Y029473D01*
X020613Y029424D02*
X020826Y029424D01*
X020613Y029376D02*
X021831Y029376D01*
X021807Y029327D02*
X020613Y029327D01*
X020613Y029279D02*
X021787Y029279D01*
X021766Y029230D02*
X020613Y029230D01*
X020613Y029182D02*
X021765Y029182D01*
X021765Y029133D02*
X020613Y029133D01*
X020613Y029085D02*
X021765Y029085D01*
X021780Y029036D02*
X020613Y029036D01*
X020613Y028988D02*
X021801Y028988D01*
X021821Y028939D02*
X020613Y028939D01*
X020613Y028891D02*
X021865Y028891D01*
X021913Y028842D02*
X020613Y028842D01*
X020613Y028794D02*
X022004Y028794D01*
X022296Y028794D02*
X022425Y028794D01*
X022425Y028842D02*
X022387Y028842D01*
X022425Y028745D02*
X020613Y028745D01*
X020606Y028697D02*
X022425Y028697D01*
X022425Y028648D02*
X021302Y028648D01*
X021312Y028600D02*
X022425Y028600D01*
X022425Y028551D02*
X021312Y028551D01*
X021312Y028503D02*
X021995Y028503D01*
X021910Y028454D02*
X021312Y028454D01*
X021312Y028406D02*
X021861Y028406D01*
X021819Y028357D02*
X021312Y028357D01*
X021312Y028309D02*
X021799Y028309D01*
X021779Y028260D02*
X021312Y028260D01*
X021302Y028212D02*
X021765Y028212D01*
X021765Y028163D02*
X021328Y028163D01*
X021376Y028115D02*
X021724Y028115D01*
X021675Y028066D02*
X021425Y028066D01*
X021473Y028018D02*
X021627Y028018D01*
X021578Y027969D02*
X021522Y027969D01*
X021189Y027921D02*
X019150Y027921D01*
X019150Y027969D02*
X021140Y027969D01*
X021092Y028018D02*
X019150Y028018D01*
X019150Y028066D02*
X021043Y028066D01*
X020995Y028115D02*
X019150Y028115D01*
X019150Y028163D02*
X020946Y028163D01*
X020798Y028212D02*
X019150Y028212D01*
X019150Y028260D02*
X020788Y028260D01*
X020788Y028309D02*
X020370Y028309D01*
X020419Y028357D02*
X020788Y028357D01*
X020788Y028406D02*
X020435Y028406D01*
X020435Y028454D02*
X020788Y028454D01*
X020788Y028503D02*
X020435Y028503D01*
X020411Y028551D02*
X020788Y028551D01*
X020400Y029167D02*
X020300Y029267D01*
X020300Y029900D01*
X020093Y030152D02*
X021161Y030152D01*
X021302Y030293D02*
X021302Y030563D01*
X021258Y030607D01*
X020892Y030607D01*
X020979Y030693D01*
X021258Y030693D01*
X021302Y030737D01*
X021302Y031075D01*
X021302Y031025D02*
X021785Y031025D01*
X021765Y031073D02*
X021824Y030932D01*
X021882Y030873D01*
X021302Y030293D01*
X021302Y030297D02*
X021306Y030297D01*
X021302Y030346D02*
X021355Y030346D01*
X021403Y030394D02*
X021302Y030394D01*
X021302Y030443D02*
X021452Y030443D01*
X021500Y030491D02*
X021302Y030491D01*
X021302Y030540D02*
X021549Y030540D01*
X021597Y030588D02*
X021277Y030588D01*
X021299Y030734D02*
X021743Y030734D01*
X021791Y030782D02*
X021302Y030782D01*
X021302Y030831D02*
X021840Y030831D01*
X021876Y030879D02*
X021302Y030879D01*
X021302Y030928D02*
X021828Y030928D01*
X021805Y030976D02*
X021302Y030976D01*
X021050Y030906D02*
X020850Y030706D01*
X020294Y030706D01*
X020150Y030850D01*
X020150Y032200D01*
X020278Y032334D02*
X020624Y032334D01*
X020673Y032286D02*
X020326Y032286D01*
X020335Y032237D02*
X020721Y032237D01*
X020770Y032189D02*
X020335Y032189D01*
X020335Y032140D02*
X021765Y032140D01*
X021765Y032092D02*
X020303Y032092D01*
X020255Y032043D02*
X021778Y032043D01*
X021798Y031995D02*
X020250Y031995D01*
X020250Y031946D02*
X021818Y031946D01*
X021858Y031898D02*
X020250Y031898D01*
X020375Y031849D02*
X020425Y031849D01*
X020425Y031891D02*
X020425Y031358D01*
X020663Y031358D01*
X020663Y031782D01*
X020654Y031814D01*
X020638Y031842D01*
X020615Y031866D01*
X020586Y031882D01*
X020554Y031891D01*
X020425Y031891D01*
X020425Y031801D02*
X020375Y031801D01*
X020375Y031752D02*
X020425Y031752D01*
X020425Y031704D02*
X020375Y031704D01*
X020375Y031655D02*
X020425Y031655D01*
X020425Y031607D02*
X020375Y031607D01*
X020375Y031558D02*
X020425Y031558D01*
X020425Y031510D02*
X020375Y031510D01*
X020375Y031461D02*
X020425Y031461D01*
X020425Y031413D02*
X020375Y031413D01*
X020375Y031364D02*
X020425Y031364D01*
X020425Y031316D02*
X021802Y031316D01*
X021822Y031364D02*
X020663Y031364D01*
X020663Y031413D02*
X021868Y031413D01*
X021917Y031461D02*
X020663Y031461D01*
X020663Y031510D02*
X022012Y031510D01*
X022288Y031510D02*
X022425Y031510D01*
X022425Y031558D02*
X020663Y031558D01*
X020663Y031607D02*
X022425Y031607D01*
X022425Y031655D02*
X020663Y031655D01*
X020663Y031704D02*
X022425Y031704D01*
X022425Y031752D02*
X020663Y031752D01*
X020658Y031801D02*
X021988Y031801D01*
X021906Y031849D02*
X020631Y031849D01*
X020375Y031358D02*
X020250Y031358D01*
X020250Y031308D01*
X020375Y031308D01*
X020375Y031358D01*
X020375Y031316D02*
X020250Y031316D01*
X020375Y031308D02*
X020375Y030806D01*
X020425Y030806D01*
X020425Y031308D01*
X020375Y031308D01*
X020375Y031267D02*
X020425Y031267D01*
X020425Y031219D02*
X020375Y031219D01*
X020375Y031170D02*
X020425Y031170D01*
X020425Y031122D02*
X020375Y031122D01*
X020375Y031073D02*
X020425Y031073D01*
X020425Y031025D02*
X020375Y031025D01*
X020375Y030976D02*
X020425Y030976D01*
X020425Y030928D02*
X020375Y030928D01*
X020375Y030879D02*
X020425Y030879D01*
X020425Y030831D02*
X020375Y030831D01*
X020642Y030831D02*
X020798Y030831D01*
X020798Y030879D02*
X020662Y030879D01*
X020663Y030928D02*
X020798Y030928D01*
X020798Y030976D02*
X020663Y030976D01*
X020663Y031025D02*
X020798Y031025D01*
X020798Y031073D02*
X020663Y031073D01*
X020663Y031122D02*
X021765Y031122D01*
X021765Y031170D02*
X020663Y031170D01*
X020663Y031219D02*
X021765Y031219D01*
X021782Y031267D02*
X020663Y031267D01*
X020971Y030685D02*
X021694Y030685D01*
X021646Y030637D02*
X020922Y030637D01*
X021050Y030394D02*
X020194Y030394D01*
X019900Y030100D01*
X019900Y029167D01*
X019687Y029182D02*
X019613Y029182D01*
X019613Y029230D02*
X019687Y029230D01*
X019687Y029279D02*
X019613Y029279D01*
X019613Y029327D02*
X019687Y029327D01*
X019687Y029376D02*
X019613Y029376D01*
X019613Y029424D02*
X019687Y029424D01*
X019687Y029473D02*
X019613Y029473D01*
X019613Y029521D02*
X019687Y029521D01*
X019687Y029570D02*
X019613Y029570D01*
X019613Y029618D02*
X019687Y029618D01*
X019722Y029667D02*
X019578Y029667D01*
X019500Y029715D02*
X019800Y029715D01*
X019800Y029764D02*
X019478Y029764D01*
X019429Y029812D02*
X019800Y029812D01*
X019800Y029861D02*
X019381Y029861D01*
X019371Y029909D02*
X019800Y029909D01*
X019800Y029958D02*
X019419Y029958D01*
X019435Y030006D02*
X019800Y030006D01*
X019800Y030055D02*
X019435Y030055D01*
X019435Y030103D02*
X019800Y030103D01*
X019810Y030152D02*
X019410Y030152D01*
X019362Y030200D02*
X019859Y030200D01*
X020141Y030200D02*
X020823Y030200D01*
X020798Y030249D02*
X020190Y030249D01*
X019250Y030050D02*
X019250Y029850D01*
X019400Y029700D01*
X019400Y029167D01*
X019613Y029133D02*
X019687Y029133D01*
X019687Y029085D02*
X019613Y029085D01*
X019613Y029036D02*
X019687Y029036D01*
X019687Y028988D02*
X019613Y028988D01*
X019613Y028939D02*
X019687Y028939D01*
X019687Y028891D02*
X019613Y028891D01*
X019613Y028842D02*
X019687Y028842D01*
X019687Y028794D02*
X019613Y028794D01*
X019613Y028745D02*
X019687Y028745D01*
X019694Y028697D02*
X019606Y028697D01*
X019235Y028600D02*
X020138Y028600D01*
X020089Y028551D02*
X019235Y028551D01*
X019235Y028503D02*
X020065Y028503D01*
X020065Y028454D02*
X019216Y028454D01*
X019167Y028406D02*
X020065Y028406D01*
X020081Y028357D02*
X019150Y028357D01*
X019150Y028309D02*
X020130Y028309D01*
X019771Y027533D02*
X019194Y027533D01*
X019146Y027484D02*
X019722Y027484D01*
X019674Y027436D02*
X018835Y027436D01*
X018828Y027484D02*
X018954Y027484D01*
X018906Y027533D02*
X018779Y027533D01*
X018835Y027387D02*
X019665Y027387D01*
X019665Y027339D02*
X018835Y027339D01*
X018802Y027290D02*
X019665Y027290D01*
X019580Y027242D02*
X018753Y027242D01*
X018547Y027242D02*
X017835Y027242D01*
X017969Y027193D02*
X019531Y027193D01*
X019515Y027145D02*
X018017Y027145D01*
X018035Y027096D02*
X019515Y027096D01*
X019515Y027048D02*
X018035Y027048D01*
X018163Y026999D02*
X019539Y026999D01*
X019349Y026563D02*
X019801Y026563D01*
X019765Y026527D02*
X019765Y026373D01*
X019873Y026265D01*
X020027Y026265D01*
X020135Y026373D01*
X020135Y026527D01*
X020027Y026635D01*
X019873Y026635D01*
X019765Y026527D01*
X019765Y026514D02*
X019398Y026514D01*
X019435Y026466D02*
X019765Y026466D01*
X019765Y026417D02*
X019435Y026417D01*
X019435Y026369D02*
X019770Y026369D01*
X019818Y026320D02*
X019432Y026320D01*
X019385Y026272D02*
X019867Y026272D01*
X020033Y026272D02*
X020217Y026272D01*
X020168Y026320D02*
X020082Y026320D01*
X020130Y026369D02*
X020165Y026369D01*
X020165Y026323D02*
X020273Y026215D01*
X020427Y026215D01*
X020535Y026323D01*
X020535Y026477D01*
X020427Y026585D01*
X020273Y026585D01*
X020165Y026477D01*
X020165Y026323D01*
X020165Y026417D02*
X020135Y026417D01*
X020135Y026466D02*
X020165Y026466D01*
X020135Y026514D02*
X020202Y026514D01*
X020251Y026563D02*
X020099Y026563D01*
X020051Y026611D02*
X020749Y026611D01*
X020773Y026635D02*
X020665Y026527D01*
X020665Y026373D01*
X020773Y026265D01*
X020927Y026265D01*
X021035Y026373D01*
X021035Y026527D01*
X020927Y026635D01*
X020773Y026635D01*
X020701Y026563D02*
X020449Y026563D01*
X020498Y026514D02*
X020665Y026514D01*
X020665Y026466D02*
X020535Y026466D01*
X020535Y026417D02*
X020665Y026417D01*
X020670Y026369D02*
X020535Y026369D01*
X020532Y026320D02*
X020718Y026320D01*
X020767Y026272D02*
X020483Y026272D01*
X020435Y026223D02*
X021265Y026223D01*
X021265Y026175D02*
X019385Y026175D01*
X019385Y026223D02*
X020265Y026223D01*
X019849Y026611D02*
X016750Y026611D01*
X016550Y026691D02*
X016345Y026486D01*
X016227Y026535D01*
X016073Y026535D01*
X015932Y026476D01*
X015875Y026419D01*
X015875Y026881D01*
X015932Y026824D01*
X016073Y026765D01*
X016227Y026765D01*
X016368Y026824D01*
X016476Y026932D01*
X016535Y027073D01*
X016535Y027227D01*
X016476Y027368D01*
X016368Y027476D01*
X016227Y027535D01*
X016073Y027535D01*
X015932Y027476D01*
X015875Y027419D01*
X015875Y027812D01*
X015922Y027778D01*
X015983Y027747D01*
X016048Y027726D01*
X016116Y027715D01*
X016125Y027715D01*
X016125Y028125D01*
X016175Y028125D01*
X016175Y027715D01*
X016184Y027715D01*
X016252Y027726D01*
X016317Y027747D01*
X016378Y027778D01*
X016433Y027818D01*
X016482Y027867D01*
X016522Y027922D01*
X016550Y027977D01*
X016550Y026691D01*
X016550Y026708D02*
X015875Y026708D01*
X015875Y026660D02*
X016518Y026660D01*
X016470Y026611D02*
X015875Y026611D01*
X015875Y026563D02*
X016421Y026563D01*
X016373Y026514D02*
X016277Y026514D01*
X016023Y026514D02*
X015875Y026514D01*
X015875Y026466D02*
X015921Y026466D01*
X015875Y026757D02*
X016550Y026757D01*
X016550Y026805D02*
X016323Y026805D01*
X016398Y026854D02*
X016550Y026854D01*
X016550Y026902D02*
X016447Y026902D01*
X016484Y026951D02*
X016550Y026951D01*
X016550Y026999D02*
X016504Y026999D01*
X016524Y027048D02*
X016550Y027048D01*
X016550Y027096D02*
X016535Y027096D01*
X016535Y027145D02*
X016550Y027145D01*
X016550Y027193D02*
X016535Y027193D01*
X016529Y027242D02*
X016550Y027242D01*
X016550Y027290D02*
X016509Y027290D01*
X016489Y027339D02*
X016550Y027339D01*
X016550Y027387D02*
X016457Y027387D01*
X016409Y027436D02*
X016550Y027436D01*
X016550Y027484D02*
X016350Y027484D01*
X016232Y027533D02*
X016550Y027533D01*
X016550Y027581D02*
X015875Y027581D01*
X015875Y027533D02*
X016068Y027533D01*
X015950Y027484D02*
X015875Y027484D01*
X015875Y027436D02*
X015891Y027436D01*
X015875Y027630D02*
X016550Y027630D01*
X016550Y027678D02*
X015875Y027678D01*
X015875Y027727D02*
X016046Y027727D01*
X016125Y027727D02*
X016175Y027727D01*
X016175Y027775D02*
X016125Y027775D01*
X016125Y027824D02*
X016175Y027824D01*
X016175Y027872D02*
X016125Y027872D01*
X016125Y027921D02*
X016175Y027921D01*
X016175Y027969D02*
X016125Y027969D01*
X016125Y028018D02*
X016175Y028018D01*
X016175Y028066D02*
X016125Y028066D01*
X016125Y028115D02*
X016175Y028115D01*
X016175Y028212D02*
X016125Y028212D01*
X016125Y028260D02*
X016175Y028260D01*
X016175Y028309D02*
X016125Y028309D01*
X016125Y028357D02*
X016175Y028357D01*
X016175Y028406D02*
X016125Y028406D01*
X016125Y028454D02*
X016175Y028454D01*
X016175Y028503D02*
X016125Y028503D01*
X016125Y028551D02*
X016175Y028551D01*
X016321Y028551D02*
X016550Y028551D01*
X016550Y028503D02*
X016405Y028503D01*
X016461Y028454D02*
X016550Y028454D01*
X016550Y028406D02*
X016502Y028406D01*
X016533Y028357D02*
X016550Y028357D01*
X016750Y028357D02*
X018950Y028357D01*
X018950Y028309D02*
X016750Y028309D01*
X016750Y028406D02*
X018933Y028406D01*
X018884Y028454D02*
X016750Y028454D01*
X016750Y028503D02*
X018865Y028503D01*
X018865Y028551D02*
X016750Y028551D01*
X016750Y028600D02*
X018865Y028600D01*
X018886Y028648D02*
X016750Y028648D01*
X016750Y028697D02*
X018694Y028697D01*
X018687Y028745D02*
X016750Y028745D01*
X016750Y028794D02*
X018687Y028794D01*
X018687Y028842D02*
X016750Y028842D01*
X016750Y028891D02*
X018687Y028891D01*
X018687Y028939D02*
X016750Y028939D01*
X016750Y028988D02*
X018687Y028988D01*
X018687Y029036D02*
X016750Y029036D01*
X016750Y029085D02*
X018687Y029085D01*
X018687Y029133D02*
X016750Y029133D01*
X016750Y029182D02*
X018687Y029182D01*
X018687Y029230D02*
X016750Y029230D01*
X016750Y029279D02*
X017360Y029279D01*
X017373Y029265D02*
X017527Y029265D01*
X017635Y029373D01*
X017635Y029527D01*
X017527Y029635D01*
X017373Y029635D01*
X017265Y029527D01*
X017265Y029373D01*
X017373Y029265D01*
X017311Y029327D02*
X016750Y029327D01*
X016750Y029376D02*
X017265Y029376D01*
X017265Y029424D02*
X016750Y029424D01*
X016750Y029473D02*
X017265Y029473D01*
X017265Y029521D02*
X016750Y029521D01*
X016750Y029570D02*
X017308Y029570D01*
X017356Y029618D02*
X016759Y029618D01*
X016808Y029667D02*
X018722Y029667D01*
X018687Y029618D02*
X017544Y029618D01*
X017592Y029570D02*
X018687Y029570D01*
X018687Y029521D02*
X017635Y029521D01*
X017635Y029473D02*
X018687Y029473D01*
X018687Y029424D02*
X017635Y029424D01*
X017635Y029376D02*
X018687Y029376D01*
X018687Y029327D02*
X017589Y029327D01*
X017540Y029279D02*
X018687Y029279D01*
X018765Y029715D02*
X016856Y029715D01*
X016905Y029764D02*
X018765Y029764D01*
X018765Y029812D02*
X016953Y029812D01*
X017002Y029861D02*
X018765Y029861D01*
X018765Y029909D02*
X017050Y029909D01*
X017099Y029958D02*
X018765Y029958D01*
X018765Y030006D02*
X017147Y030006D01*
X017196Y030055D02*
X018765Y030055D01*
X018735Y030103D02*
X017244Y030103D01*
X017293Y030152D02*
X018687Y030152D01*
X018665Y030200D02*
X018477Y030200D01*
X018502Y030249D02*
X018661Y030249D01*
X018275Y030685D02*
X018225Y030685D01*
X018225Y030734D02*
X018275Y030734D01*
X018275Y030782D02*
X018225Y030782D01*
X018225Y030831D02*
X018275Y030831D01*
X018275Y030879D02*
X018225Y030879D01*
X018225Y031025D02*
X018275Y031025D01*
X018275Y031073D02*
X018225Y031073D01*
X018225Y031122D02*
X018275Y031122D01*
X017948Y030879D02*
X017020Y030879D01*
X016972Y030831D02*
X017569Y030831D01*
X017520Y030782D02*
X016923Y030782D01*
X016875Y030734D02*
X017472Y030734D01*
X017465Y030685D02*
X016826Y030685D01*
X016778Y030637D02*
X017465Y030637D01*
X017447Y030588D02*
X016729Y030588D01*
X016681Y030540D02*
X017398Y030540D01*
X017350Y030491D02*
X016632Y030491D01*
X016584Y030443D02*
X017301Y030443D01*
X017253Y030394D02*
X016535Y030394D01*
X016487Y030346D02*
X017204Y030346D01*
X017156Y030297D02*
X016506Y030297D01*
X016526Y030249D02*
X017107Y030249D01*
X017059Y030200D02*
X016535Y030200D01*
X016535Y030152D02*
X017010Y030152D01*
X016962Y030103D02*
X016535Y030103D01*
X016527Y030055D02*
X016913Y030055D01*
X016865Y030006D02*
X016507Y030006D01*
X016487Y029958D02*
X016816Y029958D01*
X016768Y029909D02*
X016454Y029909D01*
X016405Y029861D02*
X016719Y029861D01*
X016671Y029812D02*
X016340Y029812D01*
X016574Y029715D02*
X015875Y029715D01*
X015875Y029667D02*
X016550Y029667D01*
X016550Y029618D02*
X015875Y029618D01*
X015875Y029570D02*
X016550Y029570D01*
X016550Y029521D02*
X016260Y029521D01*
X016372Y029473D02*
X016550Y029473D01*
X016550Y029424D02*
X016420Y029424D01*
X016469Y029376D02*
X016550Y029376D01*
X016550Y029327D02*
X016493Y029327D01*
X016513Y029279D02*
X016550Y029279D01*
X016550Y029230D02*
X016534Y029230D01*
X016535Y029182D02*
X016550Y029182D01*
X016550Y029133D02*
X016535Y029133D01*
X016535Y029085D02*
X016550Y029085D01*
X016550Y029036D02*
X016520Y029036D01*
X016499Y028988D02*
X016550Y028988D01*
X016550Y028939D02*
X016479Y028939D01*
X016435Y028891D02*
X016550Y028891D01*
X016550Y028842D02*
X016387Y028842D01*
X016296Y028794D02*
X016550Y028794D01*
X016550Y028745D02*
X015875Y028745D01*
X015875Y028697D02*
X016550Y028697D01*
X016550Y028648D02*
X015875Y028648D01*
X015875Y028600D02*
X016550Y028600D01*
X016546Y027969D02*
X016550Y027969D01*
X016550Y027921D02*
X016521Y027921D01*
X016550Y027872D02*
X016486Y027872D01*
X016439Y027824D02*
X016550Y027824D01*
X016550Y027775D02*
X016372Y027775D01*
X016254Y027727D02*
X016550Y027727D01*
X015928Y027775D02*
X015875Y027775D01*
X015875Y028503D02*
X015895Y028503D01*
X015875Y028551D02*
X015979Y028551D01*
X016004Y028794D02*
X015875Y028794D01*
X015875Y028842D02*
X015913Y028842D01*
X015880Y029424D02*
X015875Y029424D01*
X015875Y029473D02*
X015928Y029473D01*
X015875Y029521D02*
X016040Y029521D01*
X015875Y029764D02*
X016622Y029764D01*
X016150Y030150D02*
X018050Y032050D01*
X018715Y032473D02*
X018715Y032627D01*
X018823Y032735D01*
X018977Y032735D01*
X019085Y032627D01*
X019085Y032473D01*
X018977Y032365D01*
X018823Y032365D01*
X018715Y032473D01*
X018715Y032480D02*
X016360Y032480D01*
X016413Y032431D02*
X018757Y032431D01*
X018806Y032383D02*
X016462Y032383D01*
X016535Y032140D02*
X016878Y032140D01*
X016865Y032092D02*
X016535Y032092D01*
X016522Y032043D02*
X016865Y032043D01*
X016865Y031995D02*
X016502Y031995D01*
X016482Y031946D02*
X016892Y031946D01*
X016941Y031898D02*
X016442Y031898D01*
X016288Y031510D02*
X017168Y031510D01*
X017120Y031461D02*
X016383Y031461D01*
X016432Y031413D02*
X017071Y031413D01*
X017023Y031364D02*
X016478Y031364D01*
X016498Y031316D02*
X016974Y031316D01*
X016926Y031267D02*
X016518Y031267D01*
X015917Y031461D02*
X015875Y031461D01*
X015875Y031801D02*
X015988Y031801D01*
X015906Y031849D02*
X015875Y031849D01*
X015875Y032431D02*
X015887Y032431D01*
X015875Y032480D02*
X015940Y032480D01*
X015875Y032528D02*
X016057Y032528D01*
X016243Y032528D02*
X018715Y032528D01*
X018715Y032577D02*
X015875Y032577D01*
X015875Y032625D02*
X018715Y032625D01*
X018762Y032674D02*
X015875Y032674D01*
X015875Y032722D02*
X018810Y032722D01*
X018990Y032722D02*
X019381Y032722D01*
X019425Y032774D02*
X019425Y033090D01*
X019475Y033090D01*
X019475Y032774D01*
X019663Y032774D01*
X019695Y032782D01*
X019724Y032799D01*
X019747Y032822D01*
X019763Y032851D01*
X019772Y032882D01*
X019772Y033090D01*
X019475Y033090D01*
X019475Y033140D01*
X019772Y033140D01*
X019772Y033348D01*
X019763Y033380D01*
X019747Y033409D01*
X019724Y033432D01*
X019695Y033448D01*
X019663Y033457D01*
X019475Y033457D01*
X019475Y033140D01*
X019425Y033140D01*
X019425Y033090D01*
X019128Y033090D01*
X019128Y032882D01*
X019137Y032851D01*
X019153Y032822D01*
X019176Y032799D01*
X019205Y032782D01*
X019237Y032774D01*
X019425Y032774D01*
X019425Y032819D02*
X019475Y032819D01*
X019475Y032868D02*
X019425Y032868D01*
X019425Y032916D02*
X019475Y032916D01*
X019475Y032965D02*
X019425Y032965D01*
X019425Y033013D02*
X019475Y033013D01*
X019475Y033062D02*
X019425Y033062D01*
X019425Y033110D02*
X018985Y033110D01*
X018985Y033073D02*
X018877Y032965D01*
X018723Y032965D01*
X018615Y033073D01*
X018615Y033227D01*
X018723Y033335D01*
X018877Y033335D01*
X018985Y033227D01*
X018985Y033073D01*
X018973Y033062D02*
X019128Y033062D01*
X019128Y033013D02*
X018925Y033013D01*
X018985Y033159D02*
X019128Y033159D01*
X019128Y033140D02*
X019425Y033140D01*
X019425Y033457D01*
X019237Y033457D01*
X019205Y033448D01*
X019176Y033432D01*
X019153Y033409D01*
X019137Y033380D01*
X019128Y033348D01*
X019128Y033140D01*
X019128Y033207D02*
X018985Y033207D01*
X018956Y033256D02*
X019128Y033256D01*
X019128Y033304D02*
X018908Y033304D01*
X018692Y033304D02*
X017550Y033304D01*
X017550Y033256D02*
X018644Y033256D01*
X018615Y033207D02*
X017555Y033207D01*
X017550Y033212D02*
X017550Y034798D01*
X017563Y034798D01*
X017607Y034842D01*
X017607Y035258D01*
X017585Y035280D01*
X017715Y035280D01*
X017693Y035258D01*
X017693Y034842D01*
X017737Y034798D01*
X018075Y034798D01*
X018119Y034842D01*
X018119Y034920D01*
X018173Y034865D01*
X018327Y034865D01*
X018381Y034920D01*
X018381Y034842D01*
X018425Y034798D01*
X018750Y034798D01*
X018750Y034612D01*
X018665Y034527D01*
X018665Y034373D01*
X018773Y034265D01*
X018927Y034265D01*
X019035Y034373D01*
X019035Y034527D01*
X018950Y034612D01*
X018950Y034798D01*
X019275Y034798D01*
X019319Y034842D01*
X019319Y035258D01*
X019275Y035302D01*
X018937Y035302D01*
X018893Y035258D01*
X018893Y035035D01*
X018807Y034948D01*
X018807Y035258D01*
X018763Y035302D01*
X018694Y035302D01*
X018694Y035398D01*
X018763Y035398D01*
X018807Y035442D01*
X018807Y035858D01*
X018763Y035902D01*
X018425Y035902D01*
X018381Y035858D01*
X018381Y035442D01*
X018425Y035398D01*
X018494Y035398D01*
X018494Y035302D01*
X018425Y035302D01*
X018381Y035258D01*
X018381Y035180D01*
X018327Y035235D01*
X018173Y035235D01*
X018119Y035180D01*
X018119Y035258D01*
X018075Y035302D01*
X017999Y035302D01*
X018020Y035324D01*
X018020Y035976D01*
X017976Y036020D01*
X017324Y036020D01*
X017280Y035976D01*
X017280Y035324D01*
X017294Y035309D01*
X017294Y035302D01*
X017225Y035302D01*
X017181Y035258D01*
X017181Y034842D01*
X017225Y034798D01*
X017350Y034798D01*
X017350Y033212D01*
X017265Y033127D01*
X017265Y032973D01*
X017373Y032865D01*
X017527Y032865D01*
X017635Y032973D01*
X017635Y033127D01*
X017550Y033212D01*
X017603Y033159D02*
X018615Y033159D01*
X018615Y033110D02*
X017635Y033110D01*
X017635Y033062D02*
X018627Y033062D01*
X018675Y033013D02*
X017635Y033013D01*
X017626Y032965D02*
X019128Y032965D01*
X019128Y032916D02*
X017578Y032916D01*
X017529Y032868D02*
X019132Y032868D01*
X019156Y032819D02*
X016535Y032819D01*
X016535Y032868D02*
X017371Y032868D01*
X017322Y032916D02*
X016535Y032916D01*
X016535Y032965D02*
X017274Y032965D01*
X017265Y033013D02*
X016535Y033013D01*
X016535Y033062D02*
X017265Y033062D01*
X017265Y033110D02*
X016535Y033110D01*
X016535Y033159D02*
X017297Y033159D01*
X017345Y033207D02*
X016535Y033207D01*
X016535Y033256D02*
X017350Y033256D01*
X017350Y033304D02*
X017017Y033304D01*
X017054Y033320D02*
X017130Y033396D01*
X017172Y033496D01*
X017172Y033604D01*
X017130Y033704D01*
X017054Y033780D01*
X016954Y033822D01*
X016846Y033822D01*
X016746Y033780D01*
X016670Y033704D01*
X016628Y033604D01*
X016628Y033496D01*
X016670Y033396D01*
X016746Y033320D01*
X016846Y033278D01*
X016954Y033278D01*
X017054Y033320D01*
X017087Y033353D02*
X017350Y033353D01*
X017350Y033401D02*
X017133Y033401D01*
X017153Y033450D02*
X017350Y033450D01*
X017350Y033498D02*
X017172Y033498D01*
X017172Y033547D02*
X017350Y033547D01*
X017350Y033595D02*
X017172Y033595D01*
X017155Y033644D02*
X017350Y033644D01*
X017350Y033692D02*
X017135Y033692D01*
X017094Y033741D02*
X017350Y033741D01*
X017350Y033789D02*
X017033Y033789D01*
X016767Y033789D02*
X016353Y033789D01*
X016419Y033838D02*
X017350Y033838D01*
X017350Y033886D02*
X016468Y033886D01*
X016506Y033935D02*
X017350Y033935D01*
X017350Y033983D02*
X016526Y033983D01*
X016546Y034032D02*
X017350Y034032D01*
X017350Y034080D02*
X016561Y034080D01*
X016561Y034129D02*
X016960Y034129D01*
X016973Y034115D02*
X017127Y034115D01*
X017235Y034223D01*
X017235Y034377D01*
X017127Y034485D01*
X016973Y034485D01*
X016865Y034377D01*
X016865Y034223D01*
X016973Y034115D01*
X016911Y034177D02*
X016561Y034177D01*
X016561Y034226D02*
X016865Y034226D01*
X016865Y034274D02*
X016544Y034274D01*
X016524Y034323D02*
X016865Y034323D01*
X016865Y034371D02*
X016504Y034371D01*
X016462Y034420D02*
X016908Y034420D01*
X016956Y034468D02*
X016413Y034468D01*
X016340Y034517D02*
X017350Y034517D01*
X017350Y034565D02*
X015875Y034565D01*
X015875Y034517D02*
X015960Y034517D01*
X015887Y034468D02*
X015875Y034468D01*
X015875Y034614D02*
X017350Y034614D01*
X017350Y034662D02*
X015875Y034662D01*
X015875Y034711D02*
X017350Y034711D01*
X017350Y034759D02*
X015875Y034759D01*
X015875Y034808D02*
X017215Y034808D01*
X017181Y034856D02*
X015875Y034856D01*
X015875Y034905D02*
X017181Y034905D01*
X017181Y034953D02*
X015875Y034953D01*
X015875Y035002D02*
X017181Y035002D01*
X017181Y035050D02*
X015875Y035050D01*
X015875Y035099D02*
X017181Y035099D01*
X017181Y035147D02*
X015875Y035147D01*
X015875Y035196D02*
X017181Y035196D01*
X017181Y035244D02*
X015875Y035244D01*
X015875Y035293D02*
X017216Y035293D01*
X017280Y035341D02*
X015875Y035341D01*
X015875Y035390D02*
X017280Y035390D01*
X017280Y035438D02*
X015875Y035438D01*
X015875Y035487D02*
X017280Y035487D01*
X017280Y035535D02*
X015875Y035535D01*
X015875Y035584D02*
X017280Y035584D01*
X017280Y035632D02*
X015875Y035632D01*
X015875Y035681D02*
X017280Y035681D01*
X017280Y035729D02*
X015875Y035729D01*
X015875Y035778D02*
X017280Y035778D01*
X017280Y035826D02*
X015875Y035826D01*
X015875Y035875D02*
X017280Y035875D01*
X017280Y035923D02*
X015875Y035923D01*
X015875Y035972D02*
X017280Y035972D01*
X017323Y036020D02*
X015875Y036020D01*
X015875Y036069D02*
X022425Y036069D01*
X022425Y036117D02*
X015875Y036117D01*
X017144Y034468D02*
X017350Y034468D01*
X017350Y034420D02*
X017192Y034420D01*
X017235Y034371D02*
X017350Y034371D01*
X017350Y034323D02*
X017235Y034323D01*
X017235Y034274D02*
X017350Y034274D01*
X017350Y034226D02*
X017235Y034226D01*
X017189Y034177D02*
X017350Y034177D01*
X017350Y034129D02*
X017140Y034129D01*
X017550Y034129D02*
X021315Y034129D01*
X021315Y034123D02*
X021365Y034073D01*
X021365Y034012D01*
X021315Y033962D01*
X021273Y033920D01*
X020922Y033920D01*
X020922Y034032D01*
X020878Y034076D01*
X020422Y034076D01*
X020378Y034032D01*
X020378Y033537D01*
X020422Y033493D01*
X020878Y033493D01*
X020922Y033537D01*
X020922Y033650D01*
X021385Y033650D01*
X021506Y033771D01*
X021512Y033771D01*
X021556Y033815D01*
X021635Y033894D01*
X021635Y034073D01*
X021685Y034123D01*
X021685Y034277D01*
X021577Y034385D01*
X021423Y034385D01*
X021315Y034277D01*
X021315Y034123D01*
X021315Y034177D02*
X017550Y034177D01*
X017550Y034226D02*
X021315Y034226D01*
X021315Y034274D02*
X018936Y034274D01*
X018984Y034323D02*
X021361Y034323D01*
X021409Y034371D02*
X021213Y034371D01*
X021191Y034350D02*
X021250Y034409D01*
X021306Y034465D01*
X021427Y034465D01*
X021535Y034573D01*
X021535Y034727D01*
X021427Y034835D01*
X021273Y034835D01*
X021200Y034762D01*
X021127Y034835D01*
X020973Y034835D01*
X020865Y034727D01*
X020865Y034573D01*
X020888Y034550D01*
X020091Y034550D01*
X019835Y034806D01*
X019835Y034865D01*
X019927Y034865D01*
X020035Y034973D01*
X020035Y035127D01*
X019927Y035235D01*
X019773Y035235D01*
X019665Y035127D01*
X019665Y035035D01*
X019573Y035035D01*
X019550Y035012D01*
X019550Y035347D01*
X019319Y035579D01*
X019319Y035858D01*
X019275Y035902D01*
X018937Y035902D01*
X018893Y035858D01*
X018893Y035442D01*
X018937Y035398D01*
X019217Y035398D01*
X019350Y035264D01*
X019350Y034812D01*
X019265Y034727D01*
X019265Y034573D01*
X019373Y034465D01*
X019527Y034465D01*
X019635Y034573D01*
X019635Y034665D01*
X019694Y034665D01*
X020009Y034350D01*
X021191Y034350D01*
X021261Y034420D02*
X021838Y034420D01*
X021796Y034371D02*
X021591Y034371D01*
X021639Y034323D02*
X021776Y034323D01*
X021756Y034274D02*
X021685Y034274D01*
X021685Y034226D02*
X021739Y034226D01*
X021739Y034177D02*
X021685Y034177D01*
X021685Y034129D02*
X021739Y034129D01*
X021739Y034080D02*
X021642Y034080D01*
X021635Y034032D02*
X021754Y034032D01*
X021774Y033983D02*
X021635Y033983D01*
X021635Y033935D02*
X021794Y033935D01*
X021832Y033886D02*
X021627Y033886D01*
X021579Y033838D02*
X021881Y033838D01*
X021947Y033789D02*
X021530Y033789D01*
X021476Y033741D02*
X022064Y033741D01*
X022236Y033741D02*
X022425Y033741D01*
X022425Y033789D02*
X022353Y033789D01*
X022419Y033838D02*
X022425Y033838D01*
X022425Y033692D02*
X021427Y033692D01*
X021288Y033935D02*
X020922Y033935D01*
X020922Y033983D02*
X021336Y033983D01*
X021365Y034032D02*
X020922Y034032D01*
X020922Y033644D02*
X022425Y033644D01*
X022425Y033595D02*
X020922Y033595D01*
X020922Y033547D02*
X022425Y033547D01*
X022425Y033498D02*
X022316Y033498D01*
X022395Y033450D02*
X022425Y033450D01*
X021984Y033498D02*
X020883Y033498D01*
X020863Y033457D02*
X020675Y033457D01*
X020675Y033140D01*
X020972Y033140D01*
X020972Y033348D01*
X020963Y033380D01*
X020947Y033409D01*
X020924Y033432D01*
X020895Y033448D01*
X020863Y033457D01*
X020891Y033450D02*
X021905Y033450D01*
X021857Y033401D02*
X020951Y033401D01*
X020971Y033353D02*
X021817Y033353D01*
X021797Y033304D02*
X020972Y033304D01*
X020972Y033256D02*
X021777Y033256D01*
X021765Y033207D02*
X020972Y033207D01*
X020972Y033159D02*
X021765Y033159D01*
X021765Y033110D02*
X020675Y033110D01*
X020675Y033090D02*
X020675Y033140D01*
X020625Y033140D01*
X020625Y033090D01*
X020675Y033090D01*
X020675Y032774D01*
X020863Y032774D01*
X020895Y032782D01*
X020924Y032799D01*
X020947Y032822D01*
X020963Y032851D01*
X020972Y032882D01*
X020972Y033090D01*
X020675Y033090D01*
X020675Y033062D02*
X020625Y033062D01*
X020625Y033090D02*
X020625Y032774D01*
X020437Y032774D01*
X020405Y032782D01*
X020376Y032799D01*
X020353Y032822D01*
X020337Y032851D01*
X020328Y032882D01*
X020328Y033090D01*
X020625Y033090D01*
X020625Y033110D02*
X019475Y033110D01*
X019475Y033159D02*
X019425Y033159D01*
X019425Y033207D02*
X019475Y033207D01*
X019475Y033256D02*
X019425Y033256D01*
X019425Y033304D02*
X019475Y033304D01*
X019475Y033353D02*
X019425Y033353D01*
X019425Y033401D02*
X019475Y033401D01*
X019475Y033450D02*
X019425Y033450D01*
X019222Y033493D02*
X019678Y033493D01*
X019722Y033537D01*
X019722Y034032D01*
X019678Y034076D01*
X019222Y034076D01*
X019178Y034032D01*
X019178Y033920D01*
X018912Y033920D01*
X018885Y033931D01*
X018882Y033929D01*
X018877Y033935D01*
X018723Y033935D01*
X018615Y033827D01*
X018615Y033673D01*
X018723Y033565D01*
X018877Y033565D01*
X018961Y033650D01*
X019178Y033650D01*
X019178Y033537D01*
X019222Y033493D01*
X019217Y033498D02*
X017550Y033498D01*
X017550Y033450D02*
X019209Y033450D01*
X019149Y033401D02*
X017550Y033401D01*
X017550Y033353D02*
X019129Y033353D01*
X019178Y033547D02*
X017550Y033547D01*
X017550Y033595D02*
X018693Y033595D01*
X018645Y033644D02*
X017550Y033644D01*
X017550Y033692D02*
X018615Y033692D01*
X018615Y033741D02*
X017550Y033741D01*
X017550Y033789D02*
X018615Y033789D01*
X018626Y033838D02*
X017550Y033838D01*
X017550Y033886D02*
X018674Y033886D01*
X018723Y033935D02*
X017550Y033935D01*
X017550Y033983D02*
X019178Y033983D01*
X019178Y033935D02*
X018877Y033935D01*
X018955Y033644D02*
X019178Y033644D01*
X019178Y033595D02*
X018907Y033595D01*
X019178Y034032D02*
X017550Y034032D01*
X017550Y034080D02*
X021358Y034080D01*
X021430Y034468D02*
X021887Y034468D01*
X021960Y034517D02*
X021478Y034517D01*
X021527Y034565D02*
X022425Y034565D01*
X022425Y034517D02*
X022340Y034517D01*
X022413Y034468D02*
X022425Y034468D01*
X022425Y034614D02*
X021535Y034614D01*
X021535Y034662D02*
X022425Y034662D01*
X022425Y034711D02*
X021535Y034711D01*
X021503Y034759D02*
X022425Y034759D01*
X022425Y034808D02*
X021454Y034808D01*
X021350Y034650D02*
X021150Y034450D01*
X020050Y034450D01*
X019650Y034850D01*
X019835Y034856D02*
X022425Y034856D01*
X022425Y034905D02*
X019966Y034905D01*
X020015Y034953D02*
X022425Y034953D01*
X022425Y035002D02*
X020035Y035002D01*
X020035Y035050D02*
X022425Y035050D01*
X022425Y035099D02*
X020035Y035099D01*
X020015Y035147D02*
X022425Y035147D01*
X022425Y035196D02*
X019966Y035196D01*
X019734Y035196D02*
X019550Y035196D01*
X019550Y035244D02*
X022425Y035244D01*
X022425Y035293D02*
X019550Y035293D01*
X019550Y035341D02*
X022425Y035341D01*
X022425Y035390D02*
X019508Y035390D01*
X019459Y035438D02*
X022425Y035438D01*
X022425Y035487D02*
X019411Y035487D01*
X019362Y035535D02*
X022425Y035535D01*
X022425Y035584D02*
X019319Y035584D01*
X019319Y035632D02*
X022425Y035632D01*
X022425Y035681D02*
X019319Y035681D01*
X019319Y035729D02*
X022425Y035729D01*
X022425Y035778D02*
X019319Y035778D01*
X019319Y035826D02*
X022425Y035826D01*
X022425Y035875D02*
X019302Y035875D01*
X019106Y035650D02*
X019450Y035306D01*
X019450Y034650D01*
X019322Y034517D02*
X019035Y034517D01*
X019035Y034468D02*
X019370Y034468D01*
X019273Y034565D02*
X018997Y034565D01*
X018950Y034614D02*
X019265Y034614D01*
X019265Y034662D02*
X018950Y034662D01*
X018950Y034711D02*
X019265Y034711D01*
X019297Y034759D02*
X018950Y034759D01*
X018850Y034850D02*
X019050Y035050D01*
X019050Y034994D01*
X019106Y035050D01*
X019319Y035050D02*
X019350Y035050D01*
X019350Y035002D02*
X019319Y035002D01*
X019319Y034953D02*
X019350Y034953D01*
X019350Y034905D02*
X019319Y034905D01*
X019319Y034856D02*
X019350Y034856D01*
X019346Y034808D02*
X019285Y034808D01*
X019319Y035099D02*
X019350Y035099D01*
X019350Y035147D02*
X019319Y035147D01*
X019319Y035196D02*
X019350Y035196D01*
X019350Y035244D02*
X019319Y035244D01*
X019322Y035293D02*
X019284Y035293D01*
X019273Y035341D02*
X018694Y035341D01*
X018694Y035390D02*
X019225Y035390D01*
X018927Y035293D02*
X018773Y035293D01*
X018807Y035244D02*
X018893Y035244D01*
X018893Y035196D02*
X018807Y035196D01*
X018807Y035147D02*
X018893Y035147D01*
X018893Y035099D02*
X018807Y035099D01*
X018807Y035050D02*
X018893Y035050D01*
X018860Y035002D02*
X018807Y035002D01*
X018807Y034953D02*
X018812Y034953D01*
X018850Y034850D02*
X018850Y034450D01*
X018716Y034323D02*
X017550Y034323D01*
X017550Y034371D02*
X018667Y034371D01*
X018665Y034420D02*
X017550Y034420D01*
X017550Y034468D02*
X018665Y034468D01*
X018665Y034517D02*
X017550Y034517D01*
X017550Y034565D02*
X018703Y034565D01*
X018750Y034614D02*
X017550Y034614D01*
X017550Y034662D02*
X018750Y034662D01*
X018750Y034711D02*
X017550Y034711D01*
X017550Y034759D02*
X018750Y034759D01*
X018594Y035050D02*
X018594Y035650D01*
X018381Y035632D02*
X018020Y035632D01*
X018020Y035584D02*
X018381Y035584D01*
X018381Y035535D02*
X018020Y035535D01*
X018020Y035487D02*
X018381Y035487D01*
X018385Y035438D02*
X018020Y035438D01*
X018020Y035390D02*
X018494Y035390D01*
X018494Y035341D02*
X018020Y035341D01*
X018084Y035293D02*
X018416Y035293D01*
X018381Y035244D02*
X018119Y035244D01*
X018119Y035196D02*
X018134Y035196D01*
X018250Y035050D02*
X018594Y035050D01*
X018381Y034905D02*
X018366Y034905D01*
X018381Y034856D02*
X018119Y034856D01*
X018119Y034905D02*
X018134Y034905D01*
X018085Y034808D02*
X018415Y034808D01*
X018250Y035050D02*
X017906Y035050D01*
X017693Y035050D02*
X017607Y035050D01*
X017607Y035002D02*
X017693Y035002D01*
X017693Y034953D02*
X017607Y034953D01*
X017607Y034905D02*
X017693Y034905D01*
X017693Y034856D02*
X017607Y034856D01*
X017573Y034808D02*
X017727Y034808D01*
X017693Y035099D02*
X017607Y035099D01*
X017607Y035147D02*
X017693Y035147D01*
X017693Y035196D02*
X017607Y035196D01*
X017607Y035244D02*
X017693Y035244D01*
X017394Y035394D02*
X017650Y035650D01*
X017394Y035394D02*
X017394Y035050D01*
X017450Y034994D01*
X017450Y033050D01*
X016783Y033304D02*
X016535Y033304D01*
X016535Y033353D02*
X016713Y033353D01*
X016667Y033401D02*
X016535Y033401D01*
X016535Y033450D02*
X016647Y033450D01*
X016628Y033498D02*
X016528Y033498D01*
X016628Y033547D02*
X015875Y033547D01*
X015875Y033595D02*
X016628Y033595D01*
X016645Y033644D02*
X015875Y033644D01*
X015875Y033692D02*
X016665Y033692D01*
X016706Y033741D02*
X016236Y033741D01*
X016064Y033741D02*
X015875Y033741D01*
X015875Y033789D02*
X015947Y033789D01*
X015881Y033838D02*
X015875Y033838D01*
X016497Y032771D02*
X021109Y032771D01*
X021065Y032722D02*
X020919Y032722D01*
X020944Y032819D02*
X021157Y032819D01*
X020968Y032868D02*
X021888Y032868D01*
X021839Y032916D02*
X020972Y032916D01*
X020972Y032965D02*
X021810Y032965D01*
X021790Y033013D02*
X020972Y033013D01*
X020972Y033062D02*
X021770Y033062D01*
X022240Y032771D02*
X022425Y032771D01*
X022425Y032819D02*
X022357Y032819D01*
X022412Y032868D02*
X022425Y032868D01*
X022425Y032528D02*
X022243Y032528D01*
X022360Y032480D02*
X022425Y032480D01*
X022425Y032431D02*
X022413Y032431D01*
X022394Y031849D02*
X022425Y031849D01*
X022425Y031801D02*
X022312Y031801D01*
X022383Y031461D02*
X022425Y031461D01*
X022424Y030879D02*
X022425Y030879D01*
X022425Y030831D02*
X022375Y030831D01*
X022425Y030782D02*
X022268Y030782D01*
X022124Y030734D02*
X022425Y030734D01*
X022425Y030685D02*
X022076Y030685D01*
X022027Y030637D02*
X022425Y030637D01*
X022425Y030588D02*
X021979Y030588D01*
X021956Y030540D02*
X021930Y030540D01*
X022125Y030540D02*
X022175Y030540D01*
X022175Y030491D02*
X022125Y030491D01*
X022125Y030443D02*
X022175Y030443D01*
X022175Y030394D02*
X022125Y030394D01*
X022125Y030346D02*
X022175Y030346D01*
X022175Y030297D02*
X022125Y030297D01*
X022125Y030249D02*
X022175Y030249D01*
X022175Y030200D02*
X022125Y030200D01*
X022125Y030152D02*
X021542Y030152D01*
X021494Y030103D02*
X021717Y030103D01*
X021725Y030055D02*
X021445Y030055D01*
X021397Y030006D02*
X021739Y030006D01*
X021760Y029958D02*
X021348Y029958D01*
X021300Y029909D02*
X021787Y029909D01*
X021824Y029861D02*
X021312Y029861D01*
X021312Y029812D02*
X021875Y029812D01*
X021950Y029764D02*
X021312Y029764D01*
X021312Y029715D02*
X022115Y029715D01*
X022125Y029715D02*
X022175Y029715D01*
X022185Y029715D02*
X022425Y029715D01*
X022425Y029667D02*
X021312Y029667D01*
X021312Y029618D02*
X022425Y029618D01*
X022425Y029570D02*
X021312Y029570D01*
X021312Y029521D02*
X022040Y029521D01*
X021928Y029473D02*
X021312Y029473D01*
X021274Y029424D02*
X021880Y029424D01*
X022260Y029521D02*
X022425Y029521D01*
X022425Y029473D02*
X022372Y029473D01*
X022420Y029424D02*
X022425Y029424D01*
X022425Y029764D02*
X022350Y029764D01*
X022175Y029764D02*
X022125Y029764D01*
X022125Y029812D02*
X022175Y029812D01*
X022175Y029861D02*
X022125Y029861D01*
X022125Y029909D02*
X022175Y029909D01*
X022175Y029958D02*
X022125Y029958D01*
X022125Y030006D02*
X022175Y030006D01*
X022175Y030055D02*
X022125Y030055D01*
X022125Y030103D02*
X022175Y030103D01*
X022421Y030491D02*
X022425Y030491D01*
X022425Y030540D02*
X022344Y030540D01*
X021790Y030394D02*
X021785Y030394D01*
X021761Y030346D02*
X021736Y030346D01*
X021740Y030297D02*
X021688Y030297D01*
X021725Y030249D02*
X021639Y030249D01*
X021591Y030200D02*
X021718Y030200D01*
X022305Y028503D02*
X022425Y028503D01*
X022425Y028454D02*
X022390Y028454D01*
X021515Y026611D02*
X020951Y026611D01*
X020999Y026563D02*
X021515Y026563D01*
X021515Y026514D02*
X021035Y026514D01*
X021035Y026466D02*
X021515Y026466D01*
X021515Y026417D02*
X021035Y026417D01*
X021030Y026369D02*
X021357Y026369D01*
X021308Y026320D02*
X020982Y026320D01*
X020933Y026272D02*
X021265Y026272D01*
X021265Y026126D02*
X019385Y026126D01*
X019385Y026078D02*
X021311Y026078D01*
X021317Y026029D02*
X019385Y026029D01*
X019385Y025981D02*
X021269Y025981D01*
X021265Y025932D02*
X019385Y025932D01*
X019385Y025884D02*
X021265Y025884D01*
X021265Y025835D02*
X019385Y025835D01*
X019385Y025787D02*
X021302Y025787D01*
X021326Y025738D02*
X019385Y025738D01*
X019401Y025690D02*
X021278Y025690D01*
X021265Y025641D02*
X019450Y025641D01*
X019498Y025593D02*
X021265Y025593D01*
X021265Y025544D02*
X019947Y025544D01*
X019995Y025496D02*
X021293Y025496D01*
X021235Y025447D02*
X020044Y025447D01*
X020092Y025399D02*
X021187Y025399D01*
X021165Y025350D02*
X020141Y025350D01*
X020189Y025302D02*
X021165Y025302D01*
X021165Y025253D02*
X021009Y025253D01*
X021057Y025205D02*
X021184Y025205D01*
X021232Y025156D02*
X021085Y025156D01*
X021085Y025108D02*
X021515Y025108D01*
X021515Y025156D02*
X021468Y025156D01*
X021515Y025059D02*
X021085Y025059D01*
X021072Y025011D02*
X021515Y025011D01*
X021515Y024962D02*
X021024Y024962D01*
X021048Y024914D02*
X021515Y024914D01*
X021515Y024865D02*
X021085Y024865D01*
X021085Y024817D02*
X021515Y024817D01*
X021515Y024768D02*
X021085Y024768D01*
X021081Y024720D02*
X021515Y024720D01*
X021785Y024025D02*
X021824Y023932D01*
X021932Y023824D01*
X022073Y023765D01*
X022227Y023765D01*
X022368Y023824D01*
X022425Y023881D01*
X022425Y023419D01*
X022368Y023476D01*
X022227Y023535D01*
X022073Y023535D01*
X021932Y023476D01*
X021824Y023368D01*
X021785Y023275D01*
X021785Y024025D01*
X021785Y023992D02*
X021799Y023992D01*
X021785Y023944D02*
X021819Y023944D01*
X021785Y023895D02*
X021860Y023895D01*
X021909Y023847D02*
X021785Y023847D01*
X021785Y023798D02*
X021994Y023798D01*
X021785Y023750D02*
X022425Y023750D01*
X022425Y023798D02*
X022306Y023798D01*
X022391Y023847D02*
X022425Y023847D01*
X022425Y023701D02*
X021785Y023701D01*
X021785Y023653D02*
X022425Y023653D01*
X022425Y023604D02*
X021785Y023604D01*
X021785Y023556D02*
X022425Y023556D01*
X022425Y023507D02*
X022294Y023507D01*
X022386Y023459D02*
X022425Y023459D01*
X022006Y023507D02*
X021785Y023507D01*
X021785Y023459D02*
X021914Y023459D01*
X021866Y023410D02*
X021785Y023410D01*
X021785Y023362D02*
X021821Y023362D01*
X021801Y023313D02*
X021785Y023313D01*
X021515Y023168D02*
X021505Y023168D01*
X021492Y022586D02*
X021515Y022586D01*
X021515Y022440D02*
X020910Y022440D01*
X020957Y022392D02*
X021515Y022392D01*
X021515Y022343D02*
X020972Y022343D01*
X020972Y022295D02*
X020988Y022295D01*
X020978Y022246D02*
X020972Y022246D01*
X020972Y022198D02*
X020978Y022198D01*
X020972Y022149D02*
X020978Y022149D01*
X020675Y022198D02*
X020625Y022198D01*
X020625Y022246D02*
X020675Y022246D01*
X020675Y022295D02*
X020625Y022295D01*
X020625Y022343D02*
X020675Y022343D01*
X020675Y022392D02*
X020625Y022392D01*
X020625Y022440D02*
X020675Y022440D01*
X020675Y022052D02*
X020625Y022052D01*
X020625Y022004D02*
X020675Y022004D01*
X020675Y021955D02*
X020625Y021955D01*
X020625Y021907D02*
X020675Y021907D01*
X020675Y021858D02*
X020625Y021858D01*
X020625Y021810D02*
X020675Y021810D01*
X021512Y022295D02*
X021515Y022295D01*
X020050Y023362D02*
X019817Y023362D01*
X019850Y023410D02*
X019905Y023410D01*
X019893Y023459D02*
X019857Y023459D01*
X019857Y023507D02*
X019893Y023507D01*
X019893Y023556D02*
X019857Y023556D01*
X019857Y023604D02*
X019893Y023604D01*
X019923Y023992D02*
X019841Y023992D01*
X019857Y024041D02*
X019893Y024041D01*
X019893Y024089D02*
X019857Y024089D01*
X019857Y024138D02*
X019893Y024138D01*
X019893Y024186D02*
X019857Y024186D01*
X019893Y024235D02*
X019540Y024235D01*
X019540Y024283D02*
X019490Y024283D01*
X019490Y024332D02*
X019540Y024332D01*
X019540Y024380D02*
X019490Y024380D01*
X019490Y024429D02*
X019540Y024429D01*
X019540Y024477D02*
X019490Y024477D01*
X019490Y024526D02*
X019540Y024526D01*
X019540Y024574D02*
X019490Y024574D01*
X019490Y024623D02*
X019540Y024623D01*
X019540Y024671D02*
X019490Y024671D01*
X019490Y024720D02*
X019540Y024720D01*
X019540Y024768D02*
X019490Y024768D01*
X019490Y024817D02*
X019540Y024817D01*
X019540Y024962D02*
X019490Y024962D01*
X019490Y025011D02*
X019540Y025011D01*
X019540Y025059D02*
X019490Y025059D01*
X019490Y025108D02*
X019540Y025108D01*
X019540Y025156D02*
X019490Y025156D01*
X019311Y025399D02*
X017535Y025399D01*
X017515Y025447D02*
X019262Y025447D01*
X019214Y025496D02*
X017466Y025496D01*
X017388Y024574D02*
X017980Y024574D01*
X017980Y024526D02*
X017436Y024526D01*
X017224Y024186D02*
X016535Y024186D01*
X016535Y024227D02*
X016535Y024073D01*
X016476Y023932D01*
X016481Y023944D02*
X017295Y023944D01*
X017246Y023992D02*
X016501Y023992D01*
X016521Y024041D02*
X017215Y024041D01*
X017215Y024089D02*
X016535Y024089D01*
X016535Y024138D02*
X017215Y024138D01*
X016805Y024283D02*
X016512Y024283D01*
X016492Y024332D02*
X016757Y024332D01*
X016715Y024380D02*
X016464Y024380D01*
X016416Y024429D02*
X016715Y024429D01*
X016715Y024477D02*
X016366Y024477D01*
X016249Y024526D02*
X016715Y024526D01*
X016762Y024574D02*
X015875Y024574D01*
X015875Y024526D02*
X016051Y024526D01*
X015934Y024477D02*
X015875Y024477D01*
X015875Y024429D02*
X015884Y024429D01*
X015875Y024623D02*
X016811Y024623D01*
X016965Y022974D02*
X016494Y022974D01*
X016347Y022489D02*
X016339Y022489D01*
X016038Y022780D02*
X015875Y022780D01*
X015875Y022828D02*
X015927Y022828D01*
X015879Y022877D02*
X015875Y022877D01*
X018250Y024526D02*
X018470Y024526D01*
X018470Y024574D02*
X018250Y024574D01*
X018407Y024623D02*
X018447Y024623D01*
X018443Y024671D02*
X018407Y024671D01*
X018407Y024720D02*
X018443Y024720D01*
X018443Y024768D02*
X018407Y024768D01*
X018407Y024817D02*
X018443Y024817D01*
X018760Y024817D02*
X018810Y024817D01*
X018810Y024768D02*
X018760Y024768D01*
X018760Y024720D02*
X018810Y024720D01*
X018810Y024671D02*
X018760Y024671D01*
X018760Y024623D02*
X018810Y024623D01*
X018810Y024574D02*
X018760Y024574D01*
X018760Y024526D02*
X018810Y024526D01*
X018810Y024477D02*
X018760Y024477D01*
X018760Y024429D02*
X018810Y024429D01*
X018810Y024380D02*
X018760Y024380D01*
X018760Y024332D02*
X018810Y024332D01*
X018810Y024186D02*
X018760Y024186D01*
X018760Y024138D02*
X018810Y024138D01*
X018810Y024089D02*
X018760Y024089D01*
X018760Y024041D02*
X018810Y024041D01*
X018810Y023992D02*
X018760Y023992D01*
X018760Y023944D02*
X018810Y023944D01*
X018443Y024283D02*
X018407Y024283D01*
X018407Y024332D02*
X018443Y024332D01*
X018443Y024380D02*
X018407Y024380D01*
X018407Y024429D02*
X018443Y024429D01*
X018447Y024477D02*
X018407Y024477D01*
X019830Y024526D02*
X020415Y024526D01*
X020415Y024574D02*
X019830Y024574D01*
X019853Y024623D02*
X019893Y024623D01*
X019893Y024671D02*
X019857Y024671D01*
X019857Y024720D02*
X019893Y024720D01*
X019893Y024768D02*
X019857Y024768D01*
X019857Y024817D02*
X019893Y024817D01*
X019893Y024477D02*
X019853Y024477D01*
X019857Y024429D02*
X019893Y024429D01*
X019893Y024380D02*
X019857Y024380D01*
X019857Y024332D02*
X019893Y024332D01*
X019893Y024283D02*
X019857Y024283D01*
X020286Y025205D02*
X020580Y025205D01*
X020791Y025253D02*
X020238Y025253D01*
X018789Y026951D02*
X018211Y026951D01*
X018235Y026902D02*
X018740Y026902D01*
X018715Y026854D02*
X018235Y026854D01*
X018235Y026805D02*
X018715Y026805D01*
X018715Y026757D02*
X018218Y026757D01*
X018170Y026708D02*
X018730Y026708D01*
X019050Y027650D02*
X019050Y028550D01*
X018023Y030200D02*
X017341Y030200D01*
X017390Y030249D02*
X017998Y030249D01*
X017998Y030297D02*
X017438Y030297D01*
X017487Y030346D02*
X017998Y030346D01*
X017998Y030394D02*
X017535Y030394D01*
X017584Y030443D02*
X017998Y030443D01*
X017998Y030491D02*
X017753Y030491D01*
X017801Y030540D02*
X017998Y030540D01*
X017948Y030831D02*
X017731Y030831D01*
X018994Y032383D02*
X019041Y032383D01*
X019043Y032431D02*
X019090Y032431D01*
X019085Y032480D02*
X019138Y032480D01*
X019187Y032528D02*
X019085Y032528D01*
X019085Y032577D02*
X019235Y032577D01*
X019284Y032625D02*
X019085Y032625D01*
X019038Y032674D02*
X019332Y032674D01*
X019744Y032819D02*
X020356Y032819D01*
X020332Y032868D02*
X019768Y032868D01*
X019772Y032916D02*
X020328Y032916D01*
X020328Y032965D02*
X019772Y032965D01*
X019772Y033013D02*
X020328Y033013D01*
X020328Y033062D02*
X019772Y033062D01*
X019772Y033159D02*
X020328Y033159D01*
X020328Y033140D02*
X020625Y033140D01*
X020625Y033457D01*
X020437Y033457D01*
X020405Y033448D01*
X020376Y033432D01*
X020353Y033409D01*
X020337Y033380D01*
X020328Y033348D01*
X020328Y033140D01*
X020328Y033207D02*
X019772Y033207D01*
X019772Y033256D02*
X020328Y033256D01*
X020328Y033304D02*
X019772Y033304D01*
X019771Y033353D02*
X020329Y033353D01*
X020349Y033401D02*
X019751Y033401D01*
X019691Y033450D02*
X020409Y033450D01*
X020417Y033498D02*
X019683Y033498D01*
X019722Y033547D02*
X020378Y033547D01*
X020378Y033595D02*
X019722Y033595D01*
X019722Y033644D02*
X020378Y033644D01*
X020378Y033692D02*
X019722Y033692D01*
X019722Y033741D02*
X020378Y033741D01*
X020378Y033789D02*
X019722Y033789D01*
X019722Y033838D02*
X020378Y033838D01*
X020378Y033886D02*
X019722Y033886D01*
X019722Y033935D02*
X020378Y033935D01*
X020378Y033983D02*
X019722Y033983D01*
X019722Y034032D02*
X020378Y034032D01*
X019987Y034371D02*
X019033Y034371D01*
X019035Y034420D02*
X019939Y034420D01*
X019890Y034468D02*
X019530Y034468D01*
X019578Y034517D02*
X019842Y034517D01*
X019793Y034565D02*
X019627Y034565D01*
X019635Y034614D02*
X019745Y034614D01*
X019696Y034662D02*
X019635Y034662D01*
X019835Y034808D02*
X020946Y034808D01*
X020897Y034759D02*
X019882Y034759D01*
X019931Y034711D02*
X020865Y034711D01*
X020865Y034662D02*
X019979Y034662D01*
X020028Y034614D02*
X020865Y034614D01*
X020873Y034565D02*
X020076Y034565D01*
X019665Y035050D02*
X019550Y035050D01*
X019550Y035099D02*
X019665Y035099D01*
X019685Y035147D02*
X019550Y035147D01*
X018897Y035438D02*
X018803Y035438D01*
X018807Y035487D02*
X018893Y035487D01*
X018893Y035535D02*
X018807Y035535D01*
X018807Y035584D02*
X018893Y035584D01*
X018893Y035632D02*
X018807Y035632D01*
X018807Y035681D02*
X018893Y035681D01*
X018893Y035729D02*
X018807Y035729D01*
X018807Y035778D02*
X018893Y035778D01*
X018893Y035826D02*
X018807Y035826D01*
X018791Y035875D02*
X018909Y035875D01*
X018398Y035875D02*
X018020Y035875D01*
X018020Y035923D02*
X022425Y035923D01*
X022425Y035972D02*
X018020Y035972D01*
X017977Y036020D02*
X022425Y036020D01*
X021246Y034808D02*
X021154Y034808D01*
X020675Y033450D02*
X020625Y033450D01*
X020625Y033401D02*
X020675Y033401D01*
X020675Y033353D02*
X020625Y033353D01*
X020625Y033304D02*
X020675Y033304D01*
X020675Y033256D02*
X020625Y033256D01*
X020625Y033207D02*
X020675Y033207D01*
X020675Y033159D02*
X020625Y033159D01*
X020625Y033013D02*
X020675Y033013D01*
X020675Y032965D02*
X020625Y032965D01*
X020625Y032916D02*
X020675Y032916D01*
X020675Y032868D02*
X020625Y032868D01*
X020625Y032819D02*
X020675Y032819D01*
X018764Y034274D02*
X017550Y034274D01*
X018366Y035196D02*
X018381Y035196D01*
X018381Y035681D02*
X018020Y035681D01*
X018020Y035729D02*
X018381Y035729D01*
X018381Y035778D02*
X018020Y035778D01*
X018020Y035826D02*
X018381Y035826D01*
X015895Y029861D02*
X015875Y029861D01*
X015875Y029812D02*
X015960Y029812D01*
X015902Y026854D02*
X015875Y026854D01*
X015875Y026805D02*
X015977Y026805D01*
X017975Y019385D02*
X021840Y019385D01*
X021810Y019336D02*
X017927Y019336D01*
X017878Y019288D02*
X021790Y019288D01*
X022245Y019773D02*
X022425Y019773D01*
X022425Y019821D02*
X022362Y019821D01*
X022414Y019870D02*
X022425Y019870D01*
X022377Y017833D02*
X022425Y017833D01*
X022425Y017784D02*
X022272Y017784D01*
X022425Y017736D02*
X019722Y017736D01*
X019722Y017784D02*
X022028Y017784D01*
X021923Y017833D02*
X019722Y017833D01*
X019722Y017881D02*
X021875Y017881D01*
X022425Y017687D02*
X019722Y017687D01*
X019722Y017639D02*
X022425Y017639D01*
X022425Y017590D02*
X019683Y017590D01*
X019569Y017348D02*
X019511Y017348D01*
X019560Y017299D02*
X019569Y017299D01*
X019317Y017542D02*
X022425Y017542D01*
X022425Y017493D02*
X022328Y017493D01*
X022400Y017445D02*
X022425Y017445D01*
X022407Y016863D02*
X022425Y016863D01*
X022425Y016814D02*
X022345Y016814D01*
X022425Y016766D02*
X022228Y016766D01*
X022324Y016523D02*
X022425Y016523D01*
X022425Y016475D02*
X022407Y016475D01*
X021826Y015893D02*
X016474Y015893D01*
X017025Y015990D02*
X017075Y015990D01*
X017075Y016038D02*
X017025Y016038D01*
X017025Y016087D02*
X017075Y016087D01*
X017075Y016135D02*
X017025Y016135D01*
X017025Y016184D02*
X017075Y016184D01*
X017075Y016232D02*
X017025Y016232D01*
X017025Y016281D02*
X017075Y016281D01*
X017785Y017154D02*
X018033Y017154D01*
X018033Y017202D02*
X017785Y017202D01*
X017785Y017251D02*
X018033Y017251D01*
X018033Y017299D02*
X017785Y017299D01*
X017785Y017348D02*
X018033Y017348D01*
X017886Y017396D02*
X018313Y017396D01*
X018265Y017445D02*
X017912Y017445D01*
X017912Y017493D02*
X018145Y017493D01*
X018097Y017542D02*
X017912Y017542D01*
X017912Y017590D02*
X018065Y017590D01*
X018065Y017639D02*
X017912Y017639D01*
X017912Y017687D02*
X018065Y017687D01*
X018074Y017736D02*
X017912Y017736D01*
X017912Y017784D02*
X018122Y017784D01*
X018171Y017833D02*
X017912Y017833D01*
X017872Y017105D02*
X018033Y017105D01*
X018033Y017057D02*
X017902Y017057D01*
X017907Y018657D02*
X018625Y018657D01*
X018625Y018706D02*
X018675Y018706D01*
X018675Y018754D02*
X018625Y018754D01*
X018625Y018803D02*
X018675Y018803D01*
X018675Y018851D02*
X018625Y018851D01*
X018625Y018900D02*
X018675Y018900D01*
X018675Y018948D02*
X018625Y018948D01*
X018389Y018948D02*
X017912Y018948D01*
X017912Y018900D02*
X018343Y018900D01*
X018328Y018851D02*
X017912Y018851D01*
X017912Y018803D02*
X018328Y018803D01*
X018328Y018754D02*
X017912Y018754D01*
X017912Y018706D02*
X018328Y018706D01*
X019425Y018560D02*
X019475Y018560D01*
X019475Y018512D02*
X019425Y018512D01*
X019425Y018463D02*
X019475Y018463D01*
X019475Y018415D02*
X019425Y018415D01*
X019425Y018366D02*
X019475Y018366D01*
X019650Y018250D02*
X019450Y018050D01*
X019450Y017856D01*
D27*
X019218Y017450D02*
X020018Y016650D01*
X020352Y016985D01*
X021050Y016985D01*
X019218Y017450D02*
X018450Y017450D01*
X018250Y017650D01*
X017650Y017630D02*
X017650Y016906D01*
X018226Y016906D01*
X018482Y016650D01*
X017650Y016906D02*
X017129Y016906D01*
X017050Y016985D01*
X017650Y018870D02*
X017650Y019250D01*
X018140Y019740D01*
X019670Y019740D01*
X019695Y019715D01*
X020600Y019715D01*
X021250Y019715D01*
X021650Y020115D01*
X021650Y025350D01*
X021700Y025400D01*
X021700Y026350D01*
X021650Y026400D01*
X021650Y027650D01*
X021550Y027750D01*
X021950Y028150D01*
X022150Y028150D01*
X021550Y027750D02*
X021050Y028250D01*
X021050Y028430D01*
X021050Y029670D02*
X021050Y029850D01*
X022150Y030950D01*
X022150Y031150D01*
X021329Y033785D02*
X020650Y033785D01*
X021329Y033785D02*
X021450Y033906D01*
X021456Y033906D01*
X021500Y033950D01*
X021500Y034200D01*
X019450Y033785D02*
X018885Y033785D01*
X018800Y033750D01*
X018900Y032550D02*
X018900Y032500D01*
X018706Y030394D02*
X018250Y030394D01*
X018706Y030394D02*
X018850Y030250D01*
X018900Y030200D01*
X018900Y029167D01*
X019250Y026400D02*
X019250Y025650D01*
X019450Y025450D01*
X019850Y025450D01*
X020185Y025115D01*
X020185Y024850D01*
X020385Y025050D01*
X020900Y025100D01*
X020900Y024800D02*
X020650Y024750D01*
X020550Y024650D01*
X020550Y024400D01*
X020400Y024250D01*
X020185Y024250D01*
X020185Y023650D02*
X020185Y023035D01*
X020050Y022900D01*
X020500Y023200D02*
X020650Y023050D01*
X020650Y022785D01*
X020748Y022883D01*
X021250Y022883D01*
X021250Y022017D02*
X021250Y021600D01*
X019670Y020650D02*
X019250Y020650D01*
X018850Y021050D01*
X018650Y020850D01*
X018650Y020650D01*
X018850Y021050D02*
X018785Y021115D01*
X018785Y022400D01*
X018115Y024250D02*
X018115Y024850D01*
X018115Y024250D02*
X017500Y024250D01*
X017400Y024100D01*
X017230Y020650D02*
X017230Y019870D01*
X017450Y019650D01*
M02*
