G75*
%MOIN*%
%OFA0B0*%
%FSLAX24Y24*%
%IPPOS*%
%LPD*%
%AMOC8*
5,1,8,0,0,1.08239X$1,22.5*
%
%ADD10C,0.0540*%
%ADD11C,0.0270*%
%ADD12C,0.0060*%
%ADD13C,0.0120*%
%ADD14C,0.0080*%
D10*
X016150Y017150D03*
X016150Y018150D03*
X016150Y019150D03*
X016150Y020150D03*
X016150Y021150D03*
X016150Y022150D03*
X016150Y023150D03*
X016150Y024150D03*
X016150Y025150D03*
X016150Y026150D03*
X016150Y027150D03*
X016150Y028150D03*
X016150Y029150D03*
X016150Y030150D03*
X016150Y031150D03*
X016150Y032150D03*
X016150Y033150D03*
X022150Y033150D03*
X022150Y032150D03*
X022150Y031150D03*
X022150Y030150D03*
X022150Y029150D03*
X022150Y028150D03*
X022150Y027150D03*
X022150Y026150D03*
X022150Y025150D03*
X022150Y024150D03*
X022150Y023150D03*
X022150Y022150D03*
X022150Y021150D03*
X022150Y020150D03*
X022150Y019150D03*
X022150Y018150D03*
X022150Y017150D03*
D11*
X021350Y017400D03*
X020100Y016650D03*
X019400Y017550D03*
X018900Y017550D03*
X020050Y019450D03*
X019475Y019575D03*
X018900Y020550D03*
X018500Y020550D03*
X018650Y021150D03*
X017850Y020650D03*
X017650Y021450D03*
X017100Y019650D03*
X017200Y019250D03*
X017050Y017450D03*
X020300Y021700D03*
X020650Y022200D03*
X020150Y022600D03*
X019150Y023400D03*
X017900Y023400D03*
X018000Y023900D03*
X017600Y023900D03*
X017150Y023900D03*
X017150Y023400D03*
X016900Y024400D03*
X016650Y024650D03*
X017150Y025400D03*
X017150Y025800D03*
X016650Y025900D03*
X017150Y026400D03*
X017150Y026900D03*
X016400Y026650D03*
X017400Y028800D03*
X016900Y030150D03*
X017950Y030450D03*
X018350Y031100D03*
X018050Y031400D03*
X018050Y031900D03*
X018050Y032400D03*
X018550Y032300D03*
X018900Y032200D03*
X018700Y031650D03*
X018900Y031000D03*
X018600Y030600D03*
X018900Y029650D03*
X018900Y029150D03*
X018900Y028800D03*
X019400Y028150D03*
X019800Y028150D03*
X020100Y027750D03*
X019450Y027650D03*
X018900Y027350D03*
X018450Y027850D03*
X018150Y026850D03*
X020150Y027000D03*
X020550Y026450D03*
X020900Y026100D03*
X021350Y026200D03*
X021400Y025750D03*
X021150Y025350D03*
X021400Y025050D03*
X021400Y024650D03*
X021000Y024650D03*
X021400Y023100D03*
X021300Y019700D03*
X021900Y026650D03*
X020900Y027850D03*
X020400Y028800D03*
X020100Y028800D03*
X020050Y029550D03*
X020050Y029850D03*
X020450Y029500D03*
X021500Y029650D03*
X021900Y029650D03*
X021900Y031650D03*
X021200Y032550D03*
X021150Y032900D03*
X020850Y032350D03*
X020300Y032100D03*
X020050Y033250D03*
X020050Y033550D03*
X019750Y033550D03*
X019750Y033250D03*
X019850Y034650D03*
X019400Y034650D03*
X018750Y034600D03*
X018400Y034306D03*
X018400Y033700D03*
X018350Y033000D03*
X017150Y033000D03*
X016750Y034050D03*
X016750Y034550D03*
X016500Y034800D03*
X018150Y035900D03*
X018650Y036000D03*
X018650Y035750D03*
X018650Y035500D03*
X018650Y035250D03*
X020100Y036150D03*
X020950Y036150D03*
X020950Y035800D03*
X020950Y035450D03*
X021350Y036100D03*
X021650Y035000D03*
X020900Y034650D03*
X021150Y033650D03*
X021950Y033650D03*
D12*
X021150Y032900D02*
X020600Y032900D01*
X020400Y032700D01*
X018000Y032700D01*
X017900Y032600D01*
X017300Y032600D01*
X016900Y032200D01*
X016900Y030150D01*
X016900Y026650D01*
X017150Y026400D01*
X017100Y026100D02*
X016900Y025900D01*
X016900Y025650D01*
X016750Y025500D01*
X016750Y025000D01*
X017150Y024600D01*
X017150Y024300D01*
X016600Y023750D01*
X016600Y018600D01*
X016150Y018150D01*
X018500Y020550D02*
X018900Y020950D01*
X018900Y022150D01*
X020150Y023400D01*
X020150Y025350D01*
X020900Y026100D01*
X021350Y026050D02*
X020400Y025100D01*
X020400Y023400D01*
X019150Y022150D01*
X019150Y020900D01*
X018900Y020650D01*
X018900Y020550D01*
X020650Y022200D02*
X020650Y024700D01*
X021150Y025200D01*
X021150Y025350D01*
X021350Y026050D02*
X021350Y026200D01*
X021650Y026400D02*
X021650Y026900D01*
X021400Y027150D01*
X021400Y029550D01*
X021500Y029650D01*
X021650Y029400D02*
X021900Y029650D01*
X021650Y029400D02*
X021650Y027650D01*
X022150Y027150D01*
X021650Y026400D02*
X021900Y026150D01*
X022150Y026150D01*
X021400Y024650D02*
X021400Y023650D01*
X021650Y023400D01*
X021650Y019900D01*
X022150Y019400D01*
X022150Y019150D01*
X017300Y026100D02*
X017100Y026100D01*
X017300Y026100D02*
X017650Y026450D01*
X017650Y027150D01*
X017900Y027400D01*
X018850Y027400D01*
X018900Y027350D01*
X016650Y025900D02*
X016650Y030650D01*
X016150Y031150D01*
X018050Y031400D02*
X018600Y031950D01*
X019100Y031950D01*
X019250Y032100D01*
X020300Y032100D01*
X020450Y032550D02*
X018200Y032550D01*
X018050Y032400D01*
X018350Y033000D02*
X018350Y033350D01*
X018100Y033600D01*
X018100Y035850D01*
X018150Y035900D01*
X018900Y035000D02*
X018750Y034850D01*
X018750Y034600D01*
X018900Y035000D02*
X021650Y035000D01*
X021000Y032650D02*
X020550Y032650D01*
X020450Y032550D01*
X021000Y032650D02*
X021100Y032550D01*
X021200Y032550D01*
D13*
X021150Y033650D02*
X020900Y033650D01*
X020900Y034650D02*
X019850Y034650D01*
X022150Y031150D02*
X020950Y029950D01*
X020950Y028400D01*
X021200Y028150D01*
X021200Y027500D01*
X019850Y026150D01*
X019850Y023600D01*
X018650Y022400D01*
X018650Y021150D01*
D14*
X015900Y016745D02*
X015900Y016517D01*
X015903Y016520D01*
X016063Y016586D01*
X016237Y016586D01*
X016397Y016520D01*
X016520Y016397D01*
X016586Y016237D01*
X016586Y016063D01*
X016520Y015903D01*
X016517Y015900D01*
X021783Y015900D01*
X021780Y015903D01*
X021714Y016063D01*
X021714Y016237D01*
X021780Y016397D01*
X021903Y016520D01*
X022063Y016586D01*
X022237Y016586D01*
X022397Y016520D01*
X022400Y016517D01*
X022400Y016745D01*
X022243Y016680D01*
X022057Y016680D01*
X021884Y016752D01*
X021752Y016884D01*
X021680Y017057D01*
X021680Y017243D01*
X021752Y017416D01*
X021884Y017548D01*
X022057Y017620D01*
X022243Y017620D01*
X022400Y017555D01*
X022400Y017825D01*
X022365Y017799D01*
X022307Y017770D01*
X022246Y017750D01*
X022190Y017741D01*
X022190Y018110D01*
X022110Y018110D01*
X022110Y017741D01*
X022054Y017750D01*
X021993Y017770D01*
X021935Y017799D01*
X021883Y017837D01*
X021837Y017883D01*
X021799Y017935D01*
X021770Y017993D01*
X021750Y018054D01*
X021741Y018110D01*
X022110Y018110D01*
X022110Y018190D01*
X022110Y018559D01*
X022054Y018550D01*
X021993Y018530D01*
X021935Y018501D01*
X021883Y018463D01*
X021837Y018417D01*
X021799Y018365D01*
X021770Y018307D01*
X021750Y018246D01*
X021741Y018190D01*
X022110Y018190D01*
X022190Y018190D01*
X022190Y018559D01*
X022246Y018550D01*
X022307Y018530D01*
X022365Y018501D01*
X022400Y018475D01*
X022400Y018745D01*
X022243Y018680D01*
X022057Y018680D01*
X021884Y018752D01*
X021752Y018884D01*
X021680Y019057D01*
X021680Y019243D01*
X021752Y019416D01*
X021780Y019445D01*
X021622Y019603D01*
X021584Y019510D01*
X021490Y019416D01*
X021367Y019365D01*
X021233Y019365D01*
X021110Y019416D01*
X021016Y019510D01*
X020965Y019633D01*
X020965Y019767D01*
X021016Y019890D01*
X021110Y019984D01*
X021233Y020035D01*
X021367Y020035D01*
X021420Y020013D01*
X021420Y022765D01*
X021333Y022765D01*
X021210Y022816D01*
X021116Y022910D01*
X021065Y023033D01*
X021065Y023167D01*
X021116Y023290D01*
X021210Y023384D01*
X021303Y023422D01*
X021170Y023555D01*
X021170Y024358D01*
X021067Y024315D01*
X020933Y024315D01*
X020880Y024337D01*
X020880Y022444D01*
X020934Y022390D01*
X020985Y022267D01*
X020985Y022133D01*
X020934Y022010D01*
X020840Y021916D01*
X020717Y021865D01*
X020594Y021865D01*
X020635Y021767D01*
X020635Y021633D01*
X020584Y021510D01*
X020490Y021416D01*
X020367Y021365D01*
X020233Y021365D01*
X020110Y021416D01*
X020016Y021510D01*
X019965Y021633D01*
X019965Y021767D01*
X020016Y021890D01*
X020110Y021984D01*
X020233Y022035D01*
X020356Y022035D01*
X020315Y022133D01*
X020315Y022267D01*
X020335Y022314D01*
X020217Y022265D01*
X020083Y022265D01*
X019960Y022316D01*
X019866Y022410D01*
X019828Y022503D01*
X019380Y022055D01*
X019380Y020805D01*
X019245Y020670D01*
X019222Y020647D01*
X019235Y020617D01*
X019235Y020483D01*
X019184Y020360D01*
X021420Y020360D01*
X021420Y020282D02*
X019105Y020282D01*
X019090Y020266D02*
X019184Y020360D01*
X019216Y020439D02*
X021420Y020439D01*
X021420Y020517D02*
X019235Y020517D01*
X019235Y020596D02*
X021420Y020596D01*
X021420Y020674D02*
X019249Y020674D01*
X019328Y020753D02*
X021420Y020753D01*
X021420Y020831D02*
X019380Y020831D01*
X019380Y020910D02*
X021420Y020910D01*
X021420Y020988D02*
X019380Y020988D01*
X019380Y021067D02*
X021420Y021067D01*
X021420Y021145D02*
X019380Y021145D01*
X019380Y021224D02*
X021420Y021224D01*
X021420Y021302D02*
X019380Y021302D01*
X019380Y021381D02*
X020196Y021381D01*
X020067Y021459D02*
X019380Y021459D01*
X019380Y021538D02*
X020005Y021538D01*
X019972Y021616D02*
X019380Y021616D01*
X019380Y021695D02*
X019965Y021695D01*
X019968Y021773D02*
X019380Y021773D01*
X019380Y021852D02*
X020000Y021852D01*
X020056Y021930D02*
X019380Y021930D01*
X019380Y022009D02*
X020169Y022009D01*
X020334Y022087D02*
X019412Y022087D01*
X019491Y022166D02*
X020315Y022166D01*
X020315Y022244D02*
X019569Y022244D01*
X019648Y022323D02*
X019954Y022323D01*
X019875Y022401D02*
X019726Y022401D01*
X019805Y022480D02*
X019837Y022480D01*
X019225Y023343D02*
X017485Y023343D01*
X017485Y023333D02*
X017485Y023467D01*
X017434Y023590D01*
X017374Y023650D01*
X017375Y023651D01*
X017410Y023616D01*
X017533Y023565D01*
X017667Y023565D01*
X017790Y023616D01*
X017800Y023626D01*
X017810Y023616D01*
X017933Y023565D01*
X018067Y023565D01*
X018190Y023616D01*
X018284Y023710D01*
X018335Y023833D01*
X018335Y023967D01*
X018284Y024090D01*
X018190Y024184D01*
X018067Y024235D01*
X017933Y024235D01*
X017810Y024184D01*
X017800Y024174D01*
X017790Y024184D01*
X017667Y024235D01*
X017533Y024235D01*
X017410Y024184D01*
X017375Y024149D01*
X017350Y024174D01*
X017380Y024205D01*
X017380Y024695D01*
X016980Y025095D01*
X016980Y025405D01*
X017053Y025478D01*
X017083Y025465D01*
X017217Y025465D01*
X017340Y025516D01*
X017434Y025610D01*
X017485Y025733D01*
X017485Y025867D01*
X017458Y025932D01*
X017530Y026005D01*
X017880Y026355D01*
X017880Y026646D01*
X017960Y026566D01*
X018083Y026515D01*
X018217Y026515D01*
X018340Y026566D01*
X018434Y026660D01*
X018485Y026783D01*
X018485Y026917D01*
X018434Y027040D01*
X018340Y027134D01*
X018253Y027170D01*
X018612Y027170D01*
X018616Y027160D01*
X018710Y027066D01*
X018833Y027015D01*
X018967Y027015D01*
X019090Y027066D01*
X019184Y027160D01*
X019235Y027283D01*
X019235Y027391D01*
X019260Y027366D01*
X019383Y027315D01*
X019517Y027315D01*
X019640Y027366D01*
X019734Y027460D01*
X019785Y027583D01*
X019785Y027635D01*
X019816Y027560D01*
X019910Y027466D01*
X020033Y027415D01*
X020167Y027415D01*
X020290Y027466D01*
X020384Y027560D01*
X020435Y027683D01*
X020435Y027817D01*
X020384Y027940D01*
X020290Y028034D01*
X020167Y028085D01*
X020135Y028085D01*
X020135Y028217D01*
X020084Y028340D01*
X019990Y028434D01*
X019867Y028485D01*
X019733Y028485D01*
X019610Y028434D01*
X019600Y028424D01*
X019590Y028434D01*
X019467Y028485D01*
X019333Y028485D01*
X019210Y028434D01*
X019116Y028340D01*
X019065Y028217D01*
X019065Y028083D01*
X019116Y027960D01*
X019201Y027875D01*
X019166Y027840D01*
X019115Y027717D01*
X019115Y027609D01*
X019090Y027634D01*
X018967Y027685D01*
X018833Y027685D01*
X018710Y027634D01*
X018706Y027630D01*
X017805Y027630D01*
X017555Y027380D01*
X017420Y027245D01*
X017420Y027104D01*
X017340Y027184D01*
X017217Y027235D01*
X017130Y027235D01*
X017130Y028596D01*
X017210Y028516D01*
X017333Y028465D01*
X017467Y028465D01*
X017590Y028516D01*
X017684Y028610D01*
X017735Y028733D01*
X017735Y028867D01*
X017684Y028990D01*
X017590Y029084D01*
X017467Y029135D01*
X017333Y029135D01*
X017210Y029084D01*
X017130Y029004D01*
X017130Y029906D01*
X017184Y029960D01*
X017235Y030083D01*
X017235Y030217D01*
X017184Y030340D01*
X017130Y030394D01*
X017130Y032105D01*
X017395Y032370D01*
X017715Y032370D01*
X017715Y032333D01*
X017766Y032210D01*
X017826Y032150D01*
X017766Y032090D01*
X017715Y031967D01*
X017715Y031833D01*
X017766Y031710D01*
X017826Y031650D01*
X017766Y031590D01*
X017715Y031467D01*
X017715Y031333D01*
X017766Y031210D01*
X017860Y031116D01*
X017983Y031065D01*
X018015Y031065D01*
X018015Y031033D01*
X018066Y030910D01*
X018160Y030816D01*
X018283Y030765D01*
X018306Y030765D01*
X018265Y030667D01*
X018265Y030565D01*
X018265Y030565D01*
X018234Y030640D01*
X018140Y030734D01*
X018017Y030785D01*
X017883Y030785D01*
X017760Y030734D01*
X017666Y030640D01*
X017615Y030517D01*
X017615Y030383D01*
X017666Y030260D01*
X017760Y030166D01*
X017883Y030115D01*
X018017Y030115D01*
X018140Y030166D01*
X018234Y030260D01*
X018285Y030383D01*
X018285Y030485D01*
X018316Y030410D01*
X018410Y030316D01*
X018533Y030265D01*
X018667Y030265D01*
X018790Y030316D01*
X018884Y030410D01*
X018935Y030533D01*
X018935Y030665D01*
X018967Y030665D01*
X019090Y030716D01*
X019184Y030810D01*
X019235Y030933D01*
X019235Y031067D01*
X019184Y031190D01*
X019090Y031284D01*
X018967Y031335D01*
X018833Y031335D01*
X018710Y031284D01*
X018658Y031232D01*
X018634Y031290D01*
X018591Y031332D01*
X018633Y031315D01*
X018767Y031315D01*
X018890Y031366D01*
X018984Y031460D01*
X019035Y031583D01*
X019035Y031717D01*
X019034Y031720D01*
X019195Y031720D01*
X019330Y031855D01*
X019345Y031870D01*
X020056Y031870D01*
X020110Y031816D01*
X020233Y031765D01*
X020367Y031765D01*
X020490Y031816D01*
X020584Y031910D01*
X020635Y032033D01*
X020635Y032091D01*
X020660Y032066D01*
X020783Y032015D01*
X020917Y032015D01*
X021040Y032066D01*
X021134Y032160D01*
X021157Y032215D01*
X021267Y032215D01*
X021390Y032266D01*
X021484Y032360D01*
X021535Y032483D01*
X021535Y032617D01*
X021484Y032740D01*
X021457Y032766D01*
X021485Y032833D01*
X021485Y032967D01*
X021434Y033090D01*
X021340Y033184D01*
X021217Y033235D01*
X021083Y033235D01*
X020960Y033184D01*
X020906Y033130D01*
X020505Y033130D01*
X020370Y032995D01*
X020305Y032930D01*
X020153Y032930D01*
X020240Y032966D01*
X020334Y033060D01*
X020385Y033183D01*
X020385Y033317D01*
X020350Y033400D01*
X020385Y033483D01*
X020385Y033617D01*
X020334Y033740D01*
X020240Y033834D01*
X020117Y033885D01*
X019983Y033885D01*
X019900Y033850D01*
X019817Y033885D01*
X019683Y033885D01*
X019560Y033834D01*
X019466Y033740D01*
X019415Y033617D01*
X019415Y033483D01*
X019450Y033400D01*
X019415Y033317D01*
X019415Y033183D01*
X019466Y033060D01*
X019560Y032966D01*
X019647Y032930D01*
X018684Y032930D01*
X018685Y032933D01*
X018685Y033067D01*
X018634Y033190D01*
X018580Y033244D01*
X018580Y033445D01*
X018330Y033695D01*
X018330Y033972D01*
X018333Y033971D01*
X018467Y033971D01*
X018590Y034022D01*
X018684Y034116D01*
X018735Y034239D01*
X018735Y034265D01*
X018817Y034265D01*
X018940Y034316D01*
X019034Y034410D01*
X019085Y034533D01*
X019085Y034535D01*
X019116Y034460D01*
X019210Y034366D01*
X019333Y034315D01*
X019467Y034315D01*
X019590Y034366D01*
X019684Y034460D01*
X019735Y034583D01*
X019735Y034717D01*
X019713Y034770D01*
X021406Y034770D01*
X021460Y034716D01*
X021583Y034665D01*
X021717Y034665D01*
X021840Y034716D01*
X021934Y034810D01*
X021985Y034933D01*
X021985Y035067D01*
X021934Y035190D01*
X021840Y035284D01*
X021717Y035335D01*
X021583Y035335D01*
X021460Y035284D01*
X021406Y035230D01*
X021204Y035230D01*
X021234Y035260D01*
X021285Y035383D01*
X021285Y035517D01*
X021240Y035625D01*
X021285Y035733D01*
X021285Y035765D01*
X021417Y035765D01*
X021540Y035816D01*
X021634Y035910D01*
X021685Y036033D01*
X021685Y036150D01*
X022400Y036150D01*
X022400Y034517D01*
X022397Y034520D01*
X022237Y034586D01*
X022063Y034586D01*
X021903Y034520D01*
X021780Y034397D01*
X021714Y034237D01*
X021714Y034063D01*
X021766Y033936D01*
X021760Y033934D01*
X021666Y033840D01*
X021615Y033717D01*
X021615Y033583D01*
X021666Y033460D01*
X021739Y033387D01*
X021680Y033243D01*
X021680Y033057D01*
X021752Y032884D01*
X021884Y032752D01*
X022057Y032680D01*
X022243Y032680D01*
X022400Y032745D01*
X022400Y032555D01*
X022243Y032620D01*
X022057Y032620D01*
X021884Y032548D01*
X021752Y032416D01*
X021680Y032243D01*
X021680Y032057D01*
X021017Y032057D01*
X021109Y032135D02*
X021680Y032135D01*
X021680Y032057D02*
X021728Y031941D01*
X021710Y031934D01*
X021616Y031840D01*
X021565Y031717D01*
X021565Y031583D01*
X021616Y031460D01*
X021710Y031366D01*
X021728Y031359D01*
X021680Y031243D01*
X021680Y031057D01*
X021683Y031050D01*
X020803Y030170D01*
X020730Y030097D01*
X020690Y030002D01*
X020690Y028975D01*
X020684Y028990D01*
X020590Y029084D01*
X020467Y029135D01*
X020333Y029135D01*
X020250Y029100D01*
X020167Y029135D01*
X020033Y029135D01*
X019910Y029084D01*
X019816Y028990D01*
X019765Y028867D01*
X019765Y028733D01*
X019816Y028610D01*
X019910Y028516D01*
X020033Y028465D01*
X020167Y028465D01*
X020250Y028500D01*
X020333Y028465D01*
X020467Y028465D01*
X020590Y028516D01*
X020684Y028610D01*
X020690Y028625D01*
X020690Y028348D01*
X020730Y028253D01*
X020808Y028174D01*
X020710Y028134D01*
X020616Y028040D01*
X020565Y027917D01*
X020565Y027783D01*
X020616Y027660D01*
X020710Y027566D01*
X020833Y027515D01*
X020847Y027515D01*
X020460Y027127D01*
X020434Y027190D01*
X020340Y027284D01*
X020217Y027335D01*
X020083Y027335D01*
X019960Y027284D01*
X019866Y027190D01*
X019815Y027067D01*
X019815Y026933D01*
X019866Y026810D01*
X019960Y026716D01*
X020023Y026690D01*
X019703Y026370D01*
X019630Y026297D01*
X019590Y026202D01*
X019590Y023708D01*
X018503Y022620D01*
X018430Y022547D01*
X018390Y022452D01*
X018390Y021364D01*
X018366Y021340D01*
X018315Y021217D01*
X018315Y021083D01*
X018366Y020960D01*
X018441Y020885D01*
X018433Y020885D01*
X018310Y020834D01*
X018216Y020740D01*
X018185Y020665D01*
X018185Y020717D01*
X018134Y020840D01*
X018040Y020934D01*
X017917Y020985D01*
X017783Y020985D01*
X017660Y020934D01*
X017566Y020840D01*
X017515Y020717D01*
X017515Y020583D01*
X017566Y020460D01*
X017660Y020366D01*
X017783Y020315D01*
X017917Y020315D01*
X018040Y020366D01*
X018134Y020460D01*
X018165Y020535D01*
X018165Y020483D01*
X018216Y020360D01*
X018025Y020360D01*
X018112Y020439D02*
X018184Y020439D01*
X018165Y020517D02*
X018158Y020517D01*
X018185Y020674D02*
X018189Y020674D01*
X018170Y020753D02*
X018229Y020753D01*
X018307Y020831D02*
X018138Y020831D01*
X018064Y020910D02*
X018417Y020910D01*
X018354Y020988D02*
X016830Y020988D01*
X016830Y020910D02*
X017636Y020910D01*
X017562Y020831D02*
X016830Y020831D01*
X016830Y020753D02*
X017530Y020753D01*
X017515Y020674D02*
X016830Y020674D01*
X016830Y020596D02*
X017515Y020596D01*
X017542Y020517D02*
X016830Y020517D01*
X016830Y020439D02*
X017588Y020439D01*
X017675Y020360D02*
X016830Y020360D01*
X016830Y020282D02*
X018295Y020282D01*
X018310Y020266D02*
X018433Y020215D01*
X018567Y020215D01*
X018690Y020266D01*
X018700Y020276D01*
X018710Y020266D01*
X018833Y020215D01*
X018967Y020215D01*
X019090Y020266D01*
X019285Y019859D02*
X019191Y019765D01*
X019140Y019642D01*
X019140Y019508D01*
X019191Y019385D01*
X019285Y019291D01*
X019408Y019240D01*
X019542Y019240D01*
X019665Y019291D01*
X019727Y019354D01*
X019766Y019260D01*
X019860Y019166D01*
X019983Y019115D01*
X020117Y019115D01*
X020240Y019166D01*
X020334Y019260D01*
X020385Y019383D01*
X020385Y019517D01*
X020334Y019640D01*
X020240Y019734D01*
X020117Y019785D01*
X019983Y019785D01*
X019860Y019734D01*
X019798Y019671D01*
X019759Y019765D01*
X019665Y019859D01*
X019542Y019910D01*
X019408Y019910D01*
X019285Y019859D01*
X019237Y019811D02*
X017396Y019811D01*
X017384Y019840D02*
X017290Y019934D01*
X017167Y019985D01*
X017033Y019985D01*
X016910Y019934D01*
X016830Y019854D01*
X016830Y023297D01*
X016866Y023210D01*
X016960Y023116D01*
X017083Y023065D01*
X017217Y023065D01*
X017340Y023116D01*
X017434Y023210D01*
X017485Y023333D01*
X017456Y023265D02*
X019147Y023265D01*
X019068Y023186D02*
X017410Y023186D01*
X017319Y023108D02*
X018990Y023108D01*
X018911Y023029D02*
X016830Y023029D01*
X016830Y022951D02*
X018833Y022951D01*
X018754Y022872D02*
X016830Y022872D01*
X016830Y022794D02*
X018676Y022794D01*
X018597Y022715D02*
X016830Y022715D01*
X016830Y022637D02*
X018519Y022637D01*
X018440Y022558D02*
X016830Y022558D01*
X016830Y022480D02*
X018402Y022480D01*
X018390Y022401D02*
X016830Y022401D01*
X016830Y022323D02*
X018390Y022323D01*
X018390Y022244D02*
X016830Y022244D01*
X016830Y022166D02*
X018390Y022166D01*
X018390Y022087D02*
X016830Y022087D01*
X016830Y022009D02*
X018390Y022009D01*
X018390Y021930D02*
X016830Y021930D01*
X016830Y021852D02*
X018390Y021852D01*
X018390Y021773D02*
X017746Y021773D01*
X017717Y021785D02*
X017583Y021785D01*
X017460Y021734D01*
X017366Y021640D01*
X017315Y021517D01*
X017315Y021383D01*
X017366Y021260D01*
X017460Y021166D01*
X017583Y021115D01*
X017717Y021115D01*
X017840Y021166D01*
X017934Y021260D01*
X017985Y021383D01*
X017985Y021517D01*
X017934Y021640D01*
X017840Y021734D01*
X017717Y021785D01*
X017554Y021773D02*
X016830Y021773D01*
X016830Y021695D02*
X017421Y021695D01*
X017356Y021616D02*
X016830Y021616D01*
X016830Y021538D02*
X017324Y021538D01*
X017315Y021459D02*
X016830Y021459D01*
X016830Y021381D02*
X017316Y021381D01*
X017349Y021302D02*
X016830Y021302D01*
X016830Y021224D02*
X017403Y021224D01*
X017511Y021145D02*
X016830Y021145D01*
X016830Y021067D02*
X018322Y021067D01*
X018315Y021145D02*
X017789Y021145D01*
X017897Y021224D02*
X018318Y021224D01*
X018350Y021302D02*
X017951Y021302D01*
X017984Y021381D02*
X018390Y021381D01*
X018390Y021459D02*
X017985Y021459D01*
X017976Y021538D02*
X018390Y021538D01*
X018390Y021616D02*
X017944Y021616D01*
X017879Y021695D02*
X018390Y021695D01*
X018216Y020360D02*
X018310Y020266D01*
X019177Y019732D02*
X017429Y019732D01*
X017435Y019717D02*
X017384Y019840D01*
X017335Y019889D02*
X019358Y019889D01*
X019592Y019889D02*
X021016Y019889D01*
X020983Y019811D02*
X019713Y019811D01*
X019773Y019732D02*
X019858Y019732D01*
X020242Y019732D02*
X020965Y019732D01*
X020965Y019654D02*
X020320Y019654D01*
X020361Y019575D02*
X020989Y019575D01*
X021030Y019497D02*
X020385Y019497D01*
X020385Y019418D02*
X021108Y019418D01*
X021492Y019418D02*
X021753Y019418D01*
X021728Y019497D02*
X021570Y019497D01*
X021611Y019575D02*
X021650Y019575D01*
X021720Y019340D02*
X020367Y019340D01*
X020334Y019261D02*
X021687Y019261D01*
X021680Y019183D02*
X020256Y019183D01*
X019844Y019183D02*
X017535Y019183D01*
X017535Y019317D01*
X017484Y019440D01*
X017407Y019516D01*
X017435Y019583D01*
X017435Y019717D01*
X017435Y019654D02*
X019145Y019654D01*
X019140Y019575D02*
X017432Y019575D01*
X017427Y019497D02*
X019145Y019497D01*
X019177Y019418D02*
X017493Y019418D01*
X017526Y019340D02*
X019237Y019340D01*
X019358Y019261D02*
X017535Y019261D01*
X017535Y019183D02*
X017484Y019060D01*
X017390Y018966D01*
X017267Y018915D01*
X017133Y018915D01*
X017010Y018966D01*
X016916Y019060D01*
X016865Y019183D01*
X016865Y019317D01*
X016893Y019384D01*
X016830Y019446D01*
X016830Y018505D01*
X016605Y018280D01*
X016620Y018243D01*
X016620Y018057D01*
X016548Y017884D01*
X016416Y017752D01*
X016243Y017680D01*
X016057Y017680D01*
X015900Y017745D01*
X015900Y017555D01*
X016057Y017620D01*
X016243Y017620D01*
X016416Y017548D01*
X016548Y017416D01*
X016620Y017243D01*
X016620Y017057D01*
X016548Y016884D01*
X016416Y016752D01*
X016243Y016680D01*
X016057Y016680D01*
X015900Y016745D01*
X015900Y016671D02*
X019765Y016671D01*
X019765Y016717D02*
X019765Y016583D01*
X019816Y016460D01*
X019910Y016366D01*
X020033Y016315D01*
X020167Y016315D01*
X020290Y016366D01*
X020384Y016460D01*
X020435Y016583D01*
X020435Y016717D01*
X020384Y016840D01*
X020290Y016934D01*
X020167Y016985D01*
X020033Y016985D01*
X019910Y016934D01*
X019816Y016840D01*
X019765Y016717D01*
X019778Y016749D02*
X016410Y016749D01*
X016492Y016828D02*
X019811Y016828D01*
X019882Y016906D02*
X016558Y016906D01*
X016590Y016985D02*
X020032Y016985D01*
X020095Y017097D02*
X020241Y017157D01*
X020353Y017269D01*
X020413Y017415D01*
X020413Y017573D01*
X020353Y017718D01*
X020241Y017830D01*
X020095Y017891D01*
X019937Y017891D01*
X019791Y017830D01*
X019689Y017728D01*
X019684Y017740D01*
X019590Y017834D01*
X019467Y017885D01*
X019333Y017885D01*
X019210Y017834D01*
X019150Y017774D01*
X019090Y017834D01*
X018967Y017885D01*
X018833Y017885D01*
X018710Y017834D01*
X018616Y017740D01*
X018611Y017728D01*
X018509Y017830D01*
X018363Y017891D01*
X018205Y017891D01*
X018059Y017830D01*
X017947Y017718D01*
X017887Y017573D01*
X017887Y017415D01*
X017947Y017269D01*
X018059Y017157D01*
X018205Y017097D01*
X018363Y017097D01*
X018509Y017157D01*
X018620Y017269D01*
X018646Y017330D01*
X018710Y017266D01*
X018833Y017215D01*
X018967Y017215D01*
X019090Y017266D01*
X019150Y017326D01*
X019210Y017266D01*
X019333Y017215D01*
X019467Y017215D01*
X019590Y017266D01*
X019654Y017330D01*
X019680Y017269D01*
X019791Y017157D01*
X019937Y017097D01*
X020095Y017097D01*
X020203Y017142D02*
X021135Y017142D01*
X021160Y017116D02*
X021283Y017065D01*
X021417Y017065D01*
X021540Y017116D01*
X021634Y017210D01*
X021685Y017333D01*
X021685Y017467D01*
X021634Y017590D01*
X021540Y017684D01*
X021417Y017735D01*
X021283Y017735D01*
X021160Y017684D01*
X021066Y017590D01*
X021015Y017467D01*
X021015Y017333D01*
X021066Y017210D01*
X021160Y017116D01*
X021062Y017220D02*
X020304Y017220D01*
X020365Y017299D02*
X021029Y017299D01*
X021015Y017377D02*
X020397Y017377D01*
X020413Y017456D02*
X021015Y017456D01*
X021043Y017534D02*
X020413Y017534D01*
X020396Y017613D02*
X021089Y017613D01*
X021177Y017691D02*
X020364Y017691D01*
X020302Y017770D02*
X021994Y017770D01*
X022110Y017770D02*
X022190Y017770D01*
X022190Y017848D02*
X022110Y017848D01*
X022110Y017927D02*
X022190Y017927D01*
X022190Y018005D02*
X022110Y018005D01*
X022110Y018084D02*
X022190Y018084D01*
X022110Y018162D02*
X016620Y018162D01*
X016620Y018084D02*
X021745Y018084D01*
X021766Y018005D02*
X016599Y018005D01*
X016566Y017927D02*
X021806Y017927D01*
X021872Y017848D02*
X020198Y017848D01*
X019834Y017848D02*
X019556Y017848D01*
X019654Y017770D02*
X019731Y017770D01*
X019667Y017299D02*
X019622Y017299D01*
X019729Y017220D02*
X019479Y017220D01*
X019321Y017220D02*
X018979Y017220D01*
X018821Y017220D02*
X018571Y017220D01*
X018633Y017299D02*
X018678Y017299D01*
X018471Y017142D02*
X019829Y017142D01*
X020168Y016985D02*
X021710Y016985D01*
X021680Y017063D02*
X016620Y017063D01*
X016620Y017142D02*
X016919Y017142D01*
X016860Y017166D02*
X016983Y017115D01*
X017117Y017115D01*
X017240Y017166D01*
X017334Y017260D01*
X017385Y017383D01*
X017385Y017517D01*
X017334Y017640D01*
X017240Y017734D01*
X017117Y017785D01*
X016983Y017785D01*
X016860Y017734D01*
X016766Y017640D01*
X016715Y017517D01*
X016715Y017383D01*
X016766Y017260D01*
X016860Y017166D01*
X016806Y017220D02*
X016620Y017220D01*
X016597Y017299D02*
X016750Y017299D01*
X016718Y017377D02*
X016565Y017377D01*
X016509Y017456D02*
X016715Y017456D01*
X016722Y017534D02*
X016431Y017534D01*
X016262Y017613D02*
X016755Y017613D01*
X016817Y017691D02*
X016270Y017691D01*
X016434Y017770D02*
X016946Y017770D01*
X017154Y017770D02*
X017998Y017770D01*
X017936Y017691D02*
X017283Y017691D01*
X017345Y017613D02*
X017904Y017613D01*
X017887Y017534D02*
X017378Y017534D01*
X017385Y017456D02*
X017887Y017456D01*
X017903Y017377D02*
X017382Y017377D01*
X017350Y017299D02*
X017935Y017299D01*
X017996Y017220D02*
X017294Y017220D01*
X017181Y017142D02*
X018097Y017142D01*
X018102Y017848D02*
X016513Y017848D01*
X016620Y018241D02*
X021749Y018241D01*
X021776Y018319D02*
X016644Y018319D01*
X016723Y018398D02*
X021823Y018398D01*
X021901Y018476D02*
X016801Y018476D01*
X016830Y018555D02*
X022083Y018555D01*
X022110Y018555D02*
X022190Y018555D01*
X022217Y018555D02*
X022400Y018555D01*
X022400Y018633D02*
X016830Y018633D01*
X016830Y018712D02*
X021980Y018712D01*
X021845Y018790D02*
X016830Y018790D01*
X016830Y018869D02*
X021767Y018869D01*
X021725Y018947D02*
X017344Y018947D01*
X017449Y019026D02*
X021693Y019026D01*
X021680Y019104D02*
X017502Y019104D01*
X017056Y018947D02*
X016830Y018947D01*
X016830Y019026D02*
X016951Y019026D01*
X016898Y019104D02*
X016830Y019104D01*
X016830Y019183D02*
X016865Y019183D01*
X016865Y019261D02*
X016830Y019261D01*
X016830Y019340D02*
X016874Y019340D01*
X016858Y019418D02*
X016830Y019418D01*
X016830Y019889D02*
X016865Y019889D01*
X016830Y019968D02*
X016991Y019968D01*
X016830Y020046D02*
X021420Y020046D01*
X021420Y020125D02*
X016830Y020125D01*
X016830Y020203D02*
X021420Y020203D01*
X021094Y019968D02*
X017209Y019968D01*
X018466Y017848D02*
X018744Y017848D01*
X018646Y017770D02*
X018569Y017770D01*
X019056Y017848D02*
X019244Y017848D01*
X019178Y017299D02*
X019122Y017299D01*
X019765Y016592D02*
X015900Y016592D01*
X016403Y016514D02*
X019794Y016514D01*
X019841Y016435D02*
X016482Y016435D01*
X016537Y016357D02*
X019933Y016357D01*
X020267Y016357D02*
X021763Y016357D01*
X021731Y016278D02*
X016569Y016278D01*
X016586Y016200D02*
X021714Y016200D01*
X021714Y016121D02*
X016586Y016121D01*
X016578Y016043D02*
X021722Y016043D01*
X021755Y015964D02*
X016545Y015964D01*
X016038Y017613D02*
X015900Y017613D01*
X015900Y017691D02*
X016030Y017691D01*
X019592Y019261D02*
X019766Y019261D01*
X019733Y019340D02*
X019713Y019340D01*
X020404Y021381D02*
X021420Y021381D01*
X021420Y021459D02*
X020533Y021459D01*
X020595Y021538D02*
X021420Y021538D01*
X021420Y021616D02*
X020628Y021616D01*
X020635Y021695D02*
X021420Y021695D01*
X021420Y021773D02*
X020632Y021773D01*
X020600Y021852D02*
X021420Y021852D01*
X021420Y021930D02*
X020854Y021930D01*
X020932Y022009D02*
X021420Y022009D01*
X021420Y022087D02*
X020966Y022087D01*
X020985Y022166D02*
X021420Y022166D01*
X021420Y022244D02*
X020985Y022244D01*
X020962Y022323D02*
X021420Y022323D01*
X021420Y022401D02*
X020923Y022401D01*
X020880Y022480D02*
X021420Y022480D01*
X021420Y022558D02*
X020880Y022558D01*
X020880Y022637D02*
X021420Y022637D01*
X021420Y022715D02*
X020880Y022715D01*
X020880Y022794D02*
X021265Y022794D01*
X021154Y022872D02*
X020880Y022872D01*
X020880Y022951D02*
X021099Y022951D01*
X021067Y023029D02*
X020880Y023029D01*
X020880Y023108D02*
X021065Y023108D01*
X021073Y023186D02*
X020880Y023186D01*
X020880Y023265D02*
X021106Y023265D01*
X021169Y023343D02*
X020880Y023343D01*
X020880Y023422D02*
X021301Y023422D01*
X021225Y023500D02*
X020880Y023500D01*
X020880Y023579D02*
X021170Y023579D01*
X021170Y023657D02*
X020880Y023657D01*
X020880Y023736D02*
X021170Y023736D01*
X021170Y023814D02*
X020880Y023814D01*
X020880Y023893D02*
X021170Y023893D01*
X021170Y023971D02*
X020880Y023971D01*
X020880Y024050D02*
X021170Y024050D01*
X021170Y024128D02*
X020880Y024128D01*
X020880Y024207D02*
X021170Y024207D01*
X021170Y024285D02*
X020880Y024285D01*
X021680Y025244D02*
X021590Y025334D01*
X021485Y025377D01*
X021485Y025417D01*
X021434Y025540D01*
X021340Y025634D01*
X021283Y025658D01*
X021580Y025955D01*
X021580Y025956D01*
X021634Y026010D01*
X021658Y026067D01*
X021688Y026036D01*
X021752Y025884D01*
X021884Y025752D01*
X022057Y025680D01*
X022243Y025680D01*
X022400Y025745D01*
X022400Y025555D01*
X022243Y025620D01*
X022057Y025620D01*
X021884Y025548D01*
X021752Y025416D01*
X021680Y025244D01*
X021706Y025306D02*
X021618Y025306D01*
X021738Y025384D02*
X021485Y025384D01*
X021466Y025463D02*
X021798Y025463D01*
X021876Y025541D02*
X021433Y025541D01*
X021354Y025620D02*
X022055Y025620D01*
X022013Y025698D02*
X021323Y025698D01*
X021402Y025777D02*
X021859Y025777D01*
X021780Y025855D02*
X021480Y025855D01*
X021559Y025934D02*
X021731Y025934D01*
X021698Y026012D02*
X021635Y026012D01*
X022287Y025698D02*
X022400Y025698D01*
X022400Y025620D02*
X022245Y025620D01*
X020757Y027425D02*
X020191Y027425D01*
X020327Y027504D02*
X020836Y027504D01*
X020694Y027582D02*
X020393Y027582D01*
X020426Y027661D02*
X020616Y027661D01*
X020583Y027739D02*
X020435Y027739D01*
X020435Y027818D02*
X020565Y027818D01*
X020565Y027896D02*
X020402Y027896D01*
X020349Y027975D02*
X020589Y027975D01*
X020629Y028053D02*
X020244Y028053D01*
X020135Y028132D02*
X020708Y028132D01*
X020772Y028210D02*
X020135Y028210D01*
X020105Y028289D02*
X020715Y028289D01*
X020690Y028367D02*
X020057Y028367D01*
X019962Y028446D02*
X020690Y028446D01*
X020690Y028524D02*
X020598Y028524D01*
X020676Y028603D02*
X020690Y028603D01*
X020679Y028995D02*
X020690Y028995D01*
X020690Y029074D02*
X020600Y029074D01*
X020690Y029152D02*
X019235Y029152D01*
X019235Y029217D02*
X019184Y029340D01*
X019090Y029434D01*
X018967Y029485D01*
X018833Y029485D01*
X018710Y029434D01*
X018616Y029340D01*
X018565Y029217D01*
X018565Y029083D01*
X018610Y028975D01*
X018565Y028867D01*
X018565Y028733D01*
X018616Y028610D01*
X018710Y028516D01*
X018833Y028465D01*
X018967Y028465D01*
X019090Y028516D01*
X019184Y028610D01*
X019235Y028733D01*
X019235Y028867D01*
X019190Y028975D01*
X019235Y029083D01*
X019235Y029217D01*
X019229Y029231D02*
X019946Y029231D01*
X019983Y029215D02*
X020117Y029215D01*
X020240Y029266D01*
X020334Y029360D01*
X020385Y029483D01*
X020385Y029617D01*
X020350Y029700D01*
X020385Y029783D01*
X020385Y029917D01*
X020334Y030040D01*
X020240Y030134D01*
X020117Y030185D01*
X019983Y030185D01*
X019860Y030134D01*
X019766Y030040D01*
X019715Y029917D01*
X019715Y029783D01*
X019750Y029700D01*
X019715Y029617D01*
X019715Y029483D01*
X019766Y029360D01*
X019860Y029266D01*
X019983Y029215D01*
X019900Y029074D02*
X019231Y029074D01*
X019198Y028995D02*
X019821Y028995D01*
X019786Y028917D02*
X019214Y028917D01*
X019235Y028838D02*
X019765Y028838D01*
X019765Y028760D02*
X019235Y028760D01*
X019213Y028681D02*
X019787Y028681D01*
X019824Y028603D02*
X019176Y028603D01*
X019098Y028524D02*
X019902Y028524D01*
X019638Y028446D02*
X019562Y028446D01*
X019238Y028446D02*
X017130Y028446D01*
X017130Y028524D02*
X017202Y028524D01*
X017130Y028367D02*
X019143Y028367D01*
X019095Y028289D02*
X017130Y028289D01*
X017130Y028210D02*
X019065Y028210D01*
X019065Y028132D02*
X017130Y028132D01*
X017130Y028053D02*
X019078Y028053D01*
X019110Y027975D02*
X017130Y027975D01*
X017130Y027896D02*
X019180Y027896D01*
X019157Y027818D02*
X017130Y027818D01*
X017130Y027739D02*
X019124Y027739D01*
X019115Y027661D02*
X019026Y027661D01*
X018774Y027661D02*
X017130Y027661D01*
X017130Y027582D02*
X017757Y027582D01*
X017678Y027504D02*
X017130Y027504D01*
X017130Y027425D02*
X017600Y027425D01*
X017521Y027347D02*
X017130Y027347D01*
X017130Y027268D02*
X017443Y027268D01*
X017420Y027190D02*
X017326Y027190D01*
X017413Y027111D02*
X017420Y027111D01*
X017880Y026640D02*
X017886Y026640D01*
X017880Y026562D02*
X017971Y026562D01*
X017880Y026483D02*
X019815Y026483D01*
X019737Y026405D02*
X017880Y026405D01*
X017851Y026326D02*
X019658Y026326D01*
X019609Y026248D02*
X017773Y026248D01*
X017694Y026169D02*
X019590Y026169D01*
X019590Y026091D02*
X017616Y026091D01*
X017537Y026012D02*
X019590Y026012D01*
X019590Y025934D02*
X017459Y025934D01*
X017485Y025855D02*
X019590Y025855D01*
X019590Y025777D02*
X017485Y025777D01*
X017470Y025698D02*
X019590Y025698D01*
X019590Y025620D02*
X017438Y025620D01*
X017365Y025541D02*
X019590Y025541D01*
X019590Y025463D02*
X017038Y025463D01*
X016980Y025384D02*
X019590Y025384D01*
X019590Y025306D02*
X016980Y025306D01*
X016980Y025227D02*
X019590Y025227D01*
X019590Y025149D02*
X016980Y025149D01*
X017005Y025070D02*
X019590Y025070D01*
X019590Y024992D02*
X017084Y024992D01*
X017162Y024913D02*
X019590Y024913D01*
X019590Y024835D02*
X017241Y024835D01*
X017319Y024756D02*
X019590Y024756D01*
X019590Y024678D02*
X017380Y024678D01*
X017380Y024599D02*
X019590Y024599D01*
X019590Y024521D02*
X017380Y024521D01*
X017380Y024442D02*
X019590Y024442D01*
X019590Y024364D02*
X017380Y024364D01*
X017380Y024285D02*
X019590Y024285D01*
X019590Y024207D02*
X018135Y024207D01*
X018246Y024128D02*
X019590Y024128D01*
X019590Y024050D02*
X018301Y024050D01*
X018333Y023971D02*
X019590Y023971D01*
X019590Y023893D02*
X018335Y023893D01*
X018327Y023814D02*
X019590Y023814D01*
X019590Y023736D02*
X018294Y023736D01*
X018231Y023657D02*
X019539Y023657D01*
X019461Y023579D02*
X018099Y023579D01*
X017901Y023579D02*
X017699Y023579D01*
X017501Y023579D02*
X017439Y023579D01*
X017471Y023500D02*
X019382Y023500D01*
X019304Y023422D02*
X017485Y023422D01*
X016981Y023108D02*
X016830Y023108D01*
X016830Y023186D02*
X016890Y023186D01*
X016844Y023265D02*
X016830Y023265D01*
X017380Y024207D02*
X017465Y024207D01*
X017735Y024207D02*
X017865Y024207D01*
X018329Y026562D02*
X019894Y026562D01*
X019972Y026640D02*
X018414Y026640D01*
X018458Y026719D02*
X019958Y026719D01*
X019879Y026797D02*
X018485Y026797D01*
X018485Y026876D02*
X019839Y026876D01*
X019815Y026954D02*
X018470Y026954D01*
X018437Y027033D02*
X018791Y027033D01*
X018665Y027111D02*
X018363Y027111D01*
X019009Y027033D02*
X019815Y027033D01*
X019833Y027111D02*
X019135Y027111D01*
X019196Y027190D02*
X019866Y027190D01*
X019944Y027268D02*
X019229Y027268D01*
X019235Y027347D02*
X019307Y027347D01*
X019593Y027347D02*
X020679Y027347D01*
X020600Y027268D02*
X020356Y027268D01*
X020434Y027190D02*
X020522Y027190D01*
X020009Y027425D02*
X019699Y027425D01*
X019752Y027504D02*
X019873Y027504D01*
X019807Y027582D02*
X019784Y027582D01*
X018702Y028524D02*
X017598Y028524D01*
X017676Y028603D02*
X018624Y028603D01*
X018587Y028681D02*
X017713Y028681D01*
X017735Y028760D02*
X018565Y028760D01*
X018565Y028838D02*
X017735Y028838D01*
X017714Y028917D02*
X018586Y028917D01*
X018602Y028995D02*
X017679Y028995D01*
X017600Y029074D02*
X018569Y029074D01*
X018565Y029152D02*
X017130Y029152D01*
X017130Y029074D02*
X017200Y029074D01*
X017130Y029231D02*
X018571Y029231D01*
X018603Y029309D02*
X017130Y029309D01*
X017130Y029388D02*
X018664Y029388D01*
X018788Y029466D02*
X017130Y029466D01*
X017130Y029545D02*
X019715Y029545D01*
X019718Y029623D02*
X017130Y029623D01*
X017130Y029702D02*
X019749Y029702D01*
X019716Y029780D02*
X017130Y029780D01*
X017130Y029859D02*
X019715Y029859D01*
X019723Y029937D02*
X017161Y029937D01*
X017207Y030016D02*
X019756Y030016D01*
X019820Y030094D02*
X017235Y030094D01*
X017235Y030173D02*
X017754Y030173D01*
X017675Y030251D02*
X017221Y030251D01*
X017188Y030330D02*
X017637Y030330D01*
X017615Y030408D02*
X017130Y030408D01*
X017130Y030487D02*
X017615Y030487D01*
X017635Y030565D02*
X017130Y030565D01*
X017130Y030644D02*
X017670Y030644D01*
X017748Y030722D02*
X017130Y030722D01*
X017130Y030801D02*
X018198Y030801D01*
X018152Y030722D02*
X018288Y030722D01*
X018265Y030644D02*
X018230Y030644D01*
X018285Y030408D02*
X018318Y030408D01*
X018263Y030330D02*
X018397Y030330D01*
X018225Y030251D02*
X020883Y030251D01*
X020805Y030173D02*
X020147Y030173D01*
X020280Y030094D02*
X020728Y030094D01*
X020696Y030016D02*
X020344Y030016D01*
X020377Y029937D02*
X020690Y029937D01*
X020690Y029859D02*
X020385Y029859D01*
X020384Y029780D02*
X020690Y029780D01*
X020690Y029702D02*
X020351Y029702D01*
X020382Y029623D02*
X020690Y029623D01*
X020690Y029545D02*
X020385Y029545D01*
X020378Y029466D02*
X020690Y029466D01*
X020690Y029388D02*
X020345Y029388D01*
X020283Y029309D02*
X020690Y029309D01*
X020690Y029231D02*
X020154Y029231D01*
X019817Y029309D02*
X019197Y029309D01*
X019136Y029388D02*
X019755Y029388D01*
X019722Y029466D02*
X019012Y029466D01*
X018803Y030330D02*
X020962Y030330D01*
X021040Y030408D02*
X018882Y030408D01*
X018916Y030487D02*
X021119Y030487D01*
X021197Y030565D02*
X018935Y030565D01*
X018935Y030644D02*
X021276Y030644D01*
X021354Y030722D02*
X019096Y030722D01*
X019174Y030801D02*
X021433Y030801D01*
X021511Y030879D02*
X019213Y030879D01*
X019235Y030958D02*
X021590Y030958D01*
X021668Y031036D02*
X019235Y031036D01*
X019215Y031115D02*
X021680Y031115D01*
X021680Y031193D02*
X019181Y031193D01*
X019102Y031272D02*
X021692Y031272D01*
X021724Y031350D02*
X018851Y031350D01*
X018952Y031429D02*
X021648Y031429D01*
X021597Y031507D02*
X019003Y031507D01*
X019035Y031586D02*
X021565Y031586D01*
X021565Y031664D02*
X019035Y031664D01*
X019218Y031743D02*
X021576Y031743D01*
X021608Y031821D02*
X020495Y031821D01*
X020573Y031900D02*
X021676Y031900D01*
X021712Y031978D02*
X020612Y031978D01*
X020635Y032057D02*
X020683Y032057D01*
X021156Y032214D02*
X021680Y032214D01*
X021700Y032292D02*
X021416Y032292D01*
X021488Y032371D02*
X021733Y032371D01*
X021784Y032449D02*
X021521Y032449D01*
X021535Y032528D02*
X021863Y032528D01*
X022023Y032606D02*
X021535Y032606D01*
X021507Y032685D02*
X022046Y032685D01*
X021872Y032763D02*
X021461Y032763D01*
X021485Y032842D02*
X021794Y032842D01*
X021737Y032920D02*
X021485Y032920D01*
X021472Y032999D02*
X021704Y032999D01*
X021680Y033077D02*
X021439Y033077D01*
X021368Y033156D02*
X021680Y033156D01*
X021680Y033234D02*
X021219Y033234D01*
X021081Y033234D02*
X020385Y033234D01*
X020385Y033313D02*
X021709Y033313D01*
X021735Y033391D02*
X020354Y033391D01*
X020379Y033470D02*
X021662Y033470D01*
X021630Y033548D02*
X020385Y033548D01*
X020381Y033627D02*
X021615Y033627D01*
X021615Y033705D02*
X020348Y033705D01*
X020290Y033784D02*
X021643Y033784D01*
X021688Y033862D02*
X020172Y033862D01*
X019928Y033862D02*
X019872Y033862D01*
X019628Y033862D02*
X018330Y033862D01*
X018330Y033784D02*
X019510Y033784D01*
X019452Y033705D02*
X018330Y033705D01*
X018399Y033627D02*
X019419Y033627D01*
X019415Y033548D02*
X018477Y033548D01*
X018556Y033470D02*
X019421Y033470D01*
X019446Y033391D02*
X018580Y033391D01*
X018580Y033313D02*
X019415Y033313D01*
X019415Y033234D02*
X018590Y033234D01*
X018648Y033156D02*
X019427Y033156D01*
X019459Y033077D02*
X018681Y033077D01*
X018685Y032999D02*
X019528Y032999D01*
X020272Y032999D02*
X020373Y032999D01*
X020341Y033077D02*
X020452Y033077D01*
X020373Y033156D02*
X020932Y033156D01*
X021765Y033941D02*
X018330Y033941D01*
X018584Y034019D02*
X021732Y034019D01*
X021714Y034098D02*
X018666Y034098D01*
X018709Y034176D02*
X021714Y034176D01*
X021721Y034255D02*
X018735Y034255D01*
X018957Y034333D02*
X019290Y034333D01*
X019165Y034412D02*
X019035Y034412D01*
X019067Y034490D02*
X019104Y034490D01*
X019510Y034333D02*
X021754Y034333D01*
X021795Y034412D02*
X019635Y034412D01*
X019696Y034490D02*
X021873Y034490D01*
X022021Y034569D02*
X019729Y034569D01*
X019735Y034647D02*
X022400Y034647D01*
X022400Y034569D02*
X022279Y034569D01*
X022400Y034726D02*
X021849Y034726D01*
X021928Y034804D02*
X022400Y034804D01*
X022400Y034883D02*
X021964Y034883D01*
X021985Y034961D02*
X022400Y034961D01*
X022400Y035040D02*
X021985Y035040D01*
X021964Y035118D02*
X022400Y035118D01*
X022400Y035197D02*
X021927Y035197D01*
X021849Y035275D02*
X022400Y035275D01*
X022400Y035354D02*
X021273Y035354D01*
X021285Y035432D02*
X022400Y035432D01*
X022400Y035511D02*
X021285Y035511D01*
X021255Y035589D02*
X022400Y035589D01*
X022400Y035668D02*
X021258Y035668D01*
X021285Y035746D02*
X022400Y035746D01*
X022400Y035825D02*
X021548Y035825D01*
X021627Y035903D02*
X022400Y035903D01*
X022400Y035982D02*
X021664Y035982D01*
X021685Y036060D02*
X022400Y036060D01*
X022400Y036139D02*
X021685Y036139D01*
X021451Y035275D02*
X021240Y035275D01*
X021451Y034726D02*
X019731Y034726D01*
X018587Y032320D02*
X018379Y032320D01*
X018334Y032210D01*
X018274Y032150D01*
X018334Y032090D01*
X018358Y032033D01*
X018505Y032180D01*
X018565Y032180D01*
X018565Y032267D01*
X018587Y032320D01*
X018576Y032292D02*
X018368Y032292D01*
X018335Y032214D02*
X018565Y032214D01*
X018460Y032135D02*
X018289Y032135D01*
X018348Y032057D02*
X018381Y032057D01*
X017811Y032135D02*
X017160Y032135D01*
X017130Y032057D02*
X017752Y032057D01*
X017720Y031978D02*
X017130Y031978D01*
X017130Y031900D02*
X017715Y031900D01*
X017720Y031821D02*
X017130Y031821D01*
X017130Y031743D02*
X017753Y031743D01*
X017812Y031664D02*
X017130Y031664D01*
X017130Y031586D02*
X017764Y031586D01*
X017732Y031507D02*
X017130Y031507D01*
X017130Y031429D02*
X017715Y031429D01*
X017715Y031350D02*
X017130Y031350D01*
X017130Y031272D02*
X017741Y031272D01*
X017783Y031193D02*
X017130Y031193D01*
X017130Y031115D02*
X017864Y031115D01*
X018015Y031036D02*
X017130Y031036D01*
X017130Y030958D02*
X018046Y030958D01*
X018097Y030879D02*
X017130Y030879D01*
X018146Y030173D02*
X019953Y030173D01*
X020105Y031821D02*
X019296Y031821D01*
X018698Y031272D02*
X018642Y031272D01*
X017765Y032214D02*
X017239Y032214D01*
X017317Y032292D02*
X017732Y032292D01*
X022254Y032685D02*
X022400Y032685D01*
X022400Y032606D02*
X022277Y032606D01*
X022320Y018712D02*
X022400Y018712D01*
X022399Y018476D02*
X022400Y018476D01*
X022190Y018476D02*
X022110Y018476D01*
X022110Y018398D02*
X022190Y018398D01*
X022190Y018319D02*
X022110Y018319D01*
X022110Y018241D02*
X022190Y018241D01*
X022306Y017770D02*
X022400Y017770D01*
X022400Y017691D02*
X021523Y017691D01*
X021611Y017613D02*
X022038Y017613D01*
X021869Y017534D02*
X021657Y017534D01*
X021685Y017456D02*
X021791Y017456D01*
X021735Y017377D02*
X021685Y017377D01*
X021671Y017299D02*
X021703Y017299D01*
X021680Y017220D02*
X021638Y017220D01*
X021680Y017142D02*
X021565Y017142D01*
X021742Y016906D02*
X020318Y016906D01*
X020389Y016828D02*
X021808Y016828D01*
X021890Y016749D02*
X020422Y016749D01*
X020435Y016671D02*
X022400Y016671D01*
X022400Y016592D02*
X020435Y016592D01*
X020406Y016514D02*
X021897Y016514D01*
X021818Y016435D02*
X020359Y016435D01*
X022262Y017613D02*
X022400Y017613D01*
M02*
