G75*
%MOIN*%
%OFA0B0*%
%FSLAX24Y24*%
%IPPOS*%
%LPD*%
%AMOC8*
5,1,8,0,0,1.08239X$1,22.5*
%
%ADD10C,0.0100*%
%ADD11C,0.0552*%
%ADD12R,0.0474X0.0513*%
%ADD13C,0.0860*%
%ADD14C,0.0480*%
%ADD15R,0.0513X0.0474*%
%ADD16R,0.0395X0.0395*%
%ADD17C,0.1000*%
%ADD18C,0.0151*%
%ADD19R,0.0700X0.0700*%
%ADD20C,0.0700*%
%ADD21R,0.0867X0.1025*%
%ADD22R,0.0277X0.0989*%
%ADD23C,0.0474*%
%ADD24R,0.0257X0.0356*%
%ADD25C,0.0157*%
%ADD26R,0.1417X0.1417*%
%ADD27R,0.0474X0.0474*%
%ADD28R,0.0493X0.0592*%
%ADD29R,0.0280X0.0480*%
%ADD30R,0.0400X0.0240*%
%ADD31R,0.0237X0.0867*%
%ADD32R,0.0330X0.0580*%
D10*
X017626Y015312D02*
X017609Y015342D01*
X017600Y015375D01*
X017600Y015525D01*
X017609Y015558D01*
X017626Y015588D01*
X017648Y015613D01*
X017676Y015633D01*
X017707Y015646D01*
X017741Y015652D01*
X017775Y015650D01*
X017731Y015650D01*
X017775Y015650D02*
X020575Y015650D01*
X020603Y015647D01*
X020629Y015638D01*
X020653Y015623D01*
X020673Y015603D01*
X020688Y015579D01*
X020697Y015553D01*
X020700Y015525D01*
X020700Y015375D01*
X020697Y015347D01*
X020688Y015321D01*
X020673Y015297D01*
X020653Y015277D01*
X020629Y015262D01*
X020603Y015253D01*
X020575Y015250D01*
X017775Y015250D01*
X017741Y015248D01*
X017707Y015254D01*
X017676Y015267D01*
X017648Y015287D01*
X017626Y015312D01*
X017606Y015354D02*
X020698Y015354D01*
X020700Y015453D02*
X017600Y015453D01*
X017608Y015551D02*
X020697Y015551D01*
X020611Y015256D02*
X017703Y015256D01*
D11*
X016150Y016150D03*
X022150Y016150D03*
X022150Y034150D03*
X016150Y034150D03*
D12*
X017315Y034300D03*
X017985Y034300D03*
X019900Y031485D03*
X019900Y030815D03*
X019485Y030150D03*
X018815Y030150D03*
X020565Y027450D03*
X021235Y027450D03*
X021150Y024235D03*
X021150Y023565D03*
X019400Y022985D03*
X019400Y022315D03*
X017900Y022315D03*
X017900Y022985D03*
X020500Y035065D03*
X020500Y035735D03*
D13*
X018803Y016550D02*
X018805Y016577D01*
X018811Y016604D01*
X018820Y016630D01*
X018833Y016654D01*
X018849Y016677D01*
X018868Y016696D01*
X018890Y016713D01*
X018914Y016727D01*
X018939Y016737D01*
X018966Y016744D01*
X018993Y016747D01*
X019021Y016746D01*
X019048Y016741D01*
X019074Y016733D01*
X019098Y016721D01*
X019121Y016705D01*
X019142Y016687D01*
X019159Y016666D01*
X019174Y016642D01*
X019185Y016617D01*
X019193Y016591D01*
X019197Y016564D01*
X019197Y016536D01*
X019193Y016509D01*
X019185Y016483D01*
X019174Y016458D01*
X019159Y016434D01*
X019142Y016413D01*
X019121Y016395D01*
X019099Y016379D01*
X019074Y016367D01*
X019048Y016359D01*
X019021Y016354D01*
X018993Y016353D01*
X018966Y016356D01*
X018939Y016363D01*
X018914Y016373D01*
X018890Y016387D01*
X018868Y016404D01*
X018849Y016423D01*
X018833Y016446D01*
X018820Y016470D01*
X018811Y016496D01*
X018805Y016523D01*
X018803Y016550D01*
D14*
X019000Y016550D03*
D15*
X019900Y020065D03*
X019900Y020735D03*
X020900Y020735D03*
X020900Y020065D03*
X018650Y022315D03*
X018650Y022985D03*
X017150Y022985D03*
X017150Y022315D03*
X020565Y026850D03*
X021235Y026850D03*
X021235Y030100D03*
X020565Y030100D03*
X019350Y030815D03*
X019350Y031485D03*
X017985Y033750D03*
X017315Y033750D03*
X019115Y035100D03*
X019115Y035700D03*
X019785Y035700D03*
X019785Y035100D03*
X022150Y034815D03*
X022150Y035485D03*
D16*
X021195Y028200D03*
X020605Y028200D03*
X020900Y021845D03*
X020900Y021255D03*
X019900Y021255D03*
X019900Y021845D03*
X017150Y021845D03*
X017150Y021255D03*
D17*
X018900Y025400D02*
X018902Y025431D01*
X018908Y025462D01*
X018918Y025492D01*
X018931Y025520D01*
X018948Y025547D01*
X018968Y025571D01*
X018991Y025593D01*
X019016Y025611D01*
X019044Y025626D01*
X019073Y025638D01*
X019103Y025646D01*
X019134Y025650D01*
X019166Y025650D01*
X019197Y025646D01*
X019227Y025638D01*
X019256Y025626D01*
X019284Y025611D01*
X019309Y025593D01*
X019332Y025571D01*
X019352Y025547D01*
X019369Y025520D01*
X019382Y025492D01*
X019392Y025462D01*
X019398Y025431D01*
X019400Y025400D01*
X019398Y025369D01*
X019392Y025338D01*
X019382Y025308D01*
X019369Y025280D01*
X019352Y025253D01*
X019332Y025229D01*
X019309Y025207D01*
X019284Y025189D01*
X019256Y025174D01*
X019227Y025162D01*
X019197Y025154D01*
X019166Y025150D01*
X019134Y025150D01*
X019103Y025154D01*
X019073Y025162D01*
X019044Y025174D01*
X019016Y025189D01*
X018991Y025207D01*
X018968Y025229D01*
X018948Y025253D01*
X018931Y025280D01*
X018918Y025308D01*
X018908Y025338D01*
X018902Y025369D01*
X018900Y025400D01*
D18*
X018164Y026081D02*
X018007Y026238D01*
X018034Y026265D01*
X018191Y026108D01*
X018164Y026081D01*
X018068Y026231D02*
X018014Y026231D01*
X017868Y026098D02*
X018025Y025941D01*
X017868Y026098D02*
X017895Y026125D01*
X018052Y025968D01*
X018025Y025941D01*
X017929Y026091D02*
X017875Y026091D01*
X017729Y025959D02*
X017886Y025802D01*
X017729Y025959D02*
X017756Y025986D01*
X017913Y025829D01*
X017886Y025802D01*
X017790Y025952D02*
X017736Y025952D01*
X017589Y025820D02*
X017746Y025663D01*
X017589Y025820D02*
X017616Y025847D01*
X017773Y025690D01*
X017746Y025663D01*
X017650Y025813D02*
X017596Y025813D01*
X017450Y025681D02*
X017607Y025524D01*
X017450Y025681D02*
X017477Y025708D01*
X017634Y025551D01*
X017607Y025524D01*
X017511Y025674D02*
X017457Y025674D01*
X017634Y025249D02*
X017477Y025092D01*
X017450Y025119D01*
X017607Y025276D01*
X017634Y025249D01*
X017627Y025242D02*
X017573Y025242D01*
X017773Y025110D02*
X017616Y024953D01*
X017589Y024980D01*
X017746Y025137D01*
X017773Y025110D01*
X017766Y025103D02*
X017712Y025103D01*
X017913Y024971D02*
X017756Y024814D01*
X017729Y024841D01*
X017886Y024998D01*
X017913Y024971D01*
X017906Y024964D02*
X017852Y024964D01*
X018052Y024832D02*
X017895Y024675D01*
X017868Y024702D01*
X018025Y024859D01*
X018052Y024832D01*
X018045Y024825D02*
X017991Y024825D01*
X018191Y024692D02*
X018034Y024535D01*
X018007Y024562D01*
X018164Y024719D01*
X018191Y024692D01*
X018184Y024685D02*
X018130Y024685D01*
X018330Y024553D02*
X018173Y024396D01*
X018146Y024423D01*
X018303Y024580D01*
X018330Y024553D01*
X018323Y024546D02*
X018269Y024546D01*
X018469Y024414D02*
X018312Y024257D01*
X018285Y024284D01*
X018442Y024441D01*
X018469Y024414D01*
X018462Y024407D02*
X018408Y024407D01*
X018609Y024275D02*
X018452Y024118D01*
X018425Y024145D01*
X018582Y024302D01*
X018609Y024275D01*
X018602Y024268D02*
X018548Y024268D01*
X018748Y024136D02*
X018591Y023979D01*
X018564Y024006D01*
X018721Y024163D01*
X018748Y024136D01*
X018741Y024129D02*
X018687Y024129D01*
X018887Y023996D02*
X018730Y023839D01*
X018703Y023866D01*
X018860Y024023D01*
X018887Y023996D01*
X018880Y023989D02*
X018826Y023989D01*
X019026Y023857D02*
X018869Y023700D01*
X018842Y023727D01*
X018999Y023884D01*
X019026Y023857D01*
X019019Y023850D02*
X018965Y023850D01*
X019301Y023884D02*
X019458Y023727D01*
X019431Y023700D01*
X019274Y023857D01*
X019301Y023884D01*
X019281Y023850D02*
X019335Y023850D01*
X019440Y024023D02*
X019597Y023866D01*
X019570Y023839D01*
X019413Y023996D01*
X019440Y024023D01*
X019420Y023989D02*
X019474Y023989D01*
X019579Y024163D02*
X019736Y024006D01*
X019709Y023979D01*
X019552Y024136D01*
X019579Y024163D01*
X019559Y024129D02*
X019613Y024129D01*
X019718Y024302D02*
X019875Y024145D01*
X019848Y024118D01*
X019691Y024275D01*
X019718Y024302D01*
X019698Y024268D02*
X019752Y024268D01*
X019858Y024441D02*
X020015Y024284D01*
X019988Y024257D01*
X019831Y024414D01*
X019858Y024441D01*
X019838Y024407D02*
X019892Y024407D01*
X019997Y024580D02*
X020154Y024423D01*
X020127Y024396D01*
X019970Y024553D01*
X019997Y024580D01*
X019977Y024546D02*
X020031Y024546D01*
X020136Y024719D02*
X020293Y024562D01*
X020266Y024535D01*
X020109Y024692D01*
X020136Y024719D01*
X020116Y024685D02*
X020170Y024685D01*
X020275Y024859D02*
X020432Y024702D01*
X020405Y024675D01*
X020248Y024832D01*
X020275Y024859D01*
X020255Y024825D02*
X020309Y024825D01*
X020414Y024998D02*
X020571Y024841D01*
X020544Y024814D01*
X020387Y024971D01*
X020414Y024998D01*
X020394Y024964D02*
X020448Y024964D01*
X020553Y025137D02*
X020710Y024980D01*
X020683Y024953D01*
X020526Y025110D01*
X020553Y025137D01*
X020533Y025103D02*
X020587Y025103D01*
X020693Y025276D02*
X020850Y025119D01*
X020823Y025092D01*
X020666Y025249D01*
X020693Y025276D01*
X020673Y025242D02*
X020727Y025242D01*
X020666Y025551D02*
X020823Y025708D01*
X020850Y025681D01*
X020693Y025524D01*
X020666Y025551D01*
X020789Y025674D02*
X020843Y025674D01*
X020683Y025847D02*
X020526Y025690D01*
X020683Y025847D02*
X020710Y025820D01*
X020553Y025663D01*
X020526Y025690D01*
X020649Y025813D02*
X020703Y025813D01*
X020544Y025986D02*
X020387Y025829D01*
X020544Y025986D02*
X020571Y025959D01*
X020414Y025802D01*
X020387Y025829D01*
X020510Y025952D02*
X020564Y025952D01*
X020405Y026125D02*
X020248Y025968D01*
X020405Y026125D02*
X020432Y026098D01*
X020275Y025941D01*
X020248Y025968D01*
X020371Y026091D02*
X020425Y026091D01*
X020266Y026265D02*
X020109Y026108D01*
X020266Y026265D02*
X020293Y026238D01*
X020136Y026081D01*
X020109Y026108D01*
X020232Y026231D02*
X020286Y026231D01*
X020127Y026404D02*
X019970Y026247D01*
X020127Y026404D02*
X020154Y026377D01*
X019997Y026220D01*
X019970Y026247D01*
X020093Y026370D02*
X020147Y026370D01*
X019988Y026543D02*
X019831Y026386D01*
X019988Y026543D02*
X020015Y026516D01*
X019858Y026359D01*
X019831Y026386D01*
X019954Y026509D02*
X020008Y026509D01*
X019848Y026682D02*
X019691Y026525D01*
X019848Y026682D02*
X019875Y026655D01*
X019718Y026498D01*
X019691Y026525D01*
X019814Y026648D02*
X019868Y026648D01*
X019709Y026821D02*
X019552Y026664D01*
X019709Y026821D02*
X019736Y026794D01*
X019579Y026637D01*
X019552Y026664D01*
X019675Y026787D02*
X019729Y026787D01*
X019570Y026960D02*
X019413Y026803D01*
X019570Y026960D02*
X019597Y026933D01*
X019440Y026776D01*
X019413Y026803D01*
X019536Y026926D02*
X019590Y026926D01*
X019431Y027100D02*
X019274Y026943D01*
X019431Y027100D02*
X019458Y027073D01*
X019301Y026916D01*
X019274Y026943D01*
X019397Y027066D02*
X019451Y027066D01*
X018999Y026916D02*
X018842Y027073D01*
X018869Y027100D01*
X019026Y026943D01*
X018999Y026916D01*
X018903Y027066D02*
X018849Y027066D01*
X018703Y026933D02*
X018860Y026776D01*
X018703Y026933D02*
X018730Y026960D01*
X018887Y026803D01*
X018860Y026776D01*
X018764Y026926D02*
X018710Y026926D01*
X018564Y026794D02*
X018721Y026637D01*
X018564Y026794D02*
X018591Y026821D01*
X018748Y026664D01*
X018721Y026637D01*
X018625Y026787D02*
X018571Y026787D01*
X018425Y026655D02*
X018582Y026498D01*
X018425Y026655D02*
X018452Y026682D01*
X018609Y026525D01*
X018582Y026498D01*
X018486Y026648D02*
X018432Y026648D01*
X018285Y026516D02*
X018442Y026359D01*
X018285Y026516D02*
X018312Y026543D01*
X018469Y026386D01*
X018442Y026359D01*
X018346Y026509D02*
X018292Y026509D01*
X018146Y026377D02*
X018303Y026220D01*
X018146Y026377D02*
X018173Y026404D01*
X018330Y026247D01*
X018303Y026220D01*
X018207Y026370D02*
X018153Y026370D01*
D19*
X016150Y033150D03*
D20*
X016150Y032150D03*
X016150Y031150D03*
X016150Y030150D03*
X016150Y029150D03*
X016150Y028150D03*
X016150Y027150D03*
X016150Y026150D03*
X016150Y025150D03*
X016150Y024150D03*
X016150Y023150D03*
X016150Y022150D03*
X016150Y021150D03*
X016150Y020150D03*
X016150Y019150D03*
X016150Y018150D03*
X016150Y017150D03*
X022150Y017150D03*
X022150Y018150D03*
X022150Y019150D03*
X022150Y020150D03*
X022150Y021150D03*
X022150Y022150D03*
X022150Y023150D03*
X022150Y024150D03*
X022150Y025150D03*
X022150Y026150D03*
X022150Y027150D03*
X022150Y028150D03*
X022150Y029150D03*
X022150Y030150D03*
X022150Y031150D03*
X022150Y032150D03*
X022150Y033150D03*
D21*
X020882Y018478D03*
X020882Y016313D03*
X017418Y016313D03*
X017418Y018478D03*
D22*
X018520Y018700D03*
X018835Y018700D03*
X019150Y018700D03*
X019465Y018700D03*
X019780Y018700D03*
D23*
X020016Y017494D03*
X018284Y017494D03*
D24*
X018743Y019595D03*
X019057Y019595D03*
X019057Y020205D03*
X018743Y020205D03*
D25*
X019211Y032416D02*
X019211Y032573D01*
X019073Y032711D02*
X018916Y032711D01*
X018916Y032908D02*
X019073Y032908D01*
X019073Y033105D02*
X018916Y033105D01*
X018916Y033302D02*
X019073Y033302D01*
X019073Y033498D02*
X018916Y033498D01*
X018916Y033695D02*
X019073Y033695D01*
X019073Y033892D02*
X018916Y033892D01*
X018916Y034089D02*
X019073Y034089D01*
X019211Y034227D02*
X019211Y034384D01*
X019408Y034384D02*
X019408Y034227D01*
X019605Y034227D02*
X019605Y034384D01*
X019802Y034384D02*
X019802Y034227D01*
X019998Y034227D02*
X019998Y034384D01*
X020195Y034384D02*
X020195Y034227D01*
X020392Y034227D02*
X020392Y034384D01*
X020589Y034384D02*
X020589Y034227D01*
X020727Y034089D02*
X020884Y034089D01*
X020884Y033892D02*
X020727Y033892D01*
X020727Y033695D02*
X020884Y033695D01*
X020884Y033498D02*
X020727Y033498D01*
X020727Y033302D02*
X020884Y033302D01*
X020884Y033105D02*
X020727Y033105D01*
X020727Y032908D02*
X020884Y032908D01*
X020884Y032711D02*
X020727Y032711D01*
X020589Y032573D02*
X020589Y032416D01*
X020392Y032416D02*
X020392Y032573D01*
X020195Y032573D02*
X020195Y032416D01*
X019998Y032416D02*
X019998Y032573D01*
X019802Y032573D02*
X019802Y032416D01*
X019605Y032416D02*
X019605Y032573D01*
X019408Y032573D02*
X019408Y032416D01*
D26*
X019900Y033400D03*
D27*
X019363Y029465D03*
X019363Y028835D03*
X020937Y028835D03*
X020937Y029465D03*
D28*
X021264Y030697D03*
X020536Y030697D03*
X020536Y031603D03*
X021264Y031603D03*
D29*
X020546Y036347D03*
D30*
X021373Y036248D03*
D31*
X018122Y028150D03*
X017650Y028150D03*
X017178Y028150D03*
D32*
X017580Y029650D03*
X017900Y029650D03*
X018220Y029650D03*
X017850Y035150D03*
X017450Y035150D03*
M02*
