G75*
%MOIN*%
%OFA0B0*%
%FSLAX24Y24*%
%IPPOS*%
%LPD*%
%AMOC8*
5,1,8,0,0,1.08239X$1,22.5*
%
%ADD10C,0.0552*%
%ADD11R,0.0474X0.0513*%
%ADD12C,0.0500*%
%ADD13C,0.0474*%
%ADD14R,0.0474X0.0474*%
%ADD15R,0.0513X0.0474*%
%ADD16R,0.0474X0.0552*%
%ADD17R,0.0390X0.0430*%
%ADD18R,0.0828X0.1419*%
%ADD19R,0.0700X0.0700*%
%ADD20C,0.0700*%
%ADD21R,0.0946X0.0356*%
%ADD22R,0.0560X0.0960*%
%ADD23R,0.1497X0.0946*%
%ADD24R,0.0671X0.0671*%
D10*
X016150Y016150D03*
X022150Y016150D03*
X022150Y034150D03*
X016150Y034150D03*
D11*
X019250Y033835D03*
X019250Y033165D03*
X020450Y033165D03*
X020450Y033835D03*
X017050Y028135D03*
X017050Y027465D03*
X017900Y025235D03*
X017900Y024565D03*
X019900Y021735D03*
X019900Y021065D03*
X020900Y021065D03*
X020900Y021735D03*
X020900Y018735D03*
X020900Y018065D03*
X020565Y027400D03*
X021235Y027400D03*
D12*
X016758Y033550D02*
X016760Y033573D01*
X016766Y033596D01*
X016775Y033618D01*
X016788Y033637D01*
X016804Y033654D01*
X016822Y033669D01*
X016843Y033680D01*
X016865Y033688D01*
X016888Y033692D01*
X016912Y033692D01*
X016935Y033688D01*
X016957Y033680D01*
X016978Y033669D01*
X016996Y033654D01*
X017012Y033637D01*
X017025Y033618D01*
X017034Y033596D01*
X017040Y033573D01*
X017042Y033550D01*
X017040Y033527D01*
X017034Y033504D01*
X017025Y033482D01*
X017012Y033463D01*
X016996Y033446D01*
X016978Y033431D01*
X016957Y033420D01*
X016935Y033412D01*
X016912Y033408D01*
X016888Y033408D01*
X016865Y033412D01*
X016843Y033420D01*
X016822Y033431D01*
X016804Y033446D01*
X016788Y033463D01*
X016775Y033482D01*
X016766Y033504D01*
X016760Y033527D01*
X016758Y033550D01*
D13*
X016900Y033550D03*
X018284Y017494D03*
X020016Y017494D03*
D14*
X019400Y018006D03*
X019400Y018794D03*
X018650Y018794D03*
X018650Y018006D03*
D15*
X017735Y016400D03*
X017065Y016400D03*
X020150Y018065D03*
X020150Y018735D03*
X020900Y028815D03*
X020900Y029485D03*
X021150Y030315D03*
X021150Y030985D03*
X019235Y030150D03*
X018565Y030150D03*
X017985Y034000D03*
X017315Y034000D03*
D16*
X017650Y028083D03*
X017650Y027217D03*
D17*
X020260Y020200D03*
X021020Y020200D03*
X020640Y019400D03*
D18*
X020718Y016600D03*
X019182Y016600D03*
D19*
X016150Y033150D03*
D20*
X016150Y032150D03*
X016150Y031150D03*
X016150Y030150D03*
X016150Y029150D03*
X016150Y028150D03*
X016150Y027150D03*
X016150Y026150D03*
X016150Y025150D03*
X016150Y024150D03*
X016150Y023150D03*
X016150Y022150D03*
X016150Y021150D03*
X016150Y020150D03*
X016150Y019150D03*
X016150Y018150D03*
X016150Y017150D03*
X022150Y017150D03*
X022150Y018150D03*
X022150Y019150D03*
X022150Y020150D03*
X022150Y021150D03*
X022150Y022150D03*
X022150Y023150D03*
X022150Y024150D03*
X022150Y025150D03*
X022150Y026150D03*
X022150Y027150D03*
X022150Y028150D03*
X022150Y029150D03*
X022150Y030150D03*
X022150Y031150D03*
X022150Y032150D03*
X022150Y033150D03*
D21*
X019533Y032400D03*
X019533Y031900D03*
X019533Y031400D03*
X019533Y030900D03*
X017367Y030900D03*
X017367Y031400D03*
X017367Y031900D03*
X017367Y032400D03*
D22*
X018690Y023430D03*
X019600Y023430D03*
X020510Y023430D03*
X019060Y022120D03*
X018150Y022120D03*
X017240Y022120D03*
D23*
X018150Y019680D03*
X019600Y025870D03*
D24*
X017650Y035900D03*
M02*
