G75*
%MOIN*%
%OFA0B0*%
%FSLAX24Y24*%
%IPPOS*%
%LPD*%
%AMOC8*
5,1,8,0,0,1.08239X$1,22.5*
%
%ADD10C,0.0540*%
%ADD11C,0.0270*%
%ADD12C,0.0060*%
%ADD13C,0.0070*%
%ADD14C,0.0120*%
%ADD15C,0.0080*%
%ADD16C,0.0160*%
D10*
X016150Y017150D03*
X016150Y018150D03*
X016150Y019150D03*
X016150Y020150D03*
X016150Y021150D03*
X016150Y022150D03*
X016150Y023150D03*
X016150Y024150D03*
X016150Y025150D03*
X016150Y026150D03*
X016150Y027150D03*
X016150Y028150D03*
X016150Y029150D03*
X016150Y030150D03*
X016150Y031150D03*
X016150Y032150D03*
X016150Y033150D03*
X022150Y033150D03*
X022150Y032150D03*
X022150Y031150D03*
X022150Y030150D03*
X022150Y029150D03*
X022150Y028150D03*
X022150Y027150D03*
X022150Y026150D03*
X022150Y025150D03*
X022150Y024150D03*
X022150Y023150D03*
X022150Y022150D03*
X022150Y021150D03*
X022150Y020150D03*
X022150Y019150D03*
X022150Y018150D03*
X022150Y017150D03*
D11*
X021350Y017400D03*
X020100Y016650D03*
X019400Y017550D03*
X018900Y017550D03*
X020050Y019450D03*
X019475Y019575D03*
X018900Y020550D03*
X018500Y020550D03*
X018650Y021150D03*
X017850Y020650D03*
X017650Y021450D03*
X017100Y019650D03*
X017200Y019250D03*
X017050Y017450D03*
X020300Y021700D03*
X020650Y022200D03*
X020150Y022600D03*
X019150Y023400D03*
X017900Y023400D03*
X018000Y023900D03*
X017600Y023900D03*
X017150Y023900D03*
X017150Y023400D03*
X016900Y024400D03*
X016650Y024650D03*
X017150Y025400D03*
X017150Y025800D03*
X016650Y025900D03*
X017150Y026400D03*
X017150Y026900D03*
X016400Y026650D03*
X017400Y028800D03*
X016900Y030150D03*
X017950Y030450D03*
X018350Y031100D03*
X018050Y031400D03*
X018050Y031900D03*
X018050Y032400D03*
X018550Y032300D03*
X018900Y032200D03*
X018700Y031650D03*
X018900Y031000D03*
X018600Y030600D03*
X018900Y029650D03*
X018900Y029150D03*
X018900Y028800D03*
X019400Y028150D03*
X019800Y028150D03*
X020100Y027750D03*
X019450Y027650D03*
X018900Y027350D03*
X018450Y027850D03*
X018150Y026850D03*
X020150Y027000D03*
X020550Y026450D03*
X020900Y026100D03*
X021350Y026200D03*
X021400Y025750D03*
X021150Y025350D03*
X021400Y025050D03*
X021400Y024650D03*
X021000Y024650D03*
X021400Y023100D03*
X021300Y019700D03*
X021900Y026650D03*
X020900Y027850D03*
X020400Y028800D03*
X020100Y028800D03*
X020050Y029550D03*
X020050Y029850D03*
X020450Y029500D03*
X021500Y029650D03*
X021900Y029650D03*
X021900Y031650D03*
X021200Y032550D03*
X021150Y032900D03*
X020850Y032350D03*
X020300Y032100D03*
X020050Y033250D03*
X020050Y033550D03*
X019750Y033550D03*
X019750Y033250D03*
X019850Y034650D03*
X019400Y034650D03*
X018750Y034600D03*
X018400Y034306D03*
X018400Y033700D03*
X018350Y033000D03*
X017150Y033000D03*
X016750Y034050D03*
X016750Y034550D03*
X016500Y034800D03*
X018150Y035900D03*
X018650Y036000D03*
X018650Y035750D03*
X018650Y035500D03*
X018650Y035250D03*
X020100Y036150D03*
X020950Y036150D03*
X020950Y035800D03*
X020950Y035450D03*
X021350Y036100D03*
X021650Y035000D03*
X020900Y034650D03*
X021150Y033650D03*
X021950Y033650D03*
D12*
X021150Y030650D02*
X018900Y032900D01*
X018900Y034200D01*
X019400Y034700D01*
X019400Y034650D01*
X018750Y033956D02*
X018400Y034306D01*
X018750Y033956D02*
X018750Y032800D01*
X020900Y030650D01*
X020900Y030250D01*
X021500Y029650D01*
X021900Y029650D02*
X021150Y030400D01*
X021150Y030650D01*
X022150Y029150D02*
X018900Y029150D01*
X016150Y029150D01*
X016150Y031150D02*
X017400Y032400D01*
X018050Y032400D01*
X016900Y024400D02*
X016900Y024300D01*
X016150Y023550D01*
X016150Y023150D01*
X016600Y022600D02*
X016600Y023750D01*
X017100Y024250D01*
X018050Y024250D01*
X018400Y023900D01*
X018400Y022900D01*
X019150Y022150D01*
X020600Y022150D01*
X020650Y022200D01*
X016600Y022600D02*
X016150Y022150D01*
D13*
X016750Y021750D02*
X016150Y021150D01*
X016900Y020900D02*
X016150Y020150D01*
X017050Y020050D02*
X016150Y019150D01*
X017050Y020050D02*
X017050Y022700D01*
X017550Y023200D01*
X017550Y023450D01*
X018000Y023900D01*
X017600Y023900D02*
X017400Y023700D01*
X017400Y023250D01*
X016900Y022750D01*
X016900Y020900D01*
X016750Y021750D02*
X016750Y023500D01*
X017150Y023900D01*
D14*
X021000Y024550D02*
X021250Y024300D01*
X021550Y024300D01*
X021700Y024450D01*
X021700Y026400D01*
X021600Y026500D01*
X021600Y027600D01*
X022150Y028150D01*
X021000Y024650D02*
X021000Y024550D01*
D15*
X015900Y016745D02*
X015900Y016517D01*
X015903Y016520D01*
X016063Y016586D01*
X016237Y016586D01*
X016397Y016520D01*
X016520Y016397D01*
X016586Y016237D01*
X016586Y016063D01*
X016520Y015903D01*
X016517Y015900D01*
X021783Y015900D01*
X021780Y015903D01*
X021714Y016063D01*
X021714Y016237D01*
X021780Y016397D01*
X021903Y016520D01*
X022063Y016586D01*
X022237Y016586D01*
X022397Y016520D01*
X022400Y016517D01*
X022400Y016745D01*
X022243Y016680D01*
X022057Y016680D01*
X021884Y016752D01*
X021752Y016884D01*
X021680Y017057D01*
X021680Y017243D01*
X021752Y017416D01*
X021884Y017548D01*
X022057Y017620D01*
X022243Y017620D01*
X022400Y017555D01*
X022400Y017745D01*
X022243Y017680D01*
X022057Y017680D01*
X021884Y017752D01*
X021752Y017884D01*
X021680Y018057D01*
X021680Y018243D01*
X021752Y018416D01*
X021884Y018548D01*
X022057Y018620D01*
X022243Y018620D01*
X022400Y018555D01*
X022400Y018745D01*
X022243Y018680D01*
X022057Y018680D01*
X021884Y018752D01*
X021752Y018884D01*
X021680Y019057D01*
X021680Y019243D01*
X021752Y019416D01*
X021884Y019548D01*
X022057Y019620D01*
X022243Y019620D01*
X022400Y019555D01*
X022400Y019745D01*
X022243Y019680D01*
X022057Y019680D01*
X021884Y019752D01*
X021752Y019884D01*
X021680Y020057D01*
X021680Y020243D01*
X021752Y020416D01*
X021884Y020548D01*
X022057Y020620D01*
X022243Y020620D01*
X022400Y020555D01*
X022400Y020745D01*
X022243Y020680D01*
X022057Y020680D01*
X021884Y020752D01*
X021752Y020884D01*
X021680Y021057D01*
X021680Y021243D01*
X021752Y021416D01*
X021884Y021548D01*
X022057Y021620D01*
X022243Y021620D01*
X022400Y021555D01*
X022400Y021745D01*
X022243Y021680D01*
X022057Y021680D01*
X021884Y021752D01*
X021752Y021884D01*
X021680Y022057D01*
X021680Y022243D01*
X021752Y022416D01*
X021884Y022548D01*
X022057Y022620D01*
X022243Y022620D01*
X022400Y022555D01*
X022400Y022745D01*
X022243Y022680D01*
X022057Y022680D01*
X021884Y022752D01*
X021752Y022884D01*
X021680Y023057D01*
X021680Y023243D01*
X021752Y023416D01*
X021884Y023548D01*
X022057Y023620D01*
X022243Y023620D01*
X022400Y023555D01*
X022400Y023745D01*
X022243Y023680D01*
X022057Y023680D01*
X021884Y023752D01*
X021752Y023884D01*
X021680Y024057D01*
X021680Y024072D01*
X021602Y024040D01*
X021198Y024040D01*
X021103Y024080D01*
X021030Y024153D01*
X020821Y024362D01*
X020810Y024366D01*
X020716Y024460D01*
X020665Y024583D01*
X020665Y024717D01*
X020687Y024770D01*
X018694Y024770D01*
X018591Y024813D01*
X017991Y025413D01*
X017913Y025491D01*
X017870Y025594D01*
X017870Y026656D01*
X017866Y026660D01*
X017815Y026783D01*
X017815Y026917D01*
X017866Y027040D01*
X017960Y027134D01*
X018083Y027185D01*
X018217Y027185D01*
X018340Y027134D01*
X018434Y027040D01*
X018485Y026917D01*
X018485Y026783D01*
X018434Y026660D01*
X018430Y026656D01*
X018430Y025766D01*
X018866Y025330D01*
X020815Y025330D01*
X020815Y025417D01*
X020866Y025540D01*
X020960Y025634D01*
X021067Y025678D01*
X021065Y025683D01*
X021065Y025806D01*
X020967Y025765D01*
X020833Y025765D01*
X020710Y025816D01*
X020616Y025910D01*
X020565Y026033D01*
X020565Y026167D01*
X020616Y026290D01*
X020710Y026384D01*
X020833Y026435D01*
X020967Y026435D01*
X021069Y026393D01*
X021160Y026484D01*
X021283Y026535D01*
X021340Y026535D01*
X021340Y027652D01*
X021380Y027747D01*
X021683Y028050D01*
X021680Y028057D01*
X021680Y028243D01*
X021752Y028416D01*
X021884Y028548D01*
X022057Y028620D01*
X022243Y028620D01*
X022400Y028555D01*
X022400Y028745D01*
X022243Y028680D01*
X022057Y028680D01*
X021884Y028752D01*
X021752Y028884D01*
X021737Y028920D01*
X019144Y028920D01*
X019090Y028866D01*
X018967Y028815D01*
X018833Y028815D01*
X018710Y028866D01*
X018656Y028920D01*
X016563Y028920D01*
X016548Y028884D01*
X016416Y028752D01*
X016243Y028680D01*
X016057Y028680D01*
X015900Y028745D01*
X015900Y028475D01*
X015935Y028501D01*
X015993Y028530D01*
X016054Y028550D01*
X016110Y028559D01*
X016110Y028190D01*
X016190Y028190D01*
X016190Y028559D01*
X016246Y028550D01*
X016307Y028530D01*
X016365Y028501D01*
X016417Y028463D01*
X016463Y028417D01*
X016501Y028365D01*
X016530Y028307D01*
X016550Y028246D01*
X016559Y028190D01*
X016190Y028190D01*
X016190Y028110D01*
X016559Y028110D01*
X016550Y028054D01*
X016530Y027993D01*
X016501Y027935D01*
X016463Y027883D01*
X016417Y027837D01*
X016365Y027799D01*
X016307Y027770D01*
X016246Y027750D01*
X016190Y027741D01*
X016190Y028110D01*
X016110Y028110D01*
X016110Y027741D01*
X016054Y027750D01*
X015993Y027770D01*
X015935Y027799D01*
X015900Y027825D01*
X015900Y027555D01*
X016057Y027620D01*
X016243Y027620D01*
X016416Y027548D01*
X016548Y027416D01*
X016620Y027243D01*
X016620Y027057D01*
X016548Y026884D01*
X016416Y026752D01*
X016243Y026680D01*
X016057Y026680D01*
X015900Y026745D01*
X015900Y026555D01*
X016057Y026620D01*
X016243Y026620D01*
X016416Y026548D01*
X016548Y026416D01*
X016620Y026243D01*
X016620Y026235D01*
X016717Y026235D01*
X016840Y026184D01*
X016934Y026090D01*
X016943Y026067D01*
X016960Y026084D01*
X016999Y026100D01*
X016960Y026116D01*
X016866Y026210D01*
X016815Y026333D01*
X016815Y026467D01*
X016866Y026590D01*
X016926Y026650D01*
X016866Y026710D01*
X016815Y026833D01*
X016815Y026967D01*
X016866Y027090D01*
X016960Y027184D01*
X017083Y027235D01*
X017217Y027235D01*
X017340Y027184D01*
X017434Y027090D01*
X017485Y026967D01*
X017485Y026833D01*
X017434Y026710D01*
X017374Y026650D01*
X017434Y026590D01*
X017485Y026467D01*
X017485Y026333D01*
X017434Y026210D01*
X017340Y026116D01*
X017301Y026100D01*
X017340Y026084D01*
X017434Y025990D01*
X017485Y025867D01*
X017485Y025733D01*
X017434Y025610D01*
X017424Y025600D01*
X017434Y025590D01*
X017485Y025467D01*
X017485Y025333D01*
X017434Y025210D01*
X017340Y025116D01*
X017217Y025065D01*
X017083Y025065D01*
X016960Y025116D01*
X016866Y025210D01*
X016815Y025333D01*
X016815Y025467D01*
X016866Y025590D01*
X016876Y025600D01*
X016866Y025610D01*
X016857Y025633D01*
X016840Y025616D01*
X016717Y025565D01*
X016583Y025565D01*
X016460Y025616D01*
X016366Y025710D01*
X016359Y025728D01*
X016243Y025680D01*
X016057Y025680D01*
X015900Y025745D01*
X015900Y025555D01*
X016057Y025620D01*
X016243Y025620D01*
X016416Y025548D01*
X016548Y025416D01*
X016620Y025243D01*
X016620Y025057D01*
X016590Y024985D01*
X016717Y024985D01*
X016840Y024934D01*
X016934Y024840D01*
X016980Y024730D01*
X017090Y024684D01*
X017184Y024590D01*
X017229Y024480D01*
X018145Y024480D01*
X018495Y024130D01*
X018630Y023995D01*
X018630Y022995D01*
X019245Y022380D01*
X020362Y022380D01*
X020366Y022390D01*
X020460Y022484D01*
X020583Y022535D01*
X020717Y022535D01*
X020840Y022484D01*
X020934Y022390D01*
X020985Y022267D01*
X020985Y022133D01*
X020934Y022010D01*
X020840Y021916D01*
X020717Y021865D01*
X020583Y021865D01*
X020460Y021916D01*
X020456Y021920D01*
X019055Y021920D01*
X018920Y022055D01*
X018170Y022805D01*
X018170Y023196D01*
X018090Y023116D01*
X017967Y023065D01*
X017833Y023065D01*
X017773Y023090D01*
X017285Y022603D01*
X017285Y019953D01*
X017147Y019815D01*
X017147Y019815D01*
X016607Y019275D01*
X016620Y019243D01*
X016620Y019057D01*
X016548Y018884D01*
X016416Y018752D01*
X016243Y018680D01*
X016057Y018680D01*
X015900Y018745D01*
X015900Y018555D01*
X016057Y018620D01*
X016243Y018620D01*
X016416Y018548D01*
X016548Y018416D01*
X016620Y018243D01*
X016620Y018057D01*
X016548Y017884D01*
X016416Y017752D01*
X016243Y017680D01*
X016057Y017680D01*
X015900Y017745D01*
X015900Y017555D01*
X016057Y017620D01*
X016243Y017620D01*
X016416Y017548D01*
X016548Y017416D01*
X016620Y017243D01*
X016620Y017057D01*
X016548Y016884D01*
X016416Y016752D01*
X016243Y016680D01*
X016057Y016680D01*
X015900Y016745D01*
X015900Y016671D02*
X022400Y016671D01*
X022400Y016592D02*
X015900Y016592D01*
X016403Y016514D02*
X021897Y016514D01*
X021818Y016435D02*
X016482Y016435D01*
X016537Y016357D02*
X021763Y016357D01*
X021731Y016278D02*
X016569Y016278D01*
X016586Y016200D02*
X021714Y016200D01*
X021714Y016121D02*
X016586Y016121D01*
X016578Y016043D02*
X021722Y016043D01*
X021755Y015964D02*
X016545Y015964D01*
X016410Y016749D02*
X021890Y016749D01*
X021808Y016828D02*
X016492Y016828D01*
X016558Y016906D02*
X021742Y016906D01*
X021710Y016985D02*
X016590Y016985D01*
X016620Y017063D02*
X021680Y017063D01*
X021680Y017142D02*
X020203Y017142D01*
X020241Y017157D02*
X020353Y017269D01*
X020413Y017415D01*
X020413Y017573D01*
X020353Y017718D01*
X020241Y017830D01*
X020095Y017891D01*
X019937Y017891D01*
X019791Y017830D01*
X019689Y017728D01*
X019684Y017740D01*
X019590Y017834D01*
X019467Y017885D01*
X019333Y017885D01*
X019210Y017834D01*
X019150Y017774D01*
X019090Y017834D01*
X018967Y017885D01*
X018833Y017885D01*
X018710Y017834D01*
X018616Y017740D01*
X018611Y017728D01*
X018509Y017830D01*
X018363Y017891D01*
X018205Y017891D01*
X018059Y017830D01*
X017947Y017718D01*
X017887Y017573D01*
X017887Y017415D01*
X017947Y017269D01*
X018059Y017157D01*
X018205Y017097D01*
X018363Y017097D01*
X018509Y017157D01*
X018620Y017269D01*
X018646Y017330D01*
X018710Y017266D01*
X018833Y017215D01*
X018967Y017215D01*
X019090Y017266D01*
X019150Y017326D01*
X019210Y017266D01*
X019333Y017215D01*
X019467Y017215D01*
X019590Y017266D01*
X019654Y017330D01*
X019680Y017269D01*
X019791Y017157D01*
X019937Y017097D01*
X020095Y017097D01*
X020241Y017157D01*
X020304Y017220D02*
X021680Y017220D01*
X021703Y017299D02*
X020365Y017299D01*
X020397Y017377D02*
X021735Y017377D01*
X021791Y017456D02*
X020413Y017456D01*
X020413Y017534D02*
X021869Y017534D01*
X022038Y017613D02*
X020396Y017613D01*
X020364Y017691D02*
X022030Y017691D01*
X021866Y017770D02*
X020302Y017770D01*
X020198Y017848D02*
X021787Y017848D01*
X021734Y017927D02*
X016566Y017927D01*
X016599Y018005D02*
X021701Y018005D01*
X021680Y018084D02*
X016620Y018084D01*
X016620Y018162D02*
X021680Y018162D01*
X021680Y018241D02*
X016620Y018241D01*
X016589Y018319D02*
X021711Y018319D01*
X021744Y018398D02*
X016556Y018398D01*
X016489Y018476D02*
X021811Y018476D01*
X021898Y018555D02*
X016402Y018555D01*
X016320Y018712D02*
X021980Y018712D01*
X021845Y018790D02*
X016455Y018790D01*
X016533Y018869D02*
X021767Y018869D01*
X021725Y018947D02*
X017344Y018947D01*
X017390Y018966D02*
X017484Y019060D01*
X017535Y019183D01*
X017535Y019317D01*
X017484Y019440D01*
X017390Y019534D01*
X017267Y019585D01*
X017133Y019585D01*
X017010Y019534D01*
X016916Y019440D01*
X016865Y019317D01*
X016865Y019183D01*
X016916Y019060D01*
X017010Y018966D01*
X017133Y018915D01*
X017267Y018915D01*
X017390Y018966D01*
X017449Y019026D02*
X021693Y019026D01*
X021680Y019104D02*
X017502Y019104D01*
X017535Y019183D02*
X021680Y019183D01*
X021687Y019261D02*
X019592Y019261D01*
X019542Y019240D02*
X019665Y019291D01*
X019759Y019385D01*
X019810Y019508D01*
X019810Y019642D01*
X019759Y019765D01*
X019665Y019859D01*
X019542Y019910D01*
X019408Y019910D01*
X019285Y019859D01*
X019191Y019765D01*
X019140Y019642D01*
X019140Y019508D01*
X019191Y019385D01*
X019285Y019291D01*
X019408Y019240D01*
X019542Y019240D01*
X019358Y019261D02*
X017535Y019261D01*
X017526Y019340D02*
X019237Y019340D01*
X019177Y019418D02*
X017493Y019418D01*
X017427Y019497D02*
X019145Y019497D01*
X019140Y019575D02*
X017291Y019575D01*
X017109Y019575D02*
X016907Y019575D01*
X016973Y019497D02*
X016829Y019497D01*
X016750Y019418D02*
X016907Y019418D01*
X016874Y019340D02*
X016672Y019340D01*
X016613Y019261D02*
X016865Y019261D01*
X016865Y019183D02*
X016620Y019183D01*
X016620Y019104D02*
X016898Y019104D01*
X016951Y019026D02*
X016607Y019026D01*
X016575Y018947D02*
X017056Y018947D01*
X016986Y019654D02*
X019145Y019654D01*
X019177Y019732D02*
X017064Y019732D01*
X017143Y019811D02*
X019237Y019811D01*
X019358Y019889D02*
X017221Y019889D01*
X017285Y019968D02*
X021717Y019968D01*
X021684Y020046D02*
X017285Y020046D01*
X017285Y020125D02*
X021680Y020125D01*
X021680Y020203D02*
X017285Y020203D01*
X017285Y020282D02*
X018295Y020282D01*
X018310Y020266D02*
X018433Y020215D01*
X018567Y020215D01*
X018690Y020266D01*
X018700Y020276D01*
X018710Y020266D01*
X018833Y020215D01*
X018967Y020215D01*
X019090Y020266D01*
X019184Y020360D01*
X021728Y020360D01*
X021696Y020282D02*
X019105Y020282D01*
X019184Y020360D02*
X019235Y020483D01*
X019235Y020617D01*
X019184Y020740D01*
X019090Y020834D01*
X018967Y020885D01*
X018859Y020885D01*
X018934Y020960D01*
X018985Y021083D01*
X018985Y021217D01*
X018934Y021340D01*
X018840Y021434D01*
X018717Y021485D01*
X018583Y021485D01*
X018460Y021434D01*
X018366Y021340D01*
X018315Y021217D01*
X018315Y021083D01*
X018366Y020960D01*
X018441Y020885D01*
X018433Y020885D01*
X018310Y020834D01*
X018216Y020740D01*
X018165Y020617D01*
X018165Y020483D01*
X018216Y020360D01*
X017285Y020360D01*
X017285Y020439D02*
X018184Y020439D01*
X018165Y020517D02*
X017285Y020517D01*
X017285Y020596D02*
X018165Y020596D01*
X018189Y020674D02*
X017285Y020674D01*
X017285Y020753D02*
X018229Y020753D01*
X018307Y020831D02*
X017285Y020831D01*
X017285Y020910D02*
X018417Y020910D01*
X018354Y020988D02*
X017285Y020988D01*
X017285Y021067D02*
X018322Y021067D01*
X018315Y021145D02*
X017285Y021145D01*
X017285Y021224D02*
X018318Y021224D01*
X018350Y021302D02*
X017285Y021302D01*
X017285Y021381D02*
X018407Y021381D01*
X018521Y021459D02*
X017285Y021459D01*
X017285Y021538D02*
X021873Y021538D01*
X021794Y021459D02*
X018779Y021459D01*
X018893Y021381D02*
X021737Y021381D01*
X021704Y021302D02*
X018950Y021302D01*
X018982Y021224D02*
X021680Y021224D01*
X021680Y021145D02*
X018985Y021145D01*
X018978Y021067D02*
X021680Y021067D01*
X021708Y020988D02*
X018946Y020988D01*
X018883Y020910D02*
X021741Y020910D01*
X021804Y020831D02*
X019093Y020831D01*
X019171Y020753D02*
X021883Y020753D01*
X021997Y020596D02*
X019235Y020596D01*
X019235Y020517D02*
X021852Y020517D01*
X021774Y020439D02*
X019216Y020439D01*
X019211Y020674D02*
X022400Y020674D01*
X022400Y020596D02*
X022303Y020596D01*
X022369Y019732D02*
X022400Y019732D01*
X022400Y019654D02*
X019805Y019654D01*
X019810Y019575D02*
X021948Y019575D01*
X021832Y019497D02*
X019805Y019497D01*
X019773Y019418D02*
X021753Y019418D01*
X021720Y019340D02*
X019713Y019340D01*
X019773Y019732D02*
X021931Y019732D01*
X021825Y019811D02*
X019713Y019811D01*
X019592Y019889D02*
X021749Y019889D01*
X022352Y019575D02*
X022400Y019575D01*
X022400Y018712D02*
X022320Y018712D01*
X022400Y018633D02*
X015900Y018633D01*
X015900Y018712D02*
X015980Y018712D01*
X016513Y017848D02*
X018102Y017848D01*
X017998Y017770D02*
X016434Y017770D01*
X016270Y017691D02*
X017936Y017691D01*
X017904Y017613D02*
X016262Y017613D01*
X016431Y017534D02*
X017887Y017534D01*
X017887Y017456D02*
X016509Y017456D01*
X016565Y017377D02*
X017903Y017377D01*
X017935Y017299D02*
X016597Y017299D01*
X016620Y017220D02*
X017996Y017220D01*
X018097Y017142D02*
X016620Y017142D01*
X016038Y017613D02*
X015900Y017613D01*
X015900Y017691D02*
X016030Y017691D01*
X018310Y020266D02*
X018216Y020360D01*
X017285Y021616D02*
X022047Y021616D01*
X022021Y021695D02*
X017285Y021695D01*
X017285Y021773D02*
X021862Y021773D01*
X021784Y021852D02*
X017285Y021852D01*
X017285Y021930D02*
X019045Y021930D01*
X018966Y022009D02*
X017285Y022009D01*
X017285Y022087D02*
X018888Y022087D01*
X018809Y022166D02*
X017285Y022166D01*
X017285Y022244D02*
X018731Y022244D01*
X018652Y022323D02*
X017285Y022323D01*
X017285Y022401D02*
X018574Y022401D01*
X018495Y022480D02*
X017285Y022480D01*
X017285Y022558D02*
X018417Y022558D01*
X018338Y022637D02*
X017319Y022637D01*
X017397Y022715D02*
X018260Y022715D01*
X018181Y022794D02*
X017476Y022794D01*
X017554Y022872D02*
X018170Y022872D01*
X018170Y022951D02*
X017633Y022951D01*
X017711Y023029D02*
X018170Y023029D01*
X018170Y023108D02*
X018069Y023108D01*
X018160Y023186D02*
X018170Y023186D01*
X018630Y023186D02*
X018890Y023186D01*
X018866Y023210D02*
X018960Y023116D01*
X019083Y023065D01*
X019217Y023065D01*
X019340Y023116D01*
X019434Y023210D01*
X019485Y023333D01*
X019485Y023467D01*
X019434Y023590D01*
X019340Y023684D01*
X019217Y023735D01*
X019083Y023735D01*
X018960Y023684D01*
X018866Y023590D01*
X018815Y023467D01*
X018815Y023333D01*
X018866Y023210D01*
X018844Y023265D02*
X018630Y023265D01*
X018630Y023343D02*
X018815Y023343D01*
X018815Y023422D02*
X018630Y023422D01*
X018630Y023500D02*
X018829Y023500D01*
X018861Y023579D02*
X018630Y023579D01*
X018630Y023657D02*
X018933Y023657D01*
X018630Y023736D02*
X021922Y023736D01*
X021821Y023814D02*
X018630Y023814D01*
X018630Y023893D02*
X021748Y023893D01*
X021715Y023971D02*
X018630Y023971D01*
X018576Y024050D02*
X021175Y024050D01*
X021054Y024128D02*
X018497Y024128D01*
X018419Y024207D02*
X020976Y024207D01*
X020897Y024285D02*
X018340Y024285D01*
X018262Y024364D02*
X020816Y024364D01*
X020734Y024442D02*
X018183Y024442D01*
X018569Y024835D02*
X016936Y024835D01*
X016969Y024756D02*
X020681Y024756D01*
X020665Y024678D02*
X017096Y024678D01*
X017175Y024599D02*
X020665Y024599D01*
X020691Y024521D02*
X017213Y024521D01*
X016861Y024913D02*
X018491Y024913D01*
X018412Y024992D02*
X016593Y024992D01*
X016620Y025070D02*
X017071Y025070D01*
X017229Y025070D02*
X018334Y025070D01*
X018255Y025149D02*
X017372Y025149D01*
X017441Y025227D02*
X018177Y025227D01*
X018098Y025306D02*
X017473Y025306D01*
X017485Y025384D02*
X018020Y025384D01*
X017941Y025463D02*
X017485Y025463D01*
X017454Y025541D02*
X017892Y025541D01*
X017870Y025620D02*
X017438Y025620D01*
X017470Y025698D02*
X017870Y025698D01*
X017870Y025777D02*
X017485Y025777D01*
X017485Y025855D02*
X017870Y025855D01*
X017870Y025934D02*
X017457Y025934D01*
X017412Y026012D02*
X017870Y026012D01*
X017870Y026091D02*
X017324Y026091D01*
X017393Y026169D02*
X017870Y026169D01*
X017870Y026248D02*
X017449Y026248D01*
X017482Y026326D02*
X017870Y026326D01*
X017870Y026405D02*
X017485Y026405D01*
X017478Y026483D02*
X017870Y026483D01*
X017870Y026562D02*
X017446Y026562D01*
X017384Y026640D02*
X017870Y026640D01*
X017842Y026719D02*
X017437Y026719D01*
X017470Y026797D02*
X017815Y026797D01*
X017815Y026876D02*
X017485Y026876D01*
X017485Y026954D02*
X017830Y026954D01*
X017863Y027033D02*
X017458Y027033D01*
X017413Y027111D02*
X017937Y027111D01*
X018363Y027111D02*
X018665Y027111D01*
X018710Y027066D02*
X018833Y027015D01*
X018967Y027015D01*
X019090Y027066D01*
X019184Y027160D01*
X019235Y027283D01*
X019235Y027391D01*
X019260Y027366D01*
X019383Y027315D01*
X019517Y027315D01*
X019640Y027366D01*
X019734Y027460D01*
X019785Y027583D01*
X019785Y027635D01*
X019816Y027560D01*
X019910Y027466D01*
X020033Y027415D01*
X020167Y027415D01*
X020290Y027466D01*
X020384Y027560D01*
X020435Y027683D01*
X020435Y027817D01*
X020384Y027940D01*
X020290Y028034D01*
X020167Y028085D01*
X020135Y028085D01*
X020135Y028217D01*
X020084Y028340D01*
X019990Y028434D01*
X019867Y028485D01*
X019733Y028485D01*
X019610Y028434D01*
X019600Y028424D01*
X019590Y028434D01*
X019467Y028485D01*
X019333Y028485D01*
X019210Y028434D01*
X019116Y028340D01*
X019065Y028217D01*
X019065Y028083D01*
X019116Y027960D01*
X019201Y027875D01*
X019166Y027840D01*
X019115Y027717D01*
X019115Y027609D01*
X019090Y027634D01*
X018967Y027685D01*
X018833Y027685D01*
X018710Y027634D01*
X018616Y027540D01*
X018565Y027417D01*
X018565Y027283D01*
X018616Y027160D01*
X018710Y027066D01*
X018791Y027033D02*
X018437Y027033D01*
X018470Y026954D02*
X019815Y026954D01*
X019815Y026933D02*
X019866Y026810D01*
X019960Y026716D01*
X020083Y026665D01*
X020217Y026665D01*
X020340Y026716D01*
X020434Y026810D01*
X020485Y026933D01*
X020485Y027067D01*
X020434Y027190D01*
X020340Y027284D01*
X020217Y027335D01*
X020083Y027335D01*
X019960Y027284D01*
X019866Y027190D01*
X019815Y027067D01*
X019815Y026933D01*
X019839Y026876D02*
X018485Y026876D01*
X018485Y026797D02*
X019879Y026797D01*
X019958Y026719D02*
X018458Y026719D01*
X018430Y026640D02*
X021340Y026640D01*
X021340Y026562D02*
X018430Y026562D01*
X018430Y026483D02*
X021159Y026483D01*
X021081Y026405D02*
X021040Y026405D01*
X020760Y026405D02*
X018430Y026405D01*
X018430Y026326D02*
X020652Y026326D01*
X020599Y026248D02*
X018430Y026248D01*
X018430Y026169D02*
X020566Y026169D01*
X020565Y026091D02*
X018430Y026091D01*
X018430Y026012D02*
X020574Y026012D01*
X020606Y025934D02*
X018430Y025934D01*
X018430Y025855D02*
X020671Y025855D01*
X020806Y025777D02*
X018430Y025777D01*
X018498Y025698D02*
X021065Y025698D01*
X021065Y025777D02*
X020994Y025777D01*
X020946Y025620D02*
X018576Y025620D01*
X018655Y025541D02*
X020867Y025541D01*
X020834Y025463D02*
X018733Y025463D01*
X018812Y025384D02*
X020815Y025384D01*
X021625Y024050D02*
X021683Y024050D01*
X021956Y023579D02*
X019439Y023579D01*
X019471Y023500D02*
X021835Y023500D01*
X021757Y023422D02*
X019485Y023422D01*
X019485Y023343D02*
X021721Y023343D01*
X021689Y023265D02*
X019456Y023265D01*
X019410Y023186D02*
X021680Y023186D01*
X021680Y023108D02*
X019319Y023108D01*
X018981Y023108D02*
X018630Y023108D01*
X018630Y023029D02*
X021691Y023029D01*
X021724Y022951D02*
X018675Y022951D01*
X018753Y022872D02*
X021763Y022872D01*
X021842Y022794D02*
X018832Y022794D01*
X018910Y022715D02*
X021972Y022715D01*
X021907Y022558D02*
X019067Y022558D01*
X018989Y022637D02*
X022400Y022637D01*
X022400Y022715D02*
X022328Y022715D01*
X022393Y022558D02*
X022400Y022558D01*
X021815Y022480D02*
X020844Y022480D01*
X020923Y022401D02*
X021745Y022401D01*
X021713Y022323D02*
X020962Y022323D01*
X020985Y022244D02*
X021680Y022244D01*
X021680Y022166D02*
X020985Y022166D01*
X020966Y022087D02*
X021680Y022087D01*
X021700Y022009D02*
X020932Y022009D01*
X020854Y021930D02*
X021732Y021930D01*
X022279Y021695D02*
X022400Y021695D01*
X022400Y021616D02*
X022253Y021616D01*
X022344Y023579D02*
X022400Y023579D01*
X022400Y023657D02*
X019367Y023657D01*
X019146Y022480D02*
X020456Y022480D01*
X020377Y022401D02*
X019224Y022401D01*
X016928Y025149D02*
X016620Y025149D01*
X016620Y025227D02*
X016859Y025227D01*
X016827Y025306D02*
X016594Y025306D01*
X016562Y025384D02*
X016815Y025384D01*
X016815Y025463D02*
X016502Y025463D01*
X016424Y025541D02*
X016846Y025541D01*
X016843Y025620D02*
X016862Y025620D01*
X016933Y026091D02*
X016976Y026091D01*
X016907Y026169D02*
X016855Y026169D01*
X016851Y026248D02*
X016618Y026248D01*
X016586Y026326D02*
X016818Y026326D01*
X016815Y026405D02*
X016553Y026405D01*
X016482Y026483D02*
X016822Y026483D01*
X016854Y026562D02*
X016385Y026562D01*
X016337Y026719D02*
X016863Y026719D01*
X016830Y026797D02*
X016462Y026797D01*
X016540Y026876D02*
X016815Y026876D01*
X016815Y026954D02*
X016578Y026954D01*
X016610Y027033D02*
X016842Y027033D01*
X016887Y027111D02*
X016620Y027111D01*
X016620Y027190D02*
X016974Y027190D01*
X017326Y027190D02*
X018604Y027190D01*
X018571Y027268D02*
X016610Y027268D01*
X016577Y027347D02*
X018565Y027347D01*
X018568Y027425D02*
X016540Y027425D01*
X016461Y027504D02*
X018601Y027504D01*
X018640Y027566D02*
X018734Y027660D01*
X018785Y027783D01*
X018785Y027917D01*
X018734Y028040D01*
X018640Y028134D01*
X018517Y028185D01*
X018383Y028185D01*
X018260Y028134D01*
X018166Y028040D01*
X018115Y027917D01*
X018115Y027783D01*
X018166Y027660D01*
X018260Y027566D01*
X018383Y027515D01*
X018517Y027515D01*
X018640Y027566D01*
X018656Y027582D02*
X018658Y027582D01*
X018734Y027661D02*
X018774Y027661D01*
X018767Y027739D02*
X019124Y027739D01*
X019115Y027661D02*
X019026Y027661D01*
X019157Y027818D02*
X018785Y027818D01*
X018785Y027896D02*
X019180Y027896D01*
X019110Y027975D02*
X018761Y027975D01*
X018721Y028053D02*
X019078Y028053D01*
X019065Y028132D02*
X018642Y028132D01*
X018258Y028132D02*
X016190Y028132D01*
X016190Y028210D02*
X016110Y028210D01*
X016110Y028289D02*
X016190Y028289D01*
X016190Y028367D02*
X016110Y028367D01*
X016110Y028446D02*
X016190Y028446D01*
X016190Y028524D02*
X016110Y028524D01*
X015981Y028524D02*
X015900Y028524D01*
X015900Y028603D02*
X022014Y028603D01*
X022054Y028681D02*
X016246Y028681D01*
X016319Y028524D02*
X021859Y028524D01*
X021781Y028446D02*
X019962Y028446D01*
X020057Y028367D02*
X021731Y028367D01*
X021699Y028289D02*
X020105Y028289D01*
X020135Y028210D02*
X021680Y028210D01*
X021680Y028132D02*
X020135Y028132D01*
X020244Y028053D02*
X021681Y028053D01*
X021607Y027975D02*
X020349Y027975D01*
X020402Y027896D02*
X021528Y027896D01*
X021450Y027818D02*
X020435Y027818D01*
X020435Y027739D02*
X021376Y027739D01*
X021344Y027661D02*
X020426Y027661D01*
X020393Y027582D02*
X021340Y027582D01*
X021340Y027504D02*
X020327Y027504D01*
X020191Y027425D02*
X021340Y027425D01*
X021340Y027347D02*
X019593Y027347D01*
X019699Y027425D02*
X020009Y027425D01*
X019873Y027504D02*
X019752Y027504D01*
X019784Y027582D02*
X019807Y027582D01*
X019944Y027268D02*
X019229Y027268D01*
X019235Y027347D02*
X019307Y027347D01*
X019196Y027190D02*
X019866Y027190D01*
X019833Y027111D02*
X019135Y027111D01*
X019009Y027033D02*
X019815Y027033D01*
X020356Y027268D02*
X021340Y027268D01*
X021340Y027190D02*
X020434Y027190D01*
X020467Y027111D02*
X021340Y027111D01*
X021340Y027033D02*
X020485Y027033D01*
X020485Y026954D02*
X021340Y026954D01*
X021340Y026876D02*
X020461Y026876D01*
X020421Y026797D02*
X021340Y026797D01*
X021340Y026719D02*
X020342Y026719D01*
X019638Y028446D02*
X019562Y028446D01*
X019238Y028446D02*
X016434Y028446D01*
X016499Y028367D02*
X019143Y028367D01*
X019095Y028289D02*
X016536Y028289D01*
X016556Y028210D02*
X019065Y028210D01*
X019022Y028838D02*
X021797Y028838D01*
X021738Y028917D02*
X019140Y028917D01*
X018778Y028838D02*
X016503Y028838D01*
X016562Y028917D02*
X018660Y028917D01*
X018656Y029380D02*
X016563Y029380D01*
X016548Y029416D01*
X016416Y029548D01*
X016243Y029620D01*
X016057Y029620D01*
X015900Y029555D01*
X015900Y029745D01*
X016057Y029680D01*
X016243Y029680D01*
X016416Y029752D01*
X016548Y029884D01*
X016598Y030004D01*
X016616Y029960D01*
X016710Y029866D01*
X016833Y029815D01*
X016967Y029815D01*
X017090Y029866D01*
X017184Y029960D01*
X017235Y030083D01*
X017235Y030217D01*
X017184Y030340D01*
X017090Y030434D01*
X016967Y030485D01*
X016833Y030485D01*
X016710Y030434D01*
X016616Y030340D01*
X016598Y030296D01*
X016548Y030416D01*
X016416Y030548D01*
X016243Y030620D01*
X016057Y030620D01*
X015900Y030555D01*
X015900Y030745D01*
X016057Y030680D01*
X016243Y030680D01*
X016416Y030752D01*
X016548Y030884D01*
X016620Y031057D01*
X016620Y031243D01*
X016605Y031280D01*
X017495Y032170D01*
X017806Y032170D01*
X017826Y032150D01*
X017766Y032090D01*
X017715Y031967D01*
X017715Y031833D01*
X017766Y031710D01*
X017826Y031650D01*
X017766Y031590D01*
X017715Y031467D01*
X017715Y031333D01*
X017766Y031210D01*
X017860Y031116D01*
X017983Y031065D01*
X018015Y031065D01*
X018015Y031033D01*
X018066Y030910D01*
X018160Y030816D01*
X018283Y030765D01*
X018417Y030765D01*
X018540Y030816D01*
X018592Y030868D01*
X018616Y030810D01*
X018710Y030716D01*
X018833Y030665D01*
X018967Y030665D01*
X019090Y030716D01*
X019184Y030810D01*
X019235Y030933D01*
X019235Y031067D01*
X019184Y031190D01*
X019090Y031284D01*
X018967Y031335D01*
X018833Y031335D01*
X018710Y031284D01*
X018658Y031232D01*
X018634Y031290D01*
X018591Y031332D01*
X018633Y031315D01*
X018767Y031315D01*
X018890Y031366D01*
X018984Y031460D01*
X019035Y031583D01*
X019035Y031717D01*
X018984Y031840D01*
X018959Y031865D01*
X018967Y031865D01*
X019090Y031916D01*
X019184Y032010D01*
X019193Y032032D01*
X020670Y030555D01*
X020670Y030155D01*
X020805Y030020D01*
X021165Y029660D01*
X021165Y029583D01*
X021216Y029460D01*
X021296Y029380D01*
X020763Y029380D01*
X020785Y029433D01*
X020785Y029567D01*
X020734Y029690D01*
X020640Y029784D01*
X020517Y029835D01*
X020383Y029835D01*
X020260Y029784D01*
X020166Y029690D01*
X020115Y029567D01*
X020115Y029433D01*
X020137Y029380D01*
X019144Y029380D01*
X019124Y029400D01*
X019184Y029460D01*
X019235Y029583D01*
X019235Y029717D01*
X019184Y029840D01*
X019090Y029934D01*
X018967Y029985D01*
X018833Y029985D01*
X018710Y029934D01*
X018616Y029840D01*
X018565Y029717D01*
X018565Y029583D01*
X018616Y029460D01*
X018676Y029400D01*
X018656Y029380D01*
X018664Y029388D02*
X016560Y029388D01*
X016499Y029466D02*
X018614Y029466D01*
X018581Y029545D02*
X016420Y029545D01*
X016296Y029702D02*
X018565Y029702D01*
X018565Y029623D02*
X015900Y029623D01*
X015900Y029702D02*
X016004Y029702D01*
X016445Y029780D02*
X018591Y029780D01*
X018635Y029859D02*
X017072Y029859D01*
X017161Y029937D02*
X018718Y029937D01*
X019082Y029937D02*
X020888Y029937D01*
X020966Y029859D02*
X019165Y029859D01*
X019209Y029780D02*
X020256Y029780D01*
X020178Y029702D02*
X019235Y029702D01*
X019235Y029623D02*
X020138Y029623D01*
X020115Y029545D02*
X019219Y029545D01*
X019186Y029466D02*
X020115Y029466D01*
X020134Y029388D02*
X019136Y029388D01*
X019096Y030722D02*
X020503Y030722D01*
X020581Y030644D02*
X015900Y030644D01*
X015900Y030722D02*
X015955Y030722D01*
X015924Y030565D02*
X015900Y030565D01*
X016345Y030722D02*
X018704Y030722D01*
X018626Y030801D02*
X018502Y030801D01*
X018198Y030801D02*
X016465Y030801D01*
X016544Y030879D02*
X018097Y030879D01*
X018046Y030958D02*
X016579Y030958D01*
X016612Y031036D02*
X018015Y031036D01*
X017864Y031115D02*
X016620Y031115D01*
X016620Y031193D02*
X017783Y031193D01*
X017741Y031272D02*
X016608Y031272D01*
X016675Y031350D02*
X017715Y031350D01*
X017715Y031429D02*
X016754Y031429D01*
X016832Y031507D02*
X017732Y031507D01*
X017764Y031586D02*
X016911Y031586D01*
X016989Y031664D02*
X017812Y031664D01*
X017753Y031743D02*
X017068Y031743D01*
X017146Y031821D02*
X017720Y031821D01*
X017715Y031900D02*
X017225Y031900D01*
X017303Y031978D02*
X017720Y031978D01*
X017752Y032057D02*
X017382Y032057D01*
X017460Y032135D02*
X017811Y032135D01*
X017806Y032630D02*
X017305Y032630D01*
X016280Y031605D01*
X016243Y031620D01*
X016057Y031620D01*
X015900Y031555D01*
X015900Y031745D01*
X016057Y031680D01*
X016243Y031680D01*
X016416Y031752D01*
X016548Y031884D01*
X016620Y032057D01*
X016731Y032057D01*
X016810Y032135D02*
X016620Y032135D01*
X016620Y032057D02*
X016620Y032243D01*
X016548Y032416D01*
X016416Y032548D01*
X016243Y032620D01*
X016057Y032620D01*
X015900Y032555D01*
X015900Y032745D01*
X016057Y032680D01*
X016243Y032680D01*
X016416Y032752D01*
X016548Y032884D01*
X016620Y033057D01*
X016620Y033243D01*
X016548Y033416D01*
X016416Y033548D01*
X016243Y033620D01*
X016057Y033620D01*
X015900Y033555D01*
X015900Y033783D01*
X015903Y033780D01*
X016063Y033714D01*
X016237Y033714D01*
X016397Y033780D01*
X016520Y033903D01*
X016586Y034063D01*
X016586Y034237D01*
X016520Y034397D01*
X016397Y034520D01*
X016237Y034586D01*
X016063Y034586D01*
X015903Y034520D01*
X015900Y034517D01*
X015900Y036150D01*
X017926Y036150D01*
X017866Y036090D01*
X017815Y035967D01*
X017815Y035833D01*
X017866Y035710D01*
X017960Y035616D01*
X018083Y035565D01*
X018217Y035565D01*
X018340Y035616D01*
X018434Y035710D01*
X018485Y035833D01*
X018485Y035967D01*
X018434Y036090D01*
X018374Y036150D01*
X022400Y036150D01*
X022400Y034517D01*
X022397Y034520D01*
X022237Y034586D01*
X022063Y034586D01*
X021903Y034520D01*
X021780Y034397D01*
X021714Y034237D01*
X021714Y034063D01*
X021780Y033903D01*
X021903Y033780D01*
X022063Y033714D01*
X022237Y033714D01*
X022397Y033780D01*
X022400Y033783D01*
X022400Y033555D01*
X022243Y033620D01*
X022057Y033620D01*
X021884Y033548D01*
X021752Y033416D01*
X021680Y033243D01*
X021680Y033057D01*
X021752Y032884D01*
X021884Y032752D01*
X022057Y032680D01*
X022243Y032680D01*
X022400Y032745D01*
X022400Y032555D01*
X022243Y032620D01*
X022057Y032620D01*
X021884Y032548D01*
X021752Y032416D01*
X021680Y032243D01*
X021680Y032057D01*
X021017Y032057D01*
X021040Y032066D02*
X021134Y032160D01*
X021157Y032215D01*
X021267Y032215D01*
X021390Y032266D01*
X021484Y032360D01*
X021535Y032483D01*
X021535Y032617D01*
X021484Y032740D01*
X021457Y032766D01*
X021485Y032833D01*
X021485Y032967D01*
X021434Y033090D01*
X021340Y033184D01*
X021217Y033235D01*
X021083Y033235D01*
X020960Y033184D01*
X020866Y033090D01*
X020815Y032967D01*
X020815Y032833D01*
X020866Y032710D01*
X020891Y032685D01*
X020783Y032685D01*
X020660Y032634D01*
X020566Y032540D01*
X020515Y032417D01*
X020515Y032359D01*
X020490Y032384D01*
X020367Y032435D01*
X020233Y032435D01*
X020110Y032384D01*
X020016Y032290D01*
X019965Y032167D01*
X019965Y032160D01*
X019130Y032995D01*
X019130Y034105D01*
X019340Y034315D01*
X019467Y034315D01*
X019590Y034366D01*
X019625Y034401D01*
X019660Y034366D01*
X019783Y034315D01*
X019917Y034315D01*
X020040Y034366D01*
X020134Y034460D01*
X020185Y034583D01*
X020185Y034717D01*
X020134Y034840D01*
X020040Y034934D01*
X019917Y034985D01*
X019783Y034985D01*
X019660Y034934D01*
X019625Y034899D01*
X019590Y034934D01*
X019467Y034985D01*
X019333Y034985D01*
X019210Y034934D01*
X019116Y034840D01*
X019065Y034717D01*
X019065Y034715D01*
X019034Y034790D01*
X018940Y034884D01*
X018817Y034935D01*
X018683Y034935D01*
X018560Y034884D01*
X018466Y034790D01*
X018415Y034667D01*
X018415Y034641D01*
X018333Y034641D01*
X018210Y034590D01*
X018116Y034495D01*
X018065Y034372D01*
X018065Y034239D01*
X018116Y034116D01*
X018210Y034022D01*
X018256Y034003D01*
X018210Y033984D01*
X018116Y033890D01*
X018065Y033767D01*
X018065Y033633D01*
X018116Y033510D01*
X018210Y033416D01*
X018333Y033365D01*
X018467Y033365D01*
X018520Y033387D01*
X018520Y033292D01*
X018417Y033335D01*
X018283Y033335D01*
X018160Y033284D01*
X018066Y033190D01*
X018015Y033067D01*
X018015Y032933D01*
X018066Y032810D01*
X018159Y032718D01*
X018117Y032735D01*
X017983Y032735D01*
X017860Y032684D01*
X017806Y032630D01*
X017862Y032685D02*
X016254Y032685D01*
X016277Y032606D02*
X017281Y032606D01*
X017202Y032528D02*
X016437Y032528D01*
X016516Y032449D02*
X017124Y032449D01*
X017045Y032371D02*
X016567Y032371D01*
X016600Y032292D02*
X016967Y032292D01*
X016888Y032214D02*
X016620Y032214D01*
X016588Y031978D02*
X016653Y031978D01*
X016574Y031900D02*
X016555Y031900D01*
X016496Y031821D02*
X016486Y031821D01*
X016417Y031743D02*
X016394Y031743D01*
X016339Y031664D02*
X015900Y031664D01*
X015900Y031586D02*
X015973Y031586D01*
X015906Y031743D02*
X015900Y031743D01*
X015900Y032606D02*
X016023Y032606D01*
X016046Y032685D02*
X015900Y032685D01*
X016428Y032763D02*
X018113Y032763D01*
X018053Y032842D02*
X016506Y032842D01*
X016563Y032920D02*
X018021Y032920D01*
X018015Y032999D02*
X016596Y032999D01*
X016620Y033077D02*
X018019Y033077D01*
X018052Y033156D02*
X016620Y033156D01*
X016620Y033234D02*
X018110Y033234D01*
X018229Y033313D02*
X016591Y033313D01*
X016559Y033391D02*
X018270Y033391D01*
X018157Y033470D02*
X016495Y033470D01*
X016417Y033548D02*
X018100Y033548D01*
X018068Y033627D02*
X015900Y033627D01*
X015900Y033705D02*
X018065Y033705D01*
X018072Y033784D02*
X016400Y033784D01*
X016479Y033862D02*
X018105Y033862D01*
X018167Y033941D02*
X016535Y033941D01*
X016568Y034019D02*
X018216Y034019D01*
X018134Y034098D02*
X016586Y034098D01*
X016586Y034176D02*
X018091Y034176D01*
X018065Y034255D02*
X016579Y034255D01*
X016546Y034333D02*
X018065Y034333D01*
X018081Y034412D02*
X016505Y034412D01*
X016427Y034490D02*
X018114Y034490D01*
X018189Y034569D02*
X016279Y034569D01*
X016021Y034569D02*
X015900Y034569D01*
X015900Y034647D02*
X018415Y034647D01*
X018439Y034726D02*
X015900Y034726D01*
X015900Y034804D02*
X018480Y034804D01*
X018559Y034883D02*
X015900Y034883D01*
X015900Y034961D02*
X019276Y034961D01*
X019159Y034883D02*
X018941Y034883D01*
X019020Y034804D02*
X019101Y034804D01*
X019069Y034726D02*
X019061Y034726D01*
X019524Y034961D02*
X019726Y034961D01*
X019974Y034961D02*
X020776Y034961D01*
X020833Y034985D02*
X020710Y034934D01*
X020616Y034840D01*
X020565Y034717D01*
X020565Y034583D01*
X020616Y034460D01*
X020710Y034366D01*
X020833Y034315D01*
X020967Y034315D01*
X021090Y034366D01*
X021184Y034460D01*
X021235Y034583D01*
X021235Y034717D01*
X021184Y034840D01*
X021090Y034934D01*
X020967Y034985D01*
X020833Y034985D01*
X021024Y034961D02*
X021315Y034961D01*
X021315Y034933D02*
X021366Y034810D01*
X021460Y034716D01*
X021583Y034665D01*
X021717Y034665D01*
X021840Y034716D01*
X021934Y034810D01*
X021985Y034933D01*
X021985Y035067D01*
X021934Y035190D01*
X021840Y035284D01*
X021717Y035335D01*
X021583Y035335D01*
X021460Y035284D01*
X021366Y035190D01*
X021315Y035067D01*
X021315Y034933D01*
X021336Y034883D02*
X021141Y034883D01*
X021199Y034804D02*
X021372Y034804D01*
X021451Y034726D02*
X021231Y034726D01*
X021235Y034647D02*
X022400Y034647D01*
X022400Y034569D02*
X022279Y034569D01*
X022400Y034726D02*
X021849Y034726D01*
X021928Y034804D02*
X022400Y034804D01*
X022400Y034883D02*
X021964Y034883D01*
X021985Y034961D02*
X022400Y034961D01*
X022400Y035040D02*
X021985Y035040D01*
X021964Y035118D02*
X022400Y035118D01*
X022400Y035197D02*
X021927Y035197D01*
X021849Y035275D02*
X022400Y035275D01*
X022400Y035354D02*
X015900Y035354D01*
X015900Y035432D02*
X022400Y035432D01*
X022400Y035511D02*
X015900Y035511D01*
X015900Y035589D02*
X018025Y035589D01*
X017909Y035668D02*
X015900Y035668D01*
X015900Y035746D02*
X017851Y035746D01*
X017819Y035825D02*
X015900Y035825D01*
X015900Y035903D02*
X017815Y035903D01*
X017821Y035982D02*
X015900Y035982D01*
X015900Y036060D02*
X017854Y036060D01*
X017915Y036139D02*
X015900Y036139D01*
X015900Y035275D02*
X021451Y035275D01*
X021373Y035197D02*
X015900Y035197D01*
X015900Y035118D02*
X021336Y035118D01*
X021315Y035040D02*
X015900Y035040D01*
X018275Y035589D02*
X022400Y035589D01*
X022400Y035668D02*
X018391Y035668D01*
X018449Y035746D02*
X022400Y035746D01*
X022400Y035825D02*
X018481Y035825D01*
X018485Y035903D02*
X022400Y035903D01*
X022400Y035982D02*
X018479Y035982D01*
X018446Y036060D02*
X022400Y036060D01*
X022400Y036139D02*
X018385Y036139D01*
X019280Y034255D02*
X021721Y034255D01*
X021714Y034176D02*
X019201Y034176D01*
X019130Y034098D02*
X021714Y034098D01*
X021732Y034019D02*
X019130Y034019D01*
X019130Y033941D02*
X020976Y033941D01*
X020960Y033934D02*
X020866Y033840D01*
X020815Y033717D01*
X020815Y033583D01*
X020866Y033460D01*
X020960Y033366D01*
X021083Y033315D01*
X021217Y033315D01*
X021340Y033366D01*
X021434Y033460D01*
X021485Y033583D01*
X021485Y033717D01*
X021434Y033840D01*
X021340Y033934D01*
X021217Y033985D01*
X021083Y033985D01*
X020960Y033934D01*
X020888Y033862D02*
X019130Y033862D01*
X019130Y033784D02*
X020843Y033784D01*
X020815Y033705D02*
X019130Y033705D01*
X019130Y033627D02*
X020815Y033627D01*
X020830Y033548D02*
X019130Y033548D01*
X019130Y033470D02*
X020862Y033470D01*
X020935Y033391D02*
X019130Y033391D01*
X019130Y033313D02*
X021709Y033313D01*
X021680Y033234D02*
X021219Y033234D01*
X021081Y033234D02*
X019130Y033234D01*
X019130Y033156D02*
X020932Y033156D01*
X020861Y033077D02*
X019130Y033077D01*
X019130Y032999D02*
X020828Y032999D01*
X020815Y032920D02*
X019205Y032920D01*
X019284Y032842D02*
X020815Y032842D01*
X020844Y032763D02*
X019362Y032763D01*
X019441Y032685D02*
X020782Y032685D01*
X020632Y032606D02*
X019519Y032606D01*
X019598Y032528D02*
X020561Y032528D01*
X020528Y032449D02*
X019676Y032449D01*
X019755Y032371D02*
X020097Y032371D01*
X020018Y032292D02*
X019833Y032292D01*
X019912Y032214D02*
X019984Y032214D01*
X020503Y032371D02*
X020515Y032371D01*
X020635Y032091D02*
X020660Y032066D01*
X020783Y032015D01*
X020917Y032015D01*
X021040Y032066D01*
X021109Y032135D02*
X021680Y032135D01*
X021680Y032057D02*
X021752Y031884D01*
X021884Y031752D01*
X022057Y031680D01*
X022243Y031680D01*
X022400Y031745D01*
X022400Y031555D01*
X022243Y031620D01*
X022057Y031620D01*
X021884Y031548D01*
X021752Y031416D01*
X021680Y031243D01*
X021680Y031057D01*
X021752Y030884D01*
X021884Y030752D01*
X022057Y030680D01*
X022243Y030680D01*
X022400Y030745D01*
X022400Y030475D01*
X022365Y030501D01*
X022307Y030530D01*
X022246Y030550D01*
X022190Y030559D01*
X022190Y030190D01*
X022110Y030190D01*
X022110Y030559D01*
X022054Y030550D01*
X021993Y030530D01*
X021935Y030501D01*
X021883Y030463D01*
X021837Y030417D01*
X021799Y030365D01*
X021770Y030307D01*
X021750Y030246D01*
X021741Y030190D01*
X022110Y030190D01*
X022110Y030110D01*
X021765Y030110D01*
X021380Y030495D01*
X021380Y030745D01*
X020360Y031765D01*
X020367Y031765D01*
X020490Y031816D01*
X020584Y031910D01*
X020635Y032033D01*
X020635Y032091D01*
X020635Y032057D02*
X020683Y032057D01*
X020612Y031978D02*
X021712Y031978D01*
X021745Y031900D02*
X020573Y031900D01*
X020495Y031821D02*
X021814Y031821D01*
X021905Y031743D02*
X020383Y031743D01*
X020461Y031664D02*
X022400Y031664D01*
X022400Y031586D02*
X022327Y031586D01*
X022394Y031743D02*
X022400Y031743D01*
X021973Y031586D02*
X020540Y031586D01*
X020618Y031507D02*
X021842Y031507D01*
X021764Y031429D02*
X020697Y031429D01*
X020775Y031350D02*
X021724Y031350D01*
X021692Y031272D02*
X020854Y031272D01*
X020932Y031193D02*
X021680Y031193D01*
X021680Y031115D02*
X021011Y031115D01*
X021089Y031036D02*
X021688Y031036D01*
X021721Y030958D02*
X021168Y030958D01*
X021246Y030879D02*
X021756Y030879D01*
X021835Y030801D02*
X021325Y030801D01*
X021380Y030722D02*
X021955Y030722D01*
X021916Y030487D02*
X021389Y030487D01*
X021380Y030565D02*
X022400Y030565D01*
X022400Y030487D02*
X022384Y030487D01*
X022400Y030644D02*
X021380Y030644D01*
X021467Y030408D02*
X021831Y030408D01*
X021781Y030330D02*
X021546Y030330D01*
X021624Y030251D02*
X021752Y030251D01*
X021703Y030173D02*
X022110Y030173D01*
X022110Y030251D02*
X022190Y030251D01*
X022190Y030330D02*
X022110Y030330D01*
X022110Y030408D02*
X022190Y030408D01*
X022190Y030487D02*
X022110Y030487D01*
X022345Y030722D02*
X022400Y030722D01*
X021123Y029702D02*
X020722Y029702D01*
X020762Y029623D02*
X021165Y029623D01*
X021181Y029545D02*
X020785Y029545D01*
X020785Y029466D02*
X021214Y029466D01*
X021289Y029388D02*
X020766Y029388D01*
X020644Y029780D02*
X021045Y029780D01*
X020809Y030016D02*
X017207Y030016D01*
X017235Y030094D02*
X020731Y030094D01*
X020670Y030173D02*
X017235Y030173D01*
X017221Y030251D02*
X020670Y030251D01*
X020670Y030330D02*
X017188Y030330D01*
X017116Y030408D02*
X020670Y030408D01*
X020670Y030487D02*
X016478Y030487D01*
X016552Y030408D02*
X016684Y030408D01*
X016612Y030330D02*
X016584Y030330D01*
X016376Y030565D02*
X020660Y030565D01*
X020424Y030801D02*
X019174Y030801D01*
X019213Y030879D02*
X020346Y030879D01*
X020267Y030958D02*
X019235Y030958D01*
X019235Y031036D02*
X020189Y031036D01*
X020110Y031115D02*
X019215Y031115D01*
X019181Y031193D02*
X020032Y031193D01*
X019953Y031272D02*
X019102Y031272D01*
X018952Y031429D02*
X019796Y031429D01*
X019718Y031507D02*
X019003Y031507D01*
X019035Y031586D02*
X019639Y031586D01*
X019561Y031664D02*
X019035Y031664D01*
X019024Y031743D02*
X019482Y031743D01*
X019404Y031821D02*
X018992Y031821D01*
X019050Y031900D02*
X019325Y031900D01*
X019247Y031978D02*
X019152Y031978D01*
X018851Y031350D02*
X019875Y031350D01*
X018698Y031272D02*
X018642Y031272D01*
X018520Y033313D02*
X018471Y033313D01*
X019510Y034333D02*
X019740Y034333D01*
X019960Y034333D02*
X020790Y034333D01*
X020665Y034412D02*
X020085Y034412D01*
X020146Y034490D02*
X020604Y034490D01*
X020571Y034569D02*
X020179Y034569D01*
X020185Y034647D02*
X020565Y034647D01*
X020569Y034726D02*
X020181Y034726D01*
X020149Y034804D02*
X020601Y034804D01*
X020659Y034883D02*
X020091Y034883D01*
X021010Y034333D02*
X021754Y034333D01*
X021795Y034412D02*
X021135Y034412D01*
X021196Y034490D02*
X021873Y034490D01*
X022021Y034569D02*
X021229Y034569D01*
X021324Y033941D02*
X021765Y033941D01*
X021821Y033862D02*
X021412Y033862D01*
X021457Y033784D02*
X021900Y033784D01*
X021883Y033548D02*
X021470Y033548D01*
X021485Y033627D02*
X022400Y033627D01*
X022400Y033705D02*
X021485Y033705D01*
X021438Y033470D02*
X021805Y033470D01*
X021741Y033391D02*
X021365Y033391D01*
X021368Y033156D02*
X021680Y033156D01*
X021680Y033077D02*
X021439Y033077D01*
X021472Y032999D02*
X021704Y032999D01*
X021737Y032920D02*
X021485Y032920D01*
X021485Y032842D02*
X021794Y032842D01*
X021872Y032763D02*
X021461Y032763D01*
X021507Y032685D02*
X022046Y032685D01*
X022023Y032606D02*
X021535Y032606D01*
X021535Y032528D02*
X021863Y032528D01*
X021784Y032449D02*
X021521Y032449D01*
X021488Y032371D02*
X021733Y032371D01*
X021700Y032292D02*
X021416Y032292D01*
X021156Y032214D02*
X021680Y032214D01*
X022277Y032606D02*
X022400Y032606D01*
X022400Y032685D02*
X022254Y032685D01*
X021876Y028760D02*
X016424Y028760D01*
X016054Y028681D02*
X015900Y028681D01*
X016110Y028053D02*
X016190Y028053D01*
X016190Y027975D02*
X016110Y027975D01*
X016110Y027896D02*
X016190Y027896D01*
X016190Y027818D02*
X016110Y027818D01*
X015910Y027818D02*
X015900Y027818D01*
X015900Y027739D02*
X018133Y027739D01*
X018115Y027818D02*
X016390Y027818D01*
X016472Y027896D02*
X018115Y027896D01*
X018139Y027975D02*
X016521Y027975D01*
X016550Y028053D02*
X018179Y028053D01*
X018166Y027661D02*
X015900Y027661D01*
X015900Y027582D02*
X015965Y027582D01*
X016335Y027582D02*
X018244Y027582D01*
X016916Y026640D02*
X015900Y026640D01*
X015900Y026562D02*
X015915Y026562D01*
X015900Y026719D02*
X015963Y026719D01*
X015900Y025698D02*
X016013Y025698D01*
X016055Y025620D02*
X015900Y025620D01*
X016245Y025620D02*
X016457Y025620D01*
X016378Y025698D02*
X016287Y025698D01*
X016523Y029859D02*
X016728Y029859D01*
X016639Y029937D02*
X016571Y029937D01*
X021860Y026775D02*
X021884Y026752D01*
X022057Y026680D01*
X022243Y026680D01*
X022400Y026745D01*
X022400Y026555D01*
X022243Y026620D01*
X022057Y026620D01*
X021909Y026559D01*
X021860Y026608D01*
X021860Y026775D01*
X021860Y026719D02*
X021963Y026719D01*
X021860Y026640D02*
X022400Y026640D01*
X022400Y026562D02*
X022385Y026562D01*
X022400Y026719D02*
X022337Y026719D01*
X021915Y026562D02*
X021906Y026562D01*
X022286Y028603D02*
X022400Y028603D01*
X022400Y028681D02*
X022246Y028681D01*
X022378Y023736D02*
X022400Y023736D01*
X022400Y017691D02*
X022270Y017691D01*
X022262Y017613D02*
X022400Y017613D01*
X019834Y017848D02*
X019556Y017848D01*
X019654Y017770D02*
X019731Y017770D01*
X019667Y017299D02*
X019622Y017299D01*
X019729Y017220D02*
X019479Y017220D01*
X019321Y017220D02*
X018979Y017220D01*
X018821Y017220D02*
X018571Y017220D01*
X018633Y017299D02*
X018678Y017299D01*
X018471Y017142D02*
X019829Y017142D01*
X019178Y017299D02*
X019122Y017299D01*
X019056Y017848D02*
X019244Y017848D01*
X018744Y017848D02*
X018466Y017848D01*
X018569Y017770D02*
X018646Y017770D01*
D16*
X018750Y025050D02*
X018150Y025650D01*
X018150Y026850D01*
X018750Y025050D02*
X021400Y025050D01*
M02*
