%
M48
M72
T01C0.0130
T02C0.0360
T03C0.0394
T04C0.0472
%
T01
X17050Y17450
X17200Y19250
X17100Y19650
X17850Y20650
X17650Y21450
X18650Y21150
X18500Y20550
X18900Y20550
X19475Y19575
X20050Y19450
X21300Y19700
X20300Y21700
X20650Y22200
X20150Y22600
X19150Y23400
X17900Y23400
X18000Y23900
X17600Y23900
X17150Y23900
X17150Y23400
X16900Y24400
X16650Y24650
X17150Y25400
X17150Y25800
X16650Y25900
X17150Y26400
X17150Y26900
X16400Y26650
X17400Y28800
X16900Y30150
X17950Y30450
X18350Y31100
X18050Y31400
X18050Y31900
X18050Y32400
X18550Y32300
X18900Y32200
X18700Y31650
X18900Y31000
X18600Y30600
X18900Y29650
X18900Y29150
X18900Y28800
X19400Y28150
X19800Y28150
X20100Y27750
X19450Y27650
X18900Y27350
X18450Y27850
X18150Y26850
X20150Y27000
X20550Y26450
X20900Y26100
X21350Y26200
X21400Y25750
X21150Y25350
X21400Y25050
X21400Y24650
X21000Y24650
X21400Y23100
X21900Y26650
X20900Y27850
X20400Y28800
X20100Y28800
X20050Y29550
X20050Y29850
X20450Y29500
X21500Y29650
X21900Y29650
X21900Y31650
X21200Y32550
X21150Y32900
X20850Y32350
X20300Y32100
X20050Y33250
X20050Y33550
X19750Y33550
X19750Y33250
X19850Y34650
X19400Y34650
X18750Y34600
X18400Y34306
X18400Y33700
X18350Y33000
X17150Y33000
X16750Y34050
X16750Y34550
X16500Y34800
X18150Y35900
X18650Y36000
X18650Y35750
X18650Y35500
X18650Y35250
X20100Y36150
X20950Y36150
X20950Y35800
X20950Y35450
X21350Y36100
X21650Y35000
X20900Y34650
X21150Y33650
X21950Y33650
X21350Y17400
X20100Y16650
X19400Y17550
X18900Y17550
T02
X16150Y17150
X16150Y18150
X16150Y19150
X16150Y20150
X16150Y21150
X16150Y22150
X16150Y23150
X16150Y24150
X16150Y25150
X16150Y26150
X16150Y27150
X16150Y28150
X16150Y29150
X16150Y30150
X16150Y31150
X16150Y32150
X16150Y33150
X22150Y33150
X22150Y32150
X22150Y31150
X22150Y30150
X22150Y29150
X22150Y28150
X22150Y27150
X22150Y26150
X22150Y25150
X22150Y24150
X22150Y23150
X22150Y22150
X22150Y21150
X22150Y20150
X22150Y19150
X22150Y18150
X22150Y17150
T03
X20016Y17494
X18284Y17494
T04
X16150Y16150
X22150Y16150
X22150Y34150
X16150Y34150
M30
