G75*
%MOIN*%
%OFA0B0*%
%FSLAX24Y24*%
%IPPOS*%
%LPD*%
%AMOC8*
5,1,8,0,0,1.08239X$1,22.5*
%
%ADD10C,0.0789*%
%ADD11C,0.0682*%
%ADD12R,0.0680X0.0680*%
%ADD13OC8,0.0680*%
%ADD14C,0.1265*%
%ADD15C,0.2380*%
%ADD16R,0.0516X0.0516*%
%ADD17C,0.0516*%
%ADD18C,0.0820*%
%ADD19C,0.0370*%
D10*
X001050Y012050D03*
X002050Y012050D03*
X003050Y012050D03*
X004050Y012050D03*
X005050Y012050D03*
X006050Y012050D03*
X007050Y012050D03*
X008050Y012050D03*
X009050Y012050D03*
X010050Y012050D03*
X011050Y012050D03*
X012050Y012050D03*
X013050Y012050D03*
X014050Y012050D03*
X015050Y012050D03*
X016050Y012050D03*
X017050Y012050D03*
X017050Y018050D03*
X016050Y018050D03*
X015050Y018050D03*
X014050Y018050D03*
X013050Y018050D03*
X012050Y018050D03*
X011050Y018050D03*
X010050Y018050D03*
X009050Y018050D03*
X008050Y018050D03*
X007050Y018050D03*
X006050Y018050D03*
X005050Y018050D03*
X004050Y018050D03*
X003050Y018050D03*
X002050Y018050D03*
X001050Y018050D03*
D11*
X001050Y017050D03*
X002050Y017050D03*
X003050Y017050D03*
X004050Y017050D03*
X005050Y017050D03*
X006050Y017050D03*
X007050Y017050D03*
X008050Y017050D03*
X009050Y017050D03*
X010050Y017050D03*
X011050Y017050D03*
X012050Y017050D03*
X013050Y017050D03*
X014050Y017050D03*
X015050Y017050D03*
X016050Y017050D03*
X017050Y017050D03*
X017050Y019050D03*
X016050Y019050D03*
X015050Y019050D03*
X014050Y019050D03*
X013050Y019050D03*
X012050Y019050D03*
X011050Y019050D03*
X010050Y019050D03*
X009050Y019050D03*
X008050Y019050D03*
X007050Y019050D03*
X006050Y019050D03*
X005050Y019050D03*
X004050Y019050D03*
X003050Y019050D03*
X002050Y019050D03*
X001050Y019050D03*
X001050Y013050D03*
X002050Y013050D03*
X003050Y013050D03*
X004050Y013050D03*
X005050Y013050D03*
X006050Y013050D03*
X007050Y013050D03*
X008050Y013050D03*
X009050Y013050D03*
X010050Y013050D03*
X011050Y013050D03*
X012050Y013050D03*
X013050Y013050D03*
X014050Y013050D03*
X015050Y013050D03*
X016050Y013050D03*
X017050Y013050D03*
X017050Y011050D03*
X016050Y011050D03*
X015050Y011050D03*
X014050Y011050D03*
X013050Y011050D03*
X012050Y011050D03*
X011050Y011050D03*
X010050Y011050D03*
X009050Y011050D03*
X008050Y011050D03*
X007050Y011050D03*
X006050Y011050D03*
X005050Y011050D03*
X004050Y011050D03*
X003050Y011050D03*
X002050Y011050D03*
X001050Y011050D03*
D12*
X001050Y010050D03*
X003050Y007050D03*
X003050Y006050D03*
X003050Y005050D03*
X003050Y004050D03*
X002050Y004050D03*
X002050Y005050D03*
X001050Y005050D03*
X001050Y004050D03*
X004050Y004050D03*
X004050Y003050D03*
X004050Y002050D03*
X004050Y001050D03*
X005050Y001050D03*
X005050Y002050D03*
X005050Y003050D03*
X005050Y004050D03*
X005050Y005050D03*
X005050Y006050D03*
X005050Y007050D03*
X004050Y007050D03*
X004050Y006050D03*
X004050Y005050D03*
X006050Y005050D03*
X006050Y004050D03*
X006050Y003050D03*
X006050Y002050D03*
X006050Y001050D03*
X007050Y001050D03*
X007050Y002050D03*
X007050Y003050D03*
X007050Y004050D03*
X007050Y005050D03*
X007050Y006050D03*
X007050Y007050D03*
X006050Y007050D03*
X006050Y006050D03*
X008050Y006050D03*
X008050Y007050D03*
X009050Y007050D03*
X009050Y006050D03*
X009050Y005050D03*
X009050Y004050D03*
X009050Y003050D03*
X009050Y002050D03*
X009050Y001050D03*
X008050Y001050D03*
X008050Y002050D03*
X008050Y003050D03*
X008050Y004050D03*
X008050Y005050D03*
X010050Y005050D03*
X010050Y004050D03*
X010050Y003050D03*
X010050Y002050D03*
X010050Y001050D03*
X011050Y001050D03*
X011050Y002050D03*
X011050Y003050D03*
X011050Y004050D03*
X011050Y005050D03*
X011050Y006050D03*
X011050Y007050D03*
X011050Y008050D03*
X011050Y009050D03*
X010050Y009050D03*
X010050Y008050D03*
X010050Y007050D03*
X010050Y006050D03*
X012050Y006050D03*
X012050Y007050D03*
X012050Y008050D03*
X012050Y009050D03*
X013050Y009050D03*
X013050Y008050D03*
X013050Y007050D03*
X013050Y006050D03*
X013050Y005050D03*
X013050Y004050D03*
X013050Y003050D03*
X013050Y002050D03*
X013050Y001050D03*
X012050Y001050D03*
X012050Y002050D03*
X012050Y003050D03*
X012050Y004050D03*
X012050Y005050D03*
X014050Y005050D03*
X014050Y004050D03*
X014050Y003050D03*
X014050Y002050D03*
X014050Y001050D03*
X015050Y001050D03*
X015050Y002050D03*
X015050Y003050D03*
X015050Y004050D03*
X015050Y005050D03*
X015050Y006050D03*
X015050Y007050D03*
X015050Y008050D03*
X015050Y009050D03*
X014050Y009050D03*
X014050Y008050D03*
X014050Y007050D03*
X014050Y006050D03*
X016050Y006050D03*
X016050Y007050D03*
X016050Y008050D03*
X016050Y009050D03*
X017050Y009050D03*
X017050Y008050D03*
X017050Y007050D03*
X017050Y006050D03*
X017050Y005050D03*
X017050Y004050D03*
X017050Y003050D03*
X017050Y002050D03*
X017050Y001050D03*
X018050Y001050D03*
X018050Y002050D03*
X018050Y003050D03*
X018050Y004050D03*
X018050Y005050D03*
X018050Y006050D03*
X018050Y007050D03*
X018050Y008050D03*
X018050Y009050D03*
X018050Y010050D03*
X019050Y010050D03*
X020050Y010050D03*
X017050Y014050D03*
X017050Y015050D03*
X017050Y016050D03*
X016050Y016050D03*
X016050Y015050D03*
X016050Y014050D03*
X015050Y014050D03*
X015050Y015050D03*
X015050Y016050D03*
X014050Y016050D03*
X014050Y015050D03*
X014050Y014050D03*
X013050Y014050D03*
X013050Y015050D03*
X013050Y016050D03*
X012050Y016050D03*
X012050Y015050D03*
X012050Y014050D03*
X011050Y014050D03*
X011050Y015050D03*
X011050Y016050D03*
X010050Y016050D03*
X010050Y015050D03*
X010050Y014050D03*
X009050Y014050D03*
X009050Y015050D03*
X009050Y016050D03*
X008050Y016050D03*
X008050Y015050D03*
X008050Y014050D03*
X007050Y014050D03*
X007050Y015050D03*
X007050Y016050D03*
X006050Y016050D03*
X006050Y015050D03*
X006050Y014050D03*
X005050Y014050D03*
X005050Y015050D03*
X005050Y016050D03*
X004050Y016050D03*
X004050Y015050D03*
X004050Y014050D03*
X003050Y014050D03*
X003050Y015050D03*
X003050Y016050D03*
X002050Y016050D03*
X002050Y015050D03*
X002050Y014050D03*
X001050Y014050D03*
X001050Y015050D03*
X001050Y016050D03*
X001050Y020050D03*
X001050Y021050D03*
X001050Y022050D03*
X001050Y023050D03*
X001050Y024050D03*
X001050Y025050D03*
X001050Y026050D03*
X002050Y026050D03*
X002050Y025050D03*
X002050Y024050D03*
X002050Y023050D03*
X002050Y022050D03*
X002050Y021050D03*
X003050Y021050D03*
X003050Y022050D03*
X003050Y023050D03*
X003050Y024050D03*
X003050Y025050D03*
X003050Y026050D03*
X004050Y026050D03*
X004050Y025050D03*
X004050Y024050D03*
X004050Y023050D03*
X004050Y022050D03*
X004050Y021050D03*
X005050Y021050D03*
X005050Y022050D03*
X005050Y023050D03*
X005050Y024050D03*
X005050Y025050D03*
X005050Y026050D03*
X005050Y027050D03*
X005050Y028050D03*
X005050Y029050D03*
X004050Y029050D03*
X004050Y028050D03*
X004050Y027050D03*
X006050Y027050D03*
X006050Y026050D03*
X006050Y025050D03*
X006050Y024050D03*
X006050Y023050D03*
X006050Y022050D03*
X006050Y021050D03*
X007050Y021050D03*
X007050Y022050D03*
X007050Y023050D03*
X007050Y024050D03*
X007050Y025050D03*
X007050Y026050D03*
X007050Y027050D03*
X007050Y028050D03*
X007050Y029050D03*
X006050Y029050D03*
X006050Y028050D03*
X008050Y028050D03*
X008050Y029050D03*
X009050Y029050D03*
X009050Y028050D03*
X009050Y027050D03*
X009050Y026050D03*
X009050Y025050D03*
X009050Y024050D03*
X009050Y023050D03*
X009050Y022050D03*
X009050Y021050D03*
X008050Y021050D03*
X008050Y022050D03*
X008050Y023050D03*
X008050Y024050D03*
X008050Y025050D03*
X008050Y026050D03*
X008050Y027050D03*
X010050Y027050D03*
X010050Y026050D03*
X010050Y025050D03*
X010050Y024050D03*
X010050Y023050D03*
X010050Y022050D03*
X010050Y021050D03*
X011050Y021050D03*
X011050Y022050D03*
X011050Y023050D03*
X011050Y024050D03*
X011050Y025050D03*
X011050Y026050D03*
X011050Y027050D03*
X011050Y028050D03*
X011050Y029050D03*
X010050Y029050D03*
X010050Y028050D03*
X012050Y028050D03*
X012050Y029050D03*
X013050Y029050D03*
X013050Y028050D03*
X013050Y027050D03*
X013050Y026050D03*
X013050Y025050D03*
X013050Y024050D03*
X013050Y023050D03*
X013050Y022050D03*
X013050Y021050D03*
X012050Y021050D03*
X012050Y022050D03*
X012050Y023050D03*
X012050Y024050D03*
X012050Y025050D03*
X012050Y026050D03*
X012050Y027050D03*
X014050Y027050D03*
X014050Y026050D03*
X014050Y025050D03*
X014050Y024050D03*
X014050Y023050D03*
X014050Y022050D03*
X014050Y021050D03*
X015050Y021050D03*
X015050Y022050D03*
X015050Y023050D03*
X015050Y024050D03*
X015050Y025050D03*
X015050Y026050D03*
X015050Y027050D03*
X015050Y028050D03*
X015050Y029050D03*
X014050Y029050D03*
X014050Y028050D03*
X016050Y028050D03*
X016050Y029050D03*
X017050Y029050D03*
X017050Y028050D03*
X017050Y027050D03*
X017050Y026050D03*
X017050Y025050D03*
X017050Y024050D03*
X017050Y023050D03*
X017050Y022050D03*
X017050Y021050D03*
X018050Y021050D03*
X018050Y020050D03*
X019050Y020050D03*
X020050Y020050D03*
X018050Y022050D03*
X018050Y023050D03*
X018050Y024050D03*
X018050Y025050D03*
X018050Y026050D03*
X018050Y027050D03*
X018050Y028050D03*
X018050Y029050D03*
X019050Y029050D03*
X019050Y028050D03*
X020050Y028050D03*
X020050Y029050D03*
X016050Y027050D03*
X016050Y026050D03*
X016050Y025050D03*
X016050Y024050D03*
X016050Y023050D03*
X016050Y022050D03*
X016050Y021050D03*
X016050Y005050D03*
X016050Y004050D03*
X016050Y003050D03*
X016050Y002050D03*
X016050Y001050D03*
X019050Y001050D03*
X019050Y002050D03*
X020050Y002050D03*
X020050Y001050D03*
D13*
X020050Y003050D03*
X020050Y004050D03*
X020050Y005050D03*
X020050Y006050D03*
X020050Y007050D03*
X020050Y008050D03*
X020050Y009050D03*
X019050Y009050D03*
X019050Y008050D03*
X019050Y007050D03*
X019050Y006050D03*
X019050Y005050D03*
X019050Y004050D03*
X019050Y003050D03*
X017050Y010050D03*
X016050Y010050D03*
X015050Y010050D03*
X014050Y010050D03*
X013050Y010050D03*
X012050Y010050D03*
X011050Y010050D03*
X010050Y010050D03*
X009050Y010050D03*
X008050Y010050D03*
X007050Y010050D03*
X006050Y010050D03*
X005050Y010050D03*
X004050Y010050D03*
X003050Y010050D03*
X002050Y010050D03*
X002050Y020050D03*
X003050Y020050D03*
X004050Y020050D03*
X005050Y020050D03*
X006050Y020050D03*
X007050Y020050D03*
X008050Y020050D03*
X009050Y020050D03*
X010050Y020050D03*
X011050Y020050D03*
X012050Y020050D03*
X013050Y020050D03*
X014050Y020050D03*
X015050Y020050D03*
X016050Y020050D03*
X017050Y020050D03*
X019050Y021050D03*
X019050Y022050D03*
X019050Y023050D03*
X019050Y024050D03*
X019050Y025050D03*
X019050Y026050D03*
X019050Y027050D03*
X020050Y027050D03*
X020050Y026050D03*
X020050Y025050D03*
X020050Y024050D03*
X020050Y023050D03*
X020050Y022050D03*
X020050Y021050D03*
D14*
X021458Y020800D02*
X022643Y020800D01*
X022643Y018300D02*
X021458Y018300D01*
X021458Y011800D02*
X022643Y011800D01*
X022643Y009300D02*
X021458Y009300D01*
D15*
X001800Y001800D03*
X022550Y001800D03*
X022550Y028300D03*
X001800Y028300D03*
D16*
X001800Y006550D03*
D17*
X001800Y007050D03*
X001800Y007550D03*
X001800Y008050D03*
X001800Y008550D03*
X001300Y008550D03*
X001300Y008050D03*
X001300Y007550D03*
X001300Y007050D03*
X001300Y006550D03*
D18*
X003550Y008550D03*
X004550Y008550D03*
X005550Y008550D03*
X006550Y008550D03*
X007550Y008550D03*
X008550Y008550D03*
D19*
X008550Y009550D03*
X003050Y007800D03*
X002250Y007850D03*
M02*
