%
M48
M72
T01C0.0130
T02C0.0236
T03C0.0400
T04C0.0402
T05C0.0472
T06C0.0790
T07C0.1260
%
T01
X3050Y7800
X2250Y7850
X8550Y9550
T02
X1800Y8550
X1800Y8050
X1800Y7550
X1800Y7050
X1800Y6550
X1300Y6550
X1300Y7050
X1300Y7550
X1300Y8050
X1300Y8550
T03
X1050Y10050
X2050Y10050
X3050Y10050
X4050Y10050
X5050Y10050
X6050Y10050
X7050Y10050
X8050Y10050
X9050Y10050
X10050Y10050
X10050Y9050
X10050Y8050
X10050Y7050
X10050Y6050
X10050Y5050
X10050Y4050
X10050Y3050
X10050Y2050
X10050Y1050
X9050Y1050
X9050Y2050
X9050Y3050
X9050Y4050
X9050Y5050
X9050Y6050
X9050Y7050
X8050Y7050
X8050Y6050
X8050Y5050
X8050Y4050
X8050Y3050
X8050Y2050
X8050Y1050
X7050Y1050
X7050Y2050
X7050Y3050
X7050Y4050
X7050Y5050
X7050Y6050
X7050Y7050
X6050Y7050
X6050Y6050
X6050Y5050
X6050Y4050
X6050Y3050
X6050Y2050
X6050Y1050
X5050Y1050
X5050Y2050
X5050Y3050
X5050Y4050
X5050Y5050
X5050Y6050
X5050Y7050
X4050Y7050
X4050Y6050
X4050Y5050
X4050Y4050
X4050Y3050
X4050Y2050
X4050Y1050
X3050Y4050
X3050Y5050
X3050Y6050
X3050Y7050
X3550Y8550
X4550Y8550
X5550Y8550
X6550Y8550
X7550Y8550
X8550Y8550
X11050Y8050
X11050Y7050
X11050Y6050
X11050Y5050
X11050Y4050
X11050Y3050
X11050Y2050
X11050Y1050
X12050Y1050
X12050Y2050
X12050Y3050
X12050Y4050
X12050Y5050
X12050Y6050
X12050Y7050
X12050Y8050
X12050Y9050
X12050Y10050
X11050Y10050
X11050Y9050
X13050Y9050
X13050Y10050
X14050Y10050
X14050Y9050
X14050Y8050
X14050Y7050
X14050Y6050
X14050Y5050
X14050Y4050
X14050Y3050
X14050Y2050
X14050Y1050
X13050Y1050
X13050Y2050
X13050Y3050
X13050Y4050
X13050Y5050
X13050Y6050
X13050Y7050
X13050Y8050
X15050Y8050
X15050Y7050
X15050Y6050
X15050Y5050
X15050Y4050
X15050Y3050
X15050Y2050
X15050Y1050
X16050Y1050
X16050Y2050
X16050Y3050
X16050Y4050
X16050Y5050
X16050Y6050
X16050Y7050
X16050Y8050
X16050Y9050
X16050Y10050
X15050Y10050
X15050Y9050
X17050Y9050
X17050Y10050
X18050Y10050
X18050Y9050
X18050Y8050
X18050Y7050
X18050Y6050
X18050Y5050
X18050Y4050
X18050Y3050
X18050Y2050
X18050Y1050
X17050Y1050
X17050Y2050
X17050Y3050
X17050Y4050
X17050Y5050
X17050Y6050
X17050Y7050
X17050Y8050
X19050Y8050
X19050Y7050
X19050Y6050
X19050Y5050
X19050Y4050
X19050Y3050
X19050Y2050
X19050Y1050
X20050Y1050
X20050Y2050
X20050Y3050
X20050Y4050
X20050Y5050
X20050Y6050
X20050Y7050
X20050Y8050
X20050Y9050
X20050Y10050
X19050Y10050
X19050Y9050
X17050Y14050
X17050Y15050
X17050Y16050
X16050Y16050
X16050Y15050
X16050Y14050
X15050Y14050
X15050Y15050
X15050Y16050
X14050Y16050
X14050Y15050
X14050Y14050
X13050Y14050
X13050Y15050
X13050Y16050
X12050Y16050
X12050Y15050
X12050Y14050
X11050Y14050
X11050Y15050
X11050Y16050
X10050Y16050
X10050Y15050
X10050Y14050
X9050Y14050
X9050Y15050
X9050Y16050
X8050Y16050
X8050Y15050
X8050Y14050
X7050Y14050
X7050Y15050
X7050Y16050
X6050Y16050
X6050Y15050
X6050Y14050
X5050Y14050
X5050Y15050
X5050Y16050
X4050Y16050
X4050Y15050
X4050Y14050
X3050Y14050
X3050Y15050
X3050Y16050
X2050Y16050
X2050Y15050
X2050Y14050
X1050Y14050
X1050Y15050
X1050Y16050
X1050Y20050
X1050Y21050
X1050Y22050
X1050Y23050
X1050Y24050
X1050Y25050
X1050Y26050
X2050Y26050
X2050Y25050
X2050Y24050
X2050Y23050
X2050Y22050
X2050Y21050
X2050Y20050
X3050Y20050
X3050Y21050
X3050Y22050
X3050Y23050
X3050Y24050
X3050Y25050
X3050Y26050
X4050Y26050
X4050Y25050
X4050Y24050
X4050Y23050
X4050Y22050
X4050Y21050
X4050Y20050
X5050Y20050
X5050Y21050
X5050Y22050
X5050Y23050
X5050Y24050
X5050Y25050
X5050Y26050
X5050Y27050
X5050Y28050
X5050Y29050
X4050Y29050
X4050Y28050
X4050Y27050
X6050Y27050
X6050Y26050
X6050Y25050
X6050Y24050
X6050Y23050
X6050Y22050
X6050Y21050
X6050Y20050
X7050Y20050
X7050Y21050
X7050Y22050
X7050Y23050
X7050Y24050
X7050Y25050
X7050Y26050
X7050Y27050
X7050Y28050
X7050Y29050
X6050Y29050
X6050Y28050
X8050Y28050
X8050Y29050
X9050Y29050
X9050Y28050
X9050Y27050
X9050Y26050
X9050Y25050
X9050Y24050
X9050Y23050
X9050Y22050
X9050Y21050
X9050Y20050
X8050Y20050
X8050Y21050
X8050Y22050
X8050Y23050
X8050Y24050
X8050Y25050
X8050Y26050
X8050Y27050
X10050Y27050
X10050Y26050
X10050Y25050
X10050Y24050
X10050Y23050
X10050Y22050
X10050Y21050
X10050Y20050
X11050Y20050
X11050Y21050
X11050Y22050
X11050Y23050
X11050Y24050
X11050Y25050
X11050Y26050
X11050Y27050
X11050Y28050
X11050Y29050
X10050Y29050
X10050Y28050
X12050Y28050
X12050Y29050
X13050Y29050
X13050Y28050
X13050Y27050
X13050Y26050
X13050Y25050
X13050Y24050
X13050Y23050
X13050Y22050
X13050Y21050
X13050Y20050
X12050Y20050
X12050Y21050
X12050Y22050
X12050Y23050
X12050Y24050
X12050Y25050
X12050Y26050
X12050Y27050
X14050Y27050
X14050Y26050
X14050Y25050
X14050Y24050
X14050Y23050
X14050Y22050
X14050Y21050
X14050Y20050
X15050Y20050
X15050Y21050
X15050Y22050
X15050Y23050
X15050Y24050
X15050Y25050
X15050Y26050
X15050Y27050
X15050Y28050
X15050Y29050
X14050Y29050
X14050Y28050
X16050Y28050
X16050Y29050
X17050Y29050
X17050Y28050
X17050Y27050
X17050Y26050
X17050Y25050
X17050Y24050
X17050Y23050
X17050Y22050
X17050Y21050
X17050Y20050
X18050Y20050
X18050Y21050
X18050Y22050
X18050Y23050
X18050Y24050
X18050Y25050
X18050Y26050
X18050Y27050
X18050Y28050
X18050Y29050
X19050Y29050
X19050Y28050
X19050Y27050
X19050Y26050
X19050Y25050
X19050Y24050
X19050Y23050
X19050Y22050
X19050Y21050
X19050Y20050
X20050Y20050
X20050Y21050
X20050Y22050
X20050Y23050
X20050Y24050
X20050Y25050
X20050Y26050
X20050Y27050
X20050Y28050
X20050Y29050
X16050Y27050
X16050Y26050
X16050Y25050
X16050Y24050
X16050Y23050
X16050Y22050
X16050Y21050
X16050Y20050
X2050Y5050
X2050Y4050
X1050Y4050
X1050Y5050
T04
X1050Y11050
X2050Y11050
X3050Y11050
X4050Y11050
X5050Y11050
X6050Y11050
X7050Y11050
X8050Y11050
X9050Y11050
X10050Y11050
X11050Y11050
X12050Y11050
X13050Y11050
X14050Y11050
X15050Y11050
X16050Y11050
X17050Y11050
X17050Y13050
X16050Y13050
X15050Y13050
X14050Y13050
X13050Y13050
X12050Y13050
X11050Y13050
X10050Y13050
X9050Y13050
X8050Y13050
X7050Y13050
X6050Y13050
X5050Y13050
X4050Y13050
X3050Y13050
X2050Y13050
X1050Y13050
X1050Y17050
X2050Y17050
X3050Y17050
X4050Y17050
X5050Y17050
X6050Y17050
X7050Y17050
X8050Y17050
X9050Y17050
X10050Y17050
X11050Y17050
X12050Y17050
X13050Y17050
X14050Y17050
X15050Y17050
X16050Y17050
X17050Y17050
X17050Y19050
X16050Y19050
X15050Y19050
X14050Y19050
X13050Y19050
X12050Y19050
X11050Y19050
X10050Y19050
X9050Y19050
X8050Y19050
X7050Y19050
X6050Y19050
X5050Y19050
X4050Y19050
X3050Y19050
X2050Y19050
X1050Y19050
T05
X1050Y18050
X2050Y18050
X3050Y18050
X4050Y18050
X5050Y18050
X6050Y18050
X7050Y18050
X8050Y18050
X9050Y18050
X10050Y18050
X11050Y18050
X12050Y18050
X13050Y18050
X14050Y18050
X15050Y18050
X16050Y18050
X17050Y18050
X17050Y12050
X16050Y12050
X15050Y12050
X14050Y12050
X13050Y12050
X12050Y12050
X11050Y12050
X10050Y12050
X9050Y12050
X8050Y12050
X7050Y12050
X6050Y12050
X5050Y12050
X4050Y12050
X3050Y12050
X2050Y12050
X1050Y12050
T06
X22050Y11800
X22050Y9300
X22050Y18300
X22050Y20800
T07
X1800Y1800
X22550Y1800
X22550Y28300
X1800Y28300
M30
