G75*
%MOIN*%
%OFA0B0*%
%FSLAX24Y24*%
%IPPOS*%
%LPD*%
%AMOC8*
5,1,8,0,0,1.08239X$1,22.5*
%
%ADD10C,0.0050*%
%ADD11C,0.0100*%
%ADD12R,0.0167X0.0128*%
%ADD13R,0.0138X0.0138*%
%ADD14R,0.0017X0.0483*%
%ADD15R,0.0017X0.0700*%
%ADD16R,0.0017X0.0867*%
%ADD17R,0.0017X0.1000*%
%ADD18R,0.0017X0.1117*%
%ADD19R,0.0017X0.1217*%
%ADD20R,0.0017X0.1300*%
%ADD21R,0.0017X0.0517*%
%ADD22R,0.0017X0.0550*%
%ADD23R,0.0017X0.0450*%
%ADD24R,0.0017X0.0400*%
%ADD25R,0.0017X0.0417*%
%ADD26R,0.0017X0.0367*%
%ADD27R,0.0017X0.0383*%
%ADD28R,0.0017X0.0333*%
%ADD29R,0.0017X0.0350*%
%ADD30R,0.0017X0.0317*%
%ADD31R,0.0017X0.0283*%
%ADD32R,0.0017X0.0300*%
%ADD33R,0.0017X0.0283*%
%ADD34R,0.0017X0.0283*%
%ADD35R,0.0017X0.0250*%
%ADD36R,0.0017X0.0233*%
%ADD37R,0.0017X0.0267*%
%ADD38R,0.0017X0.0217*%
%ADD39R,0.0017X0.0267*%
%ADD40R,0.0017X0.0200*%
%ADD41R,0.0017X0.0250*%
%ADD42R,0.0017X0.0183*%
%ADD43R,0.0017X0.0233*%
%ADD44R,0.0017X0.0183*%
%ADD45R,0.0017X0.0183*%
%ADD46R,0.0017X0.0167*%
%ADD47R,0.0017X0.0167*%
%ADD48R,0.0017X0.0217*%
%ADD49R,0.0017X0.0067*%
%ADD50R,0.0017X0.0150*%
%ADD51R,0.0017X0.0200*%
%ADD52R,0.0017X0.0133*%
%ADD53R,0.0017X0.0217*%
%ADD54R,0.0017X0.0017*%
%ADD55R,0.0017X0.0133*%
%ADD56R,0.0017X0.0217*%
%ADD57R,0.0017X0.0050*%
%ADD58R,0.0017X0.0300*%
%ADD59R,0.0017X0.0083*%
%ADD60R,0.0017X0.0133*%
%ADD61R,0.0017X0.0433*%
%ADD62R,0.0017X0.0133*%
%ADD63R,0.0017X0.0117*%
%ADD64R,0.0017X0.0467*%
%ADD65R,0.0017X0.0117*%
%ADD66R,0.0017X0.0483*%
%ADD67R,0.0017X0.0467*%
%ADD68R,0.0017X0.0383*%
%ADD69R,0.0017X0.0350*%
%ADD70R,0.0017X0.0150*%
%ADD71R,0.0017X0.0317*%
%ADD72R,0.0017X0.0283*%
%ADD73R,0.0017X0.0167*%
%ADD74R,0.0017X0.0267*%
%ADD75R,0.0017X0.0167*%
%ADD76R,0.0017X0.0100*%
%ADD77R,0.0017X0.0100*%
%ADD78R,0.0017X0.0233*%
%ADD79R,0.0017X0.0117*%
%ADD80R,0.0017X0.0500*%
%ADD81R,0.0017X0.0083*%
%ADD82R,0.0017X0.0500*%
%ADD83R,0.0017X0.0483*%
%ADD84R,0.0017X0.0233*%
%ADD85R,0.0017X0.0450*%
%ADD86R,0.0017X0.0433*%
%ADD87R,0.0017X0.0417*%
%ADD88R,0.0017X0.0183*%
%ADD89R,0.0017X0.0433*%
%ADD90R,0.0017X0.0333*%
%ADD91R,0.0017X0.0400*%
%ADD92R,0.0017X0.0367*%
%ADD93R,0.0017X0.0017*%
%ADD94R,0.0017X0.0333*%
%ADD95R,0.0017X0.0383*%
%ADD96R,0.0017X0.0433*%
%ADD97R,0.0017X0.0717*%
%ADD98R,0.0017X0.0700*%
%ADD99R,0.0017X0.0717*%
%ADD100R,0.0017X0.0317*%
%ADD101R,0.0017X0.0333*%
%ADD102R,0.0017X0.0733*%
%ADD103R,0.0017X0.0717*%
%ADD104R,0.0017X0.0683*%
%ADD105R,0.0017X0.0650*%
%ADD106R,0.0017X0.0617*%
%ADD107R,0.0017X0.0600*%
%ADD108R,0.0017X0.0567*%
%ADD109R,0.0017X0.0367*%
%ADD110R,0.0017X0.0533*%
%ADD111R,0.0017X0.0367*%
%ADD112R,0.0017X0.0417*%
%ADD113R,0.0017X0.0550*%
%ADD114R,0.0017X0.0583*%
%ADD115R,0.0017X0.0733*%
%ADD116R,0.0017X0.0383*%
%ADD117R,0.0017X0.0767*%
%ADD118R,0.0017X0.0783*%
%ADD119R,0.0017X0.0033*%
%ADD120R,0.0017X0.0067*%
%ADD121R,0.0017X0.0533*%
%ADD122R,0.0017X0.0567*%
%ADD123R,0.0017X0.0517*%
%ADD124R,0.0017X0.0567*%
%ADD125R,0.0017X0.0517*%
%ADD126R,0.0017X0.0317*%
%ADD127R,0.0017X0.0067*%
%ADD128R,0.0017X0.0033*%
%ADD129R,0.0017X0.0467*%
%ADD130R,0.0017X0.0583*%
%ADD131R,0.0017X0.0600*%
%ADD132R,0.0017X0.0633*%
%ADD133R,0.0017X0.0683*%
%ADD134R,0.0017X0.0650*%
%ADD135R,0.0017X0.0717*%
%ADD136R,0.0017X0.0533*%
%ADD137R,0.0017X0.0883*%
%ADD138R,0.0017X0.0750*%
%ADD139R,0.0017X0.0883*%
%ADD140R,0.0017X0.0033*%
%ADD141R,0.0017X0.1717*%
%ADD142R,0.0017X0.1683*%
%ADD143R,0.0017X0.1650*%
%ADD144R,0.0017X0.1633*%
%ADD145R,0.0017X0.1333*%
%ADD146R,0.0017X0.1283*%
%ADD147R,0.0017X0.1233*%
%ADD148R,0.0017X0.1183*%
%ADD149R,0.0017X0.0867*%
%ADD150R,0.0017X0.0767*%
%ADD151R,0.0017X0.0050*%
%ADD152C,0.0060*%
%ADD153C,0.0080*%
D10*
X001050Y006300D02*
X001050Y008800D01*
X002050Y008800D01*
X002050Y006550D01*
X002100Y006550D01*
X002150Y006550D01*
X002150Y006200D01*
X001800Y006200D01*
X001800Y006250D01*
X001800Y006300D01*
X001050Y006300D01*
X001800Y006300D02*
X002050Y006300D01*
X002050Y006550D01*
X002100Y006550D02*
X002100Y006250D01*
X001800Y006250D01*
X000452Y011538D02*
X000452Y012562D01*
X017648Y012562D01*
X017648Y011538D01*
X000452Y011538D01*
X000452Y017538D02*
X000452Y018562D01*
X017648Y018562D01*
X017648Y017538D01*
X000452Y017538D01*
X017590Y016468D02*
X017770Y016468D01*
X017815Y016513D01*
X017770Y016620D02*
X017815Y016665D01*
X017815Y016755D01*
X017770Y016800D01*
X017680Y016800D01*
X017635Y016755D01*
X017635Y016665D01*
X017680Y016620D01*
X017770Y016620D01*
X017635Y016513D02*
X017635Y016423D01*
X017680Y016309D02*
X017635Y016264D01*
X017635Y016174D01*
X017680Y016129D01*
X017770Y016129D01*
X017815Y016174D01*
X017815Y016264D01*
X017770Y016309D01*
X017680Y016309D01*
X017635Y016018D02*
X017635Y015973D01*
X017725Y015883D01*
X017815Y015883D02*
X017635Y015883D01*
X017680Y015769D02*
X017725Y015724D01*
X017725Y015588D01*
X017815Y015588D02*
X017545Y015588D01*
X017545Y015724D01*
X017590Y015769D01*
X017680Y015769D01*
X017680Y015474D02*
X017635Y015429D01*
X017635Y015339D01*
X017680Y015294D01*
X017770Y015294D01*
X017815Y015339D01*
X017815Y015429D01*
X017770Y015474D01*
X017680Y015474D01*
X017680Y015179D02*
X017815Y015179D01*
X017680Y015179D02*
X017635Y015134D01*
X017635Y014999D01*
X017815Y014999D01*
X017815Y014885D02*
X017680Y014885D01*
X017635Y014840D01*
X017635Y014750D01*
X017680Y014704D01*
X017635Y014590D02*
X017635Y014455D01*
X017680Y014410D01*
X017770Y014410D01*
X017815Y014455D01*
X017815Y014590D01*
X017815Y014704D02*
X017545Y014704D01*
X017680Y014295D02*
X017815Y014295D01*
X017815Y014160D01*
X017770Y014115D01*
X017725Y014160D01*
X017725Y014295D01*
X017680Y014295D02*
X017635Y014250D01*
X017635Y014160D01*
X017635Y014005D02*
X017635Y013960D01*
X017725Y013870D01*
X017815Y013870D02*
X017635Y013870D01*
X017635Y013755D02*
X017815Y013755D01*
X017680Y013755D02*
X017680Y013575D01*
X017635Y013575D02*
X017545Y013665D01*
X017635Y013755D01*
X017635Y013575D02*
X017815Y013575D01*
X018025Y013665D02*
X018115Y013575D01*
X018205Y013575D01*
X018295Y013665D01*
X018250Y013771D02*
X018295Y013816D01*
X018295Y013952D01*
X018295Y014066D02*
X018205Y014156D01*
X018115Y014156D01*
X018025Y014066D01*
X018115Y013952D02*
X018115Y013816D01*
X018160Y013771D01*
X018250Y013771D01*
X018505Y013710D02*
X018505Y013620D01*
X018550Y013575D01*
X018730Y013575D01*
X018775Y013620D01*
X018775Y013710D01*
X018730Y013755D01*
X018730Y013870D02*
X018775Y013915D01*
X018775Y014005D01*
X018730Y014050D01*
X018640Y014164D02*
X018640Y014344D01*
X018640Y014459D02*
X018640Y014594D01*
X018685Y014639D01*
X018730Y014639D01*
X018775Y014594D01*
X018775Y014459D01*
X018505Y014459D01*
X018505Y014594D01*
X018550Y014639D01*
X018595Y014639D01*
X018640Y014594D01*
X018550Y014754D02*
X018505Y014754D01*
X018550Y014754D02*
X018640Y014844D01*
X018775Y014844D01*
X018640Y014844D02*
X018550Y014934D01*
X018505Y014934D01*
X018640Y015048D02*
X018640Y015228D01*
X018595Y015343D02*
X018640Y015388D01*
X018640Y015478D01*
X018685Y015523D01*
X018730Y015523D01*
X018775Y015478D01*
X018775Y015388D01*
X018730Y015343D01*
X018595Y015343D02*
X018550Y015343D01*
X018505Y015388D01*
X018505Y015478D01*
X018550Y015523D01*
X018595Y015638D02*
X018505Y015728D01*
X018595Y015818D01*
X018775Y015818D01*
X018640Y015818D02*
X018640Y015638D01*
X018595Y015638D02*
X018775Y015638D01*
X018640Y015932D02*
X018640Y016112D01*
X018730Y016227D02*
X018775Y016272D01*
X018775Y016362D01*
X018730Y016407D01*
X018685Y016407D01*
X018640Y016362D01*
X018640Y016317D01*
X018640Y016362D02*
X018595Y016407D01*
X018550Y016407D01*
X018505Y016362D01*
X018505Y016272D01*
X018550Y016227D01*
X018730Y016522D02*
X018730Y016567D01*
X018775Y016567D01*
X018775Y016522D01*
X018730Y016522D01*
X018730Y016669D02*
X018550Y016849D01*
X018730Y016849D01*
X018775Y016804D01*
X018775Y016714D01*
X018730Y016669D01*
X018550Y016669D01*
X018505Y016714D01*
X018505Y016804D01*
X018550Y016849D01*
X019486Y017555D02*
X019486Y017825D01*
X019621Y017825D01*
X019666Y017780D01*
X019666Y017690D01*
X019621Y017645D01*
X019486Y017645D01*
X019576Y017645D02*
X019666Y017555D01*
X019780Y017555D02*
X019961Y017735D01*
X019961Y017780D01*
X019915Y017825D01*
X019825Y017825D01*
X019780Y017780D01*
X019780Y017555D02*
X019961Y017555D01*
X018250Y015621D02*
X018295Y015576D01*
X018295Y015486D01*
X018250Y015441D01*
X018160Y015441D02*
X018115Y015531D01*
X018115Y015576D01*
X018160Y015621D01*
X018250Y015621D01*
X018160Y015441D02*
X018025Y015441D01*
X018025Y015621D01*
X018025Y015237D02*
X018295Y015237D01*
X018295Y015327D02*
X018295Y015146D01*
X018250Y015032D02*
X018295Y014987D01*
X018295Y014897D01*
X018250Y014852D01*
X018070Y015032D01*
X018250Y015032D01*
X018115Y015146D02*
X018025Y015237D01*
X018070Y015032D02*
X018025Y014987D01*
X018025Y014897D01*
X018070Y014852D01*
X018250Y014852D01*
X018295Y014737D02*
X018295Y014557D01*
X018115Y014737D01*
X018070Y014737D01*
X018025Y014692D01*
X018025Y014602D01*
X018070Y014557D01*
X018550Y014050D02*
X018505Y014005D01*
X018505Y013915D01*
X018550Y013870D01*
X018730Y013870D01*
X018550Y013755D02*
X018505Y013710D01*
X019575Y012545D02*
X019575Y012275D01*
X019575Y012365D02*
X019710Y012365D01*
X019755Y012410D01*
X019755Y012500D01*
X019710Y012545D01*
X019575Y012545D01*
X019665Y012365D02*
X019755Y012275D01*
X019870Y012320D02*
X019915Y012275D01*
X020005Y012275D01*
X020050Y012320D01*
X020050Y012365D01*
X020005Y012410D01*
X019960Y012410D01*
X020005Y012410D02*
X020050Y012455D01*
X020050Y012500D01*
X020005Y012545D01*
X019915Y012545D01*
X019870Y012500D01*
X023195Y011044D02*
X023195Y010954D01*
X023240Y010909D01*
X023240Y010794D02*
X023195Y010749D01*
X023195Y010614D01*
X023465Y010614D01*
X023465Y010749D01*
X023420Y010794D01*
X023240Y010794D01*
X023465Y010909D02*
X023285Y011089D01*
X023240Y011089D01*
X023195Y011044D01*
X023465Y011089D02*
X023465Y010909D01*
X023465Y010500D02*
X023465Y010320D01*
X023195Y010320D01*
X023195Y010500D01*
X023330Y010410D02*
X023330Y010320D01*
X023465Y010205D02*
X023465Y010025D01*
X023195Y010025D01*
X023231Y007849D02*
X020869Y007849D01*
X020869Y005251D01*
X023231Y005251D01*
X023231Y007849D01*
X023695Y006811D02*
X023695Y006630D01*
X023695Y006720D02*
X023425Y006720D01*
X023515Y006630D01*
X023470Y006516D02*
X023425Y006471D01*
X023425Y006381D01*
X023470Y006336D01*
X023515Y006336D01*
X023560Y006381D01*
X023560Y006471D01*
X023605Y006516D01*
X023650Y006516D01*
X023695Y006471D01*
X023695Y006381D01*
X023650Y006336D01*
X021656Y006550D02*
X021658Y006589D01*
X021664Y006628D01*
X021674Y006666D01*
X021687Y006703D01*
X021704Y006738D01*
X021724Y006772D01*
X021748Y006803D01*
X021775Y006832D01*
X021804Y006858D01*
X021836Y006881D01*
X021870Y006901D01*
X021906Y006917D01*
X021943Y006929D01*
X021982Y006938D01*
X022021Y006943D01*
X022060Y006944D01*
X022099Y006941D01*
X022138Y006934D01*
X022175Y006923D01*
X022212Y006909D01*
X022247Y006891D01*
X022280Y006870D01*
X022311Y006845D01*
X022339Y006818D01*
X022364Y006788D01*
X022386Y006755D01*
X022405Y006721D01*
X022420Y006685D01*
X022432Y006647D01*
X022440Y006609D01*
X022444Y006570D01*
X022444Y006530D01*
X022440Y006491D01*
X022432Y006453D01*
X022420Y006415D01*
X022405Y006379D01*
X022386Y006345D01*
X022364Y006312D01*
X022339Y006282D01*
X022311Y006255D01*
X022280Y006230D01*
X022247Y006209D01*
X022212Y006191D01*
X022175Y006177D01*
X022138Y006166D01*
X022099Y006159D01*
X022060Y006156D01*
X022021Y006157D01*
X021982Y006162D01*
X021943Y006171D01*
X021906Y006183D01*
X021870Y006199D01*
X021836Y006219D01*
X021804Y006242D01*
X021775Y006268D01*
X021748Y006297D01*
X021724Y006328D01*
X021704Y006362D01*
X021687Y006397D01*
X021674Y006434D01*
X021664Y006472D01*
X021658Y006511D01*
X021656Y006550D01*
X021458Y006550D02*
X021460Y006598D01*
X021466Y006646D01*
X021476Y006693D01*
X021489Y006740D01*
X021507Y006785D01*
X021528Y006828D01*
X021552Y006870D01*
X021580Y006910D01*
X021611Y006947D01*
X021644Y006981D01*
X021681Y007013D01*
X021720Y007041D01*
X021761Y007067D01*
X021804Y007089D01*
X021849Y007107D01*
X021895Y007121D01*
X021942Y007132D01*
X021990Y007139D01*
X022038Y007142D01*
X022086Y007141D01*
X022134Y007136D01*
X022182Y007127D01*
X022228Y007114D01*
X022274Y007098D01*
X022318Y007078D01*
X022360Y007054D01*
X022400Y007028D01*
X022438Y006997D01*
X022473Y006964D01*
X022505Y006928D01*
X022535Y006890D01*
X022561Y006849D01*
X022583Y006807D01*
X022603Y006763D01*
X022618Y006717D01*
X022630Y006670D01*
X022638Y006622D01*
X022642Y006574D01*
X022642Y006526D01*
X022638Y006478D01*
X022630Y006430D01*
X022618Y006383D01*
X022603Y006337D01*
X022583Y006293D01*
X022561Y006251D01*
X022535Y006210D01*
X022505Y006172D01*
X022473Y006136D01*
X022438Y006103D01*
X022400Y006072D01*
X022360Y006046D01*
X022318Y006022D01*
X022274Y006002D01*
X022228Y005986D01*
X022182Y005973D01*
X022134Y005964D01*
X022086Y005959D01*
X022038Y005958D01*
X021990Y005961D01*
X021942Y005968D01*
X021895Y005979D01*
X021849Y005993D01*
X021804Y006011D01*
X021761Y006033D01*
X021720Y006059D01*
X021681Y006087D01*
X021644Y006119D01*
X021611Y006153D01*
X021580Y006190D01*
X021552Y006230D01*
X021528Y006272D01*
X021507Y006315D01*
X021489Y006360D01*
X021476Y006407D01*
X021466Y006454D01*
X021460Y006502D01*
X021458Y006550D01*
X023125Y004170D02*
X023395Y004170D01*
X023395Y004080D02*
X023395Y004261D01*
X023215Y004080D02*
X023125Y004170D01*
X023170Y003966D02*
X023125Y003921D01*
X023125Y003786D01*
X023395Y003786D01*
X023305Y003786D02*
X023305Y003921D01*
X023260Y003966D01*
X023170Y003966D01*
X023305Y003876D02*
X023395Y003966D01*
X023465Y018975D02*
X023195Y018975D01*
X023465Y018975D02*
X023465Y019155D01*
X023465Y019270D02*
X023195Y019270D01*
X023195Y019450D01*
X023195Y019564D02*
X023195Y019699D01*
X023240Y019744D01*
X023420Y019744D01*
X023465Y019699D01*
X023465Y019564D01*
X023195Y019564D01*
X023330Y019360D02*
X023330Y019270D01*
X023465Y019270D02*
X023465Y019450D01*
X023465Y019859D02*
X023465Y020039D01*
X023465Y019949D02*
X023195Y019949D01*
X023285Y019859D01*
X023231Y022251D02*
X020869Y022251D01*
X020869Y024849D01*
X023231Y024849D01*
X023231Y022251D01*
X023470Y023286D02*
X023515Y023286D01*
X023560Y023331D01*
X023560Y023421D01*
X023605Y023466D01*
X023650Y023466D01*
X023695Y023421D01*
X023695Y023331D01*
X023650Y023286D01*
X023470Y023286D02*
X023425Y023331D01*
X023425Y023421D01*
X023470Y023466D01*
X023470Y023580D02*
X023425Y023625D01*
X023425Y023715D01*
X023470Y023761D01*
X023515Y023761D01*
X023695Y023580D01*
X023695Y023761D01*
X021656Y023550D02*
X021658Y023589D01*
X021664Y023628D01*
X021674Y023666D01*
X021687Y023703D01*
X021704Y023738D01*
X021724Y023772D01*
X021748Y023803D01*
X021775Y023832D01*
X021804Y023858D01*
X021836Y023881D01*
X021870Y023901D01*
X021906Y023917D01*
X021943Y023929D01*
X021982Y023938D01*
X022021Y023943D01*
X022060Y023944D01*
X022099Y023941D01*
X022138Y023934D01*
X022175Y023923D01*
X022212Y023909D01*
X022247Y023891D01*
X022280Y023870D01*
X022311Y023845D01*
X022339Y023818D01*
X022364Y023788D01*
X022386Y023755D01*
X022405Y023721D01*
X022420Y023685D01*
X022432Y023647D01*
X022440Y023609D01*
X022444Y023570D01*
X022444Y023530D01*
X022440Y023491D01*
X022432Y023453D01*
X022420Y023415D01*
X022405Y023379D01*
X022386Y023345D01*
X022364Y023312D01*
X022339Y023282D01*
X022311Y023255D01*
X022280Y023230D01*
X022247Y023209D01*
X022212Y023191D01*
X022175Y023177D01*
X022138Y023166D01*
X022099Y023159D01*
X022060Y023156D01*
X022021Y023157D01*
X021982Y023162D01*
X021943Y023171D01*
X021906Y023183D01*
X021870Y023199D01*
X021836Y023219D01*
X021804Y023242D01*
X021775Y023268D01*
X021748Y023297D01*
X021724Y023328D01*
X021704Y023362D01*
X021687Y023397D01*
X021674Y023434D01*
X021664Y023472D01*
X021658Y023511D01*
X021656Y023550D01*
X021458Y023550D02*
X021460Y023598D01*
X021466Y023646D01*
X021476Y023693D01*
X021489Y023740D01*
X021507Y023785D01*
X021528Y023828D01*
X021552Y023870D01*
X021580Y023910D01*
X021611Y023947D01*
X021644Y023981D01*
X021681Y024013D01*
X021720Y024041D01*
X021761Y024067D01*
X021804Y024089D01*
X021849Y024107D01*
X021895Y024121D01*
X021942Y024132D01*
X021990Y024139D01*
X022038Y024142D01*
X022086Y024141D01*
X022134Y024136D01*
X022182Y024127D01*
X022228Y024114D01*
X022274Y024098D01*
X022318Y024078D01*
X022360Y024054D01*
X022400Y024028D01*
X022438Y023997D01*
X022473Y023964D01*
X022505Y023928D01*
X022535Y023890D01*
X022561Y023849D01*
X022583Y023807D01*
X022603Y023763D01*
X022618Y023717D01*
X022630Y023670D01*
X022638Y023622D01*
X022642Y023574D01*
X022642Y023526D01*
X022638Y023478D01*
X022630Y023430D01*
X022618Y023383D01*
X022603Y023337D01*
X022583Y023293D01*
X022561Y023251D01*
X022535Y023210D01*
X022505Y023172D01*
X022473Y023136D01*
X022438Y023103D01*
X022400Y023072D01*
X022360Y023046D01*
X022318Y023022D01*
X022274Y023002D01*
X022228Y022986D01*
X022182Y022973D01*
X022134Y022964D01*
X022086Y022959D01*
X022038Y022958D01*
X021990Y022961D01*
X021942Y022968D01*
X021895Y022979D01*
X021849Y022993D01*
X021804Y023011D01*
X021761Y023033D01*
X021720Y023059D01*
X021681Y023087D01*
X021644Y023119D01*
X021611Y023153D01*
X021580Y023190D01*
X021552Y023230D01*
X021528Y023272D01*
X021507Y023315D01*
X021489Y023360D01*
X021476Y023407D01*
X021466Y023454D01*
X021460Y023502D01*
X021458Y023550D01*
X023175Y025786D02*
X023175Y025921D01*
X023220Y025966D01*
X023310Y025966D01*
X023355Y025921D01*
X023355Y025786D01*
X023355Y025876D02*
X023445Y025966D01*
X023310Y026080D02*
X023310Y026261D01*
X023445Y026215D02*
X023175Y026215D01*
X023310Y026080D01*
X023445Y025786D02*
X023175Y025786D01*
D11*
X020550Y027550D02*
X020550Y019550D01*
X019550Y019550D01*
X019550Y020550D01*
X020550Y020550D01*
X019550Y020550D02*
X019550Y027550D01*
X020550Y027550D01*
X019550Y027550D02*
X019550Y019550D01*
X018550Y019550D01*
X018550Y020550D01*
X019550Y020550D01*
X018550Y020550D02*
X018550Y027550D01*
X019550Y027550D01*
X017550Y020550D02*
X017550Y019550D01*
X000550Y019550D01*
X000550Y020550D01*
X001550Y020550D01*
X001550Y019550D01*
X001550Y020550D02*
X017550Y020550D01*
X017550Y010550D02*
X017550Y009550D01*
X000550Y009550D01*
X000550Y010550D01*
X001550Y010550D01*
X001550Y009550D01*
X001550Y010550D02*
X017550Y010550D01*
X018550Y010550D02*
X018550Y002550D01*
X019550Y002550D01*
X019550Y009550D01*
X018550Y009550D01*
X018550Y010550D02*
X019550Y010550D01*
X019550Y009550D01*
X020550Y009550D01*
X020550Y002550D01*
X019550Y002550D01*
X019550Y010550D01*
X020550Y010550D01*
X020550Y009550D01*
D12*
X022271Y010279D03*
X022271Y010821D03*
X022271Y019279D03*
X022271Y019821D03*
D13*
X022119Y019550D03*
X022119Y010550D03*
D14*
X022183Y013617D03*
X022217Y013633D03*
X022233Y013633D03*
X023167Y015367D03*
X020167Y016817D03*
X019733Y016117D03*
X019767Y014483D03*
D15*
X021000Y016525D03*
X021050Y016525D03*
X021100Y016525D03*
X021150Y016525D03*
X021600Y016525D03*
X021650Y016525D03*
X021700Y016525D03*
X023150Y015375D03*
D16*
X023133Y015375D03*
D17*
X023117Y015375D03*
D18*
X023100Y015383D03*
D19*
X023083Y015383D03*
D20*
X023067Y015375D03*
D21*
X023050Y014950D03*
X021250Y015400D03*
X020300Y013750D03*
D22*
X020550Y014533D03*
X019850Y016433D03*
X023050Y015800D03*
D23*
X023033Y015883D03*
X022167Y016267D03*
X021283Y015400D03*
X021083Y015583D03*
X019783Y014467D03*
X020683Y013550D03*
X020717Y013533D03*
X020733Y013533D03*
X020767Y013517D03*
X020783Y013517D03*
X021767Y013467D03*
X022167Y013617D03*
X022617Y013867D03*
X022633Y013850D03*
X023033Y014867D03*
X021067Y017267D03*
X020983Y017250D03*
D24*
X020917Y017208D03*
X020617Y017092D03*
X020217Y016825D03*
X020917Y015675D03*
X020933Y015675D03*
X020633Y014692D03*
X020383Y013742D03*
X020817Y013525D03*
X021317Y013442D03*
X022133Y013625D03*
X022533Y013908D03*
X023017Y014808D03*
D25*
X023017Y015950D03*
X021083Y017250D03*
X020367Y013750D03*
D26*
X020850Y013542D03*
X023000Y014758D03*
X022050Y016108D03*
D27*
X023000Y016000D03*
X020400Y013750D03*
D28*
X020083Y014058D03*
X019867Y014358D03*
X020717Y014792D03*
X020733Y014808D03*
X020767Y014842D03*
X020783Y014858D03*
X020817Y014892D03*
X020833Y014908D03*
X020867Y014942D03*
X020883Y014958D03*
X020917Y014992D03*
X020933Y015008D03*
X020967Y015042D03*
X020983Y015058D03*
X021017Y015092D03*
X021033Y015108D03*
X021067Y015142D03*
X021083Y015158D03*
X021583Y015642D03*
X021633Y015692D03*
X021683Y015742D03*
X021733Y015792D03*
X021783Y015842D03*
X021833Y015892D03*
X021883Y015942D03*
X022417Y016342D03*
X022967Y016092D03*
X022983Y014708D03*
D29*
X022117Y013633D03*
X020683Y014767D03*
X021033Y015583D03*
X021017Y015600D03*
X021517Y015583D03*
X021533Y015600D03*
X021917Y015967D03*
X021933Y015983D03*
X021967Y016017D03*
X021983Y016033D03*
X022017Y016067D03*
X022033Y016083D03*
X022983Y016050D03*
X021117Y017217D03*
X020067Y014067D03*
X020417Y013750D03*
D30*
X019917Y014283D03*
X020983Y015617D03*
X021567Y015167D03*
X021617Y015117D03*
X021667Y015067D03*
X022967Y014667D03*
X020017Y016567D03*
X019983Y016517D03*
D31*
X022950Y014633D03*
D32*
X022950Y016125D03*
X020900Y017142D03*
X020050Y016592D03*
X020000Y016542D03*
X020150Y014458D03*
X020450Y013758D03*
D33*
X021367Y013500D03*
X022067Y013650D03*
X022933Y014600D03*
X022917Y016200D03*
X019767Y016600D03*
D34*
X020083Y016633D03*
X019567Y016167D03*
X020683Y017067D03*
X020367Y014567D03*
X021133Y013517D03*
X021617Y013517D03*
X022933Y016167D03*
D35*
X022867Y016283D03*
X022917Y014567D03*
X022433Y013900D03*
X022417Y013883D03*
X022367Y013850D03*
X022317Y013817D03*
X022683Y013783D03*
X022183Y014533D03*
X022083Y014633D03*
X022017Y014667D03*
X021983Y014700D03*
X021967Y014717D03*
X020483Y013767D03*
X020233Y013950D03*
X020183Y013983D03*
X020167Y014000D03*
X020133Y014033D03*
X019883Y013933D03*
X019617Y014333D03*
X019467Y014783D03*
X019417Y015250D03*
X019383Y015250D03*
X019417Y015717D03*
X019433Y015717D03*
X019533Y016183D03*
X020067Y016950D03*
X020317Y016833D03*
X020367Y016867D03*
X020383Y016883D03*
X020417Y016900D03*
X020433Y016917D03*
X020333Y014567D03*
X020217Y014533D03*
X020117Y014433D03*
D36*
X020500Y013758D03*
X020250Y013642D03*
X021200Y014092D03*
X021250Y014092D03*
X021300Y014092D03*
X021350Y014092D03*
X021400Y014092D03*
X021450Y014092D03*
X021500Y014092D03*
X021550Y014092D03*
X022050Y014642D03*
X021750Y014942D03*
X021700Y014992D03*
X020900Y015758D03*
X020850Y015792D03*
X020800Y015842D03*
X021200Y016358D03*
X021250Y016358D03*
X021450Y016358D03*
X021500Y016358D03*
X021550Y016358D03*
X020850Y017092D03*
X020750Y017058D03*
X022800Y016392D03*
X022900Y014542D03*
X022350Y013842D03*
X022300Y013808D03*
D37*
X022150Y014575D03*
X022100Y014625D03*
X020900Y013575D03*
X019550Y016175D03*
X020300Y016825D03*
X021150Y017175D03*
X022900Y016225D03*
D38*
X022767Y016433D03*
X022467Y016333D03*
X021383Y017167D03*
X021367Y017167D03*
X021333Y017167D03*
X021317Y017167D03*
X021283Y017167D03*
X021267Y017167D03*
X021233Y017167D03*
X021217Y017167D03*
X021183Y017167D03*
X021167Y017167D03*
X020817Y017083D03*
X020767Y017067D03*
X020867Y015783D03*
X021767Y014933D03*
X021783Y014917D03*
X021817Y014883D03*
X021833Y014867D03*
X021867Y014833D03*
X021883Y014817D03*
X021917Y014783D03*
X021933Y014767D03*
X022267Y014467D03*
X022317Y014433D03*
X022867Y014483D03*
X022883Y014517D03*
X022033Y013667D03*
X022017Y013667D03*
X020567Y013733D03*
X020317Y014567D03*
X020283Y014567D03*
X020267Y014567D03*
X019583Y014317D03*
X019417Y014767D03*
X019367Y015733D03*
X019717Y016633D03*
D39*
X020333Y016842D03*
X019467Y015708D03*
X019433Y015258D03*
X019483Y014792D03*
X019633Y014342D03*
X020133Y014442D03*
X020183Y014492D03*
X020117Y014042D03*
X020467Y013758D03*
X022117Y014608D03*
X022133Y014592D03*
X022167Y014558D03*
X022217Y016208D03*
X022883Y016258D03*
D40*
X022650Y016575D03*
X022600Y016625D03*
X021550Y016775D03*
X021600Y017142D03*
X021500Y017158D03*
X021450Y017158D03*
X020500Y016158D03*
X020550Y016108D03*
X020600Y016058D03*
X020650Y016008D03*
X020700Y015958D03*
X020750Y015908D03*
X020250Y014558D03*
X020550Y013742D03*
X020650Y013692D03*
X021900Y013625D03*
X021950Y013642D03*
X022000Y013658D03*
X022350Y014408D03*
X022300Y014442D03*
X022850Y014475D03*
D41*
X022400Y013867D03*
X022050Y013667D03*
X021850Y013583D03*
X021600Y013533D03*
X022000Y014683D03*
X022850Y016317D03*
X020450Y016917D03*
X020400Y016883D03*
X019400Y015250D03*
X020350Y014567D03*
X020150Y014017D03*
X020250Y013933D03*
D42*
X021417Y013550D03*
X021433Y013550D03*
X021467Y013550D03*
X021483Y013550D03*
X021517Y013550D03*
X021533Y013550D03*
X021567Y013550D03*
X022367Y014400D03*
X022783Y014400D03*
X022833Y014450D03*
X022567Y016650D03*
X022517Y016700D03*
X022317Y016850D03*
X021933Y017050D03*
X021783Y017100D03*
X021767Y017100D03*
X021533Y017150D03*
X019283Y015250D03*
D43*
X019517Y016192D03*
X020833Y015808D03*
X021167Y016358D03*
X021183Y016358D03*
X021217Y016358D03*
X021233Y016358D03*
X021267Y016358D03*
X021467Y016358D03*
X021483Y016358D03*
X021517Y016358D03*
X021533Y016358D03*
X020833Y017092D03*
X020733Y017058D03*
X020717Y017058D03*
X021683Y015008D03*
X021733Y014958D03*
X022033Y014658D03*
X022067Y014642D03*
X022217Y014508D03*
X022233Y014492D03*
X022383Y013858D03*
X021533Y014092D03*
X021517Y014092D03*
X021483Y014092D03*
X021467Y014092D03*
X021433Y014092D03*
X021417Y014092D03*
X021383Y014092D03*
X021367Y014092D03*
X021333Y014092D03*
X021317Y014092D03*
X021283Y014092D03*
X021267Y014092D03*
X021233Y014092D03*
X021217Y014092D03*
X021183Y014092D03*
X021167Y014092D03*
X020217Y013958D03*
X022817Y016358D03*
X022833Y016342D03*
X022783Y016408D03*
D44*
X022583Y016633D03*
X022533Y016683D03*
X022483Y016733D03*
X022433Y016767D03*
X022417Y016783D03*
X022367Y016817D03*
X022267Y016883D03*
X022217Y016917D03*
X022183Y016933D03*
X022117Y016967D03*
X022083Y016983D03*
X022017Y017017D03*
X021967Y017033D03*
X021883Y017067D03*
X021833Y017083D03*
X021817Y017083D03*
X021733Y017117D03*
X021717Y017117D03*
X021683Y017117D03*
X021667Y017133D03*
X021633Y017133D03*
X021617Y017133D03*
X021533Y016783D03*
X021517Y016783D03*
X021483Y016783D03*
X021233Y016783D03*
X021217Y016783D03*
X021183Y016783D03*
X020467Y016183D03*
X020883Y015783D03*
X021517Y014517D03*
X021533Y014517D03*
X022383Y014383D03*
X022817Y014433D03*
X021867Y013617D03*
X021117Y013567D03*
X021083Y013567D03*
X021067Y013567D03*
X021033Y013583D03*
X021017Y013583D03*
X020983Y013583D03*
X022233Y016183D03*
D45*
X022550Y016667D03*
X022500Y016717D03*
X022350Y016833D03*
X021700Y017117D03*
X021650Y017133D03*
X021500Y016783D03*
X021200Y016783D03*
X020050Y016967D03*
X019450Y016217D03*
X021000Y013583D03*
X021050Y013567D03*
X021100Y013567D03*
X021550Y014517D03*
X022400Y014383D03*
X022800Y014417D03*
X022700Y013767D03*
D46*
X022483Y014342D03*
X022433Y014358D03*
X022767Y014392D03*
X022467Y016742D03*
X022383Y016808D03*
X022333Y016842D03*
X022233Y016908D03*
X022167Y016942D03*
X022133Y016958D03*
X022067Y016992D03*
X022033Y017008D03*
X021917Y017058D03*
X021467Y016792D03*
X021433Y016792D03*
X021267Y016792D03*
X020433Y016192D03*
X020417Y016208D03*
X020383Y016242D03*
X019317Y015742D03*
X019267Y015242D03*
X019367Y014758D03*
X020417Y014258D03*
X020667Y013408D03*
D47*
X021450Y014525D03*
X021500Y014525D03*
X022750Y014375D03*
X022200Y016925D03*
X022100Y016975D03*
X022000Y017025D03*
X021850Y017075D03*
X020450Y017225D03*
X020400Y016225D03*
D48*
X019500Y016200D03*
X019350Y015250D03*
X021800Y014900D03*
X021850Y014850D03*
X021900Y014800D03*
X021950Y014750D03*
X022750Y016450D03*
D49*
X022733Y013725D03*
X020217Y016425D03*
D50*
X020033Y016983D03*
X019283Y015750D03*
X019233Y015250D03*
X019333Y014750D03*
X021433Y014533D03*
X022467Y014350D03*
X022517Y014333D03*
X022717Y014350D03*
X022733Y014367D03*
X022267Y016183D03*
X022367Y016217D03*
X022383Y016233D03*
X022483Y016333D03*
D51*
X022733Y016475D03*
X022683Y016542D03*
X022667Y016558D03*
X022633Y016592D03*
X022617Y016608D03*
X021583Y017142D03*
X021567Y017142D03*
X021517Y017158D03*
X021483Y017158D03*
X021467Y017158D03*
X021433Y017158D03*
X021417Y017158D03*
X021167Y016775D03*
X020533Y016125D03*
X020517Y016142D03*
X020483Y016175D03*
X020567Y016092D03*
X020583Y016075D03*
X020617Y016042D03*
X020633Y016025D03*
X020667Y015992D03*
X020683Y015975D03*
X020717Y015942D03*
X020733Y015925D03*
X020767Y015892D03*
X020783Y015875D03*
X019567Y014308D03*
X019867Y013925D03*
X020517Y013758D03*
X020583Y013725D03*
X020617Y013708D03*
X020633Y013708D03*
X020667Y013692D03*
X020933Y013592D03*
X020967Y013592D03*
X021583Y013558D03*
X021883Y013625D03*
X021917Y013625D03*
X021933Y013642D03*
X021967Y013642D03*
X021983Y013658D03*
X022333Y014425D03*
X019383Y014758D03*
X019317Y015242D03*
X019333Y015742D03*
X019467Y016208D03*
D52*
X019267Y015742D03*
X019683Y016642D03*
X022217Y016442D03*
X022233Y016458D03*
X022383Y016458D03*
X022317Y016192D03*
X022283Y016192D03*
X022683Y014342D03*
X022717Y013742D03*
D53*
X022283Y014450D03*
X022717Y016500D03*
X020883Y017100D03*
X020867Y017100D03*
X019483Y016200D03*
X019367Y015250D03*
X019333Y015250D03*
X020233Y014550D03*
X020533Y013750D03*
D54*
X019250Y015700D03*
X022700Y014000D03*
D55*
X022700Y014342D03*
X022300Y016192D03*
X022350Y016208D03*
X020900Y015558D03*
D56*
X020300Y014567D03*
X020600Y013717D03*
X019400Y014767D03*
X019350Y015733D03*
X021200Y017167D03*
X021250Y017167D03*
X021300Y017167D03*
X021350Y017167D03*
X021400Y017167D03*
X022700Y016517D03*
X022250Y014483D03*
D57*
X022683Y014000D03*
X021683Y015167D03*
X020333Y014183D03*
X020167Y016467D03*
D58*
X020033Y016575D03*
X020067Y016608D03*
X020283Y016825D03*
X020083Y016942D03*
X020383Y014558D03*
X020167Y014475D03*
X019917Y013958D03*
X020883Y013558D03*
X022083Y013642D03*
X022467Y013908D03*
X022667Y013792D03*
X022433Y016342D03*
D59*
X022667Y014000D03*
X020017Y017000D03*
D60*
X020383Y014225D03*
X022533Y014325D03*
X022567Y014325D03*
X022633Y014325D03*
X022667Y014325D03*
D61*
X022550Y013908D03*
X022650Y013842D03*
X021750Y013458D03*
X021700Y013458D03*
X021300Y015392D03*
X019900Y016458D03*
D62*
X022550Y014325D03*
X022650Y014325D03*
D63*
X022617Y014317D03*
X022583Y014317D03*
X020367Y016283D03*
D64*
X020950Y017242D03*
X021000Y017258D03*
X021050Y017258D03*
X021350Y015358D03*
X022600Y013892D03*
D65*
X022600Y014317D03*
X022250Y016467D03*
D66*
X021267Y015400D03*
X022583Y013900D03*
X020333Y013750D03*
X019883Y016450D03*
D67*
X020583Y017108D03*
X020933Y017242D03*
X020967Y017242D03*
X021017Y017258D03*
X021033Y017258D03*
X022567Y013908D03*
D68*
X022517Y013900D03*
X020967Y015650D03*
X022083Y016150D03*
X019467Y015300D03*
D69*
X019850Y014383D03*
X020700Y014783D03*
X021900Y015950D03*
X021950Y016000D03*
X022000Y016050D03*
X022400Y016333D03*
X020650Y017083D03*
X019950Y016483D03*
X021650Y013483D03*
X022500Y013900D03*
D70*
X022500Y014333D03*
X022300Y013500D03*
X020400Y014233D03*
X019850Y013917D03*
X019550Y014300D03*
X019250Y015250D03*
D71*
X019967Y016500D03*
X021133Y017200D03*
X021583Y015150D03*
X021633Y015100D03*
X022483Y013900D03*
X021633Y013500D03*
X020867Y013550D03*
X020433Y013750D03*
D72*
X020100Y014050D03*
X019450Y015250D03*
X022450Y013900D03*
D73*
X022450Y014358D03*
X022250Y016192D03*
X022450Y016758D03*
X022400Y016792D03*
X022300Y016858D03*
X022250Y016892D03*
X021950Y017042D03*
X021900Y017058D03*
X021800Y017092D03*
X021450Y016792D03*
X021250Y016792D03*
X020450Y016192D03*
X019700Y016642D03*
X019300Y015742D03*
X019350Y014758D03*
X020100Y014408D03*
D74*
X020200Y014508D03*
X019650Y014358D03*
X019900Y013942D03*
X019500Y014792D03*
X019450Y015708D03*
X019750Y016608D03*
X020350Y016858D03*
X020700Y017058D03*
X022450Y016342D03*
D75*
X022283Y016875D03*
X021983Y017025D03*
X021867Y017075D03*
X021483Y014525D03*
X021467Y014525D03*
X022417Y014375D03*
X020233Y013625D03*
X019433Y016225D03*
D76*
X019417Y016208D03*
X020283Y016358D03*
X020317Y016325D03*
X020333Y016308D03*
X020883Y015558D03*
X020367Y014208D03*
X019833Y013908D03*
X020217Y013592D03*
X022267Y016475D03*
X022317Y016475D03*
X022333Y016475D03*
X022367Y016475D03*
D77*
X022350Y016475D03*
X022300Y016492D03*
X020350Y016292D03*
X020300Y016342D03*
D78*
X019733Y016625D03*
X019383Y015725D03*
X019433Y014775D03*
X020817Y015825D03*
X021717Y014975D03*
X022333Y013825D03*
X021383Y013525D03*
X020917Y013575D03*
X020783Y017075D03*
D79*
X022333Y016200D03*
X019533Y014300D03*
D80*
X019983Y014092D03*
X020317Y013742D03*
X020617Y014625D03*
X021367Y015358D03*
X020533Y017092D03*
X020517Y017092D03*
X020483Y017075D03*
X020567Y017108D03*
X019717Y016075D03*
X022267Y013658D03*
X022283Y013658D03*
D81*
X022283Y016483D03*
X020267Y016367D03*
X019317Y014767D03*
D82*
X020550Y017108D03*
X022250Y013642D03*
D83*
X022200Y013617D03*
X020000Y014083D03*
D84*
X020200Y013975D03*
X019600Y014325D03*
X019450Y014775D03*
X019400Y015725D03*
X020800Y017075D03*
X022200Y014525D03*
D85*
X021100Y015583D03*
X022150Y016250D03*
X022200Y016283D03*
X020600Y017100D03*
X019750Y016150D03*
X020350Y013750D03*
X020700Y013550D03*
X020750Y013533D03*
X020800Y013517D03*
D86*
X021283Y013425D03*
X021783Y013475D03*
X021817Y013475D03*
X020017Y014075D03*
X021317Y015375D03*
X022133Y016225D03*
X022183Y016275D03*
D87*
X022150Y013617D03*
X021250Y013433D03*
X021200Y013433D03*
D88*
X021400Y013550D03*
X021450Y013550D03*
X021500Y013550D03*
X021550Y013550D03*
X020950Y013600D03*
X019300Y015250D03*
X021550Y017150D03*
X021750Y017100D03*
X022050Y017000D03*
X022150Y016950D03*
D89*
X022117Y016208D03*
X021333Y015358D03*
X019767Y016192D03*
X021683Y013458D03*
X021717Y013458D03*
X021733Y013458D03*
D90*
X022100Y013642D03*
X021550Y015608D03*
X021600Y015658D03*
X021650Y015708D03*
X021700Y015758D03*
X021750Y015808D03*
X021800Y015858D03*
X021850Y015908D03*
X021000Y015608D03*
D91*
X020950Y015658D03*
X022100Y016175D03*
X019800Y014458D03*
D92*
X021283Y016425D03*
X021317Y016425D03*
X021333Y016425D03*
X021367Y016425D03*
X021383Y016425D03*
X021417Y016425D03*
X021433Y016425D03*
X022067Y016125D03*
X021533Y015175D03*
D93*
X021950Y014617D03*
X019500Y014317D03*
D94*
X019883Y014325D03*
X021567Y015625D03*
X021617Y015675D03*
X021667Y015725D03*
X021717Y015775D03*
X021767Y015825D03*
X021817Y015875D03*
X021867Y015925D03*
X020667Y017075D03*
X020267Y016825D03*
D95*
X020233Y016833D03*
X020633Y017083D03*
X019933Y016483D03*
X021517Y015183D03*
X021133Y014083D03*
X021117Y014083D03*
X021083Y014083D03*
X021067Y014083D03*
X021033Y014083D03*
X021017Y014083D03*
X020833Y013533D03*
X021667Y013467D03*
X021833Y013517D03*
D96*
X021800Y013475D03*
X021300Y013425D03*
X020200Y016825D03*
D97*
X021567Y014250D03*
X021583Y014250D03*
X021617Y014250D03*
X021633Y014250D03*
X021667Y014250D03*
X021683Y014250D03*
X021717Y014250D03*
D98*
X021717Y016525D03*
X021683Y016525D03*
X021667Y016525D03*
X021633Y016525D03*
X021617Y016525D03*
X021583Y016525D03*
X021567Y016525D03*
X021133Y016525D03*
X021117Y016525D03*
X021083Y016525D03*
X021067Y016525D03*
X021033Y016525D03*
X021017Y016525D03*
X019667Y015942D03*
D99*
X021600Y014250D03*
X021650Y014250D03*
X021700Y014250D03*
D100*
X021650Y015083D03*
X021600Y015133D03*
X021350Y013483D03*
D101*
X021150Y013475D03*
X020750Y014825D03*
X020800Y014875D03*
X020850Y014925D03*
X020900Y014975D03*
X020950Y015025D03*
X021000Y015075D03*
X021050Y015125D03*
X021100Y015175D03*
X021550Y015175D03*
D102*
X021500Y015375D03*
D103*
X021483Y015367D03*
X019783Y016367D03*
D104*
X021183Y015417D03*
X021467Y015367D03*
D105*
X021450Y015367D03*
X021200Y015417D03*
D106*
X021433Y015367D03*
D107*
X021417Y015358D03*
D108*
X021400Y015358D03*
X020500Y014492D03*
X020450Y014458D03*
X019950Y014108D03*
D109*
X020650Y014725D03*
X021300Y016425D03*
X021350Y016425D03*
X021400Y016425D03*
X020250Y016825D03*
D110*
X021383Y015358D03*
X019967Y014092D03*
D111*
X019833Y014408D03*
X019817Y014442D03*
X020417Y014542D03*
X020667Y014742D03*
X021333Y013458D03*
D112*
X021267Y013433D03*
X021233Y013433D03*
X021217Y013433D03*
X021183Y013433D03*
X021167Y013433D03*
X020033Y014067D03*
X021067Y015583D03*
X019917Y016467D03*
D113*
X020133Y016817D03*
X021233Y015400D03*
X020583Y014567D03*
X020567Y014550D03*
X020533Y014517D03*
X020483Y014483D03*
X020433Y014450D03*
D114*
X021217Y015400D03*
D115*
X021167Y015425D03*
D116*
X021050Y015583D03*
X021050Y014083D03*
X021000Y014083D03*
X021100Y014083D03*
X021150Y014083D03*
X020050Y014067D03*
X021100Y017233D03*
D117*
X021150Y015425D03*
D118*
X021133Y015417D03*
X021117Y015417D03*
X019683Y014617D03*
D119*
X020983Y015808D03*
D120*
X020867Y015558D03*
X020233Y016408D03*
X020183Y016458D03*
X019667Y016642D03*
X019517Y014308D03*
X019817Y013908D03*
D121*
X019750Y014508D03*
X020600Y014592D03*
D122*
X020517Y014508D03*
D123*
X020150Y016817D03*
X020500Y017083D03*
D124*
X020467Y014475D03*
D125*
X020267Y013783D03*
X020283Y013767D03*
X019867Y016433D03*
X020467Y017067D03*
D126*
X020400Y014550D03*
X019900Y014300D03*
D127*
X020350Y014192D03*
X020250Y016392D03*
X020200Y016442D03*
D128*
X020150Y016475D03*
X020200Y013575D03*
D129*
X020183Y016825D03*
D130*
X020117Y016817D03*
X019833Y016417D03*
X019683Y015983D03*
X019733Y014533D03*
X019933Y014117D03*
D131*
X020100Y016808D03*
D132*
X019817Y016408D03*
D133*
X019800Y016383D03*
D134*
X019717Y014550D03*
D135*
X019700Y014583D03*
D136*
X019700Y016025D03*
D137*
X019667Y014667D03*
D138*
X019650Y014917D03*
D139*
X019650Y015850D03*
D140*
X019650Y016642D03*
D141*
X019633Y015433D03*
D142*
X019617Y015450D03*
D143*
X019600Y015467D03*
D144*
X019583Y015475D03*
D145*
X019567Y015325D03*
D146*
X019550Y015300D03*
D147*
X019533Y015275D03*
D148*
X019517Y015250D03*
D149*
X019500Y015408D03*
D150*
X019483Y015458D03*
D151*
X019400Y016200D03*
D152*
X001131Y001800D02*
X001133Y001851D01*
X001139Y001902D01*
X001149Y001952D01*
X001162Y002002D01*
X001180Y002050D01*
X001200Y002097D01*
X001225Y002142D01*
X001253Y002185D01*
X001284Y002226D01*
X001318Y002264D01*
X001355Y002299D01*
X001394Y002332D01*
X001436Y002362D01*
X001480Y002388D01*
X001526Y002410D01*
X001574Y002430D01*
X001623Y002445D01*
X001673Y002457D01*
X001723Y002465D01*
X001774Y002469D01*
X001826Y002469D01*
X001877Y002465D01*
X001927Y002457D01*
X001977Y002445D01*
X002026Y002430D01*
X002074Y002410D01*
X002120Y002388D01*
X002164Y002362D01*
X002206Y002332D01*
X002245Y002299D01*
X002282Y002264D01*
X002316Y002226D01*
X002347Y002185D01*
X002375Y002142D01*
X002400Y002097D01*
X002420Y002050D01*
X002438Y002002D01*
X002451Y001952D01*
X002461Y001902D01*
X002467Y001851D01*
X002469Y001800D01*
X002467Y001749D01*
X002461Y001698D01*
X002451Y001648D01*
X002438Y001598D01*
X002420Y001550D01*
X002400Y001503D01*
X002375Y001458D01*
X002347Y001415D01*
X002316Y001374D01*
X002282Y001336D01*
X002245Y001301D01*
X002206Y001268D01*
X002164Y001238D01*
X002120Y001212D01*
X002074Y001190D01*
X002026Y001170D01*
X001977Y001155D01*
X001927Y001143D01*
X001877Y001135D01*
X001826Y001131D01*
X001774Y001131D01*
X001723Y001135D01*
X001673Y001143D01*
X001623Y001155D01*
X001574Y001170D01*
X001526Y001190D01*
X001480Y001212D01*
X001436Y001238D01*
X001394Y001268D01*
X001355Y001301D01*
X001318Y001336D01*
X001284Y001374D01*
X001253Y001415D01*
X001225Y001458D01*
X001200Y001503D01*
X001180Y001550D01*
X001162Y001598D01*
X001149Y001648D01*
X001139Y001698D01*
X001133Y001749D01*
X001131Y001800D01*
X000450Y001800D02*
X000452Y001873D01*
X000458Y001946D01*
X000468Y002018D01*
X000482Y002090D01*
X000499Y002161D01*
X000521Y002231D01*
X000546Y002300D01*
X000575Y002367D01*
X000607Y002432D01*
X000643Y002496D01*
X000683Y002558D01*
X000725Y002617D01*
X000771Y002674D01*
X000820Y002728D01*
X000872Y002780D01*
X000926Y002829D01*
X000983Y002875D01*
X001042Y002917D01*
X001104Y002957D01*
X001168Y002993D01*
X001233Y003025D01*
X001300Y003054D01*
X001369Y003079D01*
X001439Y003101D01*
X001510Y003118D01*
X001582Y003132D01*
X001654Y003142D01*
X001727Y003148D01*
X001800Y003150D01*
X001873Y003148D01*
X001946Y003142D01*
X002018Y003132D01*
X002090Y003118D01*
X002161Y003101D01*
X002231Y003079D01*
X002300Y003054D01*
X002367Y003025D01*
X002432Y002993D01*
X002496Y002957D01*
X002558Y002917D01*
X002617Y002875D01*
X002674Y002829D01*
X002728Y002780D01*
X002780Y002728D01*
X002829Y002674D01*
X002875Y002617D01*
X002917Y002558D01*
X002957Y002496D01*
X002993Y002432D01*
X003025Y002367D01*
X003054Y002300D01*
X003079Y002231D01*
X003101Y002161D01*
X003118Y002090D01*
X003132Y002018D01*
X003142Y001946D01*
X003148Y001873D01*
X003150Y001800D01*
X003148Y001727D01*
X003142Y001654D01*
X003132Y001582D01*
X003118Y001510D01*
X003101Y001439D01*
X003079Y001369D01*
X003054Y001300D01*
X003025Y001233D01*
X002993Y001168D01*
X002957Y001104D01*
X002917Y001042D01*
X002875Y000983D01*
X002829Y000926D01*
X002780Y000872D01*
X002728Y000820D01*
X002674Y000771D01*
X002617Y000725D01*
X002558Y000683D01*
X002496Y000643D01*
X002432Y000607D01*
X002367Y000575D01*
X002300Y000546D01*
X002231Y000521D01*
X002161Y000499D01*
X002090Y000482D01*
X002018Y000468D01*
X001946Y000458D01*
X001873Y000452D01*
X001800Y000450D01*
X001727Y000452D01*
X001654Y000458D01*
X001582Y000468D01*
X001510Y000482D01*
X001439Y000499D01*
X001369Y000521D01*
X001300Y000546D01*
X001233Y000575D01*
X001168Y000607D01*
X001104Y000643D01*
X001042Y000683D01*
X000983Y000725D01*
X000926Y000771D01*
X000872Y000820D01*
X000820Y000872D01*
X000771Y000926D01*
X000725Y000983D01*
X000683Y001042D01*
X000643Y001104D01*
X000607Y001168D01*
X000575Y001233D01*
X000546Y001300D01*
X000521Y001369D01*
X000499Y001439D01*
X000482Y001510D01*
X000468Y001582D01*
X000458Y001654D01*
X000452Y001727D01*
X000450Y001800D01*
X001131Y028300D02*
X001133Y028351D01*
X001139Y028402D01*
X001149Y028452D01*
X001162Y028502D01*
X001180Y028550D01*
X001200Y028597D01*
X001225Y028642D01*
X001253Y028685D01*
X001284Y028726D01*
X001318Y028764D01*
X001355Y028799D01*
X001394Y028832D01*
X001436Y028862D01*
X001480Y028888D01*
X001526Y028910D01*
X001574Y028930D01*
X001623Y028945D01*
X001673Y028957D01*
X001723Y028965D01*
X001774Y028969D01*
X001826Y028969D01*
X001877Y028965D01*
X001927Y028957D01*
X001977Y028945D01*
X002026Y028930D01*
X002074Y028910D01*
X002120Y028888D01*
X002164Y028862D01*
X002206Y028832D01*
X002245Y028799D01*
X002282Y028764D01*
X002316Y028726D01*
X002347Y028685D01*
X002375Y028642D01*
X002400Y028597D01*
X002420Y028550D01*
X002438Y028502D01*
X002451Y028452D01*
X002461Y028402D01*
X002467Y028351D01*
X002469Y028300D01*
X002467Y028249D01*
X002461Y028198D01*
X002451Y028148D01*
X002438Y028098D01*
X002420Y028050D01*
X002400Y028003D01*
X002375Y027958D01*
X002347Y027915D01*
X002316Y027874D01*
X002282Y027836D01*
X002245Y027801D01*
X002206Y027768D01*
X002164Y027738D01*
X002120Y027712D01*
X002074Y027690D01*
X002026Y027670D01*
X001977Y027655D01*
X001927Y027643D01*
X001877Y027635D01*
X001826Y027631D01*
X001774Y027631D01*
X001723Y027635D01*
X001673Y027643D01*
X001623Y027655D01*
X001574Y027670D01*
X001526Y027690D01*
X001480Y027712D01*
X001436Y027738D01*
X001394Y027768D01*
X001355Y027801D01*
X001318Y027836D01*
X001284Y027874D01*
X001253Y027915D01*
X001225Y027958D01*
X001200Y028003D01*
X001180Y028050D01*
X001162Y028098D01*
X001149Y028148D01*
X001139Y028198D01*
X001133Y028249D01*
X001131Y028300D01*
X000450Y028300D02*
X000452Y028373D01*
X000458Y028446D01*
X000468Y028518D01*
X000482Y028590D01*
X000499Y028661D01*
X000521Y028731D01*
X000546Y028800D01*
X000575Y028867D01*
X000607Y028932D01*
X000643Y028996D01*
X000683Y029058D01*
X000725Y029117D01*
X000771Y029174D01*
X000820Y029228D01*
X000872Y029280D01*
X000926Y029329D01*
X000983Y029375D01*
X001042Y029417D01*
X001104Y029457D01*
X001168Y029493D01*
X001233Y029525D01*
X001300Y029554D01*
X001369Y029579D01*
X001439Y029601D01*
X001510Y029618D01*
X001582Y029632D01*
X001654Y029642D01*
X001727Y029648D01*
X001800Y029650D01*
X001873Y029648D01*
X001946Y029642D01*
X002018Y029632D01*
X002090Y029618D01*
X002161Y029601D01*
X002231Y029579D01*
X002300Y029554D01*
X002367Y029525D01*
X002432Y029493D01*
X002496Y029457D01*
X002558Y029417D01*
X002617Y029375D01*
X002674Y029329D01*
X002728Y029280D01*
X002780Y029228D01*
X002829Y029174D01*
X002875Y029117D01*
X002917Y029058D01*
X002957Y028996D01*
X002993Y028932D01*
X003025Y028867D01*
X003054Y028800D01*
X003079Y028731D01*
X003101Y028661D01*
X003118Y028590D01*
X003132Y028518D01*
X003142Y028446D01*
X003148Y028373D01*
X003150Y028300D01*
X003148Y028227D01*
X003142Y028154D01*
X003132Y028082D01*
X003118Y028010D01*
X003101Y027939D01*
X003079Y027869D01*
X003054Y027800D01*
X003025Y027733D01*
X002993Y027668D01*
X002957Y027604D01*
X002917Y027542D01*
X002875Y027483D01*
X002829Y027426D01*
X002780Y027372D01*
X002728Y027320D01*
X002674Y027271D01*
X002617Y027225D01*
X002558Y027183D01*
X002496Y027143D01*
X002432Y027107D01*
X002367Y027075D01*
X002300Y027046D01*
X002231Y027021D01*
X002161Y026999D01*
X002090Y026982D01*
X002018Y026968D01*
X001946Y026958D01*
X001873Y026952D01*
X001800Y026950D01*
X001727Y026952D01*
X001654Y026958D01*
X001582Y026968D01*
X001510Y026982D01*
X001439Y026999D01*
X001369Y027021D01*
X001300Y027046D01*
X001233Y027075D01*
X001168Y027107D01*
X001104Y027143D01*
X001042Y027183D01*
X000983Y027225D01*
X000926Y027271D01*
X000872Y027320D01*
X000820Y027372D01*
X000771Y027426D01*
X000725Y027483D01*
X000683Y027542D01*
X000643Y027604D01*
X000607Y027668D01*
X000575Y027733D01*
X000546Y027800D01*
X000521Y027869D01*
X000499Y027939D01*
X000482Y028010D01*
X000468Y028082D01*
X000458Y028154D01*
X000452Y028227D01*
X000450Y028300D01*
X021881Y028300D02*
X021883Y028351D01*
X021889Y028402D01*
X021899Y028452D01*
X021912Y028502D01*
X021930Y028550D01*
X021950Y028597D01*
X021975Y028642D01*
X022003Y028685D01*
X022034Y028726D01*
X022068Y028764D01*
X022105Y028799D01*
X022144Y028832D01*
X022186Y028862D01*
X022230Y028888D01*
X022276Y028910D01*
X022324Y028930D01*
X022373Y028945D01*
X022423Y028957D01*
X022473Y028965D01*
X022524Y028969D01*
X022576Y028969D01*
X022627Y028965D01*
X022677Y028957D01*
X022727Y028945D01*
X022776Y028930D01*
X022824Y028910D01*
X022870Y028888D01*
X022914Y028862D01*
X022956Y028832D01*
X022995Y028799D01*
X023032Y028764D01*
X023066Y028726D01*
X023097Y028685D01*
X023125Y028642D01*
X023150Y028597D01*
X023170Y028550D01*
X023188Y028502D01*
X023201Y028452D01*
X023211Y028402D01*
X023217Y028351D01*
X023219Y028300D01*
X023217Y028249D01*
X023211Y028198D01*
X023201Y028148D01*
X023188Y028098D01*
X023170Y028050D01*
X023150Y028003D01*
X023125Y027958D01*
X023097Y027915D01*
X023066Y027874D01*
X023032Y027836D01*
X022995Y027801D01*
X022956Y027768D01*
X022914Y027738D01*
X022870Y027712D01*
X022824Y027690D01*
X022776Y027670D01*
X022727Y027655D01*
X022677Y027643D01*
X022627Y027635D01*
X022576Y027631D01*
X022524Y027631D01*
X022473Y027635D01*
X022423Y027643D01*
X022373Y027655D01*
X022324Y027670D01*
X022276Y027690D01*
X022230Y027712D01*
X022186Y027738D01*
X022144Y027768D01*
X022105Y027801D01*
X022068Y027836D01*
X022034Y027874D01*
X022003Y027915D01*
X021975Y027958D01*
X021950Y028003D01*
X021930Y028050D01*
X021912Y028098D01*
X021899Y028148D01*
X021889Y028198D01*
X021883Y028249D01*
X021881Y028300D01*
X021200Y028300D02*
X021202Y028373D01*
X021208Y028446D01*
X021218Y028518D01*
X021232Y028590D01*
X021249Y028661D01*
X021271Y028731D01*
X021296Y028800D01*
X021325Y028867D01*
X021357Y028932D01*
X021393Y028996D01*
X021433Y029058D01*
X021475Y029117D01*
X021521Y029174D01*
X021570Y029228D01*
X021622Y029280D01*
X021676Y029329D01*
X021733Y029375D01*
X021792Y029417D01*
X021854Y029457D01*
X021918Y029493D01*
X021983Y029525D01*
X022050Y029554D01*
X022119Y029579D01*
X022189Y029601D01*
X022260Y029618D01*
X022332Y029632D01*
X022404Y029642D01*
X022477Y029648D01*
X022550Y029650D01*
X022623Y029648D01*
X022696Y029642D01*
X022768Y029632D01*
X022840Y029618D01*
X022911Y029601D01*
X022981Y029579D01*
X023050Y029554D01*
X023117Y029525D01*
X023182Y029493D01*
X023246Y029457D01*
X023308Y029417D01*
X023367Y029375D01*
X023424Y029329D01*
X023478Y029280D01*
X023530Y029228D01*
X023579Y029174D01*
X023625Y029117D01*
X023667Y029058D01*
X023707Y028996D01*
X023743Y028932D01*
X023775Y028867D01*
X023804Y028800D01*
X023829Y028731D01*
X023851Y028661D01*
X023868Y028590D01*
X023882Y028518D01*
X023892Y028446D01*
X023898Y028373D01*
X023900Y028300D01*
X023898Y028227D01*
X023892Y028154D01*
X023882Y028082D01*
X023868Y028010D01*
X023851Y027939D01*
X023829Y027869D01*
X023804Y027800D01*
X023775Y027733D01*
X023743Y027668D01*
X023707Y027604D01*
X023667Y027542D01*
X023625Y027483D01*
X023579Y027426D01*
X023530Y027372D01*
X023478Y027320D01*
X023424Y027271D01*
X023367Y027225D01*
X023308Y027183D01*
X023246Y027143D01*
X023182Y027107D01*
X023117Y027075D01*
X023050Y027046D01*
X022981Y027021D01*
X022911Y026999D01*
X022840Y026982D01*
X022768Y026968D01*
X022696Y026958D01*
X022623Y026952D01*
X022550Y026950D01*
X022477Y026952D01*
X022404Y026958D01*
X022332Y026968D01*
X022260Y026982D01*
X022189Y026999D01*
X022119Y027021D01*
X022050Y027046D01*
X021983Y027075D01*
X021918Y027107D01*
X021854Y027143D01*
X021792Y027183D01*
X021733Y027225D01*
X021676Y027271D01*
X021622Y027320D01*
X021570Y027372D01*
X021521Y027426D01*
X021475Y027483D01*
X021433Y027542D01*
X021393Y027604D01*
X021357Y027668D01*
X021325Y027733D01*
X021296Y027800D01*
X021271Y027869D01*
X021249Y027939D01*
X021232Y028010D01*
X021218Y028082D01*
X021208Y028154D01*
X021202Y028227D01*
X021200Y028300D01*
X021881Y001800D02*
X021883Y001851D01*
X021889Y001902D01*
X021899Y001952D01*
X021912Y002002D01*
X021930Y002050D01*
X021950Y002097D01*
X021975Y002142D01*
X022003Y002185D01*
X022034Y002226D01*
X022068Y002264D01*
X022105Y002299D01*
X022144Y002332D01*
X022186Y002362D01*
X022230Y002388D01*
X022276Y002410D01*
X022324Y002430D01*
X022373Y002445D01*
X022423Y002457D01*
X022473Y002465D01*
X022524Y002469D01*
X022576Y002469D01*
X022627Y002465D01*
X022677Y002457D01*
X022727Y002445D01*
X022776Y002430D01*
X022824Y002410D01*
X022870Y002388D01*
X022914Y002362D01*
X022956Y002332D01*
X022995Y002299D01*
X023032Y002264D01*
X023066Y002226D01*
X023097Y002185D01*
X023125Y002142D01*
X023150Y002097D01*
X023170Y002050D01*
X023188Y002002D01*
X023201Y001952D01*
X023211Y001902D01*
X023217Y001851D01*
X023219Y001800D01*
X023217Y001749D01*
X023211Y001698D01*
X023201Y001648D01*
X023188Y001598D01*
X023170Y001550D01*
X023150Y001503D01*
X023125Y001458D01*
X023097Y001415D01*
X023066Y001374D01*
X023032Y001336D01*
X022995Y001301D01*
X022956Y001268D01*
X022914Y001238D01*
X022870Y001212D01*
X022824Y001190D01*
X022776Y001170D01*
X022727Y001155D01*
X022677Y001143D01*
X022627Y001135D01*
X022576Y001131D01*
X022524Y001131D01*
X022473Y001135D01*
X022423Y001143D01*
X022373Y001155D01*
X022324Y001170D01*
X022276Y001190D01*
X022230Y001212D01*
X022186Y001238D01*
X022144Y001268D01*
X022105Y001301D01*
X022068Y001336D01*
X022034Y001374D01*
X022003Y001415D01*
X021975Y001458D01*
X021950Y001503D01*
X021930Y001550D01*
X021912Y001598D01*
X021899Y001648D01*
X021889Y001698D01*
X021883Y001749D01*
X021881Y001800D01*
X021200Y001800D02*
X021202Y001873D01*
X021208Y001946D01*
X021218Y002018D01*
X021232Y002090D01*
X021249Y002161D01*
X021271Y002231D01*
X021296Y002300D01*
X021325Y002367D01*
X021357Y002432D01*
X021393Y002496D01*
X021433Y002558D01*
X021475Y002617D01*
X021521Y002674D01*
X021570Y002728D01*
X021622Y002780D01*
X021676Y002829D01*
X021733Y002875D01*
X021792Y002917D01*
X021854Y002957D01*
X021918Y002993D01*
X021983Y003025D01*
X022050Y003054D01*
X022119Y003079D01*
X022189Y003101D01*
X022260Y003118D01*
X022332Y003132D01*
X022404Y003142D01*
X022477Y003148D01*
X022550Y003150D01*
X022623Y003148D01*
X022696Y003142D01*
X022768Y003132D01*
X022840Y003118D01*
X022911Y003101D01*
X022981Y003079D01*
X023050Y003054D01*
X023117Y003025D01*
X023182Y002993D01*
X023246Y002957D01*
X023308Y002917D01*
X023367Y002875D01*
X023424Y002829D01*
X023478Y002780D01*
X023530Y002728D01*
X023579Y002674D01*
X023625Y002617D01*
X023667Y002558D01*
X023707Y002496D01*
X023743Y002432D01*
X023775Y002367D01*
X023804Y002300D01*
X023829Y002231D01*
X023851Y002161D01*
X023868Y002090D01*
X023882Y002018D01*
X023892Y001946D01*
X023898Y001873D01*
X023900Y001800D01*
X023898Y001727D01*
X023892Y001654D01*
X023882Y001582D01*
X023868Y001510D01*
X023851Y001439D01*
X023829Y001369D01*
X023804Y001300D01*
X023775Y001233D01*
X023743Y001168D01*
X023707Y001104D01*
X023667Y001042D01*
X023625Y000983D01*
X023579Y000926D01*
X023530Y000872D01*
X023478Y000820D01*
X023424Y000771D01*
X023367Y000725D01*
X023308Y000683D01*
X023246Y000643D01*
X023182Y000607D01*
X023117Y000575D01*
X023050Y000546D01*
X022981Y000521D01*
X022911Y000499D01*
X022840Y000482D01*
X022768Y000468D01*
X022696Y000458D01*
X022623Y000452D01*
X022550Y000450D01*
X022477Y000452D01*
X022404Y000458D01*
X022332Y000468D01*
X022260Y000482D01*
X022189Y000499D01*
X022119Y000521D01*
X022050Y000546D01*
X021983Y000575D01*
X021918Y000607D01*
X021854Y000643D01*
X021792Y000683D01*
X021733Y000725D01*
X021676Y000771D01*
X021622Y000820D01*
X021570Y000872D01*
X021521Y000926D01*
X021475Y000983D01*
X021433Y001042D01*
X021393Y001104D01*
X021357Y001168D01*
X021325Y001233D01*
X021296Y001300D01*
X021271Y001369D01*
X021249Y001439D01*
X021232Y001510D01*
X021218Y001582D01*
X021208Y001654D01*
X021202Y001727D01*
X021200Y001800D01*
D153*
X009050Y008300D02*
X008800Y008050D01*
X008300Y008050D01*
X008050Y008300D01*
X007800Y008050D01*
X007300Y008050D01*
X007050Y008300D01*
X006800Y008050D01*
X006300Y008050D01*
X006050Y008300D01*
X005800Y008050D01*
X005300Y008050D01*
X005050Y008300D01*
X004800Y008050D01*
X004300Y008050D01*
X004050Y008300D01*
X003800Y008050D01*
X003300Y008050D01*
X003050Y008300D01*
X003050Y008800D01*
X003300Y009050D01*
X003800Y009050D01*
X004050Y008800D01*
X004300Y009050D01*
X004800Y009050D01*
X005050Y008800D01*
X005300Y009050D01*
X005800Y009050D01*
X006050Y008800D01*
X006300Y009050D01*
X006800Y009050D01*
X007050Y008800D01*
X007300Y009050D01*
X007800Y009050D01*
X008050Y008800D01*
X008300Y009050D01*
X008800Y009050D01*
X009050Y008800D01*
X009050Y008300D01*
M02*
